<svg xmlns="http://www.w3.org/2000/svg" width="22" height="16" fill="none" viewBox="0 0 22 16">
    <path fill="#E0F0F1" d="M12.375 7.118c-.163-.228-.48-.266-.758-.286a34.836 34.836 0 0 1-4.238-.577c-1.332-.267-2.755-.249-4.11-.429-.206-.027-.557-.021-.735-.148-.054 0-.217 0-.271-.054-.217 0-.597-.109-.651-.38-.054 0-.109-.109-.163-.163v-.054s-.054-.054-.054-.109c0 0-.163-.27-.163-.38-.054-.378-.054-.54-.054-.918 0-.766.087-1.527.185-2.286.058-.447-.004-1.071.48-1.279.487-.208 1.45.228 1.885.415.868.326 1.681.542 2.495.922 0 0 .108.054.163.054.488.217.976.38 1.41.597 1.41.488 1.573.543 3.255 1.085 1.627.488 3.255 1.14 4.774 1.845.434.217.868.488 1.302.705.829.414 5 1.215 4.1 2.789-.43.751-1.826 1.188-2.574 1.506-1.024.436-2.077.8-3.1 1.238-2.278.977-4.719 1.628-7.16 2.442 0 0-.217.108-.38.162a3.14 3.14 0 0 1-.76.272c-1.03.38-1.573.596-2.44.813-.055.054-.543.271-.76.326a10.54 10.54 0 0 1-1.463.429c-.372.08-.899.42-1.259.33-.206-.052-.384-.178-.55-.31-1.036-.823-.743-1.808-.743-2.999 0-1.093.106-2.19.108-3.285.002-.964-.19-2.638 1.303-2.14h.922l5.813.02c.425.002.855-.016 1.28.005.868.043 1.719-.068 2.592-.158.15-.016.305-.034.433-.113"/>
</svg>
