<svg width="8" height="16" viewBox="0 0 8 16" fill="none" xmlns="http://www.w3.org/2000/svg">
<g clip-path="url(#clip0)">
<path d="M8 1.62709V0.377622C8 0.172341 7.83519 0.00521624 7.62994 0.00265374C6.61316 -0.0101588 5.20216 0.000934958 4 1.18681C2.82081 0.0235913 1.46809 -0.00297126 0.372281 0.00415374C0.166188 0.00549749 0 0.17306 0 0.379154V1.61806C0 1.82703 0.170563 1.9955 0.379531 1.993C1.19097 1.98331 3 2.10194 3 3.50628V7.00059H1.875C1.66791 7.00059 1.5 7.1685 1.5 7.37559V8.62559C1.5 8.83269 1.66791 9.00059 1.875 9.00059H3V12.5006C3 13.9047 1.24766 14.0016 0.376563 13.9993C0.168875 13.9988 0 14.1664 0 14.3741V15.6236C0 15.8288 0.164813 15.996 0.370063 15.9985C1.38684 16.0113 2.79784 16.0002 4 14.8143C5.17919 15.9776 6.53191 16.0041 7.62772 15.997C7.83381 15.9957 8 15.8281 8 15.622V14.3831C8 14.1741 7.82944 14.0057 7.62047 14.0082C6.80903 14.0179 5 13.9049 5 12.5006V9.00059H6.125C6.33209 9.00059 6.5 8.83269 6.5 8.62559V7.37559C6.5 7.1685 6.33209 7.00059 6.125 7.00059H5V3.50628C5 2.10215 6.75234 1.99962 7.62344 2.00184C7.83112 2.0024 8 1.83478 8 1.62709V1.62709Z" fill="#AAB0C0"/>
</g>
<defs>
<clipPath id="clip0">
<rect width="8" height="16" fill="white"/>
</clipPath>
</defs>
</svg>
