<svg width="24" height="25" viewBox="0 0 24 25" fill="none" xmlns="http://www.w3.org/2000/svg">
<path fill-rule="evenodd" clip-rule="evenodd" d="M12 24.9221C18.6274 24.9221 24 19.5495 24 12.9221C24 6.2947 18.6274 0.922119 12 0.922119C5.37258 0.922119 0 6.2947 0 12.9221C0 19.5495 5.37258 24.9221 12 24.9221ZM11.2304 8.41146C12.0531 8.41146 12.7471 7.86074 12.9639 7.10787C14.6161 6.99265 16.1209 7.488 17.1286 8.4381C16.9519 8.71699 16.8495 9.04769 16.8495 9.40229C16.8495 10.3269 17.5452 11.089 18.4417 11.1938C18.577 12.5458 18.1804 14.0607 17.2261 15.4236C17.1047 15.3978 16.9787 15.3843 16.8495 15.3843C15.8533 15.3843 15.0458 16.1918 15.0458 17.188C15.0458 17.3036 15.0567 17.4167 15.0775 17.5263C13.5943 18.5438 12.0152 18.9862 10.5845 18.9626C10.3499 18.2389 9.67018 17.7156 8.86828 17.7156C8.41887 17.7156 8.00785 17.8799 7.69204 18.1518C7.20337 17.8452 6.78497 17.4578 6.46047 17.0002C6.00953 16.3642 5.74663 15.6021 5.67743 14.7828C6.47274 14.5947 7.06453 13.8802 7.06453 13.0274C7.06453 12.4343 6.77825 11.908 6.33633 11.5793C6.87407 10.4954 7.73521 9.45875 8.93134 8.61062C9.29033 8.35607 9.65536 8.13561 10.0229 7.94768C10.3426 8.23597 10.766 8.41146 11.2304 8.41146ZM5.28336 17.8349C4.58001 16.8429 4.23232 15.6894 4.20836 14.4925C3.75332 14.165 3.45703 13.6308 3.45703 13.0274C3.45703 12.1553 4.07596 11.4277 4.89853 11.26C5.54471 9.82041 6.6301 8.47341 8.09668 7.4335C8.52781 7.1278 8.97309 6.86196 9.42688 6.63558L9.42667 6.60771C9.42667 5.61152 10.2342 4.80396 11.2304 4.80396C11.8876 4.80396 12.4626 5.15536 12.7779 5.68052C14.9402 5.50007 16.9918 6.16159 18.3563 7.62287C18.4529 7.60686 18.5521 7.59854 18.6533 7.59854C19.6495 7.59854 20.457 8.4061 20.457 9.40229C20.457 9.93895 20.2227 10.4209 19.8507 10.7513C20.119 12.5639 19.5942 14.5452 18.3948 16.2571C18.5589 16.5288 18.6533 16.8474 18.6533 17.188C18.6533 18.1842 17.8457 18.9918 16.8495 18.9918C16.4979 18.9918 16.1698 18.8911 15.8924 18.7171C14.1717 19.8955 12.2382 20.4481 10.4424 20.4006C10.1336 20.9511 9.54438 21.3231 8.86828 21.3231C7.8721 21.3231 7.06453 20.5155 7.06453 19.5193C7.06453 19.503 7.06475 19.4867 7.06518 19.4705C6.37102 19.059 5.76409 18.5128 5.28336 17.8349ZM11.2313 7.14875C11.5302 7.14875 11.7724 6.90648 11.7724 6.60762C11.7724 6.30877 11.5302 6.0665 11.2313 6.0665C10.9325 6.0665 10.6902 6.30877 10.6902 6.60762C10.6902 6.90648 10.9325 7.14875 11.2313 7.14875ZM19.1944 9.40213C19.1944 9.70099 18.9521 9.94326 18.6532 9.94326C18.3544 9.94326 18.1121 9.70099 18.1121 9.40213C18.1121 9.10328 18.3544 8.86101 18.6532 8.86101C18.9521 8.86101 19.1944 9.10328 19.1944 9.40213ZM16.8499 17.7291C17.1488 17.7291 17.391 17.4869 17.391 17.188C17.391 16.8892 17.1488 16.6469 16.8499 16.6469C16.551 16.6469 16.3088 16.8892 16.3088 17.188C16.3088 17.4869 16.551 17.7291 16.8499 17.7291ZM9.40983 19.5192C9.40983 19.8181 9.16756 20.0604 8.8687 20.0604C8.56985 20.0604 8.32758 19.8181 8.32758 19.5192C8.32758 19.2204 8.56985 18.9781 8.8687 18.9781C9.16756 18.9781 9.40983 19.2204 9.40983 19.5192ZM5.26097 13.5684C5.55983 13.5684 5.8021 13.3261 5.8021 13.0272C5.8021 12.7284 5.55983 12.4861 5.26097 12.4861C4.96212 12.4861 4.71985 12.7284 4.71985 13.0272C4.71985 13.3261 4.96212 13.5684 5.26097 13.5684Z" fill="#7D7FEF"/>
</svg>
