<svg width="16" height="16" viewBox="0 0 16 16" fill="none" xmlns="http://www.w3.org/2000/svg">
<g clip-path="url(#clip0)">
<path d="M10 0V2H6V0H10ZM11 2H12C12.5304 2 13.0391 2.21071 13.4142 2.58579C13.7893 2.96086 14 3.46957 14 4V5H16V2C16 1.46957 15.7893 0.960859 15.4142 0.585786C15.0391 0.210714 14.5304 0 14 0L11 0V2ZM16 6H14V10H16V6ZM14 11V12C14 12.5304 13.7893 13.0391 13.4142 13.4142C13.0391 13.7893 12.5304 14 12 14H11V16H14C14.5304 16 15.0391 15.7893 15.4142 15.4142C15.7893 15.0391 16 14.5304 16 14V11H14ZM10 16V14H6V16H10ZM5 14H4C3.46957 14 2.96086 13.7893 2.58579 13.4142C2.21071 13.0391 2 12.5304 2 12V11H0V14C0 14.5304 0.210714 15.0391 0.585786 15.4142C0.960859 15.7893 1.46957 16 2 16H5V14ZM0 10H2V6H0V10ZM2 5V4C2 3.46957 2.21071 2.96086 2.58579 2.58579C2.96086 2.21071 3.46957 2 4 2H5V0H2C1.46957 0 0.960859 0.210714 0.585786 0.585786C0.210714 0.960859 0 1.46957 0 2L0 5H2Z" fill="#AAB0C0"/>
<path d="M10.2 8.00002L12.8 5.40002C12.9832 5.21309 13.0859 4.96177 13.0859 4.70002C13.0859 4.43826 12.9832 4.18695 12.8 4.00002L12 3.30002C11.8131 3.11679 11.5618 3.01416 11.3 3.01416C11.0383 3.01416 10.7869 3.11679 10.6 3.30002L8.00002 5.90002L5.40002 3.30002C5.21309 3.11679 4.96177 3.01416 4.70002 3.01416C4.43826 3.01416 4.18695 3.11679 4.00002 3.30002L3.30002 4.00002C3.11679 4.18695 3.01416 4.43826 3.01416 4.70002C3.01416 4.96177 3.11679 5.21309 3.30002 5.40002L5.90002 8.00002L3.30002 10.6C3.15351 10.804 3.0747 11.0489 3.0747 11.3C3.0747 11.5512 3.15351 11.796 3.30002 12L4.00002 12.7C4.18695 12.8832 4.43826 12.9859 4.70002 12.9859C4.96177 12.9859 5.21309 12.8832 5.40002 12.7L8.00002 10.2L10.5 12.7C10.6869 12.8832 10.9383 12.9859 11.2 12.9859C11.4618 12.9859 11.7131 12.8832 11.9 12.7L12.6 12C12.7832 11.8131 12.8859 11.5618 12.8859 11.3C12.8859 11.0383 12.7832 10.7869 12.6 10.6L10.2 8.00002Z" fill="#FF403C"/>
</g>
<defs>
<clipPath id="clip0">
<rect width="16" height="16" fill="white"/>
</clipPath>
</defs>
</svg>
