<svg width="16" height="16" viewBox="0 0 16 16" fill="none" xmlns="http://www.w3.org/2000/svg">
<path d="M15.2311 9.86563L13.8999 9.09688C14.0343 8.37188 14.0343 7.62813 13.8999 6.90313L15.2311 6.13438C15.3843 6.04688 15.453 5.86563 15.403 5.69688C15.0561 4.58438 14.4655 3.57813 13.6937 2.74063C13.5749 2.6125 13.3811 2.58125 13.2311 2.66875L11.8999 3.4375C11.3405 2.95625 10.6968 2.58438 9.9999 2.34063V0.806252C9.9999 0.631252 9.87802 0.478127 9.70615 0.440627C8.55927 0.184377 7.38427 0.196877 6.29365 0.440627C6.12177 0.478127 5.9999 0.631252 5.9999 0.806252V2.34375C5.30615 2.59063 4.6624 2.9625 4.0999 3.44063L2.77177 2.67188C2.61865 2.58438 2.42802 2.6125 2.30927 2.74375C1.5374 3.57813 0.946773 4.58438 0.599898 5.7C0.546773 5.86875 0.618648 6.05 0.771773 6.1375L2.10302 6.90625C1.96865 7.63125 1.96865 8.375 2.10302 9.1L0.771773 9.86875C0.618648 9.95625 0.549898 10.1375 0.599898 10.3063C0.946773 11.4188 1.5374 12.425 2.30927 13.2625C2.42802 13.3906 2.62177 13.4219 2.77177 13.3344L4.10302 12.5656C4.6624 13.0469 5.30615 13.4188 6.00302 13.6625V15.2C6.00302 15.375 6.1249 15.5281 6.29677 15.5656C7.44365 15.8219 8.61865 15.8094 9.70927 15.5656C9.88115 15.5281 10.003 15.375 10.003 15.2V13.6625C10.6968 13.4156 11.3405 13.0438 11.903 12.5656L13.2343 13.3344C13.3874 13.4219 13.578 13.3938 13.6968 13.2625C14.4686 12.4281 15.0593 11.4219 15.4061 10.3063C15.453 10.1344 15.3843 9.95313 15.2311 9.86563ZM7.9999 10.5C6.62177 10.5 5.4999 9.37813 5.4999 8C5.4999 6.62188 6.62177 5.5 7.9999 5.5C9.37802 5.5 10.4999 6.62188 10.4999 8C10.4999 9.37813 9.37802 10.5 7.9999 10.5Z" fill="#AAB0C0"/>
</svg>
