<svg width="14" height="16" viewBox="0 0 14 16" fill="none" xmlns="http://www.w3.org/2000/svg">
<path d="M12.5 0H1.5C0.7 0 0 0.7 0 1.5V14.5C0 15.3 0.7 16 1.5 16H12.5C13.3 16 14 15.3 14 14.5V1.5C14 0.7 13.3 0 12.5 0ZM4 13.6C4 13.8 3.8 14 3.6 14H2.4C2.2 14 2 13.8 2 13.6V12.4C2 12.2 2.2 12 2.4 12H3.6C3.8 12 4 12.2 4 12.4V13.6V13.6ZM4 9.6C4 9.8 3.8 10 3.6 10H2.4C2.2 10 2 9.8 2 9.6V8.4C2 8.2 2.2 8 2.4 8H3.6C3.8 8 4 8.2 4 8.4V9.6V9.6ZM8 13.6C8 13.8 7.8 14 7.6 14H6.4C6.2 14 6 13.8 6 13.6V12.4C6 12.2 6.2 12 6.4 12H7.6C7.8 12 8 12.2 8 12.4V13.6ZM8 9.6C8 9.8 7.8 10 7.6 10H6.4C6.2 10 6 9.8 6 9.6V8.4C6 8.2 6.2 8 6.4 8H7.6C7.8 8 8 8.2 8 8.4V9.6ZM12 13.6C12 13.8 11.8 14 11.6 14H10.4C10.2 14 10 13.8 10 13.6V8.4C10 8.2 10.2 8 10.4 8H11.6C11.8 8 12 8.2 12 8.4V13.6V13.6ZM12 5.6C12 5.8 11.8 6 11.6 6H2.4C2.2 6 2 5.8 2 5.6V2.4C2 2.2 2.2 2 2.4 2H11.6C11.8 2 12 2.2 12 2.4V5.6Z" fill="#AAB0C0"/>
</svg>
