<svg width="24" height="24" viewBox="0 0 24 24" fill="none" xmlns="http://www.w3.org/2000/svg">
<path d="M12 24C18.6274 24 24 18.6274 24 12C24 5.37258 18.6274 0 12 0C5.37258 0 0 5.37258 0 12C0 18.6274 5.37258 24 12 24Z" fill="#5D7FF6"/>
<path fill-rule="evenodd" clip-rule="evenodd" d="M9.6582 13.4889H8.45516L7.01813 14.8661C6.9232 14.9569 6.7984 15.0036 6.67331 15.0036C6.61124 15.0036 6.54816 14.9921 6.48808 14.9683C6.30671 14.8963 6.18084 14.7226 6.18084 14.5221V13.4889H5.61967C5.06673 13.4889 4.60022 13.0558 4.60022 12.5023V7.45316C4.60022 6.89972 5.06673 6.46664 5.61967 6.46664H13.5228C14.0757 6.46664 14.5422 6.89972 14.5422 7.45316V9.69816H18.5808C19.1337 9.69816 19.6002 10.1312 19.6002 10.6846V15.7338C19.6002 16.2873 19.1337 16.7204 18.5808 16.7204H18.0196V17.7536C18.0196 17.9541 17.8938 18.1278 17.7124 18.1998C17.6524 18.2236 17.5892 18.2351 17.5271 18.2351C17.402 18.2351 17.2772 18.1884 17.1823 18.0977L15.7453 16.7204H10.6777C10.1247 16.7204 9.6582 16.2873 9.6582 15.7338V13.4889ZM9.67475 10.506H6.77881C6.48693 10.506 6.28621 10.7585 6.28621 11.0237C6.28621 11.2889 6.48693 11.5413 6.77881 11.5413H9.6582V12.5257H8.25401C8.12658 12.5257 8.00232 12.574 7.90921 12.6633L7.16597 13.3755V13.0073C7.16597 12.7319 6.9359 12.5257 6.67342 12.5257H5.61967C5.59306 12.5257 5.58537 12.5073 5.58537 12.5023V7.45316C5.58537 7.44823 5.59306 7.42985 5.61967 7.42985H13.5228C13.5325 7.42985 13.5377 7.43283 13.5425 7.43952C13.5491 7.44857 13.557 7.46837 13.557 7.50364V9.69816H10.6777C10.1858 9.69816 9.76239 10.0408 9.67475 10.506ZM6.76624 8.48634H12.2859C12.581 8.48634 12.7659 8.75026 12.7659 9.00397C12.7659 9.25776 12.581 9.52168 12.2859 9.52168H6.76624C6.47118 9.52168 6.28621 9.25776 6.28621 9.00397C6.28621 8.75026 6.47118 8.48634 6.76624 8.48634ZM17.102 16.2388C17.102 16.0037 17.2988 15.8247 17.527 15.8247H18.5808C18.6433 15.8247 18.6827 15.7774 18.6827 15.7338V10.6846C18.6827 10.6411 18.6433 10.5938 18.5808 10.5938H10.6777C10.6151 10.5938 10.5758 10.6411 10.5758 10.6846V15.7338C10.5758 15.7774 10.6151 15.8247 10.6777 15.8247H15.9464C16.0569 15.8247 16.1643 15.8667 16.2445 15.9436L17.102 16.7654V16.2388ZM11.9145 11.7178H17.4342C17.7293 11.7178 17.9142 11.9817 17.9142 12.2355C17.9142 12.4892 17.7293 12.7532 17.4342 12.7532H11.9145C11.6195 12.7532 11.4345 12.4892 11.4345 12.2355C11.4345 11.9817 11.6195 11.7178 11.9145 11.7178ZM13.7335 13.7375H17.4216C17.7135 13.7375 17.9142 13.99 17.9142 14.2552C17.9142 14.5204 17.7135 14.7728 17.4216 14.7728H13.7335C13.4416 14.7728 13.241 14.5204 13.241 14.2552C13.241 13.99 13.4416 13.7375 13.7335 13.7375Z" fill="white"/>
</svg>
