<svg width="24" height="25" viewBox="0 0 24 25" fill="none" xmlns="http://www.w3.org/2000/svg">
<path fill-rule="evenodd" clip-rule="evenodd" d="M24 12.6091C24 19.2365 18.6274 24.6091 12 24.6091C5.37258 24.6091 0 19.2365 0 12.6091C0 5.98171 5.37258 0.609131 12 0.609131C18.6274 0.609131 24 5.98171 24 12.6091ZM5.61409 4.63501C5.26199 4.63501 4.97656 4.95612 4.97656 5.35222V18.8588C4.97656 19.2549 5.26199 19.576 5.61409 19.576H18.339C18.6911 19.576 18.9766 19.2549 18.9766 18.8588V5.35222C18.9766 5.35222 18.9766 4.63501 18.339 4.63501H5.61409ZM6.25161 8.49518V18.1415H17.7015V8.49518H6.25161ZM9.26044 16.0422C9.49474 16.0997 9.72478 16.1284 9.95056 16.1284C10.2999 16.1284 10.6002 16.0685 10.8516 15.9487C11.1072 15.8289 11.3031 15.6588 11.4394 15.4383C11.5758 15.2131 11.6439 14.9495 11.6439 14.6476C11.6439 14.3073 11.5587 14.0245 11.3883 13.7993C11.2485 13.6144 11.0642 13.4861 10.8355 13.4142C10.9433 13.3679 11.0381 13.307 11.1199 13.2314C11.2435 13.1163 11.3393 12.9774 11.4075 12.8144C11.4756 12.6515 11.5097 12.4717 11.5097 12.2753C11.5097 11.9877 11.448 11.7433 11.3244 11.542C11.2009 11.3359 11.0241 11.1778 10.794 11.0675C10.564 10.9573 10.2871 10.9022 9.96334 10.9022C9.74182 10.9022 9.52243 10.9333 9.30517 10.9957C9.09217 11.058 8.89408 11.149 8.7109 11.2688C8.61292 11.3263 8.54476 11.4006 8.50642 11.4917C8.47234 11.5827 8.46169 11.6738 8.47447 11.7649C8.49151 11.8511 8.52559 11.9278 8.57671 11.9949C8.63209 12.062 8.70025 12.1051 8.78119 12.1243C8.86213 12.1435 8.94946 12.1267 9.04318 12.074C9.19654 11.9829 9.33925 11.9206 9.47131 11.8871C9.60337 11.8487 9.73756 11.8295 9.87388 11.8295C10.0954 11.8295 10.2637 11.8799 10.3787 11.9805C10.498 12.0812 10.5576 12.2273 10.5576 12.419C10.5576 12.5532 10.5278 12.6658 10.4682 12.7569C10.4128 12.848 10.334 12.9198 10.2317 12.9726C10.1337 13.0205 10.0123 13.0445 9.86749 13.0445H9.58633C9.44575 13.0445 9.33712 13.0852 9.26044 13.1667C9.18802 13.2433 9.15181 13.3536 9.15181 13.4973C9.15181 13.6363 9.18802 13.7466 9.26044 13.828C9.33712 13.9047 9.44575 13.9431 9.58633 13.9431H9.96334C10.2019 13.9431 10.383 13.9934 10.5065 14.094C10.63 14.1947 10.6918 14.3456 10.6918 14.5469C10.6918 14.6907 10.662 14.8105 10.6023 14.9063C10.5427 15.0022 10.4554 15.0765 10.3404 15.1292C10.2253 15.1771 10.0826 15.2011 9.91222 15.2011C9.76312 15.2011 9.61402 15.1819 9.46492 15.1436C9.31582 15.1052 9.1582 15.0405 8.99206 14.9495C8.88556 14.892 8.78758 14.8728 8.69812 14.892C8.61292 14.9111 8.54263 14.9567 8.48725 15.0286C8.43187 15.0957 8.39779 15.1747 8.38501 15.2658C8.37649 15.3568 8.3914 15.4503 8.42974 15.5461C8.47234 15.6372 8.54902 15.7163 8.65978 15.7834C8.83018 15.8936 9.0304 15.9799 9.26044 16.0422ZM12.6638 15.9272C12.7362 16.0086 12.8406 16.0494 12.9769 16.0494H15.1943C15.3263 16.0494 15.4286 16.011 15.501 15.9343C15.5734 15.8529 15.6096 15.7378 15.6096 15.5893C15.6096 15.4407 15.5734 15.3281 15.501 15.2514C15.4286 15.1747 15.3263 15.1364 15.1943 15.1364H14.6128V11.3695C14.6128 11.2161 14.5744 11.1035 14.4978 11.0316C14.4253 10.9549 14.3252 10.9166 14.1974 10.9166C14.108 10.9166 14.0164 10.9357 13.9227 10.9741C13.8332 11.0124 13.7437 11.0627 13.6543 11.125L12.7661 11.7289C12.6723 11.796 12.6084 11.8775 12.5744 11.9733C12.5403 12.0644 12.5318 12.1578 12.5488 12.2537C12.5701 12.3447 12.6106 12.4238 12.6702 12.4909C12.7299 12.558 12.8001 12.5987 12.8811 12.6131C12.9663 12.6275 13.0579 12.6011 13.1559 12.534L13.6223 12.2141V12.419V15.1364H12.9769C12.8406 15.1364 12.7362 15.1747 12.6638 15.2514C12.5914 15.3281 12.5552 15.4407 12.5552 15.5893C12.5552 15.7331 12.5914 15.8457 12.6638 15.9272Z" fill="#F2713A"/>
</svg>
