<svg width="24" height="24" viewBox="0 0 24 24" fill="none" xmlns="http://www.w3.org/2000/svg">
<path d="M12 24C18.6274 24 24 18.6274 24 12C24 5.37258 18.6274 0 12 0C5.37258 0 0 5.37258 0 12C0 18.6274 5.37258 24 12 24Z" fill="#FFA41C"/>
<path fill-rule="evenodd" clip-rule="evenodd" d="M10.864 18.1258C11.2481 18.1632 11.633 18.182 12.0121 18.182C14.4836 18.182 16.7307 17.4232 18.3634 16.1907C19.9961 14.9581 21.0221 13.2443 21.0221 11.341C21.0221 9.43763 19.9961 7.72384 18.3634 6.49129C16.7307 5.25876 14.4836 4.5 12.0121 4.5C9.54053 4.5 7.29346 5.25876 5.66076 6.49129C4.02804 7.72384 3.00208 9.43763 3.00208 11.341C3.00208 13.6455 4.47982 15.73 6.93523 16.9967V20.4075C6.93523 20.6681 7.09685 20.8997 7.33923 20.9972C7.41955 21.0294 7.50393 21.0451 7.58708 21.0451C7.75527 21.0451 7.92139 20.9814 8.04657 20.8602L10.864 18.1258ZM10.7087 16.8254C11.1445 16.8794 11.583 16.9068 12.0121 16.9068C14.1504 16.9068 16.0832 16.2733 17.4774 15.2584C18.8718 14.2434 19.718 12.8556 19.718 11.341C19.718 9.82632 18.8718 8.4386 17.4774 7.42353C16.0832 6.40862 14.1504 5.77518 12.0121 5.77518C9.8737 5.77518 7.94099 6.40862 6.54677 7.42353C5.15232 8.4386 4.30618 9.82632 4.30618 11.341C4.30618 13.223 5.61635 14.9823 7.86699 16.0271C8.09253 16.1317 8.23933 16.3548 8.23933 16.603V18.8763L10.167 17.0053C10.3096 16.8667 10.5094 16.7998 10.7087 16.8254Z" fill="white"/>
<path fill-rule="evenodd" clip-rule="evenodd" d="M7.57525 9.31229H15.8159C16.153 9.31229 16.3787 9.62886 16.3787 9.95556C16.3787 10.2823 16.153 10.5988 15.8159 10.5988H7.57525C7.23823 10.5988 7.01245 10.2823 7.01245 9.95556C7.01245 9.62886 7.23823 9.31229 7.57525 9.31229Z" fill="white"/>
<path fill-rule="evenodd" clip-rule="evenodd" d="M7.75589 12.36H14.6835C15.025 12.36 15.2665 12.6688 15.2665 13.0033C15.2665 13.3378 15.025 13.6466 14.6835 13.6466H7.75589C7.41445 13.6466 7.17297 13.3378 7.17297 13.0033C7.17297 12.6688 7.41445 12.36 7.75589 12.36Z" fill="white"/>
</svg>
