<svg width="14" height="16" viewBox="0 0 14 16" fill="none" xmlns="http://www.w3.org/2000/svg">
<path d="M11.9969 9.63438L12.7437 7.67813C12.8687 7.35 12.6281 7 12.275 7H10.4469C10.7906 6.40938 11.0031 5.73125 11.0031 5V4.99063C12.2281 4.74688 13.0031 4.39375 13.0031 4C13.0031 3.58438 12.15 3.21563 10.8125 2.96875C10.525 1.94375 9.96875 0.912502 9.54375 0.381252C9.24687 0.00937724 8.73437 -0.106248 8.30937 0.106252L7.44688 0.537502C7.16563 0.678127 6.83437 0.678127 6.55312 0.537502L5.69063 0.106252C5.26563 -0.106248 4.75313 0.00937724 4.45625 0.381252C4.03438 0.912502 3.475 1.94375 3.1875 2.96875C1.85312 3.21563 1 3.58438 1 4C1 4.39375 1.775 4.74688 3 4.99063V5C3 5.73125 3.2125 6.40938 3.55625 7H1.75937C1.4 7 1.15937 7.36563 1.3 7.69688L2.10625 9.57813C0.853125 10.3063 0 11.6469 0 13.2V14.6C0 15.3719 0.628125 16 1.4 16H12.6C13.3719 16 14 15.3719 14 14.6V13.2C14 11.6875 13.1937 10.375 11.9969 9.63438V9.63438ZM5.5 15L4.2 9L5.75 10L6.5 11.25L5.5 15ZM8.5 15L7.5 11.25L8.25 10L9.8 9L8.5 15ZM9.80313 5.67188C9.68125 6.04375 9.58438 6.44063 9.2875 6.71563C8.97188 7.00625 7.7875 7.41563 7.2875 5.93438C7.2 5.67188 6.80625 5.67188 6.71562 5.93438C6.18437 7.50313 4.96562 6.94688 4.71562 6.71563C4.41875 6.44063 4.31875 6.04375 4.2 5.67188C4.175 5.59375 4.00313 5.49375 4.00313 5.49063V5.15313C4.8875 5.26563 5.90938 5.33438 7.00313 5.33438C8.09688 5.33438 9.11875 5.26875 10.0031 5.15313V5.49063C10 5.49375 9.82813 5.59063 9.80313 5.67188Z" fill="#AAB0C0"/>
</svg>
