<svg width="16" height="16" viewBox="0 0 16 16" fill="none" xmlns="http://www.w3.org/2000/svg">
<path d="M8 1.5C11.5923 1.5 14.5 4.40716 14.5 8C14.5 11.5923 11.5928 14.5 8 14.5C4.40772 14.5 1.5 11.5928 1.5 8C1.5 4.40772 4.40716 1.5 8 1.5ZM8 0.25C3.71978 0.25 0.25 3.71978 0.25 8C0.25 12.2802 3.71978 15.75 8 15.75C12.2802 15.75 15.75 12.2802 15.75 8C15.75 3.71978 12.2802 0.25 8 0.25ZM8 2C4.68628 2 2 4.68628 2 8C2 11.3137 4.68628 14 8 14C11.3137 14 14 11.3137 14 8C14 4.68628 11.3137 2 8 2ZM8 3.375C8.62131 3.375 9.125 3.87869 9.125 4.5C9.125 5.12131 8.62131 5.625 8 5.625C7.37869 5.625 6.875 5.12131 6.875 4.5C6.875 3.87869 7.37869 3.375 8 3.375ZM11.6794 6.43822C10.7822 6.65006 9.94469 6.83659 9.11253 6.93219C9.13913 10.0892 9.49709 10.7776 9.89494 11.7953C10.008 12.0847 9.86503 12.4109 9.57566 12.5239C9.28625 12.637 8.96006 12.494 8.84703 12.2047C8.575 11.5075 8.31309 10.9348 8.15137 9.75H7.84869C7.68722 10.9328 7.42575 11.5065 7.153 12.2047C7.04003 12.4939 6.71394 12.637 6.42441 12.5239C6.13503 12.4109 5.99209 12.0847 6.10512 11.7953C6.50241 10.7784 6.86091 10.0909 6.88753 6.93219C6.05538 6.83663 5.21791 6.65009 4.32062 6.43822C4.05187 6.37475 3.88544 6.10547 3.94891 5.83669C4.01237 5.56791 4.28162 5.4015 4.55044 5.46497C7.57187 6.17837 8.43428 6.17694 11.4497 5.46497C11.7184 5.40153 11.9877 5.56791 12.0512 5.83669C12.1146 6.10547 11.9482 6.37478 11.6794 6.43822V6.43822Z" fill="#AAB0C0"/>
</svg>
