<svg width="18" height="16" viewBox="0 0 18 16" fill="none" xmlns="http://www.w3.org/2000/svg">
<g clip-path="url(#clip0)">
<path d="M8.76154 4.63315L2.99998 9.37846V14.5C2.99998 14.6326 3.05266 14.7598 3.14643 14.8536C3.24019 14.9473 3.36737 15 3.49998 15L7.00185 14.991C7.13403 14.9903 7.26056 14.9373 7.35379 14.8436C7.44702 14.7499 7.49936 14.6231 7.49935 14.491V11.5C7.49935 11.3674 7.55203 11.2402 7.6458 11.1465C7.73957 11.0527 7.86675 11 7.99935 11H9.99935C10.132 11 10.2591 11.0527 10.3529 11.1465C10.4467 11.2402 10.4994 11.3674 10.4994 11.5V14.4888C10.4991 14.5546 10.5119 14.6198 10.537 14.6806C10.562 14.7414 10.5988 14.7967 10.6452 14.8433C10.6917 14.8899 10.7469 14.9269 10.8077 14.9521C10.8684 14.9774 10.9336 14.9903 10.9994 14.9903L14.5 15C14.6326 15 14.7598 14.9473 14.8535 14.8536C14.9473 14.7598 15 14.6326 15 14.5V9.37502L9.23967 4.63315C9.17195 4.57856 9.08758 4.5488 9.0006 4.5488C8.91362 4.5488 8.82926 4.57856 8.76154 4.63315ZM17.8625 7.85846L15.25 5.70502V1.37659C15.25 1.27713 15.2105 1.18175 15.1401 1.11142C15.0698 1.0411 14.9744 1.00159 14.875 1.00159H13.125C13.0255 1.00159 12.9301 1.0411 12.8598 1.11142C12.7895 1.18175 12.75 1.27713 12.75 1.37659V3.64565L9.95217 1.34377C9.68367 1.12283 9.34676 1.00203 8.99904 1.00203C8.65133 1.00203 8.31441 1.12283 8.04592 1.34377L0.135605 7.85846C0.0976324 7.88985 0.0662161 7.92841 0.0431511 7.97194C0.0200861 8.01547 0.00582446 8.06312 0.00118114 8.11216C-0.00346217 8.16121 0.0016038 8.21069 0.0160896 8.25778C0.0305754 8.30486 0.0541971 8.34863 0.0856051 8.38659L0.88248 9.35534C0.913802 9.39342 0.952329 9.42496 0.995854 9.44814C1.03938 9.47131 1.08705 9.48568 1.13613 9.49041C1.18522 9.49514 1.23475 9.49015 1.2819 9.47571C1.32906 9.46127 1.3729 9.43768 1.41092 9.40627L8.76154 3.3519C8.82926 3.29731 8.91362 3.26755 9.0006 3.26755C9.08758 3.26755 9.17195 3.29731 9.23967 3.3519L16.5906 9.40627C16.6286 9.43768 16.6723 9.4613 16.7194 9.47579C16.7665 9.49028 16.816 9.49534 16.865 9.4907C16.9141 9.48606 16.9617 9.47179 17.0053 9.44873C17.0488 9.42566 17.0873 9.39425 17.1187 9.35627L17.9156 8.38752C17.947 8.34935 17.9705 8.30535 17.9848 8.25806C17.9991 8.21077 18.004 8.16111 17.999 8.11195C17.9941 8.06279 17.9795 8.01508 17.956 7.97158C17.9326 7.92808 17.9008 7.88963 17.8625 7.85846Z" fill="#AAB0C0"/>
</g>
<defs>
<clipPath id="clip0">
<rect width="18" height="16" fill="white"/>
</clipPath>
</defs>
</svg>
