<svg width="16" height="16" viewBox="0 0 16 16" fill="none" xmlns="http://www.w3.org/2000/svg">
<path d="M15.75 8C15.75 12.2812 12.2799 15.75 8 15.75C3.72009 15.75 0.25 12.2812 0.25 8C0.25 3.72134 3.72009 0.25 8 0.25C12.2799 0.25 15.75 3.72134 15.75 8ZM8 9.5625C7.20609 9.5625 6.5625 10.2061 6.5625 11C6.5625 11.7939 7.20609 12.4375 8 12.4375C8.79391 12.4375 9.4375 11.7939 9.4375 11C9.4375 10.2061 8.79391 9.5625 8 9.5625ZM6.63522 4.39544L6.86703 8.64544C6.87787 8.84431 7.04231 9 7.24147 9H8.75853C8.95769 9 9.12213 8.84431 9.13297 8.64544L9.36478 4.39544C9.3765 4.18063 9.20547 4 8.99034 4H7.00962C6.7945 4 6.6235 4.18063 6.63522 4.39544V4.39544Z" fill="#AAB0C0"/>
</svg>
