<svg width="14" height="16" viewBox="0 0 14 16" fill="none" xmlns="http://www.w3.org/2000/svg">
<g clip-path="url(#clip0)">
<path d="M1 2H2V7C2 9.75688 4.24312 12 7 12C9.75688 12 12 9.75688 12 7V2H13C13.1326 2 13.2598 1.94732 13.3536 1.85355C13.4473 1.75979 13.5 1.63261 13.5 1.5V0.5C13.5 0.367392 13.4473 0.240215 13.3536 0.146447C13.2598 0.0526784 13.1326 0 13 0L8.5 0C8.36739 0 8.24021 0.0526784 8.14645 0.146447C8.05268 0.240215 8 0.367392 8 0.5V1.5C8 1.63261 8.05268 1.75979 8.14645 1.85355C8.24021 1.94732 8.36739 2 8.5 2H9.5V7C9.5 7.66304 9.23661 8.29893 8.76777 8.76777C8.29893 9.23661 7.66304 9.5 7 9.5C6.33696 9.5 5.70107 9.23661 5.23223 8.76777C4.76339 8.29893 4.5 7.66304 4.5 7V2H5.5C5.63261 2 5.75979 1.94732 5.85355 1.85355C5.94732 1.75979 6 1.63261 6 1.5V0.5C6 0.367392 5.94732 0.240215 5.85355 0.146447C5.75979 0.0526784 5.63261 0 5.5 0L1 0C0.867392 0 0.740215 0.0526784 0.646447 0.146447C0.552678 0.240215 0.5 0.367392 0.5 0.5V1.5C0.5 1.63261 0.552678 1.75979 0.646447 1.85355C0.740215 1.94732 0.867392 2 1 2ZM13.5 14H0.5C0.367392 14 0.240215 14.0527 0.146447 14.1464C0.0526784 14.2402 0 14.3674 0 14.5L0 15.5C0 15.6326 0.0526784 15.7598 0.146447 15.8536C0.240215 15.9473 0.367392 16 0.5 16H13.5C13.6326 16 13.7598 15.9473 13.8536 15.8536C13.9473 15.7598 14 15.6326 14 15.5V14.5C14 14.3674 13.9473 14.2402 13.8536 14.1464C13.7598 14.0527 13.6326 14 13.5 14Z" fill="#AAB0C0"/>
</g>
<defs>
<clipPath id="clip0">
<rect width="14" height="16" fill="white"/>
</clipPath>
</defs>
</svg>
