<svg width="24" height="24" viewBox="0 0 24 24" fill="none" xmlns="http://www.w3.org/2000/svg">
<path d="M12 24C18.6274 24 24 18.6274 24 12C24 5.37258 18.6274 0 12 0C5.37258 0 0 5.37258 0 12C0 18.6274 5.37258 24 12 24Z" fill="#71A4BA"/>
<path d="M6.56745 11.7939L6.59828 11.6987C6.25081 11.5861 5.84966 11.5982 5.50323 11.7783C5.16407 11.9546 4.88912 12.239 4.76201 12.6123L4.76175 12.6131C4.64554 12.9638 4.65152 13.3677 4.82552 13.7149C4.99585 14.0547 5.27484 14.329 5.64485 14.4523L5.64566 14.4526C5.99312 14.5653 6.39428 14.5531 6.74068 14.3731C7.07988 14.1967 7.35482 13.9123 7.48195 13.539L7.48202 13.5391L7.48328 13.5347C7.51895 13.4123 7.55088 13.2689 7.56135 13.1335L10.1347 12.434C10.141 12.4481 10.1488 12.4641 10.1584 12.4794C10.3192 12.8082 10.5453 13.0837 10.8044 13.3047L9.58942 15.4091C8.86568 15.204 8.05828 15.5264 7.66462 16.2083C7.19048 17.0296 7.45668 18.0632 8.26815 18.5317C9.07955 19.0001 10.1078 18.7139 10.582 17.8927C10.9768 17.2087 10.8466 16.3865 10.3401 15.847L11.547 13.7553C11.8905 13.8827 12.2608 13.9312 12.6227 13.8925L13.3102 16.4504C13.0499 16.616 12.8372 16.8647 12.7293 17.1924C12.6131 17.5431 12.6191 17.9469 12.793 18.2941C12.9634 18.634 13.2424 18.9083 13.6124 19.0317L13.6132 19.0319C13.9607 19.1445 14.3618 19.1324 14.7082 18.9523C15.0474 18.776 15.3224 18.4916 15.4495 18.1183L15.4497 18.1175C15.566 17.7668 15.5599 17.3629 15.386 17.0158C15.2156 16.6759 14.9366 16.4017 14.5666 16.2783V16.2782L14.5622 16.2769C14.4416 16.2428 14.3002 16.2127 14.1664 16.2039L13.4767 13.6397C13.4914 13.6329 13.5084 13.6243 13.5244 13.6139C14.1251 13.2983 14.5856 12.7933 14.8096 12.1495H14.8097L14.8105 12.147C14.8364 12.0656 14.8583 11.9824 14.8784 11.9033C14.8818 11.8903 14.885 11.8773 14.8883 11.8646C14.8982 11.8255 14.9078 11.7877 14.9175 11.7513L17.2376 11.7331C17.3364 12.0403 17.5367 12.2907 17.7883 12.4763V12.4763L17.7916 12.4785C18.4523 12.9271 19.3493 12.7333 19.7918 12.0803L19.7932 12.0782C19.998 11.7585 20.0838 11.3844 19.999 11.0005C19.9294 10.6264 19.7045 10.2993 19.3997 10.0787L19.3955 10.0757L19.3911 10.0731L19.2993 10.0201C18.989 9.84094 18.6655 9.78867 18.3114 9.87207C17.9396 9.94747 17.613 10.1781 17.3906 10.4871C17.3128 10.5901 17.2437 10.7289 17.2106 10.8609L14.9103 10.879C14.8765 10.6529 14.7992 10.4222 14.6827 10.2036C14.5218 9.87274 14.3074 9.60267 14.0352 9.37394L14.6893 8.24094C15.0086 8.30461 15.3316 8.25867 15.6286 8.12487V8.12494L15.6319 8.12334C16.3347 7.77554 16.6485 6.89361 16.3123 6.18771L16.3124 6.18766L16.3103 6.18373C16.1768 5.93291 15.9808 5.70806 15.733 5.56494C15.3385 5.33721 14.8306 5.31068 14.385 5.51773L14.3849 5.51771L14.3827 5.5188C13.6803 5.86644 13.3665 6.74754 13.7018 7.45327C13.759 7.58127 13.8406 7.69054 13.9293 7.78481L13.2759 8.91647C13.2733 8.91574 13.271 8.91494 13.2685 8.91421C13.2672 8.91374 13.2662 8.91341 13.2654 8.91314L13.2617 8.91101L13.253 8.90794C12.6991 8.71167 12.1032 8.72507 11.5517 8.92261L10.411 6.91041C10.4995 6.80974 10.5808 6.69541 10.6442 6.58555L10.6444 6.58569L10.6477 6.57903C10.9819 5.88667 10.7312 5.07406 10.0904 4.70415L9.99875 4.65121L9.99888 4.65097L9.99228 4.64781C9.27395 4.29999 8.42042 4.60756 8.06688 5.33324V5.33325C7.71348 6.05875 8.00328 6.91614 8.72122 7.26441C9.01982 7.41554 9.33395 7.44227 9.64482 7.37207L10.784 9.38167C10.4345 9.67181 10.1607 10.0605 10.0138 10.5218C9.89102 10.8703 9.85382 11.2289 9.87428 11.5818L7.32748 12.2741C7.16648 12.0141 6.92235 11.8031 6.59809 11.6987L6.56745 11.7939ZM6.56745 11.7939C6.89288 11.8986 7.13142 12.1195 7.27968 12.3907L7.46488 13.0561C7.46302 13.1995 7.42855 13.3651 7.38728 13.5068C7.26968 13.8521 7.01455 14.118 6.69455 14.2843C6.37463 14.4507 6.00154 14.4629 5.67648 14.3575C5.33558 14.2438 5.07541 13.9903 4.91492 13.6701C4.75442 13.3498 4.74758 12.9738 4.85668 12.6445C4.97425 12.2993 5.2294 12.0333 5.54935 11.867C5.8693 11.7007 6.24239 11.6885 6.56745 11.7939ZM5.9266 13.6035L5.92489 13.603C5.79972 13.564 5.68522 13.4661 5.61196 13.3151L5.60939 13.3098L5.60622 13.3048C5.59524 13.2877 5.58645 13.2575 5.57169 13.2027C5.54086 13.0835 5.55772 12.9947 5.58852 12.8739C5.62973 12.7473 5.7283 12.6313 5.87716 12.5557C6.02275 12.4928 6.17088 12.4762 6.31192 12.5229C6.5972 12.6187 6.75908 12.935 6.65282 13.2427C6.58707 13.3864 6.48339 13.5035 6.36016 13.5714C6.21496 13.6338 6.06726 13.6501 5.9266 13.6035ZM14.5132 7.04974L14.5128 7.04887C14.381 6.78607 14.5081 6.45925 14.7889 6.31284C15.056 6.174 15.3827 6.28883 15.5206 6.5631C15.6539 6.82921 15.537 7.16154 15.2628 7.30641C15.1203 7.36781 14.9754 7.38487 14.837 7.34154C14.808 7.32614 14.7817 7.31774 14.7628 7.31194C14.7458 7.30674 14.7387 7.30447 14.735 7.30301C14.6323 7.22381 14.559 7.14354 14.5132 7.04974ZM13.149 12.7995L13.1468 12.8006C12.6368 13.0526 12.0565 13.0284 11.5822 12.7545C11.311 12.5979 11.0733 12.3441 10.9201 12.0409C10.7302 11.638 10.7008 11.1929 10.8481 10.7719C10.9967 10.3474 11.2972 9.99567 11.6863 9.81527L11.6863 9.81521C12.0793 9.63261 12.5382 9.60361 12.9646 9.73221C13.3816 9.87587 13.7248 10.1727 13.8977 10.5613V10.5613L13.8986 10.5633C14.089 10.9665 14.1187 11.4122 13.9712 11.8335L13.9711 11.8337C13.8225 12.2605 13.5362 12.6196 13.149 12.7995ZM14.2553 17.1311L14.2552 17.1314L14.2626 17.1337C14.387 17.1725 14.5009 17.2695 14.5742 17.4191C14.6344 17.5647 14.6491 17.7143 14.6003 17.8585L14.5997 17.8601C14.5589 17.9884 14.4591 18.1061 14.3078 18.1823L14.3026 18.1849L14.2978 18.1881C14.2803 18.1996 14.25 18.2089 14.1956 18.2245C14.0772 18.2572 13.9899 18.2415 13.8709 18.2123C13.7475 18.173 13.6347 18.0763 13.5619 17.9278C13.5018 17.7824 13.4871 17.6329 13.5356 17.4889C13.6466 17.1753 13.9675 17.0165 14.2553 17.1311Z" fill="white" stroke="white" stroke-width="0.3"/>
<path d="M6.00004 14.6666C6.92052 14.6666 7.66671 13.9205 7.66671 13C7.66671 12.0795 6.92052 11.3333 6.00004 11.3333C5.07957 11.3333 4.33337 12.0795 4.33337 13C4.33337 13.9205 5.07957 14.6666 6.00004 14.6666Z" fill="white"/>
<path fill-rule="evenodd" clip-rule="evenodd" d="M14.7429 6.22421C14.4226 6.39117 14.263 6.77355 14.4235 7.09382C14.4796 7.20848 14.568 7.30148 14.6816 7.38808C14.6952 7.39595 14.7106 7.40062 14.7277 7.40582C14.7486 7.41222 14.772 7.41928 14.7972 7.43388C14.9679 7.49042 15.1428 7.46795 15.3062 7.39682C15.6265 7.22988 15.7706 6.83855 15.6101 6.5183C15.449 6.19769 15.0628 6.05788 14.7429 6.22421ZM10.8303 12.0849C10.6292 11.6589 10.5973 11.1861 10.7538 10.739C10.9104 10.2918 11.228 9.91762 11.6444 9.72462C12.0611 9.53102 12.546 9.50108 12.9955 9.63715C13.4368 9.78862 13.8036 10.1037 13.9892 10.5208C14.1903 10.9468 14.2222 11.4196 14.0657 11.8667C13.9101 12.3136 13.6079 12.6967 13.1912 12.8904C12.6513 13.1572 12.0355 13.1318 11.5323 12.8412C11.2429 12.6742 10.9918 12.4049 10.8303 12.0849ZM14.6656 17.378C14.5818 17.2054 14.4472 17.0866 14.2924 17.0383C13.9452 16.9 13.5685 17.0957 13.4412 17.4564C13.3828 17.6293 13.4026 17.8054 13.4708 17.969C13.5546 18.1417 13.6892 18.2606 13.844 18.3088C13.9684 18.3394 14.0774 18.3612 14.2229 18.3209L14.2284 18.3194C14.275 18.306 14.3209 18.2928 14.353 18.2717C14.5254 18.1848 14.6452 18.0474 14.6952 17.8907C14.7537 17.7178 14.7338 17.5418 14.6656 17.378Z" fill="#71A4BA"/>
<path d="M5.75351 13.6667C5.92414 13.7232 6.09909 13.7008 6.26244 13.6296C6.4103 13.5496 6.53012 13.4122 6.6041 13.2482C6.73136 12.8876 6.54249 12.5106 6.20194 12.3962C6.03131 12.3397 5.85636 12.3622 5.69302 12.4333C5.52058 12.5202 5.40075 12.6576 5.35074 12.8144C5.31856 12.9402 5.29547 13.0504 5.33336 13.1966L5.33485 13.202C5.34746 13.2489 5.35986 13.295 5.38034 13.327C5.4641 13.4996 5.59872 13.6185 5.75351 13.6667Z" fill="#71A4BA"/>
</svg>
