<svg width="16" height="16" viewBox="0 0 16 16" fill="none" xmlns="http://www.w3.org/2000/svg">
<g clip-path="url(#clip0)">
<path d="M1.5 1.5C1.20333 1.5 0.913319 1.58797 0.666645 1.7528C0.419972 1.91762 0.227713 2.15189 0.114181 2.42597C0.000649929 2.70006 -0.0290551 3.00166 0.0288228 3.29264C0.0867006 3.58361 0.229562 3.85088 0.439341 4.06066C0.649119 4.27044 0.916394 4.4133 1.20737 4.47118C1.49834 4.52906 1.79994 4.49935 2.07403 4.38582C2.34812 4.27229 2.58238 4.08003 2.74721 3.83336C2.91203 3.58668 3 3.29667 3 3C3 2.60218 2.84197 2.22064 2.56066 1.93934C2.27936 1.65804 1.89783 1.5 1.5 1.5ZM1.5 6.5C1.20333 6.5 0.913319 6.58797 0.666645 6.7528C0.419972 6.91762 0.227713 7.15189 0.114181 7.42597C0.000649929 7.70006 -0.0290551 8.00166 0.0288228 8.29264C0.0867006 8.58361 0.229562 8.85088 0.439341 9.06066C0.649119 9.27044 0.916394 9.4133 1.20737 9.47118C1.49834 9.52906 1.79994 9.49935 2.07403 9.38582C2.34812 9.27229 2.58238 9.08003 2.74721 8.83335C2.91203 8.58668 3 8.29667 3 8C3 7.60218 2.84197 7.22064 2.56066 6.93934C2.27936 6.65804 1.89783 6.5 1.5 6.5ZM1.5 11.5C1.20333 11.5 0.913319 11.588 0.666645 11.7528C0.419972 11.9176 0.227713 12.1519 0.114181 12.426C0.000649929 12.7001 -0.0290551 13.0017 0.0288228 13.2926C0.0867006 13.5836 0.229562 13.8509 0.439341 14.0607C0.649119 14.2704 0.916394 14.4133 1.20737 14.4712C1.49834 14.5291 1.79994 14.4994 2.07403 14.3858C2.34812 14.2723 2.58238 14.08 2.74721 13.8334C2.91203 13.5867 3 13.2967 3 13C3 12.6022 2.84197 12.2206 2.56066 11.9393C2.27936 11.658 1.89783 11.5 1.5 11.5ZM15.5 12H5.5C5.36739 12 5.24022 12.0527 5.14645 12.1464C5.05268 12.2402 5 12.3674 5 12.5V13.5C5 13.6326 5.05268 13.7598 5.14645 13.8536C5.24022 13.9473 5.36739 14 5.5 14H15.5C15.6326 14 15.7598 13.9473 15.8536 13.8536C15.9473 13.7598 16 13.6326 16 13.5V12.5C16 12.3674 15.9473 12.2402 15.8536 12.1464C15.7598 12.0527 15.6326 12 15.5 12ZM15.5 2H5.5C5.36739 2 5.24022 2.05268 5.14645 2.14645C5.05268 2.24021 5 2.36739 5 2.5V3.5C5 3.63261 5.05268 3.75979 5.14645 3.85355C5.24022 3.94732 5.36739 4 5.5 4H15.5C15.6326 4 15.7598 3.94732 15.8536 3.85355C15.9473 3.75979 16 3.63261 16 3.5V2.5C16 2.36739 15.9473 2.24021 15.8536 2.14645C15.7598 2.05268 15.6326 2 15.5 2V2ZM15.5 7H5.5C5.36739 7 5.24022 7.05268 5.14645 7.14645C5.05268 7.24021 5 7.36739 5 7.5V8.5C5 8.63261 5.05268 8.75979 5.14645 8.85355C5.24022 8.94732 5.36739 9 5.5 9H15.5C15.6326 9 15.7598 8.94732 15.8536 8.85355C15.9473 8.75979 16 8.63261 16 8.5V7.5C16 7.36739 15.9473 7.24021 15.8536 7.14645C15.7598 7.05268 15.6326 7 15.5 7Z" fill="#AAB0C0"/>
</g>
<defs>
<clipPath id="clip0">
<rect width="16" height="16" fill="white"/>
</clipPath>
</defs>
</svg>
