<svg width="16" height="16" viewBox="0 0 16 16" fill="none" xmlns="http://www.w3.org/2000/svg">
<g clip-path="url(#clip0)">
<path d="M10.2062 5.793C12.0732 7.66203 12.0476 10.6586 10.2174 12.4989C10.214 12.5027 10.2099 12.5067 10.2062 12.5105L8.10615 14.6105C6.25396 16.4627 3.24056 16.4624 1.38865 14.6105C-0.463535 12.7586 -0.463535 9.74487 1.38865 7.893L2.54821 6.73343C2.85571 6.42593 3.38528 6.63031 3.40115 7.06487C3.4214 7.61868 3.52071 8.17509 3.70396 8.7124C3.76603 8.89434 3.72168 9.09559 3.58575 9.23153L3.17678 9.6405C2.30096 10.5163 2.2735 11.9424 3.14068 12.8267C4.01643 13.7198 5.45587 13.7252 6.33834 12.8427L8.43834 10.743C9.31931 9.86203 9.31562 8.43809 8.43834 7.56081C8.32268 7.44537 8.20618 7.35568 8.11518 7.29303C8.05081 7.24882 7.99765 7.19018 7.95996 7.12178C7.92227 7.05339 7.90108 6.97713 7.89809 6.89909C7.88571 6.56887 8.00271 6.22859 8.26365 5.96765L8.92159 5.30968C9.09412 5.13715 9.36478 5.11596 9.56484 5.25559C9.79395 5.41557 10.0086 5.5954 10.2062 5.793V5.793ZM14.6104 1.38856C12.7585 -0.463379 9.74506 -0.463629 7.89287 1.38856L5.79287 3.48856C5.78912 3.49231 5.78506 3.49637 5.78162 3.50012C3.95143 5.3405 3.92578 8.33703 5.79287 10.2061C5.99046 10.4036 6.20505 10.5835 6.43415 10.7434C6.63422 10.8831 6.9049 10.8618 7.0774 10.6893L7.73534 10.0314C7.99628 9.77043 8.11328 9.43015 8.1009 9.09993C8.09791 9.0219 8.07673 8.94564 8.03903 8.87724C8.00134 8.80884 7.94819 8.7502 7.88381 8.706C7.79281 8.64334 7.67631 8.55365 7.56065 8.43821C6.68337 7.56093 6.67968 6.137 7.56065 5.25603L9.66065 3.15634C10.5431 2.27387 11.9825 2.27918 12.8583 3.17228C13.7255 4.05665 13.6981 5.48272 12.8222 6.35853L12.4132 6.7675C12.2773 6.90343 12.233 7.10468 12.295 7.28662C12.4783 7.82393 12.5776 8.38034 12.5978 8.93415C12.6137 9.36871 13.1433 9.57309 13.4508 9.26559L14.6103 8.10603C16.4626 6.25418 16.4626 3.24043 14.6104 1.38856V1.38856Z" fill="#AAB0C0"/>
</g>
<defs>
<clipPath id="clip0">
<rect width="16" height="16" fill="white"/>
</clipPath>
</defs>
</svg>
