<svg width="16" height="16" viewBox="0 0 16 16" fill="none" xmlns="http://www.w3.org/2000/svg">
<g clip-path="url(#clip0)">
<path d="M15.5 14H15V9.5C15 9.36739 14.9473 9.24021 14.8536 9.14645C14.7598 9.05268 14.6326 9 14.5 9H13C12.9073 9.00008 12.8165 9.02592 12.7376 9.07465C12.6587 9.12338 12.595 9.19307 12.5534 9.27594L12.0534 10.2759C12.0152 10.3521 11.9972 10.4368 12.0009 10.522C12.0047 10.6071 12.0301 10.6899 12.0749 10.7625C12.1196 10.835 12.1821 10.8949 12.2566 10.9365C12.331 10.9781 12.4148 10.9999 12.5 11H13V14H12.5C12.3674 14 12.2402 14.0527 12.1464 14.1464C12.0527 14.2402 12 14.3674 12 14.5V15.5C12 15.6326 12.0527 15.7598 12.1464 15.8536C12.2402 15.9473 12.3674 16 12.5 16H15.5C15.6326 16 15.7598 15.9473 15.8536 15.8536C15.9473 15.7598 16 15.6326 16 15.5V14.5C16 14.3674 15.9473 14.2402 15.8536 14.1464C15.7598 14.0527 15.6326 14 15.5 14ZM10.5 2H8.40625C8.32556 2 8.24607 2.01952 8.17457 2.05691C8.10306 2.09429 8.04167 2.14843 7.99563 2.21469L5.49875 5.80844L3.00187 2.21469C2.95607 2.14877 2.89508 2.09485 2.82404 2.05748C2.753 2.02012 2.67401 2.0004 2.59375 2H0.5C0.367392 2 0.240215 2.05268 0.146447 2.14645C0.0526784 2.24021 0 2.36739 0 2.5L0 4C0 4.13261 0.0526784 4.25979 0.146447 4.35355C0.240215 4.44732 0.367392 4.5 0.5 4.5H1.54625L3.97781 8L1.54625 11.5H0.5C0.367392 11.5 0.240215 11.5527 0.146447 11.6464C0.0526784 11.7402 0 11.8674 0 12L0 13.5C0 13.6326 0.0526784 13.7598 0.146447 13.8536C0.240215 13.9473 0.367392 14 0.5 14H2.59375C2.67444 14 2.75393 13.9805 2.82543 13.9431C2.89694 13.9057 2.95833 13.8516 3.00437 13.7853L5.50125 10.1916L7.99813 13.7853C8.04393 13.8512 8.10492 13.9051 8.17596 13.9425C8.247 13.9799 8.32599 13.9996 8.40625 14H10.5C10.6326 14 10.7598 13.9473 10.8536 13.8536C10.9473 13.7598 11 13.6326 11 13.5V12C11 11.8674 10.9473 11.7402 10.8536 11.6464C10.7598 11.5527 10.6326 11.5 10.5 11.5H9.45375L7.02219 8L9.45375 4.5H10.5C10.6326 4.5 10.7598 4.44732 10.8536 4.35355C10.9473 4.25979 11 4.13261 11 4V2.5C11 2.36739 10.9473 2.24021 10.8536 2.14645C10.7598 2.05268 10.6326 2 10.5 2V2Z" fill="#AAB0C0"/>
</g>
<defs>
<clipPath id="clip0">
<rect width="16" height="16" fill="white"/>
</clipPath>
</defs>
</svg>
