<svg width="16" height="16" viewBox="0 0 16 16" fill="none" xmlns="http://www.w3.org/2000/svg">
<g clip-path="url(#clip0)">
<path d="M5.2192 9.66687C3.96545 9.7475 2.82764 10.225 2.18201 11.9263C2.10857 12.1203 1.93201 12.2381 1.72607 12.2381C1.37889 12.2381 0.305449 11.3734 -0.000488281 11.1647C-0.000175781 13.7381 1.18514 16 3.99982 16C6.37045 16 7.99982 14.6322 7.99982 12.2441C7.99982 12.1469 7.97951 12.0541 7.96951 11.9587L5.2192 9.66687V9.66687ZM14.3089 0C13.8351 0 13.3911 0.209688 13.0523 0.514063C6.66451 6.22031 5.99982 6.35437 5.99982 8.03406C5.99982 8.46219 6.10139 8.87031 6.27264 9.24344L8.26701 10.9053C8.49232 10.9616 8.72451 11 8.9667 11C10.9076 11 12.0326 9.57906 15.5654 2.98563C15.7961 2.53719 15.9998 2.05281 15.9998 1.54844C15.9998 0.645 15.1873 0 14.3089 0Z" fill="#AAB0C0"/>
</g>
<defs>
<clipPath id="clip0">
<rect width="16" height="16" fill="white"/>
</clipPath>
</defs>
</svg>
