<svg width="16" height="16" viewBox="0 0 16 16" fill="none" xmlns="http://www.w3.org/2000/svg">
<path d="M14.5 14H1.5C0.671562 14 0 13.3284 0 12.5V3.5C0 2.67156 0.671562 2 1.5 2H14.5C15.3284 2 16 2.67156 16 3.5V12.5C16 13.3284 15.3284 14 14.5 14ZM3.5 3.75C2.5335 3.75 1.75 4.5335 1.75 5.5C1.75 6.4665 2.5335 7.25 3.5 7.25C4.4665 7.25 5.25 6.4665 5.25 5.5C5.25 4.5335 4.4665 3.75 3.5 3.75ZM2 12H14V8.5L11.2652 5.76516C11.1187 5.61872 10.8813 5.61872 10.7348 5.76516L6.5 10L4.76516 8.26516C4.61872 8.11872 4.38128 8.11872 4.23481 8.26516L2 10.5V12Z" fill="#AAB0C0"/>
</svg>
