<svg width="16" height="16" viewBox="0 0 16 16" fill="none" xmlns="http://www.w3.org/2000/svg">
<path d="M15.5312 8.53126L10.2812 13.7813C9.8125 14.25 9 13.9219 9 13.25V10.25H4.75C4.33437 10.25 4 9.91563 4 9.50001V6.50001C4 6.08438 4.33437 5.75001 4.75 5.75001H9V2.75001C9 2.08126 9.80937 1.75001 10.2812 2.21876L15.5312 7.46876C15.8219 7.76251 15.8219 8.23751 15.5312 8.53126ZM6 13.625V12.375C6 12.1688 5.83125 12 5.625 12H3C2.44687 12 2 11.5531 2 11V5.00001C2 4.44688 2.44687 4.00001 3 4.00001H5.625C5.83125 4.00001 6 3.83126 6 3.62501V2.37501C6 2.16876 5.83125 2.00001 5.625 2.00001H3C1.34375 2.00001 0 3.34376 0 5.00001V11C0 12.6563 1.34375 14 3 14H5.625C5.83125 14 6 13.8313 6 13.625Z" fill="#AAB0C0"/>
</svg>
