<svg width="24" height="24" viewBox="0 0 24 24" fill="none" xmlns="http://www.w3.org/2000/svg">
<path d="M12 24C18.6274 24 24 18.6274 24 12C24 5.37258 18.6274 0 12 0C5.37258 0 0 5.37258 0 12C0 18.6274 5.37258 24 12 24Z" fill="#FF8686"/>
<path d="M18.9331 9.30953V9.30945L16.4843 5.2282V5.22819C16.3993 5.08666 16.2463 5 16.0813 5H7.91873C7.75368 5 7.60065 5.08666 7.5157 5.22819V5.2282L5.06693 9.30945L5.06689 9.30953C5.02493 9.37968 5 9.46949 5 9.5512V17.7138C5 17.9734 5.21036 18.1838 5.46995 18.1838H18.5301C18.7896 18.1838 19 17.9734 19 17.7138V9.5512C19 9.46949 18.975 9.37968 18.9331 9.30953ZM12.4699 5.93989H15.8151L17.6999 9.08126H12.4699V5.93989ZM6.30005 9.08126L8.18485 5.93989H11.5301V9.08126H6.30005ZM5.93988 10.0212H18.0601V17.2439H5.93988V10.0212Z" fill="white" stroke="white" stroke-width="0.16038"/>
</svg>
