<svg width="24" height="24" viewBox="0 0 24 24" fill="none" xmlns="http://www.w3.org/2000/svg">
<path d="M12 24C18.6274 24 24 18.6274 24 12C24 5.37258 18.6274 0 12 0C5.37258 0 0 5.37258 0 12C0 18.6274 5.37258 24 12 24Z" fill="#9D74F5"/>
<path d="M6 7.05635V16.6409C6 16.9941 6.20197 17.2984 6.53649 17.5533C6.87086 17.8081 7.34424 18.0192 7.90561 18.1879C9.02903 18.5254 10.5203 18.6973 12 18.6973C13.4797 18.6973 14.971 18.5254 16.0944 18.1879C16.6558 18.0192 17.1291 17.8081 17.4635 17.5533C17.798 17.2984 18 16.9941 18 16.6409V7.05635C18 6.70312 17.798 6.39889 17.4635 6.14397C17.1291 5.8892 16.6558 5.67801 16.0944 5.50934C14.971 5.17181 13.4797 5 12 5C10.5203 5 9.02903 5.17181 7.90561 5.50934C7.34424 5.67801 6.87086 5.8892 6.53649 6.14397C6.20197 6.39889 6 6.70312 6 7.05635ZM17.0323 13.4461C17.0323 13.4763 17.0143 13.5205 16.9596 13.5776C16.9059 13.6337 16.8233 13.6953 16.7108 13.7599C16.4859 13.8887 16.1507 14.0236 15.7143 14.1462C14.8422 14.3913 13.5747 14.5846 12 14.5846C10.4253 14.5846 9.15779 14.3913 8.28573 14.1462C7.84933 14.0236 7.51406 13.8887 7.28922 13.7599C7.17665 13.6953 7.09407 13.6337 7.04039 13.5776C6.98574 13.5205 6.96769 13.4763 6.96769 13.4461V11.4302C7.51733 11.7137 8.26486 11.9287 9.10885 12.0749C9.99977 12.2292 11.0021 12.3076 12 12.3076C12.9979 12.3076 14.0002 12.2293 14.8911 12.075C15.7351 11.9288 16.4827 11.7138 17.0323 11.4302V13.4461ZM17.0323 10.2512C17.0323 10.2815 17.0143 10.3257 16.9596 10.3828C16.9059 10.4388 16.8233 10.5005 16.7108 10.565C16.4859 10.6938 16.1507 10.8288 15.7143 10.9514C14.8422 11.1963 13.5747 11.3898 12 11.3898C10.4253 11.3898 9.15779 11.1963 8.28573 10.9514C7.84933 10.8288 7.51406 10.6938 7.28922 10.565C7.17665 10.5005 7.09407 10.4388 7.04039 10.3828C6.98574 10.3257 6.96769 10.2815 6.96769 10.2512V8.23531C7.51733 8.51889 8.26486 8.73386 9.10885 8.88007C9.99977 9.03438 11.0021 9.11264 12 9.11264C12.9979 9.11264 14.0002 9.03445 14.8911 8.88015C15.7351 8.73394 16.4827 8.51897 17.0323 8.23531V10.2512ZM12 17.7795C10.4253 17.7795 9.15779 17.5861 8.28573 17.3411C7.84933 17.2185 7.51406 17.0835 7.28922 16.9547C7.17665 16.8902 7.09407 16.8285 7.04039 16.7726C6.98574 16.7154 6.96769 16.6713 6.96769 16.6409V14.625C7.51733 14.9086 8.26486 15.1236 9.10885 15.2698C9.99977 15.4241 11.0021 15.5024 12 15.5024C12.9979 15.5024 14.0002 15.4242 14.8911 15.2698C15.7351 15.1236 16.4827 14.9087 17.0323 14.625V16.6409C17.0323 16.6713 17.0143 16.7154 16.9596 16.7726C16.9059 16.8285 16.8233 16.8902 16.7108 16.9547C16.4859 17.0835 16.1507 17.2185 15.7143 17.3411C14.8422 17.5861 13.5747 17.7795 12 17.7795ZM12 5.91779C13.5747 5.91779 14.8422 6.11115 15.7143 6.3562C16.1507 6.47879 16.4859 6.61372 16.7108 6.74255C16.8233 6.80708 16.9059 6.86871 16.9596 6.9247C17.0143 6.98188 17.0323 7.02606 17.0323 7.05635C17.0323 7.08665 17.0143 7.13083 16.9596 7.18794C16.9059 7.24392 16.8233 7.30563 16.7108 7.37008C16.4859 7.49892 16.1507 7.63391 15.7143 7.75651C14.8422 8.00148 13.5747 8.19484 12 8.19484C10.4253 8.19484 9.15779 8.00148 8.28573 7.75651C7.84933 7.63391 7.51406 7.49892 7.28922 7.37008C7.17665 7.30563 7.09407 7.24392 7.04039 7.18794C6.98574 7.13083 6.96769 7.08665 6.96769 7.05635C6.96769 7.02606 6.98574 6.98188 7.04039 6.9247C7.09407 6.86871 7.17665 6.80708 7.28922 6.74255C7.51406 6.61372 7.84933 6.47879 8.28573 6.3562C9.15779 6.11115 10.4253 5.91779 12 5.91779Z" fill="white" stroke="white" stroke-width="0.16038"/>
</svg>
