<svg width="20" height="16" viewBox="0 0 20 16" fill="none" xmlns="http://www.w3.org/2000/svg">
<g clip-path="url(#clip0)">
<path d="M19.4481 4.7875L10.7312 2.10938C10.2562 1.96344 9.74372 1.96344 9.26903 2.10938L0.551841 4.7875C-0.183784 5.01344 -0.183784 5.98625 0.551841 6.21219L2.07153 6.67906C1.73809 7.09125 1.53309 7.59406 1.51278 8.14469C1.21184 8.31719 0.999966 8.62844 0.999966 9C0.999966 9.33688 1.17747 9.62031 1.43309 9.80156L0.635278 13.3916C0.565903 13.7038 0.803403 14 1.12309 14H2.87653C3.19653 14 3.43403 13.7038 3.36465 13.3916L2.56684 9.80156C2.82247 9.62031 2.99997 9.33688 2.99997 9C2.99997 8.63844 2.79778 8.33594 2.51059 8.16031C2.53434 7.69094 2.77434 7.27594 3.15715 7.01281L9.26872 8.89063C9.55184 8.9775 10.095 9.08594 10.7309 8.89063L19.4481 6.2125C20.184 5.98625 20.184 5.01375 19.4481 4.7875ZM11.0247 9.84656C10.1331 10.1203 9.3734 9.96906 8.97497 9.84656L4.44309 8.45438L3.99997 12C3.99997 13.1047 6.68622 14 9.99997 14C13.3137 14 16 13.1047 16 12L15.5568 8.45406L11.0247 9.84656Z" fill="#AAB0C0"/>
</g>
<defs>
<clipPath id="clip0">
<rect width="20" height="16" fill="white"/>
</clipPath>
</defs>
</svg>
