<svg width="11" height="16" viewBox="0 0 11 16" fill="none" xmlns="http://www.w3.org/2000/svg">
<path d="M5.5 11C7.15688 11 8.5 9.65688 8.5 8V3C8.5 1.34312 7.15688 0 5.5 0C3.84312 0 2.5 1.34312 2.5 3V8C2.5 9.65688 3.84312 11 5.5 11ZM10.5 6H10C9.72375 6 9.5 6.22375 9.5 6.5V8C9.5 10.3375 7.48469 12.2131 5.10031 11.9806C3.02219 11.7778 1.5 9.90969 1.5 7.82188V6.5C1.5 6.22375 1.27625 6 1 6H0.5C0.22375 6 0 6.22375 0 6.5V7.755C0 10.5563 1.99906 13.0534 4.75 13.4328V14.5H3C2.72375 14.5 2.5 14.7237 2.5 15V15.5C2.5 15.7763 2.72375 16 3 16H8C8.27625 16 8.5 15.7763 8.5 15.5V15C8.5 14.7237 8.27625 14.5 8 14.5H6.25V13.4447C8.92844 13.0772 11 10.7781 11 8V6.5C11 6.22375 10.7763 6 10.5 6Z" fill="#AAB0C0"/>
</svg>
