<svg width="16" height="16" viewBox="0 0 16 16" fill="none" xmlns="http://www.w3.org/2000/svg">
<path d="M1.93031 12.5312L2.47719 11.9016C2.58603 11.7802 2.64291 11.621 2.63562 11.4581V11.3547C2.63562 11.125 2.51562 11 2.28125 11H0.5C0.433696 11 0.370107 11.0263 0.323223 11.0732C0.276339 11.1201 0.25 11.1837 0.25 11.25V11.75C0.25 11.8163 0.276339 11.8799 0.323223 11.9268C0.370107 11.9737 0.433696 12 0.5 12H1.21344C1.0922 12.1221 0.977463 12.2505 0.869687 12.3847L0.694375 12.6034C0.569375 12.7619 0.530313 12.92 0.606875 13.0684L0.639687 13.1287C0.733437 13.3087 0.83625 13.375 1.0225 13.375H1.17031C1.49313 13.375 1.66844 13.4512 1.66844 13.6591C1.66844 13.8066 1.53719 13.9159 1.21969 13.9159C1.05379 13.9146 0.889685 13.8815 0.73625 13.8184C0.533437 13.6972 0.369375 13.7091 0.24875 13.9159L0.0740625 14.2069C-0.0421875 14.3984 -0.025625 14.5731 0.15625 14.705C0.397188 14.8516 0.793125 15 1.3125 15C2.38 15 2.82812 14.2891 2.82812 13.6213C2.82719 13.1719 2.54313 12.6912 1.93031 12.5312V12.5312ZM15.5 7H5.5C5.36739 7 5.24021 7.05268 5.14645 7.14645C5.05268 7.24021 5 7.36739 5 7.5V8.5C5 8.63261 5.05268 8.75979 5.14645 8.85355C5.24021 8.94732 5.36739 9 5.5 9H15.5C15.6326 9 15.7598 8.94732 15.8536 8.85355C15.9473 8.75979 16 8.63261 16 8.5V7.5C16 7.36739 15.9473 7.24021 15.8536 7.14645C15.7598 7.05268 15.6326 7 15.5 7ZM15.5 2H5.5C5.36739 2 5.24021 2.05268 5.14645 2.14645C5.05268 2.24021 5 2.36739 5 2.5V3.5C5 3.63261 5.05268 3.75979 5.14645 3.85355C5.24021 3.94732 5.36739 4 5.5 4H15.5C15.6326 4 15.7598 3.94732 15.8536 3.85355C15.9473 3.75979 16 3.63261 16 3.5V2.5C16 2.36739 15.9473 2.24021 15.8536 2.14645C15.7598 2.05268 15.6326 2 15.5 2V2ZM15.5 12H5.5C5.36739 12 5.24021 12.0527 5.14645 12.1464C5.05268 12.2402 5 12.3674 5 12.5V13.5C5 13.6326 5.05268 13.7598 5.14645 13.8536C5.24021 13.9473 5.36739 14 5.5 14H15.5C15.6326 14 15.7598 13.9473 15.8536 13.8536C15.9473 13.7598 16 13.6326 16 13.5V12.5C16 12.3674 15.9473 12.2402 15.8536 12.1464C15.7598 12.0527 15.6326 12 15.5 12ZM0.5 5H2.5C2.5663 5 2.62989 4.97366 2.67678 4.92678C2.72366 4.87989 2.75 4.8163 2.75 4.75V4.25C2.75 4.1837 2.72366 4.12011 2.67678 4.07322C2.62989 4.02634 2.5663 4 2.5 4H2V1.25C2 1.1837 1.97366 1.12011 1.92678 1.07322C1.87989 1.02634 1.8163 1 1.75 1H1C0.953661 1.00008 0.908258 1.01304 0.868858 1.03743C0.829457 1.06182 0.797611 1.09668 0.776875 1.13812L0.526875 1.63812C0.507819 1.67621 0.498806 1.71852 0.500691 1.76107C0.502576 1.80361 0.515296 1.84496 0.537645 1.88121C0.559994 1.91746 0.591232 1.94739 0.628395 1.96818C0.665559 1.98897 0.707417 1.99992 0.75 2H1V4H0.5C0.433696 4 0.370107 4.02634 0.323223 4.07322C0.276339 4.12011 0.25 4.1837 0.25 4.25V4.75C0.25 4.8163 0.276339 4.87989 0.323223 4.92678C0.370107 4.97366 0.433696 5 0.5 5ZM0.377813 10H2.5C2.5663 10 2.62989 9.97366 2.67678 9.92678C2.72366 9.87989 2.75 9.8163 2.75 9.75V9.25C2.75 9.1837 2.72366 9.12011 2.67678 9.07322C2.62989 9.02634 2.5663 9 2.5 9H1.29125C1.39406 8.67844 2.80188 8.41625 2.80188 7.23625C2.80188 6.32812 2.02062 6 1.41219 6C0.744687 6 0.355937 6.3125 0.147813 6.58594C0.01125 6.76063 0.0540625 6.92469 0.235313 7.06625L0.503438 7.28125C0.67875 7.42375 0.847187 7.35844 1.00719 7.205C1.08611 7.12767 1.19232 7.08456 1.30281 7.085C1.40687 7.085 1.59281 7.13375 1.59281 7.35844C1.59375 7.75594 0 8.04094 0 9.51844V9.64344C0 9.875 0.15875 10 0.377813 10Z" fill="#AAB0C0"/>
</svg>
