<svg width="12" height="16" viewBox="0 0 12 16" fill="none" xmlns="http://www.w3.org/2000/svg">
<g clip-path="url(#clip0)">
<path d="M10.4216 7.4375C10.8974 6.8562 11.191 6.14725 11.2653 5.39969C11.4959 3.01531 9.625 1 7.29437 1H1.0625C0.929892 1 0.802715 1.05268 0.708947 1.14645C0.615178 1.24021 0.5625 1.36739 0.5625 1.5V3C0.5625 3.13261 0.615178 3.25979 0.708947 3.35355C0.802715 3.44732 0.929892 3.5 1.0625 3.5H2.05844V12.5H1.0625C0.929892 12.5 0.802715 12.5527 0.708947 12.6464C0.615178 12.7402 0.5625 12.8674 0.5625 13V14.5C0.5625 14.6326 0.615178 14.7598 0.708947 14.8536C0.802715 14.9473 0.929892 15 1.0625 15H7.60375C9.81625 15 11.7956 13.3828 12.01 11.175C12.1581 9.66094 11.4978 8.29813 10.4216 7.4375V7.4375ZM4.55188 3.5H7.29437C7.6922 3.5 8.07373 3.65804 8.35503 3.93934C8.63634 4.22064 8.79438 4.60218 8.79438 5C8.79438 5.39782 8.63634 5.77936 8.35503 6.06066C8.07373 6.34196 7.6922 6.5 7.29437 6.5H4.55188V3.5ZM7.29437 12.5H4.55188V9H7.29437C7.7585 9 8.20362 9.18437 8.53181 9.51256C8.86 9.84075 9.04438 10.2859 9.04438 10.75C9.04438 11.2141 8.86 11.6592 8.53181 11.9874C8.20362 12.3156 7.7585 12.5 7.29437 12.5V12.5Z" fill="#AAB0C0"/>
</g>
<defs>
<clipPath id="clip0">
<rect width="12" height="16" fill="white"/>
</clipPath>
</defs>
</svg>
