<svg width="18" height="16" viewBox="0 0 18 16" fill="none" xmlns="http://www.w3.org/2000/svg">
<path d="M12.5813 2.59999L15.4 5.41874C15.5187 5.53749 15.5187 5.73124 15.4 5.84999L8.575 12.675L5.675 12.9969C5.2875 13.0406 4.95938 12.7125 5.00313 12.325L5.325 9.42499L12.15 2.59999C12.2687 2.48124 12.4625 2.48124 12.5813 2.59999ZM17.6437 1.88436L16.1187 0.359363C15.6437 -0.115637 14.8719 -0.115637 14.3938 0.359363L13.2875 1.46561C13.1688 1.58436 13.1688 1.77811 13.2875 1.89686L16.1063 4.71561C16.225 4.83436 16.4188 4.83436 16.5375 4.71561L17.6437 3.60936C18.1187 3.13124 18.1187 2.35936 17.6437 1.88436V1.88436ZM12 10.8187V14H2V3.99999H9.18125C9.28125 3.99999 9.375 3.95936 9.44687 3.89061L10.6969 2.64061C10.9344 2.40311 10.7656 1.99999 10.4312 1.99999H1.5C0.671875 1.99999 0 2.67186 0 3.49999V14.5C0 15.3281 0.671875 16 1.5 16H12.5C13.3281 16 14 15.3281 14 14.5V9.56874C14 9.23436 13.5969 9.06874 13.3594 9.30311L12.1094 10.5531C12.0406 10.625 12 10.7187 12 10.8187Z" fill="#AAB0C0"/>
</svg>
