<svg width="24" height="24" viewBox="0 0 24 24" fill="none" xmlns="http://www.w3.org/2000/svg">
<path d="M12 24C18.6274 24 24 18.6274 24 12C24 5.37258 18.6274 0 12 0C5.37258 0 0 5.37258 0 12C0 18.6274 5.37258 24 12 24Z" fill="#1BA8D5"/>
<path d="M10.1362 11.0047H14.3616" stroke="white" stroke-linecap="round"/>
<path d="M10.1362 12.6949H14.3616" stroke="white" stroke-linecap="round"/>
<path d="M10.1362 14.385H14.3616" stroke="white" stroke-linecap="round"/>
<path fill-rule="evenodd" clip-rule="evenodd" d="M6.33337 5.34237C6.33337 4.96919 6.63591 4.66666 7.00909 4.66666H15.0761C15.2554 4.66666 15.4273 4.73781 15.554 4.86457L18.1355 7.44601C18.2622 7.57277 18.3334 7.74466 18.3334 7.9239V17.6043C18.3334 17.9775 18.0308 18.2801 17.6577 18.2801H7.00909C6.63591 18.2801 6.33337 17.9775 6.33337 17.6043V5.34237ZM7.6849 6.01818V16.9285H16.9819V9.24499H14.4308C14.0576 9.24499 13.755 8.94246 13.755 8.56919V6.01818H7.6849ZM16.9304 8.00071L14.9993 6.06964V8.00071H16.9304Z" fill="white"/>
</svg>
