<svg width="24" height="24" viewBox="0 0 24 24" fill="none" xmlns="http://www.w3.org/2000/svg">
<circle cx="12" cy="12" r="12" fill="#0BC5F8"/>
<path fill-rule="evenodd" clip-rule="evenodd" d="M19.6002 5.9878C19.6002 5.80756 19.5063 5.64011 19.3522 5.54527C19.1978 5.45058 19.0054 5.44234 18.8433 5.52255L17.856 6.01377V5.1202C17.856 4.93996 17.7619 4.77246 17.6078 4.67761C17.4532 4.58272 17.2609 4.57473 17.099 4.65494L12.1002 7.14145L7.10112 4.65489C6.9392 4.57468 6.74673 4.58275 6.59231 4.67769C6.43844 4.77254 6.34449 4.93998 6.34449 5.1202V6.01377L5.35684 5.52249C5.19491 5.44225 5.00224 5.45057 4.84801 5.54529C4.69413 5.64014 4.60022 5.80758 4.60022 5.9878V16.399C4.60022 16.596 4.7121 16.7762 4.88931 16.8643L11.8664 20.3347C11.94 20.3712 12.0201 20.3895 12.1002 20.3895C12.1804 20.3895 12.2604 20.3712 12.3341 20.3347L19.3112 16.8642C19.4883 16.776 19.6002 16.596 19.6002 16.399V5.9878ZM11.9654 18.4184C11.9697 18.4199 11.9775 18.4225 11.9868 18.4244C12.0223 18.4323 12.0601 18.4375 12.1002 18.4375C12.1403 18.4375 12.1786 18.4322 12.2141 18.4244C12.2228 18.4224 12.2303 18.4199 12.2346 18.4184L12.2431 18.4157C12.2667 18.409 12.2921 18.4007 12.3176 18.3891L12.3216 18.3878C12.3247 18.3867 12.3291 18.385 12.3341 18.3825L17.5669 15.7797C17.744 15.6915 17.856 15.5115 17.856 15.3145V7.1769L18.5544 6.82945V16.0775L12.1002 19.2878L5.64601 16.0775V6.82945L6.34449 7.1769V15.3145C6.34449 15.5115 6.45644 15.6917 6.63359 15.7798L11.8664 18.3825C11.8716 18.3851 11.8762 18.3869 11.8793 18.388L11.8827 18.389C11.9082 18.4007 11.9336 18.409 11.9573 18.4158L11.9585 18.4161L11.9599 18.4165L11.9654 18.4184ZM12.6231 17.0756V8.04445L16.8101 5.96182V14.993L12.6231 17.0756ZM7.39031 14.993V5.96182L11.5774 8.04445V17.0756L7.39031 14.993Z" fill="white"/>
</svg>
