<svg width="16" height="16" viewBox="0 0 16 16" fill="none" xmlns="http://www.w3.org/2000/svg">
<g clip-path="url(#clip0)">
<path d="M10 0V2H6V0H10ZM11 2H12C12.388 1.99115 12.7702 2.09539 13.1 2.3C13.4361 2.02171 13.8641 1.87905 14.3 1.9C14.8275 1.90751 15.3307 2.12317 15.7 2.5L16 2.8V2C16 1.46957 15.7893 0.960859 15.4142 0.585786C15.0391 0.210714 14.5304 0 14 0L11 0V2ZM14 10H16V6.4L14 8.4V10ZM14 11V12C14 12.5304 13.7893 13.0391 13.4142 13.4142C13.0391 13.7893 12.5304 14 12 14H11V16H14C14.5304 16 15.0391 15.7893 15.4142 15.4142C15.7893 15.0391 16 14.5304 16 14V11H14ZM10 16V14H6V16H10ZM5 14H4C3.46957 14 2.96086 13.7893 2.58579 13.4142C2.21071 13.0391 2 12.5304 2 12V11H0V14C0 14.5304 0.210714 15.0391 0.585786 15.4142C0.960859 15.7893 1.46957 16 2 16H5V14ZM0 10H2V6H0V10ZM2 5V4C2 3.46957 2.21071 2.96086 2.58579 2.58579C2.96086 2.21071 3.46957 2 4 2H5V0H2C1.46957 0 0.960859 0.210714 0.585786 0.585786C0.210714 0.960859 0 1.46957 0 2L0 5H2Z" fill="#FF2727"/>
<path d="M15.7 3.89998L15 3.19998C14.8131 3.01675 14.5618 2.91412 14.3 2.91412C14.0383 2.91412 13.7869 3.01675 13.6 3.19998L7.60002 9.19998L5.40002 6.99998C5.19601 6.85347 4.95118 6.77466 4.70002 6.77466C4.44885 6.77466 4.20402 6.85347 4.00002 6.99998L3.30002 7.69998C3.11679 7.88691 3.01416 8.13823 3.01416 8.39998C3.01416 8.66173 3.11679 8.91305 3.30002 9.09998L6.90002 12.7C7.08695 12.8832 7.33826 12.9858 7.60002 12.9858C7.86177 12.9858 8.11309 12.8832 8.30002 12.7L15.7 5.29998C15.8832 5.11305 15.9859 4.86173 15.9859 4.59998C15.9859 4.33823 15.8832 4.08691 15.7 3.89998Z" fill="#6393EE"/>
</g>
<defs>
<clipPath id="clip0">
<rect width="16" height="16" fill="white"/>
</clipPath>
</defs>
</svg>
