<svg width="14" height="16" viewBox="0 0 14 16" fill="none" xmlns="http://www.w3.org/2000/svg">
<g clip-path="url(#clip0)">
<path d="M0.400938 11H8.59906C8.65173 11 8.70388 10.9897 8.75254 10.9696C8.80121 10.9494 8.84542 10.9199 8.88266 10.8827C8.9199 10.8454 8.94943 10.8012 8.96956 10.7525C8.9897 10.7039 9.00004 10.6517 9 10.5991V9.40094C9.00004 9.34827 8.9897 9.29612 8.96956 9.24746C8.94943 9.19879 8.9199 9.15458 8.88266 9.11734C8.84542 9.0801 8.80121 9.05057 8.75254 9.03044C8.70388 9.0103 8.65173 8.99996 8.59906 9H0.400938C0.348274 8.99996 0.296119 9.0103 0.247457 9.03044C0.198794 9.05057 0.154579 9.0801 0.11734 9.11734C0.0801017 9.15458 0.0505704 9.19879 0.030436 9.24746C0.0103015 9.29612 -4.09732e-05 9.34827 1.21986e-07 9.40094V10.5991C-4.09732e-05 10.6517 0.0103015 10.7039 0.030436 10.7525C0.0505704 10.8012 0.0801017 10.8454 0.11734 10.8827C0.154579 10.9199 0.198794 10.9494 0.247457 10.9696C0.296119 10.9897 0.348274 11 0.400938 11V11ZM0.400938 3H8.59906C8.65173 3.00004 8.70388 2.9897 8.75254 2.96956C8.80121 2.94943 8.84542 2.9199 8.88266 2.88266C8.9199 2.84542 8.94943 2.80121 8.96956 2.75254C8.9897 2.70388 9.00004 2.65173 9 2.59906V1.40094C9.00004 1.34827 8.9897 1.29612 8.96956 1.24746C8.94943 1.19879 8.9199 1.15458 8.88266 1.11734C8.84542 1.0801 8.80121 1.05057 8.75254 1.03044C8.70388 1.0103 8.65173 0.999959 8.59906 1H0.400938C0.348274 0.999959 0.296119 1.0103 0.247457 1.03044C0.198794 1.05057 0.154579 1.0801 0.11734 1.11734C0.0801017 1.15458 0.0505704 1.19879 0.030436 1.24746C0.0103015 1.29612 -4.09732e-05 1.34827 1.21986e-07 1.40094V2.59906C-4.09732e-05 2.65173 0.0103015 2.70388 0.030436 2.75254C0.0505704 2.80121 0.0801017 2.84542 0.11734 2.88266C0.154579 2.9199 0.198794 2.94943 0.247457 2.96956C0.296119 2.9897 0.348274 3.00004 0.400938 3V3ZM13.5 5H0.5C0.367392 5 0.240215 5.05268 0.146447 5.14645C0.0526785 5.24021 1.21986e-07 5.36739 1.21986e-07 5.5V6.5C1.21986e-07 6.63261 0.0526785 6.75979 0.146447 6.85355C0.240215 6.94732 0.367392 7 0.5 7H13.5C13.6326 7 13.7598 6.94732 13.8536 6.85355C13.9473 6.75979 14 6.63261 14 6.5V5.5C14 5.36739 13.9473 5.24021 13.8536 5.14645C13.7598 5.05268 13.6326 5 13.5 5ZM13.5 13H0.5C0.367392 13 0.240215 13.0527 0.146447 13.1464C0.0526785 13.2402 1.21986e-07 13.3674 1.21986e-07 13.5V14.5C1.21986e-07 14.6326 0.0526785 14.7598 0.146447 14.8536C0.240215 14.9473 0.367392 15 0.5 15H13.5C13.6326 15 13.7598 14.9473 13.8536 14.8536C13.9473 14.7598 14 14.6326 14 14.5V13.5C14 13.3674 13.9473 13.2402 13.8536 13.1464C13.7598 13.0527 13.6326 13 13.5 13Z" fill="#AAB0C0"/>
</g>
<defs>
<clipPath id="clip0">
<rect width="14" height="16" fill="white"/>
</clipPath>
</defs>
</svg>
