<svg width="14" height="16" viewBox="0 0 14 16" fill="none" xmlns="http://www.w3.org/2000/svg">
<g clip-path="url(#clip0)">
<path d="M13.5 5H0.5C0.367392 5 0.240215 5.05268 0.146447 5.14645C0.0526784 5.24021 0 5.36739 0 5.5L0 6.5C0 6.63261 0.0526784 6.75979 0.146447 6.85355C0.240215 6.94732 0.367392 7 0.5 7H13.5C13.6326 7 13.7598 6.94732 13.8536 6.85355C13.9473 6.75979 14 6.63261 14 6.5V5.5C14 5.36739 13.9473 5.24021 13.8536 5.14645C13.7598 5.05268 13.6326 5 13.5 5ZM13.5 13H0.5C0.367392 13 0.240215 13.0527 0.146447 13.1464C0.0526784 13.2402 0 13.3674 0 13.5L0 14.5C0 14.6326 0.0526784 14.7598 0.146447 14.8536C0.240215 14.9473 0.367392 15 0.5 15H13.5C13.6326 15 13.7598 14.9473 13.8536 14.8536C13.9473 14.7598 14 14.6326 14 14.5V13.5C14 13.3674 13.9473 13.2402 13.8536 13.1464C13.7598 13.0527 13.6326 13 13.5 13ZM3.37812 3H10.6222C10.6718 3 10.721 2.99022 10.7668 2.97121C10.8127 2.9522 10.8544 2.92435 10.8895 2.88923C10.9245 2.85411 10.9524 2.81243 10.9713 2.76655C10.9903 2.72068 11 2.67152 11 2.62188V1.37781C11 1.3282 10.9902 1.27907 10.9712 1.23323C10.9523 1.18739 10.9244 1.14574 10.8893 1.11066C10.8543 1.07558 10.8126 1.04775 10.7668 1.02876C10.7209 1.00977 10.6718 1 10.6222 1H3.37812C3.32848 0.999959 3.27932 1.0097 3.23345 1.02867C3.18757 1.04764 3.14589 1.07546 3.11077 1.11055C3.07565 1.14564 3.0478 1.1873 3.02879 1.23316C3.00978 1.27902 3 1.32817 3 1.37781V2.62188C3 2.72216 3.03984 2.81834 3.11075 2.88925C3.18166 2.96016 3.27784 3 3.37812 3ZM10.6222 11C10.6718 11 10.721 10.9902 10.7668 10.9712C10.8127 10.9522 10.8544 10.9243 10.8895 10.8892C10.9245 10.8541 10.9524 10.8124 10.9713 10.7666C10.9903 10.7207 11 10.6715 11 10.6219V9.37781C11 9.27761 10.9602 9.18151 10.8893 9.11066C10.8185 9.03981 10.7224 9 10.6222 9H3.37812C3.32848 8.99996 3.27932 9.0097 3.23345 9.02867C3.18757 9.04764 3.14589 9.07546 3.11077 9.11055C3.07565 9.14564 3.0478 9.1873 3.02879 9.23316C3.00978 9.27902 3 9.32817 3 9.37781V10.6219C3 10.6715 3.00978 10.7207 3.02878 10.7666C3.04779 10.8125 3.07564 10.8541 3.11075 10.8892C3.14586 10.9244 3.18755 10.9522 3.23342 10.9712C3.2793 10.9902 3.32847 11 3.37812 11H10.6222Z" fill="#AAB0C0"/>
</g>
<defs>
<clipPath id="clip0">
<rect width="14" height="16" fill="white"/>
</clipPath>
</defs>
</svg>
