<svg width="16" height="16" viewBox="0 0 16 16" fill="none" xmlns="http://www.w3.org/2000/svg">
<path d="M8.39082 8.49574L6.59839 4.16099H6.44293L4.7511 8.49574H8.39082ZM1.36743 12.4373C1.81859 12.4068 2.18134 12.2025 2.45569 11.8245C2.6325 11.5868 2.88551 11.0624 3.21473 10.2516L7.37572 0H7.89699L12.0763 9.84006C12.5457 10.9436 12.8963 11.6569 13.128 11.98C13.3596 12.297 13.6888 12.4494 14.1156 12.4373V12.9128H8.05246V12.4373C8.66212 12.4129 9.06146 12.361 9.25046 12.2818C9.44555 12.2025 9.5431 12.0013 9.5431 11.6782C9.5431 11.5319 9.49432 11.3094 9.39678 11.0106C9.33581 10.8338 9.2535 10.6204 9.14986 10.3705L8.67432 9.23649H4.4676C4.19325 9.98029 4.01644 10.465 3.93719 10.6906C3.77258 11.1722 3.69027 11.5227 3.69027 11.7422C3.69027 12.0105 3.87012 12.2056 4.22983 12.3275C4.44321 12.3946 4.76329 12.4312 5.19006 12.4373V12.9128H1.36743V12.4373Z" fill="#AAB0C0"/>
<rect y="14" width="15.436" height="2" fill="#FF0000"/>
</svg>
