<svg width="16" height="16" viewBox="0 0 16 16" fill="none" xmlns="http://www.w3.org/2000/svg">
<g clip-path="url(#clip0)">
<path d="M15.6353 -1.50199e-05H14.1538C14.103 -7.23412e-05 14.0527 0.0101847 14.006 0.0301343C13.9593 0.0500838 13.9172 0.0793101 13.8821 0.116041C13.847 0.152772 13.8198 0.196242 13.802 0.243815C13.7843 0.291388 13.7763 0.342074 13.7788 0.392797L13.9038 2.97905C13.177 2.12264 12.2724 1.43485 11.2528 0.963553C10.2332 0.492251 9.12322 0.248748 8 0.249985C3.72938 0.249985 0.246877 3.7353 0.250002 8.00592C0.253127 12.2834 3.72188 15.75 8 15.75C9.91908 15.7527 11.7704 15.0407 13.1931 13.7528C13.2311 13.7188 13.2618 13.6774 13.2833 13.6311C13.3047 13.5848 13.3165 13.5347 13.3179 13.4837C13.3193 13.4327 13.3103 13.382 13.2914 13.3346C13.2725 13.2872 13.2442 13.2442 13.2081 13.2081L12.1456 12.1456C12.0784 12.0784 11.9881 12.0392 11.8931 12.036C11.798 12.0328 11.7054 12.0659 11.6338 12.1284C10.7942 12.8671 9.74946 13.3322 8.63879 13.462C7.52812 13.5917 6.4043 13.3798 5.41713 12.8545C4.42996 12.3292 3.62636 11.5155 3.11345 10.5219C2.60054 9.52822 2.40269 8.40184 2.54627 7.29288C2.68986 6.18391 3.16806 5.14506 3.91713 4.31481C4.66619 3.48455 5.65053 2.90235 6.73893 2.64581C7.82732 2.38926 8.96806 2.47057 10.0091 2.87889C11.0501 3.28721 11.9419 4.00314 12.5656 4.93124L9.39281 4.77905C9.34209 4.77664 9.2914 4.78455 9.24383 4.80231C9.19626 4.82008 9.15279 4.84732 9.11606 4.88238C9.07933 4.91745 9.0501 4.95961 9.03015 5.0063C9.0102 5.053 8.99994 5.10327 9 5.15405V6.63561C9 6.73507 9.03951 6.83045 9.10984 6.90078C9.18016 6.9711 9.27555 7.01061 9.375 7.01061H15.6353C15.7348 7.01061 15.8302 6.9711 15.9005 6.90078C15.9708 6.83045 16.0103 6.73507 16.0103 6.63561V0.374985C16.0103 0.275529 15.9708 0.180146 15.9005 0.10982C15.8302 0.0394938 15.7348 -1.50199e-05 15.6353 -1.50199e-05V-1.50199e-05Z" fill="#AAB0C0"/>
</g>
<defs>
<clipPath id="clip0">
<rect width="16" height="16" fill="white"/>
</clipPath>
</defs>
</svg>
