<svg width="24" height="24" viewBox="0 0 24 24" fill="none" xmlns="http://www.w3.org/2000/svg">
<path d="M12 24C18.6274 24 24 18.6274 24 12C24 5.37258 18.6274 0 12 0C5.37258 0 0 5.37258 0 12C0 18.6274 5.37258 24 12 24Z" fill="#10D6E2"/>
<path d="M12.2919 11.1984C12.2919 12.5184 13.3656 13.5921 14.6855 13.5921C16.0055 13.5921 17.0792 12.5184 17.0792 11.1984C17.0792 9.87846 16.0055 8.80476 14.6855 8.80476C13.3656 8.80476 12.2919 9.87846 12.2919 11.1984ZM16.1305 11.1984C16.1305 11.9951 15.4822 12.6434 14.6855 12.6434C13.8889 12.6434 13.2406 11.9951 13.2406 11.1984C13.2406 10.4018 13.8889 9.75348 14.6855 9.75348C15.4822 9.75348 16.1305 10.4018 16.1305 11.1984Z" fill="white" stroke="white" stroke-width="0.310301"/>
<path d="M14.687 14.1788C13.6645 14.1788 12.7334 14.3964 12 14.767C11.2665 14.3964 10.3355 14.1788 9.31298 14.1788C8.11506 14.1788 7.04189 14.4771 6.26522 14.9714C5.48904 15.4654 5 16.1622 5 16.9563V17.724C5 17.986 5.21234 18.1983 5.47437 18.1983H10.8484H13.1516H18.5256C18.7876 18.1983 19 17.986 19 17.724V16.9563C19 16.1622 18.5109 15.4654 17.7347 14.9714C16.9581 14.4771 15.8849 14.1788 14.687 14.1788ZM12.6772 17.2496H11.2322H5.94873V16.9563C5.94873 16.485 6.30906 16.0291 6.9273 15.6856C7.54157 15.3444 8.38969 15.1275 9.31298 15.1275C10.2363 15.1275 11.0844 15.3444 11.6986 15.6856C12.3168 16.0291 12.6772 16.485 12.6772 16.9563V17.2496ZM18.0512 17.2496H13.626V16.9563C13.626 16.3762 13.3637 15.8475 12.92 15.4124C13.4371 15.2329 14.044 15.1275 14.687 15.1275C15.6103 15.1275 16.4584 15.3444 17.0726 15.6856C17.6909 16.0291 18.0512 16.485 18.0512 16.9563V17.2496Z" fill="white" stroke="white" stroke-width="0.310301"/>
<path d="M6.91919 11.1984C6.91919 12.5184 7.99288 13.5921 9.31284 13.5921C10.6328 13.5921 11.7065 12.5184 11.7065 11.1984C11.7065 9.87846 10.6328 8.80476 9.31284 8.80476C7.99288 8.80476 6.91919 9.87846 6.91919 11.1984ZM10.7578 11.1984C10.7578 11.9951 10.1095 12.6434 9.31284 12.6434C8.51619 12.6434 7.86791 11.9951 7.86791 11.1984C7.86791 10.4018 8.51619 9.75348 9.31284 9.75348C10.1095 9.75348 10.7578 10.4018 10.7578 11.1984Z" fill="white" stroke="white" stroke-width="0.310301"/>
<path fill-rule="evenodd" clip-rule="evenodd" d="M9.20549 4.03624C9.46455 4.13983 9.59065 4.43383 9.48705 4.69291L9.21603 5.37071C9.31482 5.332 9.42226 5.29209 9.53746 5.25222C10.1802 5.02972 11.0799 4.8034 12.0884 4.8034C13.0971 4.8034 13.9967 5.02972 14.6395 5.25222C14.7903 5.30442 14.9277 5.35669 15.0501 5.40625L14.7649 4.69291C14.6612 4.43383 14.7873 4.13983 15.0464 4.03624C15.3055 3.93265 15.5995 4.05871 15.7031 4.31779L16.422 6.11609C16.4719 6.24046 16.4701 6.37958 16.4173 6.50268C16.3645 6.62585 16.2649 6.72298 16.1405 6.77272L14.3422 7.49173C14.0832 7.59533 13.7892 7.46923 13.6856 7.21017C13.582 6.95112 13.708 6.65707 13.9671 6.55346L14.5822 6.30758C14.4981 6.27477 14.4069 6.24099 14.309 6.20705C13.7355 6.00857 12.9511 5.81384 12.0884 5.81384C11.2258 5.81384 10.4415 6.00857 9.86799 6.20705C9.7847 6.23587 9.70615 6.26469 9.63286 6.29283L10.2848 6.55346C10.5439 6.65707 10.6699 6.95112 10.5663 7.21017C10.4627 7.46923 10.1687 7.59533 9.90968 7.49173L8.11141 6.77272C7.98696 6.72298 7.88741 6.62585 7.8346 6.50268C7.78178 6.37958 7.78005 6.24046 7.82986 6.11609L8.54879 4.31779C8.65239 4.05871 8.94644 3.93265 9.20549 4.03624Z" fill="#FFFBFB"/>
</svg>
