<svg width="12" height="16" viewBox="0 0 12 16" fill="none" xmlns="http://www.w3.org/2000/svg">
<path d="M11.7812 3.28125L8.72188 0.21875C8.58125 0.078125 8.39063 0 8.19063 0H8V4H12V3.80938C12 3.6125 11.9219 3.42188 11.7812 3.28125ZM4.0125 10.5C3.45312 10.5 3 10.8781 3 11.3438C3 11.8125 3.45625 12.1875 4.01562 12.1875C4.575 12.1875 5.02812 11.8094 5.02812 11.3438C5.02812 10.8781 4.57187 10.5 4.0125 10.5ZM7 4.25V0H5.0125V1H4.0125V0H0.75C0.334375 0 0 0.334375 0 0.75V15.25C0 15.6656 0.334375 16 0.75 16H11.25C11.6656 16 12 15.6656 12 15.25V5H7.75C7.3375 5 7 4.6625 7 4.25ZM2.99688 1H3.99688V2H2.99688V1ZM4.00625 13C2.96875 13 2.19375 12.05 2.4 11.0344L3.0125 8V7H4.0125V6H3.0125V5H4.0125V4H3.0125V3H4.0125V2H5.0125V3H4.0125V4H5.0125V5H4.0125V6H5.0125V7H4.0125V8H4.70312C4.88125 8 5.0375 8.12813 5.07188 8.30313L5.6125 11.0437C5.8125 12.0562 5.0375 13 4.00625 13V13Z" fill="#AAB0C0"/>
</svg>
