<svg width="16" height="16" viewBox="0 0 16 16" fill="none" xmlns="http://www.w3.org/2000/svg">
<path d="M15.5 4.00001V4.50001C15.5 4.56631 15.4737 4.6299 15.4268 4.67679C15.3799 4.72367 15.3163 4.75001 15.25 4.75001H14.5V5.12501C14.5 5.3321 14.3321 5.50001 14.125 5.50001H1.875C1.66791 5.50001 1.5 5.3321 1.5 5.12501V4.75001H0.75C0.683696 4.75001 0.620107 4.72367 0.573223 4.67679C0.526339 4.6299 0.5 4.56631 0.5 4.50001V4.00001C0.5 3.95055 0.514671 3.9022 0.542156 3.86108C0.569641 3.81996 0.608706 3.78792 0.654406 3.76901L7.90441 1.01901C7.96562 0.993664 8.03438 0.993664 8.09559 1.01901L15.3456 3.76901C15.3913 3.78792 15.4304 3.81996 15.4578 3.86108C15.4853 3.9022 15.5 3.95055 15.5 4.00001ZM14.75 13.5H1.25C0.835781 13.5 0.5 13.8358 0.5 14.25V14.75C0.5 14.8163 0.526339 14.8799 0.573223 14.9268C0.620107 14.9737 0.683696 15 0.75 15H15.25C15.3163 15 15.3799 14.9737 15.4268 14.9268C15.4737 14.8799 15.5 14.8163 15.5 14.75V14.25C15.5 13.8358 15.1642 13.5 14.75 13.5ZM3 6.00001V12H1.875C1.66791 12 1.5 12.1679 1.5 12.375V13H14.5V12.375C14.5 12.1679 14.3321 12 14.125 12H13V6.00001H11V12H9V6.00001H7V12H5V6.00001H3Z" fill="#AAB0C0"/>
</svg>
