<svg width="24" height="24" viewBox="0 0 24 24" fill="none" xmlns="http://www.w3.org/2000/svg">
<path fill-rule="evenodd" clip-rule="evenodd" d="M12 24C18.6274 24 24 18.6274 24 12C24 5.37258 18.6274 0 12 0C5.37258 0 0 5.37258 0 12C0 18.6274 5.37258 24 12 24ZM6.51489 5C6.12697 5 5.8125 5.31447 5.8125 5.70239V18.4475C5.8125 18.8354 6.12697 19.1499 6.51489 19.1499H17.583C17.9709 19.1499 18.2854 18.8354 18.2854 18.4475V13.6908L21.5041 10.4723C21.9153 10.0613 21.9153 9.39258 21.5041 8.98157L20.8077 8.28523C20.3969 7.87446 19.7283 7.87402 19.3171 8.28523L18.2854 9.31679V8.38557C18.2854 8.19928 18.2114 8.02063 18.0797 7.88891L15.3965 5.20573C15.2648 5.074 15.0861 5 14.8998 5H6.51489ZM16.8806 10.7214V9.75875H14.229C13.8411 9.75875 13.5266 9.44428 13.5266 9.05637V6.40478H7.21728V17.7451H16.8806V15.0955L15.7334 16.2426C15.6547 16.3213 15.556 16.3773 15.4479 16.4044L13.691 16.8436C13.6415 16.8559 13.5914 16.8618 13.542 16.8618C13.3808 16.8618 13.2239 16.7984 13.1072 16.6816C12.9545 16.5289 12.8929 16.3073 12.9453 16.0977L13.2494 14.8817H9.85267C9.61012 14.8817 9.41349 14.6851 9.41349 14.4425C9.41349 14.2 9.61012 14.0033 9.85267 14.0033H13.5984L16.8806 10.7214ZM16.8272 8.46543L14.82 6.45823V8.46543H16.8272ZM9.41349 10.929C9.41349 10.6865 9.61012 10.4898 9.85267 10.4898H14.2445C14.4871 10.4898 14.6837 10.6865 14.6837 10.929C14.6837 11.1716 14.4871 11.3682 14.2445 11.3682H9.85267C9.61012 11.3682 9.41349 11.1716 9.41349 10.929ZM9.85267 12.2466C9.61012 12.2466 9.41349 12.4432 9.41349 12.6858C9.41349 12.9283 9.61012 13.125 9.85267 13.125H14.2445C14.4871 13.125 14.6837 12.9283 14.6837 12.6858C14.6837 12.4432 14.4871 12.2466 14.2445 12.2466H9.85267ZM19.45 10.7872L14.9844 15.2525L14.3871 15.4019L14.5365 14.8046L19.0021 10.3393L19.45 10.7872ZM20.7589 9.72701L20.3197 10.1662L19.6233 9.46965L20.0625 9.03046L20.7589 9.72701Z" fill="#AC2FB7"/>
</svg>
