<svg width="12" height="16" viewBox="0 0 12 16" fill="none" xmlns="http://www.w3.org/2000/svg">
<g clip-path="url(#clip0)">
<path d="M11.5594 3.05939L8.9375 0.437512C8.65625 0.156262 8.275 -0.00311279 7.87813 -0.00311279H1.5C0.671875 1.22071e-05 0 0.671887 0 1.50001V14.5C0 15.3281 0.671875 16 1.5 16H10.5C11.3281 16 12 15.3281 12 14.5V4.12189C12 3.72501 11.8406 3.34064 11.5594 3.05939ZM10.3781 4.00001H8V1.62189L10.3781 4.00001ZM1.5 14.5V1.50001H6.5V4.75001C6.5 5.16564 6.83437 5.50001 7.25 5.50001H10.5V14.5H1.5Z" fill="#AAB0C0"/>
</g>
<defs>
<clipPath id="clip0">
<rect width="12" height="16" fill="white"/>
</clipPath>
</defs>
</svg>
