<svg width="24" height="24" viewBox="0 0 24 24" fill="none" xmlns="http://www.w3.org/2000/svg">
<path d="M12 24C18.6274 24 24 18.6274 24 12C24 5.37258 18.6274 0 12 0C5.37258 0 0 5.37258 0 12C0 18.6274 5.37258 24 12 24Z" fill="#B677DC"/>
<path d="M6.30408 11.1614C6.48726 11.2307 6.69375 11.1791 6.82309 11.0322C7.0652 10.7572 7.41256 10.5995 7.77614 10.5995C8.47711 10.5995 9.04728 11.1697 9.04728 11.8706C9.04728 12.5716 8.47711 13.1418 7.77614 13.1418C7.41256 13.1418 7.0652 12.984 6.82309 12.709C6.69382 12.5624 6.48802 12.5102 6.30407 12.5798C6.12108 12.6489 6 12.8242 6 13.0197V17.5298C6 17.7896 6.21044 18 6.47015 18H10.9801C11.1757 18 11.3509 17.8788 11.42 17.6959C11.489 17.5129 11.4377 17.3062 11.2908 17.177C11.0159 16.9347 10.8582 16.5873 10.8582 16.2239C10.8582 15.5229 11.4284 14.9527 12.1294 14.9527C12.8303 14.9527 13.4005 15.5229 13.4005 16.2239C13.4005 16.5873 13.2427 16.9347 12.9678 17.177H12.9677C12.8211 17.3064 12.7695 17.5129 12.8386 17.6959V17.6959C12.9078 17.8788 13.083 18 13.2786 18H16.4826C16.7423 18 16.9527 17.7896 16.9527 17.5298V13.9172C17.2155 14.025 17.4989 14.0821 17.7886 14.0821C19.008 14.0821 20 13.0902 20 11.8706C20 10.6511 19.008 9.65919 17.7886 9.65919C17.4989 9.65919 17.2155 9.71644 16.9527 9.82412V7.5174C16.9527 7.25767 16.7423 7.04725 16.4826 7.04725H14.1757C14.2836 6.78453 14.3408 6.50111 14.3408 6.21143C14.3408 4.99194 13.3488 4 12.1294 4C10.9098 4 9.91793 4.99194 9.91793 6.21143C9.91793 6.50111 9.97511 6.78453 10.0829 7.04725H6.47015C6.21044 7.04725 6 7.25767 6 7.5174V10.7216C6 10.9171 6.12109 11.0924 6.30408 11.1614ZM6.30408 11.1614L6.31639 11.1288L6.3041 11.1614C6.30409 11.1614 6.30408 11.1614 6.30408 11.1614Z" fill="white" stroke="white" stroke-width="0.1"/>
<path fill-rule="evenodd" clip-rule="evenodd" d="M12.9908 7.19075C13.2732 6.94195 13.4354 6.58499 13.4354 6.21145C13.4354 5.49126 12.8496 4.90549 12.1294 4.90549C11.4092 4.90549 10.8234 5.49126 10.8234 6.21145C10.8234 6.58499 10.9855 6.94195 11.2678 7.19075C11.4038 7.31041 11.4513 7.50174 11.3874 7.67121C11.3235 7.8406 11.1612 7.95274 10.9801 7.95274H6.90552V9.87673C6.92857 9.86663 6.95177 9.85694 6.97517 9.84761C7.22766 9.74731 7.49902 9.69403 7.77616 9.69403C8.9764 9.69403 9.95278 10.6704 9.95278 11.8706C9.95278 13.0709 8.9764 14.0473 7.77616 14.0473C7.49902 14.0473 7.22766 13.9942 6.97517 13.8937C6.95177 13.8844 6.92857 13.8747 6.90552 13.8646V17.0945H10.1356C10.1255 17.0715 10.1158 17.0483 10.1065 17.0249C10.006 16.7724 9.95278 16.501 9.95278 16.2239C9.95278 15.0236 10.9291 14.0473 12.1294 14.0473C13.3296 14.0473 14.306 15.0236 14.306 16.2239C14.306 16.501 14.2527 16.7724 14.1523 17.0249C14.1429 17.0483 14.1333 17.0715 14.1232 17.0945H16.0473V13.0198C16.0473 12.8387 16.1592 12.6764 16.3288 12.6124C16.4991 12.548 16.6896 12.5963 16.8094 12.7321C17.0581 13.0145 17.4149 13.1766 17.7886 13.1766C18.5088 13.1766 19.0946 12.5908 19.0946 11.8706C19.0946 11.1504 18.5088 10.5647 17.7886 10.5647C17.415 10.5647 17.0581 10.7268 16.8094 11.0093C16.6896 11.1452 16.4984 11.1929 16.3288 11.1289C16.1594 11.065 16.0473 10.9027 16.0473 10.7216V7.95274H13.2786C13.0975 7.95274 12.9353 7.8406 12.8712 7.67121C12.8072 7.50174 12.855 7.31055 12.9908 7.19075Z" fill="#B677DC"/>
</svg>
