<svg width="10" height="16" viewBox="0 0 10 16" fill="none" xmlns="http://www.w3.org/2000/svg">
<path d="M10 1.5V2.5C10 2.63261 9.94732 2.75979 9.85355 2.85355C9.75979 2.94732 9.63261 3 9.5 3H7.53875L5.03875 13H6.5C6.63261 13 6.75979 13.0527 6.85355 13.1464C6.94732 13.2402 7 13.3674 7 13.5V14.5C7 14.6326 6.94732 14.7598 6.85355 14.8536C6.75979 14.9473 6.63261 15 6.5 15H0.5C0.367392 15 0.240215 14.9473 0.146447 14.8536C0.0526784 14.7598 0 14.6326 0 14.5V13.5C0 13.3674 0.0526784 13.2402 0.146447 13.1464C0.240215 13.0527 0.367392 13 0.5 13H2.46125L4.96125 3H3.5C3.36739 3 3.24021 2.94732 3.14645 2.85355C3.05268 2.75979 3 2.63261 3 2.5V1.5C3 1.36739 3.05268 1.24021 3.14645 1.14645C3.24021 1.05268 3.36739 1 3.5 1H9.5C9.63261 1 9.75979 1.05268 9.85355 1.14645C9.94732 1.24021 10 1.36739 10 1.5Z" fill="#AAB0C0"/>
</svg>
