<svg width="24" height="24" viewBox="0 0 24 24" fill="none" xmlns="http://www.w3.org/2000/svg">
<path d="M12 24C18.6274 24 24 18.6274 24 12C24 5.37258 18.6274 0 12 0C5.37258 0 0 5.37258 0 12C0 18.6274 5.37258 24 12 24Z" fill="#244ABB"/>
<path fill-rule="evenodd" clip-rule="evenodd" d="M7.82669 5.86667C8.1729 5.86667 8.45356 6.14733 8.45356 6.49353V14.5532C8.45356 15.6908 9.37577 16.6129 10.5133 16.6129H14.0953C15.2329 16.6129 16.1551 15.6908 16.1551 14.5532V12.9933C16.1551 11.8558 15.2329 10.9336 14.0953 10.9336H10.0655C9.71929 10.9336 9.43863 10.653 9.43863 10.3068C9.43863 9.96055 9.71929 9.67989 10.0655 9.67989H14.0953C15.9253 9.67989 17.4088 11.1634 17.4088 12.9933V14.5532C17.4088 16.3832 15.9253 17.8667 14.0953 17.8667H10.5133C8.68335 17.8667 7.19983 16.3832 7.19983 14.5532V6.49353C7.19983 6.14733 7.48049 5.86667 7.82669 5.86667Z" fill="white"/>
</svg>
