<svg width="24" height="24" viewBox="0 0 24 24" fill="none" xmlns="http://www.w3.org/2000/svg">
<path fill-rule="evenodd" clip-rule="evenodd" d="M12 24C18.6274 24 24 18.6274 24 12C24 5.37258 18.6274 0 12 0C5.37258 0 0 5.37258 0 12C0 18.6274 5.37258 24 12 24ZM7.64053 6.99733C7.64053 7.23988 7.83716 7.43651 8.07972 7.43651H8.43107C8.67363 7.43651 8.87026 7.23988 8.87026 6.99733V6.53555H9.83647V6.99733C9.83647 7.23988 10.0331 7.43651 10.2757 7.43651H10.627C10.8696 7.43651 11.0662 7.23988 11.0662 6.99733V6.53555H12.0324V6.99733C12.0324 7.23988 12.229 7.43651 12.4716 7.43651H12.8229C13.0655 7.43651 13.2621 7.23988 13.2621 6.99733V6.53555H14.2283V6.99733C14.2283 7.23988 14.425 7.43651 14.6675 7.43651H15.0189C15.2614 7.43651 15.4581 7.23988 15.4581 6.99733V6.53555H16.3806V10.8522L13.0984 14.1341H9.35268C9.11012 14.1341 8.91349 14.3307 8.91349 14.5733C8.91349 14.8158 9.11012 15.0125 9.35268 15.0125H12.7494L12.4453 16.2285C12.3929 16.4381 12.4545 16.6597 12.6072 16.8124C12.7239 16.9291 12.8808 16.9926 13.042 16.9926C13.0914 16.9926 13.1415 16.9867 13.191 16.9743L14.9479 16.5351C15.056 16.5081 15.1547 16.452 15.2334 16.3734L16.3806 15.2262V17.8759H6.71728V6.53555H7.64053V6.99733ZM15.4581 5.13078H17.083C17.7854 5.13078 17.7854 5.83317 17.7854 5.83317V9.44753L18.8171 8.41597C19.2283 8.00476 19.8969 8.0052 20.3077 8.41597L21.0041 9.11231C21.4153 9.52332 21.4153 10.192 21.0041 10.603L17.7854 13.8215V18.5783C17.7854 18.9662 17.4709 19.2807 17.083 19.2807H6.01489C5.62697 19.2807 5.3125 18.9662 5.3125 18.5783V5.83317C5.3125 5.44525 5.62697 5.13078 6.01489 5.13078H7.64053V4.43919C7.64053 4.19663 7.83716 4 8.07972 4H8.43107C8.67362 4 8.87026 4.19663 8.87026 4.43919V5.13078H9.83647V4.43919C9.83647 4.19663 10.0331 4 10.2757 4H10.627C10.8696 4 11.0662 4.19663 11.0662 4.43919V5.13078H12.0324V4.43919C12.0324 4.19663 12.229 4 12.4716 4H12.8229C13.0655 4 13.2621 4.19663 13.2621 4.43919V5.13078H14.2283V4.43919C14.2283 4.19663 14.425 4 14.6675 4H15.0189C15.2614 4 15.4581 4.19663 15.4581 4.43919V5.13078ZM8.91349 11.0598C8.91349 10.8172 9.11012 10.6206 9.35268 10.6206H13.7445C13.9871 10.6206 14.1837 10.8172 14.1837 11.0598C14.1837 11.3024 13.9871 11.499 13.7445 11.499H9.35268C9.11012 11.499 8.91349 11.3024 8.91349 11.0598ZM8.91349 12.8165C8.91349 12.574 9.11012 12.3774 9.35268 12.3774H13.7445C13.9871 12.3774 14.1837 12.574 14.1837 12.8165C14.1837 13.0591 13.9871 13.2557 13.7445 13.2557H9.35268C9.11012 13.2557 8.91349 13.0591 8.91349 12.8165ZM18.95 10.9179L14.4844 15.3832L13.8871 15.5326L14.0365 14.9353L18.5021 10.47L18.95 10.9179ZM20.2589 9.85775L19.8197 10.2969L19.1233 9.60039L19.5625 9.1612L20.2589 9.85775Z" fill="#65B400"/>
</svg>
