<svg width="14" height="16" viewBox="0 0 14 16" fill="none" xmlns="http://www.w3.org/2000/svg">
<g clip-path="url(#clip0)">
<path d="M0.5 7H13.5C13.6326 7 13.7598 6.94732 13.8536 6.85355C13.9473 6.75979 14 6.63261 14 6.5V5.5C14 5.36739 13.9473 5.24021 13.8536 5.14645C13.7598 5.05268 13.6326 5 13.5 5H0.5C0.367392 5 0.240215 5.05268 0.146447 5.14645C0.0526784 5.24021 0 5.36739 0 5.5L0 6.5C0 6.63261 0.0526784 6.75979 0.146447 6.85355C0.240215 6.94732 0.367392 7 0.5 7ZM13.5 13H0.5C0.367392 13 0.240215 13.0527 0.146447 13.1464C0.0526784 13.2402 0 13.3674 0 13.5L0 14.5C0 14.6326 0.0526784 14.7598 0.146447 14.8536C0.240215 14.9473 0.367392 15 0.5 15H13.5C13.6326 15 13.7598 14.9473 13.8536 14.8536C13.9473 14.7598 14 14.6326 14 14.5V13.5C14 13.3674 13.9473 13.2402 13.8536 13.1464C13.7598 13.0527 13.6326 13 13.5 13ZM13.5991 1H5.40094C5.34827 0.999959 5.29612 1.0103 5.24746 1.03044C5.19879 1.05057 5.15458 1.0801 5.11734 1.11734C5.0801 1.15458 5.05057 1.19879 5.03044 1.24746C5.0103 1.29612 4.99996 1.34827 5 1.40094V2.59906C4.99996 2.65173 5.0103 2.70388 5.03044 2.75254C5.05057 2.80121 5.0801 2.84542 5.11734 2.88266C5.15458 2.9199 5.19879 2.94943 5.24746 2.96956C5.29612 2.9897 5.34827 3.00004 5.40094 3H13.5991C13.6517 3.00004 13.7039 2.9897 13.7525 2.96956C13.8012 2.94943 13.8454 2.9199 13.8827 2.88266C13.9199 2.84542 13.9494 2.80121 13.9696 2.75254C13.9897 2.70388 14 2.65173 14 2.59906V1.40094C14 1.34827 13.9897 1.29612 13.9696 1.24746C13.9494 1.19879 13.9199 1.15458 13.8827 1.11734C13.8454 1.0801 13.8012 1.05057 13.7525 1.03044C13.7039 1.0103 13.6517 0.999959 13.5991 1ZM13.5991 9H5.40094C5.34827 8.99996 5.29612 9.0103 5.24746 9.03044C5.19879 9.05057 5.15458 9.0801 5.11734 9.11734C5.0801 9.15458 5.05057 9.19879 5.03044 9.24746C5.0103 9.29612 4.99996 9.34827 5 9.40094V10.5991C4.99996 10.6517 5.0103 10.7039 5.03044 10.7525C5.05057 10.8012 5.0801 10.8454 5.11734 10.8827C5.15458 10.9199 5.19879 10.9494 5.24746 10.9696C5.29612 10.9897 5.34827 11 5.40094 11H13.5991C13.6517 11 13.7039 10.9897 13.7525 10.9696C13.8012 10.9494 13.8454 10.9199 13.8827 10.8827C13.9199 10.8454 13.9494 10.8012 13.9696 10.7525C13.9897 10.7039 14 10.6517 14 10.5991V9.40094C14 9.34827 13.9897 9.29612 13.9696 9.24746C13.9494 9.19879 13.9199 9.15458 13.8827 9.11734C13.8454 9.0801 13.8012 9.05057 13.7525 9.03044C13.7039 9.0103 13.6517 8.99996 13.5991 9V9Z" fill="#AAB0C0"/>
</g>
<defs>
<clipPath id="clip0">
<rect width="14" height="16" fill="white"/>
</clipPath>
</defs>
</svg>
