<svg width="18" height="16" viewBox="0 0 18 16" fill="none" xmlns="http://www.w3.org/2000/svg">
<path d="M9 1C4.02938 1 0 5.02938 0 10C0 11.65 0.445313 13.1956 1.22063 14.525C1.39594 14.8256 1.73 15 2.07812 15H15.9219C16.27 15 16.6041 14.8256 16.7794 14.525C17.5547 13.1956 18 11.65 18 10C18 5.02938 13.9706 1 9 1ZM9 3C9.45969 3 9.83063 3.31656 9.9475 3.73906C9.91281 3.80969 9.865 3.87125 9.83969 3.9475L9.55156 4.81219C9.39125 4.92125 9.20875 5 9.00031 5C8.44812 5 8.00031 4.55219 8.00031 4C8.00031 3.44781 8.44781 3 9 3ZM3 12C2.44781 12 2 11.5522 2 11C2 10.4478 2.44781 10 3 10C3.55219 10 4 10.4478 4 11C4 11.5522 3.55219 12 3 12ZM4.5 7C3.94781 7 3.5 6.55219 3.5 6C3.5 5.44781 3.94781 5 4.5 5C5.05219 5 5.5 5.44781 5.5 6C5.5 6.55219 5.05219 7 4.5 7ZM12.2116 4.73719L10.295 10.4872C10.7228 10.8541 11 11.3919 11 12C11 12.3663 10.8944 12.7047 10.7225 13H7.2775C7.10563 12.7047 7 12.3663 7 12C7 10.9394 7.82812 10.0803 8.87187 10.0128L10.7887 4.2625C10.9191 3.87 11.3428 3.65469 11.7375 3.78844C12.1303 3.91938 12.3422 4.34437 12.2116 4.73719ZM12.6697 6.52469L13.1547 5.07C13.2631 5.02969 13.3775 5.00031 13.5 5.00031C14.0522 5.00031 14.5 5.44812 14.5 6.00031C14.5 6.5525 14.0522 7.00031 13.5 7.00031C13.1444 7 12.8472 6.80406 12.6697 6.52469ZM15 12C14.4478 12 14 11.5522 14 11C14 10.4478 14.4478 10 15 10C15.5522 10 16 10.4478 16 11C16 11.5522 15.5522 12 15 12Z" fill="#AAB0C0"/>
</svg>
