<svg width="24" height="24" viewBox="0 0 24 24" fill="none" xmlns="http://www.w3.org/2000/svg">
<path d="M12 24C18.6274 24 24 18.6274 24 12C24 5.37258 18.6274 0 12 0C5.37258 0 0 5.37258 0 12C0 18.6274 5.37258 24 12 24Z" fill="#FD4470"/>
<path fill-rule="evenodd" clip-rule="evenodd" d="M7.04997 7.04984C8.36332 5.73743 10.1432 5 12 5C13.8568 5 15.6367 5.73743 16.95 7.04984C18.2625 8.36319 19 10.1432 19 11.9999C19 13.8567 18.2626 15.6367 16.9501 16.95C15.6367 18.2624 13.8568 19 12 19C10.1433 19 8.36323 18.2625 7.04997 16.95C5.73747 15.6368 5 13.8567 5 11.9999C5 10.1432 5.73747 8.36319 7.04997 7.04984ZM16.6553 15.74C17.3822 14.8403 17.8302 13.7485 17.9444 12.5975C17.95 12.5407 17.9549 12.4839 17.9589 12.4268H15.3463C15.3262 13.2322 15.2321 14.0333 15.0645 14.8211C15.5534 15.0757 16.0087 15.3893 16.4199 15.7561C16.4624 15.794 16.5043 15.8324 16.5458 15.8714C16.5829 15.8281 16.6195 15.7843 16.6553 15.74ZM6.04103 12.4268C6.04505 12.4837 6.04983 12.5409 6.05546 12.5975C6.16976 13.7485 6.61768 14.8405 7.34465 15.74C7.38042 15.7843 7.41687 15.8282 7.454 15.8714C7.49558 15.8324 7.53758 15.794 7.58 15.7561C7.99121 15.3893 8.44655 15.0757 8.93544 14.8211C8.76787 14.0332 8.67371 13.2321 8.65365 12.4268L6.04103 12.4268ZM7.34474 8.2599C6.61776 9.15957 6.16985 10.2514 6.05555 11.4024C6.04991 11.4591 6.04513 11.5161 6.04112 11.5731H8.65373C8.67371 10.7678 8.76795 9.96661 8.93544 9.17886C8.44664 8.92421 7.9913 8.61067 7.58009 8.24376C7.53766 8.20595 7.49566 8.16753 7.45417 8.12852C7.41704 8.17189 7.3805 8.21559 7.34474 8.2599ZM14.0154 8.54784C13.5253 6.97702 12.7371 6.02426 11.9999 6.02426C11.2405 6.02426 10.4269 7.0355 9.95078 8.69193C11.2214 9.17237 12.6179 9.19294 13.8991 8.75348C13.9526 8.73513 14.0059 8.71601 14.059 8.69603C14.0627 8.69467 14.0663 8.6933 14.0699 8.69193H14.059C14.0447 8.64336 14.0302 8.5953 14.0154 8.54784ZM13.8973 6.33354C13.9001 6.33764 13.9029 6.34173 13.9058 6.34583L13.907 6.34771L13.9082 6.34933C13.9602 6.42522 14.0108 6.50214 14.0597 6.5799C14.3695 7.07255 14.6155 7.60284 14.7918 8.15763C14.8094 8.21329 14.8264 8.26912 14.8427 8.32512C14.8938 8.29626 14.9444 8.26673 14.9946 8.23634C15.2867 8.05963 15.563 7.85774 15.8202 7.63314C15.8634 7.5955 15.9061 7.55717 15.9481 7.51816C15.9049 7.48043 15.8612 7.44329 15.8171 7.40675C15.3239 6.99931 14.7689 6.67304 14.1736 6.44084C14.0861 6.40661 13.9975 6.37451 13.9082 6.34438L13.8973 6.33354ZM9.20793 8.15925C9.19034 8.21483 9.17344 8.27074 9.15722 8.32683C9.10608 8.29797 9.05546 8.26835 9.00527 8.23796C8.71306 8.061 8.43673 7.85851 8.17944 7.63323C8.13633 7.5955 8.09382 7.55717 8.05173 7.51816C8.09476 7.48025 8.13821 7.44295 8.18226 7.40624C8.67635 6.9947 9.23362 6.66518 9.83186 6.4306C9.92115 6.3956 10.0115 6.36265 10.1026 6.33192C10.0486 6.41011 9.99636 6.48933 9.94583 6.56957C9.63339 7.06555 9.38532 7.59968 9.20793 8.15925ZM9.15713 15.673C9.10608 15.7017 9.05546 15.7314 9.00527 15.7617C8.71306 15.9387 8.43682 16.1412 8.17944 16.3665C8.13633 16.4042 8.09382 16.4425 8.05173 16.4815C8.09484 16.5194 8.13838 16.5567 8.18243 16.5933C8.67695 17.0042 9.23379 17.333 9.83186 17.5675C9.92115 17.6025 10.0115 17.6354 10.1026 17.6662C10.0486 17.588 9.99636 17.5087 9.94574 17.4284C9.63339 16.9328 9.3854 16.3993 9.20801 15.8404C9.19034 15.7849 9.17335 15.729 9.15713 15.673ZM9.94105 15.3083C10.427 16.9645 11.2406 17.9754 12 17.9754C12.7594 17.9754 13.573 16.9643 14.0591 15.3078C12.7853 14.8261 11.3856 14.8068 10.1017 15.2496C10.0479 15.2682 9.9944 15.2881 9.94105 15.3083ZM9.50739 11.573H14.4927C14.491 11.5161 14.4891 11.4592 14.4867 11.4023C14.4629 10.8297 14.3997 10.2597 14.2966 9.69626C14.2862 9.63958 14.2754 9.58298 14.2642 9.52647C14.2101 9.54602 14.1558 9.56488 14.1013 9.58298C12.7373 10.037 11.2627 10.037 9.8987 9.58298C9.84424 9.56488 9.78995 9.54602 9.73583 9.52647C9.72464 9.58298 9.71389 9.63958 9.70347 9.69626C9.60035 10.2597 9.5371 10.8297 9.51336 11.4023C9.51097 11.4592 9.50901 11.5161 9.50739 11.573ZM9.5073 12.4267C9.50884 12.4836 9.5108 12.5406 9.51319 12.5974C9.53701 13.1701 9.60027 13.7401 9.70339 14.3035C9.71372 14.3602 9.72447 14.4168 9.73566 14.4733C9.78978 14.4538 9.84416 14.435 9.89862 14.417C11.2627 13.9652 12.7372 13.9652 14.1012 14.417C14.1556 14.435 14.21 14.4538 14.2641 14.4733C14.2753 14.4168 14.2861 14.3602 14.2964 14.3035C14.3995 13.7401 14.4628 13.1701 14.4866 12.5974C14.489 12.5406 14.4909 12.4836 14.4925 12.4267H9.5073ZM14.8357 15.6969C14.8219 15.7439 14.8077 15.7907 14.7929 15.8374C14.6154 16.3981 14.3671 16.9333 14.054 17.4301C14.0034 17.5104 13.9512 17.5897 13.8973 17.6679C13.9884 17.6371 14.0786 17.6042 14.168 17.5691C14.7662 17.3345 15.3235 17.005 15.8176 16.5934C15.8617 16.5568 15.9051 16.5195 15.9481 16.4815C15.9062 16.4424 15.8638 16.4039 15.8209 16.3661C15.5639 16.1398 15.2875 15.9369 14.9954 15.759C14.9494 15.731 14.9029 15.7036 14.8561 15.6768C14.8539 15.6755 14.8516 15.6742 14.8493 15.673H14.8427C14.8403 15.6809 14.838 15.6888 14.8357 15.6969ZM15.0644 9.17877C15.2319 9.96661 15.3262 10.7678 15.3461 11.573H17.9588C17.9548 11.516 17.95 11.4591 17.9443 11.4024C17.8301 10.2514 17.3821 9.1594 16.6552 8.25981C16.6194 8.21551 16.5829 8.17172 16.5458 8.12835C16.5043 8.16736 16.4623 8.20586 16.4198 8.24376C16.0086 8.61058 15.5532 8.92413 15.0644 9.17877Z" fill="white"/>
</svg>
