<svg width="11" height="16" viewBox="0 0 11 16" fill="none" xmlns="http://www.w3.org/2000/svg">
<g clip-path="url(#clip0)">
<path d="M7.585 8L10.7122 4.87281C11.0959 4.48906 11.0959 3.86687 10.7122 3.48281L10.0172 2.78781C9.63344 2.40406 9.01125 2.40406 8.62719 2.78781L5.5 5.915L2.37281 2.78781C1.98906 2.40406 1.36688 2.40406 0.982813 2.78781L0.287813 3.48281C-0.0959375 3.86656 -0.0959375 4.48875 0.287813 4.87281L3.415 8L0.287813 11.1272C-0.0959375 11.5109 -0.0959375 12.1331 0.287813 12.5172L0.982813 13.2122C1.36656 13.5959 1.98906 13.5959 2.37281 13.2122L5.5 10.085L8.62719 13.2122C9.01094 13.5959 9.63344 13.5959 10.0172 13.2122L10.7122 12.5172C11.0959 12.1334 11.0959 11.5113 10.7122 11.1272L7.585 8Z" fill="#AAB0C0"/>
</g>
<defs>
<clipPath id="clip0">
<rect width="11" height="16" fill="white"/>
</clipPath>
</defs>
</svg>
