<svg width="20" height="16" viewBox="0 0 20 16" fill="none" xmlns="http://www.w3.org/2000/svg">
<path d="M6 8C7.93437 8 9.5 6.43437 9.5 4.5C9.5 2.56562 7.93437 1 6 1C4.06563 1 2.5 2.56562 2.5 4.5C2.5 6.43437 4.06563 8 6 8ZM8.4 9H8.14062C7.49062 9.3125 6.76875 9.5 6 9.5C5.23125 9.5 4.5125 9.3125 3.85938 9H3.6C1.6125 9 0 10.6125 0 12.6V13.5C0 14.3281 0.671875 15 1.5 15H10.5C11.3281 15 12 14.3281 12 13.5V12.6C12 10.6125 10.3875 9 8.4 9ZM15 8C16.6562 8 18 6.65625 18 5C18 3.34375 16.6562 2 15 2C13.3438 2 12 3.34375 12 5C12 6.65625 13.3438 8 15 8ZM16.5 9H16.3813C15.9469 9.15 15.4875 9.25 15 9.25C14.5125 9.25 14.0531 9.15 13.6187 9H13.5C12.8625 9 12.275 9.18437 11.7594 9.48125C12.5219 10.3031 13 11.3938 13 12.6V13.8C13 13.8688 12.9844 13.9344 12.9812 14H18.5C19.3281 14 20 13.3281 20 12.5C20 10.5656 18.4344 9 16.5 9Z" fill="#AAB0C0"/>
</svg>
