<svg width="24" height="24" viewBox="0 0 24 24" fill="none" xmlns="http://www.w3.org/2000/svg">
<path d="M12 24C18.6274 24 24 18.6274 24 12C24 5.37258 18.6274 0 12 0C5.37258 0 0 5.37258 0 12C0 18.6274 5.37258 24 12 24Z" fill="#3BC362"/>
<path fill-rule="evenodd" clip-rule="evenodd" d="M18.7278 5.16601C18.516 4.99382 18.2682 4.96265 18.0363 5.03995L18.0287 5.04201L3.66907 11.2514L3.66783 11.2519C3.23588 11.4327 3 11.8583 3 12.2939C3 12.773 3.32964 13.1558 3.7661 13.2935L8.6364 15.0296L8.8533 18.9405C8.858 19.239 9.0552 19.4547 9.3189 19.566L9.3231 19.5678C9.3609 19.5838 9.3938 19.5977 9.4483 19.6074C9.4922 19.6154 9.5336 19.6152 9.5553 19.6152L9.5594 19.6151C9.7693 19.6151 9.9316 19.5508 10.083 19.3995L12.0252 17.2471L14.7982 19.1744C14.9817 19.3175 15.1996 19.3867 15.4366 19.3867C15.9544 19.3867 16.4161 19.0375 16.5224 18.5069L18.9889 5.8431L18.9902 5.8356C19.0315 5.59123 18.9421 5.34011 18.7278 5.16601ZM16.6767 6.77535L9.1257 13.9446L4.19311 12.2681L16.6767 6.77535ZM11.3175 16.4128L9.919 17.9394L9.7919 15.3451L11.3175 16.4128ZM10.0661 14.3994L17.6567 7.10716L15.4118 18.2443L10.0661 14.3994Z" fill="white"/>
</svg>
