<svg width="24" height="24" viewBox="0 0 24 24" fill="none" xmlns="http://www.w3.org/2000/svg">
<path d="M12 24C18.6274 24 24 18.6274 24 12C24 5.37258 18.6274 0 12 0C5.37258 0 0 5.37258 0 12C0 18.6274 5.37258 24 12 24Z" fill="#B30C8E"/>
<path d="M11.8678 5.8786L19.2228 13.2335C19.3098 13.3206 19.3098 13.4618 19.2228 13.5488L13.5489 19.2227C13.4619 19.3097 13.3208 19.3097 13.2337 19.2227L5.87875 11.8677C5.8446 11.8335 5.82249 11.7893 5.81563 11.7416L5.29032 8.06408C5.28042 7.99463 5.30378 7.92455 5.35335 7.87489L7.87504 5.3532C7.9247 5.30363 7.99478 5.28027 8.06423 5.29017L11.7417 5.81556C11.7894 5.82234 11.8337 5.84445 11.8678 5.8786Z" stroke="white" stroke-width="1.5" stroke-linejoin="round"/>
<path fill-rule="evenodd" clip-rule="evenodd" d="M8.96376 7.651C9.31557 7.65136 9.65293 7.79124 9.90177 8.04008C10.1505 8.28882 10.2905 8.62619 10.2908 8.978C10.2908 9.24047 10.213 9.49715 10.0672 9.71532C9.92138 9.93357 9.71409 10.1037 9.47159 10.2041C9.22917 10.3046 8.96233 10.3309 8.70494 10.2797C8.44745 10.2284 8.21101 10.1021 8.02539 9.91645C7.83986 9.73092 7.71343 9.49448 7.66226 9.237C7.61099 8.9796 7.63729 8.71276 7.73768 8.47034C7.83816 8.22784 8.00818 8.02055 8.22644 7.87469C8.44469 7.72892 8.70128 7.65109 8.96376 7.651ZM8.96358 9.48093C9.09696 9.48084 9.22481 9.42779 9.31913 9.33346C9.41346 9.23923 9.46651 9.11138 9.4666 8.978C9.4666 8.8785 9.43718 8.78141 9.3819 8.69867C9.32662 8.61603 9.24808 8.55157 9.15625 8.5135C9.06433 8.47543 8.96322 8.46544 8.86569 8.48488C8.76815 8.50422 8.67855 8.55219 8.6082 8.62244C8.53786 8.69279 8.48998 8.78239 8.47055 8.87993C8.45111 8.97746 8.4611 9.07857 8.49917 9.17049C8.53724 9.26232 8.60161 9.34086 8.68434 9.39614C8.76699 9.45142 8.86417 9.48093 8.96358 9.48093Z" fill="white"/>
</svg>
