<svg width="24" height="24" viewBox="0 0 24 24" fill="none" xmlns="http://www.w3.org/2000/svg">
<circle cx="12" cy="12" r="12" fill="#11D3B0"/>
<path fill-rule="evenodd" clip-rule="evenodd" d="M7.77238 8.16524C8.36723 8.16524 8.84944 7.68302 8.84944 7.08818C8.84944 6.49333 8.36723 6.01112 7.77238 6.01112C7.17754 6.01112 6.69532 6.49333 6.69532 7.08818C6.69532 7.68302 7.17754 8.16524 7.77238 8.16524ZM7.77238 9.17636C8.92565 9.17636 9.86056 8.24145 9.86056 7.08818C9.86056 5.93491 8.92565 5 7.77238 5C6.61911 5 5.6842 5.93491 5.6842 7.08818C5.6842 8.24145 6.61911 9.17636 7.77238 9.17636Z" fill="white"/>
<path fill-rule="evenodd" clip-rule="evenodd" d="M15.2322 7.594H9.56433V6.58289H15.2322V7.594Z" fill="white"/>
<path fill-rule="evenodd" clip-rule="evenodd" d="M6.69532 16.1223V17.7112H8.28422V16.1223H6.69532ZM6.40643 15.1112C6.00756 15.1112 5.6842 15.4345 5.6842 15.8334V18.0001C5.6842 18.399 6.00756 18.7223 6.40643 18.7223H8.57311C8.97199 18.7223 9.29534 18.399 9.29534 18.0001V15.8334C9.29534 15.4345 8.97199 15.1112 8.57311 15.1112H6.40643Z" fill="white"/>
<path fill-rule="evenodd" clip-rule="evenodd" d="M16.125 15.5571C15.5301 15.5571 15.0479 16.0393 15.0479 16.6341C15.0479 17.229 15.5301 17.7112 16.125 17.7112C16.7198 17.7112 17.202 17.229 17.202 16.6341C17.202 16.0393 16.7198 15.5571 16.125 15.5571ZM16.125 14.5459C14.9717 14.5459 14.0368 15.4808 14.0368 16.6341C14.0368 17.7874 14.9717 18.7223 16.125 18.7223C17.2782 18.7223 18.2131 17.7874 18.2131 16.6341C18.2131 15.4808 17.2782 14.5459 16.125 14.5459Z" fill="white"/>
<path fill-rule="evenodd" clip-rule="evenodd" d="M8.66717 16.1283L14.3351 16.1283L14.3351 17.1394L8.66717 17.1394L8.66717 16.1283Z" fill="white"/>
<path fill-rule="evenodd" clip-rule="evenodd" d="M16.3733 9.69444V8.61111H17.3844V9.69444C17.3844 11.1703 16.1881 12.3667 14.7122 12.3667L9.6566 12.3667C8.7392 12.3667 7.99549 13.1104 7.99549 14.0278L7.99549 15.1112H6.98438L6.98438 14.0278C6.98438 12.552 8.18077 11.3556 9.6566 11.3556L14.7122 11.3556C15.6296 11.3556 16.3733 10.6118 16.3733 9.69444Z" fill="white"/>
<path fill-rule="evenodd" clip-rule="evenodd" d="M16.0842 6.01112V7.60002H17.6731V6.01112H16.0842ZM15.7953 5C15.3965 5 15.0731 5.32335 15.0731 5.72223V7.88891C15.0731 8.28779 15.3965 8.61114 15.7953 8.61114H17.962C18.3609 8.61114 18.6843 8.28779 18.6843 7.88891V5.72223C18.6843 5.32335 18.3609 5 17.962 5H15.7953Z" fill="white"/>
</svg>
