<svg width="24" height="24" viewBox="0 0 24 24" fill="none" xmlns="http://www.w3.org/2000/svg">
<path d="M12 24C18.6274 24 24 18.6274 24 12C24 5.37258 18.6274 0 12 0C5.37258 0 0 5.37258 0 12C0 18.6274 5.37258 24 12 24Z" fill="#092D59"/>
<path fill-rule="evenodd" clip-rule="evenodd" d="M4.64104 9.40072V8.05664H3.00977V9.40072H4.64104ZM3.00977 10.3198V16.259H4.64104V10.3198H3.00977ZM7.00157 13.2951C7.00157 13.5325 7.02455 13.7642 7.0705 13.9901C7.11645 14.2161 7.19495 14.419 7.306 14.599C7.41705 14.779 7.56448 14.9226 7.74828 15.0298C7.93209 15.137 8.16184 15.1906 8.43755 15.1906C8.71327 15.1906 8.94494 15.137 9.13257 15.0298C9.32021 14.9226 9.46955 14.779 9.5806 14.599C9.69165 14.419 9.77015 14.2161 9.8161 13.9901C9.86205 13.7642 9.88503 13.5325 9.88503 13.2951C9.88503 13.0577 9.86205 12.8241 9.8161 12.5944C9.77015 12.3646 9.69165 12.1616 9.5806 11.9855C9.46955 11.8093 9.32021 11.6657 9.13257 11.5547C8.94494 11.4436 8.71327 11.3881 8.43755 11.3881C8.16184 11.3881 7.93209 11.4436 7.74828 11.5547C7.56448 11.6657 7.41705 11.8093 7.306 11.9855C7.19495 12.1616 7.11645 12.3646 7.0705 12.5944C7.02455 12.8241 7.00157 13.0577 7.00157 13.2951ZM5.37029 13.2951C5.37029 12.8203 5.44305 12.3895 5.58856 12.0027C5.73407 11.616 5.94085 11.2867 6.20891 11.0148C6.47696 10.7429 6.79862 10.5323 7.17389 10.3829C7.54916 10.2336 7.97038 10.1589 8.43755 10.1589C8.90473 10.1589 9.32786 10.2336 9.70697 10.3829C10.0861 10.5323 10.4096 10.7429 10.6777 11.0148C10.9457 11.2867 11.1525 11.616 11.298 12.0027C11.4436 12.3895 11.5163 12.8203 11.5163 13.2951C11.5163 13.7699 11.4436 14.1988 11.298 14.5818C11.1525 14.9647 10.9457 15.2921 10.6777 15.564C10.4096 15.8359 10.0861 16.0445 9.70697 16.1901C9.32786 16.3356 8.90473 16.4083 8.43755 16.4083C7.97038 16.4083 7.54916 16.3356 7.17389 16.1901C6.79862 16.0445 6.47696 15.8359 6.20891 15.564C5.94085 15.2921 5.73407 14.9647 5.58856 14.5818C5.44305 14.1988 5.37029 13.7699 5.37029 13.2951ZM16.2433 12.4105H17.8401C17.8172 12.0276 17.7253 11.6964 17.5644 11.4168C17.4036 11.1373 17.1949 10.9037 16.9384 10.7161C16.6818 10.5284 16.3908 10.3887 16.0653 10.2968C15.7398 10.2049 15.4009 10.1589 15.0486 10.1589C14.5661 10.1589 14.1372 10.2393 13.762 10.4002C13.3867 10.561 13.0689 10.785 12.8085 11.0722C12.5481 11.3594 12.3509 11.7002 12.2168 12.0946C12.0828 12.489 12.0158 12.916 12.0158 13.3755C12.0158 13.8197 12.0886 14.2275 12.2341 14.599C12.3796 14.9704 12.5825 15.2902 12.8429 15.5582C13.1033 15.8263 13.4192 16.035 13.7907 16.1843C14.1621 16.3337 14.5699 16.4083 15.0141 16.4083C15.803 16.4083 16.4501 16.2015 16.9556 15.788C17.4611 15.3744 17.7674 14.7732 17.8746 13.9844H16.3008C16.2472 14.352 16.1151 14.6449 15.9044 14.8632C15.6938 15.0815 15.3932 15.1906 15.0026 15.1906C14.7499 15.1906 14.5355 15.1332 14.3593 15.0183C14.1832 14.9034 14.0434 14.756 13.94 14.576C13.8366 14.396 13.762 14.195 13.716 13.9729C13.67 13.7508 13.6471 13.5325 13.6471 13.3181C13.6471 13.096 13.67 12.872 13.716 12.646C13.762 12.4201 13.8405 12.2133 13.9515 12.0257C14.0626 11.8381 14.2062 11.6849 14.3823 11.5662C14.5584 11.4475 14.7767 11.3881 15.0371 11.3881C15.734 11.3881 16.1361 11.7289 16.2433 12.4105Z" fill="white"/>
<path fill-rule="evenodd" clip-rule="evenodd" d="M20.4006 9.16083L22.2306 10.2349V12.383L20.4006 13.4571L18.5707 12.383V10.2349L20.4006 9.16083Z" fill="#AED2FE"/>
</svg>
