<svg width="11" height="16" viewBox="0 0 11 16" fill="none" xmlns="http://www.w3.org/2000/svg">
<g clip-path="url(#clip0)">
<path d="M3.00187 14.1976C3.00219 14.3942 3.06031 14.5867 3.16937 14.7504L3.70344 15.5532C3.79467 15.6905 3.91841 15.803 4.06366 15.8809C4.2089 15.9587 4.37114 15.9995 4.53594 15.9995H6.46438C6.62917 15.9995 6.79141 15.9587 6.93665 15.8809C7.0819 15.803 7.20564 15.6905 7.29688 15.5532L7.83094 14.7504C7.93995 14.5866 7.99822 14.3943 7.99844 14.1976L7.99969 12.9992H3.00031L3.00187 14.1976ZM0 5.49917C0 6.88573 0.514063 8.15073 1.36125 9.1173C1.8775 9.70636 2.685 10.937 2.99281 11.9751C2.99406 11.9832 2.995 11.9914 2.99625 11.9995H8.00375C8.005 11.9914 8.00594 11.9835 8.00719 11.9751C8.315 10.937 9.1225 9.70636 9.63875 9.1173C10.4859 8.15073 11 6.88573 11 5.49917C11 2.45573 8.52844 -0.0102028 5.48281 -0.000827849C2.295 0.00885965 0 2.59198 0 5.49917ZM5.5 2.99917C4.12156 2.99917 3 4.12073 3 5.49917C3 5.77542 2.77625 5.99917 2.5 5.99917C2.22375 5.99917 2 5.77542 2 5.49917C2 3.56917 3.57 1.99917 5.5 1.99917C5.77625 1.99917 6 2.22292 6 2.49917C6 2.77542 5.77625 2.99917 5.5 2.99917Z" fill="#AAB0C0"/>
</g>
<defs>
<clipPath id="clip0">
<rect width="11" height="16" fill="white"/>
</clipPath>
</defs>
</svg>
