<svg width="16" height="16" viewBox="0 0 16 16" fill="none" xmlns="http://www.w3.org/2000/svg">
<g clip-path="url(#clip0)">
<path d="M15.5594 4.44068L14.1187 5.88131C13.9719 6.02818 13.7344 6.02818 13.5875 5.88131L10.1187 2.41255C9.97187 2.26567 9.97187 2.02817 10.1187 1.8813L11.5594 0.44067C12.1437 -0.143706 13.0937 -0.143706 13.6812 0.44067L15.5594 2.3188C16.1469 2.90317 16.1469 3.85318 15.5594 4.44068ZM8.88124 3.1188L0.674992 11.3251L0.0124919 15.1219C-0.0781331 15.6344 0.368742 16.0782 0.881242 15.9907L4.67812 15.3251L12.8844 7.11881C13.0312 6.97193 13.0312 6.73443 12.8844 6.58756L9.41562 3.1188C9.26562 2.97193 9.02812 2.97193 8.88124 3.1188V3.1188ZM3.87812 10.6219C3.70624 10.4501 3.70624 10.1751 3.87812 10.0032L8.69062 5.19068C8.86249 5.0188 9.13749 5.0188 9.30937 5.19068C9.48124 5.36255 9.48124 5.63755 9.30937 5.80943L4.49687 10.6219C4.32499 10.7938 4.04999 10.7938 3.87812 10.6219V10.6219ZM2.74999 13.2501H4.24999V14.3844L2.23437 14.7376L1.26249 13.7657L1.61562 11.7501H2.74999V13.2501Z" fill="#AAB0C0"/>
</g>
<defs>
<clipPath id="clip0">
<rect width="16" height="16" fill="white"/>
</clipPath>
</defs>
</svg>
