<svg width="24" height="24" viewBox="0 0 24 24" fill="none" xmlns="http://www.w3.org/2000/svg">
<circle cx="12" cy="12" r="12" fill="#F9B234"/>
<path fill-rule="evenodd" clip-rule="evenodd" d="M19.4598 5.24379C19.5977 5.09803 19.7932 5.00845 19.9932 5.00085C20.3016 4.98567 20.6101 5.17476 20.7373 5.45716C20.8646 5.73957 20.8025 6.09641 20.5874 6.31883C19.524 7.43376 17.9936 9.08663 16.4566 10.7468C14.9009 12.4269 13.3385 14.1144 12.2467 15.2589C11.9867 15.536 11.5117 15.5754 11.2101 15.3439L7.91266 12.8174C7.58909 12.5691 7.51944 12.0483 7.76715 11.7241C8.01495 11.3999 8.5347 11.3301 8.85827 11.5784L11.592 13.6736C12.6185 12.5883 13.9475 11.1551 15.2817 9.71636C16.8193 8.05833 18.3636 6.39286 19.4598 5.24379ZM4.89392 18.2226V6.56173C4.90223 6.2337 5.22353 5.79494 5.66978 5.78431H15.3683C15.7782 5.77824 16.1555 6.15101 16.1555 6.56173C16.1555 6.97246 15.7782 7.34521 15.3683 7.33908H6.44564V17.4452H16.5321V12.7809C16.5261 12.3701 16.898 11.9921 17.3079 11.9921C17.7179 11.9921 18.0898 12.3701 18.0838 12.7809V18.2226C18.0838 18.6295 17.714 19 17.3079 19H5.66978C5.26369 19 4.89392 18.6295 4.89392 18.2226Z" fill="white"/>
</svg>
