<svg width="18" height="16" viewBox="0 0 18 16" fill="none" xmlns="http://www.w3.org/2000/svg">
<g clip-path="url(#clip0)">
<path d="M17.7481 7.62213L14.4453 2.66794C14.3083 2.46247 14.1227 2.29401 13.905 2.17749C13.6873 2.06097 13.4442 2 13.1972 2H4.80278C4.55584 2 4.31272 2.06097 4.095 2.17749C3.87728 2.294 3.6917 2.46247 3.55472 2.66794L0.251938 7.62213C0.0876588 7.86851 -3.61663e-06 8.15802 1.11909e-10 8.45416L1.1191e-10 12.5C1.1191e-10 13.3284 0.671562 14 1.5 14H16.5C17.3284 14 18 13.3284 18 12.5V8.45416C18 8.15802 17.9123 7.86851 17.7481 7.62213ZM5.07037 4H12.9297L15.5963 8H11.75L10.75 10H7.25L6.25 8H2.40369L5.07037 4Z" fill="#AAB0C0"/>
</g>
<defs>
<clipPath id="clip0">
<rect width="18" height="16" fill="white"/>
</clipPath>
</defs>
</svg>
