<svg width="24" height="24" viewBox="0 0 24 24" fill="none" xmlns="http://www.w3.org/2000/svg">
<path d="M12 24C18.6274 24 24 18.6274 24 12C24 5.37258 18.6274 0 12 0C5.37258 0 0 5.37258 0 12C0 18.6274 5.37258 24 12 24Z" fill="#98C26E"/>
<path fill-rule="evenodd" clip-rule="evenodd" d="M18.7566 8.69496H20.4032C20.5914 8.69496 20.7672 8.7856 20.8795 8.93744C20.9915 9.08904 21.0277 9.28488 20.9785 9.4672L18.7352 17.7809C18.6656 18.0386 18.4272 18.2288 18.1598 18.2288H5.59683C5.26877 18.2288 5 17.945 5 17.6187V5.61C5 5.27712 5.26314 5 5.59683 5H10.9809C11.1407 5 11.2929 5.0655 11.4044 5.18016L13.024 6.84752H18.1598C18.4935 6.84752 18.7566 7.12464 18.7566 7.45752V8.69496ZM7.40789 9.18144C7.46189 8.98152 7.63869 8.84312 7.84021 8.84312H17.7111V7.91936H12.7756C12.6567 7.91936 12.5425 7.87064 12.4585 7.78416L10.7952 6.07192H6.04549V14.2301L7.40789 9.18144ZM17.8188 17.1569L19.8128 9.76688H8.18117L6.18709 17.1569H17.8188Z" fill="white"/>
</svg>
