<svg width="14" height="16" viewBox="0 0 14 16" fill="none" xmlns="http://www.w3.org/2000/svg">
<path d="M0.5 4.125H13.5C13.7762 4.125 14 3.90116 14 3.625V2.375C14 2.09884 13.7762 1.875 13.5 1.875H0.5C0.223844 1.875 0 2.09884 0 2.375V3.625C0 3.90116 0.223844 4.125 0.5 4.125ZM0.5 9.125H13.5C13.7762 9.125 14 8.90116 14 8.625V7.375C14 7.09884 13.7762 6.875 13.5 6.875H0.5C0.223844 6.875 0 7.09884 0 7.375V8.625C0 8.90116 0.223844 9.125 0.5 9.125ZM0.5 14.125H13.5C13.7762 14.125 14 13.9012 14 13.625V12.375C14 12.0988 13.7762 11.875 13.5 11.875H0.5C0.223844 11.875 0 12.0988 0 12.375V13.625C0 13.9012 0.223844 14.125 0.5 14.125Z" fill="#AAB0C0"/>
</svg>
