<svg width="16" height="16" viewBox="0 0 16 16" fill="none" xmlns="http://www.w3.org/2000/svg">
<g clip-path="url(#clip0)">
<path d="M15.5 7H9.18437L6.46031 6.16156C6.14892 6.06564 5.88227 5.86117 5.70884 5.58533C5.5354 5.30949 5.46669 4.98057 5.51519 4.65837C5.56369 4.33616 5.72618 4.04205 5.97313 3.82948C6.22008 3.61692 6.5351 3.50001 6.86094 3.5H8.94812C9.23786 3.49979 9.52193 3.58032 9.76845 3.73256C10.015 3.8848 10.2142 4.10272 10.3438 4.36188C10.4031 4.4804 10.5071 4.57052 10.6328 4.61242C10.7586 4.65432 10.8958 4.64457 11.0144 4.58531L12.3562 3.91438C12.4748 3.8551 12.565 3.75115 12.607 3.62539C12.6489 3.49963 12.6392 3.36236 12.58 3.24375L12.5634 3.2125C12.2313 2.54767 11.7206 1.9885 11.0885 1.5977C10.4563 1.2069 9.72785 0.999932 8.98469 1H6.85969C6.32088 1.00044 5.78811 1.11353 5.29558 1.33201C4.80306 1.5505 4.36166 1.86955 3.99971 2.26869C3.63776 2.66783 3.36327 3.13824 3.19385 3.64973C3.02444 4.16121 2.96383 4.70246 3.01594 5.23875C3.07844 5.89156 3.33156 6.48344 3.69656 7H0.5C0.367392 7 0.240215 7.05268 0.146447 7.14645C0.0526784 7.24021 0 7.36739 0 7.5L0 8.5C0 8.63261 0.0526784 8.75979 0.146447 8.85355C0.240215 8.94732 0.367392 9 0.5 9H15.5C15.6326 9 15.7598 8.94732 15.8536 8.85355C15.9473 8.75979 16 8.63261 16 8.5V7.5C16 7.36739 15.9473 7.24021 15.8536 7.14645C15.7598 7.05268 15.6326 7 15.5 7ZM9.8675 10C10.0609 10.1206 10.2204 10.2885 10.331 10.4877C10.4417 10.687 10.4998 10.9111 10.5 11.1391C10.4997 11.4999 10.3562 11.8459 10.101 12.101C9.84587 12.3562 9.4999 12.4997 9.13906 12.5H7.05188C6.76214 12.5002 6.47807 12.4197 6.23155 12.2674C5.98503 12.1152 5.78582 11.8973 5.65625 11.6381C5.59692 11.5196 5.49294 11.4295 5.36719 11.3876C5.24144 11.3457 5.10419 11.3554 4.98562 11.4147L3.64375 12.0856C3.52517 12.1449 3.43498 12.2489 3.39302 12.3746C3.35106 12.5004 3.36077 12.6376 3.42 12.7563L3.43656 12.7875C3.76867 13.4523 4.27942 14.0115 4.91153 14.4023C5.54365 14.7931 6.27215 15.0001 7.01531 15H9.14031C9.67912 14.9996 10.2119 14.8865 10.7044 14.668C11.1969 14.4495 11.6383 14.1304 12.0003 13.7313C12.3622 13.3322 12.6367 12.8618 12.8061 12.3503C12.9756 11.8388 13.0362 11.2975 12.9841 10.7612C12.9564 10.5022 12.9004 10.2469 12.8172 10H9.8675Z" fill="#AAB0C0"/>
</g>
<defs>
<clipPath id="clip0">
<rect width="16" height="16" fill="white"/>
</clipPath>
</defs>
</svg>
