<svg width="24" height="24" viewBox="0 0 24 24" fill="none" xmlns="http://www.w3.org/2000/svg">
<path d="M12 24C18.6274 24 24 18.6274 24 12C24 5.37258 18.6274 0 12 0C5.37258 0 0 5.37258 0 12C0 18.6274 5.37258 24 12 24Z" fill="#80DA49"/>
<mask id="mask0" mask-type="alpha" maskUnits="userSpaceOnUse" x="5" y="4" width="16" height="16">
<path d="M20.0588 4H5V20H20.0588V4Z" fill="white"/>
<path fill-rule="evenodd" clip-rule="evenodd" d="M16.6005 5.00064C16.5225 4.96187 16.4366 4.94116 16.3489 4.94116L6.52177 4.94126L16.6005 5.00064ZM16.6005 5.00064L18.7899 5.83942L18.8008 5.84526C18.9991 5.9501 19.1176 6.16008 19.1176 6.38229V17.5279C19.1176 17.75 18.9991 17.96 18.8008 18.0649L18.7899 18.0707L16.6003 18.9094C16.5236 18.9474 16.4342 18.9688 16.3489 18.9688H6.52177C6.1902 18.9688 5.94116 18.6878 5.94116 18.366V5.54408C5.94116 5.22229 6.1902 4.94126 6.52177 4.94126L16.6005 5.00064ZM16.1808 10.6175L18.1611 9.8894V6.62822L16.2601 5.94201L6.89768 5.9421V17.968H15.973V10.9735C15.973 10.8228 16.0534 10.685 16.1808 10.6175ZM18.1611 17.2819V14.4188L16.7247 14.8589V17.722L18.1611 17.2819ZM18.1611 13.5287V10.6657L16.7247 11.1058V13.9688L18.1611 13.5287Z" fill="black"/>
</mask>
<g mask="url(#mask0)">
<path fill-rule="evenodd" clip-rule="evenodd" d="M16.6006 5.00064C16.5226 4.96187 16.4367 4.94116 16.349 4.94116L6.5219 4.94126L16.6006 5.00064ZM16.6006 5.00064L18.79 5.83942L18.801 5.84526C18.9993 5.9501 19.1178 6.16008 19.1178 6.38229V17.5279C19.1178 17.75 18.9993 17.96 18.801 18.0649L18.79 18.0707L16.6004 18.9094C16.5237 18.9474 16.4343 18.9688 16.349 18.9688H6.5219C6.19032 18.9688 5.94128 18.6878 5.94128 18.366V5.54408C5.94128 5.22229 6.19032 4.94126 6.5219 4.94126L16.6006 5.00064ZM16.1809 10.6175L18.1612 9.8894V6.62822L16.2602 5.94201L6.8978 5.9421V17.968H15.9731V10.9735C15.9731 10.8228 16.0536 10.685 16.1809 10.6175ZM18.1612 17.2819V14.4188L16.7248 14.8589V17.722L18.1612 17.2819ZM18.1612 13.5287V10.6657L16.7248 11.1058V13.9688L18.1612 13.5287Z" fill="white"/>
<path fill-rule="evenodd" clip-rule="evenodd" d="M16.6006 5.00064C16.5226 4.96187 16.4367 4.94116 16.349 4.94116L6.5219 4.94126L16.6006 5.00064ZM16.6006 5.00064L18.79 5.83942L18.801 5.84526C18.9993 5.9501 19.1178 6.16008 19.1178 6.38229V17.5279C19.1178 17.75 18.9993 17.96 18.801 18.0649L18.79 18.0707L16.6004 18.9094C16.5237 18.9474 16.4343 18.9688 16.349 18.9688H6.5219C6.19032 18.9688 5.94128 18.6878 5.94128 18.366V5.54408C5.94128 5.22229 6.19032 4.94126 6.5219 4.94126L16.6006 5.00064ZM16.1809 10.6175L18.1612 9.8894V6.62822L16.2602 5.94201L6.8978 5.9421V17.968H15.9731V10.9735C15.9731 10.8228 16.0536 10.685 16.1809 10.6175ZM18.1612 17.2819V14.4188L16.7248 14.8589V17.722L18.1612 17.2819ZM18.1612 13.5287V10.6657L16.7248 11.1058V13.9688L18.1612 13.5287Z" stroke="white" stroke-width="0.481141"/>
</g>
</svg>
