<svg width="20" height="16" viewBox="0 0 20 16" fill="none" xmlns="http://www.w3.org/2000/svg">
<path d="M4 8C4 9.10456 3.10456 10 2 10C0.895437 10 0 9.10456 0 8C0 6.89544 0.895437 6 2 6C3.10456 6 4 6.89544 4 8ZM2 12C1.44772 12 1 12.4477 1 13C1 13.5523 1.44772 14 2 14C2.55228 14 3 13.5523 3 13C3 12.4477 2.55228 12 2 12ZM2 1C0.895437 1 0 1.89544 0 3C0 4.10456 0.895437 5 2 5C3.10456 5 4 4.10456 4 3C4 1.89544 3.10456 1 2 1ZM7 7C6.44772 7 6 7.44772 6 8C6 8.55228 6.44772 9 7 9C7.55228 9 8 8.55228 8 8C8 7.44772 7.55228 7 7 7ZM7 12C6.44772 12 6 12.4477 6 13C6 13.5523 6.44772 14 7 14C7.55228 14 8 13.5523 8 13C8 12.4477 7.55228 12 7 12ZM7 1C5.89544 1 5 1.89544 5 3C5 4.10456 5.89544 5 7 5C8.10456 5 9 4.10456 9 3C9 1.89544 8.10456 1 7 1ZM14 7C13.4477 7 13 7.44772 13 8C13 8.55228 13.4477 9 14 9C14.5523 9 15 8.55228 15 8C15 7.44772 14.5523 7 14 7ZM14 12C13.4477 12 13 12.4477 13 13C13 13.5523 13.4477 14 14 14C14.5523 14 15 13.5523 15 13C15 12.4477 14.5523 12 14 12ZM14 1C12.8954 1 12 1.89544 12 3C12 4.10456 12.8954 5 14 5C15.1046 5 16 4.10456 16 3C16 1.89544 15.1046 1 14 1ZM19 7C18.4477 7 18 7.44772 18 8C18 8.55228 18.4477 9 19 9C19.5523 9 20 8.55228 20 8C20 7.44772 19.5523 7 19 7ZM19 12C18.4477 12 18 12.4477 18 13C18 13.5523 18.4477 14 19 14C19.5523 14 20 13.5523 20 13C20 12.4477 19.5523 12 19 12ZM19 2C18.4477 2 18 2.44772 18 3C18 3.55228 18.4477 4 19 4C19.5523 4 20 3.55228 20 3C20 2.44772 19.5523 2 19 2Z" fill="#AAB0C0"/>
</svg>
