<svg width="16" height="16" viewBox="0 0 16 16" fill="none" xmlns="http://www.w3.org/2000/svg">
<path d="M16 6.4V14C16 14.5304 15.7893 15.0391 15.4142 15.4142C15.0391 15.7893 14.5304 16 14 16H2C1.46957 16 0.960859 15.7893 0.585786 15.4142C0.210714 15.0391 0 14.5304 0 14V2C0 1.46957 0.210714 0.960859 0.585786 0.585786C0.960859 0.210714 1.46957 0 2 0L14 0C14.5304 0 15.0391 0.210714 15.4142 0.585786C15.7893 0.960859 16 1.46957 16 2V2.8L15.7 2.5C15.3307 2.12317 14.8275 1.90751 14.3 1.9C13.8641 1.87905 13.4361 2.02171 13.1 2.3C12.7702 2.09539 12.388 1.99115 12 2H4C3.46957 2 2.96086 2.21071 2.58579 2.58579C2.21071 2.96086 2 3.46957 2 4V12C2 12.5304 2.21071 13.0391 2.58579 13.4142C2.96086 13.7893 3.46957 14 4 14H12C12.5304 14 13.0391 13.7893 13.4142 13.4142C13.7893 13.0391 14 12.5304 14 12V8.4L16 6.4ZM15.7 3.9L15 3.2C14.8131 3.01677 14.5618 2.91414 14.3 2.91414C14.0382 2.91414 13.7869 3.01677 13.6 3.2L7.6 9.2L5.4 7C5.196 6.85349 4.95116 6.77468 4.7 6.77468C4.44884 6.77468 4.204 6.85349 4 7L3.3 7.7C3.11677 7.88693 3.01414 8.13825 3.01414 8.4C3.01414 8.66175 3.11677 8.91307 3.3 9.1L6.9 12.7C7.08693 12.8832 7.33825 12.9859 7.6 12.9859C7.86175 12.9859 8.11307 12.8832 8.3 12.7L15.7 5.3C15.8832 5.11307 15.9859 4.86175 15.9859 4.6C15.9859 4.33825 15.8832 4.08693 15.7 3.9Z" fill="#AAB0C0"/>
</svg>
