<svg width="16" height="16" viewBox="0 0 16 16" fill="none" xmlns="http://www.w3.org/2000/svg">
<g clip-path="url(#clip0)">
<path d="M15.8665 3.40939C15.7965 3.1272 15.4434 3.03157 15.2378 3.2372L12.914 5.56095L10.7928 5.20751L10.4393 3.08626L12.7631 0.762508C12.97 0.555633 12.8703 0.203132 12.5862 0.132507C11.1056 -0.234368 9.47527 0.160945 8.31808 1.31782C7.07933 2.55657 6.73839 4.3522 7.25402 5.91783L0.585581 12.5863C-0.195356 13.3672 -0.195356 14.6335 0.585581 15.4144C1.36652 16.1953 2.63277 16.1953 3.41371 15.4144L10.0765 8.75158C11.6428 9.27377 13.435 8.92908 14.6818 7.6822C15.8403 6.52376 16.235 4.89095 15.8665 3.40939ZM1.99996 14.75C1.58589 14.75 1.24996 14.4141 1.24996 14C1.24996 13.5856 1.58589 13.25 1.99996 13.25C2.41402 13.25 2.74996 13.5856 2.74996 14C2.74996 14.4141 2.41402 14.75 1.99996 14.75Z" fill="#AAB0C0"/>
</g>
<defs>
<clipPath id="clip0">
<rect width="16" height="16" fill="white"/>
</clipPath>
</defs>
</svg>
