<svg width="24" height="24" viewBox="0 0 24 24" fill="none" xmlns="http://www.w3.org/2000/svg">
<path d="M12 24C18.6274 24 24 18.6274 24 12C24 5.37258 18.6274 0 12 0C5.37258 0 0 5.37258 0 12C0 18.6274 5.37258 24 12 24Z" fill="#6DB098"/>
<path fill-rule="evenodd" clip-rule="evenodd" d="M19.542 7.673C19.8167 7.8106 20.0001 8.10651 20.0001 8.41451V15.5855C20.0001 15.8994 19.8228 16.1866 19.5418 16.327L12.3712 19.9123C12.2543 19.9709 12.1268 20 12 20C11.8733 20 11.7458 19.9709 11.6288 19.9123L4.45848 16.3271C4.17746 16.1867 4 15.8994 4 15.5855V8.41451C4 8.10713 4.18303 7.81051 4.45839 7.67291L11.6291 4.08759C11.8624 3.97086 12.1376 3.97076 12.3709 4.08755L19.542 7.673ZM12 5.33014L9.41674 6.62179L12 7.91344L14.5833 6.62179L12 5.33014ZM7.96642 10.4842L5.27734 9.13967V15.3085L7.96642 16.653V10.4842ZM8.4146 7.12286L10.9977 8.41451L8.4146 9.70616L5.8313 8.41451L8.4146 7.12286ZM11.5519 12.2769L8.86278 10.9324V17.1012L11.5519 18.4458V12.2769ZM14.5833 10.2072L12 8.91558L9.41674 10.2072L12 11.499L14.5833 10.2072ZM15.1373 17.1012V10.9324L12.4482 12.2769V18.4458L15.1373 17.1012ZM15.5855 7.12286L18.1688 8.41451L15.5855 9.70616L13.0024 8.41451L15.5855 7.12286ZM18.7228 15.3085V9.13967L16.0337 10.4842V16.653L18.7228 15.3085Z" fill="white"/>
</svg>
