<svg width="24" height="24" viewBox="0 0 24 24" fill="none" xmlns="http://www.w3.org/2000/svg">
<path d="M12 24C18.6274 24 24 18.6274 24 12C24 5.37258 18.6274 0 12 0C5.37258 0 0 5.37258 0 12C0 18.6274 5.37258 24 12 24Z" fill="#9EB0CB"/>
<path d="M16.9299 5.34698C17.1797 5.10192 17.5217 4.95001 17.8987 4.95001C18.6623 4.95001 19.2833 5.57098 19.2833 6.33459V16.0372C19.2833 16.8008 18.6623 17.4218 17.8987 17.4218C17.5217 17.4218 17.1797 17.2698 16.9297 17.0246C16.9281 17.0235 16.9239 17.0203 16.9196 17.016C15.9172 16.0136 14.126 14.7678 12.3527 14.2174L11.8588 15.2052C11.7842 15.416 11.6991 15.5346 11.5955 15.597C11.4946 15.6577 11.3863 15.6577 11.2895 15.6577H11.2832H10.0919L9.70685 17.9681C9.5894 18.6736 8.98456 19.1859 8.26916 19.1859C7.46533 19.1859 6.81156 18.5321 6.81156 17.7283V13.8935H5.99101C4.49792 13.8935 3.28333 12.6789 3.28333 11.1859C3.28333 9.69285 4.49792 8.47825 5.99101 8.47825H10.4013C10.8162 8.47825 11.3493 8.36621 11.9389 8.17525C12.5277 7.98454 13.169 7.7163 13.799 7.40683C15.0607 6.78707 16.2699 6.00545 16.9198 5.35559C16.924 5.35132 16.9283 5.34813 16.9299 5.34698ZM16.9299 5.34698C16.9299 5.34693 16.93 5.34689 16.93 5.34685L16.9303 5.3467C16.9309 5.34617 16.9312 5.34595 16.9312 5.34595C16.9312 5.34595 16.9301 5.3468 16.929 5.34784L16.9708 5.39288L16.9299 5.34698ZM8.7155 17.8027C8.67903 18.0221 8.49143 18.1809 8.26916 18.1809C8.0196 18.1809 7.8166 17.9777 7.8166 17.7283V13.8935H9.36705L8.7155 17.8027ZM15.3 7.72851C15.3275 7.71523 15.3518 7.70343 15.3726 7.69327V14.6785C15.3518 14.6684 15.3275 14.6566 15.3 14.6433C15.1964 14.5932 15.0471 14.5217 14.8636 14.4359C14.4967 14.2644 13.9934 14.0357 13.4477 13.8069C12.9021 13.5782 12.3134 13.349 11.7759 13.177C11.2403 13.0055 10.7491 12.8885 10.4013 12.8885H9.96026H8.69862V9.4832H10.4013C10.7491 9.4832 11.2403 9.36625 11.7759 9.1948C12.3134 9.02277 12.9021 8.79362 13.4477 8.56488C13.9934 8.33614 14.4967 8.10739 14.8636 7.93586C15.0471 7.85005 15.1964 7.77858 15.3 7.72851ZM17.8877 5.96882L17.9133 5.95529C18.1158 5.963 18.2784 6.13011 18.2784 6.33459V16.0372C18.2784 16.2465 18.1079 16.4168 17.8987 16.4168C17.8569 16.4168 17.8047 16.3977 17.732 16.3459C17.6598 16.2944 17.5742 16.2157 17.4659 16.1073C17.39 16.0313 17.3029 15.9404 17.2024 15.8357C17.0248 15.6507 16.8057 15.4223 16.5333 15.1553V6.90509C16.7861 6.65717 17.1284 6.42073 17.4123 6.24411C17.5572 6.15396 17.6861 6.07987 17.7787 6.02832C17.8249 6.00258 17.8621 5.9825 17.8877 5.96882ZM5.99101 12.8885C5.0522 12.8885 4.28832 12.1247 4.28832 11.1859C4.28832 10.2471 5.0522 9.4832 5.99101 9.4832H7.58974V11.1859V12.8885H5.99101ZM11.3573 13.985L10.9062 14.6527H10.2595L10.3859 13.8935H10.4013C10.4774 13.8935 10.6919 13.9119 10.9149 13.9347C11.0793 13.9515 11.2448 13.9703 11.3573 13.985Z" fill="white" stroke="white" stroke-width="0.15"/>
<path d="M5.99095 12.95C5.0182 12.95 4.22681 12.1586 4.22681 11.1858C4.22681 10.2131 5.0182 9.42172 5.99095 9.42172H7.65115V11.1858V12.95H5.99095ZM8.77608 17.8127C8.7347 18.0618 8.52136 18.2423 8.2691 18.2423C7.98561 18.2423 7.75507 18.0115 7.75507 17.7282V13.832H9.43961L8.77608 17.8127ZM10.9388 14.7141H10.1869L10.3338 13.832H10.4012C10.5613 13.832 11.2736 13.9073 11.4632 13.9379L10.9388 14.7141ZM15.4341 14.777C15.4341 14.777 11.7512 12.95 10.4012 12.95H9.9602H8.63709V9.42172H10.4012C11.7512 9.42172 15.4341 7.59457 15.4341 7.59457V14.777ZM18.3398 16.0371C18.3398 16.2804 18.1419 16.4782 17.8988 16.4782C17.6556 16.4782 17.3474 16.0371 16.4717 15.1811V6.87934C16.9906 6.36047 17.8988 5.89348 17.8988 5.89348C18.1419 5.89348 18.3398 6.09124 18.3398 6.33449V16.0371Z" fill="#9EB0CB"/>
</svg>
