<svg width="24" height="24" viewBox="0 0 24 24" fill="none" xmlns="http://www.w3.org/2000/svg">
<path d="M12 24C18.6274 24 24 18.6274 24 12C24 5.37258 18.6274 0 12 0C5.37258 0 0 5.37258 0 12C0 18.6274 5.37258 24 12 24Z" fill="#F46338"/>
<path d="M13.0496 16.0234H10.5496C10.2043 16.0234 9.92456 16.3031 9.92456 16.6483V19.1483C9.92456 19.4936 10.2043 19.7734 10.5496 19.7734H13.0496C13.3948 19.7734 13.6746 19.4936 13.6746 19.1483V16.6483C13.6746 16.3031 13.3948 16.0234 13.0496 16.0234ZM12.4246 18.5234H11.1746V17.2733H12.4246V18.5234Z" fill="white"/>
<path d="M11.9922 3.52689C10.618 3.47315 9.31977 3.97011 8.33144 4.92117C7.34372 5.87243 6.79944 7.15194 6.79944 8.52317C6.79944 8.86849 7.07925 9.1482 7.42447 9.1482H9.92449C10.2697 9.1482 10.5495 8.86849 10.5495 8.52317C10.5495 8.18018 10.6855 7.86046 10.9327 7.62249C11.1813 7.3832 11.5095 7.2599 11.8503 7.27422C12.476 7.29799 13.0248 7.84675 13.0488 8.47249C13.0658 8.92476 12.848 9.33894 12.466 9.58117C10.8747 10.59 9.92449 12.2722 9.92449 14.0813V14.1482C9.92449 14.4936 10.2042 14.7733 10.5495 14.7733H13.0495C13.3948 14.7733 13.6746 14.4936 13.6746 14.1482V14.0813C13.6746 13.564 13.9731 13.0656 14.4733 12.7485C15.9731 11.7982 16.8633 10.1052 16.7959 8.32999C16.6973 5.73521 14.587 3.62539 11.9922 3.52689ZM13.8043 11.6927C13.1125 12.131 12.644 12.791 12.4847 13.5233H11.215C11.384 12.361 12.075 11.309 13.1356 10.6369C13.8978 10.154 14.3323 9.32726 14.2981 8.42495C14.2495 7.14991 13.1727 6.07342 11.9007 6.02518C11.219 5.99522 10.563 6.24344 10.0658 6.72191C9.72603 7.04916 9.49101 7.45389 9.37746 7.89824H8.10099C8.23171 7.10989 8.61044 6.38817 9.19901 5.82144C9.94023 5.10815 10.9158 4.73795 11.9452 4.77563C13.8908 4.84936 15.4728 6.43164 15.547 8.37742C15.5971 9.70945 14.9298 10.9797 13.8043 11.6927Z" fill="white"/>
</svg>
