<svg width="16" height="16" viewBox="0 0 16 16" fill="none" xmlns="http://www.w3.org/2000/svg">
<path fill-rule="evenodd" clip-rule="evenodd" d="M0 0H4V2H2V14H4V16H0V0ZM14 2H12V0H16V16H12V14H14V2Z" fill="#AAB0C0"/>
<path fill-rule="evenodd" clip-rule="evenodd" d="M7 4V0L8 0V4H7Z" fill="#AAB0C0"/>
<path fill-rule="evenodd" clip-rule="evenodd" d="M10 4V0L11 0V4H10Z" fill="#AAB0C0"/>
<path fill-rule="evenodd" clip-rule="evenodd" d="M5 16V12H6V16H5Z" fill="#AAB0C0"/>
<path fill-rule="evenodd" clip-rule="evenodd" d="M8 16V12H9V16H8Z" fill="#AAB0C0"/>
<path fill-rule="evenodd" clip-rule="evenodd" d="M6 12V4H7L7 12H6Z" fill="#AAB0C0"/>
<path fill-rule="evenodd" clip-rule="evenodd" d="M9 12V4H10V12H9Z" fill="#AAB0C0"/>
</svg>
