<svg width="24" height="24" viewBox="0 0 24 24" fill="none" xmlns="http://www.w3.org/2000/svg">
<path fill-rule="evenodd" clip-rule="evenodd" d="M12 24C18.6274 24 24 18.6274 24 12C24 5.37258 18.6274 0 12 0C5.37258 0 0 5.37258 0 12C0 18.6274 5.37258 24 12 24ZM17.8297 16.4015C17.7984 16.4848 17.7653 16.5671 17.7304 16.6484C16.8412 18.7197 14.783 20.1704 12.386 20.1704C9.17532 20.1704 6.57256 17.5677 6.57256 14.357C6.57256 13.6401 6.57261 12.9826 6.6981 12.3036C6.74895 12.0284 6.9258 11.8229 7.15631 11.7126C7.35939 11.6154 7.60412 11.5922 7.84103 11.6603L10.7415 12.4947L11.7002 12.7705L11.81 12.8021C12.3406 12.9547 12.8944 12.6485 13.0473 12.1181L13.0634 12.0622L13.3768 10.9751L14.1075 8.44019C14.179 8.19229 14.3381 7.9931 14.5417 7.86751C14.767 7.72855 15.0466 7.67968 15.3221 7.7546C16.6437 8.11408 18.4712 8.62278 19.377 8.87554C19.7614 8.9972 19.975 9.40683 19.8547 9.79166L19.8469 9.81668L18.0436 15.6995L17.8297 16.4015ZM12.386 18.7704C14.2604 18.7704 15.8652 17.6013 16.5044 15.9479L16.7044 15.2914L16.7051 15.2892L18.3162 10.0333C17.463 9.79573 16.3133 9.47679 15.3423 9.21125L14.3926 12.5058C14.0256 13.779 12.6963 14.5139 11.423 14.1475L7.9995 13.1627C7.97406 13.5138 7.97256 13.8947 7.97256 14.357C7.97256 16.7945 9.94852 18.7704 12.386 18.7704ZM8.16274 10.542L7.16645 10.2607L7.03464 10.2235C6.50314 10.0735 6.19392 9.52094 6.34398 8.98943L7.48096 4.96238C7.63102 4.43087 8.18354 4.12165 8.71505 4.27171L12.7421 5.40869C13.2736 5.55876 13.5828 6.11128 13.4328 6.64278L13.3076 7.08594L13.0143 8.12505L12.2958 10.6698C12.2225 10.9295 12.0531 11.1361 11.8371 11.262C11.7998 11.2837 11.7612 11.3031 11.7214 11.3198C11.5197 11.4049 11.2888 11.4246 11.0617 11.3605L8.16274 10.542ZM7.79999 8.98488L8.7196 5.72773L11.9768 6.64734L11.0571 9.90449L7.79999 8.98488Z" fill="#F59726"/>
</svg>
