<svg width="16" height="16" viewBox="0 0 16 16" fill="none" xmlns="http://www.w3.org/2000/svg">
<g clip-path="url(#clip0)">
<path d="M9.50189 12.6839C9.64832 12.8303 9.64832 13.0677 9.50189 13.2142L8.10582 14.6103C6.25385 16.4622 3.24042 16.4623 1.38829 14.6103C-0.463709 12.7582 -0.463709 9.74477 1.38829 7.89277L2.78438 6.49667C2.93082 6.35023 3.16826 6.35023 3.31473 6.49667L4.55217 7.73411C4.6986 7.88055 4.6986 8.11799 4.55217 8.26445L3.15607 9.66052C2.27882 10.5378 2.27882 11.9652 3.15607 12.8425C4.03332 13.7197 5.46076 13.7198 6.33807 12.8425L7.73413 11.4464C7.88057 11.3 8.11801 11.3 8.26448 11.4464L9.50189 12.6839ZM7.73413 4.55211C7.88057 4.69854 8.11801 4.69854 8.26448 4.55211L9.66054 3.15604C10.5378 2.2787 11.9652 2.27876 12.8425 3.15604C13.7198 4.03333 13.7198 5.46073 12.8425 6.33801L11.4464 7.73408C11.3 7.88052 11.3 8.11795 11.4464 8.26442L12.6839 9.50186C12.8303 9.6483 13.0678 9.6483 13.2142 9.50186L14.6103 8.10577C16.4624 6.25373 16.4624 3.24029 14.6103 1.38826C12.7583 -0.46374 9.74485 -0.46374 7.89279 1.38826L6.49673 2.78432C6.35029 2.93076 6.35029 3.1682 6.49673 3.31467L7.73413 4.55211ZM15.0725 15.7796L15.7796 15.0725C16.0725 14.7796 16.0725 14.3047 15.7796 14.0119L1.98673 0.218917C1.69382 -0.0739896 1.21895 -0.0739896 0.926072 0.218917L0.218947 0.926042C-0.073959 1.21895 -0.073959 1.69382 0.218947 1.9867L14.0119 15.7796C14.3048 16.0725 14.7796 16.0725 15.0725 15.7796V15.7796Z" fill="#AAB0C0"/>
</g>
<defs>
<clipPath id="clip0">
<rect width="16" height="16" fill="white"/>
</clipPath>
</defs>
</svg>
