<svg width="24" height="24" viewBox="0 0 24 24" fill="none" xmlns="http://www.w3.org/2000/svg">
<path d="M12 24C18.6274 24 24 18.6274 24 12C24 5.37258 18.6274 0 12 0C5.37258 0 0 5.37258 0 12C0 18.6274 5.37258 24 12 24Z" fill="#6643C9"/>
<path d="M10.7236 20.042C14.431 20.042 17.4472 17.0259 17.4472 13.3184C17.4472 13.0451 17.2258 12.8237 16.9525 12.8237H11.2183V7.08944C11.2183 6.81625 10.9968 6.59476 10.7236 6.59476C7.01616 6.59476 4 9.61092 4 13.3184C4 17.0259 7.01616 20.042 10.7236 20.042ZM10.229 7.60525V13.3184C10.229 13.5917 10.4504 13.8131 10.7236 13.8131H16.4368C16.185 16.744 13.7187 19.0527 10.7236 19.0527C7.56183 19.0527 4.98935 16.4802 4.98935 13.3184C4.98935 10.3234 7.29793 7.857 10.229 7.60525Z" fill="white" stroke="white" stroke-width="0.2"/>
<path d="M13.2763 4C13.003 4 12.7816 4.22143 12.7816 4.49468V10.7236C12.7816 10.9968 13.003 11.2183 13.2763 11.2183H19.5053C19.7785 11.2183 19.9999 10.9968 19.9999 10.7236C19.9999 7.01616 16.9838 4 13.2763 4ZM13.771 10.229V5.01044C16.5388 5.24812 18.7518 7.46105 18.9894 10.229H13.771Z" fill="white" stroke="white" stroke-width="0.2"/>
</svg>
