<svg width="16" height="16" viewBox="0 0 16 16" fill="none" xmlns="http://www.w3.org/2000/svg">
<g clip-path="url(#clip0)">
<path d="M6.19995 0.4C6.59995 0.3 6.99995 0.3 7.49995 0.3C8.99995 0.3 10.5 0.8 11.7 1.7C11.1 1.9 10.5 2.2 9.99995 2.7C9.89995 2.7 9.79995 2.8 9.79995 2.8C9.09995 2.5 8.29995 2.2 7.39995 2.2H7.09995C6.99995 1.6 6.69995 0.9 6.19995 0.4ZM11.9 9.4C11.7 9.9 11.4 10.4 10.9 10.8C10.6 11.1 10.1 11.4 9.69995 11.6C9.89995 12.3 9.99995 13 9.79995 13.8C10.7 13.5 11.6 12.9 12.3 12.2C13.2 11.3 13.7 10.3 14.1 9.2C13.4 9.5 12.7 9.5 11.9 9.4ZM3.19995 10.1C3.19995 10 3.29995 10 3.19995 10.1C2.69995 9.1 2.39995 8 2.49995 6.9C1.79995 6.8 1.09995 6.5 0.599951 6C0.199951 8 0.699951 10.2 2.19995 11.9C2.39995 11.2 2.69995 10.6 3.19995 10.1ZM10.6 3.4C9.39995 4.6 9.39995 6.5 10.6 7.6C11.8 8.8 13.7 8.8 14.8 7.6C15.9 6.4 16 4.5 14.8 3.4C13.7 2.2 11.8 2.2 10.6 3.4ZM3.89995 10.8C2.69995 12 2.69995 13.9 3.89995 15C5.09995 16.2 6.99995 16.2 8.09995 15C9.29995 13.8 9.29995 11.9 8.09995 10.8C6.99995 9.6 5.09995 9.6 3.89995 10.8ZM1.09995 0.9C-0.100049 2.1 -0.100049 4 1.09995 5.1C2.19995 6.3 4.19995 6.3 5.29995 5.1C6.49995 3.9 6.49995 2 5.29995 0.9C4.19995 -0.3 2.19995 -0.3 1.09995 0.9Z" fill="#AAB0C0"/>
</g>
<defs>
<clipPath id="clip0">
<rect width="16" height="16" fill="white"/>
</clipPath>
</defs>
</svg>
