<svg width="24" height="24" viewBox="0 0 24 24" fill="none" xmlns="http://www.w3.org/2000/svg">
<path d="M12 24C18.6274 24 24 18.6274 24 12C24 5.37258 18.6274 0 12 0C5.37258 0 0 5.37258 0 12C0 18.6274 5.37258 24 12 24Z" fill="#DF59CA"/>
<path d="M10.6045 20.177C10.6045 20.3919 10.7339 20.5857 10.9323 20.668C10.9983 20.6952 11.0671 20.7083 11.1357 20.7083C11.2739 20.7083 11.4099 20.6544 11.5114 20.5528L14.5434 17.5207H18.5733C18.7882 17.5207 18.982 17.3914 19.0642 17.1929C19.1464 16.9944 19.101 16.766 18.949 16.614L11.5114 9.17645C11.3595 9.0245 11.1307 8.97883 10.9326 9.06127C10.7339 9.14327 10.6045 9.33713 10.6045 9.55194V20.177ZM11.667 10.8346L17.2907 16.4582H14.3233C14.1824 16.4582 14.0472 16.5142 13.9475 16.6138L11.667 18.8944V10.8346Z" fill="#FFFCF8"/>
<path d="M13.792 9.55203C13.792 9.84543 14.0298 10.0832 14.3233 10.0832H16.4483C16.7418 10.0832 16.9796 9.84543 16.9796 9.55203C16.9796 9.25855 16.7418 9.02074 16.4483 9.02074H14.3233C14.0298 9.02074 13.792 9.25855 13.792 9.55203Z" fill="#FFFCF8"/>
<path d="M5.29163 9.55203C5.29163 9.84543 5.52941 10.0832 5.82292 10.0832H7.94792C8.2414 10.0832 8.47913 9.84543 8.47913 9.55203C8.47913 9.25855 8.2414 9.02074 7.94792 9.02074H5.82292C5.52941 9.02074 5.29163 9.25855 5.29163 9.55203Z" fill="#FFFCF8"/>
<path d="M11.1357 6.89583C11.4292 6.89583 11.667 6.6581 11.667 6.36462V4.23959C11.667 3.94611 11.4292 3.70833 11.1357 3.70833C10.8423 3.70833 10.6045 3.94611 10.6045 4.23959V6.36462C10.6045 6.6581 10.8423 6.89583 11.1357 6.89583Z" fill="#FFFCF8"/>
<path d="M14.4783 5.45757L12.8846 7.05137C12.677 7.25873 12.677 7.59514 12.8846 7.8026C12.9882 7.9065 13.1243 7.95832 13.2603 7.95832C13.3962 7.95832 13.5323 7.9065 13.636 7.80277L15.2297 6.20898C15.4373 6.00161 15.4373 5.6652 15.2297 5.45783C15.0223 5.2502 14.6858 5.2502 14.4783 5.45757Z" fill="#FFFCF8"/>
<path d="M8.63444 11.3014L7.04073 12.8951C6.8331 13.1026 6.8331 13.439 7.04073 13.6463C7.14437 13.7502 7.28042 13.8021 7.41639 13.8021C7.55244 13.8021 7.68841 13.7502 7.79213 13.6466L9.38584 12.0528C9.59347 11.8453 9.59347 11.509 9.38584 11.3016C9.17847 11.0939 8.84189 11.0939 8.63444 11.3014Z" fill="#FFFCF8"/>
<path d="M9.38567 7.05136L7.79188 5.45757C7.58451 5.24994 7.24793 5.24994 7.04073 5.45757C6.8331 5.66502 6.8331 6.00135 7.04073 6.2088L8.63444 7.80251C8.73799 7.90649 8.87396 7.95831 9.00993 7.95831C9.14598 7.95831 9.28194 7.90649 9.38567 7.80277C9.59304 7.59531 9.59304 7.25873 9.38567 7.05136Z" fill="#FFFCF8"/>
</svg>
