<svg width="14" height="16" viewBox="0 0 14 16" fill="none" xmlns="http://www.w3.org/2000/svg">
<g clip-path="url(#clip0)">
<path d="M13.5 0.999831H9.75L9.45625 0.415455C9.39402 0.290522 9.29817 0.185431 9.17947 0.112005C9.06078 0.0385782 8.92395 -0.0002701 8.78438 -0.000169997H5.2125C5.07324 -0.000705327 4.93665 0.0379982 4.81838 0.111506C4.7001 0.185014 4.60492 0.290354 4.54375 0.415455L4.25 0.999831H0.5C0.367392 0.999831 0.240215 1.05251 0.146447 1.14628C0.0526784 1.24005 0 1.36722 0 1.49983L0 2.49983C0 2.63244 0.0526784 2.75962 0.146447 2.85339C0.240215 2.94715 0.367392 2.99983 0.5 2.99983H13.5C13.6326 2.99983 13.7598 2.94715 13.8536 2.85339C13.9473 2.75962 14 2.63244 14 2.49983V1.49983C14 1.36722 13.9473 1.24005 13.8536 1.14628C13.7598 1.05251 13.6326 0.999831 13.5 0.999831ZM1.6625 14.5936C1.68635 14.9744 1.85443 15.3318 2.13252 15.5931C2.41061 15.8543 2.77781 15.9998 3.15937 15.9998H10.8406C11.2222 15.9998 11.5894 15.8543 11.8675 15.5931C12.1456 15.3318 12.3137 14.9744 12.3375 14.5936L13 3.99983H1L1.6625 14.5936Z" fill="#AAB0C0"/>
</g>
<defs>
<clipPath id="clip0">
<rect width="14" height="16" fill="white"/>
</clipPath>
</defs>
</svg>
