<svg width="14" height="16" viewBox="0 0 14 16" fill="none" xmlns="http://www.w3.org/2000/svg">
<g clip-path="url(#clip0)">
<path d="M6.99929 16C8.10304 16 8.99835 15.1047 8.99835 14H5.00023C5.00023 15.1047 5.89554 16 6.99929 16ZM13.7302 11.3216C13.1265 10.6728 11.9968 9.69687 11.9968 6.5C11.9968 4.07188 10.2943 2.12812 7.99866 1.65125V1C7.99866 0.447812 7.55117 0 6.99929 0C6.44741 0 5.99992 0.447812 5.99992 1V1.65125C3.70429 2.12812 2.00179 4.07188 2.00179 6.5C2.00179 9.69687 0.872102 10.6728 0.268352 11.3216C0.0808517 11.5231 -0.00227332 11.7641 -0.000710816 12C0.00272668 12.5125 0.404914 13 1.00241 13H12.9962C13.5937 13 13.9962 12.5125 13.9993 12C14.0009 11.7641 13.9177 11.5228 13.7302 11.3216Z" fill="#AAB0C0"/>
</g>
<defs>
<clipPath id="clip0">
<rect width="14" height="16" fill="white"/>
</clipPath>
</defs>
</svg>
