<svg width="20" height="16" viewBox="0 0 20 16" fill="none" xmlns="http://www.w3.org/2000/svg">
<g clip-path="url(#clip0)">
<path d="M8.71543 15.9844L6.80918 15.4313C6.60918 15.375 6.49668 15.1656 6.55293 14.9656L10.8186 0.271873C10.8748 0.071873 11.0842 -0.040627 11.2842 0.015623L13.1904 0.568748C13.3904 0.624998 13.5029 0.834373 13.4467 1.03437L9.18105 15.7281C9.12168 15.9281 8.91543 16.0438 8.71543 15.9844V15.9844ZM5.15293 12.4781L6.5123 11.0281C6.65605 10.875 6.64668 10.6313 6.4873 10.4906L3.65605 8L6.4873 5.50937C6.64668 5.36875 6.65918 5.125 6.5123 4.97187L5.15293 3.52187C5.0123 3.37187 4.7748 3.3625 4.62168 3.50625L0.118555 7.725C-0.0408203 7.87187 -0.0408203 8.125 0.118555 8.27188L4.62168 12.4938C4.7748 12.6375 5.0123 12.6313 5.15293 12.4781V12.4781ZM15.3779 12.4969L19.8811 8.275C20.0404 8.12812 20.0404 7.875 19.8811 7.72813L15.3779 3.50312C15.2279 3.3625 14.9904 3.36875 14.8467 3.51875L13.4873 4.96875C13.3436 5.12187 13.3529 5.36562 13.5123 5.50625L16.3436 8L13.5123 10.4906C13.3529 10.6313 13.3404 10.875 13.4873 11.0281L14.8467 12.4781C14.9873 12.6313 15.2248 12.6375 15.3779 12.4969V12.4969Z" fill="#AAB0C0"/>
</g>
<defs>
<clipPath id="clip0">
<rect width="20" height="16" fill="white"/>
</clipPath>
</defs>
</svg>
