<svg width="12" height="16" viewBox="0 0 12 16" fill="none" xmlns="http://www.w3.org/2000/svg">
<path d="M12 3.81066V4H8V0H8.18934C8.38825 0 8.57903 0.0790312 8.71969 0.219656L11.7803 3.28031C11.921 3.42098 12 3.61174 12 3.81066ZM7 4.25V0H0.75C0.335781 0 0 0.335781 0 0.75V15.25C0 15.6642 0.335781 16 0.75 16H11.25C11.6642 16 12 15.6642 12 15.25V5H7.75C7.3375 5 7 4.6625 7 4.25ZM10 8.7505V12.2493C10 12.9195 9.18928 13.2493 8.71966 12.7797L7 11.0607V12.25C7 12.6642 6.66422 13 6.25 13H2.75C2.33578 13 2 12.6642 2 12.25V8.75C2 8.33578 2.33578 8 2.75 8H6.25C6.66422 8 7 8.33578 7 8.75V9.93934L8.71966 8.22019C9.18875 7.75112 10 8.07984 10 8.7505Z" fill="#AAB0C0"/>
</svg>
