<svg width="10" height="16" viewBox="0 0 10 16" fill="none" xmlns="http://www.w3.org/2000/svg">
<g clip-path="url(#clip0)">
<path d="M9.79853 12.2603L6.5496 15.7604C6.25319 16.0796 5.74722 16.0801 5.45041 15.7604L2.20119 12.2603C1.75725 11.7822 2.09569 11 2.75078 11H4.75V2.5H2.12575C2.07651 2.5 2.02774 2.49031 1.98225 2.47146C1.93675 2.45261 1.89541 2.42498 1.8606 2.39016L0.110596 0.640156C-0.125654 0.403938 0.0416582 0 0.375752 0H6.5C6.91422 0 7.25 0.335781 7.25 0.75V11H9.24894C9.90138 11 10.2443 11.7803 9.79853 12.2603Z" fill="#AAB0C0"/>
</g>
<defs>
<clipPath id="clip0">
<rect width="10" height="16" fill="white"/>
</clipPath>
</defs>
</svg>
