<svg width="11" height="16" viewBox="0 0 11 16" fill="none" xmlns="http://www.w3.org/2000/svg">
<path fill-rule="evenodd" clip-rule="evenodd" d="M1.12565 8.43884C1.04539 8.29468 0.964959 8.1658 0.882296 8.03341L0.880116 8.02992C0.862044 7.99921 0.84422 7.9689 0.82656 7.93897C0.523843 7.42597 0.283036 7.01788 0.152217 6.38359C0.0510731 5.97665 0 5.5683 0 5.1601C0 2.31616 2.31617 0 5.16011 0C8.00439 0 10.3191 2.31611 10.3523 5.15761L10.3523 5.15944C10.3523 5.5677 10.302 5.99229 10.2 6.40021C10.0694 7.01785 9.82929 7.42466 9.52768 7.93574C9.5094 7.96672 9.49089 7.99808 9.47217 8.02989L9.46863 8.0359L9.46457 8.04158C9.38879 8.14755 9.3114 8.28661 9.22802 8.43644L9.22196 8.44733C9.11775 8.61151 9.02715 8.7617 8.93645 8.91256C8.92773 8.92707 8.919 8.94158 8.91026 8.95612L8.90954 8.95731C8.46498 9.68168 8.22256 10.0785 8.22256 10.8895V12.9535C8.22256 13.5183 7.84234 14.0038 7.32356 14.1416C7.20532 14.6803 6.98117 15.135 6.63798 15.4614C6.27085 15.8105 5.7806 16 5.17617 16C4.57174 16 4.08149 15.8104 3.71435 15.4613C3.37055 15.1344 3.14621 14.6787 3.02815 14.1387C2.51409 13.9902 2.12977 13.5229 2.12977 12.9535V10.8895C2.12977 10.0785 1.88735 9.68171 1.44279 8.9573L1.44183 8.95573C1.40876 8.9004 1.3704 8.84002 1.33013 8.77666C1.2619 8.6693 1.18822 8.55337 1.12565 8.43884ZM7.15769 10.8896C7.15769 10.8462 7.16094 10.8059 7.16457 10.7659C7.16506 10.7605 7.16556 10.7552 7.16605 10.7498C7.17025 10.7043 7.17446 10.6588 7.17446 10.609H3.12906C3.13879 10.6569 3.14287 10.7102 3.14459 10.7659C3.14583 10.8062 3.14583 10.8479 3.14583 10.8896V11.4017H7.15833L7.15769 10.8896ZM9.0031 6.13062C9.08388 5.79174 9.13101 5.47443 9.13039 5.17661C9.1304 2.98445 7.35147 1.2052 5.1593 1.2052C2.96714 1.2052 1.18821 2.98412 1.18821 5.17628C1.18821 5.49085 1.23553 5.80805 1.31575 6.12895L1.31636 6.13138C1.42582 6.60104 1.59642 6.91349 1.90817 7.42282L1.91176 7.42869L1.91482 7.43484C1.94275 7.49098 1.97805 7.54812 2.0205 7.61682L2.02538 7.62473C2.06827 7.69417 2.11663 7.77303 2.16105 7.86152C2.25818 8.03924 2.354 8.19937 2.44974 8.34236L2.4522 8.34604C2.71212 8.75891 2.93751 9.14058 3.09243 9.57694H7.24326C7.38609 9.18035 7.59664 8.82704 7.81482 8.46092C7.83685 8.42396 7.85895 8.38687 7.88107 8.34959L7.88544 8.34223C7.98118 8.19925 8.0772 8.03925 8.17431 7.86155C8.25949 7.69154 8.34461 7.55509 8.42603 7.4247C8.45532 7.37261 8.48349 7.32285 8.51055 7.27503C8.76128 6.83208 8.91778 6.55559 9.00189 6.13615L9.0031 6.13062ZM4.67658 1.99972C4.99541 1.95655 5.32221 2.16684 5.34978 2.50153C5.39147 2.81533 5.16836 3.12471 4.83467 3.16912C4.04772 3.27562 3.423 3.91252 3.30086 4.70555C3.25626 4.99102 3.01393 5.21844 2.71625 5.21844H2.64009L2.62981 5.21707C2.29661 5.17282 2.07071 4.87949 2.11506 4.54557L2.11533 4.54352C2.30669 3.23519 3.36921 2.19174 4.67484 1.99997L4.67658 1.99972ZM4.09974 14.1837C4.08307 14.1346 4.0677 14.0824 4.05383 14.0268H6.28293C6.26805 14.0824 6.25174 14.1346 6.23418 14.1837C5.95933 14.9518 5.37704 14.9518 5.15999 14.9518C4.94296 14.9518 4.36065 14.9518 4.09974 14.1837ZM3.32768 13.1516H6.99313C7.09183 13.1516 7.17434 13.0691 7.17434 12.9698V12.2925H3.14578V12.9698C3.14578 13.0691 3.22835 13.1516 3.32768 13.1516Z" fill="#1679F9"/>
</svg>
