<svg width="24" height="24" viewBox="0 0 24 24" fill="none" xmlns="http://www.w3.org/2000/svg">
<path fill-rule="evenodd" clip-rule="evenodd" d="M24 12C24 18.6274 18.6274 24 12 24C5.37258 24 0 18.6274 0 12C0 5.37258 5.37258 0 12 0C18.6274 0 24 5.37258 24 12ZM13.7781 4.77778C13.7781 3.79751 12.9806 3 12.0003 3C11.0201 3 10.2226 3.79751 10.2226 4.77778C10.2226 5.75804 11.0201 6.55556 12.0003 6.55556C12.9806 6.55556 13.7781 5.75804 13.7781 4.77778ZM11.1115 4.77778C11.1115 4.28764 11.5102 3.88889 12.0003 3.88889C12.4905 3.88889 12.8892 4.28764 12.8892 4.77778C12.8892 5.26791 12.4905 5.66667 12.0003 5.66667C11.5102 5.66667 11.1115 5.26791 11.1115 4.77778ZM19.1109 6.55529C19.1109 7.53556 18.3134 8.33307 17.3331 8.33307C16.3528 8.33307 15.5553 7.53556 15.5553 6.55529C15.5553 5.57503 16.3528 4.77751 17.3331 4.77751C18.3134 4.77751 19.1109 5.57503 19.1109 6.55529ZM18.222 6.55529C18.222 6.06516 17.8232 5.6664 17.3331 5.6664C16.843 5.6664 16.4442 6.06516 16.4442 6.55529C16.4442 7.04542 16.843 7.44418 17.3331 7.44418C17.8232 7.44418 18.222 7.04542 18.222 6.55529ZM6.66605 8.33307C7.64631 8.33307 8.44382 7.53556 8.44382 6.55529C8.44382 5.57503 7.64631 4.77751 6.66605 4.77751C5.68578 4.77751 4.88827 5.57503 4.88827 6.55529C4.88827 7.53556 5.68578 8.33307 6.66605 8.33307ZM6.66605 5.6664C7.15618 5.6664 7.55494 6.06516 7.55494 6.55529C7.55494 7.04542 7.15618 7.44418 6.66605 7.44418C6.17591 7.44418 5.77716 7.04542 5.77716 6.55529C5.77716 6.06516 6.17591 5.6664 6.66605 5.6664ZM16 9.22186H18.6667C19.402 9.22186 20 9.8199 20 10.5552V13.6663C20 13.9118 19.8011 14.1107 19.5556 14.1107H19.1111V18.5552C19.1111 18.8007 18.9122 18.9996 18.6667 18.9996H16C15.7545 18.9996 15.5556 18.8007 15.5556 18.5552V14.1107H14.6667V18.5552C14.6667 18.8007 14.4677 18.9996 14.2222 18.9996H9.77778C9.53227 18.9996 9.33333 18.8007 9.33333 18.5552V14.1107H8.44444V18.5552C8.44444 18.8007 8.24551 18.9996 8 18.9996H5.33333C5.08782 18.9996 4.88889 18.8007 4.88889 18.5552V14.1107H4.44444C4.19893 14.1107 4 13.9118 4 13.6663V10.5552C4 9.8199 4.59804 9.22186 5.33333 9.22186H8C8.15609 9.22186 8.30524 9.25012 8.44444 9.29972V8.77741C8.44444 8.04212 9.04249 7.44408 9.77778 7.44408H14.2222C14.9575 7.44408 15.5556 8.04212 15.5556 8.77741V9.29972C15.6948 9.25012 15.8439 9.22186 16 9.22186ZM8 13.2219H8.44444V10.5552C8.44444 10.3102 8.24498 10.1107 8 10.1107H5.33333C5.08836 10.1107 4.88889 10.3102 4.88889 10.5552V13.2219H5.33333C5.57884 13.2219 5.77778 13.4208 5.77778 13.6663V18.1107H7.55556V13.6663C7.55556 13.4208 7.75449 13.2219 8 13.2219ZM14.6667 13.2219V10.5552V8.77741C14.6667 8.53243 14.4672 8.33297 14.2222 8.33297H9.77778C9.5328 8.33297 9.33333 8.53243 9.33333 8.77741V10.5552V13.2219H9.77778C10.0233 13.2219 10.2222 13.4208 10.2222 13.6663V18.1107H11.5556V14.9996C11.5556 14.7541 11.7545 14.5552 12 14.5552C12.2455 14.5552 12.4444 14.7541 12.4444 14.9996V18.1107H13.7778V13.6663C13.7778 13.4208 13.9767 13.2219 14.2222 13.2219H14.6667ZM18.6667 13.2219H19.1111V10.5552C19.1111 10.3102 18.9116 10.1107 18.6667 10.1107H16C15.755 10.1107 15.5556 10.3102 15.5556 10.5552V13.2219H16C16.2455 13.2219 16.4444 13.4208 16.4444 13.6663V18.1107H18.2222V13.6663C18.2222 13.4208 18.4212 13.2219 18.6667 13.2219Z" fill="#0939E3"/>
</svg>
