<svg width="24" height="24" viewBox="0 0 24 24" fill="none" xmlns="http://www.w3.org/2000/svg">
<path fill-rule="evenodd" clip-rule="evenodd" d="M12 24C18.6274 24 24 18.6274 24 12C24 5.37258 18.6274 0 12 0C5.37258 0 0 5.37258 0 12C0 18.6274 5.37258 24 12 24ZM6.70392 5C6.31515 5 6 5.31515 6 5.70392V18.4767C6 18.8655 6.31515 19.1806 6.70392 19.1806H17.7961C18.1848 19.1806 18.5 18.8655 18.5 18.4767V8.39293C18.5 8.20624 18.4258 8.02719 18.2938 7.89518L15.6048 5.20617C15.4728 5.07416 15.2938 5 15.1071 5H6.70392ZM7.40783 17.7728V6.40783H13.7309V9.06518C13.7309 9.45394 14.0461 9.76909 14.4348 9.76909H17.0922V17.7728H7.40783ZM15.027 6.4614L17.0386 8.47296H15.027V6.4614ZM14.7863 12.4848C15.0307 12.2479 15.0369 11.8578 14.8 11.6134C14.5632 11.369 14.1731 11.3629 13.9287 11.5997L11.6902 13.769L11.0737 13.1688C10.8299 12.9314 10.4398 12.9366 10.2023 13.1804C9.96493 13.4242 9.97013 13.8143 10.214 14.0517L11.2593 15.0696C11.4981 15.3021 11.8786 15.3026 12.118 15.0706L14.7863 12.4848Z" fill="#1BA8D5"/>
</svg>
