<svg width="24" height="24" viewBox="0 0 24 24" fill="none" xmlns="http://www.w3.org/2000/svg">
<path fill-rule="evenodd" clip-rule="evenodd" d="M22.0977 18.4863C23.3015 16.616 24 14.3896 24 12C24 5.37258 18.6274 0 12 0C5.37258 0 0 5.37258 0 12C0 18.6274 5.37258 24 12 24C12.6837 24 13.3541 23.9428 14.0065 23.833C13.3097 23.1328 12.4465 22.2813 11.6418 21.5192C11.1091 21.0148 10.6074 20.5545 10.1988 20.2045C9.99409 20.0291 9.81861 19.8865 9.67787 19.7814C9.60758 19.729 9.55042 19.6892 9.50588 19.6609C9.46734 19.6363 9.44772 19.6264 9.44374 19.6243C9.44326 19.6241 9.44301 19.624 9.44297 19.6239C9.44294 19.6239 9.44313 19.624 9.44355 19.6242C9.00706 19.4404 8.55918 19.2472 8.18828 19.0556C8.00242 18.9596 7.82306 18.8574 7.66771 18.7499C7.52042 18.648 7.35403 18.514 7.23223 18.3435C7.20029 18.2987 7.12817 18.1998 7.02596 18.0597C6.95057 17.9563 6.8588 17.8304 6.7547 17.6873C6.51233 17.354 6.20863 16.9346 5.90744 16.5118C5.60687 16.0898 5.30605 15.6606 5.07047 15.3087C4.95301 15.1333 4.84837 14.972 4.76701 14.8379C4.69913 14.726 4.60916 14.5726 4.56501 14.4401C4.49548 14.2315 4.47975 13.947 4.4736 13.7235C4.4666 13.4693 4.47137 13.1738 4.48013 12.8848C4.48851 12.6084 4.4999 12.3467 4.50983 12.1183L4.50984 12.1182C4.52179 11.8435 4.53165 11.617 4.53165 11.4708C4.53165 11.4079 4.51462 11.2915 4.4735 11.0895C4.46526 11.049 4.45607 11.0052 4.44638 10.9589L4.44636 10.9589C4.41409 10.8049 4.37627 10.6245 4.34961 10.4547C4.31543 10.2371 4.28636 9.96453 4.32505 9.70409C4.36512 9.43438 4.49669 9.07738 4.87028 8.87351C5.09646 8.75008 5.33449 8.73551 5.541 8.7628C5.59324 8.57863 5.68072 8.42058 5.75071 8.30773C5.89358 8.07736 6.08575 7.84756 6.27702 7.64223C6.52611 7.37483 6.80411 7.1168 7.04062 6.90962C6.996 6.71727 6.95644 6.48921 6.9301 6.25533C6.90376 6.02146 6.88898 5.76714 6.89969 5.52756C6.90964 5.30482 6.94379 5.02363 7.0624 4.78173C7.10138 4.70224 7.12142 4.65955 7.14127 4.61723L7.14131 4.61716C7.1574 4.58285 7.1734 4.54877 7.19929 4.49551C7.2395 4.41277 7.28952 4.31481 7.35818 4.21791C7.50456 4.01131 7.68619 3.88046 7.8904 3.7492C8.00847 3.66008 8.53304 3.27264 9.17365 3.22662C9.54532 3.19991 9.86688 3.33623 10.1002 3.48664C10.2502 3.58329 10.3835 3.6981 10.4971 3.81609C10.7007 3.49317 11.0083 3.22728 11.4136 3.0706C11.73 2.94829 12.0825 2.87998 12.4524 2.92321C12.8332 2.96772 13.1476 3.12078 13.3891 3.31283C13.7849 3.62749 14.0246 4.13183 13.9874 4.06805C14.0287 4.1389 14.0704 4.22634 14.1091 4.31497C14.435 4.02148 14.8676 3.93448 15.2075 3.93726C15.6887 3.94119 16.2094 4.11073 16.5419 4.37501C16.7543 4.54379 16.8869 4.76525 16.9711 4.94827C17.0581 5.13732 17.1152 5.33339 17.1533 5.4992C17.1921 5.66738 17.2151 5.82087 17.2285 5.93156C17.2352 5.98744 17.2397 6.03378 17.2426 6.06727C17.244 6.08405 17.2451 6.0977 17.2458 6.10781L17.2461 6.11292L17.2467 6.1195L17.2508 6.16365L17.2655 6.32734C17.2707 6.38576 17.2767 6.45407 17.2832 6.53031C17.67 6.28671 18.0839 6.25567 18.3551 6.25567C19.6431 6.25567 20.3952 7.48776 20.3952 8.70746C20.3952 9.1084 20.31 9.61335 20.2077 10.0284C20.1539 10.2465 20.0869 10.4749 20.0072 10.6856C19.999 10.7071 19.9902 10.7301 19.9805 10.7543C20.0483 10.8784 20.1152 11.0091 20.1809 11.1436C20.1876 11.1569 20.1942 11.1705 20.2007 11.1843C20.4556 11.7112 20.7107 12.3335 20.9431 12.9437C21.069 13.274 21.1408 13.7517 21.1889 14.2216C21.2392 14.7122 21.27 15.2692 21.2904 15.7987C21.3108 16.3296 21.321 16.842 21.3289 17.2432L21.3291 17.2517L21.3291 17.2523C21.333 17.4502 21.3363 17.6184 21.34 17.7503C21.3416 17.8072 21.3432 17.8554 21.3449 17.8949L21.3593 17.9107C21.4274 17.984 21.5345 18.0784 21.6737 18.1858C21.8077 18.2892 21.9556 18.3926 22.0977 18.4863ZM21.3353 19.5406C21.1838 19.4394 21.0266 19.3285 20.8794 19.2149C20.7142 19.0874 20.5443 18.9434 20.407 18.7956C20.3382 18.7216 20.2662 18.6345 20.2059 18.5372C20.1493 18.4457 20.0777 18.3049 20.0582 18.1295C20.0434 17.9963 20.0373 17.6871 20.0305 17.3392L20.0305 17.339L20.0291 17.2688C20.0212 16.8668 20.0112 16.3658 19.9914 15.8487C19.9847 15.6766 19.977 15.5036 19.968 15.3329C19.9461 15.3643 19.9244 15.3937 19.9037 15.421C19.7493 15.6248 19.5504 15.8332 19.338 16.03C18.9133 16.4234 18.3795 16.8213 17.8976 17.1003C17.3017 17.4453 16.4834 17.4708 15.8138 17.435C15.3748 17.4116 14.9276 17.3556 14.5354 17.2992C14.5689 17.4256 14.6018 17.5673 14.6336 17.7272C14.7037 18.0793 14.475 18.4215 14.1229 18.4915C13.7709 18.5616 13.4287 18.3329 13.3586 17.9808C13.2614 17.492 13.1639 17.2638 13.103 17.1417C13.0863 17.1083 13.0702 17.0785 13.0524 17.0463L13.0445 17.0321L13.0255 16.9976C12.5622 16.8436 12.0523 16.6234 11.5959 16.415C11.2232 16.2448 10.8589 16.0692 10.5462 15.9183L10.5264 15.9087C10.2168 15.7592 9.96989 15.64 9.80322 15.5671C9.41881 15.3989 8.86192 15.0023 8.3452 14.5837C8.10098 14.3859 7.85029 14.1705 7.61169 13.9514C7.57264 14.0195 7.5146 14.1101 7.43718 14.1875C7.18334 14.4413 6.77178 14.4413 6.51794 14.1875C6.27611 13.9457 6.26467 13.5607 6.48361 13.3053L6.48743 13.2986C6.50179 13.2729 6.52356 13.2289 6.54881 13.1661C6.5991 13.0411 6.65525 12.8614 6.69413 12.6399C6.74658 12.341 6.76611 11.9747 6.70366 11.5699C6.637 11.1379 6.28507 10.6445 5.85973 10.315C5.7733 10.248 5.6922 10.1946 5.61987 10.1537C5.62362 10.1842 5.62825 10.2172 5.63386 10.253C5.65492 10.387 5.68291 10.5207 5.71355 10.6671C5.72454 10.7196 5.73588 10.7738 5.74736 10.8301C5.78538 11.0168 5.83165 11.2574 5.83165 11.4708C5.83165 11.6354 5.81965 11.9172 5.80641 12.2282L5.80641 12.2282L5.80641 12.2283C5.7967 12.4562 5.78634 12.6997 5.77953 12.9242C5.77102 13.2053 5.76715 13.4712 5.77311 13.6877C5.77882 13.8954 5.79304 13.996 5.79716 14.0221C5.79818 14.0239 5.79962 14.0265 5.80155 14.0301C5.81143 14.0484 5.83416 14.0906 5.87842 14.1635C5.94533 14.2738 6.0379 14.417 6.15075 14.5855C6.37579 14.9217 6.66803 15.3389 6.96627 15.7576C7.2639 16.1754 7.56477 16.5909 7.80606 16.9226C7.9037 17.0569 7.99254 17.1787 8.06751 17.2816C8.1756 17.4298 8.25486 17.5385 8.29008 17.5879C8.28861 17.5858 8.28862 17.5858 8.29065 17.5878C8.29772 17.595 8.32935 17.6269 8.40736 17.6809C8.49959 17.7447 8.62539 17.8182 8.78501 17.9006C9.10504 18.066 9.50932 18.2413 9.94802 18.426C10.1148 18.4963 10.2959 18.6205 10.4555 18.7396C10.6288 18.869 10.8287 19.0323 11.0445 19.2172C11.477 19.5877 11.9966 20.0648 12.5357 20.5753C13.5872 21.5711 14.7327 22.713 15.4902 23.4846C17.8164 22.7785 19.8436 21.3851 21.3353 19.5406ZM9.16348 13.5735C8.75465 13.2424 8.34171 12.8703 8.01975 12.5361C8.05471 12.1878 8.05367 11.7944 7.98846 11.3717C7.86896 10.5972 7.37177 9.91362 6.85808 9.45561C6.83526 9.31781 6.81627 9.19472 6.80129 9.09261C6.80981 9.07321 6.82595 9.04054 6.8555 8.99289C6.93464 8.86528 7.06286 8.70586 7.22825 8.52832C7.55004 8.18288 7.94492 7.84023 8.18977 7.6392C8.19621 7.63573 8.20687 7.63016 8.22282 7.62239C8.25663 7.60591 8.29013 7.59063 8.33406 7.57059L8.33415 7.57055C8.36509 7.55644 8.4012 7.53996 8.44623 7.51905C8.58446 7.45487 8.75594 7.37161 8.95498 7.2571C9.07216 7.28959 9.21443 7.31521 9.3737 7.31193C9.70015 7.3052 10.069 7.18942 10.5587 6.98045C10.6172 6.95546 10.6737 6.9214 10.7226 6.88779L11.1128 8.08825L11.1136 8.09078L11.1223 8.11721C11.129 8.13714 11.1377 8.16194 11.1483 8.19064C11.1694 8.24727 11.1997 8.32308 11.2401 8.40913C11.3119 8.56199 11.454 8.83125 11.6945 9.07296C12.1909 9.57202 13.0207 9.86052 13.8307 9.53086C13.9743 9.47242 14.1073 9.40133 14.2288 9.31911C14.2391 9.39403 14.2503 9.4698 14.2625 9.54653C14.4057 10.4433 15.2352 10.7623 15.855 10.7621C15.9695 10.7621 16.1019 10.7591 16.2432 10.7359C16.2667 10.8924 16.314 11.0817 16.4129 11.2765C16.586 11.6172 16.8321 11.8593 17.067 12.0183C17.2466 12.1398 17.5798 12.3207 17.9911 12.3207C18.4454 12.3207 18.8039 12.1379 19.0479 11.9599C19.0632 11.9487 19.0784 11.9373 19.0934 11.9257C19.102 11.9537 19.1107 11.9837 19.1193 12.0153C19.1533 12.1399 19.1777 12.2571 19.1888 12.32L19.1928 12.3429L19.1984 12.3655C19.2797 12.6904 19.2532 13.0641 19.1788 13.4574C19.1456 13.633 19.1059 13.7981 19.0668 13.961L19.0668 13.9611L19.0544 14.0126C19.0184 14.1629 18.9756 14.3418 18.9561 14.5007L18.9554 14.5022C18.948 14.5164 18.9253 14.5598 18.8676 14.6359C18.7745 14.7588 18.6337 14.9103 18.4545 15.0763C18.0961 15.4083 17.6396 15.7475 17.2463 15.9752C17.0117 16.111 16.5434 16.1722 15.8832 16.1369C15.336 16.1076 14.7719 16.0214 14.2932 15.9483L14.2931 15.9483C14.2245 15.9378 14.1576 15.9275 14.0928 15.9178C14.0379 15.9095 13.9843 15.9016 13.9328 15.8943C13.5581 15.8407 12.8839 15.5741 12.136 15.2325C11.7775 15.0688 11.4249 14.8989 11.1114 14.7475L11.0711 14.7281L11.0711 14.7281C10.7796 14.5873 10.5139 14.459 10.3243 14.3761C10.1161 14.285 9.67829 13.9906 9.16348 13.5735ZM9.26613 5.9903C9.25334 5.98534 9.23779 5.97929 9.21873 5.97195C9.20026 5.95585 9.17983 5.93781 9.15869 5.91875C9.12071 5.88449 9.08384 5.84999 9.05341 5.81951C9.02989 5.79595 9.01792 5.78243 9.01404 5.77805C9.01309 5.77697 9.01262 5.77645 9.0126 5.77647L9.01371 5.77802C8.93686 5.67408 8.82013 5.45395 8.70778 5.2169C8.65841 5.11271 8.6151 5.01655 8.58318 4.94415C8.58739 4.8936 8.59363 4.86172 8.59823 4.84367C8.60907 4.83538 8.62578 4.82264 8.65063 4.8041L8.65542 4.80053C8.69685 4.76956 8.78312 4.70509 8.9009 4.64301C9.02864 4.57569 9.15689 4.53117 9.26682 4.52327C9.26654 4.52329 9.26656 4.5233 9.26687 4.52331C9.27047 4.52349 9.31255 4.52559 9.3959 4.57931C9.48345 4.63575 9.5729 4.72225 9.64226 4.81254C9.69418 4.88013 9.73927 4.93813 9.77903 4.98927C9.89948 5.14418 9.971 5.23617 10.0352 5.34132C10.0828 5.41942 10.127 5.50739 10.1731 5.64058C10.1651 5.64967 10.1565 5.65921 10.1472 5.66915C10.1029 5.7166 10.0559 5.75992 10.0186 5.7909L10.0018 5.8045C9.56821 5.98651 9.40495 6.01101 9.34692 6.0122C9.34 6.01235 9.33607 6.01281 9.33216 6.01269C9.32297 6.0124 9.31389 6.00887 9.26613 5.9903ZM12.3504 7.69035L11.6994 5.68735C11.6994 5.68735 11.1427 4.56908 11.8823 4.28315C12.4938 4.04676 12.7099 4.4416 12.832 4.66485C12.8435 4.68582 12.8541 4.70528 12.8642 4.72255C12.9814 4.92376 13.528 6.44646 13.7573 7.30175C13.8615 7.69035 13.8171 8.13285 13.3406 8.32677C13.0942 8.42708 12.8062 8.34724 12.6161 8.1561C12.4386 7.97775 12.3504 7.69035 12.3504 7.69035ZM18.6137 10.5728C18.5867 10.6064 18.5602 10.638 18.5344 10.6677C18.3282 10.9048 18.1577 11.0207 17.9911 11.0207C17.9104 11.0207 17.6905 10.9211 17.572 10.6877C17.4993 10.5447 17.5136 10.3261 17.5369 9.97144L17.5454 9.83945L17.5455 9.83733L17.5456 9.83711L17.5465 9.82261C17.5585 9.62727 17.5703 9.39611 17.572 9.12164C17.5741 8.77958 17.6349 8.28218 17.7411 8.02068C17.7496 7.99959 17.7577 7.97921 17.7656 7.95954C17.872 7.6921 17.9263 7.55567 18.3551 7.55567C18.6545 7.55567 19.0952 7.90119 19.0952 8.70746C19.0952 9.05785 18.981 9.67167 18.8303 10.1166L18.8187 10.1502C18.8084 10.1797 18.7979 10.2083 18.7873 10.236C18.7319 10.3807 18.6729 10.4993 18.6137 10.5728ZM15.949 6.19945L15.9492 6.20168L15.9492 6.20193L15.9492 6.20215L15.9492 6.20254L15.9492 6.20306L15.9493 6.20312L15.9498 6.21344L15.9509 6.22517L15.9509 6.22518L15.951 6.22532L15.951 6.22595L15.9513 6.22861L15.9523 6.23944L15.9562 6.28201L15.9706 6.44207C15.9827 6.57881 15.9993 6.77096 16.0172 6.99222C16.0532 7.4365 16.0938 7.99133 16.1145 8.44991C16.1187 8.54408 16.1247 8.62824 16.1304 8.70738L16.1304 8.70765C16.1415 8.86234 16.1512 8.99786 16.1435 9.15143C16.1331 9.36065 16.0912 9.42124 16.0873 9.42696C16.0869 9.42746 16.0869 9.42754 16.0872 9.42726C16.0742 9.44006 16.0675 9.44376 16.0669 9.44413L16.0668 9.44418C16.0661 9.44457 16.0635 9.44605 16.0555 9.44823C16.0307 9.45498 15.9816 9.46205 15.8546 9.46208C15.7225 9.46212 15.6325 9.42926 15.588 9.40039C15.568 9.38735 15.5598 9.37714 15.5567 9.37251C15.5543 9.36892 15.5494 9.361 15.5463 9.34163C15.4707 8.86807 15.4403 8.43236 15.4063 7.94572L15.4052 7.92973C15.371 7.44062 15.3331 6.90727 15.2377 6.28424C15.201 6.04419 15.1438 5.76473 15.0969 5.53534L15.0757 5.43166C15.0623 5.36541 15.0505 5.30629 15.0406 5.25465C15.0757 5.24484 15.127 5.23664 15.1969 5.23721C15.3013 5.23807 15.4178 5.25853 15.5257 5.29387C15.6378 5.33062 15.7076 5.37249 15.733 5.3927L15.7311 5.39121C15.7311 5.39124 15.7314 5.39161 15.732 5.39236C15.7367 5.39796 15.7594 5.42492 15.7901 5.49169C15.8275 5.57298 15.8602 5.67691 15.8865 5.79095C15.9122 5.90262 15.9283 6.00883 15.9379 6.08787C15.9426 6.12685 15.9456 6.1579 15.9473 6.17806L15.949 6.19945ZM6.47853 13.3138C6.47698 13.3163 6.47618 13.3174 6.47618 13.3173L6.47853 13.3138Z" fill="#4DA6F8"/>
</svg>
