<svg width="23" height="25" viewBox="0 0 23 25" fill="none" xmlns="http://www.w3.org/2000/svg">
<path fill-rule="evenodd" clip-rule="evenodd" d="M20.6162 3.76454C21.2666 4.33894 21.9384 4.93234 22.3534 5.60165C22.6992 6.1599 22.6392 6.94385 22.5857 7.63548C22.5681 7.8625 22.5513 8.07979 22.5513 8.2728V21.6775C22.5513 22.7667 22.4886 23.4645 21.2471 24.059C19.7116 24.7942 17.9945 24.763 16.3237 24.7327H16.3237H16.3236H16.3235H16.3235C16.0835 24.7283 15.8445 24.7239 15.6071 24.7219L15.1651 24.718C13.226 24.7008 11.2866 24.6836 9.34747 24.7316L9.3202 24.7323C8.72397 24.7471 8.11978 24.7621 7.51945 24.7621C6.569 24.7621 5.62783 24.725 4.74054 24.5916C3.86605 24.46 2.6802 24.1204 1.99475 23.2485C1.36229 22.435 1.22229 21.1617 1.17106 20.1432C1.10437 18.8297 1.04872 17.4672 1.00588 16.0941C0.926378 13.5568 0.887954 10.9537 0.887954 8.13632C0.887954 7.91749 0.894956 7.69633 0.901981 7.47447C0.916109 7.02828 0.930327 6.57927 0.887849 6.14062C0.804376 5.28469 0.833053 4.36874 0.887819 3.5C0.913435 3.10162 1.02827 2.53542 1.42973 2.09862C1.88508 1.60308 2.32688 1.45977 2.93769 1.35421C3.84214 1.19759 4.70957 1.2177 5.54703 1.23711L5.54965 1.23717L5.59836 1.23828C6.01339 1.24769 6.44178 1.2574 6.86977 1.2438C9.2375 1.17181 12.0222 1.09363 14.7247 1.05698C14.9786 1.05397 15.245 1.02889 15.5268 1.00236L15.5519 1L15.5543 0.999775C16.4313 0.916798 17.4274 0.822548 18.1881 1.40633C18.5896 1.7146 18.9496 2.10547 19.2971 2.48353L19.3022 2.48906C19.4683 2.66959 19.6327 2.84827 19.7989 3.0144C20.0379 3.253 20.311 3.49457 20.5998 3.75001L20.6155 3.7639L20.6162 3.76454ZM12.6717 20.5578C12.2408 20.5397 11.8147 20.5218 11.4006 20.5179C11.2606 20.5166 11.1206 20.5159 10.9815 20.5159H7.77284C7.64608 20.5159 7.51742 20.5187 7.38817 20.5216C7.12789 20.5273 6.86522 20.5331 6.61084 20.5159C5.99966 20.4747 5.99973 20.3456 6.00001 19.8457L6.00002 19.8124V19.6575C6.00002 19.4639 6.00002 19.2704 6.15328 19.1127C6.26655 18.9503 7.23997 19.0016 7.86574 19.0346H7.86575H7.8658H7.86586L7.86591 19.0346L7.86654 19.0346C8.05781 19.0447 8.21652 19.0531 8.30813 19.0531H11.5309H14.2696C14.4541 19.0531 14.6564 19.0441 14.8664 19.0347H14.8665C15.4518 19.0086 16.0974 18.9799 16.5852 19.1358C17.3303 19.3741 16.8944 20.265 16.2792 20.4047C15.1461 20.6616 13.8897 20.6089 12.6717 20.5578ZM12.6716 16.5578L12.6717 16.5578C13.8897 16.6089 15.1461 16.6616 16.2792 16.4047C16.8944 16.265 17.3303 15.3741 16.5852 15.1358C16.0974 14.9799 15.4517 15.0086 14.8665 15.0347H14.8664C14.6564 15.0441 14.4541 15.0531 14.2696 15.0531H11.5309H8.30813C8.21639 15.0531 8.05738 15.0447 7.86576 15.0346C7.23999 15.0016 6.26655 14.9503 6.15328 15.1127C6.00002 15.2704 6.00002 15.4639 6.00002 15.6575V15.8124L6.00001 15.8457C5.99973 16.3456 5.99966 16.4747 6.61084 16.5159C6.86522 16.5331 7.12788 16.5273 7.38815 16.5216H7.38817C7.51742 16.5187 7.64608 16.5159 7.77284 16.5159H10.9815C11.1206 16.5159 11.2606 16.5166 11.4006 16.5179C11.8147 16.5218 12.2408 16.5397 12.6716 16.5578ZM12.6717 12.5578L12.6716 12.5578C12.2408 12.5397 11.8147 12.5218 11.4006 12.5179C11.2606 12.5166 11.1206 12.5159 10.9815 12.5159H7.77284C7.64608 12.5159 7.51742 12.5187 7.38817 12.5216H7.38815C7.12788 12.5273 6.86522 12.5331 6.61084 12.5159C5.99966 12.4747 5.99973 12.3456 6.00001 11.8457L6.00002 11.8124V11.6575C6.00002 11.4639 6.00002 11.2704 6.15328 11.1127C6.26655 10.9503 7.23999 11.0016 7.86576 11.0346C8.05738 11.0447 8.21639 11.0531 8.30813 11.0531H11.5309H14.2696C14.4541 11.0531 14.6564 11.0441 14.8664 11.0347H14.8665C15.4517 11.0086 16.0974 10.9799 16.5852 11.1358C17.3303 11.3741 16.8944 12.265 16.2792 12.4047C15.1461 12.6616 13.8897 12.6089 12.6717 12.5578ZM8.73776 8.53535C9.18664 8.53961 9.58787 8.56044 9.96729 8.58015C10.9274 8.63 11.7478 8.67261 12.8472 8.42112C13.4624 8.28022 13.8984 7.38149 13.1533 7.14107C12.6655 6.98379 12.0198 7.0128 11.4345 7.0391C11.2244 7.04854 11.0221 7.05763 10.8377 7.05763L8.86805 7.05763L8.31915 7.05763C8.23451 7.05763 8.09207 7.05151 7.9193 7.0441H7.9193C7.29334 7.01724 6.26923 6.97329 6.15328 7.14107C6.00002 7.30009 6.00002 7.49537 6.00002 7.69064V7.84693L6.00001 7.88045C5.99973 8.38478 5.99966 8.51505 6.61084 8.55655C6.84176 8.57231 7.08357 8.5604 7.32335 8.54858H7.32336C7.47889 8.54092 7.63356 8.53329 7.78386 8.53329L8.31863 8.5333C8.45775 8.5333 8.59776 8.53398 8.73776 8.53535ZM20.4812 7.76638C20.382 7.99649 20.1065 8.02299 19.6976 8.03712L19.6654 8.03844C19.5846 8.04109 19.5058 8.04463 19.4323 8.05125C18.3161 8.15328 17.1865 8.14577 16.0748 8.02873C15.9613 8.0168 15.8683 8.00444 15.7944 7.96513C15.6802 7.9033 15.5912 7.75049 15.563 7.56587C15.4418 6.77326 15.5196 5.83417 15.5949 4.9256L15.5957 4.91592C15.6353 4.44511 15.672 4.00036 15.683 3.57592C15.6916 3.25086 15.7512 3.06272 15.8609 3.01634C15.8871 3.0053 15.9156 3 15.9462 3C16.2392 3 16.7014 3.48291 16.961 3.75413C17.0549 3.85218 17.1375 3.93809 17.2142 4.00654C17.4269 4.17084 17.6236 4.3347 17.8207 4.49899L17.8408 4.51569C18.0349 4.67709 18.2291 4.83857 18.4263 4.99056C18.735 5.26871 19.2295 5.79577 19.3708 5.9464C19.3927 5.96965 19.4061 5.98393 19.4091 5.98694C19.5625 6.11943 19.7004 6.23559 19.8384 6.35174L19.8384 6.35176L19.8386 6.35193C19.976 6.46753 20.1136 6.5833 20.2469 6.69625C20.3959 6.86408 20.5555 7.5937 20.4812 7.76638Z" fill="#E0F0F1"/>
</svg>
