<svg width="22" height="24" viewBox="0 0 22 24" fill="none" xmlns="http://www.w3.org/2000/svg">
<path fill-rule="evenodd" clip-rule="evenodd" d="M19.7808 2.82662C20.4311 3.40101 21.103 3.99442 21.518 4.66372C21.8638 5.22198 21.8037 6.00592 21.7503 6.69756C21.7326 6.92457 21.7158 7.14187 21.7158 7.33487V20.7396C21.7158 21.8287 21.6531 22.5266 20.4116 23.121C18.8762 23.8563 17.1591 23.8251 15.4883 23.7947H15.4882H15.4882H15.4881H15.488C15.2481 23.7904 15.009 23.786 14.7716 23.784L14.3297 23.7801C12.3906 23.7629 10.4511 23.7457 8.51202 23.7937L8.48476 23.7944C7.88852 23.8092 7.28433 23.8242 6.684 23.8242C5.73355 23.8242 4.79238 23.7871 3.90509 23.6537C3.0306 23.5221 1.84475 23.1824 1.1593 22.3106C0.526845 21.4971 0.38684 20.2238 0.335608 19.2053C0.268917 17.8918 0.213268 16.5293 0.170427 15.1562C0.0909289 12.6189 0.0525045 10.0157 0.0525045 7.1984C0.0525045 6.97956 0.0595073 6.7584 0.0665321 6.53654C0.0806602 6.09035 0.0948777 5.64134 0.0524001 5.2027C-0.0310733 4.34676 -0.00239625 3.43081 0.0523693 2.56207C0.0779855 2.1637 0.192816 1.59749 0.594283 1.16069C1.04963 0.665152 1.49143 0.521842 2.10224 0.416285C3.00669 0.25966 3.87412 0.27977 4.71158 0.299184L4.7142 0.299245L4.76291 0.300348C5.17794 0.309758 5.60633 0.319471 6.03432 0.305871C8.40205 0.233881 11.1867 0.155708 13.8892 0.11905C14.1432 0.116047 14.4096 0.0909623 14.6914 0.0644339L14.7164 0.0620756L14.7188 0.0618479C15.5958 -0.0211291 16.592 -0.11538 17.3527 0.4684C17.7542 0.776677 18.1141 1.16754 18.4617 1.5456L18.4668 1.55113C18.6329 1.73166 18.7973 1.91034 18.9634 2.07648C19.2024 2.31507 19.4755 2.55664 19.7643 2.81208L19.78 2.82597L19.7808 2.82662ZM11.8362 19.6198C11.4053 19.6018 10.9793 19.5839 10.5652 19.58C10.4252 19.5786 10.2852 19.5779 10.146 19.5779H6.93739C6.81063 19.5779 6.68197 19.5808 6.55272 19.5836C6.29245 19.5894 6.02978 19.5952 5.77539 19.5779C5.16421 19.5368 5.16428 19.4077 5.16456 18.9077L5.16458 18.8745V18.7196C5.16458 18.526 5.16458 18.3324 5.31783 18.1748C5.4311 18.0123 6.40452 18.0637 7.03029 18.0966H7.0303H7.03035H7.03041L7.03046 18.0967L7.03109 18.0967C7.22236 18.1068 7.38107 18.1151 7.47268 18.1151H10.6955H13.4342C13.6186 18.1151 13.8209 18.1061 14.031 18.0968H14.031C14.6163 18.0707 15.262 18.0419 15.7498 18.1979C16.4949 18.4362 16.059 19.3271 15.4437 19.4668C14.3107 19.7237 13.0542 19.671 11.8362 19.6198ZM11.8362 15.6198L11.8362 15.6198C13.0542 15.671 14.3107 15.7237 15.4437 15.4668C16.059 15.3271 16.4949 14.4362 15.7498 14.1979C15.262 14.0419 14.6163 14.0707 14.031 14.0968H14.031C13.8209 14.1061 13.6186 14.1151 13.4342 14.1151H10.6955H7.47268C7.38095 14.1151 7.22193 14.1068 7.03031 14.0966C6.40454 14.0637 5.4311 14.0123 5.31783 14.1748C5.16458 14.3324 5.16458 14.526 5.16458 14.7196V14.8745L5.16456 14.9077C5.16428 15.4077 5.16421 15.5368 5.77539 15.5779C6.02977 15.5952 6.29243 15.5894 6.5527 15.5836H6.55272C6.68197 15.5808 6.81063 15.5779 6.93739 15.5779H10.146C10.2852 15.5779 10.4252 15.5786 10.5652 15.58C10.9793 15.5839 11.4053 15.6018 11.8362 15.6198ZM11.8362 11.6198L11.8362 11.6198C11.4053 11.6018 10.9793 11.5839 10.5652 11.58C10.4252 11.5786 10.2852 11.5779 10.146 11.5779H6.93739C6.81063 11.5779 6.68197 11.5808 6.55272 11.5836H6.5527C6.29243 11.5894 6.02977 11.5952 5.77539 11.5779C5.16421 11.5368 5.16428 11.4077 5.16456 10.9077L5.16458 10.8745V10.7196C5.16458 10.526 5.16458 10.3324 5.31783 10.1748C5.4311 10.0123 6.40454 10.0637 7.03031 10.0966C7.22193 10.1068 7.38095 10.1151 7.47268 10.1151H10.6955H13.4342C13.6186 10.1151 13.8209 10.1061 14.031 10.0968H14.031C14.6163 10.0707 15.262 10.0419 15.7498 10.1979C16.4949 10.4362 16.059 11.3271 15.4437 11.4668C14.3107 11.7237 13.0542 11.671 11.8362 11.6198ZM7.90231 7.59742C8.35119 7.60168 8.75242 7.62252 9.13184 7.64222C10.0919 7.69208 10.9124 7.73468 12.0118 7.48319C12.627 7.3423 13.0629 6.44356 12.3178 6.20314C11.83 6.04586 11.1843 6.07487 10.599 6.10117C10.389 6.11061 10.1867 6.1197 10.0022 6.1197L8.0326 6.1197L7.4837 6.1197C7.39906 6.1197 7.25662 6.11359 7.08386 6.10617H7.08385C6.45789 6.07931 5.43378 6.03536 5.31783 6.20314C5.16458 6.36216 5.16458 6.55744 5.16458 6.75271V6.909L5.16456 6.94252C5.16428 7.44685 5.16421 7.57712 5.77539 7.61862C6.00631 7.63438 6.24812 7.62247 6.4879 7.61065H6.48791C6.64344 7.60299 6.79811 7.59537 6.94841 7.59537L7.48318 7.59537C7.6223 7.59537 7.76231 7.59605 7.90231 7.59742ZM19.6457 6.82846C19.5466 7.05856 19.2711 7.08506 18.8622 7.09919L18.8299 7.10052C18.7491 7.10317 18.6703 7.1067 18.5969 7.11333C17.4807 7.21535 16.351 7.20784 15.2393 7.0908C15.1259 7.07888 15.0328 7.06651 14.959 7.0272C14.8447 6.96537 14.7557 6.81256 14.7276 6.62794C14.6064 5.83533 14.6842 4.89625 14.7594 3.98767L14.7602 3.97799C14.7998 3.50719 14.8365 3.06243 14.8476 2.638C14.8561 2.31294 14.9157 2.12479 15.0255 2.07841C15.0516 2.06737 15.0802 2.06207 15.1108 2.06207C15.4037 2.06207 15.866 2.54498 16.1256 2.8162C16.2194 2.91425 16.3021 3.00016 16.3788 3.06861C16.5914 3.23291 16.7881 3.39677 16.9853 3.56107L17.0053 3.57776C17.1994 3.73916 17.3936 3.90064 17.5909 4.05263C17.8995 4.33078 18.3941 4.85784 18.5354 5.00847C18.5572 5.03172 18.5706 5.046 18.5736 5.04902C18.7271 5.18151 18.865 5.29766 19.0029 5.41381L19.003 5.41383L19.0032 5.414C19.1406 5.5296 19.2782 5.64537 19.4115 5.75832C19.5604 5.92615 19.72 6.65577 19.6457 6.82846Z" fill="#3C627B"/>
</svg>
