<?xml version="1.0" encoding="UTF-8" standalone="no"?>
<svg
   xmlns:dc="http://purl.org/dc/elements/1.1/"
   xmlns:cc="http://creativecommons.org/ns#"
   xmlns:rdf="http://www.w3.org/1999/02/22-rdf-syntax-ns#"
   xmlns:svg="http://www.w3.org/2000/svg"
   xmlns="http://www.w3.org/2000/svg"
   width="12"
   height="12"
   viewBox="0 0 12 12"
   preserveAspectRatio="xMinYMid meet"
   overflow="visible"
   version="1.1"
   id="svg4">
  <metadata
     id="metadata10">
    <rdf:RDF>
      <cc:Work
         rdf:about="">
        <dc:format>image/svg+xml</dc:format>
        <dc:type
           rdf:resource="http://purl.org/dc/dcmitype/StillImage" />
        <dc:title></dc:title>
      </cc:Work>
    </rdf:RDF>
  </metadata>
  <defs
     id="defs8" />
  <path
     style="color:#000000;font-style:normal;font-variant:normal;font-weight:normal;font-stretch:normal;font-size:medium;line-height:normal;font-family:sans-serif;font-variant-ligatures:normal;font-variant-position:normal;font-variant-caps:normal;font-variant-numeric:normal;font-variant-alternates:normal;font-feature-settings:normal;text-indent:0;text-align:start;text-decoration:none;text-decoration-line:none;text-decoration-style:solid;text-decoration-color:#000000;letter-spacing:normal;word-spacing:normal;text-transform:none;writing-mode:lr-tb;direction:ltr;text-orientation:mixed;dominant-baseline:auto;baseline-shift:baseline;text-anchor:start;white-space:normal;shape-padding:0;clip-rule:nonzero;display:inline;overflow:visible;visibility:visible;opacity:1;isolation:auto;mix-blend-mode:normal;color-interpolation:sRGB;color-interpolation-filters:linearRGB;solid-color:#000000;solid-opacity:1;vector-effect:none;fill:#868BBD;fill-opacity:1;fill-rule:nonzero;stroke:none;stroke-width:0.80178976;stroke-linecap:butt;stroke-linejoin:miter;stroke-miterlimit:4;stroke-dasharray:none;stroke-dashoffset:0;stroke-opacity:1;paint-order:markers fill stroke;color-rendering:auto;image-rendering:auto;shape-rendering:auto;text-rendering:auto;enable-background:accumulate"
     d="M5.82923 1.00287C5.88593 1.00096 5.94286 1 6 1C6.05714 1 6.11407 1.00096 6.17077 1.00287C6.42167 1.0113 6.61823 1.22153 6.60979 1.47243C6.60136 1.72332 6.39113 1.91988 6.14023 1.91144C6.0937 1.90988 6.04695 1.90909 6 1.90909C5.95305 1.90909 5.9063 1.90988 5.85977 1.91144C5.60887 1.91988 5.39864 1.72332 5.39021 1.47243C5.38177 1.22153 5.57833 1.0113 5.82923 1.00287ZM7.7364 1.77337C7.85462 1.5519 8.12998 1.4682 8.35144 1.58642C8.45208 1.64014 8.55066 1.6972 8.64702 1.75743C8.85989 1.8905 8.92458 2.17094 8.79152 2.38381C8.65845 2.59668 8.37801 2.66137 8.16514 2.5283C8.08629 2.47901 8.00565 2.43234 7.92335 2.38841C7.70189 2.27019 7.61819 1.99483 7.7364 1.77337ZM4.2636 1.77337C4.38181 1.99483 4.29811 2.27019 4.07665 2.38841C3.99435 2.43234 3.91371 2.47901 3.83486 2.5283C3.62199 2.66137 3.34155 2.59668 3.20848 2.38381C3.07542 2.17094 3.14011 1.8905 3.35298 1.75743C3.44934 1.6972 3.54792 1.64014 3.64856 1.58642C3.87002 1.4682 4.14538 1.55191 4.2636 1.77337ZM9.61619 3.20848C9.82906 3.07542 10.1095 3.14011 10.2426 3.35298C10.3028 3.44934 10.3599 3.54792 10.4136 3.64856C10.5318 3.87002 10.4481 4.14538 10.2266 4.2636C10.0052 4.38181 9.72981 4.29811 9.61159 4.07665C9.56766 3.99435 9.52099 3.91371 9.4717 3.83486C9.33863 3.62199 9.40332 3.34155 9.61619 3.20848ZM2.38381 3.20849C2.59668 3.34155 2.66137 3.62199 2.5283 3.83486C2.47901 3.91371 2.43234 3.99435 2.38841 4.07665C2.27019 4.29811 1.99483 4.38181 1.77337 4.2636C1.5519 4.14539 1.4682 3.87002 1.58642 3.64856C1.64014 3.54792 1.6972 3.44934 1.75743 3.35298C1.8905 3.14011 2.17094 3.07542 2.38381 3.20849ZM10.5276 5.39021C10.7785 5.38177 10.9887 5.57833 10.9971 5.82923C10.999 5.88593 11 5.94286 11 6C11 6.05714 10.999 6.11407 10.9971 6.17077C10.9887 6.42167 10.7785 6.61823 10.5276 6.60979C10.2767 6.60136 10.0801 6.39113 10.0886 6.14023C10.0901 6.0937 10.0909 6.04695 10.0909 6C10.0909 5.95305 10.0901 5.9063 10.0886 5.85977C10.0801 5.60887 10.2767 5.39864 10.5276 5.39021ZM1.47243 5.39021C1.72332 5.39864 1.91988 5.60887 1.91144 5.85977C1.90988 5.9063 1.90909 5.95305 1.90909 6C1.90909 6.04695 1.90988 6.0937 1.91144 6.14023C1.91988 6.39113 1.72332 6.60136 1.47243 6.60979C1.22153 6.61823 1.0113 6.42167 1.00287 6.17077C1.00096 6.11407 1 6.05714 1 6C1 5.94286 1.00096 5.88593 1.00287 5.82923C1.0113 5.57833 1.22153 5.38178 1.47243 5.39021ZM10.2266 7.7364C10.4481 7.85462 10.5318 8.12998 10.4136 8.35144C10.3599 8.45208 10.3028 8.55066 10.2426 8.64702C10.1095 8.85989 9.82906 8.92458 9.61619 8.79152C9.40332 8.65845 9.33863 8.37801 9.4717 8.16514C9.52099 8.08629 9.56766 8.00565 9.61159 7.92335C9.72981 7.70189 10.0052 7.61819 10.2266 7.7364ZM1.77337 7.7364C1.99483 7.61819 2.27019 7.70189 2.38841 7.92335C2.43234 8.00565 2.47901 8.08629 2.5283 8.16514C2.66137 8.37801 2.59668 8.65845 2.38381 8.79152C2.17094 8.92458 1.8905 8.85989 1.75743 8.64703C1.6972 8.55066 1.64014 8.45208 1.58642 8.35144C1.4682 8.12998 1.55191 7.85462 1.77337 7.7364ZM3.20849 9.61619C3.34155 9.40332 3.62199 9.33863 3.83486 9.4717C3.91371 9.52099 3.99435 9.56766 4.07665 9.61159C4.29811 9.72981 4.38181 10.0052 4.2636 10.2266C4.14539 10.4481 3.87002 10.5318 3.64856 10.4136C3.54792 10.3599 3.44934 10.3028 3.35298 10.2426C3.14011 10.1095 3.07542 9.82906 3.20849 9.61619ZM8.79152 9.61619C8.92458 9.82906 8.85989 10.1095 8.64703 10.2426C8.55066 10.3028 8.45208 10.3599 8.35144 10.4136C8.12998 10.5318 7.85462 10.4481 7.7364 10.2266C7.61819 10.0052 7.70189 9.72981 7.92335 9.61159C8.00565 9.56766 8.08629 9.52099 8.16514 9.4717C8.37801 9.33863 8.65845 9.40332 8.79152 9.61619ZM5.39021 10.5276C5.39864 10.2767 5.60887 10.0801 5.85977 10.0886C5.9063 10.0901 5.95305 10.0909 6 10.0909C6.04695 10.0909 6.0937 10.0901 6.14023 10.0886C6.39113 10.0801 6.60136 10.2767 6.60979 10.5276C6.61823 10.7785 6.42167 10.9887 6.17077 10.9971C6.11407 10.999 6.05714 11 6 11C5.94286 11 5.88593 10.999 5.82923 10.9971C5.57833 10.9887 5.38178 10.7785 5.39021 10.5276Z"
     id="path817" />
</svg>

