<svg width="17" height="17" viewBox="0 0 17 17" fill="none" xmlns="http://www.w3.org/2000/svg">
<path d="M1.54547 6.95459H15.4546V13.1364C15.4546 14.4167 14.4167 15.4546 13.1364 15.4546H3.86365C2.58336 15.4546 1.54547 14.4167 1.54547 13.1364V6.95459Z" fill="white"/>
<path d="M1.54547 6.95446H15.4546V5.409C15.4546 4.12871 14.4167 3.09082 13.1364 3.09082H3.86365C2.58336 3.09082 1.54547 4.12871 1.54547 5.409V6.95446Z" fill="#FFC4AA"/>
<path d="M13.5999 2.9749H12.3249V1.6999C12.3249 1.46513 12.1347 1.2749 11.8999 1.2749C11.6651 1.2749 11.4749 1.46513 11.4749 1.6999V2.9749H8.9249V1.6999C8.9249 1.46513 8.73466 1.2749 8.4999 1.2749C8.26515 1.2749 8.0749 1.46513 8.0749 1.6999V2.9749H5.5249V1.6999C5.5249 1.46513 5.33467 1.2749 5.0999 1.2749C4.86513 1.2749 4.6749 1.46513 4.6749 1.6999V2.9749H3.3999C2.22809 2.9749 1.2749 3.92809 1.2749 5.0999V13.5999C1.2749 14.7717 2.22809 15.7249 3.3999 15.7249H13.5999C14.7717 15.7249 15.7249 14.7717 15.7249 13.5999V5.0999C15.7249 3.92809 14.7717 2.9749 13.5999 2.9749ZM14.8749 13.5999C14.8749 14.303 14.303 14.8749 13.5999 14.8749H3.3999C2.69678 14.8749 2.1249 14.303 2.1249 13.5999V7.2249H14.8749V13.5999ZM14.8749 6.3749H2.1249V5.0999C2.1249 4.39678 2.69678 3.8249 3.3999 3.8249H4.6749V5.0999C4.6749 5.33467 4.86513 5.5249 5.0999 5.5249C5.33467 5.5249 5.5249 5.33467 5.5249 5.0999V3.8249H8.0749V5.0999C8.0749 5.33467 8.26515 5.5249 8.4999 5.5249C8.73466 5.5249 8.9249 5.33467 8.9249 5.0999V3.8249H11.4749V5.0999C11.4749 5.33467 11.6651 5.5249 11.8999 5.5249C12.1347 5.5249 12.3249 5.33467 12.3249 5.0999V3.8249H13.5999C14.303 3.8249 14.8749 4.39678 14.8749 5.0999V6.3749Z" fill="#202735"/>
</svg>
