<svg width="22" height="22" viewBox="0 0 22 22" fill="none" xmlns="http://www.w3.org/2000/svg">
<path fill-rule="evenodd" clip-rule="evenodd" d="M11 20C15.9706 20 20 15.9706 20 11C20 6.02944 15.9706 2 11 2C6.02944 2 2 6.02944 2 11C2 15.9706 6.02944 20 11 20ZM11 16C13.7614 16 16 13.7614 16 11C16 8.23858 13.7614 6 11 6C8.23858 6 6 8.23858 6 11C6 13.7614 8.23858 16 11 16Z" fill="white"/>
<path d="M10 6H12L13 2H11H9L10 6Z" fill="#C7C2E3"/>
<path d="M6 10V12L2 13V11V9L6 10Z" fill="#C7C2E3"/>
<path d="M16 10V12L20 13V11V9L16 10Z" fill="#C7C2E3"/>
<path d="M9.25813 19.6262C9.82155 19.7397 10.4039 19.8 11.0001 19.8C11.5963 19.8 12.1786 19.7397 12.7418 19.6262L11.8849 16.4278C11.5967 16.4747 11.3015 16.5 11.0001 16.5C10.6987 16.5 10.4035 16.4747 10.115 16.4278L9.25813 19.6262Z" fill="#C7C2E3"/>
<path d="M11.0001 1.10001C5.54124 1.10001 1.1001 5.54115 1.1001 11C1.1001 16.4589 5.54124 20.9 11.0001 20.9C16.459 20.9 20.9001 16.4589 20.9001 11C20.9001 5.54115 16.459 1.10001 11.0001 1.10001ZM11.0001 2.20001C11.5963 2.20001 12.1786 2.26029 12.7421 2.37381L11.8852 5.57217C11.5967 5.52531 11.3015 5.50001 11.0001 5.50001C10.6987 5.50001 10.4035 5.52531 10.1153 5.57217L9.25814 2.37381C9.82156 2.26029 10.4039 2.20001 11.0001 2.20001ZM15.4001 11C15.4001 13.4262 13.4263 15.4 11.0001 15.4C8.57394 15.4 6.6001 13.4262 6.6001 11C6.6001 8.57385 8.57394 6.60001 11.0001 6.60001C13.4263 6.60001 15.4001 8.57385 15.4001 11ZM8.19598 2.66069L9.05244 5.85729C7.58416 6.41521 6.41508 7.58407 5.85716 9.05257L2.66056 8.19611C3.53748 5.59615 5.59624 3.53739 8.19598 2.66069ZM2.2001 11C2.2001 10.4038 2.26038 9.82147 2.3739 9.25805L5.57226 10.1149C5.5254 10.4034 5.5001 10.6986 5.5001 11C5.5001 11.3014 5.5254 11.5966 5.57226 11.8848L2.3739 12.742C2.26038 12.1785 2.2001 11.5962 2.2001 11ZM8.19598 19.3393C5.59624 18.4628 3.53726 16.4039 2.66078 13.8041L5.85738 12.9477C6.4153 14.4159 7.58416 15.585 9.05266 16.1429L8.19598 19.3393ZM11.0001 19.8C10.4039 19.8 9.82156 19.7397 9.25814 19.6262L10.115 16.4278C10.4035 16.4747 10.6987 16.5 11.0001 16.5C11.3015 16.5 11.5967 16.4747 11.8849 16.4278L12.7418 19.6262C12.1786 19.7397 11.5963 19.8 11.0001 19.8ZM13.8042 19.3393L12.9478 16.1427C14.416 15.5848 15.5851 14.4159 16.143 12.9474L19.3396 13.8039C18.4627 16.4039 16.404 18.4626 13.8042 19.3393ZM19.8001 11C19.8001 11.5962 19.7398 12.1785 19.6263 12.742L16.4279 11.8851C16.4748 11.5966 16.5001 11.3014 16.5001 11C16.5001 10.6986 16.4748 10.4034 16.4279 10.1152L19.6263 9.25827C19.7398 9.82147 19.8001 10.4038 19.8001 11ZM16.1428 9.05257C15.5849 7.58429 14.416 6.41521 12.9475 5.85729L13.804 2.66069C16.4037 3.53717 18.4627 5.59615 19.3392 8.19589L16.1428 9.05257Z" fill="#392F75"/>
</svg>
