<svg width="56" height="56" viewBox="0 0 56 56" fill="none" xmlns="http://www.w3.org/2000/svg">
<circle cx="28" cy="28" r="28" fill="white"/>
<circle cx="28" cy="28" r="24" fill="#F6D38F"/>
<rect x="17.5" y="16.5" width="21" height="25" rx="2" fill="white" stroke="#202735"/>
<path d="M21.5 18H34.5V15.2767L31 15L28 13L25 15L21.5 15.2767V18Z" fill="#C7F0FF"/>
<path fill-rule="evenodd" clip-rule="evenodd" d="M21.8125 14.4728C21.3637 14.4728 21 14.8432 21 15.3004L21 15.7832V16.8175V17.6451C21 18.1023 21.3637 18.4727 21.8125 18.4727L34.1875 18.4728C34.6363 18.4728 35 18.1023 35 17.6451V16.8175V15.7833L35 15.3004C35 14.8433 34.6363 14.4728 34.1875 14.4728H30.798C29.5 11.4996 26 12 25.2019 14.4728H21.8125ZM26 15.4728L22 15.4727V17.4727L34 17.4728V15.4728L30 15.4728C29.5 13 26.5 13 26.0504 15.2837L26 15.4728Z" fill="#202735"/>
<path fill-rule="evenodd" clip-rule="evenodd" d="M24 22.9731H22V24.9731H24V22.9731ZM22 21.9731C21.4477 21.9731 21 22.4209 21 22.9731V24.9731C21 25.5254 21.4477 25.9731 22 25.9731H24C24.5523 25.9731 25 25.5254 25 24.9731V22.9731C25 22.4209 24.5523 21.9731 24 21.9731H22Z" fill="#202735"/>
<path fill-rule="evenodd" clip-rule="evenodd" d="M24 28.9731H22V30.9731H24V28.9731ZM22 27.9731C21.4477 27.9731 21 28.4209 21 28.9731V30.9731C21 31.5254 21.4477 31.9731 22 31.9731H24C24.5523 31.9731 25 31.5254 25 30.9731V28.9731C25 28.4209 24.5523 27.9731 24 27.9731H22Z" fill="#202735"/>
<path fill-rule="evenodd" clip-rule="evenodd" d="M24 34.9731H22V36.9731H24V34.9731ZM22 33.9731C21.4477 33.9731 21 34.4209 21 34.9731V36.9731C21 37.5254 21.4477 37.9731 22 37.9731H24C24.5523 37.9731 25 37.5254 25 36.9731V34.9731C25 34.4209 24.5523 33.9731 24 33.9731H22Z" fill="#202735"/>
<path fill-rule="evenodd" clip-rule="evenodd" d="M27 22.5C27 22.2239 27.2239 22 27.5 22H33.5C33.7761 22 34 22.2239 34 22.5C34 22.7761 33.7761 23 33.5 23H27.5C27.2239 23 27 22.7761 27 22.5Z" fill="#202735"/>
<path fill-rule="evenodd" clip-rule="evenodd" d="M27 28.5C27 28.2239 27.2239 28 27.5 28H33.5C33.7761 28 34 28.2239 34 28.5C34 28.7761 33.7761 29 33.5 29H27.5C27.2239 29 27 28.7761 27 28.5Z" fill="#202735"/>
<path fill-rule="evenodd" clip-rule="evenodd" d="M27 34.5C27 34.2239 27.2239 34 27.5 34H33.5C33.7761 34 34 34.2239 34 34.5C34 34.7761 33.7761 35 33.5 35H27.5C27.2239 35 27 34.7761 27 34.5Z" fill="#202735"/>
<path fill-rule="evenodd" clip-rule="evenodd" d="M27 24.5C27 24.2239 27.2239 24 27.5 24H31.5C31.7761 24 32 24.2239 32 24.5C32 24.7761 31.7761 25 31.5 25H27.5C27.2239 25 27 24.7761 27 24.5Z" fill="#202735"/>
<path fill-rule="evenodd" clip-rule="evenodd" d="M27 30.5C27 30.2239 27.2239 30 27.5 30H31.5C31.7761 30 32 30.2239 32 30.5C32 30.7761 31.7761 31 31.5 31H27.5C27.2239 31 27 30.7761 27 30.5Z" fill="#202735"/>
<path fill-rule="evenodd" clip-rule="evenodd" d="M27 36.5C27 36.2239 27.2239 36 27.5 36H31.5C31.7761 36 32 36.2239 32 36.5C32 36.7761 31.7761 37 31.5 37H27.5C27.2239 37 27 36.7761 27 36.5Z" fill="#202735"/>
</svg>
