<svg width="31" height="31" viewBox="0 0 31 31" fill="none" xmlns="http://www.w3.org/2000/svg">
<path d="M15.5 8.26654C11.5041 8.26654 8.26615 11.5049 8.26615 15.4992C8.26615 19.4951 11.5041 22.7331 15.5 22.7331C17.4976 22.7331 19.306 21.9232 20.615 20.6138L26.4608 26.4597C23.6553 29.2652 19.7807 31 15.5 31C6.93935 31 -2.4303e-07 24.0606 -1.56553e-07 15.4992C-7.00923e-08 6.93935 6.93935 7.00923e-08 15.5 1.56561e-07L15.5 8.26654Z" fill="#48B4E2"/>
<path d="M22.0977 18.4465C22.501 17.5455 22.7293 16.5493 22.7293 15.4987C22.7293 14.4482 22.501 13.4531 22.0977 12.5522L28.1213 6.52734C29.9248 9.06159 30.997 12.1519 30.997 15.4987C30.997 18.846 29.9248 21.9374 28.1213 24.4701L22.0977 18.4465Z" fill="#48B4E2"/>
<path d="M18.082 8.75006C19.0395 9.11663 19.9025 9.67347 20.6147 10.3849L26.4594 4.53987C24.2332 2.31213 21.3262 0.777634 18.082 0.232422L18.082 8.75006Z" fill="#48B4E2"/>
</svg>
