<svg width="35" height="35" viewBox="0 0 35 35" fill="none" xmlns="http://www.w3.org/2000/svg">
<g clip-path="url(#clip0)">
<path d="M3.2738 12.8353C5.47391 5.90427 12.5285 1.60487 19.6844 2.83531C20.3438 2.94871 21.0046 3.10988 21.6484 3.31452C25.3736 4.49727 28.416 7.05969 30.2141 10.5293C32.0111 13.9989 32.3511 17.9623 31.1683 21.6875C28.9693 28.6187 21.9136 32.9179 14.7577 31.6875C14.0983 31.5741 13.4375 31.4129 12.7935 31.2094C9.06827 30.0267 6.0259 27.4643 4.22776 23.9946C2.43116 20.5226 2.09095 16.5605 3.2738 12.8353Z" fill="#EBF4FF"/>
<path d="M3.2738 12.8353C5.47391 5.90427 12.5285 1.60487 19.6844 2.83531C20.3438 2.94871 21.0046 3.10988 21.6484 3.31452C25.3736 4.49727 28.416 7.05969 30.2141 10.5293C32.0111 13.9989 32.3511 17.9623 31.1683 21.6875C28.9693 28.6187 21.9136 32.9179 14.7577 31.6875C14.0983 31.5741 13.4375 31.4129 12.7935 31.2094C9.06827 30.0267 6.0259 27.4643 4.22776 23.9946C2.43116 20.5226 2.09095 16.5605 3.2738 12.8353Z" fill="#48B4E2"/>
<path d="M16.9313 7.65496C17.2647 7.64569 17.541 7.90604 17.5504 8.23823L17.812 16.9657L23.1716 21.2713C23.4308 21.4788 23.4726 21.8581 23.2639 22.1172C23.1218 22.2937 22.9008 22.3686 22.6918 22.3327C22.5948 22.316 22.4996 22.2747 22.4171 22.2082L16.6263 17.5547L16.3484 8.27261C16.3388 7.94158 16.5993 7.66414 16.9315 7.65466L16.9313 7.65496Z" fill="#E6EEF8"/>
<path d="M26.9195 23.8237C27.0395 23.6446 27.2966 23.5949 27.4789 23.7166C27.6607 23.8418 27.7084 24.0902 27.5832 24.272C27.2 24.841 26.765 25.3858 26.288 25.8852C26.1938 25.9831 26.0605 26.0256 25.93 26.0032C25.8514 25.9896 25.7803 25.9536 25.7209 25.8982C25.6221 25.8087 25.5799 25.6742 25.6029 25.5402C25.6166 25.4606 25.6489 25.39 25.7078 25.3312C26.1508 24.8639 26.5594 24.3551 26.9195 23.8237L26.9195 23.8237Z" fill="#48B4E2"/>
<path d="M25.3296 8.72156C25.2546 8.70865 25.1829 8.67611 25.1269 8.6213C24.6479 8.18458 24.1347 7.7872 23.5956 7.43766C23.5038 7.37669 23.4416 7.28872 23.4192 7.1838C23.397 7.07772 23.4188 6.97207 23.4763 6.87971C23.5928 6.69998 23.8505 6.64678 24.0336 6.76389C24.6122 7.14043 25.1624 7.56441 25.6684 8.03073C25.7704 8.12199 25.8157 8.2594 25.7927 8.39337C25.7798 8.46844 25.7438 8.53954 25.6924 8.59611C25.6021 8.69949 25.4647 8.74483 25.3296 8.7216L25.3296 8.72156Z" fill="#48B4E2"/>
<path d="M19.6737 5.81142C19.4967 5.77622 19.339 5.74555 19.1889 5.71973C18.7177 5.6387 18.2348 5.58421 17.7546 5.56228C17.7384 5.5595 17.7226 5.56154 17.7064 5.55876C17.5043 5.52401 17.365 5.34547 17.3701 5.14301C17.3843 4.92191 17.5721 4.74969 17.7903 4.75985C18.4849 4.79367 19.2084 4.89429 19.8448 5.03107C20.0536 5.07529 20.1895 5.27346 20.1574 5.48792C20.1568 5.49138 20.1555 5.49947 20.1506 5.50696C20.104 5.72249 19.8933 5.86224 19.6738 5.8114L19.6737 5.81142Z" fill="#48B4E2"/>
<path d="M29.333 17.6472C29.5595 17.6576 29.7211 17.8518 29.7079 18.0743C29.6791 18.5046 29.6279 18.9405 29.5544 19.3678C29.5123 19.6126 29.4607 19.8642 29.4014 20.1191C29.3537 20.3273 29.1515 20.459 28.9414 20.4229L28.9183 20.4189C28.71 20.3712 28.5791 20.1644 28.6151 19.9554L28.6185 19.9357C28.6753 19.7017 28.7232 19.465 28.7633 19.2317C28.832 18.8321 28.8782 18.4251 28.9065 18.0185C28.9198 17.7961 29.1114 17.6293 29.333 17.6472L29.333 17.6472Z" fill="#48B4E2"/>
<path d="M20.4637 28.514C21.0761 28.3339 21.6869 28.1013 22.2721 27.8237C22.4675 27.7313 22.7165 27.8181 22.8096 28.0101C22.906 28.2098 22.8193 28.4517 22.6198 28.547C21.9992 28.8434 21.3493 29.0896 20.6855 29.2846C20.6261 29.2982 20.5679 29.3048 20.5044 29.2939C20.3543 29.2681 20.2314 29.153 20.1874 29.0075C20.1738 28.9481 20.1672 28.8899 20.1773 28.831C20.2028 28.676 20.3144 28.5525 20.4637 28.514L20.4637 28.514Z" fill="#48B4E2"/>
<path d="M28.4003 11.6489C28.7094 12.2645 28.9693 12.9109 29.1736 13.5691C29.1918 13.6293 29.197 13.6956 29.1863 13.7579C29.1611 13.9046 29.0549 14.0243 28.9086 14.0729C28.8484 14.091 28.7875 14.0925 28.724 14.0815C28.5738 14.0557 28.4522 13.954 28.4085 13.8073C28.2169 13.1929 27.9747 12.5888 27.6831 12.0096C27.5826 11.8127 27.6646 11.5712 27.8614 11.4706C28.0528 11.374 28.3036 11.4575 28.4003 11.6489L28.4003 11.6489Z" fill="#48B4E2"/>
<path d="M7.82979 8.99022C7.97125 8.83142 8.23511 8.81139 8.39793 8.95711C8.50457 9.04917 8.54991 9.18658 8.52608 9.32516C8.51377 9.39677 8.48203 9.46384 8.43184 9.52061C8.00723 10.0053 7.61864 10.5294 7.27598 11.0769C7.19126 11.2169 7.0283 11.2864 6.86661 11.2586C6.81464 11.2497 6.76868 11.2335 6.7247 11.2057C6.53689 11.0878 6.47825 10.8411 6.59674 10.6498C6.96117 10.0656 7.37499 9.50535 7.8298 8.99022L7.82979 8.99022Z" fill="#48B4E2"/>
<path d="M5.6529 13.6554C5.75717 13.6852 5.84489 13.7491 5.89758 13.8437C5.95027 13.9384 5.96493 14.0468 5.93396 14.1508C5.83222 14.5281 5.74586 14.9128 5.68132 15.2881C5.63922 15.533 5.60302 15.7919 5.57395 16.0509C5.56376 16.1585 5.51009 16.2563 5.4296 16.3233C5.34449 16.3895 5.24164 16.4206 5.134 16.4104L5.10628 16.4057C4.9007 16.3703 4.75429 16.1775 4.77871 15.9665C4.80534 15.694 4.84412 15.42 4.8904 15.1509C4.96109 14.7398 5.05142 14.332 5.16 13.9357C5.22254 13.7241 5.43513 13.5942 5.6529 13.6554L5.6529 13.6554Z" fill="#48B4E2"/>
<path d="M5.41742 19.9985C5.62713 19.9406 5.85284 20.0733 5.90953 20.2828C6.07874 20.91 6.29928 21.5223 6.56523 22.1055C6.60924 22.2022 6.61156 22.3132 6.57309 22.4124C6.53579 22.5118 6.46466 22.5935 6.36329 22.6367C6.29223 22.6697 6.20972 22.6793 6.13003 22.6656C5.99952 22.6432 5.88802 22.5586 5.83468 22.44C5.54834 21.8093 5.31052 21.1525 5.13184 20.4904C5.11768 20.4344 5.11431 20.378 5.12464 20.3179C5.1522 20.1645 5.26787 20.0381 5.41738 19.9985L5.41742 19.9985Z" fill="#48B4E2"/>
<path d="M13.2983 5.37747C13.5047 5.31072 13.7411 5.42984 13.8038 5.63207C13.8249 5.69633 13.8293 5.76725 13.8186 5.82962C13.7936 5.97514 13.6878 6.0925 13.5486 6.14111C12.9398 6.34201 12.343 6.5973 11.7658 6.89758C11.6892 6.9415 11.6013 6.95492 11.5101 6.93923C11.3877 6.91818 11.2829 6.84308 11.2235 6.73181C11.123 6.53497 11.1971 6.29087 11.3937 6.1915C12.0045 5.86848 12.6459 5.59587 13.2983 5.37748L13.2983 5.37747Z" fill="#48B4E2"/>
<path d="M8.99208 25.5905C9.44889 26.0389 9.94629 26.4586 10.4761 26.835C10.5634 26.894 10.6213 26.986 10.6403 27.0904C10.659 27.1958 10.6353 27.3059 10.5717 27.3925C10.4851 27.5155 10.3274 27.5823 10.1772 27.5565C10.1183 27.5464 10.0649 27.5253 10.0142 27.4881C9.45522 27.0947 8.92804 26.6544 8.44156 26.1713C8.43809 26.1707 8.43061 26.1658 8.42678 26.1604C8.42738 26.1569 8.42391 26.1563 8.42391 26.1563C8.33403 26.0636 8.29443 25.9343 8.31548 25.8119C8.32631 25.7281 8.36638 25.6542 8.42525 25.5953C8.57324 25.44 8.83892 25.437 8.99208 25.5905L8.99208 25.5905Z" fill="#48B4E2"/>
<path d="M14.3331 28.6043L14.336 28.6083C14.9562 28.7637 15.6052 28.8753 16.2396 28.9273C16.4647 28.9458 16.6263 29.1401 16.6084 29.3617C16.5982 29.4694 16.5493 29.5668 16.464 29.6342C16.3828 29.7058 16.2788 29.7367 16.1711 29.7265C15.8216 29.6985 15.4673 29.6495 15.1162 29.5891C14.7802 29.5313 14.4461 29.462 14.1338 29.3833C13.9316 29.3283 13.7999 29.1262 13.8381 28.9246L13.8434 28.8935C13.8961 28.6837 14.1176 28.5506 14.3331 28.6043L14.3331 28.6043Z" fill="#48B4E2"/>
<path d="M16.6484 5.08398L16.6484 17.4486L23.6484 22.084" stroke="#EFF0FF" stroke-width="3"/>
</g>
<defs>
<clipPath id="clip0">
<rect width="30" height="30" fill="white" transform="matrix(-0.985537 -0.169462 -0.169462 0.985537 34.6484 5.08398)"/>
</clipPath>
</defs>
</svg>
