<svg width="32" height="46" viewBox="0 0 32 46" fill="none" xmlns="http://www.w3.org/2000/svg">
<path d="M32 8.81283C32 7.15597 30.6569 5.81283 29 5.81283H28.3542H24.5004H6.79226H3.02148C1.36463 5.81283 0.0214844 7.15597 0.0214844 8.81282V42.3962C0.0214844 44.053 1.36463 45.3962 3.02148 45.3962H29C30.6569 45.3962 32 44.053 32 42.3962V25.6045V8.81283Z" fill="#CEDAFC"/>
<path d="M7.14453 6.93783V5.81283V5.20866C7.14453 4.10409 8.03996 3.20866 9.14453 3.20866H12.2672C12.8898 3.20866 13.394 2.68898 13.6275 2.11183C13.9154 1.40013 14.5592 0.604505 15.9986 0.604492C17.438 0.60448 18.0818 1.40012 18.3698 2.11183C18.6033 2.68898 19.1075 3.20866 19.7301 3.20866H22.8527C23.9573 3.20866 24.8527 4.10409 24.8527 5.20866V5.81283V6.93783C24.8527 8.0424 23.9573 8.93783 22.8527 8.93783H9.14453C8.03996 8.93783 7.14453 8.0424 7.14453 6.93783Z" fill="#5C85EE"/>
<path fill-rule="evenodd" clip-rule="evenodd" d="M15.998 19.1756C15.998 18.789 16.3114 18.4756 16.698 18.4756H22.5896C22.9762 18.4756 23.2896 18.789 23.2896 19.1756C23.2896 19.5622 22.9762 19.8756 22.5896 19.8756H16.698C16.3114 19.8756 15.998 19.5622 15.998 19.1756Z" fill="#5C85EE"/>
<path fill-rule="evenodd" clip-rule="evenodd" d="M15.998 19.1756C15.998 18.789 16.3114 18.4756 16.698 18.4756H22.5896C22.9762 18.4756 23.2896 18.789 23.2896 19.1756C23.2896 19.5622 22.9762 19.8756 22.5896 19.8756H16.698C16.3114 19.8756 15.998 19.5622 15.998 19.1756Z" fill="#5C85EE"/>
<path fill-rule="evenodd" clip-rule="evenodd" d="M15.998 15.0086C15.998 14.622 16.3114 14.3086 16.698 14.3086H26.7563C27.1429 14.3086 27.4563 14.622 27.4563 15.0086C27.4563 15.3952 27.1429 15.7086 26.7563 15.7086H16.698C16.3114 15.7086 15.998 15.3952 15.998 15.0086Z" fill="#5C85EE"/>
<path fill-rule="evenodd" clip-rule="evenodd" d="M15.998 15.0086C15.998 14.622 16.3114 14.3086 16.698 14.3086H26.7563C27.1429 14.3086 27.4563 14.622 27.4563 15.0086C27.4563 15.3952 27.1429 15.7086 26.7563 15.7086H16.698C16.3114 15.7086 15.998 15.3952 15.998 15.0086Z" fill="#5C85EE"/>
<path fill-rule="evenodd" clip-rule="evenodd" d="M11.2854 15.2138C11.5588 15.4872 11.5588 15.9304 11.2854 16.2038L8.16046 19.3288C8.02919 19.46 7.85114 19.5338 7.66549 19.5338C7.47983 19.5338 7.30178 19.46 7.17051 19.3288L6.12885 18.2871C5.85549 18.0137 5.85549 17.5705 6.12886 17.2971C6.40222 17.0238 6.84544 17.0238 7.1188 17.2971L7.66549 17.8438L10.2955 15.2138C10.5688 14.9404 11.0121 14.9404 11.2854 15.2138Z" fill="#5C85EE"/>
<path fill-rule="evenodd" clip-rule="evenodd" d="M15.998 28.5506C15.998 28.164 16.3114 27.8506 16.698 27.8506H22.5896C22.9762 27.8506 23.2896 28.164 23.2896 28.5506C23.2896 28.9372 22.9762 29.2506 22.5896 29.2506H16.698C16.3114 29.2506 15.998 28.9372 15.998 28.5506Z" fill="#5C85EE"/>
<path fill-rule="evenodd" clip-rule="evenodd" d="M15.998 28.5506C15.998 28.164 16.3114 27.8506 16.698 27.8506H22.5896C22.9762 27.8506 23.2896 28.164 23.2896 28.5506C23.2896 28.9372 22.9762 29.2506 22.5896 29.2506H16.698C16.3114 29.2506 15.998 28.9372 15.998 28.5506Z" fill="#5C85EE"/>
<path fill-rule="evenodd" clip-rule="evenodd" d="M15.998 24.3836C15.998 23.997 16.3114 23.6836 16.698 23.6836H26.7563C27.1429 23.6836 27.4563 23.997 27.4563 24.3836C27.4563 24.7702 27.1429 25.0836 26.7563 25.0836H16.698C16.3114 25.0836 15.998 24.7702 15.998 24.3836Z" fill="#5C85EE"/>
<path fill-rule="evenodd" clip-rule="evenodd" d="M15.998 24.3836C15.998 23.997 16.3114 23.6836 16.698 23.6836H26.7563C27.1429 23.6836 27.4563 23.997 27.4563 24.3836C27.4563 24.7702 27.1429 25.0836 26.7563 25.0836H16.698C16.3114 25.0836 15.998 24.7702 15.998 24.3836Z" fill="#5C85EE"/>
<path fill-rule="evenodd" clip-rule="evenodd" d="M11.2854 24.5888C11.5588 24.8622 11.5588 25.3054 11.2854 25.5788L8.16046 28.7038C8.02919 28.835 7.85114 28.9088 7.66549 28.9088C7.47983 28.9088 7.30178 28.835 7.17051 28.7038L6.12885 27.6621C5.85549 27.3887 5.85549 26.9455 6.12886 26.6721C6.40222 26.3988 6.84544 26.3988 7.11881 26.6722L7.66549 27.2188L10.2955 24.5888C10.5688 24.3154 11.0121 24.3154 11.2854 24.5888Z" fill="#5C85EE"/>
<path fill-rule="evenodd" clip-rule="evenodd" d="M15.998 37.9256C15.998 37.539 16.3114 37.2256 16.698 37.2256H22.5896C22.9762 37.2256 23.2896 37.539 23.2896 37.9256C23.2896 38.3122 22.9762 38.6256 22.5896 38.6256H16.698C16.3114 38.6256 15.998 38.3122 15.998 37.9256Z" fill="#5C85EE"/>
<path fill-rule="evenodd" clip-rule="evenodd" d="M15.998 37.9256C15.998 37.539 16.3114 37.2256 16.698 37.2256H22.5896C22.9762 37.2256 23.2896 37.539 23.2896 37.9256C23.2896 38.3122 22.9762 38.6256 22.5896 38.6256H16.698C16.3114 38.6256 15.998 38.3122 15.998 37.9256Z" fill="#5C85EE"/>
<path fill-rule="evenodd" clip-rule="evenodd" d="M15.998 33.7586C15.998 33.372 16.3114 33.0586 16.698 33.0586H26.7563C27.1429 33.0586 27.4563 33.372 27.4563 33.7586C27.4563 34.1452 27.1429 34.4586 26.7563 34.4586H16.698C16.3114 34.4586 15.998 34.1452 15.998 33.7586Z" fill="#5C85EE"/>
<path fill-rule="evenodd" clip-rule="evenodd" d="M15.998 33.7586C15.998 33.372 16.3114 33.0586 16.698 33.0586H26.7563C27.1429 33.0586 27.4563 33.372 27.4563 33.7586C27.4563 34.1452 27.1429 34.4586 26.7563 34.4586H16.698C16.3114 34.4586 15.998 34.1452 15.998 33.7586Z" fill="#5C85EE"/>
<path fill-rule="evenodd" clip-rule="evenodd" d="M11.2854 33.9638C11.5588 34.2372 11.5588 34.6804 11.2854 34.9538L8.16046 38.0788C8.02919 38.21 7.85114 38.2838 7.66549 38.2838C7.47983 38.2838 7.30179 38.21 7.17051 38.0788L6.12885 37.0371C5.85549 36.7637 5.85549 36.3205 6.12885 36.0471C6.40222 35.7738 6.84544 35.7738 7.1188 36.0471L7.66549 36.5938L10.2955 33.9638C10.5688 33.6904 11.0121 33.6904 11.2854 33.9638Z" fill="#5C85EE"/>
</svg>
