<svg width="36" height="46" viewBox="0 0 36 46" fill="none" xmlns="http://www.w3.org/2000/svg">
<path d="M0 5.00028V41.0006C0 43.762 2.23858 46.0006 5 46.0006H30.1373C32.8988 46.0006 35.1373 43.762 35.1373 41.0006V5.00027C35.1373 2.23899 32.899 0.000466744 30.1377 0.000323895C21.7584 -0.000109593 13.379 -0.000106752 4.99964 0.000325157C2.23836 0.000467486 0 2.239 0 5.00028Z" fill="#5C85EE"/>
<path d="M3.07812 6.38037V33.1444C3.07812 34.8012 4.42128 36.1444 6.07813 36.1444H24.3007H28.9749H29.0513C30.7082 36.1444 32.0513 34.8012 32.0513 33.1444V6.37872C32.0513 4.72187 30.7082 3.37872 29.0513 3.37891C21.3943 3.37979 13.7373 3.3834 6.08026 3.37997C4.42257 3.37923 3.07812 4.72269 3.07812 6.38037Z" fill="#DDE5FA"/>
<path d="M17.5694 43.0383C16.1117 43.0383 14.9258 41.8523 14.9258 40.3946C14.9258 38.9369 16.1117 37.751 17.5694 37.751C19.0271 37.751 20.2131 38.9369 20.2131 40.3946C20.2131 41.8523 19.0271 43.0383 17.5694 43.0383ZM17.5694 39.0986C16.8548 39.0986 16.2734 39.68 16.2734 40.3946C16.2734 41.1092 16.8548 41.6906 17.5694 41.6906C18.284 41.6906 18.8654 41.1092 18.8654 40.3946C18.8654 39.68 18.284 39.0986 17.5694 39.0986Z" fill="#DDE5FA"/>
<path d="M25.0363 11.2021H9.34074C8.61038 11.2021 8.61038 9.85449 9.34074 9.85449H25.0362C25.7667 9.85449 25.7667 11.2021 25.0363 11.2021Z" fill="#5C85EE"/>
<path d="M25.0363 14.4111H9.34074C8.61038 14.4111 8.61038 13.0635 9.34074 13.0635H25.0362C25.7667 13.0635 25.7667 14.4111 25.0363 14.4111Z" fill="#5C85EE"/>
<path d="M22.7768 17.6211H9.34074C8.61038 17.6211 8.61038 16.2734 9.34074 16.2734H22.7767C23.5071 16.2734 23.5071 17.6211 22.7768 17.6211Z" fill="#5C85EE"/>
<path d="M25.0363 20.8301H9.34074C8.61038 20.8301 8.61038 19.4824 9.34074 19.4824H25.0362C25.7667 19.4824 25.7667 20.8301 25.0363 20.8301Z" fill="#5C85EE"/>
<path d="M17.7158 24.0391H9.34074C8.61038 24.0391 8.61038 22.6914 9.34074 22.6914H17.7158C18.4462 22.6914 18.4462 24.0391 17.7158 24.0391Z" fill="#5C85EE"/>
<path d="M25.0363 27.249H9.34074C8.61038 27.249 8.61038 25.9014 9.34074 25.9014H25.0362C25.7667 25.9014 25.7667 27.249 25.0363 27.249Z" fill="#5C85EE"/>
<path d="M22.7768 30.4482H9.34074C8.61038 30.4482 8.61038 29.1006 9.34074 29.1006H22.7767C23.5071 29.1006 23.5071 30.4482 22.7768 30.4482Z" fill="#5C85EE"/>
</svg>
