<svg width="33" height="47" viewBox="0 0 33 47" fill="none" xmlns="http://www.w3.org/2000/svg">
<path fill-rule="evenodd" clip-rule="evenodd" d="M0 3.73446V39.6697C0 40.4249 0.19079 41.0377 0.512956 41.521C0.8322 41.9999 1.25285 42.3104 1.6522 42.51C2.04882 42.7083 2.43695 42.804 2.72003 42.8512C2.86323 42.8751 2.98409 42.8873 3.0719 42.8935C3.11592 42.8967 3.15197 42.8983 3.17876 42.8992C3.18656 42.8995 3.19358 42.8997 3.1998 42.8998C3.20427 42.8999 3.20833 42.9 3.21195 42.9001L3.22311 42.9002L3.22729 42.9002L3.22901 42.9002C3.22901 42.9002 3.2305 41.7317 3.2305 42.9002H30.7782C31.8828 42.9002 32.7782 42.0048 32.7782 40.9002V37.1392V3C32.7782 1.34315 31.4351 0 29.7782 0H5.2549H3.7366C1.67358 0 0 1.67015 0 3.73446Z" fill="#5C85EE"/>
<path fill-rule="evenodd" clip-rule="evenodd" d="M17.7304 24.3258C20.8299 24.3258 23.3425 21.8133 23.3425 18.7138C23.3425 15.6144 20.8299 13.1018 17.7304 13.1018C14.631 13.1018 12.1184 15.6144 12.1184 18.7138C12.1184 21.8133 14.631 24.3258 17.7304 24.3258ZM17.7304 25.4989C21.4777 25.4989 24.5155 22.4611 24.5155 18.7138C24.5155 14.9665 21.4777 11.9287 17.7304 11.9287C13.9831 11.9287 10.9453 14.9665 10.9453 18.7138C10.9453 22.4611 13.9831 25.4989 17.7304 25.4989Z" fill="#E8EEFF"/>
<path fill-rule="evenodd" clip-rule="evenodd" d="M15.9453 15.7578L20.9453 18.4851L15.9453 21.6669V15.7578Z" fill="#E8EEFF"/>
<path fill-rule="evenodd" clip-rule="evenodd" d="M5 38L5 0L6 0L6 38H5Z" fill="#8098F5"/>
<path d="M5.30022 37.8271H31.4235V41.4882H3.27927L3.27811 41.4882L3.27072 41.4879C3.26044 41.4876 3.24213 41.4868 3.21696 41.485C3.17391 41.4817 3.06937 41.4718 2.9955 41.4581C2.80411 41.4262 2.55963 41.3637 2.32361 41.2457C2.09034 41.1291 1.87836 40.9651 1.72314 40.7323C1.57084 40.5039 1.44531 40.1678 1.44531 39.6576C1.44531 39.1475 1.57084 38.8114 1.72314 38.583C1.87836 38.3502 2.09034 38.1862 2.32361 38.0696C2.55963 37.9516 2.80411 37.8891 2.9955 37.8572C3.08954 37.8415 3.16637 37.8339 3.21696 37.8303C3.2234 37.8293 3.24488 37.8271 3.27927 37.8271H5.30022Z" fill="#E8EEFF"/>
<path d="M5 40V46.0463V47L5.89148 46.6458L8 45.8081L10.1085 46.6458L11 47V46.0463V40H5Z" fill="#5C85EE"/>
</svg>
