<svg width="14" height="14" viewBox="0 0 14 14" fill="none" xmlns="http://www.w3.org/2000/svg">
<path d="M7 0C3.13306 0 0 3.13306 0 7C0 10.8669 3.13306 14 7 14C10.8669 14 14 10.8669 14 7C14 3.13306 10.8669 0 7 0ZM13.0968 7C13.0968 10.3504 10.3843 13.0968 7 13.0968C3.6496 13.0968 0.903226 10.3843 0.903226 7C0.903226 3.6496 3.61573 0.903226 7 0.903226C10.3504 0.903226 13.0968 3.61573 13.0968 7ZM8.89395 9.49234L6.60202 7.82702C6.51452 7.7621 6.46371 7.66048 6.46371 7.55323V3.04839C6.46371 2.8621 6.61613 2.70968 6.80242 2.70968H7.19758C7.38387 2.70968 7.53629 2.8621 7.53629 3.04839V7.17782L9.52621 8.62581C9.67863 8.73589 9.70968 8.94758 9.5996 9.1L9.36814 9.41895C9.25806 9.56855 9.04637 9.60242 8.89395 9.49234V9.49234Z" fill="#6281D9"/>
</svg>
