<svg width="13" height="14" viewBox="0 0 13 14" fill="none" xmlns="http://www.w3.org/2000/svg">
<path d="M10.9375 1.75H9.625V0.328125C9.625 0.147656 9.47734 0 9.29688 0H9.07812C8.89766 0 8.75 0.147656 8.75 0.328125V1.75H3.5V0.328125C3.5 0.147656 3.35234 0 3.17188 0H2.95312C2.77266 0 2.625 0.147656 2.625 0.328125V1.75H1.3125C0.587891 1.75 0 2.33789 0 3.0625V12.6875C0 13.4121 0.587891 14 1.3125 14H10.9375C11.6621 14 12.25 13.4121 12.25 12.6875V3.0625C12.25 2.33789 11.6621 1.75 10.9375 1.75ZM1.3125 2.625H10.9375C11.1781 2.625 11.375 2.82187 11.375 3.0625V4.375H0.875V3.0625C0.875 2.82187 1.07187 2.625 1.3125 2.625ZM10.9375 13.125H1.3125C1.07187 13.125 0.875 12.9281 0.875 12.6875V5.25H11.375V12.6875C11.375 12.9281 11.1781 13.125 10.9375 13.125ZM4.04688 8.75H2.95312C2.77266 8.75 2.625 8.60234 2.625 8.42188V7.32812C2.625 7.14766 2.77266 7 2.95312 7H4.04688C4.22734 7 4.375 7.14766 4.375 7.32812V8.42188C4.375 8.60234 4.22734 8.75 4.04688 8.75ZM6.67188 8.75H5.57812C5.39766 8.75 5.25 8.60234 5.25 8.42188V7.32812C5.25 7.14766 5.39766 7 5.57812 7H6.67188C6.85234 7 7 7.14766 7 7.32812V8.42188C7 8.60234 6.85234 8.75 6.67188 8.75ZM9.29688 8.75H8.20312C8.02266 8.75 7.875 8.60234 7.875 8.42188V7.32812C7.875 7.14766 8.02266 7 8.20312 7H9.29688C9.47734 7 9.625 7.14766 9.625 7.32812V8.42188C9.625 8.60234 9.47734 8.75 9.29688 8.75ZM6.67188 11.375H5.57812C5.39766 11.375 5.25 11.2273 5.25 11.0469V9.95312C5.25 9.77266 5.39766 9.625 5.57812 9.625H6.67188C6.85234 9.625 7 9.77266 7 9.95312V11.0469C7 11.2273 6.85234 11.375 6.67188 11.375ZM4.04688 11.375H2.95312C2.77266 11.375 2.625 11.2273 2.625 11.0469V9.95312C2.625 9.77266 2.77266 9.625 2.95312 9.625H4.04688C4.22734 9.625 4.375 9.77266 4.375 9.95312V11.0469C4.375 11.2273 4.22734 11.375 4.04688 11.375ZM9.29688 11.375H8.20312C8.02266 11.375 7.875 11.2273 7.875 11.0469V9.95312C7.875 9.77266 8.02266 9.625 8.20312 9.625H9.29688C9.47734 9.625 9.625 9.77266 9.625 9.95312V11.0469C9.625 11.2273 9.47734 11.375 9.29688 11.375Z" fill="#6281D9"/>
</svg>
