<svg width="33" height="44" viewBox="0 0 33 44" fill="none" xmlns="http://www.w3.org/2000/svg">
<path d="M29.4843 9.27783L29.4772 19.9965C28.3724 19.9979 27.2676 19.9991 26.1628 20L26.1699 9.27882L25 6.97935L26.2954 0.00323749L29.3704 0L30.6572 6.97512L29.4843 9.27783Z" fill="#C5D2F2"/>
<path d="M32.9953 28.477L32.848 28.2815C32.0747 27.2534 32.0299 25.8386 32.7379 24.7593L32.9978 24.3622L32.9997 22.0271C33.0006 20.9072 32.105 19.9992 31.0004 20L24.0088 20.0053C22.9065 20.0061 22.0132 20.9119 22.0125 22.0295L22.0111 24.3683L22.2712 24.7666C22.977 25.8436 22.9303 27.2589 22.1549 28.288L22.0078 28.4833L22.0082 37.5C22.0074 39.1156 22.6583 40.5937 23.6993 41.6492C24.6509 42.614 25.9285 43.2256 27.331 43.2671C28.8312 43.3112 30.25 42.7528 31.3254 41.6946C32.4015 40.6362 32.9952 39.216 32.9964 37.6963L32.9953 28.477Z" fill="#5C85EE"/>
<path d="M26.9845 28.5498L25.6758 28.5488L25.6692 37.4688L26.9779 37.4697L26.9845 28.5498Z" fill="#B9CBFF"/>
<path d="M29.6915 28.5478L28.3828 28.5469L28.3763 37.4668L29.685 37.4678L29.6915 28.5478Z" fill="#B9CBFF"/>
<path d="M5.43993 43.3253C5.35586 43.3253 5.27179 43.3092 5.19157 43.2765C2.36053 42.1214 0.53125 39.3972 0.53125 36.3364C0.53125 33.4303 2.18662 30.8251 4.78471 29.5811V14.4203C2.18662 13.1763 0.53125 10.5711 0.53125 7.66501C0.53125 4.60423 2.36053 1.88003 5.19157 0.724901C5.3934 0.641474 5.62507 0.66554 5.80636 0.787791C5.98797 0.910043 6.09707 1.11444 6.09707 1.33327V5.33645C6.09707 6.39725 6.95989 7.26007 8.02069 7.26007C9.08149 7.26007 9.94431 6.39725 9.94431 5.33645V1.33327C9.94431 1.11444 10.0534 0.910043 10.235 0.787791C10.4166 0.66554 10.6464 0.642116 10.8498 0.724901C13.5823 1.83993 15.4132 4.46208 15.5137 7.40543C15.6138 10.3369 13.9199 13.0925 11.2605 14.3966V29.6049C13.9199 30.9089 15.6138 33.6645 15.5137 36.596C15.4132 39.5393 13.5823 42.1615 10.8498 43.2765C10.6461 43.3586 10.4166 43.3349 10.235 43.2136C10.0534 43.0914 9.94431 42.887 9.94431 42.6681V38.665C9.94431 37.6042 9.08149 36.7413 8.02069 36.7413C6.95989 36.7413 6.09707 37.6042 6.09707 38.665V42.6681C6.09707 42.887 5.98797 43.0914 5.80636 43.2136C5.69662 43.2874 5.5686 43.3253 5.43993 43.3253Z" fill="#5C85EE"/>
<path fill-rule="evenodd" clip-rule="evenodd" d="M7.34961 29V15H8.64961V29H7.34961Z" fill="#B9CCFF"/>
</svg>
