<svg width="38" height="42" viewBox="0 0 38 42" fill="none" xmlns="http://www.w3.org/2000/svg">
<path d="M13.5927 30.9917H18.1546L18.1544 40.4917C18.1544 41.0735 18.6274 41.5466 19.2112 41.5466C19.7931 41.5466 20.2661 41.0735 20.2661 40.4917V30.9917H24.8301L28.7864 40.8833C29.0022 41.4237 29.6177 41.6869 30.158 41.4712C30.7003 41.2534 30.9635 40.6399 30.7458 40.0996L27.1022 30.9913L26.178 28.8799H12.2447L11.3186 30.9913L7.67495 40.0996C7.45926 40.6399 7.72248 41.2534 8.26279 41.4712C8.80507 41.6868 9.4186 41.4236 9.63631 40.8833L13.5927 30.9917Z" fill="#5C85EE"/>
<path d="M20.35 1.05478V4.98145H18.2385L18.2383 1.05478C18.2383 0.472916 18.7113 -0.000103474 19.2951 -0.000103474C19.877 -0.000103474 20.35 0.472921 20.35 1.05478Z" fill="#5C85EE"/>
<rect x="2.02539" y="6.0791" width="33.9467" height="21.7867" fill="#D4DFFA"/>
<path fill-rule="evenodd" clip-rule="evenodd" d="M20.0172 20.6886H20.3323C20.8105 20.6886 21.1647 21.0825 21.1647 21.5289C21.1647 21.9754 20.8105 22.3692 20.3323 22.3692H18.0383C17.5595 22.3692 17.207 21.9747 17.207 21.5289C17.207 21.0831 17.5595 20.6886 18.0383 20.6886H18.3534V16.43H18.0383C17.5592 16.43 17.207 16.0341 17.207 15.5897C17.207 15.1445 17.5589 14.7483 18.0383 14.7483H19.1859C19.6639 14.7483 20.0172 15.1442 20.0172 15.5897V20.6886ZM20.5904 12.6196C20.5904 13.3925 19.9812 14.0546 19.1858 14.0546C18.3908 14.0546 17.7802 13.3928 17.7802 12.6196C17.7802 11.8463 18.3908 11.1846 19.1858 11.1846C19.9812 11.1846 20.5904 11.8466 20.5904 12.6196Z" fill="#5C85EE"/>
<rect y="3.04004" width="38" height="3.04" rx="1.52" fill="#5C85EE"/>
<rect y="27.8662" width="38" height="3.04" rx="1.52" fill="#5C85EE"/>
</svg>
