<svg width="11" height="14" viewBox="0 0 11 14" fill="none" xmlns="http://www.w3.org/2000/svg">
<path d="M5.25 2.625C3.80256 2.625 2.625 3.80256 2.625 5.25C2.625 6.69744 3.80256 7.875 5.25 7.875C6.69744 7.875 7.875 6.69744 7.875 5.25C7.875 3.80256 6.69744 2.625 5.25 2.625ZM5.25 7C4.28504 7 3.5 6.21496 3.5 5.25C3.5 4.28504 4.28504 3.5 5.25 3.5C6.21496 3.5 7 4.28504 7 5.25C7 6.21496 6.21496 7 5.25 7ZM5.25 0C2.3505 0 0 2.3505 0 5.25C0 7.36677 0.737461 7.95788 4.71046 13.7175C4.97115 14.0941 5.52883 14.0942 5.78958 13.7175C9.76254 7.95788 10.5 7.36677 10.5 5.25C10.5 2.3505 8.14951 0 5.25 0ZM5.25 12.9591C1.44115 7.45085 0.875 7.01351 0.875 5.25C0.875 4.08138 1.33008 2.98274 2.15641 2.15641C2.98274 1.33008 4.08138 0.875 5.25 0.875C6.41862 0.875 7.51727 1.33008 8.34359 2.15641C9.16992 2.98274 9.625 4.08138 9.625 5.25C9.625 7.0134 9.05921 7.45036 5.25 12.9591Z" fill="#6281D9"/>
</svg>
