<svg width="40" height="40" viewBox="0 0 40 40" fill="none" xmlns="http://www.w3.org/2000/svg">
<path d="M31.7705 3C31.7705 1.34315 30.4274 0 28.7705 0H3C1.34315 0 0 1.34314 0 3V36.5833C0 38.2402 1.34314 39.5833 3 39.5833H28.7705C30.4274 39.5833 31.7705 38.2402 31.7705 36.5833V3Z" fill="#CFDBF9"/>
<path fill-rule="evenodd" clip-rule="evenodd" d="M5.77148 12.4666C5.77148 12.08 6.08489 11.7666 6.47148 11.7666H17.7987C18.1853 11.7666 18.4987 12.08 18.4987 12.4666C18.4987 12.8532 18.1853 13.1666 17.7987 13.1666H6.47148C6.08489 13.1666 5.77148 12.8532 5.77148 12.4666Z" fill="#5C85EE"/>
<path fill-rule="evenodd" clip-rule="evenodd" d="M5.77148 12.4666C5.77148 12.08 6.08489 11.7666 6.47148 11.7666H17.7987C18.1853 11.7666 18.4987 12.08 18.4987 12.4666C18.4987 12.8532 18.1853 13.1666 17.7987 13.1666H6.47148C6.08489 13.1666 5.77148 12.8532 5.77148 12.4666Z" fill="#5C85EE"/>
<path fill-rule="evenodd" clip-rule="evenodd" d="M5.77148 8.29961C5.77148 7.91301 6.08489 7.59961 6.47148 7.59961H25.0715C25.4581 7.59961 25.7715 7.91301 25.7715 8.29961C25.7715 8.68621 25.4581 8.99961 25.0715 8.99961H6.47148C6.08489 8.99961 5.77148 8.68621 5.77148 8.29961Z" fill="#5C85EE"/>
<path fill-rule="evenodd" clip-rule="evenodd" d="M5.77148 8.29961C5.77148 7.91301 6.08489 7.59961 6.47148 7.59961H25.0715C25.4581 7.59961 25.7715 7.91301 25.7715 8.29961C25.7715 8.68621 25.4581 8.99961 25.0715 8.99961H6.47148C6.08489 8.99961 5.77148 8.68621 5.77148 8.29961Z" fill="#5C85EE"/>
<path d="M18.2266 30.4277L34.0005 15.092L37.4859 18.677L21.7119 34.0127L18.2266 30.4277Z" fill="#5C85EE"/>
<path fill-rule="evenodd" clip-rule="evenodd" d="M21.7119 34.0127L18.2266 30.4277L18.9436 29.7307L22.4289 33.3156L21.7119 34.0127Z" fill="#D4DFFA"/>
<path d="M34.0004 15.0919L37.4858 18.6769L38.2028 17.9798C38.9947 17.2098 39.0126 15.9436 38.2426 15.1517L37.5455 14.4347C36.7756 13.6427 35.5094 13.6249 34.7174 14.3948L34.0004 15.0919Z" fill="#5C85EE"/>
<path d="M21.7119 34.0126L18.2265 30.4276L16.7427 35.3569L21.7119 34.0126Z" fill="#5C85EE"/>
<path fill-rule="evenodd" clip-rule="evenodd" d="M37.128 19.0254L33.6426 15.4404L34.3596 14.7434L37.845 18.3283L37.128 19.0254Z" fill="#D4DFFA"/>
</svg>
