<svg width="67" height="67" viewBox="0 0 67 67" fill="none" xmlns="http://www.w3.org/2000/svg">
<g filter="url(#filter0_d)">
<path d="M50.434 13.4665C50.252 11.8197 48.7694 10.6323 47.1226 10.8143L15.1921 14.3444C13.5453 14.5264 12.3579 16.0091 12.5399 17.6559L17.1001 58.9046C17.2822 60.5514 18.7648 61.7388 20.4116 61.5568L52.3421 58.0267C53.9889 57.8446 55.1763 56.362 54.9943 54.7152L50.434 13.4665Z" fill="white"/>
<path fill-rule="evenodd" clip-rule="evenodd" d="M15.2451 14.8407C13.8728 14.9925 12.8833 16.228 13.035 17.6003L17.5952 58.849C17.7469 60.2214 18.9824 61.2109 20.3548 61.0592L52.2852 57.5291C53.6576 57.3774 54.6471 56.1419 54.4954 54.7695L49.9352 13.5208C49.7834 12.1485 48.5479 11.159 47.1756 11.3107L15.2451 14.8407ZM12.041 17.7102C11.8286 15.7889 13.2139 14.0592 15.1352 13.8468L47.0657 10.3167C48.987 10.1043 50.7167 11.4897 50.9291 13.4109L55.4893 54.6596C55.7017 56.5809 54.3164 58.3106 52.3951 58.523L20.4647 62.0531C18.5434 62.2655 16.8137 60.8802 16.6013 58.9589L12.041 17.7102Z" fill="#0295C5"/>
<path d="M20.4759 15.5206L20.16 12.663C20.0386 11.5651 20.8302 10.5767 21.9281 10.4553L26.2743 9.97486C26.8932 9.90644 27.3422 9.33927 27.4738 8.73074C27.6742 7.80391 28.2972 6.6072 30.1575 6.40151C32.0179 6.19583 32.8872 7.22758 33.2852 8.08826C33.5465 8.65335 34.1086 9.10874 34.7275 9.04032L39.0737 8.55983C40.1715 8.43846 41.16 9.23007 41.2813 10.328L41.5972 13.1855C41.7186 14.2834 40.927 15.2718 39.8291 15.3932L22.6836 17.2887C21.5857 17.4101 20.5973 16.6185 20.4759 15.5206Z" fill="#0295C5"/>
<path fill-rule="evenodd" clip-rule="evenodd" d="M31.4898 27.5572C31.4473 27.1729 31.7244 26.827 32.1086 26.7845L37.9646 26.1371C38.3488 26.0946 38.6948 26.3717 38.7372 26.7559C38.7797 27.1402 38.5026 27.4861 38.1184 27.5286L32.2625 28.176C31.8782 28.2185 31.5323 27.9414 31.4898 27.5572Z" fill="#0295C5"/>
<path fill-rule="evenodd" clip-rule="evenodd" d="M30.9839 22.9849C30.9415 22.6006 31.2185 22.2547 31.6028 22.2122L41.6001 21.107C41.9844 21.0645 42.3303 21.3416 42.3728 21.7258C42.4153 22.1101 42.1382 22.456 41.7539 22.4985L31.7566 23.6037C31.3724 23.6462 31.0264 23.3692 30.9839 22.9849Z" fill="#0295C5"/>
<path fill-rule="evenodd" clip-rule="evenodd" d="M24.103 24.4501L22.1151 24.6699C21.7858 24.7063 21.5483 25.0028 21.5847 25.3322L21.8045 27.3201C21.8409 27.6494 22.1374 27.8869 22.4668 27.8505L24.4547 27.6307C24.784 27.5943 25.0215 27.2978 24.9851 26.9684L24.7653 24.9805C24.7289 24.6512 24.4324 24.4137 24.103 24.4501ZM21.9613 23.2784C20.8634 23.3997 20.0718 24.3881 20.1932 25.486L20.413 27.4739C20.5343 28.5718 21.5227 29.3634 22.6206 29.242L24.6085 29.0222C25.7064 28.9009 26.498 27.9125 26.3766 26.8146L26.1569 24.8267C26.0355 23.7288 25.0471 22.9372 23.9492 23.0586L21.9613 23.2784Z" fill="#0295C5"/>
<path fill-rule="evenodd" clip-rule="evenodd" d="M32.8084 39.4845C32.7659 39.1002 33.043 38.7543 33.4273 38.7118L39.2832 38.0644C39.6674 38.0219 40.0134 38.299 40.0559 38.6833C40.0983 39.0675 39.8213 39.4135 39.437 39.4559L33.5811 40.1033C33.1968 40.1458 32.8509 39.8688 32.8084 39.4845Z" fill="#0295C5"/>
<path fill-rule="evenodd" clip-rule="evenodd" d="M32.3026 34.9122C32.2601 34.528 32.5371 34.182 32.9214 34.1395L42.9187 33.0343C43.303 32.9918 43.6489 33.2689 43.6914 33.6531C43.7339 34.0374 43.4568 34.3833 43.0726 34.4258L33.0752 35.5311C32.691 35.5736 32.345 35.2965 32.3026 34.9122Z" fill="#0295C5"/>
<path fill-rule="evenodd" clip-rule="evenodd" d="M25.4217 36.3774L23.4338 36.5972C23.1044 36.6336 22.8669 36.9301 22.9033 37.2595L23.1231 39.2474C23.1595 39.5768 23.456 39.8142 23.7854 39.7778L25.7733 39.5581C26.1027 39.5216 26.3401 39.2251 26.3037 38.8958L26.084 36.9079C26.0475 36.5785 25.751 36.341 25.4217 36.3774ZM23.2799 35.2057C22.1821 35.3271 21.3904 36.3155 21.5118 37.4133L21.7316 39.4012C21.853 40.4991 22.8414 41.2907 23.9392 41.1693L25.9271 40.9496C27.025 40.8282 27.8166 39.8398 27.6952 38.7419L27.4755 36.754C27.3541 35.6561 26.3657 34.8645 25.2678 34.9859L23.2799 35.2057Z" fill="#0295C5"/>
<path fill-rule="evenodd" clip-rule="evenodd" d="M34.127 51.4118C34.0846 51.0276 34.3616 50.6816 34.7459 50.6391L40.6018 49.9917C40.9861 49.9493 41.332 50.2263 41.3745 50.6106C41.417 50.9948 41.1399 51.3408 40.7556 51.3833L34.8997 52.0307C34.5155 52.0731 34.1695 51.7961 34.127 51.4118Z" fill="#0295C5"/>
<path fill-rule="evenodd" clip-rule="evenodd" d="M33.6212 46.8396C33.5787 46.4553 33.8558 46.1094 34.24 46.0669L44.2373 44.9616C44.6216 44.9192 44.9675 45.1962 45.01 45.5805C45.0525 45.9647 44.7754 46.3107 44.3912 46.3532L34.3939 47.4584C34.0096 47.5009 33.6637 47.2238 33.6212 46.8396Z" fill="#0295C5"/>
<path fill-rule="evenodd" clip-rule="evenodd" d="M26.7403 48.3048L24.7524 48.5245C24.423 48.5609 24.1855 48.8575 24.222 49.1868L24.4417 51.1747C24.4781 51.5041 24.7747 51.7416 25.104 51.7052L27.0919 51.4854C27.4213 51.449 27.6588 51.1525 27.6223 50.8231L27.4026 48.8352C27.3662 48.5058 27.0696 48.2684 26.7403 48.3048ZM24.5986 47.133C23.5007 47.2544 22.7091 48.2428 22.8304 49.3407L23.0502 51.3286C23.1716 52.4264 24.16 53.2181 25.2579 53.0967L27.2458 52.8769C28.3436 52.7555 29.1352 51.7671 29.0139 50.6693L28.7941 48.6814C28.6727 47.5835 27.6843 46.7919 26.5864 46.9132L24.5986 47.133Z" fill="#0295C5"/>
</g>
<defs>
<filter id="filter0_d" x="0.0195312" y="-1.625" width="67.4913" height="79.6996" filterUnits="userSpaceOnUse" color-interpolation-filters="sRGB">
<feFlood flood-opacity="0" result="BackgroundImageFix"/>
<feColorMatrix in="SourceAlpha" type="matrix" values="0 0 0 0 0 0 0 0 0 0 0 0 0 0 0 0 0 0 127 0"/>
<feOffset dy="4"/>
<feGaussianBlur stdDeviation="6"/>
<feColorMatrix type="matrix" values="0 0 0 0 0 0 0 0 0 0 0 0 0 0 0 0 0 0 0.12 0"/>
<feBlend mode="normal" in2="BackgroundImageFix" result="effect1_dropShadow"/>
<feBlend mode="normal" in="SourceGraphic" in2="effect1_dropShadow" result="shape"/>
</filter>
</defs>
</svg>
