<svg width="23" height="23" viewBox="0 0 23 23" fill="none" xmlns="http://www.w3.org/2000/svg">
<path d="M19.8957 1.26604C18.7183 0.324517 17.2195 -0.119732 15.7188 0.0277561C14.2182 0.175244 12.8351 0.903027 11.8635 2.05564L10.173 4.07909C9.66167 4.69027 9.74381 5.6 10.355 6.11138C10.9662 6.62187 11.8759 6.54061 12.3864 5.92855L14.0769 3.9051C14.5759 3.30982 15.294 2.94151 16.0685 2.88411C16.8431 2.8267 17.608 3.08548 18.1892 3.6004C19.34 4.66999 19.4451 6.45497 18.4294 7.65264L14.9142 11.8611L14.8815 11.8973V11.8964C14.6942 12.1146 14.4743 12.3018 14.2297 12.4529C13.0629 13.1762 11.5483 12.974 10.6129 11.9697C10.0697 11.3886 9.15912 11.3577 8.5762 11.8991C7.99417 12.4414 7.96147 13.3529 8.50201 13.9358C9.82773 15.3578 11.7796 16.0158 13.6954 15.6854C13.9904 15.6342 14.281 15.5591 14.5645 15.4638C15.5661 15.1255 16.4546 14.5169 17.1319 13.7044L20.6383 9.50745V9.50834C21.6452 8.29303 22.1257 6.72613 21.9737 5.15493C21.8351 3.63138 21.0852 2.22892 19.8955 1.26617L19.8957 1.26604Z" fill="#2A84F9"/>
<path d="M9.51452 16.849L8.00333 18.6579L8.00422 18.657C7.00617 19.8705 5.22992 20.0834 3.97324 19.141C3.36294 18.6605 2.97343 17.9539 2.89219 17.182C2.81093 16.4092 3.04587 15.6372 3.54224 15.0411L7.1183 10.7609L7.14479 10.7318H7.14391C7.33204 10.5136 7.55196 10.3264 7.7966 10.1753C8.84851 9.51912 10.2026 9.61361 11.1529 10.4094C11.2633 10.5021 11.3675 10.6028 11.4638 10.7115C11.7411 11.0259 12.143 11.2034 12.5625 11.1972C12.9767 11.1919 13.368 11.0056 13.6347 10.6867L13.6524 10.6655L13.6515 10.6664C14.1081 10.1259 14.0976 9.33276 13.6277 8.8037C12.5166 7.546 10.9117 6.83501 9.23357 6.85796C7.55545 6.88092 5.97089 7.63519 4.89441 8.92292L1.32876 13.1906C0.366932 14.3521 -0.102935 15.8428 0.018935 17.3462C0.139937 18.8485 0.843852 20.2449 1.98057 21.2359C3.13847 22.2357 4.65221 22.7241 6.17683 22.5898C6.35701 22.5757 6.53541 22.5527 6.71206 22.521C8.08282 22.2807 9.32628 21.5653 10.2228 20.501L11.7287 18.6984C12.2392 18.0872 12.1579 17.1775 11.5459 16.667C10.9347 16.1565 10.0249 16.2377 9.51444 16.8489L9.51452 16.849Z" fill="#2A84F9"/>
</svg>
