<svg width="142" height="30" viewBox="0 0 142 30" fill="none" xmlns="http://www.w3.org/2000/svg">
<path fill-rule="evenodd" clip-rule="evenodd" d="M5.57946 4.59716V0H0V4.59716H5.57946ZM0 7.74057V28.0545H5.57946V7.74057H0ZM13.653 17.917C13.653 18.729 13.7316 19.5214 13.8888 20.2941C14.046 21.0669 14.3145 21.761 14.6943 22.3766C15.0741 22.9922 15.5783 23.4833 16.207 23.8501C16.8357 24.2168 17.6215 24.4001 18.5645 24.4001C19.5075 24.4001 20.2999 24.2168 20.9417 23.8501C21.5835 23.4833 22.0943 22.9922 22.4741 22.3766C22.8539 21.761 23.1224 21.0669 23.2796 20.2941C23.4367 19.5214 23.5153 18.729 23.5153 17.917C23.5153 17.1049 23.4367 16.306 23.2796 15.5202C23.1224 14.7343 22.8539 14.0402 22.4741 13.4377C22.0943 12.8352 21.5835 12.3441 20.9417 11.9643C20.2999 11.5844 19.5075 11.3945 18.5645 11.3945C17.6215 11.3945 16.8357 11.5844 16.207 11.9643C15.5783 12.3441 15.0741 12.8352 14.6943 13.4377C14.3145 14.0402 14.046 14.7343 13.8888 15.5202C13.7316 16.306 13.653 17.1049 13.653 17.917ZM8.07358 17.9172C8.07358 16.2931 8.32243 14.8197 8.82013 13.4969C9.31783 12.174 10.0251 11.0477 10.9419 10.1177C11.8587 9.18783 12.9589 8.46748 14.2424 7.95669C15.526 7.44589 16.9667 7.19049 18.5645 7.19049C20.1624 7.19049 21.6096 7.44589 22.9063 7.95669C24.2029 8.46748 25.3096 9.18783 26.2265 10.1177C27.1433 11.0477 27.8505 12.174 28.3482 13.4969C28.8459 14.8197 29.0948 16.2931 29.0948 17.9172C29.0948 19.5413 28.8459 21.0082 28.3482 22.3179C27.8505 23.6276 27.1433 24.7474 26.2265 25.6774C25.3096 26.6073 24.2029 27.3211 22.9063 27.8188C21.6096 28.3165 20.1624 28.5653 18.5645 28.5653C16.9667 28.5653 15.526 28.3165 14.2424 27.8188C12.9589 27.3211 11.8587 26.6073 10.9419 25.6774C10.0251 24.7474 9.31783 23.6276 8.82013 22.3179C8.32243 21.0082 8.07358 19.5413 8.07358 17.9172ZM45.2627 14.8917H50.7243C50.6457 13.582 50.3314 12.4491 49.7813 11.493C49.2312 10.5369 48.5174 9.73792 47.6399 9.09615C46.7623 8.45438 45.7669 7.97633 44.6537 7.662C43.5404 7.34766 42.3813 7.19049 41.1763 7.19049C39.5261 7.19049 38.0592 7.46553 36.7756 8.01562C35.4921 8.56571 34.405 9.3319 33.5144 10.3142C32.6238 11.2965 31.9493 12.4622 31.4909 13.8112C31.0325 15.1602 30.8033 16.6206 30.8033 18.1922C30.8033 19.7115 31.0521 21.1064 31.5498 22.3768C32.0475 23.6473 32.7417 24.7409 33.6323 25.6577C34.5229 26.5745 35.6034 27.2883 36.8739 27.7991C38.1443 28.3099 39.5392 28.5653 41.0585 28.5653C43.7565 28.5653 45.9699 27.8581 47.6988 26.4435C49.4276 25.029 50.4754 22.9728 50.8421 20.2747H45.4592C45.2758 21.5321 44.8239 22.534 44.1036 23.2805C43.3832 24.0271 42.3551 24.4004 41.0192 24.4004C40.1547 24.4004 39.4213 24.2039 38.8188 23.811C38.2163 23.4181 37.7383 22.9138 37.3847 22.2982C37.031 21.6827 36.7756 20.9951 36.6185 20.2354C36.4613 19.4758 36.3827 18.7292 36.3827 17.9958C36.3827 17.2361 36.4613 16.4699 36.6185 15.6972C36.7756 14.9245 37.0441 14.2172 37.4239 13.5754C37.8038 12.9337 38.2949 12.4098 38.8974 12.0038C39.4999 11.5977 40.2464 11.3947 41.137 11.3947C43.5208 11.3947 44.896 12.5604 45.2627 14.8917Z" fill="white"/>
<path fill-rule="evenodd" clip-rule="evenodd" d="M75.4919 9.94625V8.52599H73.7681V9.94625H75.4919ZM73.7681 10.9174V17.1932H75.4918V10.9174H73.7681ZM76.468 10.9171V17.193H78.1917V13.9033C78.1917 13.264 78.2969 12.8047 78.5073 12.5255C78.7177 12.2463 79.0576 12.1068 79.527 12.1068C79.9397 12.1068 80.227 12.2342 80.3889 12.4891C80.5507 12.744 80.6317 13.1305 80.6317 13.6484V17.193H82.3554V13.3328C82.3554 12.9443 82.321 12.5903 82.2522 12.2706C82.1834 11.951 82.0641 11.6799 81.8941 11.4573C81.7242 11.2348 81.4915 11.0608 81.1961 10.9353C80.9007 10.8099 80.5224 10.7472 80.0611 10.7472C79.697 10.7472 79.3409 10.8301 78.9929 10.996C78.6449 11.1619 78.3617 11.427 78.1432 11.7911H78.1068V10.9171H76.468ZM84.6183 15.1536H82.9795C82.9957 15.5745 83.0908 15.9245 83.2648 16.2037C83.4388 16.4829 83.6613 16.7074 83.9324 16.8774C84.2035 17.0473 84.5131 17.1687 84.8611 17.2415C85.2091 17.3144 85.5651 17.3508 85.9293 17.3508C86.2854 17.3508 86.6354 17.3164 86.9793 17.2476C87.3233 17.1788 87.6288 17.0595 87.8958 16.8895C88.1629 16.7196 88.3794 16.495 88.5453 16.2158C88.7112 15.9366 88.7941 15.5906 88.7941 15.1779C88.7941 14.8866 88.7375 14.6418 88.6242 14.4435C88.5109 14.2452 88.3611 14.0793 88.175 13.9458C87.9889 13.8123 87.7765 13.705 87.5377 13.6241C87.299 13.5432 87.0542 13.4744 86.8033 13.4178C86.5605 13.3611 86.3218 13.3085 86.0871 13.26C85.8524 13.2114 85.644 13.1568 85.462 13.0961C85.2799 13.0354 85.1322 12.9565 85.0189 12.8594C84.9056 12.7623 84.8489 12.6368 84.8489 12.4831C84.8489 12.3536 84.8813 12.2504 84.946 12.1735C85.0108 12.0966 85.0897 12.038 85.1828 11.9975C85.2758 11.957 85.379 11.9307 85.4923 11.9186C85.6056 11.9065 85.7108 11.9004 85.8079 11.9004C86.1154 11.9004 86.3825 11.9591 86.6091 12.0764C86.8357 12.1937 86.9611 12.4183 86.9854 12.7501H88.6242C88.5918 12.3617 88.4927 12.04 88.3268 11.7851C88.1609 11.5301 87.9525 11.3258 87.7016 11.172C87.4507 11.0183 87.1655 10.909 86.8458 10.8443C86.5261 10.7796 86.1964 10.7472 85.8565 10.7472C85.5166 10.7472 85.1848 10.7775 84.8611 10.8382C84.5374 10.8989 84.246 11.0041 83.9871 11.1538C83.7281 11.3036 83.5197 11.5079 83.3619 11.7669C83.2041 12.0258 83.1252 12.3576 83.1252 12.7623C83.1252 13.0374 83.1818 13.2701 83.2951 13.4602C83.4084 13.6504 83.5582 13.8082 83.7443 13.9337C83.9304 14.0591 84.1428 14.1603 84.3816 14.2371C84.6203 14.314 84.8651 14.3808 85.116 14.4374C85.731 14.5669 86.2105 14.6964 86.5545 14.8259C86.8984 14.9554 87.0704 15.1496 87.0704 15.4086C87.0704 15.5623 87.0339 15.6898 86.9611 15.7909C86.8883 15.8921 86.7972 15.973 86.688 16.0337C86.5787 16.0944 86.4573 16.1389 86.3238 16.1672C86.1903 16.1956 86.0628 16.2097 85.9414 16.2097C85.7715 16.2097 85.6076 16.1895 85.4498 16.149C85.292 16.1086 85.1524 16.0458 85.031 15.9609C84.9096 15.8759 84.8105 15.7667 84.7336 15.6331C84.6567 15.4996 84.6183 15.3398 84.6183 15.1536ZM91.6034 10.9172V9.03568H89.8797V10.9172H88.8357V12.0704H89.8797V15.7728C89.8797 16.0884 89.9323 16.3433 90.0375 16.5376C90.1427 16.7318 90.2863 16.8815 90.4684 16.9867C90.6505 17.0919 90.8609 17.1627 91.0997 17.1991C91.3384 17.2356 91.5913 17.2538 91.8583 17.2538C92.0283 17.2538 92.2023 17.2497 92.3803 17.2416C92.5584 17.2335 92.7202 17.2174 92.8659 17.1931V15.8578C92.7849 15.874 92.7 15.8861 92.611 15.8942C92.5219 15.9023 92.4289 15.9063 92.3318 15.9063C92.0404 15.9063 91.8462 15.8578 91.7491 15.7607C91.652 15.6636 91.6034 15.4693 91.6034 15.178V12.0704H92.8659V10.9172H91.6034ZM95.0804 9.94614V8.52588H93.3566V9.94614H95.0804ZM93.3566 10.9174V17.1932H95.0804V10.9174H93.3566ZM98.2414 10.9172V9.03568H96.5177V10.9172H95.4737V12.0704H96.5177V15.7728C96.5177 16.0884 96.5703 16.3433 96.6755 16.5376C96.7807 16.7318 96.9243 16.8815 97.1064 16.9867C97.2885 17.0919 97.4989 17.1627 97.7377 17.1991C97.9764 17.2356 98.2293 17.2538 98.4963 17.2538C98.6663 17.2538 98.8403 17.2497 99.0183 17.2416C99.1964 17.2335 99.3582 17.2174 99.5039 17.1931V15.8578C99.4229 15.874 99.338 15.8861 99.249 15.8942C99.1599 15.9023 99.0669 15.9063 98.9698 15.9063C98.6784 15.9063 98.4842 15.8578 98.3871 15.7607C98.29 15.6636 98.2414 15.4693 98.2414 15.178V12.0704H99.5039V10.9172H98.2414ZM105.834 17.1932V10.9174H104.11V14.2071C104.11 14.8464 104.005 15.3056 103.794 15.5848C103.584 15.864 103.244 16.0036 102.775 16.0036C102.362 16.0036 102.075 15.8762 101.913 15.6212C101.751 15.3663 101.67 14.9799 101.67 14.462V10.9174H99.9462V14.7776C99.9462 15.166 99.9806 15.5201 100.049 15.8397C100.118 16.1594 100.238 16.4305 100.407 16.6531C100.577 16.8756 100.81 17.0476 101.105 17.169C101.401 17.2904 101.779 17.3511 102.24 17.3511C102.605 17.3511 102.961 17.2701 103.309 17.1083C103.657 16.9464 103.94 16.6834 104.158 16.3192H104.195V17.1932H105.834ZM108.946 10.9172V9.03568H107.222V10.9172H106.178V12.0704H107.222V15.7728C107.222 16.0884 107.275 16.3433 107.38 16.5376C107.485 16.7318 107.629 16.8815 107.811 16.9867C107.993 17.0919 108.204 17.1627 108.442 17.1991C108.681 17.2356 108.934 17.2538 109.201 17.2538C109.371 17.2538 109.545 17.2497 109.723 17.2416C109.901 17.2335 110.063 17.2174 110.209 17.1931V15.8578C110.128 15.874 110.043 15.8861 109.954 15.8942C109.865 15.9023 109.772 15.9063 109.674 15.9063C109.383 15.9063 109.189 15.8578 109.092 15.7607C108.995 15.6636 108.946 15.4693 108.946 15.178V12.0704H110.209V10.9172H108.946ZM114.66 14.0612C114.66 14.3121 114.685 14.5569 114.733 14.7956C114.782 15.0343 114.865 15.2488 114.982 15.439C115.099 15.6291 115.255 15.7809 115.449 15.8942C115.644 16.0075 115.886 16.0641 116.178 16.0641C116.469 16.0641 116.714 16.0075 116.912 15.8942C117.11 15.7809 117.268 15.6291 117.386 15.439C117.503 15.2488 117.586 15.0343 117.634 14.7956C117.683 14.5569 117.707 14.3121 117.707 14.0612C117.707 13.8103 117.683 13.5635 117.634 13.3207C117.586 13.0779 117.503 12.8635 117.386 12.6773C117.268 12.4912 117.11 12.3395 116.912 12.2221C116.714 12.1048 116.469 12.0461 116.178 12.0461C115.886 12.0461 115.644 12.1048 115.449 12.2221C115.255 12.3395 115.099 12.4912 114.982 12.6773C114.865 12.8635 114.782 13.0779 114.733 13.3207C114.685 13.5635 114.66 13.8103 114.66 14.0612ZM112.937 14.0611C112.937 13.5594 113.014 13.1042 113.167 12.6955C113.321 12.2868 113.54 11.9388 113.823 11.6515C114.106 11.3642 114.446 11.1417 114.843 10.9839C115.239 10.8261 115.684 10.7472 116.178 10.7472C116.672 10.7472 117.119 10.8261 117.519 10.9839C117.92 11.1417 118.262 11.3642 118.545 11.6515C118.828 11.9388 119.047 12.2868 119.201 12.6955C119.354 13.1042 119.431 13.5594 119.431 14.0611C119.431 14.5629 119.354 15.0161 119.201 15.4207C119.047 15.8253 118.828 16.1713 118.545 16.4586C118.262 16.7459 117.92 16.9664 117.519 17.1201C117.119 17.2739 116.672 17.3508 116.178 17.3508C115.684 17.3508 115.239 17.2739 114.843 17.1201C114.446 16.9664 114.106 16.7459 113.823 16.4586C113.54 16.1713 113.321 15.8253 113.167 15.4207C113.014 15.0161 112.937 14.5629 112.937 14.0611ZM124.765 14.0612C124.765 13.7941 124.737 13.5392 124.68 13.2964C124.624 13.0536 124.535 12.8392 124.413 12.6531C124.292 12.4669 124.14 12.3192 123.958 12.21C123.776 12.1007 123.555 12.0461 123.296 12.0461C123.046 12.0461 122.827 12.1007 122.641 12.21C122.455 12.3192 122.301 12.4669 122.18 12.6531C122.058 12.8392 121.969 13.0536 121.913 13.2964C121.856 13.5392 121.828 13.7941 121.828 14.0612C121.828 14.3201 121.856 14.571 121.913 14.8138C121.969 15.0566 122.058 15.271 122.18 15.4572C122.301 15.6433 122.455 15.791 122.641 15.9002C122.827 16.0095 123.046 16.0641 123.296 16.0641C123.555 16.0641 123.776 16.0095 123.958 15.9002C124.14 15.791 124.292 15.6433 124.413 15.4572C124.535 15.271 124.624 15.0566 124.68 14.8138C124.737 14.571 124.765 14.3201 124.765 14.0612ZM120.164 8.52588H121.888V11.682H121.912C122.123 11.3583 122.408 11.1216 122.768 10.9719C123.128 10.8222 123.503 10.7473 123.891 10.7473C124.207 10.7473 124.518 10.8121 124.826 10.9415C125.133 11.071 125.411 11.2693 125.657 11.5363C125.904 11.8034 126.104 12.1453 126.258 12.5621C126.412 12.9789 126.489 13.4745 126.489 14.0491C126.489 14.6237 126.412 15.1194 126.258 15.5361C126.104 15.9529 125.904 16.2948 125.657 16.5619C125.411 16.8289 125.133 17.0272 124.826 17.1567C124.518 17.2862 124.207 17.3509 123.891 17.3509C123.43 17.3509 123.017 17.2781 122.653 17.1324C122.289 16.9867 122.014 16.7399 121.827 16.3919H121.803V17.1931H120.164V8.52588ZM131.423 13.3814C131.342 12.9444 131.198 12.6126 130.992 12.386C130.785 12.1594 130.472 12.0461 130.051 12.0461C129.776 12.0461 129.547 12.0926 129.365 12.1857C129.183 12.2788 129.037 12.3941 128.928 12.5317C128.819 12.6692 128.742 12.8149 128.697 12.9687C128.653 13.1224 128.627 13.26 128.618 13.3814H131.423ZM128.618 14.4739C128.643 15.0322 128.784 15.4369 129.043 15.6877C129.302 15.9386 129.674 16.0641 130.16 16.0641C130.508 16.0641 130.807 15.9771 131.058 15.8031C131.309 15.6291 131.463 15.445 131.52 15.2507H133.037C132.794 16.0034 132.422 16.5415 131.92 16.8652C131.418 17.1889 130.811 17.3508 130.099 17.3508C129.606 17.3508 129.161 17.2719 128.764 17.1141C128.367 16.9563 128.032 16.7317 127.757 16.4404C127.481 16.149 127.269 15.801 127.119 15.3964C126.969 14.9918 126.895 14.5467 126.895 14.0611C126.895 13.5917 126.972 13.1548 127.125 12.7501C127.279 12.3455 127.498 11.9955 127.781 11.7001C128.064 11.4047 128.402 11.1721 128.794 11.0021C129.187 10.8322 129.622 10.7472 130.099 10.7472C130.633 10.7472 131.099 10.8504 131.495 11.0567C131.892 11.2631 132.218 11.5403 132.472 11.8882C132.727 12.2362 132.912 12.6328 133.025 13.0779C133.138 13.523 133.179 13.9883 133.146 14.4739H128.618ZM133.782 10.9171H135.421V12.0825H135.445C135.526 11.8883 135.636 11.7082 135.773 11.5423C135.911 11.3764 136.069 11.2348 136.247 11.1174C136.425 11.0001 136.615 10.909 136.817 10.8443C137.019 10.7796 137.23 10.7472 137.448 10.7472C137.562 10.7472 137.687 10.7674 137.825 10.8079V10.9172H138.582V9.03568H140.306V10.9172H141.569V12.0704H140.306V15.178C140.306 15.4693 140.355 15.6636 140.452 15.7607C140.549 15.8578 140.743 15.9063 141.035 15.9063C141.132 15.9063 141.225 15.9023 141.314 15.8942C141.403 15.8861 141.488 15.874 141.569 15.8578V17.1931C141.423 17.2174 141.261 17.2335 141.083 17.2416C140.905 17.2497 140.731 17.2538 140.561 17.2538C140.294 17.2538 140.041 17.2356 139.802 17.1991C139.564 17.1627 139.353 17.0919 139.171 16.9867C138.989 16.8815 138.845 16.7318 138.74 16.5376C138.635 16.3433 138.582 16.0884 138.582 15.7728V12.0704H137.825V12.4102C137.744 12.394 137.647 12.3799 137.533 12.3677C137.42 12.3556 137.311 12.3495 137.206 12.3495C136.89 12.3495 136.623 12.4021 136.404 12.5073C136.186 12.6125 136.01 12.7562 135.876 12.9383C135.743 13.1204 135.648 13.3328 135.591 13.5756C135.534 13.8183 135.506 14.0814 135.506 14.3646V17.193H133.782V10.9171Z" fill="white"/>
<path fill-rule="evenodd" clip-rule="evenodd" d="M77.754 24.2594C77.754 24.0005 77.7298 23.7516 77.6812 23.5129C77.6326 23.2742 77.5497 23.0637 77.4324 22.8817C77.315 22.6996 77.1633 22.5519 76.9771 22.4386C76.791 22.3253 76.5563 22.2686 76.2731 22.2686C75.9898 22.2686 75.7511 22.3253 75.5569 22.4386C75.3627 22.5519 75.2069 22.7016 75.0895 22.8877C74.9722 23.0739 74.8872 23.2863 74.8346 23.525C74.782 23.7638 74.7557 24.0126 74.7557 24.2716C74.7557 24.5144 74.784 24.7571 74.8407 24.9999C74.8973 25.2427 74.9884 25.4592 75.1138 25.6494C75.2392 25.8395 75.3971 25.9933 75.5872 26.1106C75.7774 26.228 76.006 26.2866 76.2731 26.2866C76.5563 26.2866 76.793 26.23 76.9832 26.1167C77.1734 26.0034 77.3251 25.8517 77.4384 25.6615C77.5517 25.4713 77.6326 25.2548 77.6812 25.0121C77.7298 24.7693 77.754 24.5184 77.754 24.2594ZM77.7781 26.6146H77.7538C77.5515 26.9545 77.2865 27.1993 76.9587 27.349C76.6309 27.4987 76.2607 27.5736 75.848 27.5736C75.3786 27.5736 74.9659 27.4825 74.6098 27.3004C74.2537 27.1184 73.9604 26.8715 73.7297 26.56C73.4991 26.2484 73.3251 25.8903 73.2078 25.4857C73.0904 25.081 73.0317 24.6602 73.0317 24.2232C73.0317 23.8024 73.0904 23.3957 73.2078 23.0032C73.3251 22.6108 73.4991 22.2648 73.7297 21.9654C73.9604 21.6659 74.2497 21.4252 74.5977 21.2431C74.9457 21.061 75.3503 20.97 75.8116 20.97C76.1838 20.97 76.5379 21.0489 76.8737 21.2067C77.2096 21.3645 77.4746 21.5971 77.6688 21.9047H77.6931V18.7485H79.4168V27.4158H77.7781V26.6146ZM84.5568 23.6039C84.4759 23.1669 84.3322 22.8351 84.1258 22.6085C83.9195 22.3819 83.6059 22.2686 83.1851 22.2686C82.9099 22.2686 82.6813 22.3152 82.4992 22.4082C82.3171 22.5013 82.1715 22.6166 82.0622 22.7542C81.953 22.8918 81.8761 23.0374 81.8316 23.1912C81.7871 23.345 81.7608 23.4825 81.7527 23.6039H84.5568ZM81.7528 24.6964C81.7771 25.2548 81.9187 25.6594 82.1777 25.9103C82.4367 26.1612 82.8089 26.2866 83.2945 26.2866C83.6425 26.2866 83.9419 26.1996 84.1928 26.0256C84.4436 25.8516 84.5974 25.6675 84.654 25.4733H86.1714C85.9286 26.2259 85.5564 26.7641 85.0546 27.0878C84.5529 27.4115 83.9459 27.5733 83.2338 27.5733C82.7401 27.5733 82.295 27.4944 81.8985 27.3366C81.502 27.1788 81.1661 26.9542 80.891 26.6629C80.6158 26.3716 80.4034 26.0236 80.2537 25.6189C80.1039 25.2143 80.0291 24.7692 80.0291 24.2837C80.0291 23.8143 80.106 23.3773 80.2597 22.9727C80.4135 22.568 80.632 22.218 80.9152 21.9226C81.1985 21.6272 81.5363 21.3946 81.9288 21.2246C82.3213 21.0547 82.7563 20.9697 83.2338 20.9697C83.7679 20.9697 84.2332 21.0729 84.6298 21.2793C85.0263 21.4856 85.352 21.7628 85.6069 22.1108C85.8619 22.4588 86.046 22.8553 86.1593 23.3004C86.2726 23.7455 86.313 24.2108 86.2807 24.6964H81.7528ZM94.1811 23.349H95.8684C95.8441 22.9443 95.747 22.5943 95.5771 22.2989C95.4071 22.0036 95.1866 21.7567 94.9155 21.5585C94.6444 21.3602 94.3369 21.2125 93.9929 21.1154C93.649 21.0183 93.2909 20.9697 92.9186 20.9697C92.4088 20.9697 91.9556 21.0547 91.5591 21.2246C91.1625 21.3946 90.8267 21.6313 90.5515 21.9348C90.2764 22.2382 90.068 22.5984 89.9264 23.0151C89.7847 23.4319 89.7139 23.8831 89.7139 24.3686C89.7139 24.838 89.7908 25.2689 89.9446 25.6614C90.0983 26.0539 90.3128 26.3918 90.5879 26.675C90.8631 26.9583 91.1969 27.1788 91.5894 27.3366C91.9819 27.4944 92.4128 27.5733 92.8822 27.5733C93.7158 27.5733 94.3996 27.3548 94.9337 26.9178C95.4678 26.4808 95.7915 25.8455 95.9048 25.012H94.2418C94.1851 25.4004 94.0455 25.71 93.823 25.9406C93.6004 26.1713 93.2828 26.2866 92.8701 26.2866C92.603 26.2866 92.3764 26.2259 92.1903 26.1045C92.0042 25.9831 91.8565 25.8273 91.7472 25.6372C91.638 25.447 91.5591 25.2345 91.5105 24.9999C91.4619 24.7652 91.4377 24.5345 91.4377 24.3079C91.4377 24.0732 91.4619 23.8365 91.5105 23.5978C91.5591 23.3591 91.642 23.1406 91.7594 22.9423C91.8767 22.744 92.0284 22.5822 92.2146 22.4567C92.4007 22.3313 92.6313 22.2686 92.9065 22.2686C93.6429 22.2686 94.0678 22.6287 94.1811 23.349ZM96.42 23.0698C96.4442 22.6651 96.5454 22.3293 96.7234 22.0622C96.9015 21.7952 97.1281 21.5807 97.4032 21.4189C97.6784 21.257 97.9879 21.1417 98.3319 21.0729C98.6758 21.0041 99.0217 20.9697 99.3697 20.9697C99.6853 20.9697 100.005 20.992 100.329 21.0365C100.652 21.081 100.948 21.168 101.215 21.2975C101.482 21.427 101.7 21.607 101.87 21.8377C102.04 22.0683 102.125 22.3738 102.125 22.7541V26.0195C102.125 26.3028 102.141 26.5739 102.174 26.8328C102.206 27.0918 102.263 27.286 102.344 27.4155H100.596C100.563 27.3184 100.537 27.2193 100.517 27.1181C100.497 27.017 100.482 26.9138 100.474 26.8086C100.199 27.0918 99.8755 27.2901 99.5033 27.4034C99.131 27.5167 98.7506 27.5733 98.3622 27.5733C98.0628 27.5733 97.7836 27.5369 97.5246 27.4641C97.2656 27.3912 97.0391 27.2779 96.8448 27.1242C96.6506 26.9704 96.4989 26.7762 96.3896 26.5415C96.2804 26.3068 96.2257 26.0276 96.2257 25.7039C96.2257 25.3478 96.2885 25.0545 96.4139 24.8238C96.5393 24.5932 96.7012 24.4091 96.8995 24.2715C97.0977 24.1339 97.3243 24.0308 97.5792 23.962C97.8342 23.8932 98.0911 23.8386 98.3501 23.7981C98.609 23.7576 98.8639 23.7253 99.1148 23.701C99.3657 23.6767 99.5882 23.6403 99.7825 23.5917C99.9767 23.5432 100.13 23.4724 100.244 23.3793C100.357 23.2862 100.41 23.1507 100.402 22.9727C100.402 22.7865 100.371 22.6388 100.311 22.5296C100.25 22.4203 100.169 22.3354 100.068 22.2747C99.9666 22.214 99.8492 22.1735 99.7157 22.1533C99.5822 22.133 99.4385 22.1229 99.2848 22.1229C98.9449 22.1229 98.6778 22.1958 98.4836 22.3414C98.2894 22.4871 98.1761 22.7299 98.1437 23.0698H96.42ZM100.401 24.3443C100.329 24.4091 100.238 24.4597 100.128 24.4961C100.019 24.5325 99.9017 24.5628 99.7762 24.5871C99.6508 24.6114 99.5193 24.6316 99.3817 24.6478C99.2442 24.664 99.1066 24.6842 98.969 24.7085C98.8395 24.7328 98.7121 24.7652 98.5866 24.8056C98.4612 24.8461 98.3519 24.9007 98.2589 24.9695C98.1658 25.0383 98.0909 25.1253 98.0343 25.2305C97.9777 25.3357 97.9493 25.4692 97.9493 25.6311C97.9493 25.7848 97.9777 25.9143 98.0343 26.0195C98.0909 26.1247 98.1678 26.2077 98.2649 26.2684C98.3621 26.3291 98.4753 26.3716 98.6048 26.3958C98.7343 26.4201 98.8678 26.4323 99.0054 26.4323C99.3453 26.4323 99.6083 26.3756 99.7945 26.2623C99.9806 26.149 100.118 26.0135 100.207 25.8556C100.296 25.6978 100.351 25.538 100.371 25.3762C100.391 25.2143 100.401 25.0848 100.401 24.9877V24.3443ZM105.262 21.1397V19.2581H103.538V21.1397H102.494V22.2929H103.538V25.9953C103.538 26.3109 103.591 26.5658 103.696 26.76C103.801 26.9542 103.945 27.1039 104.127 27.2092C104.309 27.3144 104.519 27.3852 104.758 27.4216C104.997 27.458 105.25 27.4762 105.517 27.4762C105.687 27.4762 105.861 27.4722 106.039 27.4641C106.217 27.456 106.379 27.4398 106.524 27.4155V26.0802C106.444 26.0964 106.359 26.1086 106.27 26.1166C106.181 26.1247 106.087 26.1288 105.99 26.1288C105.699 26.1288 105.505 26.0802 105.408 25.9831C105.311 25.886 105.262 25.6918 105.262 25.4004V22.2929H106.524V21.1397H105.262ZM106.894 23.0698C106.918 22.6651 107.019 22.3293 107.197 22.0622C107.375 21.7952 107.602 21.5807 107.877 21.4189C108.152 21.257 108.462 21.1417 108.806 21.0729C109.15 21.0041 109.496 20.9697 109.844 20.9697C110.159 20.9697 110.479 20.992 110.803 21.0365C111.126 21.081 111.422 21.168 111.689 21.2975C111.956 21.427 112.174 21.607 112.344 21.8377C112.514 22.0683 112.599 22.3738 112.599 22.7541V26.0195C112.599 26.3028 112.615 26.5739 112.648 26.8328C112.68 27.0918 112.737 27.286 112.818 27.4155H111.07C111.037 27.3184 111.011 27.2193 110.991 27.1181C110.971 27.017 110.956 26.9138 110.948 26.8086C110.673 27.0918 110.35 27.2901 109.977 27.4034C109.605 27.5167 109.225 27.5733 108.836 27.5733C108.537 27.5733 108.258 27.5369 107.999 27.4641C107.74 27.3912 107.513 27.2779 107.319 27.1242C107.125 26.9704 106.973 26.7762 106.864 26.5415C106.754 26.3068 106.7 26.0276 106.7 25.7039C106.7 25.3478 106.762 25.0545 106.888 24.8238C107.013 24.5932 107.175 24.4091 107.373 24.2715C107.572 24.1339 107.798 24.0308 108.053 23.962C108.308 23.8932 108.565 23.8386 108.824 23.7981C109.083 23.7576 109.338 23.7253 109.589 23.701C109.84 23.6767 110.062 23.6403 110.256 23.5917C110.451 23.5432 110.604 23.4724 110.718 23.3793C110.831 23.2862 110.884 23.1507 110.876 22.9727C110.876 22.7865 110.845 22.6388 110.784 22.5296C110.724 22.4203 110.643 22.3354 110.542 22.2747C110.441 22.214 110.323 22.1735 110.19 22.1533C110.056 22.133 109.913 22.1229 109.759 22.1229C109.419 22.1229 109.152 22.1958 108.958 22.3414C108.763 22.4871 108.65 22.7299 108.618 23.0698H106.894ZM110.875 24.3443C110.803 24.4091 110.711 24.4597 110.602 24.4961C110.493 24.5325 110.376 24.5628 110.25 24.5871C110.125 24.6114 109.993 24.6316 109.856 24.6478C109.718 24.664 109.581 24.6842 109.443 24.7085C109.313 24.7328 109.186 24.7652 109.061 24.8056C108.935 24.8461 108.826 24.9007 108.733 24.9695C108.64 25.0383 108.565 25.1253 108.508 25.2305C108.452 25.3357 108.423 25.4692 108.423 25.6311C108.423 25.7848 108.452 25.9143 108.508 26.0195C108.565 26.1247 108.642 26.2077 108.739 26.2684C108.836 26.3291 108.949 26.3716 109.079 26.3958C109.208 26.4201 109.342 26.4323 109.479 26.4323C109.819 26.4323 110.082 26.3756 110.268 26.2623C110.455 26.149 110.592 26.0135 110.681 25.8556C110.77 25.6978 110.825 25.538 110.845 25.3762C110.865 25.2143 110.875 25.0848 110.875 24.9877V24.3443ZM113.6 18.7484V27.4156H115.323V18.7484H113.6ZM122.187 27.4158V21.1399H120.463V24.4296C120.463 25.0689 120.358 25.5282 120.148 25.8074C119.937 26.0866 119.598 26.2262 119.128 26.2262C118.715 26.2262 118.428 26.0987 118.266 25.8438C118.104 25.5889 118.023 25.2024 118.023 24.6845V21.1399H116.3V25.0001C116.3 25.3886 116.334 25.7426 116.403 26.0623C116.472 26.3819 116.591 26.653 116.761 26.8756C116.931 27.0981 117.164 27.2701 117.459 27.3915C117.754 27.5129 118.133 27.5736 118.594 27.5736C118.958 27.5736 119.314 27.4927 119.662 27.3308C120.01 27.169 120.293 26.9059 120.512 26.5418H120.548V27.4158H122.187ZM123.115 21.1397V27.4155H124.838V24.1259C124.838 23.4865 124.944 23.0273 125.154 22.7481C125.364 22.4689 125.704 22.3293 126.174 22.3293C126.586 22.3293 126.874 22.4567 127.036 22.7117C127.197 22.9666 127.278 23.353 127.278 23.8709V27.4155H129.002V23.5553C129.002 23.1669 128.968 22.8128 128.899 22.4932C128.83 22.1735 128.711 21.9024 128.541 21.6798C128.371 21.4573 128.138 21.2833 127.843 21.1579C127.547 21.0324 127.169 20.9697 126.708 20.9697C126.344 20.9697 125.988 21.0527 125.64 21.2186C125.292 21.3845 125.008 21.6495 124.79 22.0137H124.753V21.1397H123.115ZM133.025 28.1927C132.839 28.7025 132.58 29.0667 132.248 29.2852C131.917 29.5037 131.455 29.6129 130.865 29.6129C130.687 29.6129 130.51 29.6069 130.337 29.5947C130.163 29.5826 129.986 29.5684 129.808 29.5522V28.132C129.97 28.1482 130.136 28.1644 130.306 28.1805C130.476 28.1967 130.646 28.2008 130.816 28.1927C131.043 28.1684 131.211 28.0794 131.32 27.9256C131.429 27.7719 131.484 27.6019 131.484 27.4158C131.484 27.2782 131.459 27.1487 131.411 27.0273L129.214 21.1399H131.047L132.467 25.4371H132.491L133.863 21.1399H135.647L133.025 28.1927ZM135.774 23.0698C135.798 22.6651 135.899 22.3293 136.077 22.0622C136.255 21.7952 136.482 21.5807 136.757 21.4189C137.032 21.257 137.342 21.1417 137.686 21.0729C138.03 21.0041 138.376 20.9697 138.724 20.9697C139.039 20.9697 139.359 20.992 139.683 21.0365C140.006 21.081 140.302 21.168 140.569 21.2975C140.836 21.427 141.054 21.607 141.224 21.8377C141.394 22.0683 141.479 22.3738 141.479 22.7541V26.0195C141.479 26.3028 141.495 26.5739 141.528 26.8328C141.56 27.0918 141.617 27.286 141.698 27.4155H139.95C139.917 27.3184 139.891 27.2193 139.871 27.1181C139.851 27.017 139.836 26.9138 139.828 26.8086C139.553 27.0918 139.229 27.2901 138.857 27.4034C138.485 27.5167 138.105 27.5733 137.716 27.5733C137.417 27.5733 137.137 27.5369 136.878 27.4641C136.62 27.3912 136.393 27.2779 136.199 27.1242C136.004 26.9704 135.853 26.7762 135.743 26.5415C135.634 26.3068 135.58 26.0276 135.58 25.7039C135.58 25.3478 135.642 25.0545 135.768 24.8238C135.893 24.5932 136.055 24.4091 136.253 24.2715C136.452 24.1339 136.678 24.0308 136.933 23.962C137.188 23.8932 137.445 23.8386 137.704 23.7981C137.963 23.7576 138.218 23.7253 138.469 23.701C138.72 23.6767 138.942 23.6403 139.136 23.5917C139.331 23.5432 139.484 23.4724 139.598 23.3793C139.711 23.2862 139.764 23.1507 139.755 22.9727C139.755 22.7865 139.725 22.6388 139.664 22.5296C139.604 22.4203 139.523 22.3354 139.422 22.2747C139.32 22.214 139.203 22.1735 139.07 22.1533C138.936 22.133 138.792 22.1229 138.639 22.1229C138.299 22.1229 138.032 22.1958 137.837 22.3414C137.643 22.4871 137.53 22.7299 137.498 23.0698H135.774ZM139.755 24.3443C139.682 24.4091 139.591 24.4597 139.482 24.4961C139.373 24.5325 139.256 24.5628 139.13 24.5871C139.005 24.6114 138.873 24.6316 138.736 24.6478C138.598 24.664 138.46 24.6842 138.323 24.7085C138.193 24.7328 138.066 24.7652 137.941 24.8056C137.815 24.8461 137.706 24.9007 137.613 24.9695C137.52 25.0383 137.445 25.1253 137.388 25.2305C137.332 25.3357 137.303 25.4692 137.303 25.6311C137.303 25.7848 137.332 25.9143 137.388 26.0195C137.445 26.1247 137.522 26.2077 137.619 26.2684C137.716 26.3291 137.829 26.3716 137.959 26.3958C138.088 26.4201 138.222 26.4323 138.359 26.4323C138.699 26.4323 138.962 26.3756 139.148 26.2623C139.334 26.149 139.472 26.0135 139.561 25.8556C139.65 25.6978 139.705 25.538 139.725 25.3762C139.745 25.2143 139.755 25.0848 139.755 24.9877V24.3443Z" fill="white"/>
<path d="M58.1299 1.50989L64.014 4.90709V11.7015L58.1299 15.0987L52.2457 11.7015V4.90709L58.1299 1.50989Z" fill="#5EC8FF"/>
</svg>
