<svg width="16" height="16" viewBox="0 0 16 16" fill="none" xmlns="http://www.w3.org/2000/svg">
<g clip-path="url(#clip0_1911_335)">
<path d="M7.99999 14.7222C12.0496 14.7222 15.3333 11.7123 15.3333 7.99999C15.3333 4.2877 12.0496 1.27777 7.99999 1.27777C3.95036 1.27777 0.666656 4.2877 0.666656 7.99999C0.666656 9.71436 1.36658 11.278 2.51873 12.4652C2.87073 12.8294 3.12169 13.3126 2.99621 13.8023C2.85881 14.3378 2.60166 14.8351 2.24414 15.2567C2.53026 15.3081 2.82041 15.3338 3.1111 15.3333C4.15569 15.3333 5.12369 15.0058 5.91814 14.4476C6.57814 14.6269 7.27725 14.7222 7.99999 14.7222Z" stroke="white" stroke-width="1.33333" stroke-linecap="round" stroke-linejoin="round"/>
</g>
<defs>
<clipPath id="clip0_1911_335">
<rect width="16" height="16" fill="white"/>
</clipPath>
</defs>
</svg>
