<svg width="16" height="16" viewBox="0 0 16 16" fill="none" xmlns="http://www.w3.org/2000/svg">
<g clip-path="url(#clip0_1912_341)">
<path d="M10.2856 12.0656C11.7762 11.8891 13.2407 11.5373 14.6488 11.0176C13.4563 9.69663 12.7974 7.97959 12.8 6.19999V5.63999V5.59999C12.8 4.32695 12.2943 3.10605 11.3941 2.20588C10.4939 1.3057 9.27304 0.799988 8 0.799988C6.72696 0.799988 5.50607 1.3057 4.60589 2.20588C3.70572 3.10605 3.2 4.32695 3.2 5.59999V6.19999C3.20242 7.97969 2.54319 9.69675 1.3504 11.0176C2.7368 11.5296 4.1984 11.8856 5.7144 12.0656M10.2856 12.0656C8.76719 12.2457 7.23281 12.2457 5.7144 12.0656M10.2856 12.0656C10.4009 12.4255 10.4296 12.8075 10.3693 13.1806C10.309 13.5536 10.1615 13.9072 9.93871 14.2124C9.71595 14.5177 9.42425 14.7661 9.08736 14.9373C8.75047 15.1085 8.3779 15.1977 8 15.1977C7.6221 15.1977 7.24954 15.1085 6.91265 14.9373C6.57576 14.7661 6.28406 14.5177 6.0613 14.2124C5.83854 13.9072 5.69101 13.5536 5.63073 13.1806C5.57045 12.8075 5.59912 12.4255 5.7144 12.0656" stroke="white" stroke-width="1.3" stroke-linecap="round" stroke-linejoin="round"/>
</g>
<defs>
<clipPath id="clip0_1912_341">
<rect width="16" height="16" fill="white"/>
</clipPath>
</defs>
</svg>
