<svg width="38" height="36" viewBox="0 0 38 36" fill="none" xmlns="http://www.w3.org/2000/svg">
<path d="M0 34H4V36L0 34Z" fill="#1945B4"/>
<path d="M0 34L-1.48619e-06 0L34 -1.48619e-06C36.2091 -1.58275e-06 38 1.79086 38 4L38 30C38 32.2091 36.2091 34 34 34L0 34Z" fill="#678AE2"/>
<path fill-rule="evenodd" clip-rule="evenodd" d="M13.5682 7.96261C12.943 7.59611 12.1753 8.12994 12.3013 8.84362L13.7348 16.9672L11.8348 24.0925C11.6461 24.8002 12.3811 25.3993 13.0362 25.0718L27.6727 17.7535C28.2761 17.4518 28.3045 16.6011 27.7225 16.2599L13.5682 7.96261ZM24.6528 16.1992L14.0228 9.96786L15.1225 16.1992H24.6528ZM24.4272 17.6992H15.0921L13.6559 23.0849L24.4272 17.6992Z" fill="white"/>
</svg>
