<svg width="614" height="34" viewBox="0 0 614 34" fill="none" xmlns="http://www.w3.org/2000/svg">
<mask id="mask0" mask-type="alpha" maskUnits="userSpaceOnUse" x="0" y="0" width="614" height="34">
<path d="M0 34H608C611.314 34 614 31.3137 614 28V6C614 2.68629 611.314 0 608 0H6.00001C2.6863 0 0 2.68629 0 6V34Z" fill="#FFE668"/>
</mask>
<g mask="url(#mask0)">
<path d="M0 33.9998H614V5.99976C614 2.68605 611.314 -0.000244141 608 -0.000244141H6.00001C2.6863 -0.000244141 0 2.68605 0 5.99976V33.9998Z" fill="#8DCE59"/>
<path opacity="0.6" d="M219.25 36.0604C219.25 42.4957 214.192 47.674 208 47.674C201.808 47.674 196.75 42.4957 196.75 36.0604C196.75 29.6251 201.808 24.4468 208 24.4468C214.192 24.4468 219.25 29.6251 219.25 36.0604Z" stroke="#69B42E" stroke-width="1.5"/>
<path opacity="0.6" d="M13.25 32.9696C13.25 35.4218 11.3263 37.3711 9 37.3711C6.67374 37.3711 4.75 35.4218 4.75 32.9696C4.75 30.5175 6.67374 28.5681 9 28.5681C11.3263 28.5681 13.25 30.5175 13.25 32.9696Z" stroke="#69B42E" stroke-width="1.5"/>
<path opacity="0.6" d="M373.25 11.8483C373.25 14.585 371.102 16.765 368.5 16.765C365.898 16.765 363.75 14.585 363.75 11.8483C363.75 9.11164 365.898 6.93164 368.5 6.93164C371.102 6.93164 373.25 9.11164 373.25 11.8483Z" stroke="#69B42E" stroke-width="1.5"/>
<path opacity="0.6" d="M592.25 30.9089C592.25 35.0681 588.983 38.4014 585 38.4014C581.017 38.4014 577.75 35.0681 577.75 30.9089C577.75 26.7497 581.017 23.4165 585 23.4165C588.983 23.4165 592.25 26.7497 592.25 30.9089Z" stroke="#69B42E" stroke-width="1.5"/>
<path opacity="0.6" fill-rule="evenodd" clip-rule="evenodd" d="M256.538 3.09082H255V4.6759H256V4.67599H256.769V4.67601H258.308V3.09093H257.538V3.09091H256.538V3.09082ZM259.846 3.09082L258.308 3.09082V4.6759H259.846V3.09082ZM258.308 4.67611H259.846V6.26105H259.846V7.29136H260.846V7.29161H262.385V8.87655H263.923V9.90686V10.4616V11.4918H263.923V11.4921H264.923H265.462H266.462V13.0771H265.462H264.923H263.923V13.0769H262.385V11.4919H262.385V10.4616V9.90686V8.87669H260.846V8.87644H259.846H259.308H258.308V7.84613V7.29136V6.26119H258.308V4.67611ZM263.923 7.29136L262.385 7.29136V8.87644H263.923V7.29136ZM266.462 11.4918H268V13.0769H266.462V11.4918ZM268 13.077H266.462V14.6621H266.462V14.8999V15.4547V16.485H268V15.4547V14.8999V13.8696H268V13.077Z" fill="#69B42E"/>
<path opacity="0.6" fill-rule="evenodd" clip-rule="evenodd" d="M427.538 19.5757H426V21.1608H427V21.1609H427.769V21.1609H429.308V19.5758H428.538V19.5758H427.538V19.5757ZM430.846 19.5757H429.308V21.1608H430.846V19.5757ZM429.308 21.161H430.846V22.7459H430.846V23.7762H431.846V23.7765H433.385V25.3614H434.923V26.3917V26.9465V27.9767H434.923V27.9769H435.923H436.461H437.461V29.562H436.461H435.923H434.923V29.5617H433.385V27.9768H433.385V26.9465V26.3917V25.3615H431.846V25.3613H430.846H430.308H429.308V24.331V23.7762V22.746H429.308V21.161ZM434.923 23.7762H433.385V25.3613H434.923V23.7762ZM437.462 27.9767H439V29.5617H437.462V27.9767ZM439 29.5618H437.462V31.1469H437.462V31.3848V31.9395V32.9698H439V31.9395V31.3848V30.3544H439V29.5618Z" fill="#69B42E"/>
<path opacity="0.6" fill-rule="evenodd" clip-rule="evenodd" d="M116.538 26.7878H115V28.3729H116V28.373H116.769V28.373H118.308V26.7879H117.538V26.7879H116.538V26.7878ZM119.846 26.7878H118.308V28.3729H119.846V26.7878ZM118.308 28.3731H119.846V29.958H119.846V30.9883H120.846V30.9886H122.385V32.5735H123.923V33.6038V34.1586V35.1888H123.923V35.189H124.923H125.462H126.462V36.7741H125.462H124.923H123.923V36.7739H122.385V35.1889H122.385V34.1586V33.6038V32.5737H120.846V32.5734H119.846H119.308H118.308V31.5431V30.9883V29.9582H118.308V28.3731ZM123.923 30.9883H122.385V32.5734H123.923V30.9883ZM126.462 35.1888H128V36.7739H126.462V35.1888ZM128 36.774H126.462V38.3591H126.462V38.5969V39.1517V40.182H128V39.1517V38.5969V37.5666H128V36.774Z" fill="#69B42E"/>
<g opacity="0.6">
<mask id="path-10-inside-1" fill="white">
<rect width="9.76819" height="9.76819" rx="1" transform="matrix(0.696475 0.717581 -0.696475 0.717581 310.607 16.0796)"/>
</mask>
<rect width="9.76819" height="9.76819" rx="1" transform="matrix(0.696475 0.717581 -0.696475 0.717581 310.607 16.0796)" stroke="#69B42E" stroke-width="3" mask="url(#path-10-inside-1)"/>
</g>
<g opacity="0.6">
<mask id="path-11-inside-2" fill="white">
<rect width="9.76819" height="9.76819" rx="1" transform="matrix(0.696475 0.717581 -0.696475 0.717581 165.803 0)"/>
</mask>
<rect width="9.76819" height="9.76819" rx="1" transform="matrix(0.696475 0.717581 -0.696475 0.717581 165.803 0)" stroke="#69B42E" stroke-width="3" mask="url(#path-11-inside-2)"/>
</g>
<g opacity="0.6">
<mask id="path-12-inside-3" fill="white">
<rect x="543.621" y="16.4846" width="9.91288" height="9.62132" rx="1" transform="rotate(90 543.621 16.4846)"/>
</mask>
<rect x="543.621" y="16.4846" width="9.91288" height="9.62132" rx="1" transform="rotate(90 543.621 16.4846)" stroke="#69B42E" stroke-width="3" mask="url(#path-12-inside-3)"/>
</g>
<path opacity="0.6" d="M483.782 0.892894C483.877 0.722509 484.123 0.722511 484.218 0.892893L489.44 10.2109C489.533 10.3776 489.413 10.5831 489.222 10.5831H478.778C478.587 10.5831 478.467 10.3776 478.56 10.2109L483.782 0.892894Z" stroke="#69B42E" stroke-width="1.5"/>
<path opacity="0.6" d="M74.9699 -6.94224C75.0711 -7.10883 75.3117 -7.10884 75.4029 -6.94224L80.4308 2.23685C80.522 2.40344 80.3955 2.61168 80.2031 2.61168H69.5992C69.4068 2.61168 69.2927 2.40344 69.3939 2.23684L74.9699 -6.94224Z" stroke="#69B42E" stroke-width="1.5"/>
</g>
</svg>
