<svg width="47" height="47" viewBox="0 0 47 47" fill="none" xmlns="http://www.w3.org/2000/svg">
<path d="M45.7059 0.113278L6.90729 15.1036C6.68684 15.1771 6.4664 15.3976 6.4664 15.618C6.39292 15.8385 6.4664 16.1324 6.68685 16.2794L15.7252 25.1707L16.8274 32.5189C16.9009 32.8128 17.0478 33.0333 17.3418 33.1068C17.6357 33.1803 17.9296 33.1068 18.0766 32.8863L20.6485 30.0205L30.2746 39.4997C30.4216 39.6467 30.7155 39.7202 30.936 39.7202C31.1564 39.6467 31.3769 39.4997 31.4503 39.2793L46.8816 0.995065C47.249 0.333725 46.7346 -0.254133 45.7059 0.113278Z" fill="white"/>
<path d="M16.5 24.5L17.5 32L42.5 4L16.5 24.5Z" fill="#DADFD6"/>
<path d="M45.7059 0.113278L6.90729 15.1036C6.68684 15.1771 6.4664 15.3976 6.4664 15.618C6.39292 15.8385 6.4664 16.1324 6.68685 16.2794L15.7252 25.1707L16.8274 32.5189C16.9009 32.8129 17.0478 33.0333 17.3418 33.1068C17.6357 33.1803 17.9296 33.1068 18.0766 32.8863L20.6485 30.0205L30.2746 39.4997C30.4216 39.6467 30.7155 39.7202 30.936 39.7202C31.1564 39.6467 31.3769 39.4997 31.4503 39.2793L46.8816 0.995065C47.249 0.333725 46.7346 -0.254133 45.7059 0.113278ZM16.46 23.848L8.5239 16.0589L41.9583 3.12605L16.46 23.848ZM18.0031 30.7554L17.1948 25.0972L39.3129 7.09409L18.0031 30.7554ZM30.5686 37.6627L21.6772 28.9183L44.1628 4.08132L30.5686 37.6627Z" fill="#4B623A"/>
<path d="M1.46964 37.0014C1.46964 36.781 1.39616 36.634 1.2492 36.487C0.955268 36.1931 0.514375 36.1931 0.220447 36.487C0.0734821 36.634 0 36.8545 0 37.0014C0 37.4423 0.367411 37.7362 0.734822 37.7362C1.10223 37.7362 1.46964 37.4423 1.46964 37.0014Z" fill="#4B623A"/>
<path d="M0.514404 45.6723C0.514404 46.0397 0.808333 46.4071 1.24923 46.4071C1.69012 46.4071 1.98405 46.1132 1.98405 45.6723C1.98405 45.4519 1.91057 45.3049 1.7636 45.158C1.32271 44.7905 0.514404 45.011 0.514404 45.6723Z" fill="#4B623A"/>
<path d="M9.55266 45.6723C9.11177 46.1132 9.40569 46.9215 10.067 46.9215C10.4344 46.9215 10.8019 46.5541 10.8019 46.1867C10.8753 45.5253 9.99355 45.2314 9.55266 45.6723Z" fill="#4B623A"/>
<path d="M4.40899 34.5029L12.0511 27.0812C12.3451 26.7873 12.3451 26.3464 12.0511 26.0525C11.7572 25.7585 11.3163 25.7585 11.0224 26.0525L3.38024 33.4007C3.08631 33.6946 3.08631 34.1355 3.38024 34.4294C3.60068 34.7234 4.11506 34.7234 4.40899 34.5029Z" fill="#4B623A"/>
<path d="M12.4921 34.6501C12.1981 34.3562 11.7572 34.3562 11.4633 34.6501L3.89464 42.0718C3.60071 42.3658 3.60071 42.8067 3.89464 43.1006C4.18857 43.3945 4.62946 43.3945 4.92339 43.1006L12.4921 35.6789C12.786 35.4584 12.786 34.9441 12.4921 34.6501Z" fill="#4B623A"/>
<path d="M20.3545 35.1643L12.7124 42.586C12.4185 42.8799 12.4185 43.3208 12.7124 43.6147C13.0063 43.9087 13.4472 43.9087 13.7411 43.6147L21.3833 36.193C21.6772 35.8991 21.6772 35.4582 21.3833 35.1643C21.0894 34.8704 20.6485 34.8704 20.3545 35.1643Z" fill="#4B623A"/>
</svg>
