<svg width="23" height="27" viewBox="0 0 23 27" fill="none" xmlns="http://www.w3.org/2000/svg">
<path d="M11.2449 0.667969L5.88199 6.01729L11.2449 11.3813L11.2449 7.66487L11.3669 7.66487L11.368 7.66487C13.7872 7.65444 16.0739 8.77122 17.5536 10.6867C19.0323 12.6012 19.5359 15.0966 18.9134 17.4353C18.2919 19.7732 16.6162 21.6888 14.3815 22.6167C12.1458 23.5448 9.6066 23.378 7.51188 22.1663C5.41698 20.9556 4.00502 18.8377 3.69323 16.4384C3.38248 14.038 4.20627 11.6302 5.92265 9.92443L3.45861 7.46039C0.982081 9.92964 -0.205745 13.4093 0.246994 16.8774C0.698505 20.3445 2.73813 23.404 5.76529 25.1559C8.79138 26.9078 12.4608 27.1507 15.6924 25.815C18.9238 24.4792 21.3504 21.716 22.2566 18.3384C23.1628 14.962 22.4464 11.3551 20.3182 8.58017C18.1899 5.80528 14.8917 4.17985 11.3952 4.17985L11.2732 4.17985L11.2449 0.667969Z" fill="#8E95F8"/>
</svg>
