<svg width="30" height="30" viewBox="0 0 30 30" fill="none" xmlns="http://www.w3.org/2000/svg">
<path fill-rule="evenodd" clip-rule="evenodd" d="M15 30C23.2843 30 30 23.2843 30 15C30 6.71573 23.2843 0 15 0C6.71573 0 0 6.71573 0 15C0 23.2843 6.71573 30 15 30ZM16.25 4V14.331L22.7773 18.6826C23.0071 18.8358 23.0692 19.1462 22.916 19.376L22.084 20.624C21.9308 20.8538 21.6204 20.9159 21.3906 20.7627L13.75 15.669V4C13.75 3.72386 13.9739 3.5 14.25 3.5H15.75C16.0261 3.5 16.25 3.72386 16.25 4Z" fill="#8E95F8"/>
</svg>
