<svg width="31" height="31" viewBox="0 0 31 31" fill="none" xmlns="http://www.w3.org/2000/svg">
<path d="M15.8008 8.80066C11.9338 8.80066 8.80028 11.9345 8.80028 15.8C8.80028 19.667 11.9338 22.8005 15.8008 22.8005C17.7339 22.8005 19.484 22.0168 20.7508 20.7497L26.408 26.4069C23.693 29.1219 19.9434 30.8008 15.8008 30.8008C7.51628 30.8008 0.800781 24.0853 0.800781 15.8C0.800781 7.51628 7.51628 0.800781 15.8008 0.800781V8.80066Z" fill="#8E95F8"/>
<path d="M22.1855 18.6512C22.5759 17.7793 22.7968 16.8152 22.7968 15.7985C22.7968 14.7819 22.5759 13.8189 22.1855 12.9471L28.0149 7.11655C29.7601 9.56905 30.7978 12.5597 30.7978 15.7985C30.7978 19.0378 29.7601 22.0296 28.0149 24.4806L22.1855 18.6512Z" fill="#8E95F8"/>
<path d="M18.2992 9.26886C19.2258 9.62361 20.0609 10.1625 20.7502 10.851L26.4063 5.19449C24.2519 3.03861 21.4387 1.55361 18.2992 1.02599V9.26886Z" fill="#8E95F8"/>
</svg>
