<svg width="70" height="70" viewBox="0 0 70 70" fill="none" xmlns="http://www.w3.org/2000/svg">
<path d="M50.3283 44.9772C50.4147 45.2997 50.1883 45.745 49.8645 45.8318L26.8928 51.9886C26.5703 52.075 26.0787 51.822 25.9923 51.4995L18.6152 23.9678C18.5288 23.6453 18.8009 23.2253 19.1599 23.1291L42.132 16.9737C42.4544 16.8873 42.8647 17.123 42.9515 17.4469L47.1161 32.9893L48.6114 30.2413L45.0337 16.8892C44.6392 15.4169 43.0463 14.4973 41.5741 14.8918L18.6024 21.0485C17.1302 21.443 16.139 23.0551 16.5335 24.5273L23.9102 52.0575C24.3047 53.5297 25.9785 54.4653 27.4507 54.0708L50.4228 47.9155C51.895 47.521 52.8049 45.8916 52.4108 44.4208L51.0545 39.359L49.5592 42.1071L50.3283 44.9772Z" fill="#2A84F9" fill-opacity="0.25"/>
<path d="M25.5369 26.5376C25.9216 27.9733 23.768 28.5504 23.3833 27.1146C22.9985 25.6789 25.1522 25.1018 25.5369 26.5376Z" fill="#2A84F9" fill-opacity="0.25"/>
<path d="M26.8545 25.57L39.3807 22.2136L39.6595 23.2539L27.1333 26.6103L26.8545 25.57Z" fill="#2A84F9" fill-opacity="0.25"/>
<path d="M27.1238 32.46C27.5085 33.8958 25.3549 34.4729 24.9702 33.0371C24.5855 31.6014 26.7391 31.0243 27.1238 32.46Z" fill="#2A84F9" fill-opacity="0.25"/>
<path d="M28.4323 31.4558L40.9585 28.0994L41.2373 29.1398L28.711 32.4962L28.4323 31.4558Z" fill="#2A84F9" fill-opacity="0.25"/>
<path d="M28.7107 38.3826C29.0954 39.8184 26.9418 40.3954 26.5571 38.9597C26.1724 37.5239 28.326 36.9468 28.7107 38.3826Z" fill="#2A84F9" fill-opacity="0.25"/>
<path d="M42.5449 34.0221L40.5343 34.5609C40.5708 34.5511 40.6156 34.5781 40.6614 34.6034L42.0343 35.274L42.8602 35.0527L42.5814 34.0123L42.5449 34.0221Z" fill="#2A84F9" fill-opacity="0.25"/>
<path d="M30.2973 38.4186L38.1225 36.3218L38.6812 35.2494C38.7336 35.1587 38.7762 35.0316 38.8126 35.0218L30.0186 37.3782L30.2973 38.4186Z" fill="#2A84F9" fill-opacity="0.25"/>
<path d="M30.2879 44.2702C30.6726 45.706 28.5189 46.283 28.1342 44.8473C27.7495 43.4115 29.9032 42.8344 30.2879 44.2702Z" fill="#2A84F9" fill-opacity="0.25"/>
<path d="M31.8843 44.341L40.6783 41.9846L39.2512 41.252L31.6055 43.3007L31.8843 44.341Z" fill="#2A84F9" fill-opacity="0.25"/>
<path d="M49.0214 40.0967L50.5167 37.3487L55.274 28.688L53.6544 27.8145L52.0708 26.9299L49.1509 32.2523L47.6556 35.0003L45.5456 38.7576L39.9915 35.9763L38.3157 39.1949L41.3325 40.6948L42.796 41.4177L47.0332 43.5915L49.0214 40.0967Z" fill="#2A84F9" fill-opacity="0.25"/>
<path d="M42.8152 41.4906L47.0426 43.6279Z" fill="#2A84F9" fill-opacity="0.25"/>
<path d="M41.3516 40.7661L38.3254 39.2311Z" fill="#2A84F9" fill-opacity="0.25"/>
<path d="M41.351 40.7662L42.8149 41.4905Z" fill="#2A84F9" fill-opacity="0.25"/>
<path fill-rule="evenodd" clip-rule="evenodd" d="M35 67.5C52.9493 67.5 67.5 52.9493 67.5 35C67.5 17.0507 52.9493 2.5 35 2.5C17.0507 2.5 2.5 17.0507 2.5 35C2.5 52.9493 17.0507 67.5 35 67.5ZM35 70C54.33 70 70 54.33 70 35C70 15.67 54.33 0 35 0C15.67 0 0 15.67 0 35C0 54.33 15.67 70 35 70Z" fill="#2A84F9" fill-opacity="0.25"/>
<path fill-rule="evenodd" clip-rule="evenodd" d="M35 64.625C51.3614 64.625 64.625 51.3614 64.625 35C64.625 18.6386 51.3614 5.375 35 5.375C18.6386 5.375 5.375 18.6386 5.375 35C5.375 51.3614 18.6386 64.625 35 64.625ZM35 65.625C51.9137 65.625 65.625 51.9137 65.625 35C65.625 18.0863 51.9137 4.375 35 4.375C18.0863 4.375 4.375 18.0863 4.375 35C4.375 51.9137 18.0863 65.625 35 65.625Z" fill="#2A84F9" fill-opacity="0.25"/>
</svg>
