<svg width="16" height="16" viewBox="0 0 16 16" fill="none" xmlns="http://www.w3.org/2000/svg">
<path d="M8 4.2666C5.9376 4.2666 4.2664 5.938 4.2664 7.9996C4.2664 10.062 5.9376 11.7332 8 11.7332C9.031 11.7332 9.9644 11.3152 10.64 10.6394L13.6572 13.6566C12.2092 15.1046 10.2094 16 8 16C3.5816 16 -4.4633e-08 12.4184 0 7.9996C4.46249e-08 3.5816 3.5816 -4.4629e-08 8 0V4.2666Z" fill="#7FA1F5"/>
<path d="M11.4052 9.52021C11.6134 9.05521 11.7312 8.54101 11.7312 7.99881C11.7312 7.45661 11.6134 6.94301 11.4052 6.47801L14.5142 3.36841C15.445 4.67641 15.9984 6.27141 15.9984 7.99881C15.9984 9.72641 15.445 11.322 14.5142 12.6292L11.4052 9.52021Z" fill="#7FA1F5"/>
<path d="M9.33248 4.51631C9.82668 4.70551 10.2721 4.99291 10.6397 5.36011L13.6563 2.34331C12.5073 1.19351 11.0069 0.40151 9.33248 0.12011V4.51631Z" fill="#7FA1F5"/>
</svg>
