<svg width="614" height="34" viewBox="0 0 614 34" fill="none" xmlns="http://www.w3.org/2000/svg">
<mask id="mask0" mask-type="alpha" maskUnits="userSpaceOnUse" x="0" y="0" width="614" height="34">
<path d="M0 34H614V0H0V34Z" fill="#FFE668"/>
</mask>
<g mask="url(#mask0)">
<path d="M0 34H614V9.53674e-07H0V34Z" fill="#FFE668"/>
<path opacity="0.7" d="M219.25 36.0607C219.25 42.496 214.192 47.6743 208 47.6743C201.808 47.6743 196.75 42.496 196.75 36.0607C196.75 29.6254 201.808 24.447 208 24.447C214.192 24.447 219.25 29.6254 219.25 36.0607Z" stroke="#F2CA00" stroke-width="1.5"/>
<path opacity="0.7" d="M13.25 32.9696C13.25 35.4218 11.3263 37.3711 9 37.3711C6.67374 37.3711 4.75 35.4218 4.75 32.9696C4.75 30.5175 6.67374 28.5681 9 28.5681C11.3263 28.5681 13.25 30.5175 13.25 32.9696Z" stroke="#F2CA00" stroke-width="1.5"/>
<path opacity="0.7" d="M373.25 11.8486C373.25 14.5852 371.102 16.7652 368.5 16.7652C365.898 16.7652 363.75 14.5852 363.75 11.8486C363.75 9.11189 365.898 6.93188 368.5 6.93188C371.102 6.93188 373.25 9.11189 373.25 11.8486Z" stroke="#F2CA00" stroke-width="1.5"/>
<path opacity="0.7" d="M592.25 30.9092C592.25 35.0684 588.983 38.4016 585 38.4016C581.017 38.4016 577.75 35.0684 577.75 30.9092C577.75 26.75 581.017 23.4167 585 23.4167C588.983 23.4167 592.25 26.75 592.25 30.9092Z" stroke="#F2CA00" stroke-width="1.5"/>
<path opacity="0.7" fill-rule="evenodd" clip-rule="evenodd" d="M256.538 3.09082H255V4.6759H256V4.67599H256.769V4.67601H258.308V3.09093H257.538V3.09091H256.538V3.09082ZM259.846 3.09082L258.308 3.09082V4.6759H259.846V3.09082ZM258.308 4.67611H259.846V6.26105H259.846V7.29136H260.846V7.29161H262.385V8.87655H263.923V9.90686V10.4616V11.4918H263.923V11.4921H264.923H265.462H266.462V13.0771H265.462H264.923H263.923V13.0769H262.385V11.4919H262.385V10.4616V9.90686V8.87669H260.846V8.87644H259.846H259.308H258.308V7.84613V7.29136V6.26119H258.308V4.67611ZM263.923 7.29136L262.385 7.29136V8.87644H263.923V7.29136ZM266.462 11.4918H268V13.0769H266.462V11.4918ZM268 13.077H266.462V14.6621H266.462V14.8999V15.4547V16.485H268V15.4547V14.8999V13.8696H268V13.077Z" fill="#F2CA00"/>
<path opacity="0.7" fill-rule="evenodd" clip-rule="evenodd" d="M427.538 19.5757H426V21.1608H427V21.1609H427.769V21.1609H429.308V19.5758H428.538V19.5758H427.538V19.5757ZM430.846 19.5757H429.308V21.1608H430.846V19.5757ZM429.308 21.161H430.846V22.7459H430.846V23.7762H431.846V23.7765H433.385V25.3614H434.923V26.3917V26.9465V27.9767H434.923V27.9769H435.923H436.461H437.461V29.562H436.461H435.923H434.923V29.5617H433.385V27.9768H433.385V26.9465V26.3917V25.3615H431.846V25.3613H430.846H430.308H429.308V24.331V23.7762V22.746H429.308V21.161ZM434.923 23.7762H433.385V25.3613H434.923V23.7762ZM437.462 27.9767H439V29.5617H437.462V27.9767ZM439 29.5618H437.462V31.1469H437.462V31.3848V31.9395V32.9698H439V31.9395V31.3848V30.3544H439V29.5618Z" fill="#F2CA00"/>
<path opacity="0.7" fill-rule="evenodd" clip-rule="evenodd" d="M116.538 26.7878H115V28.3729H116V28.373H116.769V28.373H118.308V26.7879H117.538V26.7879H116.538V26.7878ZM119.846 26.7878H118.308V28.3729H119.846V26.7878ZM118.308 28.3731H119.846V29.958H119.846V30.9883H120.846V30.9886H122.385V32.5735H123.923V33.6038V34.1586V35.1888H123.923V35.189H124.923H125.462H126.462V36.7741H125.462H124.923H123.923V36.7739H122.385V35.1889H122.385V34.1586V33.6038V32.5737H120.846V32.5734H119.846H119.308H118.308V31.5431V30.9883V29.9582H118.308V28.3731ZM123.923 30.9883H122.385V32.5734H123.923V30.9883ZM126.462 35.1888H128V36.7739H126.462V35.1888ZM128 36.774H126.462V38.3591H126.462V38.5969V39.1517V40.182H128V39.1517V38.5969V37.5666H128V36.774Z" fill="#F2CA00"/>
<rect opacity="0.7" y="1.07637" width="8.26819" height="8.26819" transform="matrix(0.696475 0.717581 -0.696475 0.717581 311.356 16.3836)" stroke="#F2CA00" stroke-width="1.5"/>
<rect opacity="0.7" y="1.07637" width="8.26819" height="8.26819" transform="matrix(0.696475 0.717581 -0.696475 0.717581 166.553 0.303988)" stroke="#F2CA00" stroke-width="1.5"/>
<rect opacity="0.7" x="542.871" y="17.2349" width="8.41288" height="8.12132" transform="rotate(90 542.871 17.2349)" stroke="#F2CA00" stroke-width="1.5"/>
<path opacity="0.7" d="M478.352 10.5834L484 0.503944L489.648 10.5834H478.352Z" stroke="#F2CA00" stroke-width="1.5"/>
<path opacity="0.7" d="M67.1663 3.61265L73.1976 -6.3161L78.6361 3.61265L67.1663 3.61265Z" stroke="#F2CA00" stroke-width="1.5"/>
</g>
</svg>
