<svg width="18" height="18" viewBox="0 0 18 18" fill="none" xmlns="http://www.w3.org/2000/svg">
<path fill-rule="evenodd" clip-rule="evenodd" d="M3.02167 16.1027C3.0791 16.1069 3.13655 16.1107 3.19403 16.1141C4.1412 16.1698 5.0924 16.1125 6.0267 15.9429C6.6567 15.8197 7.20446 15.4303 7.52839 14.8739C7.85229 14.3185 7.92263 13.6489 7.72055 13.0379C7.71461 12.8312 7.73541 12.6236 7.78395 12.4219L7.8622 12.107C7.9355 11.8169 7.88499 11.5089 7.72352 11.2575C7.56504 11.0121 7.31245 10.8442 7.02618 10.7926C6.90606 10.7713 6.79201 10.7453 6.68418 10.7148C6.09759 10.5489 5.69546 10.2487 5.50469 9.83583C5.92924 9.83984 6.35279 9.81087 6.77161 9.74953C7.18143 9.68952 7.58673 9.59853 7.98403 9.47716C8.25247 9.38575 8.42681 9.12744 8.41294 8.84429L8.33964 7.34906V7.34807C8.80818 7.17122 9.22915 6.88609 9.56893 6.51651C10.0206 6.01478 9.96072 5.37744 9.62314 5.03986L8.94797 4.36469C7.93523 3.35195 7.28471 2.48985 7.22826 1.33849C7.21845 1.07896 7.19658 0.820002 7.16396 0.5625C3.07389 1.41026 0 5.03369 0 9.37507C0 12.051 1.16785 14.4542 3.02167 16.1027Z" fill="#85A4F1"/>
<path fill-rule="evenodd" clip-rule="evenodd" d="M16.9143 7.36575C17.2208 7.2926 17.5286 7.4818 17.6018 7.78836C18.3406 10.8844 17.3275 13.9084 15.0551 15.989C14.8226 16.2019 14.4617 16.186 14.2488 15.9535C14.036 15.7211 14.0519 15.3601 14.2844 15.1473C16.2635 13.3352 17.1305 10.73 16.4917 8.05328C16.4185 7.74673 16.6077 7.43891 16.9143 7.36575ZM14.2093 8.05764C14.5182 7.99473 14.8195 8.19409 14.8824 8.50291C15.0626 9.38734 15.0969 10.3013 14.8357 11.2194C14.5734 12.1414 14.0252 13.0241 13.1087 13.8632C12.8763 14.0761 12.5153 14.0602 12.3025 13.8277C12.0897 13.5953 12.1056 13.2343 12.338 13.0215C13.1222 12.3035 13.5417 11.5969 13.738 10.9071C13.9354 10.2133 13.9194 9.49307 13.7641 8.7307C13.7012 8.42188 13.9005 8.12054 14.2093 8.05764ZM11.5247 8.7676C11.8278 8.68119 12.1436 8.85685 12.23 9.15994C12.3092 9.4377 12.363 9.86756 12.2968 10.3281C12.2297 10.7946 12.0326 11.3315 11.5696 11.7554C11.3372 11.9682 10.9762 11.9523 10.7634 11.7199C10.5505 11.4874 10.5664 11.1264 10.7989 10.9136C11.0162 10.7147 11.1264 10.4491 11.1671 10.1656C11.2088 9.87606 11.171 9.60827 11.1324 9.47283C11.046 9.16975 11.2216 8.854 11.5247 8.7676Z" fill="#85A4F1"/>
</svg>
