<svg width="20" height="25" viewBox="0 0 20 25" fill="none" xmlns="http://www.w3.org/2000/svg">
<path d="M8.91964 11.0549V15.7268C8.9375 16.0098 9.16964 16.2344 9.45536 16.2344H10.9643C11.2455 16.2344 11.4821 16.0143 11.5 15.7268V11.0549C11.5179 10.7449 11.2723 10.4844 10.9643 10.4844H9.45536C9.14732 10.4844 8.90179 10.7449 8.91964 11.0549ZM11.5 18.75C11.5 19.7428 11.1964 20 10.2098 20C9.22321 20 8.91964 19.7428 8.91964 18.75C8.91964 17.7572 9.22321 17.5 10.2098 17.5C11.1964 17.5 11.5 17.7572 11.5 18.75ZM17.8571 3.07812L16 3.03906V0.539062C16 0.242578 15.7589 0 15.4643 0L13.5357 0.0390625C13.2411 0.0390625 13 0.281641 13 0.578125V3.07812H7V0.578125C7 0.281641 6.75893 0.0390625 6.46429 0.0390625H4.5C4.20536 0.0390625 3.96429 0.281641 3.96429 0.578125V3.07812H2.14286C0.959821 3.07812 0 3.87988 0 5.07031V21.8828C0 23.0732 0.959821 24.0391 2.14286 24.0391H17.8571C19.0402 24.0391 20 23.0732 20 21.8828V5.07031C20 3.87988 19.0402 3.07812 17.8571 3.07812ZM17.1786 22.5C17.1786 22.5 4.41071 22.5 3 22.5C1.58929 22.5 1.58929 21.2225 1.58929 21.0742L1.5 8.03906H18.5L18.5893 21.0742C18.5893 22.5 17.3259 22.5 17.1786 22.5Z" fill="#2A84F9"/>
</svg>
