<svg width="69" height="60" viewBox="0 0 69 60" fill="none" xmlns="http://www.w3.org/2000/svg">
<path d="M24.4454 55.0169C22.3116 57.1506 19.4034 58.1294 16.4949 57.82L21.095 53.2199L19.6062 46.0502L12.442 44.5676L7.83899 49.1706C7.51452 46.2365 8.51888 43.3318 10.6398 41.2113C15.4543 36.3968 21.4019 39.1711 21.469 39.178L45.1352 15.5118L44.9459 15.0919C43.2926 11.4219 44.0976 7.03968 46.9498 4.18741C48.7895 2.3477 51.2379 1.33447 53.8435 1.33447C54.198 1.33447 54.5521 1.35402 54.9036 1.39212L50.3006 5.99549L51.7833 13.1599L58.9477 14.6426L63.553 10.0373C63.8817 12.9667 62.8783 15.8705 60.7557 17.9933C58.9121 19.837 56.4625 20.8525 53.8578 20.8525C52.6446 20.8525 51.4581 20.6313 50.3309 20.195L49.9256 20.0383L26.2607 43.7029C26.2688 43.7696 29.5131 49.9498 24.4454 55.0169Z" fill="#E2E2E2"/>
<path d="M40.7348 31.1163L50.2615 21.5896C51.4187 21.9861 52.6267 22.1868 53.8585 22.1868C56.8193 22.1868 59.6041 21.0325 61.6996 18.9367C64.4486 16.1874 65.5461 12.2874 64.6359 8.5037L64.3574 7.34582L58.5134 13.1901L52.9128 12.0307L51.7533 6.43007L57.5976 0.58608L56.4398 0.307519C55.5921 0.103551 54.7186 0 53.8439 0C50.8818 0 48.0983 1.15201 46.0067 3.24386C42.875 6.37562 41.9145 11.1312 43.548 15.2123L34.1894 24.5709L31.057 27.7034L21.1351 37.6252C17.2928 36.3013 12.8207 37.1432 9.69665 40.2677C6.95027 43.0134 5.85043 46.9154 6.75444 50.7046L7.03133 51.8654L12.8769 46.0198L18.4778 47.1793L19.6422 52.7857L13.7956 58.6323L14.9584 58.9083C18.5583 59.7627 22.534 58.8158 25.3891 55.9602C28.5111 52.8385 29.4713 48.0875 27.8472 44.0038L37.6057 34.2453L40.7348 31.1163ZM24.4457 55.0168C22.312 57.1505 19.4037 58.1293 16.4952 57.8198L21.0953 53.2197L19.6065 46.0501L12.4424 44.5675L7.83933 49.1705C7.51486 46.2364 8.51922 43.3317 10.6402 41.2112C15.4546 36.3967 21.4022 39.171 21.4694 39.1779L45.1356 15.5117L44.9463 15.0918C43.2929 11.4218 44.0979 7.03957 46.9502 4.1873C48.7899 2.34759 51.2382 1.33436 53.8438 1.33436C54.1983 1.33436 54.5524 1.35391 54.904 1.39201L50.3009 5.99538L51.7836 13.1598L58.948 14.6425L63.5533 10.0372C63.882 12.9666 62.8786 15.8704 60.7561 17.9932C58.9124 19.8369 56.4628 20.8524 53.8582 20.8524C52.6449 20.8524 51.4584 20.6312 50.3312 20.1949L49.9259 20.0382L26.261 43.7028C26.2691 43.7695 29.5134 49.9497 24.4457 55.0168Z" fill="#383525"/>
<path d="M32.4942 31.6236L33.4344 32.5703L43.6032 22.4703L42.663 21.5236L32.4942 31.6236Z" fill="#383525"/>
<path d="M26.0002 38.1002L26.9404 39.0469L37.1092 28.9469L36.169 28.0002L26.0002 38.1002Z" fill="#383525"/>
<path d="M35.8829 0.000488281H34.5485V1.33492H35.8829V0.000488281Z" fill="#383525"/>
<path d="M38.0514 0.000488281H37.217V1.33492H38.0514V0.000488281Z" fill="#383525"/>
<path d="M33.2131 0.000488281H31.8787V1.33492H33.2131V0.000488281Z" fill="#383525"/>
<path d="M30.5446 0.000488281H29.2102V1.33492H30.5446V0.000488281Z" fill="#383525"/>
<path d="M27.8761 0.000488281H26.5416V1.33492H27.8761V0.000488281Z" fill="#383525"/>
<path d="M65.9232 27.0366H64.5887V28.371H65.9232V27.0366Z" fill="#383525"/>
<path d="M68.0929 27.0366H67.2585V28.371H68.0929V27.0366Z" fill="#383525"/>
<path d="M57.9163 27.0366H56.5819V28.371H57.9163V27.0366Z" fill="#383525"/>
<path d="M60.5861 27.0366H59.2517V28.371H60.5861V27.0366Z" fill="#383525"/>
<path d="M63.2546 27.0366H61.9202V28.371H63.2546V27.0366Z" fill="#383525"/>
<path d="M44.4588 57.875H43.1244V59.2094H44.4588V57.875Z" fill="#383525"/>
<path d="M31.1137 57.875H29.7793V59.2094H31.1137V57.875Z" fill="#383525"/>
<path d="M41.7904 57.875H40.4559V59.2094H41.7904V57.875Z" fill="#383525"/>
<path d="M46.5162 57.875H45.793V59.2094H46.5162V57.875Z" fill="#383525"/>
<path d="M36.452 57.875H35.1176V59.2094H36.452V57.875Z" fill="#383525"/>
<path d="M33.7835 57.875H32.4491V59.2094H33.7835V57.875Z" fill="#383525"/>
<path d="M39.1206 57.875H37.7861V59.2094H39.1206V57.875Z" fill="#383525"/>
<path d="M6.67134 23.2402H5.33691V24.5747H6.67134V23.2402Z" fill="#383525"/>
<path d="M9.34126 23.2402H8.00684V24.5747H9.34126V23.2402Z" fill="#383525"/>
<path d="M11.4511 23.2402H10.6738V24.5747H11.4511V23.2402Z" fill="#383525"/>
<path d="M1.33443 23.2402H0V24.5747H1.33443V23.2402Z" fill="#383525"/>
<path d="M4.00337 23.2402H2.66895V24.5747H4.00337V23.2402Z" fill="#383525"/>
<path d="M53.3906 54.6055L16.623 17.2871L22.2773 11.6328L59.0547 48.9512L53.3906 54.6055Z" fill="#F5D147"/>
<path d="M22 10L20 8L13 15L15 17L22 10Z" fill="#E9E9E9"/>
<path d="M12.5 14.5L19.5 7.5L15.75 4H14.5L9 9.5V11L12.5 14.5Z" fill="#FF7575"/>
<path d="M31.3984 18.459L16.623 3.70313C15.6855 2.76562 14.1621 2.76562 13.2246 3.70313L8.70313 8.23438C7.76562 9.17188 7.76562 10.6953 8.70313 11.6328L23.9082 26.8379L30.998 33.9473L53 56.5L62.2383 57.8184L60.9199 48.5801L38.498 25.5781L31.3984 18.459ZM53.3906 54.6055L16.623 17.2871L22.2773 11.6328L59.0547 48.9512L53.3906 54.6055ZM15.4902 16.1543L13.791 14.4551L19.4453 8.80078L21.1543 10.5L15.4902 16.1543ZM9.83594 9.36719L14.3574 4.83594C14.6699 4.52344 15.1777 4.52344 15.4902 4.83594L18.3223 7.66797L12.668 13.3223L9.83594 10.4902C9.52344 10.1875 9.52344 9.67969 9.83594 9.36719ZM55.0898 55.1719L59.6211 50.6406L60.373 55.9238L55.0898 55.1719Z" fill="#383525"/>
<path d="M23.9782 17.8553L22.8457 18.9878L51.5851 47.7272L52.7176 46.5948L23.9782 17.8553Z" fill="#383525"/>
</svg>
