<svg width="16" height="16" viewBox="0 0 16 16" fill="none" xmlns="http://www.w3.org/2000/svg">
<path fill-rule="evenodd" clip-rule="evenodd" d="M8 16C12.4183 16 16 12.4183 16 8C16 3.58172 12.4183 0 8 0C3.58172 0 0 3.58172 0 8C0 12.4183 3.58172 16 8 16ZM8.66667 2.36667V7.64321L11.9538 9.83462C12.1835 9.98779 12.2456 10.2982 12.0925 10.528L11.9076 10.8053C11.7544 11.0351 11.4439 11.0972 11.2142 10.944L7.33333 8.35679V2.36667C7.33333 2.09052 7.55719 1.86667 7.83333 1.86667H8.16667C8.44281 1.86667 8.66667 2.09052 8.66667 2.36667Z" fill="#7FA1F5"/>
</svg>
