<svg width="18" height="18" viewBox="0 0 18 18" fill="none" xmlns="http://www.w3.org/2000/svg">
<path d="M9 0C6.61277 0 4.32437 0.948075 2.63557 2.63557C0.948074 4.3242 0 6.61269 0 9C0 11.3873 0.948074 13.6756 2.63557 15.3644C4.3242 17.0519 6.61269 18 9 18C11.3873 18 13.6756 17.0519 15.3644 15.3644C17.0519 13.6758 18 11.3873 18 9C18 6.61269 17.0519 4.32437 15.3644 2.63557C13.6758 0.948075 11.3873 0 9 0ZM9 16.258C7.07549 16.258 5.2293 15.4937 3.86828 14.1316C2.50626 12.7708 1.7419 10.9245 1.7419 8.99991C1.7419 7.07537 2.50626 5.22922 3.86828 3.86819C5.22916 2.50617 7.07546 1.74181 9 1.74181C10.9245 1.74181 12.7707 2.50617 14.1317 3.86819C15.4937 5.22907 16.2581 7.07537 16.2581 8.99991C16.2581 10.9245 15.4937 12.7706 14.1317 14.1316C12.7708 15.4937 10.9245 16.258 9 16.258Z" fill="#85A4F1"/>
<path d="M8.12901 10.0921L6.13192 8.09506L4.90145 9.32553L7.51434 11.9384H7.51321C7.85343 12.2775 8.40458 12.2775 8.74481 11.9384L13.39 7.29327L12.1595 6.0628L8.12901 10.0921Z" fill="#85A4F1"/>
</svg>
