<svg width="65" height="61" viewBox="0 0 65 61" fill="none" xmlns="http://www.w3.org/2000/svg">
<path d="M4.50845 11.0498H0.70459V51.6243H26.0637C26.3454 53.4558 27.7543 57.9641 32.4034 57.9641C36.812 57.9641 38.4614 53.7376 38.7432 51.6243H63.6796V11.0498H60.2984L59.8757 45.7072L4.50845 46.1298V11.0498Z" fill="#6C9CFA"/>
<path d="M32.4034 58.4201C35.8699 58.4201 38.7565 55.8614 39.2302 52.4886H64.6973V10.3418H60.743V3.12109H37.1288C35.0932 3.12109 33.3186 4.25677 32.4034 5.92744C31.4883 4.25677 29.7137 3.12109 27.6786 3.12109H4.06377V10.3418H0.109375V52.4886H25.5765C26.0503 55.8614 28.9369 58.4201 32.4034 58.4201ZM37.1288 4.43923H59.4249V45.1237H33.0624V8.50524C33.0624 6.26323 34.8864 4.43923 37.1288 4.43923ZM5.38184 4.43923H27.6785C29.9203 4.43923 31.7442 6.26323 31.7442 8.50524V45.1237H5.38184V4.43923ZM1.42751 11.6599H4.06377V46.4418H31.7444H33.0625H60.7431V11.6599H63.3793V51.1704H38.0047L37.9732 51.7966C37.8252 54.7714 35.3782 57.1019 32.4034 57.1019C29.4285 57.1019 26.9815 54.7714 26.8335 51.7966L26.802 51.1704H1.42751V11.6599Z" fill="#383525"/>
<path d="M37.0869 58.2739C36.7528 58.5056 36.4001 58.7141 36.0371 58.8931L36.6202 60.0754C37.0418 59.8672 37.4518 59.6255 37.8386 59.3564L37.0869 58.2739Z" fill="#383525"/>
<path d="M41.2913 54.9713L40.062 54.4956C39.9153 54.875 39.7389 55.2451 39.5381 55.5952L40.6824 56.2504C40.9155 55.8427 41.1208 55.4124 41.2913 54.9713Z" fill="#383525"/>
<path d="M34.9076 59.3501C34.5221 59.4734 34.1237 59.5686 33.7234 59.6329L33.9332 60.9343C34.3985 60.8596 34.8613 60.749 35.3093 60.6057L34.9076 59.3501Z" fill="#383525"/>
<path d="M38.0332 57.5065L38.9368 58.4661C39.2799 58.1432 39.601 57.7922 39.8919 57.4224L38.857 56.6069C38.606 56.9256 38.3286 57.2281 38.0332 57.5065Z" fill="#383525"/>
<path d="M27.6925 9.06641H13.2273V10.3845H27.6925V9.06641Z" fill="#383525"/>
<path d="M11.487 9.06641H8.2644V10.3845H11.487V9.06641Z" fill="#383525"/>
<path d="M27.6923 14.085H23.3634V15.4031H27.6923V14.085Z" fill="#383525"/>
<path d="M21.2448 14.085H8.2644V15.4031H21.2448V14.085Z" fill="#383525"/>
<path d="M27.6923 19.1035H14.0214V20.4216H27.6923V19.1035Z" fill="#383525"/>
<path d="M12.2432 19.1035H8.2644V20.4216H12.2432V19.1035Z" fill="#383525"/>
<path d="M27.6922 24.1221H22.6824V25.4402H27.6922V24.1221Z" fill="#383525"/>
<path d="M20.4506 24.1221H8.2644V25.4402H20.4506V24.1221Z" fill="#383525"/>
<path d="M27.6921 29.1411H13.6053V30.4593H27.6921V29.1411Z" fill="#383525"/>
<path d="M11.7135 29.1411H8.2644V30.4593H11.7135V29.1411Z" fill="#383525"/>
<path d="M27.6921 34.1597H22.9474V35.4778H27.6921V34.1597Z" fill="#383525"/>
<path d="M20.6482 34.1597H8.2644V35.4778H20.6482V34.1597Z" fill="#383525"/>
<path d="M27.6923 39.1782H13.3024V40.4964H27.6923V39.1782Z" fill="#383525"/>
<path d="M11.411 39.1782H8.2644V40.4964H11.411V39.1782Z" fill="#383525"/>
<path d="M56.2684 9.06641H41.8032V10.3845H56.2684V9.06641Z" fill="#383525"/>
<path d="M40.0638 9.06641H36.8412V10.3845H40.0638V9.06641Z" fill="#383525"/>
<path d="M56.2684 14.085H51.9395V15.4031H56.2684V14.085Z" fill="#383525"/>
<path d="M49.8216 14.085H36.8412V15.4031H49.8216V14.085Z" fill="#383525"/>
<path d="M56.2684 19.1035H42.5974V20.4216H56.2684V19.1035Z" fill="#383525"/>
<path d="M40.82 19.1035H36.8412V20.4216H40.82V19.1035Z" fill="#383525"/>
<path d="M56.2683 24.1221H51.2584V25.4402H56.2683V24.1221Z" fill="#383525"/>
<path d="M49.0274 24.1221H36.8412V25.4402H49.0274V24.1221Z" fill="#383525"/>
<path d="M56.2689 29.1411H42.1821V30.4593H56.2689V29.1411Z" fill="#383525"/>
<path d="M40.2903 29.1411H36.8412V30.4593H40.2903V29.1411Z" fill="#383525"/>
<path d="M56.2689 34.1597H51.5242V35.4778H56.2689V34.1597Z" fill="#383525"/>
<path d="M49.2256 34.1597H36.8412V35.4778H49.2256V34.1597Z" fill="#383525"/>
<path d="M56.2684 39.1782H41.8792V40.4964H56.2684V39.1782Z" fill="#383525"/>
<path d="M39.9878 39.1782H36.8412V40.4964H39.9878V39.1782Z" fill="#383525"/>
<path d="M8.36818 53.958H7.05005V55.2761H8.36818V53.958Z" fill="#383525"/>
<path d="M5.73244 53.958H4.41431V55.2761H5.73244V53.958Z" fill="#383525"/>
<path d="M13.6406 53.958H12.3225V55.2761H13.6406V53.958Z" fill="#383525"/>
<path d="M11.0049 53.958H9.68677V55.2761H11.0049V53.958Z" fill="#383525"/>
<path d="M54.3406 53.958H53.0225V55.2761H54.3406V53.958Z" fill="#383525"/>
<path d="M51.7049 53.958H50.3867V55.2761H51.7049V53.958Z" fill="#383525"/>
<path d="M59.6138 53.958H58.2957V55.2761H59.6138V53.958Z" fill="#383525"/>
<path d="M56.9772 53.958H55.6591V55.2761H56.9772V53.958Z" fill="#383525"/>
<path d="M49.8029 0.0493164H48.4847V1.36745H49.8029V0.0493164Z" fill="#383525"/>
<path d="M44.5305 0.0493164H43.2124V1.36745H44.5305V0.0493164Z" fill="#383525"/>
<path d="M47.1663 0.0493164H45.8481V1.36745H47.1663V0.0493164Z" fill="#383525"/>
<path d="M52.4387 0.0493164H51.1206V1.36745H52.4387V0.0493164Z" fill="#383525"/>
<path d="M54.9278 0.0493164H53.7571V1.36745H54.9278V0.0493164Z" fill="#383525"/>
<path d="M16.4705 0.0493164H15.1523V1.36745H16.4705V0.0493164Z" fill="#383525"/>
<path d="M19.1062 0.0493164H17.7881V1.36745H19.1062V0.0493164Z" fill="#383525"/>
<path d="M21.5948 0.0493164H20.4247V1.36745H21.5948V0.0493164Z" fill="#383525"/>
<path d="M11.1972 0.0493164H9.87903V1.36745H11.1972V0.0493164Z" fill="#383525"/>
<path d="M13.8338 0.0493164H12.5156V1.36745H13.8338V0.0493164Z" fill="#383525"/>
</svg>
