<svg width="32" height="32" viewBox="0 0 32 32" fill="none" xmlns="http://www.w3.org/2000/svg">
<path d="M32 16C32 7.16344 24.8366 0 16 0C7.16344 0 0 7.16344 0 16C0 24.8366 7.16344 32 16 32C24.8366 32 32 24.8366 32 16Z" fill="#2A84F9"/>
<path d="M9.39715 14.1742L9.39715 14.1741L9.38959 14.1742C9.01708 14.1752 8.71541 14.4772 8.71437 14.8502H8.71436V14.8506L8.71436 16.9319L8.71436 16.932C8.71521 18.1647 9.20508 19.3466 10.0773 20.2189L10.0773 20.2189C10.9488 21.0904 12.1315 21.5811 13.3643 21.5819H13.3644H19.6171L19.0093 22.1898C18.87 22.3107 18.7856 22.4845 18.7773 22.6697L18.7773 22.6705C18.7699 22.8574 18.8401 23.0404 18.9721 23.1735L18.9721 23.1735C19.1048 23.3072 19.2861 23.3788 19.4742 23.3725L19.4742 23.3725C19.66 23.3662 19.8343 23.2834 19.9571 23.1441L21.7113 21.3899C21.7115 21.3897 21.7116 21.3896 21.7118 21.3894C21.839 21.2641 21.9117 21.0924 21.9117 20.9128C21.9117 20.7333 21.839 20.5616 21.7118 20.4363C21.7117 20.4361 21.7115 20.436 21.7113 20.4358L19.9563 18.6792C19.8332 18.5431 19.6596 18.4633 19.4759 18.4581C19.2903 18.4528 19.1115 18.5245 18.9803 18.6546L18.9799 18.6551C18.8492 18.7858 18.7777 18.9658 18.7829 19.151L18.783 19.151C18.7882 19.3342 18.8682 19.5075 19.0038 19.6312L19.613 20.2405L13.3647 20.2405C13.3646 20.2405 13.3646 20.2405 13.3645 20.2405C12.4888 20.2388 11.6493 19.891 11.0306 19.2717L11.0305 19.2716C10.4118 18.6529 10.0633 17.8132 10.0625 16.9375V14.8698C10.0689 14.6887 10.0016 14.5119 9.87493 14.3808C9.74958 14.2494 9.57724 14.1761 9.39715 14.1742Z" fill="white" stroke="white" stroke-width="0.3"/>
<path d="M13.2312 9.26206C13.2385 9.0745 13.1668 8.89249 13.0343 8.75998L13.0343 8.75997L13.0334 8.75914C12.9004 8.62819 12.7187 8.55648 12.5309 8.56387C12.3455 8.57116 12.1713 8.65473 12.0494 8.79503L10.295 10.5494C10.1678 10.6747 10.0951 10.8464 10.0951 11.0259C10.0951 11.2054 10.1678 11.377 10.2949 11.5023L12.0464 13.2637L12.0464 13.2638L12.0487 13.2659C12.3139 13.5217 12.7343 13.5176 12.9943 13.2565C13.2535 12.9962 13.2565 12.5761 13.0007 12.3118L13.0007 12.3118L12.999 12.3101L12.3897 11.7007L18.6715 11.7007C18.6715 11.7007 18.6716 11.7007 18.6716 11.7007C19.5473 11.7023 20.3861 12.0509 21.0049 12.6696C21.6236 13.2884 21.9722 14.128 21.9737 15.003V17.084H21.9731L21.9743 17.0975C22.0059 17.4464 22.2981 17.7138 22.6477 17.7138C22.998 17.7138 23.2907 17.4466 23.3212 17.0971L23.3218 17.0971V17.084V15.0027V15.0026C23.3209 13.7708 22.8311 12.5887 21.9605 11.7174L21.9604 11.7174C21.0891 10.846 19.908 10.3553 18.6762 10.3528H18.6759H12.3938L13.0019 9.74469C13.1411 9.62287 13.2248 9.44874 13.2312 9.26206ZM13.2312 9.26206C13.2312 9.2622 13.2312 9.26235 13.2312 9.26249L13.0813 9.2566L13.2312 9.26162C13.2312 9.26177 13.2312 9.26191 13.2312 9.26206Z" fill="white" stroke="white" stroke-width="0.3"/>
</svg>
