<svg width="77" height="33" viewBox="0 0 77 33" fill="none" xmlns="http://www.w3.org/2000/svg">
<rect x="4.47516" y="27.1819" width="43.7273" height="3.54546" fill="#FFE668"/>
<path d="M73.3776 0.245275C73.2314 0.0883623 73.0242 0 72.8094 0C72.5946 0 72.3874 0.0883584 72.2412 0.245275L70.3719 2.09778L69.3162 1.05725V1.05878C69.0023 0.758662 68.5088 0.758662 68.1949 1.05878L49.5069 18.0877L49.3926 18.234V18.3315C49.3698 18.4397 49.3698 18.5493 49.3926 18.6575V23.1913L47.0526 25.4338L44.3714 28.0982C43.9037 28.5629 43.762 29.2652 44.0149 29.8746C44.2693 30.4855 44.865 30.8816 45.5262 30.877H50.0599C50.2747 30.88 50.4819 30.7917 50.6281 30.6332L51.4401 29.8213L53.6506 27.6275H58.1844C58.291 27.6504 58.4022 27.6504 58.5089 27.6275H58.6064L58.7526 27.5133L75.8151 8.82523C76.1153 8.5114 76.1153 8.01781 75.8151 7.70398L74.7761 6.502L76.6286 4.63273C76.7856 4.48648 76.8739 4.27929 76.8739 4.0645C76.8739 3.84971 76.7856 3.64252 76.6286 3.49627L73.3776 0.245275ZM45.5262 29.2515L47.6224 27.1553L49.7187 29.2515H45.5262ZM53.3094 26.002C53.0946 25.999 52.8874 26.0874 52.7412 26.2458L50.8719 28.0983L48.7757 26.002L50.6282 24.1328C50.7866 23.9865 50.8749 23.7793 50.8719 23.5645V20.6563L56.2176 26.002H53.3094ZM73.6214 5.34883L71.5251 3.25258L72.8094 1.96831L74.9057 4.06456L73.6214 5.34883Z" fill="#F6D21F"/>
<path d="M73.3776 0.245275C73.2314 0.0883624 73.0242 0 72.8094 0C72.5946 0 72.3874 0.0883584 72.2412 0.245275L70.3719 2.09778L69.3162 1.05725V1.05878C69.0023 0.758662 68.5088 0.758662 68.1949 1.05878L49.5069 18.0877L49.3926 18.234V18.3315C49.3698 18.4397 49.3698 18.5493 49.3926 18.6575V23.1913L47.0526 25.4338L44.3714 28.0982C43.9037 28.5629 43.762 29.2652 44.0149 29.8746C44.2693 30.4855 44.865 30.8816 45.5262 30.877H50.0599C50.2747 30.88 50.4819 30.7917 50.6281 30.6332L51.4401 29.8213L53.6506 27.6275H58.1844C58.291 27.6504 58.4022 27.6504 58.5089 27.6275H58.6064L58.7526 27.5133L75.8151 8.82523C76.1153 8.5114 76.1153 8.01781 75.8151 7.70398L74.7761 6.502L76.6286 4.63273C76.7856 4.48648 76.8739 4.27929 76.8739 4.0645C76.8739 3.84971 76.7856 3.64252 76.6286 3.49627L73.3776 0.245275ZM45.5262 29.2515L47.6224 27.1553L49.7187 29.2515H45.5262ZM53.3094 26.002C53.0946 25.999 52.8874 26.0874 52.7412 26.2458L50.8719 28.0983L48.7757 26.002L50.6282 24.1328C50.7866 23.9865 50.8749 23.7793 50.8719 23.5645V20.6563L56.2176 26.002H53.3094ZM58.1844 25.644L51.2299 18.7215L68.7464 2.74831L74.1257 8.12758L58.1844 25.644ZM73.6214 5.34883L71.5251 3.25258L72.8094 1.96831L74.9057 4.06456L73.6214 5.34883Z" fill="#5D573A"/>
<path d="M32.7372 31.7554H32.1463V32.9372H32.7372V31.7554Z" fill="#0F1B3D"/>
<path d="M41.3472 31.7554H40.271V32.9372H41.3472V31.7554Z" fill="#0F1B3D"/>
<path d="M37.0421 31.7554H35.9659V32.9372H37.0421V31.7554Z" fill="#0F1B3D"/>
<path d="M39.1948 31.7554H38.1183V32.9372H39.1948V31.7554Z" fill="#0F1B3D"/>
<path d="M34.8897 31.7554H33.8134V32.9372H34.8897V31.7554Z" fill="#0F1B3D"/>
<path d="M43.0144 31.7554H42.4235V32.9372H43.0144V31.7554Z" fill="#0F1B3D"/>
<path d="M1.41903 24.6646H0.828125V25.8464H1.41903V24.6646Z" fill="#0F1B3D"/>
<path d="M10.029 24.6646H8.95279V25.8464H10.029V24.6646Z" fill="#0F1B3D"/>
<path d="M5.7239 24.6646H4.64767V25.8464H5.7239V24.6646Z" fill="#0F1B3D"/>
<path d="M7.87663 24.6646H6.80011V25.8464H7.87663V24.6646Z" fill="#0F1B3D"/>
<path d="M3.5715 24.6646H2.49527V25.8464H3.5715V24.6646Z" fill="#0F1B3D"/>
<path d="M11.6962 24.6646H11.1053V25.8464H11.6962V24.6646Z" fill="#0F1B3D"/>
</svg>
