<svg width="52" height="60" viewBox="0 0 52 60" fill="none" xmlns="http://www.w3.org/2000/svg">
<path d="M19.4379 52.0884V42.79H25.7875H33.808V52.0884C33.5262 54.3425 31.7793 58.8508 27.0456 58.8508C22.3119 58.8508 20.0014 54.3425 19.4379 52.0884Z" fill="#E9E9E9"/>
<path d="M26.6838 5.03613H25.4245V6.24439H26.6838V5.03613Z" fill="#0F1B3D"/>
<path d="M26.6838 -0.000976562H25.4245V1.25835H26.6838V-0.000976562Z" fill="#0F1B3D"/>
<path d="M26.6838 2.51758H25.4245V3.77691H26.6838V2.51758Z" fill="#0F1B3D"/>
<path d="M15.8962 6.32978L15.2666 5.23926L14.1759 5.86902L14.8055 6.95954L15.8962 6.32978Z" fill="#0F1B3D"/>
<path d="M17.1315 8.46716L16.5276 7.4209L15.4367 8.05053L16.0406 9.09679L17.1315 8.46716Z" fill="#0F1B3D"/>
<path d="M12.9169 3.68828L13.5466 4.77881L14.6373 4.14905L14.0077 3.05853L12.9169 3.68828Z" fill="#0F1B3D"/>
<path d="M6.11037 14.3953L7.20123 15.0249L7.83086 13.934L6.74 13.3044L6.11037 14.3953Z" fill="#0F1B3D"/>
<path d="M3.9287 13.1365L5.01923 13.7661L5.64898 12.6754L4.55846 12.0457L3.9287 13.1365Z" fill="#0F1B3D"/>
<path d="M8.92181 14.5629L8.29218 15.6538L9.33854 16.2578L9.96817 15.1669L8.92181 14.5629Z" fill="#0F1B3D"/>
<path d="M2.13042 24.5527H0.871094V25.8121H2.13042V24.5527Z" fill="#0F1B3D"/>
<path d="M7.11604 24.5527H5.90778V25.8121H7.11604V24.5527Z" fill="#0F1B3D"/>
<path d="M4.64898 24.5527H3.38965V25.8121H4.64898V24.5527Z" fill="#0F1B3D"/>
<path d="M6.74135 37.0583L7.83221 36.4287L7.20258 35.3378L6.11172 35.9675L6.74135 37.0583Z" fill="#0F1B3D"/>
<path d="M9.96661 35.1958L9.33698 34.105L8.29061 34.7089L8.92024 35.7998L9.96661 35.1958Z" fill="#0F1B3D"/>
<path d="M5.64886 37.689L5.01923 36.5981L3.92858 37.2277L4.55821 38.3185L5.64886 37.689Z" fill="#0F1B3D"/>
<path d="M45.3662 37.0621L45.9958 35.9712L44.9049 35.3416L44.2753 36.4324L45.3662 37.0621Z" fill="#0F1B3D"/>
<path d="M43.8133 34.7121L42.7671 34.1079L42.1372 35.1987L43.1835 35.8028L43.8133 34.7121Z" fill="#0F1B3D"/>
<path d="M47.5481 38.3213L48.1777 37.2305L47.0871 36.601L46.4575 37.6918L47.5481 38.3213Z" fill="#0F1B3D"/>
<path d="M48.7186 24.5527H47.4593V25.8121H48.7186V24.5527Z" fill="#0F1B3D"/>
<path d="M51.2367 24.5527H49.9774V25.8121H51.2367V24.5527Z" fill="#0F1B3D"/>
<path d="M46.1996 24.5527H44.9913V25.8121H46.1996V24.5527Z" fill="#0F1B3D"/>
<path d="M47.0882 13.7644L48.1787 13.1348L47.549 12.044L46.4584 12.6737L47.0882 13.7644Z" fill="#0F1B3D"/>
<path d="M44.9049 15.0232L45.9958 14.3936L45.3662 13.3027L44.2753 13.9323L44.9049 15.0232Z" fill="#0F1B3D"/>
<path d="M42.7686 16.2609L43.8148 15.6567L43.1849 14.566L42.1387 15.1702L42.7686 16.2609Z" fill="#0F1B3D"/>
<path d="M39.1923 3.68725L38.1014 3.05762L37.4719 4.14827L38.5628 4.7779L39.1923 3.68725Z" fill="#0F1B3D"/>
<path d="M36.2095 6.33082L37.3004 6.96045L37.93 5.86958L36.8392 5.23995L36.2095 6.33082Z" fill="#0F1B3D"/>
<path d="M34.9751 8.46754L36.0659 9.09717L36.6699 8.0508L35.579 7.42117L34.9751 8.46754Z" fill="#0F1B3D"/>
<path d="M25.629 29.9235L23.1691 26.5861H30.1993L27.7394 29.9235C27.6597 30.0318 27.6167 30.1628 27.6167 30.2971V42.1156H25.7517V30.2971C25.7517 30.1628 25.7087 30.0318 25.629 29.9235ZM37.4832 32.6943C35.1951 35.3209 33.9351 38.5679 33.9351 41.837V42.1156H28.876V30.504L31.5868 26.8261C31.9825 27.0406 32.4286 27.1737 32.9095 27.1737C34.4532 27.1737 35.7088 25.9181 35.7088 24.3743C35.7088 22.8306 34.4532 21.575 32.9095 21.575C31.3657 21.575 30.1101 22.8306 30.1101 24.3743C30.1101 24.7102 30.1792 25.0281 30.2881 25.3268H23.0775C23.1864 25.0281 23.2555 24.7102 23.2555 24.3743C23.2555 22.8306 21.9999 21.575 20.4561 21.575C18.9124 21.575 17.6568 22.8306 17.6568 24.3743C17.6568 25.9181 18.9124 27.1737 20.4561 27.1737C20.9379 27.1737 21.3846 27.0403 21.7809 26.825L24.4924 30.504V42.1156H19.4305V42.1107C19.4305 38.7253 18.137 35.3439 15.7881 32.5895C13.3795 29.7655 12.1764 26.156 12.4005 22.4266C12.8331 15.2322 18.5837 9.47333 25.7772 9.03124C34.0778 8.51995 40.9921 15.1225 40.9918 23.3125C40.9918 26.7651 39.7457 30.097 37.4832 32.6943ZM31.9168 25.5417C31.8846 25.5052 31.8472 25.4748 31.8079 25.4469C31.5376 25.1693 31.3695 24.7915 31.3695 24.3743C31.3695 23.5252 32.0603 22.8343 32.9095 22.8343C33.7587 22.8343 34.4495 23.5252 34.4495 24.3743C34.4495 25.2235 33.7587 25.9144 32.9095 25.9144C32.5294 25.9144 32.1856 25.7708 31.9168 25.5417ZM21.4554 25.5364C21.1857 25.7687 20.8392 25.9144 20.4561 25.9144C19.607 25.9144 18.9161 25.2235 18.9161 24.3743C18.9161 23.5252 19.607 22.8343 20.4561 22.8343C21.3053 22.8343 21.9962 23.5252 21.9962 24.3743C21.9962 24.7947 21.826 25.1757 21.5519 25.4539C21.5178 25.4791 21.484 25.5046 21.4554 25.5364Z" fill="#FFF384"/>
<path d="M25.6999 7.77452C17.8725 8.25571 11.6146 14.5222 11.1439 22.3512C10.8998 26.4074 12.2089 30.3339 14.8303 33.4069C16.9849 35.9335 18.1714 39.0247 18.1714 42.1108V43.3751H19.1463V46.2467H17.7099V47.506H19.1463V50.1172H17.7099V51.3765H19.1463V51.8411C19.1463 52.5871 19.2592 53.3067 19.4621 53.9877H17.7099V55.2471H19.9689C21.2155 57.6935 23.7532 59.3765 26.682 59.3765C29.6106 59.3765 32.1482 57.6934 33.3947 55.2471H35.6537V53.9877H33.9016C34.1044 53.3068 34.2173 52.5871 34.2173 51.8411V51.3766H35.6537V50.1173H34.2173V47.506H35.6537V46.2467H34.2173V43.3751H35.1946V41.8372C35.1946 38.8722 36.3445 35.9188 38.4328 33.5216C40.8951 30.6952 42.2513 27.0694 42.2513 23.3126C42.2514 14.4032 34.7397 7.21714 25.6999 7.77452ZM25.6292 29.9238L23.1693 26.5864H30.1995L27.7396 29.9238C27.66 30.032 27.617 30.163 27.617 30.2973V42.1158H25.752V30.2973C25.7519 30.163 25.7089 30.032 25.6292 29.9238ZM32.958 47.506V50.1173H30.9137V51.3766H32.958V51.8412C32.958 52.5959 32.8172 53.3168 32.5718 53.9878H24.7964V55.2471H31.946C30.8262 56.9717 28.887 58.1172 26.682 58.1172C24.4771 58.1172 22.5377 56.9717 21.4179 55.2471H23.3653V53.9878H20.792C20.5466 53.3168 20.4057 52.596 20.4057 51.8412V51.3766H29.2862V50.1173H20.4056V47.506H22.4951V46.2467H20.4056V43.3766H32.958V46.2467H23.9262V47.506H32.958ZM37.4834 32.6945C35.1953 35.3211 33.9354 38.5681 33.9354 41.8372V42.1158H28.8762V30.5042L31.587 26.8263C31.9827 27.0408 32.4288 27.1739 32.9097 27.1739C34.4535 27.1739 35.7091 25.9183 35.7091 24.3745C35.7091 22.8308 34.4535 21.5752 32.9097 21.5752C31.366 21.5752 30.1104 22.8308 30.1104 24.3745C30.1104 24.7104 30.1794 25.0283 30.2884 25.327H23.0777C23.1866 25.0283 23.2557 24.7105 23.2557 24.3745C23.2557 22.8308 22.0001 21.5752 20.4564 21.5752C18.9126 21.5752 17.657 22.8308 17.657 24.3745C17.657 25.9183 18.9126 27.1739 20.4564 27.1739C20.9381 27.1739 21.3849 27.0405 21.7811 26.8252L24.4926 30.5042V42.1158H19.4307V42.1109C19.4307 38.7255 18.1372 35.3442 15.7883 32.5897C13.3797 29.7657 12.1767 26.1562 12.4008 22.4269C12.8333 15.2324 18.5839 9.47354 25.7774 9.03145C34.078 8.52017 40.9923 15.1227 40.992 23.3127C40.9921 26.7653 39.7459 30.0972 37.4834 32.6945ZM31.917 25.5419C31.8848 25.5054 31.8475 25.4751 31.8081 25.4471C31.5378 25.1695 31.3697 24.7917 31.3697 24.3745C31.3697 23.5254 32.0606 22.8345 32.9097 22.8345C33.7589 22.8345 34.4498 23.5254 34.4498 24.3745C34.4498 25.2237 33.7589 25.9146 32.9097 25.9146C32.5297 25.9146 32.1859 25.771 31.917 25.5419ZM21.4556 25.5366C21.1859 25.7689 20.8394 25.9146 20.4564 25.9146C19.6072 25.9146 18.9163 25.2237 18.9163 24.3745C18.9163 23.5254 19.6072 22.8345 20.4564 22.8345C21.3055 22.8345 21.9964 23.5254 21.9964 24.3745C21.9964 24.795 21.8263 25.1759 21.5522 25.4542C21.518 25.4793 21.4842 25.5048 21.4556 25.5366Z" fill="#383525"/>
</svg>
