<svg xmlns="http://www.w3.org/2000/svg" width="25" height="25" fill="none" viewBox="0 0 25 25">
    <path fill="#3C627B" stroke="#3C627B" d="M7.352 7.96c.028.86.583 1.72 1.471 1.887.389.056.777 0 1.138-.11.111-.056.25-.084.333-.14.084-.027.14-.055.195-.083.027-.027.083-.055.083-.055.25-.139.416-.306.5-.583.027-.083.055-.305.055-.333a.63.63 0 0 1 .028-.111c.083-.361.055-.805-.056-1.166-.055-.139-.083-.277-.139-.416 0-.028-.055-.139-.055-.139-.083-.194-.167-.36-.305-.5-.056-.055-.195-.138-.195-.138-.083-.056-.166-.111-.25-.111-.055 0-.138-.028-.138-.028a.61.61 0 0 0-.063-.011c-.487-.094-1.066-.036-1.492.177a1.86 1.86 0 0 0-.5.306 3.435 3.435 0 0 0-.166.194c-.194.222-.471.472-.527.777-.028.111 0 .278.028.389.028.055.055.194.055.194zm1.333.444h.055l.01.012-.053.012a1.328 1.328 0 0 1-.012-.024zm.28.312l.025.021v.083a.783.783 0 0 1-.074-.062l.05-.042zm1.293-2.048a1.354 1.354 0 0 0-.103-.04.553.553 0 0 0-.024-.062.11.11 0 0 0 .024.006c.04.027.073.06.103.096zm-2.24.987a.815.815 0 0 0 .084-.278l-.084-.083c.028-.083.084-.167.111-.222.056-.056.111-.139.111-.167.122-.106.31-.187.497-.243l-.015.032-.065.017.063-.012c-.028.063-.063.15-.063.15-.083-.055-.222 0-.278.084l-.083.25c0 .028-.028.11-.028.11a.99.99 0 0 0-.243.558.37.37 0 0 1-.007-.196zM12.987 13.095c-.111-.389-.084-.833-.389-1.138-.194-.14-.388-.195-.61-.278a2.198 2.198 0 0 1-.19-.102 1.693 1.693 0 0 0-.588-.37 1.757 1.757 0 0 0-.3-.054l-.005-.001-.08-.013.108.013c-.263-.04-.57-.11-.867-.134a5.089 5.089 0 0 0-.438-.06c-.005-.002-.011-.002-.017-.003l.045.002-.052-.004a2.365 2.365 0 0 0-.447-.051h-.361l.42.027a11.07 11.07 0 0 0-.92.028c-.25.028-.444 0-.666.056-.194.056-.388.139-.583.194-.555.195-1.027.417-1.387.86-.444.556-.639 1.305-.722 1.971-.028.14-.056.278 0 .417.032.08.093.141.166.168a.352.352 0 0 0 .223.22c.166.028.388-.055.555-.083.222-.028.471-.028.694 0 .943.083 1.887.139 2.803.222.388.028.75.139 1.11.194a2.74 2.74 0 0 0 1.166-.083c.143-.048.409-.096.534-.25.082-.001.187-.027.187-.027.111-.028.195-.028.306-.056.055-.028.138-.083.138-.083.167-.056.306.083.444-.056.14-.139.056-.36.028-.5-.194-.499-.194-.527-.305-1.026zM6.88 14.122c-.174.019-.255.011-.381.005.035-.103.093-.258.135-.37a.31.31 0 0 0 .19.06c.049 0 .091-.001.134-.004a2.42 2.42 0 0 0-.058.304l-.02.005zm1.748-.278l.036-.112a.169.169 0 0 0 .052.033c-.027.117-.05.234-.06.35a3.09 3.09 0 0 1-.141-.02c.044-.077.081-.163.113-.25zm1.888.278c.055.027.138 0 .222-.028.027 0 .055-.028.055-.028-.01.074-.029.18-.034.29a9.691 9.691 0 0 0-.31-.05c.028-.07.067-.184.067-.184zm1.036-1.986l-.01.015c-.055-.083-.055-.111-.138-.139-.028-.027-.111-.027-.111-.055l.006-.055.088.05c.06.056.115.118.165.184zm-.98-.457c.056.014.12.014.183.014-.006.014-.014.027-.017.042-.028.055-.084.194-.084.194 0-.167-.277-.194-.36-.167-.056.028-.14.111-.14.084-.055-.056-.138-.111-.221-.084-.056 0-.167.028-.167.028.01-.062.028-.135.043-.21l.054-.01-.054.004.001-.006h.067l-.014.003c.051-.003.102-.005.153-.004.18.04.362.08.555.112zM16.1 14.384c-.002.005-.005.01-.005.015l.028-.028-.023.013z"/>
    <path fill="#3C627B" stroke="#3C627B" d="M16.928 13.622c-.027-.36-.194-.722-.305-1.055-.222-.638-.583-1.165-1.027-1.665-.222-.277-.583-.444-.916-.527-.083-.028-.166-.028-.277-.028-.028-.028-.14-.028-.14-.028-.055-.028-.138-.055-.193-.028-.028 0-.084.028-.084.028-.25-.028-.666-.083-.805.167a.474.474 0 0 0 0 .277c.056.056.167.139.167.139-.194.056-.222.167-.194.36 0 .084.166.195.166.195 0 .028.028.056.028.056.139.166.36.388.472.555.277.388.388.86.472 1.304.055.361-.028 1.083.305 1.332a.66.66 0 0 0 .333.084c.444.055.583.055 1.055.083.194.028.638.028.805-.167.277-.25.138-.832.138-1.082zm-3.275-2.609c.083 0 .25-.056.25-.056-.028.112-.056.223 0 .334l.005.007c-.126-.143-.255-.285-.255-.285zm.417.472a9.972 9.972 0 0 0-.127-.147c.051.046.127.091.127.091v.056zm.666 1.11c0 .056-.028.139-.056.139l-.166-.5c.055-.027.11-.083.11-.083 0 .083-.055.222-.027.305.028.056.166.14.139.14zm.222 1.638c-.028-.25-.111-.777-.084-.777.084-.028.111-.028.167-.084.028-.027.056-.083.056-.083a.625.625 0 0 0 .138.139c-.055.166-.11.333-.055.5a.912.912 0 0 0 .166.166c0 .055.056.194.056.194a6.097 6.097 0 0 0-.444-.055zm1.277-1.083l.083.167v.083c-.028-.028-.111-.083-.111-.083.027-.056.027-.167.027-.167zm-.14-.388c.028.055.056.138.056.138a.398.398 0 0 0-.083-.055c.028-.028.028-.083.028-.083zm0 1.637c-.014 0-.005-.007.006-.015.012-.028.05-.064.05-.04.028 0-.028.083-.055.055zm.306-.11c-.083.027-.25.027-.25.027l.25-.305v.277zM13.958 5.99a1.732 1.732 0 0 0 .097.019l-.097-.02z"/>
    <path fill="#3C627B" stroke="#3C627B" d="M12.959 9.348c.055.028.139.055.194.028.056 0 .139-.084.139-.084.166.028.25.056.416.056h.111c.139.055.444-.028.528-.111.083-.056.194-.167.194-.167.055-.055.083-.11.139-.166.027-.028.055-.084.055-.084.361-.333.472-.943.472-1.415 0-.167-.028-.278-.056-.444-.027-.056-.11-.194-.11-.194a1.303 1.303 0 0 0-.639-.694.986.986 0 0 0-.277-.056l-.033-.003-.038-.005.021.004-.029-.005a2.115 2.115 0 0 0-.282-.019c-.111.028-.278.083-.278.083-.139.028-.277.084-.416.14a.697.697 0 0 1-.222.138c-.75.444-.944 1.72-.583 2.47.139.278.388.444.694.528zm1.082-1.471c0-.028.028-.084.028-.084l.055-.027c.056 0 .14.055.14.055l-.084.25c-.028.056-.056.111-.083.111-.028-.028-.056-.111-.056-.111-.027-.083 0-.139 0-.194zm-.777.027c0-.083.083-.25.083-.25.028-.055.111-.138.111-.138 0 .028 0 .055-.027.055-.056.14-.111.222-.111.361-.028.084-.028.222-.028.222-.028-.083-.056-.25-.028-.25z"/>
    <path fill="#3C627B" d="M19.442 18.033c-.294.33-.599.672-.872 1.046-.451.618-.819.964-1.47 1.377a4.216 4.216 0 0 1-.3.137h-.003c-.096.041-.19.082-.275.125-.114.06-.283.093-.349.105-.053.027-.11.052-.168.079l-.003.001c-.13.06-.263.12-.38.203a.142.142 0 0 1-.036.02c-.029.01-.072.03-.126.053h-.003c-.388.17-1.19.517-1.621.248-.116-.071-.256-.22-.269-.519-.024-.324.293-.547.505-.696l.004-.002.047-.033c.55-.357 1.256-.657 1.938-.927.095-.067.2-.13.305-.193a7.99 7.99 0 0 0 .279-.174c.002-.002.186-.186.35-.233 1.342-1.194 2.754-2.7 3.123-4.804.12-.612.149-1.144.18-1.706l.001-.02.027-.471c.014-.117.02-.247.025-.378.005-.138.011-.276.032-.43.027-.085.042-.214.047-.274-.04-.257-.069-.51-.098-.763l-.001-.013c-.025-.215-.05-.43-.082-.654l1.514-.529c.069.293.098.57.087.83l-.037.581a.156.156 0 0 1-.007.038c-.025.076-.051.222-.07.318a4.34 4.34 0 0 1-.02.105c.02.148.05.502.037.65.033.348.037.648.014 1.025a.564.564 0 0 1-.03.278 6.636 6.636 0 0 0-.04.53l-.001.006c-.015.293-.03.597-.121.91a.075.075 0 0 1-.002.007l-.09.353v.005c-.178.705-.36 1.432-.744 2.091-.36.648-.83 1.175-1.286 1.686l-.01.012z"/>
    <path fill="#3C627B" d="M22.989 9.783c-.19.074-.566.22-.88.303l-1.063.25c-.27.082-1.035.306-1.296.338v.001c-.088.034-.283.086-.283.086-.08.031-.224.053-.277.06-.382.192-.59.061-.7-.09-.095-.147-.062-.29-.02-.391.002-.045.026-.09.07-.13-.03-.18.005-.374.034-.534l.001-.006c.012-.065.022-.125.027-.178a.108.108 0 0 1 .01-.034.677.677 0 0 0 .03-.145c.051-.184.118-.522.135-.61a.332.332 0 0 1 .027-.16c.04-.306.119-.585.256-.9a.417.417 0 0 1 .072-.179c.021-.034.032-.065.057-.087l.084-.07c.02-.086.024-.193.028-.305v-.005c.007-.165.013-.335.078-.483a.628.628 0 0 1 .035-.067.727.727 0 0 1 .31-.234.105.105 0 0 1 .033-.007.89.89 0 0 1 .217.016c.14-.013.29.054.413.108l.22.097c.61.067 1.398.687 1.87 1.058v.001c.1.078.186.146.252.194.385.24.762.512 1.128.776.03.017.052.042.066.064l.058.025a.342.342 0 0 1 .316.14c.027.01.05.032.062.061a.906.906 0 0 1 .076.286.368.368 0 0 1-.128.261c-.123.112-.306.155-.455.19h-.002a2.722 2.722 0 0 0-.08.02l-.087.023a5.93 5.93 0 0 0-.43.123c-.047.063-.129.09-.203.113l-.061.021zM12.793.33c.431.1.877.204 1.336.265.759.102 1.238.26 1.912.633.087.058.175.129.264.2l.002.001c.081.065.162.13.24.182.107.073.218.204.26.257.048.034.098.072.149.11l.003.002c.113.086.23.174.36.237a.143.143 0 0 1 .033.022c.024.02.061.05.107.085l.003.002c.334.26 1.023.799.992 1.306-.008.136-.072.33-.327.484-.273.177-.62.005-.853-.11l-.004-.003-.051-.025c-.577-.313-1.177-.79-1.741-1.26a5.649 5.649 0 0 1-.315-.175 7.97 7.97 0 0 0-.286-.163c-.003 0-.253-.074-.373-.196-1.69-.608-3.686-1.129-5.711-.448-.595.188-1.077.417-1.585.658l-.018.008-.427.202a5.716 5.716 0 0 0-.344.159 4.574 4.574 0 0 1-.392.177 1.478 1.478 0 0 0-.264.09c-.206.157-.415.304-.623.45l-.012.008c-.176.124-.353.248-.535.384L3.405 2.795c.225-.2.454-.358.687-.473l.53-.245a.153.153 0 0 1 .036-.012c.078-.015.219-.061.312-.092a4.46 4.46 0 0 1 .101-.032c.122-.088.418-.284.554-.342.29-.196.552-.343.894-.503A.562.562 0 0 1 6.777.99a6.66 6.66 0 0 0 .486-.217L7.268.77c.265-.127.539-.258.856-.329L8.132.44l.353-.09.005-.001C9.194.167 9.92-.02 10.682.002c.741.006 1.43.167 2.095.324l.016.003z"/>
    <path fill="#3C627B" d="M3.852 1.157c.155.131.463.391.686.627l.727.816c.202.197.765.762.917.976h.001c.072.06.21.207.21.207.067.056.154.172.186.215.351.243.335.488.256.658-.084.153-.226.192-.334.205-.04.019-.091.02-.149 0-.142.112-.33.174-.485.225l-.005.002c-.063.02-.121.04-.17.061a.107.107 0 0 1-.033.008.673.673 0 0 0-.143.043 9.817 9.817 0 0 0-.6.173.332.332 0 0 1-.154.052 3.223 3.223 0 0 1-.913.206.416.416 0 0 1-.191.022c-.04-.002-.073.003-.104-.009l-.101-.04a1.7 1.7 0 0 0-.282.121l-.005.002c-.148.074-.3.149-.46.162a.612.612 0 0 1-.077.002.727.727 0 0 1-.353-.16.105.105 0 0 1-.022-.026.89.89 0 0 1-.09-.199c-.077-.115-.091-.28-.102-.414l-.02-.24c-.232-.567-.065-1.555.036-2.148.021-.126.04-.233.05-.314.027-.453.086-.914.143-1.362 0-.035.012-.065.025-.089L2.29.877a.342.342 0 0 1-.028-.344.107.107 0 0 1 .024-.084c.063-.075.129-.152.215-.204a.367.367 0 0 1 .29-.012c.157.055.283.195.385.309h.001l.056.063.061.064c.091.098.256.272.314.32.077.01.14.07.196.124l.048.044zM.797 14.88a13.898 13.898 0 0 0-.418-1.297c-.281-.712-.377-1.207-.38-1.978.01-.104.028-.216.047-.328v-.002c.017-.103.034-.204.042-.298.011-.13.072-.29.098-.352.006-.06.015-.12.023-.184v-.003c.02-.142.04-.287.032-.43 0-.014 0-.027.003-.04a3.68 3.68 0 0 0 .022-.136V9.83c.066-.418.2-1.282.658-1.502.123-.06.324-.098.582.05.288.153.306.54.319.798v.005l.003.057c.008.657-.116 1.413-.253 2.134a5.6 5.6 0 0 1 0 .36 8.078 8.078 0 0 0-.002.33c0 .002.058.257.01.421.292 1.772.81 3.77 2.391 5.206.454.428.888.737 1.346 1.064l.016.012c.124.087.25.177.384.275a5.7 5.7 0 0 0 .307.222c.113.078.227.158.346.256.058.07.158.15.206.187.238.104.468.214.697.325l.012.006c.195.094.39.188.597.28l-.363 1.563a3.077 3.077 0 0 1-.747-.37l-.472-.342a.153.153 0 0 1-.028-.026c-.05-.062-.16-.162-.232-.229a4.453 4.453 0 0 1-.078-.072 4.243 4.243 0 0 1-.568-.317 6.243 6.243 0 0 1-.874-.536.562.562 0 0 1-.22-.174 6.698 6.698 0 0 0-.426-.318l-.004-.003c-.24-.17-.488-.345-.704-.589l-.006-.005-.25-.265-.004-.004c-.501-.526-1.018-1.07-1.37-1.745-.355-.65-.55-1.33-.738-1.988l-.004-.015z"/>
    <path fill="#3C627B" d="M5.874 22.285c.04-.2.117-.595.214-.904l.358-1.033c.075-.272.294-1.038.407-1.276H6.85c.019-.093.08-.286.08-.286.016-.084.074-.217.097-.266.041-.425.263-.53.45-.544.174 0 .277.103.341.192.037.026.062.07.073.13.167.07.313.204.433.314l.004.004c.049.044.094.085.136.118a.108.108 0 0 1 .024.025.67.67 0 0 0 .107.104c.127.142.377.379.443.44a.332.332 0 0 1 .12.108c.238.198.431.414.625.698a.417.417 0 0 1 .112.156c.017.037.038.062.043.095l.014.108c.062.064.15.124.243.188l.004.002c.136.094.276.19.366.324a.604.604 0 0 1 .039.066c.057.16.05.299.032.386a.105.105 0 0 1-.012.032.885.885 0 0 1-.13.175c-.063.124-.2.216-.312.291l-.2.135c-.382.479-1.326.813-1.893 1.014-.12.043-.223.08-.299.11-.408.196-.84.37-1.26.538a.195.195 0 0 1-.088.022l-.052.035a.342.342 0 0 1-.287.192.107.107 0 0 1-.085.02.908.908 0 0 1-.282-.088.367.367 0 0 1-.153-.248c-.028-.164.033-.342.083-.487v-.001c.01-.028.019-.055.026-.08l.027-.084c.04-.127.113-.355.126-.43-.027-.072-.006-.156.013-.23l.015-.065z"/>
</svg>
