<?xml version="1.0" encoding="UTF-8" standalone="no"?>
<svg
   xmlns:dc="http://purl.org/dc/elements/1.1/"
   xmlns:cc="http://creativecommons.org/ns#"
   xmlns:rdf="http://www.w3.org/1999/02/22-rdf-syntax-ns#"
   xmlns:svg="http://www.w3.org/2000/svg"
   xmlns="http://www.w3.org/2000/svg"
   xmlns:sodipodi="http://sodipodi.sourceforge.net/DTD/sodipodi-0.dtd"
   xmlns:inkscape="http://www.inkscape.org/namespaces/inkscape"
   width="64"
   height="64"
   version="1.1"
   viewBox="0 0 64.000763 64.000774"
   id="svg2"
   inkscape:version="0.91 r13725"
   sodipodi:docname="tasca.svg">
  <defs
     id="defs44" />
  <sodipodi:namedview
     pagecolor="#ffffff"
     bordercolor="#666666"
     borderopacity="1"
     objecttolerance="10"
     gridtolerance="10"
     guidetolerance="10"
     inkscape:pageopacity="0"
     inkscape:pageshadow="2"
     inkscape:window-width="865"
     inkscape:window-height="637"
     id="namedview42"
     showgrid="false"
     showborder="true"
     units="px"
     inkscape:zoom="2.2710191"
     inkscape:cx="50.01732"
     inkscape:cy="54.601037"
     inkscape:window-x="388"
     inkscape:window-y="120"
     inkscape:window-maximized="0"
     inkscape:current-layer="svg2" />
  <metadata
     id="metadata4">
    <rdf:RDF>
      <cc:Work
         rdf:about="">
        <dc:format>image/svg+xml</dc:format>
        <dc:type
           rdf:resource="http://purl.org/dc/dcmitype/StillImage" />
        <dc:title></dc:title>
      </cc:Work>
    </rdf:RDF>
  </metadata>
  <g
     id="g3350"
     transform="matrix(0.56330023,0,0,0.56330023,4.843699,16.294042)">
    <g
       id="g6"
       transform="translate(-274.8,-353.30839)">
      <path
         style="fill:#e7f4fc;fill-rule:evenodd;stroke:#000000;stroke-width:1px"
         inkscape:connector-curvature="0"
         id="path8"
         d="m 343,333.36 -41,-2 2,78.5 61.5,0 0.5,-52 z" />
    </g>
    <g
       id="g10"
       transform="translate(-274.8,-353.30839)">
      <path
         style="fill:#cbe7f9;fill-rule:evenodd"
         inkscape:connector-curvature="0"
         id="path12"
         d="m 308.63,337.4 34.623,-0.47983 15.178,17.299 -0.17678,49.573 -49.245,0.12627 z" />
    </g>
    <g
       id="g14"
       transform="translate(-274.8,-353.30839)">
      <path
         style="fill:#f1c895;fill-rule:evenodd"
         inkscape:connector-curvature="0"
         id="path16"
         d="m 337.52,396.9 -29.421,-8.2075 -24.875,-4.9245 -3.4093,6.3134 -0.75762,7.0711 3.1567,1.0102 2.0203,-1.6415 2.5254,-6.4397 29.168,5.177 7.4499,2.6516 z" />
    </g>
    <g
       id="g18"
       transform="translate(-274.8,-353.30839)">
      <path
         style="fill:#f1c895"
         inkscape:connector-curvature="0"
         id="path20"
         d="m 310.3,430.51 c -7.8585,-3.7679 -21.112,-13.772 -29.183,-22.028 -6.2143,-6.3566 -6.4249,-6.7378 -5.8539,-10.594 0.51096,-3.4507 4.3056,-16.399 5.0758,-17.32 0.14718,-0.17595 4.3613,0.38655 9.3648,1.25 5.0034,0.86346 9.322,1.5699 9.5967,1.5699 0.27476,0 0.49956,-12.15 0.49956,-27 l 0,-27 21.139,0 21.139,0 6.3278,5.5555 c 8.9251,7.8358 21.066,22.602 22.332,27.162 0.57777,2.0806 1.053,12.584 1.0561,23.342 0.004,15.643 0.29954,19.948 1.4738,21.5 1.7473,2.3102 1.9556,6.7808 0.44712,9.5994 -1.385,2.5879 -9.0526,5.9672 -23.422,10.323 -24.815,7.5218 -30.768,8.0637 -39.993,3.6406 z m 51.508,-23.729 c 0.66378,-0.66378 0.93482,-9.1932 0.76142,-23.961 l -0.26924,-22.931 -3.801,-0.93882 c -2.462,-0.60809 -6.8654,-0.55586 -12.5,0.14828 -4.7845,0.5979 -8.795,0.99937 -8.9124,0.89215 -0.11733,-0.10721 0.44517,-2.383 1.25,-5.0572 1.4866,-4.9394 1.9297,-15.202 0.83304,-19.294 -0.59598,-2.2239 -0.80447,-2.25 -17.986,-2.25 l -17.383,0 0,25.481 0,25.481 2.75,0.58866 c 15.504,3.3189 45.982,14.018 47.653,16.728 2.0446,3.3161 -0.92117,3.8508 -17.518,3.1579 -15.507,-0.64739 -19.886,-0.0486 -19.886,2.7198 0,1.4449 43.538,0.7059 45.008,-0.76396 z m -77.09,-13.511 1.234,-4.1188 5.1743,0.66641 c 7.315,0.94213 27.778,5.4596 30.214,6.67 1.1216,0.55743 4.6918,0.87573 7.9339,0.70732 l 5.8946,-0.30619 -10.434,-2.8986 c -10.246,-2.8463 -36.782,-8.5121 -40.145,-8.5713 -1.2064,-0.0213 -2.1653,1.4986 -3.25,5.1514 -1.9415,6.5376 -1.929,6.8185 0.30297,6.8185 1.2911,0 2.2106,-1.2314 3.0757,-4.1188 z m 74.053,-38.881 c -0.009,-0.275 -3.4933,-4.257 -7.7431,-8.849 l -7.7269,-8.349 -0.0441,8.9163 -0.0441,8.9163 7.7872,-0.0673 c 4.283,-0.037 7.7799,-0.2923 7.771,-0.5673 z" />
      <path
         style="fill:#8ab3f1"
         inkscape:connector-curvature="0"
         id="path22"
         d="m 310.3,430.51 c -11.452,-5.4911 -35.5,-25.835 -35.5,-30.032 0,-2.5819 4.1475,-16.911 5.3419,-18.456 1.0205,-1.3198 2.1681,-1.3299 9.6581,-0.0855 4.675,0.77674 8.8375,1.4213 9.25,1.4323 0.4125,0.011 0.75,-12.13 0.75,-26.98 l 0,-27 21.139,0 21.139,0 6.3278,5.5555 c 8.9251,7.8358 21.066,22.602 22.332,27.162 0.57777,2.0806 1.053,12.584 1.0561,23.342 0.004,15.643 0.29954,19.948 1.4738,21.5 1.7473,2.3102 1.9556,6.7808 0.44712,9.5994 -1.385,2.5879 -9.0526,5.9672 -23.422,10.323 -24.815,7.5218 -30.768,8.0637 -39.993,3.6406 z m -19.33,-26.705 c -3.6869,-3.3364 -6.1704,-6.3981 -6.1704,-7.6069 0,-1.9587 0.49064,-2.0116 15.45,-1.6661 10.606,0.24496 15.842,0.7488 16.7,1.6068 0.99995,0.99998 0.97088,1.25 -0.14532,1.25 -2.7972,0 -7.0047,5.218 -7.0047,8.6871 0,4.3207 2.2778,4.3612 3.5432,0.0629 1.6888,-5.7366 7.9242,-6.6202 29.286,-4.1498 4.4016,0.50899 4.5565,0.44809 2.6914,-1.0578 -5.1302,-4.142 -57.294,-16.995 -61.861,-15.242 -1.4266,0.54742 -3.6653,7.8367 -3.6526,11.893 0.0101,3.2225 10.424,11.73 14.413,11.774 2.8299,0.0318 2.7292,-0.14026 -3.25,-5.5511 z m 70.837,2.9761 c 0.66378,-0.66378 0.93482,-9.1932 0.76142,-23.961 l -0.26924,-22.931 -3.801,-0.93882 c -2.462,-0.60809 -6.8654,-0.55586 -12.5,0.14828 -4.7845,0.5979 -8.795,0.99937 -8.9124,0.89215 -0.11733,-0.10721 0.44517,-2.383 1.25,-5.0572 1.4866,-4.9394 1.9297,-15.202 0.83304,-19.294 -0.59601,-2.224 -0.80384,-2.25 -18.003,-2.25 l -17.4,0 0.26689,25.663 0.26688,25.663 6,1.2599 c 14.492,3.043 42.23,12.956 43.909,15.693 2.0348,3.3164 -0.92978,3.8506 -17.523,3.1579 -15.507,-0.64739 -19.886,-0.0486 -19.886,2.7198 0,1.4449 43.538,0.7059 45.008,-0.76396 z m -3.0378,-52.392 c -0.009,-0.275 -3.4933,-4.257 -7.7431,-8.849 l -7.7269,-8.349 -0.0441,8.9163 -0.0441,8.9163 7.7872,-0.0673 c 4.283,-0.037 7.7799,-0.2923 7.771,-0.5673 z" />
      <path
         style="fill:#e6b987"
         inkscape:connector-curvature="0"
         id="path24"
         d="m 310.3,430.51 c -11.452,-5.4911 -35.5,-25.835 -35.5,-30.032 0,-2.5819 4.1475,-16.911 5.3419,-18.456 1.0205,-1.3198 2.1681,-1.3299 9.6581,-0.0855 4.675,0.77674 8.8375,1.4213 9.25,1.4323 0.4125,0.011 0.75,-2.005 0.75,-4.48 0,-3.7931 0.30597,-4.5 1.9477,-4.5 1.64,0 1.9955,0.81633 2.25,5.1668 l 0.30226,5.1668 6,1.2559 c 14.452,3.0249 42.228,12.95 43.909,15.689 2.0348,3.3164 -0.92978,3.8506 -17.523,3.1579 -16.038,-0.66955 -19.886,-0.07 -19.886,3.0988 0,1.2143 2.1803,1.4501 12.75,1.3788 7.0125,-0.0473 17.25,-0.60979 22.75,-1.25 l 10,-1.164 0.27477,-16.25 c 0.22882,-13.532 0.52149,-16.25 1.75,-16.25 1.1484,0 1.4752,-1.4344 1.4752,-6.4743 0,-6.1581 -0.14412,-6.5488 -2.9503,-8 -3.2027,-1.6562 -14.624,-2.0064 -21.555,-0.66107 l -4.0058,0.77751 1.5058,-6.3159 c 1.033,-4.3328 1.985,-6.3175 3.0322,-6.3211 1.1783,-0.004 1.4394,0.907 1.145,3.9948 l -0.38146,4 8.605,0 c 4.7328,0 8.605,-0.20934 8.605,-0.4652 0,-0.25587 -1.3966,-2.0559 -3.1036,-4 -2.5634,-2.9195 -2.7905,-3.5348 -1.3047,-3.5348 0.98938,0 3.1546,1.2375 4.8115,2.75 1.657,1.5125 -0.15316,-0.85 -4.0225,-5.25 -8.1796,-9.3015 -10.28,-12.493 -4.9345,-7.5 7.3496,6.866 18.44,20.93 19.492,24.717 0.57777,2.0806 1.053,12.584 1.0561,23.342 0.004,15.643 0.29954,19.948 1.4738,21.5 1.7473,2.3102 1.9556,6.7808 0.44712,9.5994 -1.385,2.5879 -9.0526,5.9672 -23.422,10.323 -24.815,7.5218 -30.768,8.0637 -39.993,3.6406 z m -19.33,-26.705 c -3.6869,-3.3364 -6.1704,-6.3981 -6.1704,-7.6069 0,-1.9587 0.49064,-2.0116 15.45,-1.6661 10.606,0.24496 15.842,0.7488 16.7,1.6068 0.99995,0.99998 0.97088,1.25 -0.14532,1.25 -2.7972,0 -7.0047,5.218 -7.0047,8.6871 0,4.3207 2.2778,4.3612 3.5432,0.0629 1.6888,-5.7366 7.9242,-6.6202 29.286,-4.1498 4.4016,0.50899 4.5565,0.44809 2.6914,-1.0578 -5.1302,-4.142 -57.294,-16.995 -61.861,-15.242 -1.4266,0.54742 -3.6653,7.8367 -3.6526,11.893 0.0101,3.2225 10.424,11.73 14.413,11.774 2.8299,0.0318 2.7292,-0.14026 -3.25,-5.5511 z" />
      <path
         style="fill:#b1b1b1"
         inkscape:connector-curvature="0"
         id="path26"
         d="m 310.3,430.51 c -7.874,-3.7754 -21.13,-13.787 -29.167,-22.028 -5.9927,-6.1447 -6.3901,-6.8323 -5.8331,-10.094 0.53273,-3.1197 4.2424,-15.552 5.1042,-17.106 0.18473,-0.33305 3.612,-0.0192 7.6161,0.6974 11.837,2.1184 11.78,2.1332 11.78,-3.0918 0,-3.8333 0.2963,-4.5 2,-4.5 1.7529,0 2,0.66667 2,5.395 l 0,5.395 3.75,0.49021 c 11.644,1.5222 44.729,12.867 46.656,15.998 2.0307,3.3007 -0.94117,3.8113 -18.148,3.1181 -16.652,-0.67087 -19.258,-0.23441 -19.258,3.2259 0,1.7511 20.606,1.7753 35.5,0.0416 l 10,-1.164 0.27477,-16.25 c 0.22882,-13.532 0.52149,-16.25 1.75,-16.25 1.1484,0 1.4752,-1.4344 1.4752,-6.4743 0,-6.1581 -0.14412,-6.5488 -2.9503,-8 -3.2027,-1.6562 -14.624,-2.0064 -21.555,-0.66107 l -4.0058,0.77751 1.5058,-6.3159 c 1.033,-4.3328 1.985,-6.3175 3.0322,-6.3211 1.1783,-0.004 1.4394,0.907 1.145,3.9948 l -0.38146,4 8.605,0 c 4.7328,0 8.605,-0.20934 8.605,-0.4652 0,-0.25587 -1.3966,-2.0559 -3.1036,-4 -2.5634,-2.9195 -2.7905,-3.5348 -1.3047,-3.5348 0.98938,0 3.1546,1.2375 4.8115,2.75 1.657,1.5125 -0.15316,-0.85 -4.0225,-5.25 -8.1796,-9.3015 -10.28,-12.493 -4.9345,-7.5 7.3496,6.866 18.44,20.93 19.492,24.717 0.57777,2.0806 1.053,12.584 1.0561,23.342 0.004,15.643 0.29954,19.948 1.4738,21.5 1.7473,2.3102 1.9556,6.7808 0.44712,9.5994 -1.385,2.5879 -9.0526,5.9672 -23.422,10.323 -24.815,7.5218 -30.768,8.0637 -39.993,3.6406 z m 25.604,-9.7173 c 14.564,-3.6602 27.631,-7.8946 29.346,-9.5097 1.5751,-1.4832 -6.1426,-1.0208 -18.45,1.1054 -6.325,1.0927 -15.377,1.9897 -20.115,1.9934 -7.2646,0.006 -9.0368,-0.32508 -11.305,-2.1094 -3.3322,-2.6211 -3.1568,-6.3904 0.42037,-9.0332 3.0118,-2.2251 9.0658,-2.6398 21.948,-1.5032 8.291,0.73149 9.2971,0.65221 8.2183,-0.64763 -1.2525,-1.5091 -14.249,-5.8923 -28.666,-9.6678 -9.9207,-2.598 -33.712,-7.0188 -34.651,-6.4386 -0.38138,0.2357 -1.4218,3.6308 -2.312,7.5447 -1.534,6.7444 -1.525,7.1836 0.17235,8.4067 0.985,0.7098 5.9019,4.5901 10.926,8.6228 12.806,10.278 20.786,14.832 25.99,14.832 2.2942,0 10.61,-1.6181 18.479,-3.5958 z" />
      <path
         style="fill:#7da5ea"
         inkscape:connector-curvature="0"
         id="path28"
         d="m 317.81,430.63 c -7.6423,-1.3773 -22.5,-10.854 -37.565,-23.96 -5.1363,-4.4685 -5.4628,-5.0182 -4.9214,-8.286 0.51274,-3.0945 4.205,-15.515 5.0833,-17.1 0.18297,-0.33021 4.9602,0.18597 10.616,1.1471 5.6559,0.9611 10.471,1.5688 10.7,1.3504 0.22916,-0.21838 -0.10834,-0.39706 -0.75,-0.39706 -0.71605,0 -1.1667,-1.7381 -1.1667,-4.5 0,-3.8333 0.2963,-4.5 2,-4.5 1.7576,0 2,0.66667 2,5.5 0,4.8817 0.23094,5.5 2.0542,5.5 4.5127,0 37.833,10.43 45.196,14.147 2.0625,1.0413 3.75,2.3183 3.75,2.8378 0,2.485 -4.4091,3.0624 -18.352,2.4036 -16.309,-0.77061 -19.648,-0.31246 -19.648,2.6959 0,1.9774 0.48135,2.0386 14.25,1.8096 7.8375,-0.13036 18.188,-0.68245 23,-1.2269 l 8.75,-0.98985 0,-16.339 c 0,-13.857 0.22787,-16.339 1.5,-16.339 1.1789,0 1.5,-1.386 1.5,-6.4743 0,-6.1581 -0.14412,-6.5488 -2.9503,-8 -3.2027,-1.6562 -14.624,-2.0064 -21.555,-0.66107 l -4.0058,0.77751 1.5058,-6.3159 c 1.033,-4.3328 1.985,-6.3175 3.0322,-6.3211 1.1783,-0.004 1.4394,0.907 1.145,3.9948 l -0.38146,4 8.605,0 c 4.7328,0 8.605,-0.20934 8.605,-0.4652 0,-0.25587 -1.3966,-2.0559 -3.1036,-4 -2.6688,-3.0396 -2.8387,-3.5348 -1.2124,-3.5348 2.8194,0 10.798,8.8689 12.144,13.5 0.66784,2.2967 1.2714,12.629 1.4174,24.265 l 0.25427,20.265 2.7679,2.2352 2.7679,2.2352 -3.7679,4.2666 c -4.2849,4.852 -11.946,8.0442 -31.488,13.121 -12.261,3.1852 -17.907,4.0559 -21.776,3.3586 z m 18.101,-9.8419 c 14.564,-3.6602 27.631,-7.8946 29.346,-9.5097 1.5751,-1.4832 -6.1426,-1.0208 -18.45,1.1054 -6.325,1.0927 -15.377,1.9897 -20.115,1.9934 -7.2646,0.006 -9.0368,-0.32508 -11.305,-2.1094 -3.3322,-2.6211 -3.1568,-6.3904 0.42037,-9.0332 3.0118,-2.2251 9.0658,-2.6398 21.948,-1.5032 8.291,0.73149 9.2971,0.65221 8.2183,-0.64763 -1.2525,-1.5091 -14.249,-5.8923 -28.666,-9.6678 -9.9207,-2.598 -33.712,-7.0188 -34.651,-6.4386 -0.38138,0.2357 -1.4218,3.6308 -2.312,7.5447 -1.534,6.7444 -1.525,7.1836 0.17235,8.4067 0.985,0.7098 5.9019,4.5901 10.926,8.6228 12.806,10.278 20.786,14.832 25.99,14.832 2.2942,0 10.61,-1.6181 18.479,-3.5958 z" />
      <path
         style="fill:#d7a572"
         inkscape:connector-curvature="0"
         id="path30"
         d="m 317.81,430.63 c -7.6423,-1.3773 -22.5,-10.854 -37.565,-23.96 -5.1363,-4.4685 -5.4628,-5.0182 -4.9214,-8.286 0.51638,-3.1164 4.2094,-15.526 5.094,-17.118 0.34642,-0.62318 3.8687,-0.1226 19.389,2.7555 20.76,3.8498 55,15.272 55,18.347 0,2.485 -4.4091,3.0624 -18.352,2.4036 -16.242,-0.76744 -19.648,-0.30718 -19.648,2.655 0,4.0639 3.9982,4.3823 25,1.991 10.725,-1.2211 20.738,-2.4598 22.25,-2.7526 l 2.75,-0.5323 0,-23.042 c 0,-12.673 0.3375,-22.706 0.75,-22.295 0.4125,0.41072 0.975,10.617 1.25,22.681 l 0.5,21.935 2.7679,2.2354 2.7679,2.2353 -3.7679,4.2666 c -4.2849,4.852 -11.946,8.0442 -31.488,13.121 -12.261,3.1852 -17.907,4.0559 -21.776,3.3586 z m 18.101,-9.8419 c 14.564,-3.6602 27.631,-7.8946 29.346,-9.5097 1.5751,-1.4832 -6.1426,-1.0208 -18.45,1.1054 -6.325,1.0927 -15.377,1.9897 -20.115,1.9934 -7.2646,0.006 -9.0368,-0.32508 -11.305,-2.1094 -3.3322,-2.6211 -3.1568,-6.3904 0.42037,-9.0332 3.0118,-2.2251 9.0658,-2.6398 21.948,-1.5032 8.291,0.73149 9.2971,0.65221 8.2183,-0.64763 -1.2525,-1.5091 -14.249,-5.8923 -28.666,-9.6678 -9.9207,-2.598 -33.712,-7.0188 -34.651,-6.4386 -0.38138,0.2357 -1.4218,3.6308 -2.312,7.5447 -1.534,6.7444 -1.525,7.1836 0.17235,8.4067 0.985,0.7098 5.9019,4.5901 10.926,8.6228 12.806,10.278 20.786,14.832 25.99,14.832 2.2942,0 10.61,-1.6181 18.479,-3.5958 z" />
      <path
         style="fill:#cc9a67"
         inkscape:connector-curvature="0"
         id="path32"
         d="m 317.81,430.63 c -7.8354,-1.4121 -25.332,-12.728 -37.823,-24.461 l -5.0192,-4.7148 1.4196,-6.7848 c 0.78076,-3.7316 1.4196,-6.8975 1.4196,-7.0352 0,-0.1377 0.73125,-0.25037 1.625,-0.25037 1.3081,0 1.4905,0.6338 0.93552,3.25 -2.022,9.531 -2.3808,8.6725 6.6405,15.884 11.838,9.4638 22.64,16.728 26.43,17.774 4.0134,1.1082 16.535,-1.2076 34.13,-6.3122 23.687,-6.8718 24.044,-9.7515 0.73839,-5.9624 -9.6519,1.5692 -17.973,2.3366 -23.338,2.1522 -7.4014,-0.25433 -8.5558,-0.55501 -10.273,-2.6758 -2.0644,-2.5494 -1.7902,-5.4483 0.76715,-8.1105 1.17,-1.218 4.2522,-1.4688 16.393,-1.3338 8.2235,0.0914 14.952,-0.21375 14.952,-0.67815 0,-1.4785 -12.782,-5.8434 -31,-10.587 -12.322,-3.2081 -12.419,-3.2554 -6.8081,-3.3279 7.9657,-0.10302 43.435,10.896 45.402,14.079 1.7014,2.7529 -1.91,3.3433 -18.503,3.025 -14.673,-0.28147 -17.017,-0.10954 -18.482,1.356 -2.1781,2.1781 -0.64366,4.1817 3.848,5.0244 2.7935,0.52406 32.569,-2.4264 42.293,-4.1908 l 3.25,-0.58972 0,-23.055 c 0,-12.68 0.3375,-22.719 0.75,-22.309 0.4125,0.41072 0.975,10.669 1.25,22.796 0.48731,21.49 0.55708,22.087 2.75,23.542 2.9538,1.9595 2.8423,3.0744 -0.74266,7.4236 -3.4296,4.1607 -12.498,7.8487 -31.315,12.736 -12.178,3.163 -17.826,4.0314 -21.689,3.3353 z" />
      <path
         style="fill:#919191"
         inkscape:connector-curvature="0"
         id="path34"
         d="m 318.3,430.7 c -9.5355,-2.0296 -22.204,-10.132 -37.106,-23.734 -5.0874,-4.6433 -6.7546,-7.577 -4.3061,-7.577 0.59829,0 5.6608,3.6806 11.25,8.1791 11.863,9.5483 20.415,15.254 25.258,16.853 2.7411,0.90466 5.1482,0.80011 11.678,-0.50725 18.407,-3.6852 40.726,-11.067 40.726,-13.469 0,-1.4932 -2.9082,-1.3188 -16,0.95945 -25.501,4.4376 -36,3.5941 -36,-2.892 0,-6.3428 5.2631,-7.953 21,-6.4247 11.551,1.1217 13.726,0.88153 11.903,-1.3145 -0.91463,-1.1021 -0.72611,-1.3832 0.92742,-1.3832 2.9711,0 7.2857,2.1523 6.8605,3.4223 -0.2366,0.70669 -6.2183,1.124 -17.376,1.2121 -16.869,0.13328 -21.92,1.017 -21.052,3.6833 0.21153,0.65027 1.6675,1.807 3.2354,2.5706 2.3872,1.1625 4.7333,1.1871 14.426,0.15158 6.3664,-0.68017 13.6,-1.4239 16.075,-1.6527 2.475,-0.2288 7.3125,-0.9105 10.75,-1.5148 l 6.25,-1.0988 0,-23.053 c 0,-12.679 0.3375,-22.717 0.75,-22.307 0.4125,0.41072 0.975,10.637 1.25,22.725 0.49262,21.654 0.53482,22.005 2.8599,23.757 2.2339,1.6836 2.2794,1.9342 0.85238,4.6938 -0.82913,1.6034 -2.3826,3.7072 -3.4522,4.6751 -5.3625,4.853 -43.878,15.511 -50.76,14.046 z" />
      <path
         style="fill:#b88551"
         inkscape:connector-curvature="0"
         id="path36"
         d="m 308.3,426.51 c -9.5646,-4.5815 -32.5,-22.751 -32.5,-25.746 0,-2.5792 2.1678,-1.3842 12.338,6.8012 11.863,9.5483 20.415,15.254 25.258,16.853 2.7411,0.90466 5.1482,0.80011 11.678,-0.50725 18.407,-3.6852 40.726,-11.067 40.726,-13.469 0,-1.4932 -2.9082,-1.3188 -16,0.95945 -25.501,4.4376 -36,3.5941 -36,-2.892 0,-6.3428 5.2631,-7.953 21,-6.4247 11.551,1.1217 13.726,0.88153 11.903,-1.3145 -0.91463,-1.1021 -0.72611,-1.3832 0.92742,-1.3832 2.9711,0 7.2857,2.1523 6.8605,3.4223 -0.2366,0.70669 -6.2183,1.124 -17.376,1.2121 -19.926,0.15743 -24.143,1.3951 -19.744,5.7941 2.1604,2.1604 10.443,2.0271 28.929,-0.46563 23.705,-3.1966 30.673,-2.6603 25.961,1.9982 -3.4957,3.4562 -31.091,12.888 -48.276,16.501 -9.3567,1.9669 -8.6617,2.0262 -15.685,-1.3378 z" />
      <path
         style="fill:#a7794b"
         inkscape:connector-curvature="0"
         id="path38"
         d="m 309.98,427.38 c -2.3803,-1.0802 -8.0053,-4.5578 -12.5,-7.728 -7.1015,-5.0088 -7.844,-5.8024 -5.6672,-6.0569 1.6869,-0.19716 5.2486,1.5122 10.905,5.2338 8.9805,5.9083 12.884,7.1748 18.84,6.113 6.6862,-1.192 26.59,-6.403 32.75,-8.5741 6.32,-2.2275 16.189,-4.2098 14.81,-2.9746 -3.4937,3.129 -47.025,16.095 -53.626,15.973 -0.65154,-0.0121 -3.1321,-0.90575 -5.5124,-1.9859 z m 13.578,-13.698 c 1.2375,-0.23836 3.2625,-0.23836 4.5,0 1.2375,0.23835 0.225,0.43337 -2.25,0.43337 -2.475,0 -3.4875,-0.19502 -2.25,-0.43337 z" />
      <path
         style="fill:#a36f3b"
         inkscape:connector-curvature="0"
         id="path40"
         d="m 306.81,425.32 c -7.0851,-3.9048 -8.0915,-4.9333 -4.8274,-4.9333 1.4157,0 4.6915,1.1835 7.2795,2.63 4.1818,2.3373 5.3922,2.5578 10.876,1.9816 3.3938,-0.35658 9.5455,-1.5323 13.67,-2.6128 4.1245,-1.0805 9.075,-1.9277 11,-1.8828 l 3.5,0.0817 -4.5,1.4411 c -9.8054,3.1401 -23.709,6.3424 -27.5,6.3339 -2.5638,-0.006 -5.9743,-1.0971 -9.4986,-3.0394 z" />
    </g>
  </g>
</svg>
