<svg width="40" height="42" viewBox="0 0 40 42" fill="none" xmlns="http://www.w3.org/2000/svg">
<mask id="mask0" mask-type="alpha" maskUnits="userSpaceOnUse" x="0" y="0" width="40" height="42">
<path d="M39.2292 14.909C39.3653 16.3145 40 18.9441 40 20.8937C40 24.1128 39.1839 26.8331 38.5492 28.7373C36.2369 35.4475 27.9852 40.8428 20.6403 41.0695C18.4187 41.1601 16.2878 40.1627 14.2022 39.7093C6.67596 38.1678 0.328528 30.0521 0.0111564 20.939C-0.170199 15.181 1.87005 9.9217 5.36114 6.0679C7.44672 3.71028 7.44672 4.52638 10.1217 2.71283C12.9327 0.808595 15.5559 -1.20878e-08 19.7578 0C32.7139 1.02617 37.4357 7.27917 39.2292 14.909Z" fill="#DBE3E8"/>
</mask>
<g mask="url(#mask0)">
<path d="M40.2224 15.2864C40.3619 16.7275 41.0127 19.4238 41.0127 21.4227C41.0127 24.7232 40.176 27.5124 39.5251 29.4649C37.1543 36.3449 28.6937 41.8768 21.1629 42.1093C18.885 42.2022 16.7002 41.1795 14.5618 40.7147C6.84498 39.1341 0.336846 30.813 0.0114388 21.4692C-0.174508 15.5654 1.91739 10.1729 5.49687 6.22153C7.63526 3.80422 7.63526 4.64098 10.378 2.78151C13.2601 0.829067 15.9497 -1.23939e-08 20.258 0C33.5422 1.05215 38.3835 7.46346 40.2224 15.2864Z" fill="#859CAC"/>
<path d="M17.8101 23.3052C19.4995 23.5418 22.4399 23.3007 24.0086 22.8275C27.1016 21.0295 28.8991 16.8341 27.7049 12.3028C27.3279 10.8723 26.6175 9.66301 25.328 8.39871C25.0867 8.1621 24.4833 7.80719 24.4833 7.80719C24.1213 7.57058 23.7593 7.33396 23.3973 7.33396C23.156 7.33396 22.794 7.21566 22.794 7.21566C22.7167 7.19673 22.6218 7.18174 22.5213 7.16834C20.4023 6.77004 18.0933 6.42618 16.2415 7.33397C15.3968 7.68889 14.7935 8.04381 14.0695 8.63533C13.8281 8.87195 13.3454 9.46347 13.3454 9.46347C12.5008 10.4099 12.0238 11.0014 11.7825 12.3028C10.5683 17.0643 12.5728 22.3424 17.8101 23.3052Z" fill="#E4EFF6"/>
<path d="M35.0812 33.4916C34.3516 30.938 33.5368 29.2071 31.1969 27.8282C28.3624 26.4598 26.449 25.9887 24.2808 25.8119C23.7334 25.7175 23.1888 25.6327 22.6626 25.5889C20.2782 25.3903 19.2679 25.4987 17.7369 25.5889C16.0669 25.7744 14.7344 26.0509 13.1185 26.5126C11.0658 27.231 9.32107 28.0521 7.98685 29.6942C6.34472 31.7468 5.6263 34.5179 5.3184 36.9811C5.21577 37.4943 5.11296 40.3135 5.31823 40.8267C5.50178 41.285 6.29 42.1241 6.75508 42.2635C11.3957 43.037 16.9252 42.339 21.7394 42.7767C25.5996 43.0524 32.8533 44.6971 36.108 41.4425C36.6212 40.9293 36.3134 37.8021 36.2108 37.289C35.4917 35.4416 35.4917 35.339 35.0812 33.4916Z" fill="#E4EFF6"/>
</g>
</svg>
