<?xml version="1.0" encoding="UTF-8"?>
<svg width="64px" height="28px" viewBox="0 0 64 28" version="1.1" xmlns="http://www.w3.org/2000/svg" xmlns:xlink="http://www.w3.org/1999/xlink">
    <!-- Generator: sketchtool 52.3 (67297) - http://www.bohemiancoding.com/sketch -->
    <title>4F2C3004-9C84-41C6-B717-1235A35F0069</title>
    <desc>Created with sketchtool.</desc>
    <g id="Design-system" stroke="none" stroke-width="1" fill="none" fill-rule="evenodd">
        <g id="Activitat-genèrica---320px" transform="translate(-17.000000, -13.000000)">
            <g id="logo_ioc_cre" transform="translate(17.000000, 13.000000)">
                <path d="M51.7663585,11.0249445 C51.6254383,8.7366415 51.6254383,7.51109743 51.7663585,7.3483123 C51.9072787,7.18552717 53.9175693,6.04603126 57.7972303,3.92982456 C57.9793937,4.03834798 59.0259406,4.55383423 60.936871,5.4762833 C63.8032665,6.85995691 63.8032665,7.07200477 63.8026561,8.24363052 C63.8022446,9.03361998 63.8167589,10.3470158 63.8026561,11.906296 C63.7958432,12.6595692 64.2500669,13.893744 63.8026561,14.3480729 C62.4291022,15.7428655 58.6655234,17.8479532 57.9073267,17.8479532 C57.1491299,17.8479532 51.7663585,14.9178209 51.7663585,14.3480729 C51.7663585,13.9682409 51.7663585,12.8605315 51.7663585,11.0249445 Z" id="Path-11" fill="#21A2C0"></path>
                <path d="M8.09415158,17.5883092 C7.88159571,14.5359033 8.71310326,12.0558235 10.5886742,10.1480698 C12.4642452,8.24031608 14.8676391,7.25918561 17.7988561,7.20467836 C21.0851615,7.42270736 23.408257,8.18580884 24.7681428,9.4939828 C26.8079715,11.4562437 28.1345756,15.3807656 28.1336756,17.097744 C28.1327757,18.8147223 27.964958,22.4122007 25.9397528,24.4562225 C23.9145475,26.5002443 20.4950847,27.7266574 18.8516008,27.9719401 C17.2081169,28.2172227 11.8954621,26.8272878 10.2452861,24.8650269 C9.14516883,23.5568529 8.42812397,21.1312804 8.09415158,17.5883092 Z M12.9974293,17.3197952 C13.0469273,19.6585741 13.6635872,21.4178171 14.8474089,22.5975243 C16.0312306,23.7772314 17.2312166,24.2481612 18.4473667,24.0103138 C19.2302329,23.8773961 20.0508319,23.4064663 20.9091638,22.5975243 C22.1966616,21.3841112 23.0339868,18.9572851 23.0334187,17.8955487 C23.0328507,16.8338123 22.7602932,14.2765266 21.4996949,12.7137671 C20.2390965,11.1510076 19.0876946,11.3026842 18.0503614,11.1510076 C17.0130283,10.9993309 15.3002093,11.9116066 14.2586522,13.1250196 C13.5642808,13.9339616 13.1438732,15.3322202 12.9974293,17.3197952 Z" id="Combined-Shape" fill="#FFFFFF"></path>
                <path d="M0.182686671,0.00169222268 C1.40817834,0.153992264 2.34305252,0.18952894 2.98730921,0.108302252 C3.6315659,0.0270755629 4.36958593,-0.00846111341 5.20136929,0.00169222268 C5.35332704,0.587201271 5.42930591,1.3131648 5.42930591,2.17958282 C5.42930591,3.47920984 5.42930591,4.08841 5.42930591,4.33209007 C5.42930591,4.57577013 3.93552234,4.57577013 2.6910217,4.57577013 C1.44652107,4.57577013 0.202020428,4.65699682 0.202020428,4.33209007 C0.202020428,4.00718331 0.265612638,3.27862293 0.202020428,2.13896947 C0.159625622,1.3792005 0.153181036,0.66677475 0.182686671,0.00169222268 Z" id="Path-10" fill="#FFFFFF"></path>
                <path d="M0.258259537,7.69761837 C1.48078174,7.85169308 2.41339065,7.88764384 3.05608625,7.80547067 C3.69878186,7.72329749 4.43501361,7.68734673 5.26478149,7.69761837 C5.21223106,11.7503537 5.19909345,14.9134503 5.22536866,17.1869081 C5.26478149,20.5970949 5.22536866,27.0066025 5.22536866,27.2531221 C5.22536866,27.4996416 3.73520465,27.4996416 2.49371954,27.4996416 C1.25223442,27.4996416 0.0107493071,27.5818148 0.0107493071,27.2531221 C0.0107493071,26.9244294 0.0741874278,18.2987547 0.0107493071,17.1458215 C-0.0315427734,16.3771994 0.0509606367,13.2277984 0.258259537,7.69761837 Z" id="Path-10" fill="#FFFFFF"></path>
                <path d="M46.9034769,9.4939828 C45.5363416,8.18580884 43.2008617,7.42270736 39.8970371,7.20467836 C36.9501939,7.25918561 34.5339875,8.24031608 32.648418,10.1480698 C30.7628484,12.0558235 29.9269081,14.5359033 30.1405971,17.5883092 C30.4763499,21.1312804 31.1972173,23.5568529 32.3031993,24.8650269 C33.9621723,26.8272878 39.3031487,28.2172227 40.955394,27.9719401 C42.6076393,27.7266574 46.0453312,26.5002443 48.0813327,24.4562225 C49.2633424,23.2695567 49.2660153,21.2759931 49.5218509,19.7140919 L44.6477274,19.9593745 C44.6477274,20.8587441 44.3917014,21.8740173 43.9476581,22.418005 C42.6796111,23.9714616 41.5214057,23.8206879 40.4779431,23.9714616 C39.4344805,24.1222353 37.7115407,23.2153904 36.6638292,22.0092007 C35.9653549,21.2050742 35.5424632,19.8151393 35.395154,17.8393961 C35.4449445,15.5145398 36.0652481,13.7657693 37.2560648,12.5930849 C38.4468816,11.4204004 39.653958,10.952274 40.8772942,11.1887055 C41.6647862,11.320832 42.4617445,11.8474596 43.3536376,12.5930849 C43.6563802,12.8461786 44.3172783,13.4185047 44.3172783,14.5631569 L49.0261773,14.5631569 C48.7783405,12.4373742 48.2033527,10.737798 46.9034769,9.4939828 Z" id="Path" fill="#FFFFFF"></path>
            </g>
        </g>
    </g>
</svg>