<svg width="22" height="24" viewBox="0 0 22 24" fill="none" xmlns="http://www.w3.org/2000/svg">
<path d="M11.2853 7.74736C11.1413 7.74736 10.9488 7.74736 10.8529 7.84364C10.6127 8.03576 10.5645 8.46858 10.5164 8.75699C10.3724 9.47821 10.8048 10.2953 11.0932 10.9202C11.0932 10.9202 11.2853 10.4397 11.2853 10.199C11.4297 9.33379 11.4774 8.56487 11.3816 7.69966C11.3816 7.69922 11.2853 7.69922 11.2853 7.74736Z" fill="#3C627B"/>
<path d="M6.33413 17.8415C6.19015 17.8896 6.04573 17.9377 5.90175 18.0336C5.66148 18.178 5.42122 18.3701 5.18052 18.5622C4.9884 18.7067 4.31531 19.0909 4.55557 19.4756C4.60371 19.4756 4.65185 19.4275 4.7 19.4275C4.84398 19.3312 4.9884 19.2835 5.13238 19.1872C6.23785 18.3701 6.14157 18.466 7.10306 17.6012C7.10306 17.6012 6.91093 17.6493 6.86279 17.6975C6.67067 17.7452 6.52669 17.7933 6.33413 17.8415Z" fill="#3C627B"/>
<path d="M17.1495 15.0537C16.813 14.9097 16.3806 14.9574 15.9959 14.9574C15.371 14.8612 14.7942 14.7172 14.2174 14.9093H14.3136C14.3136 14.9093 14.1692 14.9574 14.1215 14.9574C13.9294 15.0056 13.6891 15.0056 13.4966 15.0537C13.4966 15.0537 13.7368 15.4384 13.8813 15.6305C14.3141 16.1592 14.6983 16.8323 15.2751 17.2165C15.3714 17.2647 15.4673 17.3128 15.5635 17.3605C15.9001 17.4568 16.2366 17.6008 16.5732 17.6489C17.4384 17.7452 17.9189 17.024 18.1115 16.255C18.1115 16.255 18.1115 16.1587 18.1115 16.111C18.1115 16.111 18.0152 15.8708 17.9675 15.7745C17.6782 15.4861 17.4856 15.2458 17.1495 15.0537Z" fill="#3C627B"/>
<path d="M21.7265 4.66371C21.3114 3.99416 20.6392 3.40057 19.9886 2.82597C19.694 2.56539 19.4153 2.31939 19.172 2.07648C19.0041 1.90865 18.8381 1.72801 18.6703 1.5456C18.3227 1.16754 17.9627 0.776678 17.5613 0.468401C16.7998 -0.115913 15.8026 -0.0209564 14.925 0.0620753C14.6339 0.0894581 14.3592 0.115957 14.0978 0.119049C11.3953 0.155707 8.61061 0.23388 6.24288 0.30587C5.79813 0.320004 5.35294 0.308962 4.92277 0.299246C4.0845 0.279813 3.2162 0.259496 2.3108 0.416285C1.69999 0.521841 1.01453 0.696738 0.559185 1.19228C0.157718 1.62908 0.0428876 2.19528 0.0172714 2.59366C-0.0374942 3.4624 0.0481878 4.34704 0.131661 5.20297C0.19526 5.85972 0.261067 6.53943 0.261067 7.19838C0.261067 10.0157 0.299491 12.6189 0.378989 15.1562C0.42183 16.5293 0.477479 17.8918 0.54417 19.2053C0.595402 20.2238 0.735407 21.4971 1.36786 22.3106C2.05331 23.1824 3.23917 23.5221 4.11365 23.6537C5.00094 23.7871 5.94211 23.8242 6.89256 23.8242C7.50205 23.8242 8.11551 23.8087 8.72058 23.7937C10.807 23.742 12.8938 23.7659 14.9802 23.784C16.8705 23.8003 18.8641 23.962 20.6202 23.121C21.8617 22.5266 21.9244 21.8287 21.9244 20.7396V7.33442C21.9244 7.14141 21.9412 6.92411 21.9588 6.6971C22.0123 6.00547 22.0723 5.22152 21.7265 4.66371ZM19.1203 16.2069C19.1203 16.255 19.0722 16.399 19.0722 16.4471C19.0722 16.4953 19.0722 16.5434 19.024 16.5916C18.9759 16.8318 18.8796 17.2165 18.7356 17.4568C18.1447 18.5539 17.1867 19.4195 15.8953 18.897C15.6564 18.8003 15.4174 18.6095 15.1785 18.466C14.2652 17.841 13.6884 17.0239 13.0157 16.2069C13.0157 16.1587 12.6792 15.8222 12.5352 15.6782C12.4389 15.5819 12.3908 15.4861 12.2949 15.3417C12.2949 15.3417 11.9102 15.4857 11.7181 15.5338C11.4779 15.5819 11.1895 15.6301 10.901 15.7259C10.901 15.7259 10.5645 16.0143 10.3724 16.1583C9.89186 16.3986 9.55532 16.6388 9.17063 16.9754C9.17063 17.0235 9.02621 17.1193 8.97851 17.2156C8.73825 17.648 8.59383 17.8887 8.25728 18.2248C7.96888 18.5614 7.8249 18.7053 7.53606 19.09C7.34393 19.3303 6.91111 19.6187 6.67085 19.8113C5.90192 20.4362 4.94043 21.2051 4.02708 20.2918C4.02708 20.2918 3.9308 20.2436 3.8831 20.1955C3.73912 20.0511 3.64284 19.9552 3.5947 19.7631C3.45072 19.1863 3.40258 18.6576 3.83496 18.2248C4.70017 17.4077 5.95006 16.8309 7.00739 16.3504C7.48791 16.1102 8.11286 16.1583 8.59339 15.8218C8.59339 15.8218 8.97807 15.3894 9.12205 15.1005C9.55443 14.2835 10.1794 13.4183 10.4678 12.4568C10.4678 12.4568 10.1794 11.88 10.035 11.5916C9.69841 10.9185 9.41001 10.1977 9.21789 9.42876C9.21789 9.42876 9.12161 9.04407 9.07391 8.85195C9.02577 8.70797 8.97763 8.56355 8.97763 8.41957C8.97763 8.41957 8.92949 8.27515 8.92949 8.22745C8.92949 8.13117 8.88135 7.98719 8.88135 7.93904C8.88135 7.65064 8.92949 7.36224 9.07347 7.12198C9.40824 6.36807 9.92587 5.68791 10.7213 5.77934L10.708 5.77625C10.6599 5.77625 10.5155 5.72811 10.5155 5.72811L10.708 5.77625C10.7138 5.77625 10.72 5.77934 10.7257 5.77978C10.8419 5.79347 10.9638 5.8235 11.0923 5.87209L10.9293 5.83145C10.966 5.8447 10.9995 5.85751 11.0441 5.87209C11.2844 5.96837 11.7172 6.16049 11.8612 6.40075C11.8612 6.44889 12.0533 6.54473 12.1015 6.59287C12.2459 6.68915 12.3899 6.83313 12.4862 6.97755C12.4862 7.0257 12.6306 7.21782 12.6783 7.3141C12.8227 7.55436 12.8704 7.84276 12.9185 8.08303C12.9667 8.08303 13.1107 8.56355 13.1588 8.80425C13.1588 8.85239 13.1588 8.94823 13.2069 8.99637C13.2069 9.09265 13.2069 9.28478 13.2069 9.33292C13.2551 9.62132 13.2069 9.90972 13.2069 10.1981C13.1107 10.8231 12.9667 11.4962 12.6783 12.1207C12.5343 12.5053 12.4862 12.8896 12.2459 13.2261C12.2459 13.2261 12.3422 13.4183 12.438 13.5145C12.5343 13.7067 12.6783 13.8992 12.8227 14.1395C12.8227 14.1395 13.0148 14.0913 13.1111 14.0913C13.4476 14.0432 13.7361 13.9951 14.0726 13.9474C14.1207 13.9474 14.4573 13.8029 14.6494 13.8029C15.0818 13.7548 15.5146 13.8029 15.9951 13.8511C17.245 13.8992 18.0139 14.0432 18.687 15.1487C18.9273 15.4371 19.1199 15.7736 19.1199 16.1579C19.1203 16.2069 19.1203 16.2069 19.1203 16.2069ZM20.2527 6.95724C20.1454 7.18734 19.8473 7.21384 19.4047 7.22798L19.3698 7.2293C19.2824 7.23195 19.1971 7.23548 19.1177 7.24211C17.9097 7.34413 16.6872 7.33662 15.4841 7.21958C15.3614 7.20766 15.2607 7.19529 15.1807 7.15598C15.057 7.09415 14.9608 6.94134 14.9303 6.75673C14.7987 5.9613 14.8839 5.01836 14.9656 4.10678C15.0085 3.63597 15.0482 3.19122 15.0601 2.76679C15.0694 2.44173 15.1339 2.25358 15.2527 2.20721C15.281 2.19617 15.3119 2.19087 15.345 2.19087C15.6621 2.19087 16.1625 2.67404 16.4434 2.94522C16.545 3.04327 16.6342 3.12895 16.7172 3.1974C16.9473 3.3617 17.1602 3.52556 17.3735 3.68985C17.5908 3.8568 17.8081 4.02419 18.029 4.18142C18.4145 4.5025 19.0682 5.15527 19.0925 5.1778C19.2585 5.3103 19.4078 5.42645 19.5571 5.54261C19.7059 5.65832 19.8548 5.77404 19.9992 5.8871C20.1604 6.05493 20.3331 6.78455 20.2527 6.95724Z" fill="#3C627B"/>
</svg>
