<svg width="27" height="25" viewBox="0 0 27 25" fill="none" xmlns="http://www.w3.org/2000/svg">
<path d="M18.1294 3.40579C17.5821 3.48706 17.1002 3.6536 16.5528 3.73486C16.3168 3.78045 16.0481 3.78341 15.7794 3.78637C15.3828 3.88747 14.9991 4.18193 14.6679 4.36831C14.3794 4.52197 14.0155 4.66572 13.7596 4.86202C13.6218 5.03553 13.4512 5.1664 13.3233 5.26455C13.3046 5.27895 13.2818 5.2946 13.258 5.31063C12.3662 6.1078 11.4006 6.81756 10.4468 7.60731C10.1056 7.86905 9.90534 8.22598 9.60687 8.455C9.4264 8.66123 9.14777 8.73954 8.92466 8.97848C8.07191 9.63282 7.30738 10.4904 6.47742 11.2628C5.78529 11.8616 4.9623 12.2899 4.43376 13.1019C4.23344 13.4588 4.09856 13.901 3.93097 14.3006C3.80601 14.6675 3.65825 14.9163 3.60865 15.2931C3.59177 15.7125 3.73551 16.0764 3.79398 16.5058C3.80981 16.9678 3.66501 17.4854 3.83155 17.9673C4.30838 19.2949 5.59131 20.6138 6.77019 21.2673C7.88363 21.8355 9.02092 21.6402 10.1582 21.445C10.6487 21.3608 11.2284 21.4142 11.6819 21.2378C12.9058 20.7611 13.9703 19.807 15.001 19.0161C15.2568 18.8198 15.5126 18.6235 15.8111 18.3945C15.939 18.2963 16.2048 18.0247 16.2474 17.992C16.3753 17.8938 16.5984 17.6549 16.5984 17.6549C16.7263 17.5567 16.8543 17.4586 16.9822 17.3604C17.12 17.1869 17.5037 16.8924 17.5037 16.8924C17.6317 16.7943 17.8974 16.5226 17.8974 16.5226C18.2385 16.2609 18.537 16.0319 18.8781 15.7701C19.0486 15.6393 19.2717 15.4003 19.3144 15.3676C19.6456 15.1812 19.9212 14.8342 20.187 14.5626C20.2723 14.4971 20.3575 14.4317 20.4002 14.399C20.6986 14.17 21.7675 13.6207 21.4701 12.9683C21.3375 12.6324 20.9985 12.6297 20.6948 12.7183L20.8217 12.6529C20.5431 12.7312 20.3824 12.7868 20.202 12.993C20.0641 13.1665 19.8936 13.2974 19.7557 13.4709C19.7131 13.5036 19.6605 13.6117 19.6179 13.6444C19.2768 13.9061 18.6174 14.5476 18.5748 14.5803C18.3189 14.7766 18.0304 14.9303 17.8073 15.1692C17.6367 15.3001 17.371 15.5717 17.371 15.5717C17.1151 15.768 16.6788 16.1706 16.6362 16.2033C16.5083 16.3014 16.423 16.3669 16.2951 16.465C16.1672 16.5632 15.9867 16.7694 15.9867 16.7694C15.8063 16.9756 15.3372 17.3355 15.3372 17.3355C14.8256 17.7281 14.3893 18.1306 13.8776 18.5232C13.5464 18.7096 13.2153 18.896 12.9594 19.0923C12.8298 19.1918 12.5589 19.3608 12.3379 19.5412C12.2607 19.5472 12.1872 19.5661 12.1265 19.5959C11.7626 19.7397 11.4969 20.0113 11.1429 20.0797C10.661 20.2463 9.86777 20.4485 9.33036 20.4544C8.97638 20.5228 8.31106 20.6269 7.85893 20.5673C7.30865 20.3799 6.92892 20.0616 6.51647 19.7006C5.83236 19.0739 5.28905 18.5425 4.90341 17.6867C4.75966 17.3228 4.86182 16.838 4.83607 16.4513C4.8004 16.14 4.68937 15.8187 4.68642 15.55C4.65075 15.2386 4.7985 14.9898 4.90362 14.7736C5.12377 14.266 5.26857 13.7484 5.62952 13.336C6.04302 12.8155 6.66275 12.4754 7.18432 12.0075C7.74854 11.5068 8.19476 11.0289 8.80161 10.4955C10.1006 9.36328 11.3668 8.18841 12.764 7.1841C13.0624 6.95508 13.2528 6.6735 13.5186 6.40184C13.9876 6.04195 14.5419 5.61663 15.0763 5.34202C15.2043 5.24386 15.706 4.92661 15.942 4.88102C16.2206 4.80271 16.4794 4.87511 16.758 4.7968C17.4233 4.69274 18.0758 4.39533 18.754 4.48461C19.1734 4.5015 19.5402 4.62646 19.9497 4.7187C20.6507 4.92598 20.8401 5.52586 21.1375 6.17831C21.3794 6.67012 21.4805 7.06674 21.2177 7.6071C20.9321 8.02947 20.6138 8.4092 20.3282 8.83157C19.872 9.3848 19.4387 10.056 18.9171 10.524C18.7466 10.6549 18.5106 10.7005 18.34 10.8313C16.9786 12.147 15.5943 13.3446 14.331 14.7882C14.2031 14.8864 14.0326 15.0172 13.862 15.1481C13.3176 15.4981 12.1664 16.3814 11.3445 15.9282C11.171 15.7904 10.6574 15.0328 10.6574 15.0328C10.4512 14.8524 10.1567 14.4686 10.1211 14.1573C9.87621 13.3968 10.9749 12.6215 11.4112 12.219C11.8475 11.8164 12.261 11.2959 12.73 10.936C13.2089 10.5008 13.9139 10.0953 14.4355 9.62733C14.7013 9.35567 14.9968 8.85795 15.3379 8.59621C15.4985 8.5407 15.8297 8.35432 15.9249 8.21353C15.9675 8.18081 16.0627 8.04002 16.03 7.99738C15.9973 7.95475 16.1024 7.7386 15.9616 7.6434C15.8535 7.59085 15.6602 7.60372 15.6602 7.60372C14.5398 7.37956 14.3583 8.46724 13.568 8.93816C12.6498 9.50723 11.9378 10.2568 11.1505 10.9964C10.1926 11.8669 8.57238 13.1101 9.14735 14.5657C9.24846 14.9623 9.5102 15.3034 9.73922 15.6019C10.1318 16.1136 10.5799 16.7859 11.2809 16.9931C12.4341 17.2599 13.621 16.6879 14.4737 16.0336C15.1559 15.5101 15.5893 14.8389 16.1961 14.3055C17.1867 13.4776 18.0137 12.4366 18.9944 11.6841C19.1649 11.5532 19.3682 11.465 19.5388 11.3341C20.2636 10.7779 20.8348 9.93318 21.396 9.1638C21.9999 8.3617 22.6465 7.52689 22.4413 6.46495C22.3075 6.0257 21.8792 5.2027 21.7582 4.9568C21.1634 3.65191 19.4174 3.23038 18.1294 3.40579ZM15.5323 7.70187C15.565 7.74451 15.4797 7.80995 15.4797 7.80995C15.447 7.76731 15.5323 7.70187 15.5323 7.70187Z" fill="#3C627B" stroke="#3C627B"/>
</svg>
