<svg xmlns="http://www.w3.org/2000/svg" width="22" height="17" fill="none" viewBox="0 0 22 17">
    <path fill="#FEC065" fill-rule="evenodd" d="M11.07 5.484h9.82c.32 0 .576 1.101.576 1.895 0 0 .061.34.061 1.386 0 .982.037 1.675.037 1.675 0 .315-.255 1.552-.575 1.552H18.39c-.592 0-2.826.189-4.496 0-1.443-.163-2.726 0-2.726 0l-.036 4.432c0 .47-.553.772-.958.428 0 0-2.33-1.657-3.302-2.621C5.13 12.504.215 8.947.215 8.947a.573.573 0 0 1 .01-.904L10.2.125c.38-.303.932-.019.932.447 0 0 .082.852 0 1.27-.06 1.949-.06 3.642-.06 3.642z" clip-rule="evenodd"/>
</svg>
