<svg width="94" height="97" viewBox="0 0 94 97" fill="none" xmlns="http://www.w3.org/2000/svg" >
  <g id="ship">
    <path d="M64.1125 25.016L64.7184 75.5626" stroke="#ED8F20" stroke-width="2" stroke-linecap="round"/>
    <path d="M27.8571 25.5775L28.4691 64.8759" stroke="#ED8F20" stroke-width="2" stroke-linecap="round"/>
    <path d="M45.1341 1L45.9419 70.6801" stroke="#ED8F20" stroke-width="2" stroke-linecap="round"/>
    <path d="M22.2204 71.5833C23.6378 71.5824 24.8167 72.6703 24.9255 74.0795C25.2927 78.7058 26.7616 88.184 32.9184 88.4281C39.0752 88.6723 50.428 88.5563 55.5628 88.4831C58.9597 88.4525 62.2426 87.2563 64.8592 85.0958C68.0478 82.4409 71.677 77.7048 74.0393 69.3007C74.4283 67.9422 75.063 66.6661 75.9121 65.5351C77.3993 63.5638 79.9085 60.8722 82.9074 60.2741V57.3629L65.6915 60.268C65.6915 60.268 70.2326 66.1027 61.793 67.3904C53.3534 68.6782 43.2736 71.919 43.9284 64.1436L17 64.7539L19.7357 70.4909C20.0378 71.1483 20.6997 71.5668 21.4248 71.5589L22.2204 71.5833Z" fill="#ED8F20"/>
    <path d="M24.9255 74.0795C24.9255 74.0795 27.5633 76.002 49.1611 74.6471C70.759 73.2922 73.2437 72.0899 73.6415 70.6923C73.2062 72.8959 72.4646 75.0281 71.4383 77.0274C70.3115 79.0625 68.9363 80.9505 67.344 82.6484C67.344 82.6484 60.7832 84.7662 49.2835 84.7662C37.7839 84.7662 30.3602 85.1812 27.1777 83.8324C26.6667 82.6734 26.2432 81.4779 25.9109 80.256C25.3911 78.2321 25.0613 76.1644 24.9255 74.0795Z" fill="#FFC15D"/>
    <path d="M58.2984 33.8656L69.9021 29.331" stroke="#ED8F20" stroke-width="2" stroke-linecap="round"/>
    <path d="M46.2357 10.9177H52.619L51.5174 15.8429C51.2787 16.9232 50.0302 17.7166 48.5736 17.7166H42.1047C40.6481 17.7166 39.4057 16.9171 39.167 15.8368L38.0654 10.9177H46.2357Z" fill="#ED8F20"/>
    <path d="M45.0178 5.30885V1C45.0178 1 51.0951 4.99148 53.2432 4.05159C55.3914 3.1117 52.0865 2.75161 53.739 2.538C55.3914 2.32439 60.2202 3.19104 60.2202 3.19104C60.2202 3.19104 56.1442 2.97743 55.8443 4.16145C55.5444 5.34547 55.3914 6.31587 55.3914 6.31587C55.3914 6.31587 54.1919 10.1609 45.0178 5.30885Z" fill="#EF5B2F"/>
    <path d="M39.369 53.2616L50.3607 47.3903" stroke="#ED8F20" stroke-width="2" stroke-linecap="round"/>
    <path d="M58.8125 44.3814L70.3489 39.6698" stroke="#ED8F20" stroke-width="2" stroke-linecap="round"/>
    <path d="M70.6488 39.0289C70.6488 39.0289 77.8644 43.9664 71.5301 50.0147L59.2348 56.4291C65.5752 50.3687 58.7758 44.3021 58.7758 44.3021L70.6488 39.0289Z" fill="white"/>
    <path d="M70.1469 29.331C70.1469 29.331 76.9647 34.5614 70.6304 39.7674L58.733 44.296C65.0734 39.0839 58.2801 33.8717 58.2801 33.8717L70.1469 29.331Z" fill="#CDE8E8"/>
    <path d="M37.943 25.9742L51.8907 20.5241" stroke="#ED8F20" stroke-width="2" stroke-linecap="round"/>
    <path d="M38.5611 38.6078L52.4231 32.9441" stroke="#ED8F20" stroke-width="2" stroke-linecap="round"/>
    <path d="M52.7781 32.1812C52.7781 32.1812 61.4503 38.1074 53.8369 45.3824L39.0691 53.0846C46.6825 45.8035 38.5183 38.5163 38.5183 38.5163L52.7781 32.1812Z" fill="white"/>
    <path d="M52.2028 20.5241C52.2028 20.5241 60.3915 26.8043 52.7781 33.0661L38.4938 38.5041C46.1072 32.2422 37.943 25.9742 37.943 25.9742L52.2028 20.5241Z" fill="#CDE8E8"/>
    <path d="M21.3085 35.2694L32.9184 30.7286" stroke="#ED8F20" stroke-width="2" stroke-linecap="round"/>
    <path d="M21.8288 45.7791L33.3652 41.0674" stroke="#ED8F20" stroke-width="2" stroke-linecap="round"/>
    <path d="M33.6589 40.4327C33.6589 40.4327 40.8806 45.3641 34.5402 51.4184L22.251 57.8268C28.5853 51.7724 21.7982 45.7058 21.7982 45.7058L33.6589 40.4327Z" fill="white"/>
    <path d="M33.1816 30.7286C33.1816 30.7286 39.9993 35.959 33.6589 41.1712L21.7982 45.7058C28.1386 40.4998 21.3392 35.2816 21.3392 35.2816L33.1816 30.7286Z" fill="#CDE8E8"/>
    <path d="M54.0878 45.0223C54.0878 45.0223 60.9117 50.2527 54.5713 55.4648L40.7705 63.0816C47.1109 57.8695 39.0568 53.0846 39.0568 53.0846L54.0878 45.0223Z" fill="#CDE8E8"/>
  </g>
  <g id="wave">
    <path d="M46.9994 83.7343C44.4383 83.7343 42.0132 82.7539 40.175 80.9749L39.1671 80L38.1592 80.9749C36.3195 82.7539 33.8961 83.7343 31.3348 83.7343C28.7734 83.7343 26.3485 82.7539 24.5104 80.9749L23.5025 80L22.4945 80.9749C20.6549 82.7539 18.2315 83.7343 15.6701 83.7343C13.1088 83.7343 10.6839 82.7539 8.84574 80.9749L7.83782 80L6.82991 80.9749C4.99028 82.7539 2.56687 83.7343 0.00550793 83.7343L0 96.6369C2.86959 96.6369 5.60522 95.6878 7.83396 93.9417C10.0628 95.6877 12.7981 96.6369 15.6679 96.6369C18.5375 96.6369 21.2731 95.6878 23.5019 93.9417C25.7307 95.6877 28.466 96.6369 31.3358 96.6369C34.2057 96.6369 36.9411 95.6878 39.1698 93.9417C41.3931 95.6877 44.1288 96.6369 46.9981 96.6369L46.9994 83.7343Z" fill="#88CDDF"/>
    <path d="M46.9994 83.7343C44.4383 83.7343 42.0132 82.7539 40.175 80.9749L39.1671 80L38.1592 80.9749C36.3195 82.7539 33.8961 83.7343 31.3348 83.7343C28.7734 83.7343 26.3485 82.7539 24.5104 80.9749L23.5025 80L22.4945 80.9749C20.6549 82.7539 18.2315 83.7343 15.6701 83.7343C13.1088 83.7343 10.6839 82.7539 8.84574 80.9749L7.83782 80L6.82991 80.9749C4.99028 82.7539 2.56687 83.7343 0.00550793 83.7343L0 96.6369C2.86959 96.6369 5.60522 95.6878 7.83396 93.9417C10.0628 95.6877 12.7981 96.6369 15.6679 96.6369C18.5375 96.6369 21.2731 95.6878 23.5019 93.9417C25.7307 95.6877 28.466 96.6369 31.3358 96.6369C34.2057 96.6369 36.9411 95.6878 39.1698 93.9417C41.3931 95.6877 44.1288 96.6369 46.9981 96.6369L46.9994 83.7343Z" fill="#88CDDF"/>
    <path d="M93.9994 83.7343C91.4383 83.7343 89.0132 82.7539 87.175 80.9749L86.1671 80L85.1592 80.9749C83.3195 82.7539 80.8961 83.7343 78.3348 83.7343C75.7734 83.7343 73.3485 82.7539 71.5104 80.9749L70.5025 80L69.4945 80.9749C67.6549 82.7539 65.2315 83.7343 62.6701 83.7343C60.1088 83.7343 57.6839 82.7539 55.8457 80.9749L54.8378 80L53.8299 80.9749C51.9903 82.7539 49.5669 83.7343 47.0055 83.7343L47 96.6369C49.8696 96.6369 52.6052 95.6878 54.834 93.9417C57.0628 95.6877 59.7981 96.6369 62.6679 96.6369C65.5375 96.6369 68.2731 95.6878 70.5019 93.9417C72.7307 95.6877 75.466 96.6369 78.3358 96.6369C81.2057 96.6369 83.9411 95.6878 86.1698 93.9417C88.3931 95.6877 91.1288 96.6369 93.9981 96.6369L93.9994 83.7343Z" fill="#88CDDF"/>
    <path d="M93.9994 83.7343C91.4383 83.7343 89.0132 82.7539 87.175 80.9749L86.1671 80L85.1592 80.9749C83.3195 82.7539 80.8961 83.7343 78.3348 83.7343C75.7734 83.7343 73.3485 82.7539 71.5104 80.9749L70.5025 80L69.4945 80.9749C67.6549 82.7539 65.2315 83.7343 62.6701 83.7343C60.1088 83.7343 57.6839 82.7539 55.8457 80.9749L54.8378 80L53.8299 80.9749C51.9903 82.7539 49.5669 83.7343 47.0055 83.7343L47 96.6369C49.8696 96.6369 52.6052 95.6878 54.834 93.9417C57.0628 95.6877 59.7981 96.6369 62.6679 96.6369C65.5375 96.6369 68.2731 95.6878 70.5019 93.9417C72.7307 95.6877 75.466 96.6369 78.3358 96.6369C81.2057 96.6369 83.9411 95.6878 86.1698 93.9417C88.3931 95.6877 91.1288 96.6369 93.9981 96.6369L93.9994 83.7343Z" fill="#88CDDF"/>
  </g>
</svg>