<svg xmlns="http://www.w3.org/2000/svg" xmlns:xlink="http://www.w3.org/1999/xlink" width="61" height="60" viewBox="0 0 61 60">
    <defs>
        <path id="b" d="M.065 19.494C.391 14.621 5.94 0 23.891 0c9.54 0 16.753 3.265 20.888 9.097 3.917 5.524 3.917 13.242 3.917 16.895 0 7.798-6.854 15.595-15.993 19.494-9.139 3.899-17.298 2.275-24.805-5.198C.391 32.815-.262 24.368.065 19.494z"/>
        <filter id="a" width="143.1%" height="144.2%" x="-21.6%" y="-15.8%" filterUnits="objectBoundingBox">
            <feOffset dy="3" in="SourceAlpha" result="shadowOffsetOuter1"/>
            <feGaussianBlur in="shadowOffsetOuter1" result="shadowBlurOuter1" stdDeviation="3"/>
            <feColorMatrix in="shadowBlurOuter1" values="0 0 0 0 0 0 0 0 0 0 0 0 0 0 0 0 0 0 0.223363904 0"/>
        </filter>
    </defs>
    <g fill="none" fill-rule="evenodd">
        <g transform="matrix(-1 0 0 1 54.696 3)">
            <use fill="#000" filter="url(#a)" xlink:href="#b"/>
            <use fill="#3C627B" xlink:href="#b"/>
        </g>
        <path fill="#E8EEF2" d="M29.847 20.97H38.688c.288 0 .518.991.518 1.705v5.476c0 .284-.23 1.398-.518 1.398H36.35c-.533 0-1.667.269-4.048 0a10.28 10.28 0 0 0-2.454 0v2.845a.517.517 0 0 1-.862.386c-1.398-.995-2.389-1.782-2.972-2.36-1.046-1.036-3.043-2.622-5.993-4.757a.516.516 0 0 1 .009-.814l8.978-7.127a.519.519 0 0 1 .84.402c.048.511.049.893 0 1.144-.22 1.134-.22 1.702 0 1.702z"/>
    </g>
</svg>
