<svg width="19" height="24" viewBox="0 0 19 24" fill="none" xmlns="http://www.w3.org/2000/svg">
<path d="M18.2 11.6719C17.7479 9.5 16.5844 9.26331 15.2247 8.57799C15.2016 8.56612 15.181 8.55425 15.155 8.54239C15.2077 8.35746 15.2466 8.19475 15.2608 8.09712C15.3896 7.21233 15.3576 6.26437 15.3256 5.34741C15.309 4.87305 15.294 4.4251 15.2993 3.98749C15.307 3.52997 15.0934 2.86609 14.8289 2.51501L14.7057 2.34464C14.6004 2.2003 14.4796 2.03644 14.4574 2.00236C14.2297 1.46061 13.3343 0.937625 13.1573 0.838082L12.9203 0.753087C12.8275 0.723606 12.7302 0.69336 12.6865 0.675749C12.3243 0.533707 11.6193 0.326963 11.6193 0.326963C11.5995 0.320837 11.5788 0.314712 11.5573 0.308203L11.5586 0.303991C11.5249 0.293271 11.4897 0.285231 11.4155 0.268002C10.9415 0.139744 10.2662 0.00536005 10.2378 0L10.2216 0.0677663C8.99481 -0.0149316 7.65501 0.235842 6.59637 0.761127C5.90317 1.11298 5.5985 1.37102 5.01874 1.9189C4.93325 1.99968 4.80563 2.14172 4.70273 2.2562C4.64884 2.31631 4.60387 2.36799 4.58159 2.38943C4.46288 2.50123 4.41102 2.65093 4.36929 2.77153C4.36484 2.78493 4.36078 2.79756 4.35673 2.80867C3.49297 3.99285 3.54118 6.41368 3.66394 8.17982C3.42652 8.2472 3.14535 8.36512 2.89336 8.47462C2.85284 8.49185 2.82043 8.5064 2.79936 8.51482C-0.425581 9.29394 -0.0816131 13.3159 0.123795 15.7214C0.15418 16.0778 0.18254 16.406 0.197126 16.6943C0.218598 17.061 0.19753 17.4282 0.175247 17.816C0.154585 18.1775 0.133112 18.5511 0.148913 18.9298L0.15418 19.0443C0.189022 19.8138 0.228322 20.6863 0.564186 21.459C0.683298 21.7216 0.938133 22.0156 1.2112 22.3192C1.25171 22.364 1.28737 22.4031 1.31492 22.4345C1.44497 23.1772 2.65756 23.4154 3.04528 23.4724C4.73433 23.7148 6.29656 23.8189 7.8831 23.9123C8.05043 23.9215 8.21937 23.9341 8.38872 23.9464C8.75051 23.9728 9.12203 24 9.49679 24C9.60213 24 9.70787 23.9981 9.81361 23.9931C10.126 23.9766 10.7515 23.9487 10.8297 23.9479C11.0533 23.9479 11.418 23.9131 11.6728 23.8871L12.5626 23.8771C13.2465 23.8024 13.855 23.74 14.5 23.57C14.5 23.57 14.8707 23.3748 15.0627 23.3269C17.9521 22.6069 17.9899 20.1552 18.201 18.1101C18.2616 17.523 18.34 16.9016 18.34 16.3145C18.34 14.3301 18.6051 12.8951 18.2 11.6719ZM10.4655 17.4171C10.1705 17.7502 9.66695 17.9925 9.16457 17.9925C8.93202 17.9925 8.70028 17.9408 8.4892 17.8222C8.49608 17.8271 8.46732 17.8172 8.43045 17.8038C8.1347 17.6954 7.80288 17.5645 7.61449 17.3807C7.23285 17.0094 7.12994 16.3508 7.1976 15.8631C7.26364 15.3883 7.48444 15.0227 7.81909 14.8332L7.89283 14.7918C7.91227 14.7777 7.93455 14.7612 7.95886 14.7432C8.22261 14.5506 8.48109 14.3734 8.74119 14.3263C8.91419 14.2949 9.08435 14.2964 9.26018 14.3301C9.41738 14.342 9.54176 14.3668 9.64061 14.4059C10.0381 14.561 10.3841 14.9124 10.6685 15.4503C10.7458 15.5951 10.9496 16.8692 10.4655 17.4171ZM13.1471 7.57987C13.1431 7.65262 13.1354 7.74374 13.1261 7.84673C13.12 7.91411 13.1139 7.98647 13.1078 8.06151C12.7529 8.05309 12.4069 8.06955 12.2655 8.07645L11.7393 8.07874L10.4744 8.06496C10.1997 8.0596 9.92502 8.12545 9.64953 8.11933C8.70635 8.09827 7.74211 8.16412 6.78638 8.16718L6.60811 8.02131V8.0282L6.50399 8.02859C6.42175 8.02974 6.30061 8.03088 6.21796 8.0328C6.18595 7.95355 6.14301 7.8808 6.14301 7.82988C6.14301 6.63344 6.26455 5.59474 6.57206 4.35695C6.71507 3.78458 6.86295 3.28762 7.29362 2.99703L7.42894 2.90515C7.64326 2.76157 8.07352 2.47366 8.21289 2.39632L8.24125 2.39058C8.29716 2.37833 8.40817 2.35727 8.45922 2.35459C8.7886 2.35459 9.13175 2.32894 9.46357 2.30444C9.9939 2.26462 10.5412 2.22404 11.0043 2.29295C11.3499 2.34349 11.9892 2.61838 12.221 2.73669C12.2684 2.8458 12.317 2.9553 12.366 3.06557C12.7165 3.85426 13.0791 4.66937 13.0981 5.48486C13.1123 6.02546 13.1504 7.46234 13.1471 7.57987Z" fill="#3C627B"/>
</svg>
