<svg xmlns="http://www.w3.org/2000/svg" width="17" height="17" viewBox="0 0 17 17">
    <path fill="#3C627B" fill-rule="nonzero" d="M16.875 4.914c-.045-.341-.091-.694-.11-1.03-.015-.241-.008-.497-.001-.745.01-.394.022-.802-.047-1.192-.32-1.815-2.05-1.815-3.194-1.815l-.44.002c-.53 0-1.065.02-1.584.04-.759.03-1.542.06-2.313.025a130.11 130.11 0 0 0-2.08-.072A92.813 92.813 0 0 1 4.231.013 6.889 6.889 0 0 0 3.812 0c-.856 0-2.031.162-2.768.933C.224 1.792.1 3.023.038 4.315c-.079 1.63-.02 3.281.037 4.877l.016.463c.016.454.015.913.014 1.357-.004 1.39-.007 2.827.52 4.225.2.53.448.765.983.928 1.721.525 3.547.569 5.124.569.32 0 .64-.002.96-.005.319-.002.636-.004.953-.004.6 0 1.39.007 2.165.064.245.018.482.024.716.03.37.009.719.017 1.09.072a8.08 8.08 0 0 0 1.167.109c.337 0 .632-.039.901-.119 1.695-.503 1.769-3.063 1.822-4.932.01-.37.02-.72.044-.998.052-.618.127-1.248.2-1.857.096-.817.197-1.66.243-2.493.03-.556-.045-1.131-.118-1.687zM1.774 7.634c.065-1.143.156-2.035.406-2.956.073-.266.109-.54.144-.804.074-.56.145-1.087.535-1.505.372-.398.904-.453 1.424-.453.134 0 .268.004.4.007.107.003.214.006.318.007.896.01 1.803.05 2.68.089 1 .044 2.035.09 3.058.09.155 0 .316.014.472.027.284.024.573.037.889-.02.136-.024.275-.05.422-.05.399-.037.625.026 1.022.138l.07.019c.658.127 1.302.325 1.55.908.237.575.247 1.369.257 2.069.003.219.005.427.015.613.087 2.097-.274 3.88-.655 5.767a7.753 7.753 0 0 0-.113 1.033c-.036.565-.074 1.149-.319 1.646-.469.954-1.18.982-2.164 1.02l-.09.003c-.367.015-.745.022-1.125.022-1.656 0-3.414-.132-5.7-.429-.158-.02-.322-.037-.488-.054-1.137-.117-2.313-.238-2.486-1.586a167.919 167.919 0 0 1-.407-3.588l-.116-1.088a3.669 3.669 0 0 1 0-.925z"/>
</svg>
