<svg xmlns="http://www.w3.org/2000/svg" width="17" height="17" viewBox="0 0 17 17">
    <path fill="#3C627B" fill-rule="nonzero" d="M16.875 4.914c.073.556.148 1.13.118 1.687-.046.832-.147 1.676-.244 2.493-.072.61-.147 1.239-.199 1.857-.023.278-.033.628-.044.998-.053 1.87-.127 4.43-1.822 4.932-.269.08-.564.119-.901.119a8.08 8.08 0 0 1-1.168-.109c-.37-.055-.72-.063-1.089-.072-.234-.006-.47-.012-.716-.03a30.02 30.02 0 0 0-2.165-.064c-.317 0-.634.002-.953.004-.32.003-.64.005-.96.005-1.577 0-3.403-.044-5.124-.57-.535-.162-.783-.396-.983-.927-.527-1.398-.524-2.835-.52-4.225 0-.444.002-.903-.014-1.357l-.016-.463C.018 7.596-.041 5.946.038 4.315.1 3.023.224 1.792 1.044.933 1.781.162 2.956 0 3.812 0c.144 0 .284.005.42.013.953.058 1.93.086 2.873.114.695.02 1.39.04 2.081.072.77.036 1.554.005 2.313-.025.519-.02 1.055-.04 1.584-.04l.44-.002c1.145 0 2.875 0 3.194 1.815.069.39.058.798.047 1.192-.007.248-.014.504 0 .745.02.336.066.689.11 1.03z"/>
</svg>
