<svg xmlns="http://www.w3.org/2000/svg" width="36" height="45" viewBox="0 0 36 45">
    <g fill="none" fill-rule="evenodd">
        <path fill="#FF8C66" d="M4.814.182c2.042-.243 7.293-.243 15.753 0h9.628c1.75 0 3.5.727 4.376 1.454.875.728 1.75 1.091 1.313 2.91-.438 1.818-.438 2.909-3.064 3.272-1.915.265-2.512 0-7.439 0-1.028 0-3.658-.098-3.938 0-.69.243-5.067.243-13.129 0-4.376 0-6.855-.242-7.439-.727C0 6.364 0 6 0 4.18c0-1.817 1.75-3.636 4.814-4zM31.186 44.818c-2.042.243-7.293.243-15.753 0H5.805c-1.75 0-3.5-.727-4.376-1.454-.875-.728-1.75-1.091-1.313-2.91.438-1.818.438-2.909 3.064-3.272 1.915-.265 2.512 0 7.439 0 1.028 0 3.658.098 3.938 0 .69-.243 5.067-.243 13.129 0 4.376 0 6.855.242 7.439.727C36 38.636 36 39 36 40.82c0 1.817-1.75 3.636-4.814 4z"/>
        <path fill="#C4D3DE" d="M5.49 8h26.39c.4 1.083-.2 2.347-1.8 3.792C27.683 13.958 18.5 22.5 18.5 22.5s-7.612-6.375-9.411-8C7.289 12.875 3.691 8 5.49 8z"/>
        <path fill="#F2F2F2" d="M25.994 12.463c-2.55 2.33-6.442 5.787-7.636 5.787s-6.442-4.04-8.355-5.787c-.26-.237 16.35-.328 15.991 0z"/>
        <path fill="#C4D3DE" d="M31.51 37H5.12c-.4-1.25.2-2.708 1.8-4.375C9.317 30.125 18.5 20 18.5 20s7.612 7.625 9.411 9.5c1.8 1.875 5.398 7.5 3.599 7.5z"/>
        <path fill="#F2F2F2" d="M28.474 35.23H8.025c-.167-.802.496-2.029 1.99-3.68.13-.143 6.936-.12 7.14-.284.744-.6 2.03 0 2.311 0 2.637 0 6.841-.6 7.57.285 1.746 2.12 2.584 3.68 1.438 3.68z"/>
    </g>
</svg>
