<svg xmlns="http://www.w3.org/2000/svg" width="17" height="17" fill="none" viewBox="0 0 17 17">
    <path fill="#fff" d="M16.352 14.51l-.015-.015a7.528 7.528 0 0 1-.528-.5c-.761-.769-1.61-1.523-2.29-2.363-.414-.51-.56-.666-.645-.716a48.29 48.29 0 0 0-2.278-2.445c.302-.288.646-.602.646-.602 1.326-1.074 2.546-2.216 3.838-3.425.338-.316.677-.633 1.011-.943.404-.328.68-.661.843-1.02.11-.242.06-.49.01-.711-.003-.07-.038-.137-.072-.202-.013-.025-.035-.064-.037-.054.027-.254-.154-.39-.314-.51a2.567 2.567 0 0 1-.113-.087l-.043-.028-.04-.008a.553.553 0 0 1-.112-.054 2.049 2.049 0 0 0-.337-.324L15.71.397a1.034 1.034 0 0 0-.061-.04l-.032-.02c-.14-.09-.342-.182-.35-.186l-.021.04c-.475-.13-.747.094-.908.358l-.095.035-.011.101c-.078.061-.126.096-.129.102l-.048-.005-.043.023c-.23.12-.463.363-.573.516a.703.703 0 0 0-.257.28c-1.523 1.333-2.883 2.795-4.198 4.21l-.495.532c-.272-.286-.545-.585-.546-.585C6.87 4.432 5.728 3.212 4.52 1.92c-.316-.338-.634-.678-.945-1.013-.327-.404-.66-.68-1.02-.842-.24-.11-.489-.06-.71-.011-.07.003-.137.039-.202.073-.024.013-.065.034-.054.037-.254-.027-.39.154-.51.314-.027.037-.055.075-.087.113L.964.636.956.675a.56.56 0 0 1-.054.112c-.146.12-.236.223-.325.336l-.106.168a1.18 1.18 0 0 0-.04.062l-.02.032c-.09.138-.182.341-.186.35l.04.02c-.13.475.095.748.358.908l.036.095.1.01c.062.079.096.127.103.13l-.005.047.022.043c.121.23.364.464.516.573a.707.707 0 0 0 .28.258C3.008 5.34 4.47 6.699 5.884 8.014l.437.406c-.167.14-.334.288-.501.434-.228.2-.456.4-.682.583a.73.73 0 0 0-.127.151c-.013.018-.03.044-.046.063l-.068.044c-.543.472-1.026.992-1.492 1.494-.46.496-.937 1.01-1.444 1.453-.308.184-1.002.746-1.401 1.133l-.023.029a4.61 4.61 0 0 1-.153.224c-.072.101-.13.18-.192.318l-.042.325a.982.982 0 0 0 .022.335c-.204.224-.225.526-.067.917.064.17.2.337.265.418l.028.027c.276.208.567.327.857.358.436.045.87-.109 1.253-.464.154-.186.33-.36.499-.527.4-.396.779-.812 1.182-1.205.384-.374.867-.642 1.181-1.086.51-.413.665-.56.716-.644a46.703 46.703 0 0 0 2.353-2.188c.156.188.322.377.488.567.202.229.403.457.586.685.04.048.096.088.151.126l.063.046.044.068c.472.543.992 1.025 1.494 1.492.496.46 1.01.937 1.454 1.444.184.309.745 1.003 1.133 1.4l.028.024c.097.062.166.11.225.153.1.072.18.129.318.191l.325.043a.988.988 0 0 0 .335-.023c.223.204.526.226.917.067.17-.064.337-.2.418-.265l.027-.028c.518-.688.484-1.471-.092-2.093z"/>
</svg>
