<svg xmlns="http://www.w3.org/2000/svg" width="10" height="7" fill="none" viewBox="0 0 10 7">
    <path fill="#3C627B" d="M8.091 0H8.1c.069 0 .154.048.223.087l.14.09c.347.237.93.634.867 1.03l-.001.006c-.027.224-.277.456-.478.643-.062.057-.12.11-.167.16a4.803 4.803 0 0 0-.309.367 4.52 4.52 0 0 1-.286.341c-.479.46-.915.989-1.337 1.501-.562.682-1.143 1.388-1.822 1.918-.081.065-.158.13-.234.194-.286.242-.533.452-.89.587-.493.21-.767-.045-1.15-.397a6.045 6.045 0 0 0-.328-.29c-.62-.564-1.072-1.102-1.594-1.724l-.227-.27C.259 3.95-.08 3.55.016 3.181c.059-.242.345-.429.576-.579.048-.031.094-.061.158-.109l.128-.134c.088-.09.433-.36.568-.403.026-.003.063-.009.104-.017.057-.011.126-.025.17-.025l.044-.008c.047-.015.113.013.19.046l.072.03.15.155c.035.038.07.083.11.132.054.07.115.147.171.202.025.038.059.1.1.174.252.457.78 1.407 1.377 1.072.96-.598 1.852-1.531 2.435-2.214.092-.117.184-.247.278-.379C7.055.55 7.478-.044 8.082.048L8.092 0z"/>
</svg>
