<svg width="13" height="13" viewBox="0 0 13 13" fill="none" xmlns="http://www.w3.org/2000/svg">
<path d="M12.93 10.4488C12.8785 10.6302 12.7762 10.7974 12.6265 10.947C12.3448 11.2273 11.946 11.3969 11.626 11.5329C11.5023 11.6495 11.2384 11.8721 10.9716 11.9357L10.6402 12.2654L10.3391 12.269C10.0231 12.2784 9.66577 12.289 9.36698 11.9922L9.24154 11.8674C9.23681 11.8632 7.7961 10.553 7.04646 9.80693C7.04646 9.80693 6.89204 9.68268 6.69324 9.51309C6.66957 9.539 6.64472 9.60142 6.61928 9.62733L6.5323 9.75099H6.48675C6.48024 9.75099 6.47373 9.73391 6.4684 9.74275C6.44119 9.78573 6.41042 9.81635 6.36782 9.85875C6.15305 10.0725 5.95366 10.2922 5.75486 10.5212C5.546 10.7609 5.33773 10.9953 5.1129 11.219C5.01231 11.3662 4.85375 11.55 4.68571 11.7166C4.45141 11.9498 4.1118 12.2313 3.76212 12.332C3.62012 12.5475 3.31127 12.9226 3.01603 12.9821C2.1948 13.0575 1.12448 12.9085 0.489619 12.2766C-0.487221 11.3044 0.435779 10.1349 0.89432 9.67444C0.945795 9.49366 1.0233 9.2852 1.0233 9.1474V9.0102L1.31144 8.92423C1.33866 8.88831 1.61497 8.7405 1.61497 8.68809V8.56678L1.66053 8.4867C1.74336 8.40426 1.79069 8.30709 1.85992 8.21111C1.94098 8.09805 2.01316 7.98558 2.10783 7.88665C2.39419 7.44264 2.75097 6.97509 3.18052 6.49399C2.97047 6.30378 2.78706 6.15068 2.61902 6.01995C2.40602 5.81149 2.21196 5.63366 2.01967 5.45582C1.64751 5.11133 1.26293 4.75684 0.926861 4.35052C0.833378 4.31342 0.717411 4.25748 0.644045 4.18505L0.148819 3.67156C-0.169497 3.03736 0.0872872 2.35192 0.319812 1.88024C0.343479 1.77719 0.400276 1.57521 0.507368 1.42093C0.54346 1.19304 0.67836 0.813219 0.920352 0.753155C0.971826 0.671892 1.03632 0.592395 1.1156 0.534687C1.14814 0.494055 1.19252 0.442237 1.24695 0.38865C1.37179 0.2644 1.50196 0.173125 1.63449 0.117183C1.76229 0.0524077 1.90784 0.0317986 2.12913 0L2.14628 0.0506414L2.14865 0.0306201C2.61548 0.0836178 3.00006 0.50701 3.12194 0.918625C3.23732 0.992233 3.40949 1.10824 3.50948 1.20776C3.85147 1.54812 4.22481 1.88907 4.59874 2.22885C4.97859 2.57569 5.35785 2.92194 5.70634 3.26878C5.7655 3.32119 5.83177 3.38184 5.89863 3.44485C5.97259 3.34474 6.043 3.2464 6.10039 3.16102C6.43113 2.73586 7.28254 1.75835 7.86769 1.3591C7.90438 1.33201 7.94402 1.30492 7.98189 1.28078L8.39723 0.867396C8.72502 0.541165 9.13445 0.420447 9.52909 0.531153L10.3314 0.546464C10.9219 0.741967 11.3467 1.29373 11.4591 1.99978L11.7094 2.24887L11.7236 2.34603C11.7958 2.84656 11.6023 3.1198 11.3769 3.35593C11.3704 3.43955 11.3354 3.52376 11.2633 3.5956L11.0757 3.77991C11.0893 3.76872 10.8373 4.14206 10.6349 4.34346C10.484 4.49362 10.3332 4.6744 10.1823 4.85459C10.0468 5.01653 9.91131 5.17788 9.77582 5.32097L9.90243 5.44699L9.69298 5.65544C9.68647 5.66722 9.67109 5.70138 9.65452 5.73494C9.61311 5.81738 9.57051 5.90218 9.50483 5.96754L9.3794 6.09238L9.12143 6.43098C9.14332 6.451 9.16463 6.47102 9.18593 6.49163C9.34745 6.53874 9.51903 6.69361 9.69712 6.86791L10.045 6.88322C10.177 6.9268 10.2953 7.00512 10.3988 7.07461C10.4752 7.12525 10.5539 7.17766 10.6101 7.19591L10.7012 7.24537C11.3638 7.773 12.1082 8.39425 12.5691 9.10265C12.6572 9.19451 12.7779 9.34526 12.8117 9.51073C12.9454 9.7769 13.0891 10.099 12.93 10.4488Z" fill="#3C627B"/>
</svg>
