<svg width="21" height="21" viewBox="0 0 21 21" fill="none" xmlns="http://www.w3.org/2000/svg">
<path fill-rule="evenodd" clip-rule="evenodd" d="M2.49422 6.8988C3.03655 5.20359 6.2408 0.511214 12.4372 2.05615C15.7304 2.87725 17.9322 4.65261 18.8455 7.07072C19.7105 9.36087 19.03 12.0901 18.7079 13.3819C18.0204 16.1392 14.9671 18.3066 11.4688 18.8987C7.97056 19.4908 5.29725 18.2142 3.36485 14.9257C1.43246 11.6373 1.95189 8.59402 2.49422 6.8988Z" fill="#638195"/>
<path d="M13.0685 7.875H13.0745C13.1257 7.875 13.1897 7.91127 13.2413 7.94019L13.3458 8.00716C13.607 8.18516 14.0441 8.48309 13.9964 8.78012L13.9958 8.78457C13.9754 8.953 13.7881 9.127 13.6378 9.26673C13.5913 9.30989 13.5481 9.35016 13.5123 9.38732C13.4282 9.47476 13.3531 9.57022 13.2805 9.66255C13.2079 9.75489 13.1394 9.84189 13.066 9.9182C12.7067 10.2626 12.3796 10.6598 12.0632 11.0438C11.6417 11.5556 11.2058 12.0849 10.6965 12.4821C10.6359 12.531 10.5781 12.5797 10.5216 12.6278C10.3068 12.8096 10.1217 12.9664 9.85427 13.0677C9.48433 13.2256 9.27816 13.0345 8.99193 12.77C8.9125 12.6963 8.82987 12.6202 8.74552 12.5528C8.27988 12.1294 7.94141 11.7264 7.54942 11.2599L7.37943 11.0574C7.19404 10.8378 6.94013 10.5372 7.01271 10.2606C7.05617 10.0795 7.27111 9.93934 7.44387 9.82676C7.48027 9.80317 7.51474 9.78048 7.56226 9.74488L7.65882 9.64453C7.72454 9.57645 7.98358 9.37419 8.0842 9.34215C8.10369 9.33993 8.13152 9.33526 8.16235 9.32925C8.20516 9.32102 8.25676 9.31034 8.28951 9.31034L8.32334 9.30455C8.35802 9.29321 8.40747 9.31434 8.46506 9.33926C8.48326 9.34727 8.50167 9.35506 8.51987 9.36218L8.63141 9.4781C8.65795 9.50591 8.6845 9.53973 8.71405 9.57711C8.75472 9.62918 8.80054 9.68703 8.84293 9.72797C8.86176 9.75711 8.88681 9.80295 8.91764 9.85857C9.10711 10.2014 9.50274 10.9141 9.95039 10.6629C10.6699 10.2141 11.3392 9.51415 11.7768 9.0024C11.8457 8.91429 11.9148 8.81728 11.9853 8.71805C12.2914 8.28751 12.6087 7.84185 13.0613 7.91127L13.0685 7.875Z" fill="#E0F0F1"/>
</svg>
