<svg xmlns="http://www.w3.org/2000/svg" width="6" height="10" fill="none" viewBox="0 0 6 10">
    <path fill="#89A8BD" d="M.064 3.163c.003.206.048.318.183.452l.026.02c.04.019.086.028.127.036l.031.006a.267.267 0 0 1 .02.024.37.37 0 0 0 .128.117l.017.01H.62a.285.285 0 0 1 .052.02l.005-.007c.193.061.425-.044.64-.295.062-.077.115-.147.17-.216l.159-.204a.448.448 0 0 0 .067-.093c.293-.193.49-.444.7-.71l.103-.132c.046-.068.144-.167.185-.199h.018l.007-.008c.02.01.037.02.049.024.067.057.13.118.193.178.101.098.207.2.31.266.04.04.104.093.164.142.036.03.086.07.112.095l.024.033c.057.066.114.135.172.206.13.158.264.322.415.473.04.041.096.094.157.138l.027-.038-.008.038-.006.01s.002 0 .003.002h.001c.03.02.068.044.111.058l.071.006a.285.285 0 0 0 .133-.001.52.52 0 0 0 .206-.097.682.682 0 0 0 .392-.258.642.642 0 0 0 .111-.014v-.007a.371.371 0 0 0 .263-.16c.065-.1.073-.23.026-.36-.097-.324-.437-.67-.715-.913l-.26-.171a.679.679 0 0 0-.17-.14c-.15-.15-.251-.283-.38-.45-.091-.118-.193-.25-.337-.42L3.637.471c-.033-.033-.066-.07-.1-.108C3.411.22 3.255.042 3.046.018A.36.36 0 0 0 2.933 0a.721.721 0 0 0-.227.049l-.021.006-.018.017a.172.172 0 0 1-.032.018.35.35 0 0 0-.221-.027.643.643 0 0 0-.268.102 2.253 2.253 0 0 0-.116.123 1.17 1.17 0 0 0-.102.084.261.261 0 0 0-.048.03l-.04.05v.006a.135.135 0 0 0-.024.03l-.043.05-.025.025c-.02.019-.026.034-.023.033a5.476 5.476 0 0 0-.072.093c-.092.093-.188.189-.257.292-.078.13-.202.295-.253.349h-.026l-.03.05c-.028.051-.105.14-.186.233a3.546 3.546 0 0 0-.378.491l-.077.094c-.049.06-.098.12-.138.172-.003.002-.258.266-.302.445L0 3.065l.03.029c.008.008.022.04.033.069zM5.65 6.907a.348.348 0 0 1-.032-.07c-.003-.206-.048-.318-.183-.452l-.026-.02c-.04-.019-.086-.028-.127-.036l-.031-.006a.267.267 0 0 1-.02-.024.37.37 0 0 0-.128-.117l-.017-.01h-.024a.285.285 0 0 1-.052-.02l-.005.007c-.193-.061-.425.044-.64.295-.062.077-.115.147-.17.216l-.159.204a.448.448 0 0 0-.067.093c-.293.193-.49.444-.7.71l-.103.132a1.155 1.155 0 0 1-.185.199h-.018l-.007.008a.795.795 0 0 0-.049-.024 3.907 3.907 0 0 1-.193-.178 2.234 2.234 0 0 0-.31-.266 2.517 2.517 0 0 0-.164-.142c-.036-.03-.086-.07-.112-.095l-.024-.033a12.216 12.216 0 0 1-.172-.206c-.13-.158-.264-.322-.415-.473a1.325 1.325 0 0 0-.157-.138l-.027.038.008-.038.006-.01s-.002 0-.003-.002h-.001a.454.454 0 0 0-.111-.058l-.071-.006a.285.285 0 0 0-.133.001.52.52 0 0 0-.206.097.682.682 0 0 0-.392.258.643.643 0 0 0-.111.014v.007a.371.371 0 0 0-.263.16.398.398 0 0 0-.026.36c.097.324.437.67.715.913l.26.171c.08.08.129.12.17.14.15.15.251.283.38.45.091.118.194.25.337.42l.153.153c.033.033.066.07.1.108.126.143.282.321.491.345a.36.36 0 0 0 .113.018.721.721 0 0 0 .227-.049l.021-.006.018-.017a.172.172 0 0 1 .032-.018.35.35 0 0 0 .221.027.643.643 0 0 0 .268-.102c.037-.037.082-.083.116-.123.034-.025.068-.053.102-.084a.261.261 0 0 0 .048-.03l.04-.05v-.006a.135.135 0 0 0 .024-.03l.043-.05.025-.025c.02-.019.026-.034.023-.033a5.37 5.37 0 0 0 .072-.093c.092-.093.188-.189.257-.292.078-.13.202-.295.253-.349h.025l.03-.05c.028-.051.105-.14.186-.233.125-.144.28-.324.378-.491l.077-.094c.049-.06.098-.12.138-.172.002-.002.258-.266.302-.445l.004-.25-.028-.028z"/>
</svg>
