<?xml version="1.0" encoding="UTF-8"?>
<svg width="15px" height="10px" viewBox="0 0 15 10" version="1.1" xmlns="http://www.w3.org/2000/svg" xmlns:xlink="http://www.w3.org/1999/xlink">
    <!-- Generator: Sketch 52.1 (67048) - http://www.bohemiancoding.com/sketch -->
    <title>Shape</title>
    <desc>Created with Sketch.</desc>
    <g id="Mòdul-1A-Fase-Definitiu" stroke="none" stroke-width="1" fill="none" fill-rule="evenodd">
        <g id="8" transform="translate(-353.000000, -2001.000000)" fill="#FFFFFF" fill-rule="nonzero">
            <g id="Group-6" transform="translate(260.000000, 1985.000000)">
                <path d="M99.5877989,27.2573902 L99.6550233,27.2132876 C100.335402,26.7932424 100.86078,26.2819949 101.416986,25.7403465 L101.550579,25.6106077 C101.753536,25.4136447 101.95735,25.2213916 102.160308,25.0308513 C103.08218,24.1625011 103.953528,23.3425353 104.589804,22.2074287 C104.632194,22.1316407 104.681007,22.0532837 104.731532,21.9727857 C104.915221,21.6781975 105.123317,21.3446449 105.158428,20.9507187 C105.163566,20.8963398 105.165707,20.8415327 105.165707,20.7880101 C105.165707,20.7880101 105.165707,20.7880101 105.165707,20.7880101 C105.165707,19.649478 104.121803,18.7567216 103.36007,18.1050308 L103.268011,18.0258174 C102.632591,17.4807435 101.946646,16.9840541 101.283394,16.5044918 C100.9173,16.2398762 100.551205,15.9748325 100.19239,15.7016533 C99.912788,15.4884194 99.6426061,15.2482101 99.3805596,15.0161362 C99.1686102,14.828165 98.9562326,14.6397655 98.7357196,14.4612142 C98.6213954,14.3687272 98.5092121,14.2616821 98.3957443,14.1542088 C97.9307402,13.7127546 97.2936075,13.1081637 96.5096089,13.73973 C96.2805323,13.9242758 95.5329291,14.5849584 95.5329291,15.3441225 C95.5329291,15.6035999 95.6198497,15.8429529 95.7915501,16.0544741 C96.2265816,16.5918407 96.9600549,17.0555602 97.6066075,17.4644726 C97.7727416,17.5693769 97.9307402,17.6695711 98.0733243,17.7646272 C98.7785377,18.2343413 99.3741368,18.774277 100.079778,19.4319623 C100.271603,19.6105136 100.481412,19.7663713 100.684798,19.9170909 C100.835089,20.0279896 100.984524,20.1393166 101.126252,20.2592071 L101.20204,20.323006 C101.399003,20.4882837 101.51033,20.5854807 101.51033,20.6616969 C101.51033,20.702374 101.487636,20.7850129 101.379735,20.9468651 C101.271405,21.1091455 101.032908,21.2817023 100.802119,21.4486927 C100.61586,21.5835696 100.423179,21.7231565 100.283164,21.869166 C100.115317,22.0438637 99.9607442,22.231835 99.8065992,22.4202344 C99.6361834,22.6283302 99.4747593,22.8244369 99.2953516,23.0042727 C99.0422969,23.2573274 98.7549878,23.4821222 98.4505514,23.7197624 C98.1679522,23.9407036 97.8759331,24.1689238 97.6048948,24.4275449 C97.3252929,24.6951577 97.0491164,24.954207 96.7451082,25.1854245 C96.2509879,25.5605106 96.0428921,25.9698512 96.1298128,26.3821891 C96.2518442,26.9508129 97.1249044,27.7497978 97.4683052,27.987438 C98.1345541,28.4468758 98.7729713,27.9176446 99.2396882,27.5314257 C99.3604351,27.4303751 99.4769002,27.3336063 99.5877989,27.2573902 Z" id="Shape" transform="translate(100.349318, 20.816389) rotate(90.000000) translate(-100.349318, -20.816389) "></path>
            </g>
        </g>
    </g>
</svg>