<svg xmlns="http://www.w3.org/2000/svg" xmlns:xlink="http://www.w3.org/1999/xlink" width="320" height="76" viewBox="0 0 320 76" preserveAspectRatio="none">
    <defs>
        <path id="a" d="M0 .283h320v54.03c-34.703-.304-65.765 1.686-93.188 5.97-41.134 6.427-28.65 10.663-82.14 15.146C109.013 78.42 60.79 69.665 0 49.171V.283z"/>
        <path id="b" d="M0 .212h320v43.795c-28.709-6.863-52.375-10.295-71-10.295-27.937 0-44.5 1.307-72.221 10.295C149.058 52.994 115.047 56 81.094 56 58.458 56 31.427 52.002 0 44.007V.212z"/>
    </defs>
    <g fill="none" fill-rule="evenodd">
        <use fill="#E3F4F8" transform="rotate(180 160 38.142)" xlink:href="#a"/>
        <use fill="#88CDDE" transform="rotate(180 160 38.106)" xlink:href="#b"/>
    </g>
</svg>
