<svg xmlns="http://www.w3.org/2000/svg" width="19" height="17" fill="none" viewBox="0 0 19 17">
    <path fill="#3C627B" d="M18.344 2.448c-.037-.243-.082-.49-.134-.74C17.72-.64 13.235.166 11.448.144 9.868.124 10.004.09 8.424.013c-1.046-.05-2.05.054-3.076.102-1.13.053-2.437-.295-3.412.338C1.117.984.211 1.688.058 2.713c-.17 1.134.086 2.323.086 3.462v7.005c0 .902-.405 2.85.337 3.532.461.424.696.347 1.094-.017.2-.184 1.267-1.031 1.267-1.272.519-.518 1.036-1.476 1.729-1.764.483-.2 1.17-.023 1.683-.017 2.582.027 5.216-.005 7.786-.313 1.032-.124 2.8.33 3.524-.641.215-.29.267-.665.304-1.023.177-1.696.302-3.352.506-5.042.176-1.459.187-2.778-.03-4.175zM4.134 6.73c0-.183 0-.366.11-.514.108-.2 1.278-.057 1.562-.057h1.599c.506 0 1.197-.122 1.677.078.54.226.224 1.067-.221 1.198-1.112.328-.955.121-2.104.107a24.144 24.144 0 0 0-.304-.002H5.417c-.276 0-.566.024-.841 0-.453-.04-.443-.166-.443-.664V6.73zm7.447 3.815c-1.111.328-2.387.121-3.535.107a23.72 23.72 0 0 0-.303-.002H5.418c-.277 0-.566.024-.842 0-.453-.04-.443-.166-.443-.664V9.84c0-.183 0-.366.111-.514.108-.2 1.278-.057 1.562-.057h4.319c.506 0 1.197-.122 1.678.078.539.226.223 1.067-.222 1.198zm0-6.223c-1.111.328-2.387.12-3.535.107a24.093 24.093 0 0 0-.303-.002H5.418c-.277 0-.566.024-.842 0-.453-.04-.443-.166-.443-.664v-.146c0-.183 0-.366.111-.515.108-.2 1.278-.056 1.562-.056h4.319c.506 0 1.197-.122 1.678.078.539.225.223 1.066-.222 1.198z"/>
</svg>
