<svg xmlns="http://www.w3.org/2000/svg" width="19" height="18" fill="none" viewBox="0 0 19 18">
    <path stroke="#3C627B" stroke-linejoin="round" stroke-width="1.5" d="M1.355 6.66l5.223-.21a.78.78 0 0 0 .763-.542l1.475-4.635A.74.74 0 0 1 9.483.78a.56.56 0 0 1 .347.09c.084.059.18.166.24.375l.004.012 1.477 4.852c.1.328.402.552.745.552h5.064a.782.782 0 0 0 .11-.007c.193-.028.296.017.353.056a.437.437 0 0 1 .162.24c.078.258-.02.488-.182.585a.783.783 0 0 0-.066.045l-4.22 3.164a.779.779 0 0 0-.265.89l1.676 4.612c.112.424-.046.716-.232.858-.188.144-.424.164-.648-.015a.836.836 0 0 0-.04-.03l-4.221-2.955a.779.779 0 0 0-.909.012L4.87 17.07a.55.55 0 0 0-.024.018c-.436.348-1.068-.074-.885-.622a.801.801 0 0 0 .008-.028l1.478-5.064a.779.779 0 0 0-.308-.861L1.13 7.769l-.008-.005c-.345-.23-.38-.508-.319-.71a.534.534 0 0 1 .552-.395z"/>
</svg>
