<svg xmlns="http://www.w3.org/2000/svg" width="18" height="20" fill="none" viewBox="0 0 18 20">
    <path fill="#3C627B" d="M11.57 7.437a2.11 2.11 0 0 0-.086-.05l.002-.004-.069-.043c-.31-.19-.829-.511-1.29-.4a.772.772 0 0 0-.484.362c-.244.397-.025.961.337 1.202.149.098.377.163.597.222.037.01.068.018.059.013.442.22.324 1.123.201 1.563a33.87 33.87 0 0 0-.219.758l-.23.458c-.098.193-.184.365-.207.408l-.033.067c-.066.132-.159.32-.183.36-.135.185-.268.37-.401.557-.345.482-.701.981-1.094 1.43-.28.324-.788.903-.834.952-1.123 1.181-1.577 1.507-3.128 1.747-.818.127-1.666-.097-2.11-.556-.31-.321-.418-.741-.321-1.25.08-.42.332-.811.584-1.175.363-.525.77-1.062 1.29-1.441.07-.052.143-.101.217-.15.24-.162.488-.33.682-.582.304-.396.383-1.03-.01-1.404-.375-.36-.98-.317-1.616.112C1.73 11.6.157 13.433.011 15.258c-.084 1.057.297 1.99 1.134 2.772.265.249 1.215.92 1.773.958.104.009.232.012.365.012.2 0 .408-.007.556-.012.072-.002.13.001.142-.004 1.239.08 2.197-.404 3.213-.915l.134-.068c.376-.188.516-.444.58-.61.414-.225.68-.606.94-.974.129-.185.251-.36.385-.505l.105-.113c.05-.055.1-.11.132-.143.394-.45.774-.917 1.142-1.369l.145-.178c.244-.294.569-.927.573-.936.08-.163.243-.453.305-.562l.025-.046c.082-.152.207-.39.303-.571l.128-.242c.64-1.174.649-2.125.457-3.279-.082-.497-.778-.924-.978-1.036z"/>
    <path fill="#3C627B" d="M17.282 2.545l-.014-.04c-.098-.627-.302-1.027-.62-1.4l.028-.031a7.467 7.467 0 0 1-.255-.245c-.366-.362-.78-.772-1.396-.824-.416-.032-1.068.096-1.418.166a.608.608 0 0 0-.109.025c-1.363 0-2.59 1.254-3.485 2.17-.159.162-.309.316-.449.451-.403.389-.824.773-1.188 1.102-.102.098-.302.29-.343.325C6.764 5.385 5.576 7.48 5.761 9.277c.075.722.168.878.356 1.137.082.113.176.243.307.517.086.18.267.381.445.571l.067.072c.247.448 1.063 1.028 1.703 1.028a.914.914 0 0 0 .208-.023c.178-.042.595-.213.598-.89.003-.632-.582-.91-1.008-1.113-.087-.041-.17-.08-.24-.119-.648-1.415-.465-2.396.124-3.793.197-.464.893-1.292.982-1.386l.207-.182c.265-.23.538-.47.791-.734.266-.28.796-.833.834-.872.386-.387.605-.602.639-.631l.207-.149c.258-.187.501-.364.775-.48l.114-.05c.268-.114.81-.345.945-.394.093-.01.19-.024.29-.039.389-.058.656-.085.827.065.152.133.293.339.43.538.076.112.15.22.223.313.051.067.13.287.15.374-.003.628-.11.879-.366 1.473-.052.121-.109.255-.173.41a4.327 4.327 0 0 1-.18.36l-.086.092c-.252.27-.633.676-.61 1.123.01.208.106.396.28.546.16.138.351.199.55.176.483-.055.872-.586 1.103-.903l.073-.097c.09-.122.198-.321.269-.453.02-.039.037-.069.042-.077.384-.575.77-1.188.883-1.805.067-.376-.092-.912-.238-1.337z"/>
</svg>
