<svg width="21" height="19" viewBox="0 0 21 19" fill="none" xmlns="http://www.w3.org/2000/svg">
<path d="M1.02719 10.4009C1.05482 11.1474 1.08343 11.9194 1.0614 12.6735V12.6784C1.0614 13.3211 1.15513 13.9782 1.24624 14.614C1.26827 14.7686 1.28998 14.9205 1.30938 15.0685L1.3255 15.1205C1.3597 15.1879 1.39325 15.2813 1.40772 15.3231C1.41167 15.3912 1.42811 15.4642 1.44193 15.5237C1.44883 15.5526 1.45508 15.5776 1.4564 15.5891L1.46462 15.6411C1.82213 16.7136 3.14231 17.9634 4.37368 18.0305C6.10267 18.1249 7.85304 18.093 9.54652 18.0637C10.9808 18.0381 7.69172 18.0077 9.14904 18.0587L9.28751 18.0636C10.6182 18.1116 12.4445 18.1767 13.3611 16.9161C14.2169 15.7396 14.2791 14.9736 14.3225 13.6104C14.3241 13.5561 14.3297 13.4732 14.3366 13.3703C14.4129 12.2372 14.4452 11.0147 13.8594 10.8519C13.6844 10.8046 13.5118 10.8289 13.3608 10.9253C13.0605 11.1177 12.8898 11.5748 12.8352 11.9074C12.7813 12.2363 12.802 12.4506 12.8352 12.8279C12.8787 13.3252 12.8721 13.6043 12.7737 13.9697C12.5 14.9871 12.4849 15.9169 10.7861 15.8241C10.274 15.7962 9.79055 15.7699 9.38667 15.7699C8.50294 15.7699 7.61953 15.7834 6.73612 15.7968L5.71885 15.812C4.67692 15.8284 4.60654 15.8284 3.76654 15.2723C3.68235 15.1881 3.5054 15.0434 3.43601 14.9871C3.35214 14.8187 3.26696 14.6474 3.2219 14.5198C3.21335 14.3675 3.14526 14.1448 3.12224 14.0738C3.11007 13.9192 3.09527 13.7649 3.08014 13.6104C3.03541 13.144 2.99463 13.0511 3.03081 12.5712C3.03081 12.2769 3.03081 11.9437 3.08014 11.6339C3.08014 11.5457 3.05318 11.4385 3.03574 11.3793C3.09231 11.0807 3.05383 10.7695 3.0193 10.4933C2.99957 10.3361 2.98148 10.1874 2.98148 10.0555C2.98148 8.51992 3.03607 6.93991 3.07982 5.67499C3.09593 5.42108 3.10152 5.20697 3.10678 5.00996C3.10678 4.69702 3.10678 4.69702 3.22464 4.39132C3.22464 4.27456 3.23648 4.16899 3.248 4.06407C3.25984 3.95849 3.27102 3.85226 3.27332 3.73715C3.31509 3.64012 3.35094 3.5089 3.36344 3.46088C3.39041 3.40201 3.40422 3.34642 3.41672 3.29676C3.42527 3.26091 3.43349 3.22901 3.44533 3.20039C3.48184 3.15731 3.60587 3.09137 3.62561 3.05618C4.37515 2.51087 5.34535 2.41006 6.04129 2.35678C7.03158 2.28147 8.06365 2.30745 9.0625 2.33212C9.56965 2.34494 10.0748 2.35744 10.5748 2.35744L9.41359 2.35399C9.556 2.35399 9.72077 2.34478 9.89738 2.33459C10.5621 2.29742 11.3909 2.24973 11.7148 2.67466C12.0556 3.1213 12.0617 3.32389 12.0637 4.00865C12.0643 4.23855 12.065 4.45562 12.0768 4.64506C12.0913 4.87397 12.0834 5.1088 12.0752 5.35711C12.0623 5.73731 12.0492 6.131 12.1229 6.50462C12.1962 6.8789 12.4564 7.13939 12.8181 7.20155C13.2207 7.26963 13.6447 7.07887 13.8476 6.73518C14.1659 6.19612 14.085 5.36468 14.0199 4.69702C14.0054 4.54705 13.9916 4.40562 13.9837 4.279C13.9673 4.01885 13.9814 3.76001 13.9962 3.48604C14.0156 3.13379 14.0351 2.76905 13.9841 2.40595C13.938 2.07739 13.8417 1.8271 13.7012 1.52978L13.6736 1.47058C13.4894 1.07723 13.3588 0.814769 13.2753 0.72235C13.1368 0.568756 12.9484 0.496071 12.7826 0.440488C11.9752 0.166191 11.1313 0.0935059 10.2854 0.0935059C9.80254 0.0935059 9.31941 0.117186 8.84219 0.140537C8.37911 0.163231 7.90026 0.186911 7.43948 0.186911L6.43584 0.190361C6.15464 0.190361 5.87672 0.179179 5.60341 0.168326C4.26219 0.115374 2.99628 0.0643954 1.97671 1.33984C1.87179 1.49738 1.8195 1.60164 1.76918 1.70261L1.63203 1.97691C1.52349 2.09696 1.46034 2.26601 1.45607 2.44723L1.43206 2.55017C1.29195 3.15435 1.15974 3.72498 1.15974 4.39132L1.16007 5.81674C1.15776 5.83713 1.13869 5.9085 1.11895 5.96737L1.11073 6.01901C1.11073 6.28278 1.08606 6.54195 1.06238 6.7929C1.03772 7.05141 1.01239 7.31912 1.01272 7.58882C0.958125 8.54031 0.993316 9.4862 1.02719 10.4009Z" fill="#3C627B"/>
<path d="M16.7772 7.72098C16.4055 7.86635 15.9648 7.87227 15.5389 7.87786C15.4323 7.87917 15.3271 7.88049 15.2255 7.88411C14.6502 7.90384 14.0651 7.89134 13.4984 7.8795C12.8916 7.86635 12.2878 7.86832 11.6665 7.84859C11.139 7.83214 10.593 7.81504 10.0694 7.86865C9.63099 7.91272 8.71305 8.39981 8.60911 8.94972C8.57919 9.10792 8.59497 9.40787 9.03733 9.63448C9.07483 9.65388 9.11561 9.67197 9.16067 9.69006C9.64611 9.87983 10.3095 9.82556 10.8943 9.77754C11.1232 9.7588 11.3396 9.74137 11.5251 9.73972L12.0566 9.73512C13.2574 9.72492 14.4582 9.71473 15.6586 9.71473C15.8658 9.71473 16.072 9.71867 16.2786 9.73874C16.4075 9.75189 16.5358 9.76439 16.6647 9.76439C16.6795 9.76439 16.6953 9.76307 16.7117 9.76077C16.668 9.86108 16.6236 9.97061 16.5782 10.0854C16.3779 10.5863 14.8962 11.9502 15.8629 12.3985C16.6723 12.7741 17.1314 12.1581 17.6214 11.6203C17.7241 11.5072 17.806 11.4181 17.8579 11.3658C18.1306 11.0931 18.4128 10.8244 18.6953 10.5557C19.1916 10.0834 19.7043 9.59534 20.1654 9.08292C20.7137 8.47348 20.2894 8.08637 19.9484 7.77524C19.8839 7.71604 19.8168 7.6552 19.7514 7.59007L18.2911 6.12979C18.1043 5.94298 17.9181 5.75518 17.732 5.56738C17.3587 5.1908 16.985 4.81422 16.6055 4.44421C16.3868 4.23109 16.0431 4.03079 15.7418 4.10118C15.6132 4.13209 15.4409 4.22517 15.3481 4.49651C15.2038 4.91749 15.605 5.74597 15.757 6.00317C15.8763 6.20445 16.1467 6.41001 16.4328 6.62708C16.7588 6.87506 17.2057 7.21415 17.1768 7.42135C17.1623 7.51936 17.0209 7.62593 16.7772 7.72098Z" fill="#3C627B"/>
</svg>
