<svg xmlns="http://www.w3.org/2000/svg" width="18" height="18" fill="none" viewBox="0 0 18 18">
    <path fill="#3C627B" d="M.001 17.154c.012.536.126.846.67.846.109 0 .237-.01.389-.023l.048-.004c1.067-.086 2.393-.193 3.316-.883.553-.413 1.042-.912 1.516-1.395.466-.475.949-.966 1.49-1.375 1.111-.838 2.14-1.78 3.134-2.69.353-.323.705-.646 1.064-.966.678-.607 1.281-1.269 1.793-1.84.06-.066.13-.136.205-.21.319-.314.716-.705.64-1.185a1.032 1.032 0 0 0-.048-.185c-.155-.434-.584-.843-.963-1.203a6.653 6.653 0 0 1-.403-.403c-.247-.44-.798-1.223-.82-1.253-.094-.143-.237-.38-.237-.38l-.04-.055c-.015-.024-.048-.078-.113-.104l-.13-.129c-.096-.072-.168-.131-.245-.194a2.29 2.29 0 0 0-.214-.16.8.8 0 0 0-.314-.065v.004c-.084-.012-.17.028-.235.072l-.024.016a.54.54 0 0 0-.368.074.701.701 0 0 0-.222.136.351.351 0 0 0-.135.084l-.652.652a.888.888 0 0 0-.25.18c-.042.04-.086.08-.146.121-.158.123-.316.24-.472.355-.278.205-.541.399-.797.623-.809.779-1.534 1.623-2.236 2.44l-.369.425-.055.036a1.804 1.804 0 0 1-.151.115c-.412.205-.715.51-.999.794l-.158.134c-.6.505-1.345 1.134-1.833 1.711-.106.106-.219.211-.332.316-.403.375-.82.762-1.04 1.285-.204.483-.174 1.013-.146 1.527.01.17.02.337.02.499 0 .35-.035.707-.07 1.053-.037.393-.076.799-.068 1.204zM15.295 6.13c.145 0 .297-.037.45-.107.752-.346 1.404-1.108 1.726-1.53.225-.296.24-.547.226-.754a3.457 3.457 0 0 0-.036-.276c-.021-.138-.044-.28-.044-.438 0-.094-.016-.183-.03-.26-.01-.048-.018-.091-.018-.127a.506.506 0 0 0-.053-.19 1.533 1.533 0 0 0-.575-1.035 4.67 4.67 0 0 0-.379-.331c-.265-.303-.59-.632-1.002-.806l.004-.016-.228-.062C14.95.094 14.574 0 14.2 0c-.403 0-.732.112-.982.326a3.233 3.233 0 0 0-1.167 1.167l-.014.031c-.03.086-.042.171-.048.243a.777.777 0 0 0-.154.437c0 .115.066.235.124.34l.038.07.137.149c.02.08.066.15.104.207.018.026.036.053.049.08l.03.04c.02.02.051.073.067.104.06.121.236.259.265.277.46.511.91 1.066 1.25 1.491.07.087.138.18.207.274.306.418.653.893 1.19.894z"/>
</svg>
