<?xml version="1.0" encoding="UTF-8"?>
<svg width="26px" height="21px" viewBox="0 0 26 21" version="1.1" xmlns="http://www.w3.org/2000/svg" xmlns:xlink="http://www.w3.org/1999/xlink">
    <!-- Generator: Sketch 52.5 (67469) - http://www.bohemiancoding.com/sketch -->
    <title>Group Copy</title>
    <desc>Created with Sketch.</desc>
    <g id="Page-1" stroke="none" stroke-width="1" fill="none" fill-rule="evenodd">
        <g id="Group-Copy" fill="#3C627B">
            <path d="M9.93593537,4.08602082 C9.57103156,4.06704414 9.26227372,4.04963327 9.07302496,4.04055629 C8.90825185,4.03275293 8.74074347,4.02886 8.56043795,4.02886 C8.05424508,4.02886 7.55658658,4.05915487 7.02938189,4.0912606 C6.76440747,4.10746219 6.49974388,4.12366377 6.23294003,4.13596368 C6.13730342,4.14046023 6.04136487,4.14226235 5.94390771,4.14226235 C5.68502547,4.14226235 5.42918933,4.12876395 5.18005814,4.11556298 C4.94066911,4.10295689 4.71833109,4.09096316 4.50086859,4.09096316 C4.00625619,4.09096316 3.68859238,4.15786032 3.45407888,4.30787371 C2.82179736,4.71230099 2.17794424,5.20643187 2.08718316,5.80526944 C2.00190592,6.36750472 2.08261846,6.98165156 2.13713728,7.63149088 C2.17215401,8.04971401 2.26718673,8.48204791 2.26718673,8.91857218 L2.26718673,15.4860058 C2.26718673,15.7208939 2.18342366,15.9960234 2.15906381,16.2870746 C2.12677346,16.6719934 2.18768641,16.6719934 2.18768641,17.0696353 C2.21296985,17.0482898 2.12982843,17.1146009 2.26718673,17 C2.35875892,16.9235994 2.47240432,16.7569328 2.60812292,16.5 C2.76300442,16.28463 2.89363011,16.1179633 3,16 C3.90171994,15 3.90171994,15 5.16098535,14.4730099 C5.42046665,14.3644196 5.81554991,14.4198669 6.16367463,14.4198669 C6.39758425,14.4198669 6.62600557,14.4426996 6.82762484,14.4628203 C6.97595084,14.4777797 7.11635522,14.4916018 7.22234676,14.4928265 C7.64690795,14.4972881 8.07299662,14.5 8.5,14.5 C8.68959514,14.5 9.23574749,14.4855428 9.933902,14.4609781 L9.93348696,16.5786576 C9.02485108,16.6109792 8.30506493,16.6293 8.07786995,16.6293 C7.59361995,16.6293 7.11073995,16.6262 6.62888995,16.6211 C6.27633995,16.6173 5.84764995,16.5377 5.44844995,16.5377 C5.22518995,16.5377 5.01324995,16.5624 4.82770995,16.6396 C4.08555995,16.9479 3.53477995,17.9744 2.97919995,18.5299 C2.97919995,18.7878 1.84402995,19.6963 1.62933995,19.8928 C1.40333995,20.0996 1.24317995,20.22 1.05352995,20.22 C0.885136946,20.22 0.739382946,20.1247 0.506518946,19.9107 C-0.288100054,19.1795 0.211579946,17.0923 0.211579946,16.1252 C0.211579946,13.623 0.211579946,11.12046 0.211579946,8.61828 C0.211579946,7.39772 -0.128285054,6.12262 0.0534792459,4.90754 C0.217409946,3.80907 1.12279995,3.05458 2.00041995,2.484934 C2.51792995,2.148841 3.12220995,2.0709906 3.74775995,2.0709906 C4.28961995,2.0709906 4.84794995,2.129635 5.37883995,2.129635 C5.47245995,2.129635 5.56539995,2.127921 5.65730995,2.123462 C6.55035995,2.081965 7.42796995,2 8.32684995,2 C8.53467995,2 8.74352995,2.00445812 8.95410995,2.0147467 C9.13864454,2.0237209 9.49570504,2.04524735 9.93633072,2.06883606 L9.93593537,4.08602082 Z M16.0014064,14.4683842 C17.4649192,14.4163118 19.3693965,14.3630978 20.1623563,14.2727855 C20.3261807,14.2540701 20.504866,14.2454258 20.7251266,14.2454258 C20.8980622,14.2454258 21.0807281,14.2508809 21.2679055,14.2566718 C21.4444678,14.2621269 21.6255415,14.2679178 21.8057306,14.2679178 C22.4085725,14.2679178 22.7607241,14.1924688 22.8824425,14.0376265 C22.9506436,13.950428 22.9807194,13.6758241 22.9952265,13.5439773 C23.0595355,12.9582619 23.116591,12.3777499 23.1736465,11.7986646 C23.2634314,10.8848177 23.356224,9.9395995 23.4767039,8.99496876 C23.6438897,7.68364276 23.6362823,6.59826073 23.4527317,5.47545636 C23.419383,5.27139175 23.3793115,5.06214054 23.3334902,4.85404751 C23.2130988,4.30660212 22.3217951,4.0288594 20.6835513,4.0288594 C20.1232578,4.0288594 19.5483687,4.06051606 19.0408847,4.08843804 C18.6161089,4.11175252 18.21504,4.13390882 17.8837644,4.13390882 L17.8024715,4.13333813 C17.2552575,4.12690167 16.5801492,4.1176511 16.0084353,4.09160682 L16.0098201,2.04715082 C16.6511972,2.08069012 17.4387278,2.11612677 18.1267358,2.1244914 C18.1528358,2.1248344 18.1792358,2.1248344 18.2063358,2.1248344 C18.9800358,2.1248344 20.1752358,2 21.3714358,2 C23.2144358,2 25.0609358,2.2966534 25.3743358,3.8025594 C25.4299358,4.0700594 25.4779358,4.3337894 25.5184358,4.5951194 C25.7505358,6.0924394 25.7389358,7.5060894 25.5496358,9.0696094 C25.3308358,10.8803894 25.1967358,12.6558494 25.0074358,14.4731494 C24.9672358,14.8572494 24.9120358,15.2595494 24.6816358,15.5692494 C24.2436358,16.1577494 23.4480358,16.2582494 22.6393358,16.2582494 C22.2198358,16.2582494 21.7966358,16.2311494 21.4180358,16.2311494 C21.2345358,16.2311494 21.0617358,16.2372494 20.9046358,16.2561494 C19.8729246,16.3799874 17.6577376,16.4844195 16,16.544685 L16.0014064,14.4683842 Z" id="Shape" fill-rule="nonzero"></path>
            <path d="M14.5159807,1.21716152 C14.3015019,1.10451742 14.1342918,1.04819537 14.0143503,1.04819537 C13.7950251,1.04819537 13.568989,1.06250231 13.3808381,1.06250231 C13.2784261,1.06250231 13.227984,1.06250231 13.2039499,1.06250231 C13.2037352,1.06250231 13.1981039,1.06250231 13.1840319,1.06250231 C13.1599977,1.06250231 13.1095493,1.06250231 13.0069227,1.06250231 C12.4803679,1.06250231 12.8259246,1.06250231 12.2991489,1.06250231 C12.1861308,1.06250231 11.864179,1.03234387 11.6041529,1.03234387 C11.4233631,1.03234387 11.2726745,1.07680924 11.2427944,1.17578528 C11.1676678,1.35558592 11.1676678,1.59182511 11.1676678,1.8126074 C11.1676678,1.8126074 11.1676678,1.94522559 11.1676678,1.98930764 C11.1676678,2.59093177 11.160957,2.74365183 11.4671007,2.79160092 C11.529241,2.80126289 11.5924609,2.71349339 11.6561164,2.71349339 C11.7832065,2.71349339 11.9118117,2.60948907 12.0367427,2.60948907 C12.5611321,2.60948907 12.2131953,2.60948907 12.7375847,2.60948907 C12.8060003,2.60948907 12.8744223,2.70150894 12.9430525,2.7030535 C13.381703,2.71272675 13.5039075,2.7030535 13.6929169,2.7030535 C13.8388454,2.7030535 14.0085745,2.79160092 14.3661696,2.64235331 C14.6045664,2.5428549 14.6545034,2.06779098 14.5159807,1.21716152 Z" id="Path-Copy" transform="translate(12.880000, 1.912344) scale(-1, -1) rotate(-90.000000) translate(-12.880000, -1.912344) "></path>
            <path d="M14.5159807,6.21716152 C14.3015019,6.10451742 14.1342918,6.04819537 14.0143503,6.04819537 C13.7950251,6.04819537 13.568989,6.06250231 13.3808381,6.06250231 C13.2784261,6.06250231 13.227984,6.06250231 13.2039499,6.06250231 C13.2037352,6.06250231 13.1981039,6.06250231 13.1840319,6.06250231 C13.1599977,6.06250231 13.1095493,6.06250231 13.0069227,6.06250231 C12.4803679,6.06250231 12.8259246,6.06250231 12.2991489,6.06250231 C12.1861308,6.06250231 11.864179,6.03234387 11.6041529,6.03234387 C11.4233631,6.03234387 11.2726745,6.07680924 11.2427944,6.17578528 C11.1676678,6.35558592 11.1676678,6.59182511 11.1676678,6.8126074 C11.1676678,6.8126074 11.1676678,6.94522559 11.1676678,6.98930764 C11.1676678,7.59093177 11.160957,7.74365183 11.4671007,7.79160092 C11.529241,7.80126289 11.5924609,7.71349339 11.6561164,7.71349339 C11.7832065,7.71349339 11.9118117,7.60948907 12.0367427,7.60948907 C12.5611321,7.60948907 12.2131953,7.60948907 12.7375847,7.60948907 C12.8060003,7.60948907 12.8744223,7.70150894 12.9430525,7.7030535 C13.381703,7.71272675 13.5039075,7.7030535 13.6929169,7.7030535 C13.8388454,7.7030535 14.0085745,7.79160092 14.3661696,7.64235331 C14.6045664,7.5428549 14.6545034,7.06779098 14.5159807,6.21716152 Z" id="Path-Copy-2" transform="translate(12.880000, 6.912344) scale(-1, -1) rotate(-90.000000) translate(-12.880000, -6.912344) "></path>
            <path d="M14.5159807,11.2171615 C14.3015019,11.1045174 14.1342918,11.0481954 14.0143503,11.0481954 C13.7950251,11.0481954 13.568989,11.0625023 13.3808381,11.0625023 C13.2784261,11.0625023 13.227984,11.0625023 13.2039499,11.0625023 C13.2037352,11.0625023 13.1981039,11.0625023 13.1840319,11.0625023 C13.1599977,11.0625023 13.1095493,11.0625023 13.0069227,11.0625023 C12.4803679,11.0625023 12.8259246,11.0625023 12.2991489,11.0625023 C12.1861308,11.0625023 11.864179,11.0323439 11.6041529,11.0323439 C11.4233631,11.0323439 11.2726745,11.0768092 11.2427944,11.1757853 C11.1676678,11.3555859 11.1676678,11.5918251 11.1676678,11.8126074 C11.1676678,11.8126074 11.1676678,11.9452256 11.1676678,11.9893076 C11.1676678,12.5909318 11.160957,12.7436518 11.4671007,12.7916009 C11.529241,12.8012629 11.5924609,12.7134934 11.6561164,12.7134934 C11.7832065,12.7134934 11.9118117,12.6094891 12.0367427,12.6094891 C12.5611321,12.6094891 12.2131953,12.6094891 12.7375847,12.6094891 C12.8060003,12.6094891 12.8744223,12.7015089 12.9430525,12.7030535 C13.381703,12.7127267 13.5039075,12.7030535 13.6929169,12.7030535 C13.8388454,12.7030535 14.0085745,12.7916009 14.3661696,12.6423533 C14.6045664,12.5428549 14.6545034,12.067791 14.5159807,11.2171615 Z" id="Path-Copy-4" transform="translate(12.880000, 11.912344) scale(-1, -1) rotate(-90.000000) translate(-12.880000, -11.912344) "></path>
            <path d="M14.5159807,16.2171615 C14.3015019,16.1045174 14.1342918,16.0481954 14.0143503,16.0481954 C13.7950251,16.0481954 13.568989,16.0625023 13.3808381,16.0625023 C13.2784261,16.0625023 13.227984,16.0625023 13.2039499,16.0625023 C13.2037352,16.0625023 13.1981039,16.0625023 13.1840319,16.0625023 C13.1599977,16.0625023 13.1095493,16.0625023 13.0069227,16.0625023 C12.4803679,16.0625023 12.8259246,16.0625023 12.2991489,16.0625023 C12.1861308,16.0625023 11.864179,16.0323439 11.6041529,16.0323439 C11.4233631,16.0323439 11.2726745,16.0768092 11.2427944,16.1757853 C11.1676678,16.3555859 11.1676678,16.5918251 11.1676678,16.8126074 C11.1676678,16.8126074 11.1676678,16.9452256 11.1676678,16.9893076 C11.1676678,17.5909318 11.160957,17.7436518 11.4671007,17.7916009 C11.529241,17.8012629 11.5924609,17.7134934 11.6561164,17.7134934 C11.7832065,17.7134934 11.9118117,17.6094891 12.0367427,17.6094891 C12.5611321,17.6094891 12.2131953,17.6094891 12.7375847,17.6094891 C12.8060003,17.6094891 12.8744223,17.7015089 12.9430525,17.7030535 C13.381703,17.7127267 13.5039075,17.7030535 13.6929169,17.7030535 C13.8388454,17.7030535 14.0085745,17.7916009 14.3661696,17.6423533 C14.6045664,17.5428549 14.6545034,17.067791 14.5159807,16.2171615 Z" id="Path-Copy-3" transform="translate(12.880000, 16.912344) scale(-1, -1) rotate(-90.000000) translate(-12.880000, -16.912344) "></path>
        </g>
    </g>
</svg>