<svg xmlns="http://www.w3.org/2000/svg" width="19" height="16" fill="none" viewBox="0 0 19 16">
    <path fill="#3C627B" d="M18.777 12.959l-.034-.086c-.104-.304-.234-.61-.313-.791-.033-.08-.058-.136-.075-.182-.072-.144-.154-.476-.18-.588-.279-1.444-.561-2.654-1.423-3.971-.308-.514-.56-.858-.992-1.192-.118-.119-.462-.382-.655-.46a4.588 4.588 0 0 0-.542-.39c-.34-.189-.691-.371-1.074-.557a.608.608 0 0 0-.18-.166l-.031-.015a.727.727 0 0 0-.248-.029l-.114-.053a5.459 5.459 0 0 0-.258-.115.527.527 0 0 0-.158-.062 13.41 13.41 0 0 0-1.903-.616c-.082-.017-.159-.04-.233-.061-.147-.043-.298-.088-.476-.088l-.202.003c-.364.007-1.041.021-1.26-.13-.154-.107-.154-.438-.154-.68 0-.075 0-.145-.004-.205-.027-.456-.058-.972-.05-1.474.004-.287-.02-.694-.276-.909-.154-.13-.364-.171-.623-.122-.649.122-1.011.662-1.331 1.138-.16.238-.31.461-.485.633a47.525 47.525 0 0 0-1.977 2.041 24.74 24.74 0 0 1-.649.676c-.348.353-.707.72-1.004 1.075-.1.128-.203.273-.311.423-.25.35-.535.745-.837 1.014-.047.047-.097.094-.147.141-.162.153-.33.31-.45.505-.122.14-.128.386-.128.436 0 .426.38.748.716 1.031.131.111.255.217.342.315.109.124.214.252.32.379.133.161.267.322.408.478.023.026.06.071.105.127.313.385.521.61.695.67.58.747 1.294 1.367 1.984 1.967.152.133.304.265.454.398.059.052.133.122.22.203.581.543 1.63 1.523 2.427 1.523a.883.883 0 0 0 .156-.013c.262-.047.464-.21.6-.486.316-.632.478-1.397.484-2.272.004-.596-.071-1.2-.138-1.734-.019-.15-.045-.872-.01-1.069l.132-.066a.56.56 0 0 0 .157-.126c.781-.127 1.61-.219 2.393-.055.504.126 1.112.346 1.721.622.47.188 1.18.565 1.444.723.213.098.426.191.639.285.18.078.358.157.538.238l.037.027c.07.052.14.103.2.151.44.378.733.98 1.017 1.563.135.276.261.536.4.766l.034.062c.191.338.549.968 1.15.726.625-.341.317-1.145.152-1.576zm-5.57-4.698l.055-.02a.356.356 0 0 0 .061-.027h.034c.054.048.112.093.154.123 0 .004 0 .008.002.012a7.699 7.699 0 0 0-.307-.088z"/>
</svg>
