<svg xmlns="http://www.w3.org/2000/svg" width="18" height="18" fill="none" viewBox="0 0 18 18">
    <path fill="#F7715D" d="M16.985 12.941c-.433-.398-1.005-.712-1.394-1.054-.864-.757-2.491-1.864-2.736-3.06-.163-.793.425-1.356.948-1.85a10.896 10.896 0 0 0 1.583-1.86c.952-1.39 1.11-2.816-.493-3.778-.686-.41-1.757-.914-2.556-.587-.684.28-1.383 1.052-1.871 1.606-.486.551-1.31 1.79-1.968 2.089-.76.344-1.632-.938-2.173-1.434-.9-.826-2.588-3.553-4.078-2.918a1.72 1.72 0 0 0-.532.375 2.414 2.414 0 0 0-.18.202 1.1 1.1 0 0 0-.269.302c-.333.083-.518.608-.568.923a1.961 1.961 0 0 0-.258.635C.12 3.184-.233 4.13.205 5.008l.681.71c.1.1.26.177.39.228.462.561.993 1.052 1.505 1.528.265.246.535.492.828.78.23.18.49.392.778.655-.586.66-1.055 1.407-1.707 1.963-.985.841-1.085 1.76-1.674 2.794C.4 14.732-.419 15.793.689 16.901c2.043 2.043 4.412.968 5.864-1.025.565-.776 1.283-2.477 2.343-2.644.658-.103 1.19.671 1.615 1.077.721.686 1.438 1.398 2.2 2.04l.17.163c.983.947 2.04-.017 2.876-.621.761-.55 2.051-.744 1.814-2.009-.07-.373-.297-.675-.586-.94z"/>
</svg>
