<svg xmlns="http://www.w3.org/2000/svg" width="22" height="21" fill="none" viewBox="0 0 22 21">
    <path fill="#E0F0F1" d="M21.582 2.88a17.239 17.239 0 0 0-.159-.87C20.849-.753 15.57.194 13.469.168 11.61.146 11.768.106 9.91.016c-1.23-.06-2.412.063-3.619.12-1.33.062-2.867-.348-4.014.397-.963.625-2.03 1.453-2.21 2.659C-.13 4.526.17 5.925.17 7.265v8.24c0 1.062-.476 3.353.397 4.156.542.5.819.409 1.287-.02.235-.216 1.49-1.213 1.49-1.496.61-.61 1.22-1.737 2.034-2.075.568-.236 1.378-.027 1.981-.02 3.038.031 6.137-.007 9.16-.37 1.214-.145 3.295.39 4.146-.753.253-.34.313-.782.357-1.204.208-1.994.355-3.943.596-5.93.207-1.717.22-3.269-.035-4.913zM4.862 7.917c0-.215 0-.43.131-.605.127-.235 1.504-.066 1.837-.066h1.881c.595 0 1.409-.143 1.974.092.635.265.264 1.254-.26 1.41-1.308.385-1.124.141-2.475.125-.12-.002-.239-.002-.358-.002H6.374c-.326 0-.666.028-.99 0-.533-.047-.521-.196-.521-.782v-.172zm8.762 4.489c-1.307.386-2.807.142-4.158.126l-.357-.003H6.374c-.326 0-.666.029-.99 0-.533-.046-.521-.195-.521-.78v-.173c0-.215 0-.43.13-.605.127-.235 1.504-.066 1.837-.066h5.082c.595 0 1.408-.143 1.973.092.635.265.264 1.254-.26 1.409zm0-7.321c-1.307.386-2.807.142-4.158.125l-.357-.002H6.374c-.326 0-.666.029-.99 0-.533-.047-.521-.195-.521-.781v-.172c0-.215 0-.43.13-.605.127-.236 1.504-.066 1.837-.066h5.082c.595 0 1.408-.144 1.973.092.635.265.264 1.254-.26 1.409z"/>
</svg>
