<svg xmlns="http://www.w3.org/2000/svg" width="54" height="55" viewBox="0 0 54 55">
    <path fill="#72A4B7" fill-rule="evenodd" d="M47.054 45.075l-2.438 2.438a3.124 3.124 0 0 1-4.003.323l-3.308-2.343a21.018 21.018 0 0 1-5.057 2.098l-.714 4.057a3.127 3.127 0 0 1-3.074 2.612h-3.483a3.127 3.127 0 0 1-3.074-2.612l-.714-4.057a21.144 21.144 0 0 1-5.057-2.094l-3.376 2.366a3.127 3.127 0 0 1-4.006-.35l-2.438-2.438a3.126 3.126 0 0 1-.347-4.003l2.367-3.336a21.04 21.04 0 0 1-2.099-5.056l-3.621-.714A3.127 3.127 0 0 1 0 28.89V25.41c.007-1.523.673-2.822 2.176-3.07l4.057-.715c.476-1.771 1.578-4.25 2.493-5.838L6.359 12.41c-.877-1.234-.394-2.281-.071-3.224l2.438-2.438a3.122 3.122 0 0 1 4.003-.35l3.335 2.37a20.903 20.903 0 0 1 5.057-2.098l.714-4.057A3.124 3.124 0 0 1 24.91 0h3.483a3.12 3.12 0 0 1 3.07 2.612l.714 4.057c1.772.476 3.517.894 5.693 2.516l2.744-2.788a3.122 3.122 0 0 1 4.003.35l2.438 2.438a3.122 3.122 0 0 1 .35 4.003l-2.37 2.598c.918 1.585 1.064 4.07 1.54 5.838l4.615.67c.609.045 2.608 1.548 2.612 3.074v3.523c-.004 1.524-2.003 3.03-2.612 3.03-.81.143-1.416.25-1.82.32-.498.088-1.243.22-2.237.394-.078-.67-.668 1.939-.993 2.739-.363.895-.62 1.483-1.102 2.322l2.367 3.376a3.122 3.122 0 0 1-.35 4.003zM17.872 25.839c-.128 1.96.128 5.356 3.08 8.361 2.954 3.005 6.163 3.658 9.758 2.09 3.594-1.567 6.29-4.703 6.29-7.838 0-1.47 0-4.573-1.54-6.794C33.832 19.313 30.995 18 27.242 18c-7.06 0-9.243 5.88-9.371 7.839z"/>
</svg>
