<svg xmlns="http://www.w3.org/2000/svg" width="580" height="121" fill="none" viewBox="0 0 580 121" preserveAspectRatio="none">
    <mask id="a" width="580" height="121" x="0" y="0" maskUnits="userSpaceOnUse">
        <path fill="#fff" d="M0 0h580v120.597H0z"/>
    </mask>
    <g mask="url(#a)">
        <path fill="#7FC1C6" fill-opacity=".99" fill-rule="evenodd" d="M-84.394-105.71H580V42.628s9.045-9.966-65.703 0c-43.887 5.852-98.272 14.049-143.301 27.866-51.7 15.865-140.993 49.821-207.305 49.821-85.527 0-248.085-36.028-248.085-36.028V-105.71z" clip-rule="evenodd" opacity=".243"/>
        <mask id="b" width="666" height="227" x="-85" y="-106" maskUnits="userSpaceOnUse">
            <path fill="#fff" fill-rule="evenodd" d="M-84.394-105.71H580V42.628s9.045-9.966-65.703 0c-43.887 5.852-98.272 14.049-143.301 27.866-51.7 15.865-140.993 49.821-207.305 49.821-85.527 0-248.085-36.028-248.085-36.028V-105.71z" clip-rule="evenodd"/>
        </mask>
        <path fill="#2D3C4A" fill-rule="evenodd" d="M0-105.71h580V69.187s-48.711-11.953-115.547-11.953-93.174 3.46-167.656 11.953c-74.483 8.493-76.748 13.41-150.947 13.41C71.65 82.598 0 69.188 0 69.188V-105.71z" clip-rule="evenodd"/>
        <mask id="c" width="580" height="189" x="0" y="-106" maskUnits="userSpaceOnUse">
            <path fill="#fff" fill-rule="evenodd" d="M0-105.71h580V69.187s-48.711-11.953-115.547-11.953-93.174 3.46-167.656 11.953c-74.483 8.493-76.748 13.41-150.947 13.41C71.65 82.598 0 69.188 0 69.188V-105.71z" clip-rule="evenodd"/>
        </mask>
        <g mask="url(#c)">
            <path fill="#89CEDF" d="M.013-105.71v216.378l582.924-.033V-105.71H.013z"/>
            <path fill="#6AA1A5" d="M384.202 24.442s-3.343 1.324 0 2.509c2.754.974 3.458-1.02 3.458-1.02l2.427 1.32-1.074-1.75 1.078-1.75-2.431 1.437s-1.684-1.442-3.458-.746zM393.036 31.513s-3.339 1.324 0 2.509c2.757.978 3.457-1.02 3.457-1.02l2.427 1.32-1.073-1.75 1.077-1.75-2.431 1.45s-1.68-1.455-3.457-.759zM392.585 16.367s-3.338 1.324 0 2.53c2.754.974 3.458-1.02 3.458-1.02l2.427 1.32-1.073-1.75 1.077-1.755-2.431 1.442s-1.663-1.463-3.458-.767zM396.285 23.944s-3.343 1.324 0 2.505c2.754.978 3.458-1.02 3.458-1.02l2.426 1.324-1.073-1.755 1.078-1.75-2.431 1.434s-1.685-1.433-3.458-.738zM276.308 32.78s3.343 1.324 0 2.505c-2.758.974-3.458-1.02-3.458-1.02l-2.427 1.315 1.074-1.75-1.074-1.75 2.431 1.438s1.68-1.438 3.454-.738zM264.352 24.692s3.344 1.329 0 2.51c-2.757.973-3.457-1.025-3.457-1.025l-2.427 1.32 1.073-1.75-1.073-1.755 2.427 1.442s1.684-1.437 3.457-.742z"/>
            <path fill="#BBE8F4" d="M184.207 47.819c.295-.165.646-.199.967-.093.145.063.123.122.051.523.027.133.064.264.111.392.045.092.101.178.165.257.134.175.305.32.501.422.508.24 1.082.308 1.633.194a.515.515 0 0 0 .39-.304c0-.025.145-.13.268-.282.102-.13.189-.272.258-.422.139-.254.234-.529.28-.814 0 0 .022-.02.047-.025h.238c.547 0 .708.232.356.818-.188.484-.461.93-.806 1.32-.33.269-.725.446-1.145.514a3.33 3.33 0 0 1-.849.051c-.238 0-.474-.036-.7-.11a.345.345 0 0 0-.318 0 .476.476 0 0 1-.267-.354 1.455 1.455 0 0 0-.23-.164 1.215 1.215 0 0 1-.691-.633c-.187-.422-.369-.772-.513-.805-.145-.034-.157-.274.254-.485z"/>
            <path fill="#BBE8F4" d="M188.971 47.823a1.21 1.21 0 0 1 .968-.093c.144.064.127.123.051.523.028.133.065.264.11.392.051.09.108.175.17.258.132.175.301.319.496.421.51.24 1.085.309 1.638.198a.556.556 0 0 0 .39-.303c0-.026.14-.13.263-.287.102-.13.189-.272.259-.422a2.61 2.61 0 0 0 .28-.818s0-.02.046-.02h.255c.547 0 .708.231.356.822-.189.483-.462.93-.806 1.32-.33.266-.725.444-1.145.514a3.777 3.777 0 0 1-.827.05 2.568 2.568 0 0 1-.701-.11.328.328 0 0 0-.318 0 .487.487 0 0 1-.267-.353 1.341 1.341 0 0 0-.229-.17 1.205 1.205 0 0 1-.692-.627c-.186-.422-.364-.776-.513-.81-.148-.034-.195-.274.216-.485z"/>
            <path fill="#BBE8F4" d="M193.736 47.823c.298-.161.648-.195.971-.093.14.068.124.123.047.527.03.133.067.264.11.393.052.087.109.171.17.253.132.177.303.32.501.421.508.24 1.082.308 1.633.194a.525.525 0 0 0 .39-.303c0-.026.14-.131.268-.283.1-.13.186-.272.254-.422.138-.254.234-.529.285-.813 0 0 0-.022.046-.026h.238c.543 0 .708.232.352.818a4.41 4.41 0 0 1-.806 1.32c-.329.27-.725.447-1.146.515-.272.051-.55.068-.827.05a2.175 2.175 0 0 1-.696-.11.353.353 0 0 0-.322 0 .472.472 0 0 1-.263-.354 1.402 1.402 0 0 0-.234-.164 1.218 1.218 0 0 1-.691-.628c-.187-.422-.365-.776-.513-.81-.149-.034-.179-.274.233-.485zM189.985 52.15c.295-.165.646-.2.968-.098.144.068.123.127.051.528.026.133.061.264.106.392.051.087.108.172.169.253.134.175.305.319.501.421a2.631 2.631 0 0 0 1.633.198.533.533 0 0 0 .391-.303c0-.03.144-.135.267-.287a2.41 2.41 0 0 0 .259-.421 2.61 2.61 0 0 0 .28-.819s0-.02.046-.025h.238c.547 0 .709.232.352.822-.186.484-.459.93-.806 1.316a2.457 2.457 0 0 1-1.141.519 3.795 3.795 0 0 1-.827.05 2.314 2.314 0 0 1-.7-.114.347.347 0 0 0-.319 0 .47.47 0 0 1-.267-.354 1.714 1.714 0 0 0-.229-.164 1.205 1.205 0 0 1-.692-.629c-.186-.421-.369-.775-.517-.81-.149-.033-.178-.269.237-.476z"/>
            <path fill="#BBE8F4" d="M194.746 52.15c.294-.166.646-.2.967-.093.144.063.127.122.051.523.026.133.063.264.11.392.048.09.103.176.166.257.135.174.305.318.5.422a2.6 2.6 0 0 0 1.634.193.518.518 0 0 0 .39-.303c0-.025.144-.13.267-.283.102-.13.189-.271.259-.421.139-.255.234-.532.28-.818l.047-.021h.237c.547 0 .709.232.357.818-.189.483-.462.93-.807 1.32a2.424 2.424 0 0 1-1.145.514 3.327 3.327 0 0 1-.827.05 2.393 2.393 0 0 1-.7-.11.347.347 0 0 0-.319 0 .477.477 0 0 1-.267-.353 1.87 1.87 0 0 0-.229-.169 1.185 1.185 0 0 1-.691-.628c-.187-.422-.37-.772-.514-.806-.144-.033-.191-.274.234-.485z"/>
            <path fill="#BBE8F4" d="M204.266 52.095c.316-.135.679-.103.967.084.115.126.115.278-.195.742-.074.184-.16.363-.259.536a3.413 3.413 0 0 1-.237.421c-.219.314-.51.572-.849.75a2.723 2.723 0 0 1-1.294.325 4.258 4.258 0 0 1-.623-.042 3.03 3.03 0 0 1-.543-.168c-.331-.131-.709-.287-.768-.296a.83.83 0 0 1-.191-.13 2.533 2.533 0 0 1-.314-.342 2.58 2.58 0 0 1-.382-.679 3.682 3.682 0 0 1-.212-1.184s0-.034.042-.051a.191.191 0 0 1 .102-.025h.132c.568 0 .657.071.615.636.063.415.296.784.645 1.02.236.219.531.365.848.422.221.041.447.05.67.026.132-.01.261-.036.387-.076l.152-.042a.186.186 0 0 0 .149-.178.367.367 0 0 1 .331 0 .96.96 0 0 0 .161-.143c.058-.22.146-.43.263-.624.191-.278.148-.616 0-.675-.149-.059-.038-.215.403-.307z"/>
            <path fill="#6AA1A5" d="M139.257 66.504s1.417.169 3.254 3.373c2.957 5.132 14.251 2.56 14.251 2.56s4.416-1.18-.794-.797c0 0 4.667.308 4.078-3.576l-15.189-.265s-5.21-.907-2.605-2.978c2.605-2.07.785-3.49.785-3.49l-2.864 2.065s-.784 1.164-.263 1.94c.522.776.132-1.421-1.951-.514a12.819 12.819 0 0 1-3.254 1.033s-.132 2.846 4.552.649z"/>
            <path fill="#BBE8F4" d="M151.751 72.015h-.085c-.403.08-3.797.75-2.677.844 1.385.124 2.776.17 4.166.134a27.626 27.626 0 0 0 4.031-.556s3.173-1.425.097-.915l-5.532.493zM154.814 71.189a.423.423 0 0 0 .425-.422.423.423 0 0 0-.425-.422.423.423 0 0 0-.424.422c0 .233.19.422.424.422zM465.835 19.542a1.21 1.21 0 0 1 .968-.093c.144.063.127.122.051.523.026.133.063.264.11.392.048.091.105.177.17.257.132.175.302.32.496.422a2.61 2.61 0 0 0 1.638.194.534.534 0 0 0 .39-.304c0-.025.14-.13.263-.282.102-.13.189-.272.259-.422.139-.255.234-.531.28-.818 0 0 .021 0 .046-.02h.238c.547 0 .709.231.356.817-.18.492-.447.947-.789 1.345a2.424 2.424 0 0 1-1.145.515 3.32 3.32 0 0 1-.849.05 2.403 2.403 0 0 1-.7-.11.34.34 0 0 0-.318 0 .477.477 0 0 1-.267-.354 1.95 1.95 0 0 0-.229-.168 1.184 1.184 0 0 1-.692-.628c-.186-.422-.369-.772-.513-.806-.144-.034-.174-.3.237-.51z"/>
            <path fill="#BBE8F4" d="M470.6 19.546c.299-.17.656-.206.984-.101.14.067.123.126.047.527.029.133.065.264.11.392.052.088.108.172.17.253.131.176.301.32.496.422.51.239 1.085.308 1.638.198a.547.547 0 0 0 .39-.304c0-.025.14-.13.263-.286.102-.13.189-.272.259-.422a2.61 2.61 0 0 0 .28-.818s.021-.021.051-.025h.233c.547 0 .713.232.356.822a4.367 4.367 0 0 1-.806 1.316c-.329.27-.724.449-1.145.518-.28.049-.565.066-.849.05a2.237 2.237 0 0 1-.695-.113.355.355 0 0 0-.323 0 .464.464 0 0 1-.263-.354 1.442 1.442 0 0 0-.233-.165 1.202 1.202 0 0 1-.692-.628c-.186-.422-.365-.776-.513-.81-.149-.033-.17-.261.242-.472z"/>
            <path fill="#BBE8F4" d="M475.364 19.546c.296-.165.649-.199.972-.093.14.064.123.123.05.523.027.133.062.264.107.392.049.09.106.176.169.258.133.176.304.32.501.421.509.24 1.082.308 1.633.194a.526.526 0 0 0 .391-.303c0-.026.144-.131.267-.283.101-.131.187-.273.259-.422.138-.253.233-.529.28-.813 0 0 0-.021.046-.026h.238c.543 0 .708.232.352.818-.188.484-.461.93-.806 1.32a2.417 2.417 0 0 1-1.141.515 3.33 3.33 0 0 1-.849.05 2.209 2.209 0 0 1-.7-.11.353.353 0 0 0-.322 0 .472.472 0 0 1-.263-.354 1.457 1.457 0 0 0-.234-.164 1.227 1.227 0 0 1-.691-.633c-.187-.421-.365-.771-.514-.805-.148-.034-.157-.274.255-.485zM471.614 23.868a1.24 1.24 0 0 1 .967-.093c.145.068.123.123.051.527.027.134.064.265.11.393.048.089.103.173.166.253.134.175.305.319.501.421.508.24 1.082.308 1.633.194a.515.515 0 0 0 .39-.303c0-.026.145-.131.268-.283.103-.13.19-.271.258-.422.14-.253.234-.528.28-.813 0 0 0-.021.047-.026a.427.427 0 0 1 .106 0h.132c.547 0 .708.232.356.823-.19.481-.462.927-.806 1.315a2.486 2.486 0 0 1-1.146.519c-.28.049-.564.066-.848.05a2.317 2.317 0 0 1-.7-.113.345.345 0 0 0-.318 0 .478.478 0 0 1-.268-.354 1.397 1.397 0 0 0-.229-.165 1.218 1.218 0 0 1-.691-.628c-.187-.422-.369-.776-.514-.81-.144-.034-.157-.27.255-.485z"/>
            <path fill="#BBE8F4" d="M476.378 23.872c.295-.165.646-.198.968-.092.144.063.127.122.051.522.026.134.063.265.11.393.048.09.105.177.17.257.133.174.302.317.496.422a2.642 2.642 0 0 0 1.638.194.547.547 0 0 0 .39-.304c0-.025.14-.13.263-.283.102-.13.189-.271.259-.421.139-.255.233-.532.28-.818a.054.054 0 0 1 .046-.021h.238c.547 0 .708.236.356.822-.188.483-.461.93-.806 1.32-.33.267-.725.444-1.145.514-.273.05-.551.066-.828.05a2.56 2.56 0 0 1-.7-.109.34.34 0 0 0-.318 0 .477.477 0 0 1-.267-.354 1.95 1.95 0 0 0-.229-.169 1.202 1.202 0 0 1-.692-.628c-.186-.422-.369-.776-.513-.81-.144-.033-.178-.274.233-.485z"/>
            <path fill="#BBE8F4" d="M485.894 23.818c.318-.137.683-.105.972.084.11.126.11.274-.2.742-.072.183-.157.36-.254.531a4.06 4.06 0 0 1-.242.422 2.392 2.392 0 0 1-.848.75 2.765 2.765 0 0 1-1.294.325 3.743 3.743 0 0 1-.624-.046 2.822 2.822 0 0 1-.543-.165c-.331-.13-.709-.286-.768-.295a1.417 1.417 0 0 1-.191-.13 2.735 2.735 0 0 1-.696-1.02 3.682 3.682 0 0 1-.212-1.186s0-.033.043-.05a.19.19 0 0 1 .101-.026h.132c.568 0 .657.072.615.637.064.414.298.783.645 1.02.237.218.531.365.848.422a2.336 2.336 0 0 0 1.053-.05l.152-.043a.191.191 0 0 0 .149-.177c.114-.042.136-.054.331 0 .058-.043.112-.09.161-.143.06-.22.15-.43.267-.624.187-.278.145-.616 0-.675-.144-.059-.038-.21.403-.303zM302.954 9.45c.292-.169.643-.21.967-.113.144.063.123.122.059.523.03.133.07.265.119.392.05.088.109.171.174.249.136.176.31.32.509.421a2.66 2.66 0 0 0 1.638.16.538.538 0 0 0 .382-.311c0-.026.14-.135.259-.291.1-.13.184-.272.25-.422.136-.264.225-.55.263-.843l.047-.026h.237c.547 0 .713.216.374.814a4.468 4.468 0 0 1-.781 1.333 2.428 2.428 0 0 1-1.133.54 3.45 3.45 0 0 1-.823.071 2.496 2.496 0 0 1-.704-.097.337.337 0 0 0-.318 0 .46.46 0 0 1-.272-.346 1.613 1.613 0 0 0-.233-.16 1.209 1.209 0 0 1-.709-.615c-.195-.422-.382-.768-.53-.797-.149-.03-.182-.262.225-.481z"/>
            <path fill="#BBE8F4" d="M307.718 9.354c.292-.173.643-.216.968-.118.144.063.123.122.059.527.03.132.07.262.119.388.05.089.109.174.174.253.136.177.31.32.509.422a2.6 2.6 0 0 0 1.638.16.52.52 0 0 0 .381-.312c0-.025.14-.135.259-.287.1-.13.184-.272.251-.422.132-.258.221-.535.263-.822 0 0 .021-.021.046-.025h.238c.547 0 .713.22.373.814-.18.487-.444.94-.78 1.336-.325.274-.715.46-1.133.54a3.648 3.648 0 0 1-.823.068 2.333 2.333 0 0 1-.705-.098.34.34 0 0 0-.318 0 .464.464 0 0 1-.271-.35 1.57 1.57 0 0 0-.234-.16 1.207 1.207 0 0 1-.708-.615c-.195-.422-.382-.764-.53-.797-.149-.034-.183-.291.224-.502z"/>
            <path fill="#BBE8F4" d="M312.482 9.253c.293-.17.643-.211.968-.114.144.063.123.122.059.523.03.133.069.264.119.392a1.6 1.6 0 0 0 .174.249c.135.175.308.319.505.421a2.675 2.675 0 0 0 1.642.16.538.538 0 0 0 .381-.311c0-.026.14-.135.259-.291.1-.13.184-.272.251-.422.135-.264.224-.55.263-.843l.046-.026h.238c.547 0 .713.215.373.814-.18.486-.444.937-.78 1.333a2.432 2.432 0 0 1-1.133.54c-.27.057-.547.08-.823.067a2.418 2.418 0 0 1-.705-.093.337.337 0 0 0-.318 0 .463.463 0 0 1-.271-.346 1.777 1.777 0 0 0-.238-.164 1.2 1.2 0 0 1-.704-.612c-.195-.421-.382-.767-.53-.797-.149-.03-.183-.261.224-.48zM308.821 13.655c.293-.17.643-.21.967-.114.145.063.128.122.064.523.029.133.068.264.115.392.052.087.11.17.174.249.137.175.31.32.509.422a2.657 2.657 0 0 0 1.637.16.546.546 0 0 0 .386-.312c0-.025.14-.135.259-.291.098-.132.182-.273.251-.422.135-.264.224-.55.263-.843l.046-.026h.238c.543 0 .713.216.369.814-.177.487-.44.938-.776 1.333a2.43 2.43 0 0 1-1.133.54c-.279.06-.564.082-.849.067a2.403 2.403 0 0 1-.7-.093.337.337 0 0 0-.318 0 .473.473 0 0 1-.276-.345 1.782 1.782 0 0 0-.233-.165 1.2 1.2 0 0 1-.704-.611c-.196-.422-.386-.768-.531-.797-.144-.03-.165-.262.242-.481z"/>
            <path fill="#BBE8F4" d="M313.586 13.554c.292-.17.643-.211.967-.114.144.063.127.122.059.527.033.131.072.261.119.388.053.088.111.172.174.253.136.176.31.32.509.422a2.6 2.6 0 0 0 1.638.16.539.539 0 0 0 .386-.312c0-.026.14-.135.259-.291a2.15 2.15 0 0 0 .25-.422c.136-.264.225-.55.263-.843H318.494c.543 0 .713.22.369.814-.176.488-.439.94-.776 1.336a2.47 2.47 0 0 1-1.133.54 3.662 3.662 0 0 1-.848.067 2.316 2.316 0 0 1-.7-.096.34.34 0 0 0-.318 0 .476.476 0 0 1-.276-.35 1.346 1.346 0 0 0-.234-.16 1.221 1.221 0 0 1-.704-.616c-.195-.422-.386-.768-.53-.797-.144-.03-.166-.279.242-.506z"/>
            <path fill="#BBE8F4" d="M323.098 13.3c.313-.144.678-.122.971.06.119.126.119.274-.182.746a4.103 4.103 0 0 1-.242.54 3.222 3.222 0 0 1-.233.421c-.203.321-.483.586-.815.772-.388.22-.826.341-1.273.35-.208.01-.417 0-.623-.03a3.14 3.14 0 0 1-.548-.151c-.335-.127-.717-.274-.772-.283a.893.893 0 0 1-.195-.126 2.402 2.402 0 0 1-.322-.333 2.884 2.884 0 0 1-.399-.67 3.644 3.644 0 0 1-.234-1.181s0-.034.039-.051a.255.255 0 0 1 .106-.03h.131c.564 0 .654.055.624.625.076.41.318.773.67 1.003.241.206.535.34.849.388.222.035.448.035.67 0 .13-.01.258-.038.382-.08l.153-.046a.19.19 0 0 0 .144-.182c.114-.042.136-.059.335 0a.865.865 0 0 0 .153-.147c.057-.22.143-.43.254-.629.183-.282.132-.62 0-.674-.131-.055-.08-.194.357-.291z"/>
            <path fill="#6AA1A5" d="M539.036 38.535s-3.339 1.324 0 2.505c2.753.978 3.457-1.017 3.457-1.017l2.427 1.32-1.073-1.754 1.077-1.75-2.431 1.438s-1.68-1.438-3.457-.742zM547.868 45.606s-3.338 1.324 0 2.51c2.758.973 3.458-1.021 3.458-1.021l2.431 1.32-1.077-1.75 1.077-1.75-2.431 1.438s-1.68-1.438-3.458-.747z"/>
            <path fill="#6BA1A5" d="M13.865 51.38a1.25 1.25 0 0 1 .971-.093c.14.068.123.123.047.527.03.133.066.264.11.393.052.087.109.172.17.253.131.176.3.32.496.421a2.61 2.61 0 0 0 1.638.194.526.526 0 0 0 .39-.303c0-.026.14-.131.263-.283.104-.13.19-.271.259-.422.14-.253.234-.528.28-.813 0 0 .021 0 .05-.026a.386.386 0 0 1 .103 0h.131c.548 0 .713.232.357.844-.19.481-.463.927-.806 1.315-.33.269-.725.448-1.146.519-.28.05-.565.066-.848.046a2.169 2.169 0 0 1-.696-.11.354.354 0 0 0-.323 0 .464.464 0 0 1-.263-.353 1.45 1.45 0 0 0-.233-.165 1.22 1.22 0 0 1-.692-.628c-.186-.422-.364-.776-.513-.81-.148-.034-.17-.295.255-.506z"/>
            <path fill="#6BA1A5" d="M18.629 51.384c.296-.165.649-.199.971-.092.14.063.123.122.051.523.027.132.062.264.106.392.051.089.108.175.17.257.135.174.306.317.5.422.51.237 1.083.305 1.634.194a.534.534 0 0 0 .39-.304c0-.025.145-.13.268-.283.272-.364.456-.785.538-1.23H23.543c.543 0 .708.231.352.842-.189.484-.461.93-.806 1.32a2.46 2.46 0 0 1-1.142.515 3.55 3.55 0 0 1-.827.05 2.533 2.533 0 0 1-.7-.11.354.354 0 0 0-.322 0 .472.472 0 0 1-.263-.354 1.887 1.887 0 0 0-.234-.168 1.215 1.215 0 0 1-.691-.628c-.187-.422-.365-.776-.514-.81-.148-.034-.178-.325.234-.536z"/>
            <path fill="#6BA1A5" d="M28.145 51.33c.317-.138.683-.106.972.084.114.126.11.274-.2.742-.07.183-.156.361-.254.531-.07.147-.15.288-.242.422a2.291 2.291 0 0 1-.849.755c-.391.21-.828.32-1.273.324a3.706 3.706 0 0 1-.623-.038 2.653 2.653 0 0 1-.543-.164c-.335-.13-.713-.287-.768-.295a1.312 1.312 0 0 1-.195-.13 2.734 2.734 0 0 1-.696-1.02 3.672 3.672 0 0 1-.212-1.186s0-.034.042-.05a.217.217 0 0 1 .106-.026h.132c.568 0 .653.072.61.637.067.414.302.783.65 1.02.237.218.531.364.848.422.223.035.449.035.67 0 .13-.007.26-.031.383-.072l.152-.042a.186.186 0 0 0 .149-.181.375.375 0 0 1 .335 0 .923.923 0 0 0 .157-.14c.062-.218.152-.428.267-.624.191-.278.144-.615 0-.674-.144-.06-.055-.203.382-.295zM18.629 55.71c.296-.163.648-.199.971-.096.14.067.123.126.051.527.027.133.062.264.106.392.051.088.108.172.17.253.133.176.304.32.5.422.51.239 1.082.308 1.634.198a.547.547 0 0 0 .39-.304c0-.025.145-.13.268-.287.1-.13.187-.272.258-.421a2.6 2.6 0 0 0 .28-.818H23.543c.543 0 .708.232.352.843-.19.483-.462.93-.806 1.32a2.46 2.46 0 0 1-1.142.514c-.273.047-.55.064-.827.05a2.283 2.283 0 0 1-.7-.113.359.359 0 0 0-.322 0 .481.481 0 0 1-.263-.354 1.524 1.524 0 0 0-.234-.169 1.215 1.215 0 0 1-.691-.628c-.187-.422-.365-.776-.514-.81-.148-.033-.178-.307.234-.518z"/>
            <path fill="#6BA1A5" d="M23.398 55.71c.295-.162.645-.196.967-.092.144.063.123.122.05.527.028.133.063.264.107.392.052.087.108.172.17.253.134.175.304.319.5.422.509.24 1.082.308 1.634.194a.517.517 0 0 0 .39-.304c0-.025.144-.13.267-.282.1-.132.188-.273.259-.422.138-.254.233-.529.28-.814 0 0 0-.02.047-.025h.22c.547 0 .709.232.352.818-.173.49-.437.942-.776 1.337a2.4 2.4 0 0 1-1.141.514c-.28.053-.565.07-.849.05-.238.001-.474-.036-.7-.109a.345.345 0 0 0-.318 0 .468.468 0 0 1-.267-.354 1.694 1.694 0 0 0-.23-.165 1.214 1.214 0 0 1-.69-.632c-.188-.422-.37-.772-.519-.806-.148-.033-.17-.29.247-.501z"/>
            <path fill="#6BA1A5" d="M32.914 55.656c.316-.135.68-.103.967.084.115.127.11.279-.2.742a3.933 3.933 0 0 1-.254.536c-.068.147-.15.288-.242.422a2.305 2.305 0 0 1-.848.75c-.391.21-.828.322-1.273.325a3.72 3.72 0 0 1-.624-.042 2.944 2.944 0 0 1-.543-.17c-.33-.126-.712-.282-.767-.294a.849.849 0 0 1-.196-.131 2.655 2.655 0 0 1-.696-1.02 3.675 3.675 0 0 1-.212-1.185s0-.034.043-.05a.217.217 0 0 1 .106-.026h.114c.569 0 .654.067.611.636.075.41.314.773.662 1.004.235.22.53.367.849.422.22.04.447.049.67.025.13-.009.258-.033.382-.072l.157-.046c.038 0 .123-.034.148-.177.11-.038.136-.055.331 0a.92.92 0 0 0 .157-.144c.065-.22.157-.43.276-.628.19-.278.144-.615 0-.674-.144-.06-.06-.194.382-.287z"/>
        </g>
        <path fill="#89CEDF" fill-rule="evenodd" d="M619.082-105.71V91.348S581.133 72.465 501.553 79.22c-21.421 1.818-49.561 9.852-107.051 20.266-44.046 7.979-63.639 10.398-129.707 8.445C141.035 104.271 0 63.739 0 63.739V-105.71h619.082z" clip-rule="evenodd" opacity=".38"/>
        <mask id="d" width="620" height="215" x="0" y="-106" maskUnits="userSpaceOnUse">
            <path fill="#fff" fill-rule="evenodd" d="M619.082-105.71V91.348S581.133 72.465 501.553 79.22c-21.421 1.818-49.561 9.852-107.051 20.266-44.046 7.979-63.639 10.398-129.707 8.445C141.035 104.271 0 63.739 0 63.739V-105.71h619.082z" clip-rule="evenodd"/>
        </mask>
    </g>
</svg>
