<svg xmlns="http://www.w3.org/2000/svg" width="1600" height="363" fill="none" viewBox="0 0 1600 363" preserveAspectRatio="none">
    <mask id="a" width="1600" height="363" x="0" y="0" maskUnits="userSpaceOnUse">
        <path fill="#fff" d="M0 0h1600v363H0z"/>
    </mask>
    <g mask="url(#a)">
        <path fill="#7FC1C6" fill-opacity=".99" fill-rule="evenodd" d="M-232.195-265.577H1600.29v412.015s24.95-27.681-181.21 0c-121.05 16.253-271.05 39.021-395.25 77.399-142.593 44.065-388.875 138.381-571.77 138.381-235.896 0-684.255-100.072-684.255-100.072v-527.723z" clip-rule="evenodd" opacity=".243"/>
        <mask id="b" width="1835" height="629" x="-233" y="-266" maskUnits="userSpaceOnUse">
            <path fill="#fff" fill-rule="evenodd" d="M-232.195-265.577H1600.29v412.015s24.95-27.681-181.21 0c-121.05 16.253-271.05 39.021-395.25 77.399-142.593 44.065-388.875 138.381-571.77 138.381-235.896 0-684.255-100.072-684.255-100.072v-527.723z" clip-rule="evenodd"/>
        </mask>
        <path fill="#2D3C4A" fill-rule="evenodd" d="M.578-265.577H1600.3v485.784s-134.36-33.201-318.7-33.201c-184.34 0-256.98 9.611-462.416 33.201-205.433 23.59-211.682 37.248-416.333 37.248-204.652 0-402.273-37.248-402.273-37.248v-485.784z" clip-rule="evenodd"/>
        <mask id="c" width="1601" height="524" x="0" y="-266" maskUnits="userSpaceOnUse">
            <path fill="#fff" fill-rule="evenodd" d="M.578-265.577H1600.3v485.784s-134.36-33.201-318.7-33.201c-184.34 0-256.98 9.611-462.416 33.201-205.433 23.59-211.682 37.248-416.333 37.248-204.652 0-402.273-37.248-402.273-37.248v-485.784z" clip-rule="evenodd"/>
        </mask>
        <g mask="url(#c)">
            <path fill="#89CEDF" d="M.612-265.577v601l1607.788-.094v-600.906H.612z"/>
            <path fill="#6AA1A5" d="M1063.04 68.127s-9.23 3.677 0 6.968c7.59 2.706 9.53-2.834 9.53-2.834l6.7 3.666-2.97-4.86 2.98-4.86-6.71 3.993s-4.64-4.006-9.53-2.073zM1087.4 87.768s-9.21 3.678 0 6.969c7.6 2.717 9.54-2.834 9.54-2.834l6.69 3.666-2.96-4.86 2.97-4.861-6.7 4.029s-4.64-4.041-9.54-2.109zM1086.16 45.699s-9.21 3.677 0 7.027c7.59 2.705 9.53-2.834 9.53-2.834l6.7 3.665-2.96-4.86 2.97-4.872-6.71 4.005s-4.58-4.064-9.53-2.131zM1096.36 66.745s-9.22 3.677 0 6.957c7.6 2.717 9.54-2.834 9.54-2.834l6.69 3.677-2.96-4.872 2.97-4.86-6.7 3.982s-4.65-3.983-9.54-2.05zM787.666 171.9s9.221 3.678 0 6.957c-7.606 2.706-9.537-2.834-9.537-2.834l-6.693 3.654 2.961-4.86-2.961-4.861 6.705 3.994s4.634-3.994 9.525-2.05zM754.691 149.436s9.221 3.69 0 6.969c-7.606 2.705-9.536-2.846-9.536-2.846l-6.694 3.666 2.961-4.861-2.961-4.872 6.694 4.006s4.645-3.994 9.536-2.062z"/>
            <path fill="#BBE8F4" d="M508.644 160.856a3.312 3.312 0 0 1 2.668-.258c.397.176.339.34.14 1.453.073.37.175.734.304 1.089.126.254.279.493.457.714a4.2 4.2 0 0 0 1.38 1.172 7.117 7.117 0 0 0 4.505.538 1.426 1.426 0 0 0 1.077-.843c0-.07.398-.363.737-.785.282-.361.522-.754.714-1.171a7.165 7.165 0 0 0 .772-2.26s.059-.059.129-.071h.655c1.51 0 1.954.645.983 2.273a12.237 12.237 0 0 1-2.223 3.665 6.664 6.664 0 0 1-3.159 1.429 9.098 9.098 0 0 1-2.341.141 6.144 6.144 0 0 1-1.93-.305.952.952 0 0 0-.878 0 1.32 1.32 0 0 1-.737-.983 3.983 3.983 0 0 0-.632-.457 3.366 3.366 0 0 1-1.908-1.757c-.514-1.171-1.018-2.143-1.415-2.237-.398-.094-.433-.761.702-1.347z"/>
            <path fill="#BBE8F4" d="M521.785 160.868a3.308 3.308 0 0 1 2.668-.258c.398.176.351.34.14 1.452.08.369.182.733.305 1.09.141.247.297.486.468.714.364.487.832.886 1.369 1.171a7.23 7.23 0 0 0 4.516.551c.472-.097.87-.409 1.077-.844 0-.07.386-.363.725-.796.283-.362.522-.755.714-1.171a7.26 7.26 0 0 0 .773-2.272s0-.059.128-.059h.702c1.51 0 1.955.644.983 2.284a12.383 12.383 0 0 1-2.223 3.666 6.804 6.804 0 0 1-3.159 1.429c-.753.131-1.519.178-2.282.14a7.02 7.02 0 0 1-1.931-.304.902.902 0 0 0-.878 0 1.348 1.348 0 0 1-.737-.984 3.724 3.724 0 0 0-.632-.469 3.322 3.322 0 0 1-1.907-1.745c-.515-1.171-1.006-2.155-1.416-2.248-.409-.094-.538-.762.597-1.347z"/>
            <path fill="#BBE8F4" d="M534.926 160.868a3.425 3.425 0 0 1 2.679-.258c.386.188.34.34.129 1.464.081.369.183.732.304 1.089.143.243.299.478.468.703a3.96 3.96 0 0 0 1.381 1.171 7.117 7.117 0 0 0 4.505.539c.477-.084.881-.4 1.077-.843 0-.07.386-.363.737-.785.278-.362.513-.755.702-1.171.38-.707.645-1.47.784-2.26 0 0 0-.059.129-.071h.655c1.498 0 1.954.644.971 2.272a12.25 12.25 0 0 1-2.223 3.666 6.63 6.63 0 0 1-3.16 1.429 9.086 9.086 0 0 1-2.281.141 5.956 5.956 0 0 1-1.919-.305.97.97 0 0 0-.89 0 1.31 1.31 0 0 1-.725-.984 3.969 3.969 0 0 0-.644-.456 3.37 3.37 0 0 1-1.907-1.746c-.515-1.171-1.007-2.155-1.416-2.248-.41-.094-.492-.761.644-1.347zM524.581 172.884a3.354 3.354 0 0 1 2.668-.27c.398.188.34.352.141 1.464.072.37.17.733.292 1.089.143.243.299.478.468.703a4.2 4.2 0 0 0 1.381 1.171 7.21 7.21 0 0 0 4.505.551 1.479 1.479 0 0 0 1.077-.844c0-.081.397-.374.737-.796.277-.365.517-.757.714-1.171a7.284 7.284 0 0 0 .772-2.272s0-.059.129-.071h.655c1.509 0 1.954.645.971 2.284a11.87 11.87 0 0 1-2.223 3.654 6.746 6.746 0 0 1-3.148 1.441c-.753.131-1.518.178-2.282.141a6.329 6.329 0 0 1-1.93-.317.952.952 0 0 0-.878 0 1.298 1.298 0 0 1-.737-.983 4.635 4.635 0 0 0-.632-.457 3.325 3.325 0 0 1-1.907-1.745c-.515-1.172-1.018-2.155-1.428-2.249-.41-.094-.492-.75.655-1.323z"/>
            <path fill="#BBE8F4" d="M537.71 172.884a3.308 3.308 0 0 1 2.668-.257c.398.175.351.339.141 1.452.073.37.175.735.304 1.089.131.251.284.49.456.715a4.35 4.35 0 0 0 1.381 1.171 7.124 7.124 0 0 0 4.505.539 1.43 1.43 0 0 0 1.077-.844c0-.07.398-.363.737-.784.282-.362.522-.755.714-1.172a7.166 7.166 0 0 0 .772-2.272l.129-.058h.655c1.51 0 1.954.644.983 2.272a12.275 12.275 0 0 1-2.223 3.666 6.682 6.682 0 0 1-3.16 1.429 9.132 9.132 0 0 1-2.281.14 6.586 6.586 0 0 1-1.931-.304.946.946 0 0 0-.878 0 1.324 1.324 0 0 1-.737-.984 5.356 5.356 0 0 0-.632-.469 3.273 3.273 0 0 1-1.907-1.745c-.515-1.171-1.018-2.143-1.416-2.237-.398-.093-.527-.761.643-1.347z"/>
            <path fill="#BBE8F4" d="M563.969 172.731a2.83 2.83 0 0 1 2.668.235c.316.351.316.773-.538 2.061a11.946 11.946 0 0 1-.714 1.487 9.45 9.45 0 0 1-.656 1.171 6.605 6.605 0 0 1-2.34 2.085 7.465 7.465 0 0 1-3.569.902 11.79 11.79 0 0 1-1.72-.117 8.368 8.368 0 0 1-1.498-.469c-.912-.363-1.954-.796-2.118-.819a2.382 2.382 0 0 1-.526-.363 7.078 7.078 0 0 1-.866-.949 7.19 7.19 0 0 1-1.053-1.886 10.25 10.25 0 0 1-.585-3.291s0-.094.117-.14a.52.52 0 0 1 .28-.071h.363c1.568 0 1.814.199 1.697 1.769a4.19 4.19 0 0 0 1.779 2.834 4.67 4.67 0 0 0 2.34 1.171 6.403 6.403 0 0 0 1.849.071 4.611 4.611 0 0 0 1.065-.211l.421-.117a.514.514 0 0 0 .409-.492c.287-.146.626-.146.913 0a2.76 2.76 0 0 0 .445-.398c.159-.61.403-1.193.725-1.734.527-.773.41-1.71 0-1.874-.409-.164-.105-.597 1.112-.855z"/>
            <path fill="#6AA1A5" d="M329.12 73.766s3.908.468 8.975 9.37c8.156 14.253 39.305 7.108 39.305 7.108s12.181-3.279-2.188-2.213c0 0 12.872.855 11.245-9.932l-41.891-.738s-14.37-2.518-7.185-8.269c7.185-5.75 2.165-9.697 2.165-9.697l-7.899 5.739s-2.165 3.232-.725 5.387c1.439 2.155.362-3.947-5.383-1.428a35.173 35.173 0 0 1-8.975 2.869s-.363 7.906 12.556 1.804z"/>
            <path fill="#BBE8F4" d="M363.58 89.073h-.234c-1.111.223-10.472 2.085-7.383 2.343a99.33 99.33 0 0 0 11.491.374 75.709 75.709 0 0 0 11.116-1.546s8.753-3.958.269-2.541l-15.259 1.37zM372.029 86.778a1.17 1.17 0 1 0-.001-2.341 1.17 1.17 0 0 0 .001 2.34zM1340.96 82.315a3.31 3.31 0 0 1 2.67-.258c.39.176.35.34.14 1.453.07.37.17.734.3 1.089.13.252.29.492.47.714.36.486.83.886 1.37 1.171 1.41.667 2.99.856 4.52.54.47-.088.87-.403 1.07-.844 0-.07.39-.363.73-.785.28-.361.52-.754.71-1.17.38-.71.65-1.477.77-2.273 0 0 .06 0 .13-.059H1354.5c1.51 0 1.95.645.98 2.273-.5 1.364-1.23 2.63-2.18 3.736a6.642 6.642 0 0 1-3.16 1.428 9.06 9.06 0 0 1-2.34.141 6.62 6.62 0 0 1-1.93-.304.92.92 0 0 0-.87 0 1.31 1.31 0 0 1-.74-.984c-.2-.172-.41-.329-.63-.469a3.276 3.276 0 0 1-1.91-1.745c-.52-1.171-1.02-2.143-1.42-2.237-.39-.094-.48-.831.66-1.417z"/>
            <path fill="#BBE8F4" d="M1354.1 82.327a3.39 3.39 0 0 1 2.72-.281c.38.187.33.351.12 1.464.08.369.19.732.31 1.089.14.243.3.477.47.703a4 4 0 0 0 1.37 1.17c1.4.665 2.99.858 4.51.551.47-.093.87-.406 1.08-.843 0-.07.38-.363.72-.796.29-.362.53-.755.72-1.171.38-.71.64-1.478.77-2.273 0 0 .06-.058.14-.07h.64c1.51 0 1.97.644.99 2.284a12.23 12.23 0 0 1-2.23 3.654c-.9.751-1.99 1.248-3.16 1.44-.77.136-1.55.183-2.34.141-.65-.002-1.3-.11-1.91-.316a.972.972 0 0 0-.89 0c-.4-.185-.67-.555-.73-.984-.2-.173-.41-.326-.64-.457-.85-.3-1.54-.93-1.91-1.745-.52-1.17-1.01-2.155-1.42-2.248-.41-.094-.46-.727.67-1.312z"/>
            <path fill="#BBE8F4" d="M1367.24 82.327a3.334 3.334 0 0 1 2.68-.257c.39.175.34.34.14 1.452.07.37.17.733.29 1.089.14.25.3.488.47.714.37.49.84.89 1.38 1.172a7.14 7.14 0 0 0 4.51.538c.47-.083.88-.4 1.07-.843 0-.07.4-.363.74-.785.28-.364.52-.757.71-1.17.39-.706.65-1.47.78-2.261 0 0 0-.059.13-.07H1380.79c1.5 0 1.96.644.97 2.272a12.258 12.258 0 0 1-2.22 3.666 6.66 6.66 0 0 1-3.15 1.428c-.77.148-1.56.195-2.34.14-.65.005-1.31-.098-1.93-.304a.972.972 0 0 0-.89 0 1.292 1.292 0 0 1-.72-.983 4.06 4.06 0 0 0-.65-.457 3.413 3.413 0 0 1-1.91-1.757c-.51-1.171-1-2.143-1.41-2.237-.41-.094-.43-.761.7-1.347zM1356.9 94.332c.81-.448 1.78-.54 2.67-.258.39.187.33.34.14 1.464.07.37.17.734.3 1.09.13.247.28.482.46.702.37.486.84.886 1.38 1.171 1.4.666 2.98.855 4.5.539.48-.08.89-.397 1.08-.843 0-.07.4-.363.74-.785.28-.36.52-.753.71-1.171.38-.704.65-1.469.77-2.26 0 0 0-.06.13-.07.1-.013.2-.013.29 0h.37c1.51 0 1.95.643.98 2.283a12.443 12.443 0 0 1-2.22 3.654c-.92.744-2 1.241-3.16 1.441a10.4 10.4 0 0 1-2.34.14 6.437 6.437 0 0 1-1.94-.316.93.93 0 0 0-.87 0 1.335 1.335 0 0 1-.74-.984c-.2-.172-.41-.325-.63-.457a3.387 3.387 0 0 1-1.91-1.745c-.51-1.17-1.02-2.155-1.41-2.248-.4-.094-.44-.75.7-1.347z"/>
            <path fill="#BBE8F4" d="M1370.04 94.343a3.311 3.311 0 0 1 2.67-.257c.39.175.35.34.14 1.452.07.37.17.734.3 1.09.13.252.29.491.47.714.37.483.83.882 1.37 1.17 1.41.661 2.99.85 4.51.54.48-.093.88-.407 1.08-.844 0-.07.39-.363.73-.784.28-.362.52-.755.71-1.172.38-.708.64-1.476.77-2.272.03-.04.08-.061.13-.058H1383.58c1.51 0 1.95.656.98 2.284a12.257 12.257 0 0 1-2.22 3.665c-.92.742-2 1.234-3.16 1.429-.76.137-1.52.184-2.29.141a7.068 7.068 0 0 1-1.93-.305.924.924 0 0 0-.87 0c-.4-.186-.67-.554-.74-.983-.2-.172-.41-.329-.63-.469-.85-.3-1.54-.93-1.91-1.745-.51-1.171-1.02-2.155-1.42-2.249-.39-.093-.49-.761.65-1.347z"/>
            <path fill="#BBE8F4" d="M1396.28 94.191c.88-.378 1.89-.29 2.68.235.31.351.31.76-.55 2.06-.2.508-.43 1.001-.7 1.477-.2.403-.42.794-.67 1.17-.6.873-1.4 1.588-2.34 2.086a7.533 7.533 0 0 1-3.56.901c-.58.006-1.16-.037-1.72-.128a7.657 7.657 0 0 1-1.5-.457c-.92-.363-1.96-.797-2.12-.82a3.911 3.911 0 0 1-.53-.363c-.31-.292-.6-.61-.86-.949-.44-.575-.8-1.21-1.06-1.885-.37-1.058-.57-2.17-.58-3.291 0 0 0-.094.12-.141.08-.05.18-.074.28-.07h.36c1.57 0 1.81.199 1.7 1.768a4.21 4.21 0 0 0 1.77 2.834 4.72 4.72 0 0 0 2.35 1.172c.6.113 1.23.136 1.84.07.36-.027.72-.098 1.06-.21l.42-.118a.53.53 0 0 0 .41-.492c.31-.117.37-.152.91 0 .16-.12.31-.252.45-.398.16-.609.41-1.192.73-1.733.52-.773.4-1.71 0-1.874-.4-.164-.1-.586 1.11-.844zM861.16 29.27a3.367 3.367 0 0 1 2.668-.317c.398.176.339.34.164 1.452.081.371.19.735.327 1.09.138.244.299.475.48.69.375.49.855.89 1.404 1.172a7.284 7.284 0 0 0 4.517.445c.47-.102.863-.425 1.053-.867 0-.07.386-.375.714-.808.277-.36.509-.754.69-1.171a7.144 7.144 0 0 0 .726-2.343l.128-.07H874.687c1.509 0 1.966.597 1.029 2.26a12.374 12.374 0 0 1-2.153 3.701 6.676 6.676 0 0 1-3.124 1.5 9.457 9.457 0 0 1-2.27.199 6.833 6.833 0 0 1-1.942-.27.925.925 0 0 0-.878 0 1.276 1.276 0 0 1-.749-.96 4.337 4.337 0 0 0-.644-.445 3.337 3.337 0 0 1-1.954-1.71c-.538-1.171-1.053-2.132-1.462-2.214-.41-.082-.504-.726.62-1.335z"/>
            <path fill="#BBE8F4" d="M874.301 29a3.32 3.32 0 0 1 2.668-.328c.397.175.339.34.163 1.464.083.367.192.727.328 1.077.14.248.3.483.48.703.375.49.854.89 1.404 1.171a7.121 7.121 0 0 0 4.517.445 1.44 1.44 0 0 0 1.053-.866c0-.07.386-.375.714-.797.275-.362.506-.755.69-1.171a7.345 7.345 0 0 0 .726-2.284s.058-.059.128-.07H887.828c1.509 0 1.965.609 1.029 2.26a12.389 12.389 0 0 1-2.153 3.713 6.794 6.794 0 0 1-3.124 1.499c-.747.149-1.509.212-2.27.187a6.386 6.386 0 0 1-1.943-.269.934.934 0 0 0-.877 0 1.287 1.287 0 0 1-.749-.972 4.33 4.33 0 0 0-.644-.445 3.337 3.337 0 0 1-1.954-1.71c-.538-1.171-1.053-2.12-1.462-2.214-.41-.093-.504-.808.62-1.393z"/>
            <path fill="#BBE8F4" d="M887.441 28.719a3.367 3.367 0 0 1 2.668-.316c.398.175.339.34.164 1.452.081.37.191.735.327 1.09.139.244.299.475.48.69a4.22 4.22 0 0 0 1.393 1.171 7.33 7.33 0 0 0 4.528.445 1.485 1.485 0 0 0 1.053-.866c0-.07.386-.375.714-.808a5.85 5.85 0 0 0 .691-1.172c.374-.733.62-1.525.725-2.342l.129-.07h.655c1.509 0 1.966.597 1.03 2.26a12.395 12.395 0 0 1-2.153 3.701 6.683 6.683 0 0 1-3.125 1.5 8.8 8.8 0 0 1-2.27.187 6.603 6.603 0 0 1-1.942-.258.925.925 0 0 0-.878 0 1.29 1.29 0 0 1-.749-.96 4.895 4.895 0 0 0-.655-.457 3.323 3.323 0 0 1-1.942-1.699c-.539-1.17-1.054-2.131-1.463-2.213-.41-.082-.503-.726.62-1.335zM877.343 40.946a3.368 3.368 0 0 1 2.668-.316c.398.175.351.34.176 1.452.08.37.186.734.316 1.09.143.24.303.472.479.69.378.488.857.887 1.405 1.171a7.28 7.28 0 0 0 4.516.445c.474-.1.87-.423 1.065-.866 0-.07.386-.375.714-.808.27-.366.501-.758.69-1.172a7.225 7.225 0 0 0 .726-2.342l.129-.07h.655c1.498 0 1.966.597 1.018 2.26a12.05 12.05 0 0 1-2.142 3.701 6.676 6.676 0 0 1-3.124 1.5 8.845 8.845 0 0 1-2.34.187 6.569 6.569 0 0 1-1.931-.258.922.922 0 0 0-.877 0 1.31 1.31 0 0 1-.761-.96 4.904 4.904 0 0 0-.644-.457 3.326 3.326 0 0 1-1.942-1.698c-.538-1.172-1.065-2.132-1.463-2.214-.398-.082-.456-.726.667-1.335z"/>
            <path fill="#BBE8F4" d="M890.484 40.665a3.368 3.368 0 0 1 2.668-.317c.398.176.351.34.164 1.464.088.366.198.725.327 1.078.145.244.305.479.48.703.375.49.855.89 1.404 1.17a7.122 7.122 0 0 0 4.517.446 1.488 1.488 0 0 0 1.065-.867c0-.07.386-.375.714-.808.274-.362.506-.755.69-1.171.375-.733.62-1.526.725-2.343h.784c1.498 0 1.966.61 1.018 2.26a12.066 12.066 0 0 1-2.141 3.714 6.793 6.793 0 0 1-3.124 1.499c-.77.154-1.556.216-2.34.187a6.35 6.35 0 0 1-1.931-.27.936.936 0 0 0-.878 0 1.322 1.322 0 0 1-.76-.971 3.828 3.828 0 0 0-.644-.445 3.369 3.369 0 0 1-1.942-1.71c-.539-1.172-1.065-2.132-1.463-2.214-.398-.082-.457-.773.667-1.405z"/>
            <path fill="#BBE8F4" d="M916.718 39.962a2.819 2.819 0 0 1 2.68.164c.327.352.327.761-.504 2.073a11.13 11.13 0 0 1-.667 1.5 8.733 8.733 0 0 1-.643 1.17 6.308 6.308 0 0 1-2.247 2.144 7.362 7.362 0 0 1-3.51.972 9.2 9.2 0 0 1-1.72-.082 8.528 8.528 0 0 1-1.51-.422c-.924-.351-1.977-.761-2.13-.785a2.507 2.507 0 0 1-.538-.35 6.817 6.817 0 0 1-.889-.926 8.029 8.029 0 0 1-1.1-1.862 10.216 10.216 0 0 1-.644-3.28s0-.093.106-.14a.71.71 0 0 1 .292-.082h.363c1.556 0 1.802.152 1.72 1.733a4.263 4.263 0 0 0 1.849 2.788 4.68 4.68 0 0 0 2.34 1.077 5.845 5.845 0 0 0 1.849 0c.359-.03.713-.104 1.053-.222l.421-.13a.526.526 0 0 0 .398-.503c.316-.117.375-.164.925 0 .157-.118.298-.256.421-.41.159-.609.395-1.195.702-1.745.503-.785.363-1.721 0-1.874-.363-.152-.222-.539.983-.808z"/>
            <path fill="#6AA1A5" d="M1487.31 135.069s-9.21 3.678 0 6.957c7.59 2.717 9.54-2.822 9.54-2.822l6.69 3.665-2.96-4.872 2.97-4.86-6.7 3.994s-4.64-3.994-9.54-2.062zM1511.67 154.71s-9.21 3.677 0 6.968c7.61 2.706 9.54-2.834 9.54-2.834l6.7 3.666-2.97-4.86 2.97-4.861-6.7 3.994s-4.63-3.994-9.54-2.073z"/>
            <path fill="#6BA1A5" d="M38.817 154.069a3.427 3.427 0 0 1 2.68-.258c.386.187.339.34.128 1.464.082.368.183.732.304 1.089.143.243.3.478.468.703.363.489.83.889 1.37 1.171a7.16 7.16 0 0 0 4.516.539c.477-.084.88-.4 1.077-.843 0-.071.386-.363.725-.785.285-.36.525-.753.714-1.171a7.034 7.034 0 0 0 .772-2.261s.059 0 .14-.07a1.1 1.1 0 0 1 .282 0h.362c1.51 0 1.966.644.983 2.343a12.367 12.367 0 0 1-2.223 3.654c-.91.746-2 1.242-3.16 1.44a9.56 9.56 0 0 1-2.34.129 5.93 5.93 0 0 1-1.919-.304.97.97 0 0 0-.89 0 1.29 1.29 0 0 1-.725-.984 4.03 4.03 0 0 0-.643-.457 3.372 3.372 0 0 1-1.907-1.745c-.515-1.171-1.007-2.155-1.416-2.249-.41-.094-.468-.82.702-1.405z"/>
            <path fill="#6BA1A5" d="M51.958 154.081a3.331 3.331 0 0 1 2.68-.258c.386.176.339.34.14 1.452.072.37.17.734.293 1.089.14.248.297.487.468.715.373.483.843.882 1.38 1.171a7.194 7.194 0 0 0 4.506.539 1.477 1.477 0 0 0 1.076-.843c0-.071.398-.364.737-.785a8.205 8.205 0 0 0 1.486-3.42h.784c1.498 0 1.955.644.972 2.342a12.237 12.237 0 0 1-2.224 3.666 6.758 6.758 0 0 1-3.147 1.429 9.695 9.695 0 0 1-2.282.141 6.948 6.948 0 0 1-1.931-.305.97.97 0 0 0-.89 0 1.311 1.311 0 0 1-.725-.984 5.196 5.196 0 0 0-.643-.468 3.36 3.36 0 0 1-1.908-1.745c-.515-1.171-1.006-2.155-1.416-2.249-.41-.094-.491-.902.644-1.487z"/>
            <path fill="#6BA1A5" d="M78.204 153.928a2.82 2.82 0 0 1 2.68.235c.316.351.304.761-.55 2.061-.195.509-.43 1.003-.702 1.476a8.714 8.714 0 0 1-.667 1.171 6.336 6.336 0 0 1-2.34 2.096 7.527 7.527 0 0 1-3.51.902c-.576.014-1.152-.022-1.721-.105a7.263 7.263 0 0 1-1.498-.457c-.924-.363-1.966-.797-2.118-.82a3.635 3.635 0 0 1-.538-.363c-.31-.295-.6-.612-.866-.949a7.608 7.608 0 0 1-1.053-1.885 10.273 10.273 0 0 1-.585-3.291s0-.094.117-.141a.596.596 0 0 1 .292-.07h.363c1.568 0 1.802.199 1.685 1.768a4.242 4.242 0 0 0 1.79 2.835 4.681 4.681 0 0 0 2.34 1.171 5.97 5.97 0 0 0 1.85 0 4.018 4.018 0 0 0 1.053-.199l.421-.117c.238-.05.41-.26.41-.504a1.03 1.03 0 0 1 .924 0c.158-.112.304-.242.433-.387.171-.606.42-1.189.737-1.733.527-.773.398-1.71 0-1.874-.398-.164-.152-.562 1.053-.82zM51.958 166.097a3.39 3.39 0 0 1 2.68-.269c.386.187.339.351.14 1.464.072.369.17.733.293 1.089.14.245.296.48.468.703a4.08 4.08 0 0 0 1.38 1.171 7.203 7.203 0 0 0 4.506.55 1.51 1.51 0 0 0 1.076-.843c0-.07.398-.363.737-.796a6.66 6.66 0 0 0 .714-1.172 7.251 7.251 0 0 0 .772-2.272h.784c1.498 0 1.955.644.972 2.343a12.403 12.403 0 0 1-2.224 3.666 6.757 6.757 0 0 1-3.147 1.428c-.754.131-1.519.178-2.282.141a6.242 6.242 0 0 1-1.931-.316.981.981 0 0 0-.89 0 1.337 1.337 0 0 1-.725-.984 4.263 4.263 0 0 0-.643-.469 3.357 3.357 0 0 1-1.908-1.745c-.515-1.171-1.006-2.155-1.416-2.248-.41-.094-.491-.855.644-1.441z"/>
            <path fill="#6BA1A5" d="M65.11 166.097a3.357 3.357 0 0 1 2.668-.258c.398.176.34.34.14 1.464.075.369.173.733.293 1.09.143.242.3.477.468.702.37.487.841.886 1.38 1.172a7.117 7.117 0 0 0 4.506.538 1.426 1.426 0 0 0 1.076-.843c0-.07.398-.363.738-.785.277-.364.517-.757.713-1.171a7.186 7.186 0 0 0 .773-2.26s0-.059.129-.07h.608c1.51 0 1.954.644.971 2.272a11.709 11.709 0 0 1-2.141 3.712 6.595 6.595 0 0 1-3.148 1.429 9.092 9.092 0 0 1-2.34.141 6.146 6.146 0 0 1-1.93-.305.946.946 0 0 0-.879 0 1.3 1.3 0 0 1-.737-.984 4.695 4.695 0 0 0-.632-.456 3.363 3.363 0 0 1-1.907-1.757c-.515-1.171-1.018-2.143-1.428-2.237-.41-.094-.468-.808.68-1.394z"/>
            <path fill="#6BA1A5" d="M91.356 165.945a2.827 2.827 0 0 1 2.668.234c.316.351.304.773-.55 2.061-.197.513-.431 1.01-.702 1.488-.189.408-.412.8-.667 1.171a6.371 6.371 0 0 1-2.34 2.085 7.474 7.474 0 0 1-3.51.901c-.576.01-1.152-.029-1.72-.117a8.094 8.094 0 0 1-1.499-.468c-.912-.352-1.966-.785-2.118-.82a2.342 2.342 0 0 1-.538-.363 7.937 7.937 0 0 1-.866-.949 7.391 7.391 0 0 1-1.053-1.885 10.27 10.27 0 0 1-.585-3.291s0-.094.117-.141a.596.596 0 0 1 .293-.07h.316c1.567 0 1.801.187 1.684 1.768a4.264 4.264 0 0 0 1.826 2.788 4.534 4.534 0 0 0 2.34 1.171c.61.113 1.233.136 1.849.07a4.496 4.496 0 0 0 1.053-.199l.433-.129c.105 0 .34-.093.41-.492.304-.105.374-.152.912 0 .16-.115.305-.249.433-.398a7.452 7.452 0 0 1 .761-1.745c.526-.773.398-1.71 0-1.874-.398-.164-.164-.539 1.053-.796z"/>
        </g>
        <path fill="#89CEDF" fill-rule="evenodd" d="M1708.09-265.577v547.338s-104.67-52.451-324.16-33.687c-59.08 5.05-136.7 27.363-295.26 56.29-121.488 22.162-175.527 28.88-357.753 23.454C389.571 317.655.577 205.074.577 205.074v-470.651H1708.09z" clip-rule="evenodd" opacity=".38"/>
        <mask id="d" width="1709" height="596" x="0" y="-266" maskUnits="userSpaceOnUse">
            <path fill="#fff" fill-rule="evenodd" d="M1708.09-265.577v547.338s-104.67-52.451-324.16-33.687c-59.08 5.05-136.7 27.363-295.26 56.29-121.488 22.162-175.527 28.88-357.753 23.454C389.571 317.655.577 205.074.577 205.074v-470.651H1708.09z" clip-rule="evenodd"/>
        </mask>
    </g>
</svg>
