<svg xmlns="http://www.w3.org/2000/svg" width="130" height="114" viewBox="0 0 130 114">
    <g fill="none" fill-rule="evenodd">
        <path stroke="#B2DADD" stroke-width="9" d="M121.381 7.286a5.992 5.992 0 0 0-2.996-2.689c-1.903-.606-3.745 5.094-1.82 5.7 1.925.607 4.816-3.01 4.816-3.01zM105.172 11.863s12.546 7.04 6.884 8.007c-5.663.966-11.093 1.805-10.644-1.655.45-3.46 3.76-6.352 3.76-6.352z"/>
        <path fill="#F2E9CD" fill-rule="nonzero" d="M121.374 7.286a5.992 5.992 0 0 0-2.997-2.689c-1.895-.606-3.745 5.094-1.812 5.7 1.932.607 4.809-3.01 4.809-3.01zM105.165 11.863s12.546 7.04 6.883 8.007c-5.662.966-11.093 1.805-10.651-1.655.442-3.46 3.768-6.352 3.768-6.352z"/>
        <path stroke="#B2DADD" stroke-width="9" d="M108.168 30.791s-14.389 1.565-9.033 8.853c5.355 7.288-5.505 5.244-5.505 5.244s-9.948-4.914-10.292-3.281c-.345 1.633-8.187-1.566-4.644-3.925 3.543-2.36-5.13-8.134-5.13-8.134s.351-4.704-1.446-5.626c-1.798-.92-3.588 1.498-5.244 3.438-1.655 1.94-4.846-5.378-7.662-4.187-2.817 1.191-6.876 4.674-6.876 6.779 0 2.105-4.981 4.689.127 9.46 5.108 4.772 8.988 6.742 4.659 10.554-4.33 3.813-5.723 4.801-5.88 8.591-.157 3.79-4.494 4.157-4.412 8.36.083 4.202-20.283 8.89-12.366 11.415 3.138.996.577 5.842-.622 9.617-1.835 5.76-7.64 11.805 5.468 6.929 3.25-1.214 15.73-3.34 14.569 5.715-1.161 9.056 10.359 3.633 15.212 4.831 4.854 1.198 2.105-7.707 8.727 0 6.621 7.708 20.029 1.498 16.246-.749-3.783-2.247 4.57-4.816 3.34-7.303-1.228-2.487-8.478-10.382 6.352-9.835 14.831.547 3.993-8.15 6.172-10.598 2.18-2.45 7.034-3.686 6.142-5.716-.89-2.03 1.206-3.1 4.135-.247 2.929 2.854 7.842-7.093.112-11.303-7.73-4.21 6.06-11.332 4.42-16.036-1.64-4.704-11.13.981-10.577-5.124.555-6.104-5.992-7.722-5.992-7.722zM24.914 84.107a5.992 5.992 0 0 0-2.996-2.69c-1.903-.606-3.745 5.094-1.82 5.7 1.925.608 4.816-3.01 4.816-3.01zM8.705 88.706s12.546 7.04 6.883 8.007c-5.662.966-11.093 1.805-10.643-1.656.45-3.46 3.76-6.351 3.76-6.351z"/>
        <path fill="#F2E9CD" fill-rule="nonzero" d="M108.16 30.791s-14.388 1.565-9.04 8.853c5.348 7.288-5.498 5.244-5.498 5.244s-9.947-4.914-10.299-3.281c-.352 1.633-8.18-1.566-4.637-3.925 3.543-2.36-5.13-8.134-5.13-8.134s.352-4.704-1.446-5.626c-1.798-.92-3.595 1.498-5.243 3.438-1.648 1.94-4.839-5.378-7.663-4.187-2.824 1.191-6.906 4.697-6.876 6.802.03 2.104-4.988 4.688.12 9.46 5.108 4.771 9.026 6.741 4.659 10.554-4.367 3.812-5.715 4.808-5.88 8.59-.165 3.783-4.494 4.158-4.412 8.36.083 4.202-20.276 8.891-12.359 11.415 3.139.996.577 5.843-.629 9.618-1.835 5.76-7.64 11.804 5.468 6.928 3.25-1.213 15.73-3.34 14.576 5.715-1.153 9.056 10.36 3.633 15.205 4.831 4.847 1.199 2.113-7.707 8.727 0 6.614 7.708 20.029 1.499 16.254-.749-3.776-2.247 4.569-4.816 3.34-7.303-1.228-2.486-8.479-10.381 6.352-9.834 14.83.547 3.992-8.15 6.172-10.599 2.18-2.45 7.026-3.685 6.142-5.715-.884-2.03 1.198-3.101 4.127-.247s7.85-7.094.12-11.303c-7.73-4.21 6.052-11.333 4.42-16.037-1.634-4.704-11.131.981-10.585-5.123.547-6.105-5.984-7.745-5.984-7.745zM24.906 84.107a5.992 5.992 0 0 0-2.996-2.69c-1.895-.606-3.745 5.094-1.812 5.7 1.932.608 4.808-3.01 4.808-3.01zM8.697 88.706s12.547 7.04 6.884 8.007c-5.663.966-11.093 1.805-10.651-1.656.442-3.46 3.767-6.351 3.767-6.351z"/>
        <path fill="#FCBB74" fill-rule="nonzero" d="M43.16 76.534l-.18 11.55a.45.45 0 0 0 .45.434h1.498a.434.434 0 0 0 .457-.464l-.996-11.52H43.16z"/>
        <path fill="#80A882" fill-rule="nonzero" d="M43.797 76.901c-4.262.63-4.142 5.528-4.142 5.528s-.674-3.273.232-5.004a.315.315 0 0 0-.33-.457 4.906 4.906 0 0 0-3.236 1.993s1.244-2.996 4.045-3.895c0 0-.584-.464-3.408-.405 0 0 3.064-1.018 4.457-.846v-1.498l1.85 1.318.374.233.457-.248 1.79-1.4.038 1.498c1.378-.232 4.494.651 4.494.651-2.824.06-3.393.547-3.393.547 2.839.75 4.21 3.745 4.21 3.745a4.891 4.891 0 0 0-3.319-1.85.322.322 0 0 0-.314.465c.981 1.692.45 4.996.45 4.996s-.09-4.899-4.375-5.356"/>
    </g>
</svg>
