<svg xmlns="http://www.w3.org/2000/svg" width="108" height="121" viewBox="0 0 108 121">
    <g fill="none" fill-rule="evenodd">
        <path fill="#FFF" fill-rule="nonzero" stroke="#B2DADD" stroke-width="9" d="M69.588 115.723a3.273 3.273 0 0 0 4.247-.502c1.258-1.333 1.67-3.745-2.72-7.924-2.194-2.083-2.186.202-4.808 1.228-4.42 1.73.524 5.438 3.28 7.198z"/>
        <path fill="#F2E9CD" fill-rule="nonzero" d="M69.91 115.176a3.258 3.258 0 0 0 4.247-.509c1.266-1.333 1.678-3.745-2.72-7.925-2.186-2.082-2.186.203-4.808 1.229-4.42 1.737.517 5.453 3.28 7.205z"/>
        <path stroke="#B2DADD" stroke-width="8" d="M12.879 25.6s-9.258-3.55-8.502.18c.757 3.73 6.517 4.284 4.405 8.074-2.113 3.79-5.536 6.24-4.105 7.91 1.43 1.67 5.55 3.288 8.636 4.584 3.086 1.296 8.794-2.569 8.794-2.569s2.442 2.674 7.73-4.921c5.288-7.595 6.876 3.595 6.876 3.595s-1.498 11.236.232 11.056c1.73-.18-3.52 10.486-6.98 7.805-3.461-2.682-4.3 5.872-4.3 5.872s-10.547.225-10.846 2.247c-.3 2.023-4.622 6.562-2.247 7.535 2.374.974 4.367-2.471 6.456-.134 2.09 2.337 14.868 11.235 16.898 10.531 2.03-.704 6.195 3.273 9.116-3.25 2.921-6.525 3.513-10.967 8.681-8.008 5.169 2.959 6.547 3.94 10.27 2.846 3.722-1.093 5.505 2.944 9.557 1.498 4.052-1.445 15.73 3.071 15.542-5.43-.187-8.501 4.644-5.543 5.596-8.988.95-3.446-12.494-11.648-3.349-13.543 9.146-1.895 12.57-1.28 12.12-6.374-.45-5.093-8.157.51-2.9-8.449 5.26-8.958-5.182-19.894-6.111-15.49-.929 4.404-6.18-2.824-8.18-.809-2 2.015-7.243 11.648-11.632-2.891-4.39-14.539-9.213-1.169-12.299-2.464-3.086-1.296-5.902-5.588-7.573-4.06-1.67 1.528-3.4-.135-1.61-3.917 1.79-3.783-9.475-5.244-10.988 3.632S29.216 9.601 25.2 12.754c-4.014 3.154 4.644 10.487-1.445 11.94a33.706 33.706 0 0 1-10.876.906z"/>
        <path stroke="#B2DADD" stroke-width="8" d="M57.214 88.144c-.69-.33-8.54-1.498-8.165.165s2.787 3.685 4.262 8.763c1.476 5.079 1.498 7.116 6.217 3.955 4.72-3.16 10.854-1.67 8.711-6.352-2.142-4.68-.666-8.786-5.782-9.205-5.116-.42-5.243 2.674-5.243 2.674zM85.73 10.462a6.09 6.09 0 0 0-1.626 3.745c.045 2.045 6.164 1.91 6.12-.127-.046-2.037-4.495-3.618-4.495-3.618zM93.025 10.62s-6.63-7.76-.128-6.165c6.502 1.596 12.659 3.161 9.28 4.592-3.377 1.43-9.152 1.573-9.152 1.573z"/>
        <path fill="#F2E9CD" fill-rule="nonzero" d="M12.879 25.6s-9.258-3.55-8.502.18c.757 3.73 6.517 4.284 4.405 8.074-2.113 3.79-5.536 6.24-4.105 7.91 1.43 1.67 5.55 3.288 8.636 4.584 3.086 1.296 8.794-2.569 8.794-2.569s2.442 2.674 7.73-4.921c5.288-7.595 6.876 3.595 6.876 3.595s-1.498 11.236.232 11.056c1.73-.18-3.52 10.486-6.98 7.805-3.461-2.682-4.3 5.872-4.3 5.872s-10.547.225-10.846 2.247c-.3 2.023-4.622 6.562-2.247 7.535 2.374.974 4.367-2.471 6.456-.134 2.09 2.337 14.868 11.235 16.898 10.531 2.03-.704 6.195 3.273 9.116-3.25 2.921-6.525 3.513-10.967 8.681-8.008 5.169 2.959 6.547 3.94 10.27 2.846 3.722-1.093 5.505 2.944 9.557 1.498 4.052-1.445 15.73 3.071 15.542-5.43-.187-8.501 4.644-5.543 5.596-8.988.95-3.446-12.494-11.648-3.349-13.543 9.146-1.895 12.57-1.28 12.12-6.374-.45-5.093-8.157.51-2.9-8.449 5.26-8.958-5.182-19.894-6.111-15.49-.929 4.404-6.18-2.824-8.18-.809-2 2.015-7.243 11.648-11.632-2.891-4.39-14.539-9.213-1.169-12.299-2.464-3.086-1.296-5.902-5.588-7.573-4.06-1.67 1.528-3.4-.135-1.61-3.917 1.79-3.783-9.475-5.244-10.988 3.632S29.216 9.601 25.2 12.754c-4.014 3.154 4.644 10.487-1.445 11.94a33.706 33.706 0 0 1-10.876.906z"/>
        <path fill="#F2E9CD" fill-rule="nonzero" d="M56.989 87.477c-.69-.33-8.539-1.498-8.164.165.374 1.663 2.793 3.685 4.262 8.764 1.468 5.078 1.498 7.108 6.217 3.947 4.718-3.16 10.853-1.663 8.71-6.344-2.142-4.682-.666-8.786-5.782-9.206-5.116-.42-5.243 2.674-5.243 2.674zM85.504 9.803a6.09 6.09 0 0 0-1.61 3.745c.045 2.038 6.165 1.91 6.127-.127-.037-2.037-4.517-3.618-4.517-3.618zM92.8 9.953s-6.659-7.76-.127-6.142c6.531 1.618 12.658 3.16 9.288 4.592-3.371 1.43-9.161 1.55-9.161 1.55z"/>
        <path fill="#FCBB74" fill-rule="nonzero" d="M91.242 30.469l-.18 11.542a.434.434 0 0 0 .45.427h1.498a.434.434 0 0 0 .457-.464l-1.004-11.52-1.221.015z"/>
        <path fill="#80A882" fill-rule="nonzero" d="M91.879 30.836c-4.27.63-4.142 5.528-4.142 5.528s-.675-3.274.232-5.011a.315.315 0 0 0-.33-.45c-1.303.2-2.47.919-3.236 1.993 0 0 1.236-2.996 4.045-3.895 0 0-.592-.465-3.408-.405 0 0 3.064-1.018 4.494-.846v-1.498l1.85 1.318.375.232.494-.247 1.79-1.4v1.498c1.386-.233 4.495.651 4.495.651-2.824.06-3.394.547-3.394.547 2.84.749 4.202 3.745 4.202 3.745a4.876 4.876 0 0 0-3.318-1.85.315.315 0 0 0-.307.464c.981 1.693.442 4.996.442 4.996s-.082-4.898-4.374-5.355"/>
        <path fill="#FCBB74" fill-rule="nonzero" d="M76.09 24.784l-.18 11.55a.45.45 0 0 0 .449.434h1.498a.434.434 0 0 0 .457-.464l-.996-11.52h-1.229z"/>
        <path fill="#80A882" fill-rule="nonzero" d="M76.726 25.136c-4.262.629-4.142 5.528-4.142 5.528s-.674-3.274.232-5.004a.315.315 0 0 0-.33-.45 4.884 4.884 0 0 0-3.235 1.986s1.243-2.996 4.044-3.895c0 0-.591-.465-3.408-.405 0 0 3.064-1.018 4.494-.839V20.56l1.85 1.319.375.232.494-.247 1.79-1.401v1.498c1.386-.232 4.495.652 4.495.652-2.824.06-3.393.546-3.393.546 2.838.75 4.202 3.746 4.202 3.746a4.861 4.861 0 0 0-3.319-1.85.315.315 0 0 0-.307.464c.982 1.693.45 4.996.45 4.996s-.09-4.899-4.382-5.356"/>
        <path fill="#FCBB74" fill-rule="nonzero" d="M80.898 40.349l-.18 11.542a.442.442 0 0 0 .45.434h1.498a.434.434 0 0 0 .457-.464l-1.004-11.52-1.221.008z"/>
        <path fill="#80A882" fill-rule="nonzero" d="M81.497 40.708c-4.262.637-4.142 5.528-4.142 5.528s-.674-3.273.232-5.004a.315.315 0 0 0-.33-.449 4.884 4.884 0 0 0-3.235 1.985s1.243-2.996 4.045-3.895c0 0-.592-.464-3.408-.405 0 0 3.063-1.018 4.494-.838v-1.498l1.85 1.318.374.232.495-.247 1.722-1.416v1.498c1.386-.232 4.495.652 4.495.652-2.824.06-3.393.554-3.393.554 2.838.75 4.202 3.745 4.202 3.745a4.884 4.884 0 0 0-3.319-1.857.315.315 0 0 0-.307.464c.982 1.693.45 4.996.45 4.996s-.09-4.899-4.382-5.355"/>
        <path fill="#B2DADD" fill-rule="nonzero" stroke="#F2E9CD" d="M37.454 80.586c.615.345-.928-3.887-1.168-5.468-.24-1.58 6.352 2.247 5.325-2.479-1.026-4.726-.936-6.629-5.452-4.022-4.517 2.606-10.067.831-8.405 5.243 1.663 4.412.053 8.112 4.72 8.816 4.666.704 4.98-2.09 4.98-2.09z"/>
    </g>
</svg>
