<svg xmlns="http://www.w3.org/2000/svg" width="119" height="109" viewBox="0 0 119 109">
    <g fill="none" fill-rule="nonzero">
        <path fill="#FFF" stroke="#B2DADD" stroke-width="9" d="M104.33 82.256c1.237 2.247 3.813 2.726 5.454.914 2.494-2.757 5.243-6.367 4.546-8.36-1.19-3.52-5.895-2.995-4.794-7.123 1.101-4.127 3.453-7.145 2.045-8.523-1.408-1.379-7.85-1.573-10.486-2.285-2.165-.57-3.28 2.075-3.625 3.108-.24.251-.333.26-.42.233-.749-.277-4.771-4.847-3.445-9.386 1.183-4.09-5.019-12.037-5.019-12.037s3.55-2.052 3.468-4.12c-.082-2.066-2.599-2.434-4.674-2.943-2.075-.51 1.865-7.01-.172-8.92-2.037-1.91-6.277-3.79-7.783-2.705-1.505 1.086-5.475-2.075-6.793 4.869-1.318 6.943-3.888.06-8.487-1.895s-3.647-8.24-6.456-6.494c-2.81 1.745-2.862.24-5.88 2.397-3.019 2.157 2.007 6.044-1.948 6.584-1.13.157-3.745 9.123-5.827 5.842-4.494-7.228-10.726 2.247-14.291 1.408-4.967-1.153-2.802 5.116-2.727 8.352.075 3.55 8.988 12.314 1.94 15.85-7.048 3.535 1.693 11.04 2.854 15.961 1.16 4.921-7.663 6.33-10.487 16.09-2.823 9.759 11.146 8.238 11.198 3.744.053-4.494 6.951 5.244 12.075-3.647 1.325-2.307 9.625 19.587 14.606 5.67 4.98-13.917 7.565-.54 10.239.164 2.674.705 5.603 4.405 6.704 2.592 1.1-1.813 2.741-.487 1.902 3.55-.839 4.038 8.404 3.416 8.24-5.58-.165-8.996 10.718-.307 13.482-4.134 2.764-3.828-5.355-9.416-.749-11.985 2.315-1.348 4.112.6 5.31 2.809zM41.832 5.271c-.09-.749-1.978 2.921-2.854 3.985-.876 1.063-1.745-6.951-4.217-3.483-2.472 3.468-3.7 4.39.187 7.078 3.888 2.69 5.558 8.644 7.49 4.771 1.933-3.872 5.071-4.389 3.184-8.988-1.888-4.599-3.79-3.363-3.79-3.363zM12.657 20.311s.143 14.711-2.921 10.157c-3.064-4.554-5.932-8.988-3.243-10.306 2.689-1.319 6.164.15 6.164.15z"/>
        <path fill="#F2E9CD" d="M104.653 81.71c1.236 2.246 3.812 2.726 5.453.913 2.486-2.756 5.243-6.367 4.539-8.36-1.191-3.52-5.888-2.995-4.794-7.122 1.094-4.127 3.46-7.146 2.052-8.524-1.408-1.378-7.85-1.573-10.531-2.285-2.165-.57-3.273 2.075-3.625 3.109-.235.247-.327.257-.412.232-.75-.277-4.772-4.846-3.453-9.385 1.19-4.09-5.011-12.037-5.011-12.037s3.543-2.053 3.46-4.12c-.082-2.067-2.599-2.427-4.674-2.944-2.075-.516 1.873-7.01-.164-8.92-2.038-1.91-6.277-3.783-7.79-2.705-1.513 1.08-5.476-2.074-6.794 4.87-1.318 6.943-3.88.06-8.479-1.888-4.6-1.948-3.648-8.24-6.457-6.494-2.809 1.745-2.868.232-5.887 2.396-3.019 2.165 2.015 6.038-1.947 6.584-1.124.15-3.746 9.116-5.82 5.835-4.495-7.228-10.734 2.247-14.3 1.408-4.958-1.153-2.793 5.116-2.726 8.352.075 3.55 8.989 12.314 1.94 15.85-7.048 3.535 1.7 11.04 2.854 15.961 1.153 4.921-7.663 6.33-10.486 16.09-2.824 9.76 11.145 8.239 11.235 3.745.09-4.495 6.951 5.243 12.067-3.648 1.326-2.307 9.625 19.587 14.613 5.67 4.989-13.917 7.558-.54 10.24.165 2.681.704 9.437 2.104 8.598 6.15-.839 4.044 8.412 3.407 8.24-5.589-.173-8.995 10.718-.307 13.445-4.134 2.726-3.828-5.356-9.408-.712-11.985 2.322-1.318 4.12.6 5.326 2.81zM42.071 4.762c-.09-.75-1.977 2.92-2.853 3.984C38.34 9.81 37.472 1.796 35 5.264c-2.472 3.468-3.7 4.389.187 7.078s5.565 8.644 7.49 4.771c1.925-3.872 5.071-4.39 3.191-8.988-1.88-4.6-3.798-3.363-3.798-3.363zM12.98 19.765s.134 14.71-2.93 10.156c-3.063-4.554-5.924-8.988-3.243-10.306 2.682-1.318 6.172.15 6.172.15z"/>
        <path fill="#FCBB74" d="M42.02 71.972l-.188 12.291a.464.464 0 0 0 .45.457h1.497a.457.457 0 0 0 .465-.494l-1.019-12.254h-1.206z"/>
        <path fill="#80A882" d="M42.663 72.361c-4.27.667-4.142 5.88-4.142 5.88s-.674-3.49.225-5.325a.33.33 0 0 0-.322-.48 4.756 4.756 0 0 0-3.236 2.113s1.236-3.214 4.037-4.143c0 0-.592-.494-3.408-.434 0 0 3.064-1.079 4.457-.891v-1.596l1.857 1.416.375.24.487-.263 1.797-1.498v1.588c1.386-.247 4.495.704 4.495.704-2.824.06-3.393.577-3.393.577 2.838.81 4.21 3.97 4.21 3.97a4.786 4.786 0 0 0-3.32-1.977.33.33 0 0 0-.306.494c.981 1.798.45 5.31.45 5.31s-.09-5.205-4.383-5.7"/>
        <path fill="#FCBB74" d="M78.744 19.72l-.165 12.284c0 .25.199.456.45.464h1.498a.457.457 0 0 0 .464-.494L79.972 19.72h-1.228z"/>
        <path fill="#80A882" d="M79.388 20.11c-4.27.666-4.142 5.88-4.142 5.88s-.674-3.491.225-5.326a.337.337 0 0 0-.33-.487 4.816 4.816 0 0 0-3.228 2.112s1.236-3.206 4.037-4.135c0 0-.592-.494-3.408-.434 0 0 3.063-1.079 4.494-.891L77 15.233l1.85 1.416.382.24.487-.263 1.797-1.498v1.588c1.386-.247 4.494.704 4.494.704-2.823.06-3.393.577-3.393.577 2.84.809 4.21 3.97 4.21 3.97a4.786 4.786 0 0 0-3.318-1.978.33.33 0 0 0-.307.495c.98 1.797.449 5.31.449 5.31s-.09-5.205-4.382-5.7"/>
        <path fill="#FCBB74" d="M53.235 16.708l-.165 12.284c0 .251.2.457.45.465h1.498a.464.464 0 0 0 .464-.495l-1.018-12.261-1.229.007z"/>
        <path fill="#80A882" d="M53.88 17.098c-4.27.666-4.143 5.88-4.143 5.88s-.674-3.49.225-5.333a.33.33 0 0 0-.33-.48 4.816 4.816 0 0 0-3.228 2.112s1.236-3.205 4.037-4.134c0 0-.591-.495-3.408-.435 0 0 3.064-1.078 4.494-.891v-1.595l1.85 1.408.382.247.487-.262 1.798-1.498v1.588c1.386-.248 4.494.704 4.494.704-2.824.06-3.393.577-3.393.577 2.839.808 4.21 3.97 4.21 3.97a4.786 4.786 0 0 0-3.319-1.978.33.33 0 0 0-.307.494c.982 1.798.45 5.31.45 5.31s-.09-5.205-4.382-5.7"/>
    </g>
</svg>
