<svg xmlns="http://www.w3.org/2000/svg" width="124" height="111" viewBox="0 0 124 111">
    <g fill="none" fill-rule="evenodd">
        <path stroke="#B2DADD" stroke-width="9" d="M14.616 105.11S4.54 96.054 9.942 96.33c5.4.277 10.569.637 9.445 3.745-1.123 3.109-4.771 5.034-4.771 5.034z"/>
        <path fill="#F2E9CD" fill-rule="nonzero" d="M14.766 105.132s-10.067-9.055-4.667-8.778c5.4.277 10.562.636 9.438 3.745-1.124 3.108-4.771 5.033-4.771 5.033z"/>
        <path stroke="#B2DADD" stroke-width="9" d="M11.844 58.775a3.745 3.745 0 0 1-5.393-1.783c-1.318-3.22-2.546-7.198-1.198-8.411 2.382-2.127 6.561.39 7.026-3.229.464-3.617-.622-6.995 1.183-7.407 1.806-.412 7.858 2.366 10.6 3.04 2.246.555 9.377-2.673 9.796-6.74.375-3.648 8.36-1.341 8.36-1.341s-2.555-3.169-1.73-4.697c.823-1.528 3.295-.666 5.407-.12 2.112.547.794-6.172 3.386-6.696 2.591-.524 7.19 0 8.202 1.498 1.01 1.498 13.774-4.12 12.486 1.753-1.288 5.872-4.36 6.838.622 7.445 4.98.607 6.374-4.614 8.344-2.007 1.97 2.606 2.576 1.498 4.599 4.494 2.022 2.996-4.06 3.67-.577 5.88.989.629.202 8.644 3.296 7.078 6.808-3.438 9.153 6.57 12.733 7.558 5.026 1.37.75 5.153-.487 7.58-1.355 2.659-12.785 5.243-7.535 11.153s-13.7 10.704-16.553 13.917c-2.854 3.213-10.03-15.026-9.46-6.27.599 9.221 1.707 1.034-3.626 9.573-1.258 2.022-8.606 3.124-10.157-3.468-2.943-12.449-8.778-2.577-11.52-3.258-2.741-.682-6.793.809-7.153-1.064-.36-1.872-2.374-1.618-3.056 1.835-.682 3.453-9.033-1.228-5.618-7.977 3.416-6.749-9.804-5.13-10.988-9.273-1.183-4.142 8.382-4.719 4.996-8.786-1.708-2.052-4.067-1.416-5.985-.277zM111.93 81.868a4.494 4.494 0 0 1-3.94-2.472c-.75-1.618-.352-3.633 5.325-4.584 2.831-.472 2.053 1.236 4.247 3.295 3.7 3.476-2.352 3.805-5.633 3.76z"/>
        <path fill="#F2E9CD" fill-rule="nonzero" d="M11.844 58.775a3.745 3.745 0 0 1-5.393-1.783c-1.318-3.22-2.546-7.198-1.198-8.411 2.382-2.127 6.561.39 7.026-3.229.464-3.617-.622-6.995 1.183-7.407 1.806-.412 7.858 2.366 10.6 3.04 2.246.555 9.377-2.673 9.796-6.74.375-3.648 8.36-1.341 8.36-1.341s-2.555-3.169-1.73-4.697c.823-1.528 3.295-.666 5.407-.12 2.112.547.794-6.172 3.386-6.696 2.591-.524 7.19 0 8.202 1.498 1.01 1.498 13.774-4.12 12.486 1.753-1.288 5.872-4.36 6.838.622 7.445 4.98.607 6.374-4.614 8.344-2.007 1.97 2.606 2.576 1.498 4.599 4.494 2.022 2.996-4.06 3.67-.577 5.88.989.629.202 8.644 3.296 7.078 6.808-3.438 9.153 6.57 12.733 7.558 5.026 1.37.75 5.153-.487 7.58-1.355 2.659-12.785 5.243-7.535 11.153s-13.7 10.704-16.553 13.917c-2.854 3.213-10.03-15.026-9.46-6.27.599 9.221 1.707 1.034-3.626 9.573-1.258 2.022-8.606 3.124-10.157-3.468-2.943-12.449-8.778-2.577-11.52-3.258-2.741-.682-6.793.809-7.153-1.064-.36-1.872-2.374-1.618-3.056 1.835-.682 3.453-9.033-1.228-5.618-7.977 3.416-6.749-10.156-4.98-11.302-9.123-1.146-4.142 8.696-4.869 5.31-8.936-1.708-2.052-4.067-1.416-5.985-.277zM111.93 81.868a4.494 4.494 0 0 1-3.94-2.472c-.75-1.618-.352-3.633 5.325-4.584 2.831-.472 2.053 1.236 4.247 3.295 3.7 3.476-2.352 3.805-5.633 3.76z"/>
        <path stroke="#B2DADD" stroke-width="9" d="M45.423 7.998a5.992 5.992 0 0 0-2.996-2.689c-1.902-.606-3.745 5.094-1.82 5.7 1.925.607 4.816-3.01 4.816-3.01zM29.214 12.56s12.54 7.04 6.884 8.007c-5.655.966-11.093 1.805-10.651-1.655.442-3.46 3.767-6.352 3.767-6.352z"/>
        <path fill="#F2E9CD" fill-rule="nonzero" d="M45.408 7.998a5.992 5.992 0 0 0-2.996-2.689c-1.902-.606-3.745 5.094-1.82 5.7 1.925.607 4.816-3.01 4.816-3.01zM29.2 12.56s12.546 7.04 6.883 8.007c-5.663.966-11.093 1.805-10.644-1.655.45-3.46 3.76-6.352 3.76-6.352z"/>
        <path fill="#FCBB74" fill-rule="nonzero" d="M87.676 48.416L87.511 60.7a.45.45 0 0 0 .442.457h1.498a.457.457 0 0 0 .457-.494L88.92 48.43l-1.243-.015z"/>
        <path fill="#80A882" fill-rule="nonzero" d="M88.313 48.798c-4.27.674-4.142 5.88-4.142 5.88s-.675-3.483.232-5.326a.33.33 0 0 0-.33-.48 4.779 4.779 0 0 0-3.236 2.113s1.236-3.213 4.038-4.142c0 0-.585-.494-3.408-.434 0 0 3.063-1.079 4.494-.892V43.93l1.857 1.408.375.248.494-.27 1.79-1.498v1.595c1.386-.247 4.494.697 4.494.697-2.823.06-3.393.584-3.393.584 2.847.81 4.21 3.963 4.21 3.963a4.816 4.816 0 0 0-3.318-1.978.33.33 0 0 0-.307.494c.98 1.806.45 5.319.45 5.319s-.09-5.244-4.383-5.7"/>
        <path fill="#FCBB74" fill-rule="nonzero" d="M82.927 60.663l-.165 12.291a.45.45 0 0 0 .45.457h1.498a.457.457 0 0 0 .457-.494l-1.019-12.254h-1.22z"/>
        <path fill="#80A882" fill-rule="nonzero" d="M83.564 61.052c-4.262.667-4.135 5.88-4.135 5.88s-.681-3.49.225-5.326a.33.33 0 0 0-.33-.48 4.794 4.794 0 0 0-3.235 2.113s1.235-3.213 4.044-4.142c0 0-.591-.494-3.415-.434 0 0 3.063-1.079 4.456-.892v-1.595l1.85 1.416.375.24.494-.263 1.79-1.498.038 1.588c1.378-.24 4.494.704 4.494.704-2.824.06-3.385.577-3.385.577 2.838.809 4.21 3.97 4.21 3.97a4.846 4.846 0 0 0-3.327-1.978.33.33 0 0 0-.307.495c.982 1.797.45 5.31.45 5.31s-.09-5.206-4.382-5.7"/>
        <path fill="#FCBB74" fill-rule="nonzero" d="M60.531 15.384l-.165 12.284a.457.457 0 0 0 .45.464h1.498a.45.45 0 0 0 .457-.487l-1.019-12.261h-1.22z"/>
        <path fill="#80A882" fill-rule="nonzero" d="M61.205 15.773c-4.262.667-4.134 5.88-4.134 5.88s-.682-3.49.224-5.333a.33.33 0 0 0-.33-.48 4.839 4.839 0 0 0-3.25 2.113s1.236-3.206 4.045-4.135c0 0-.592-.494-3.416-.434 0 0 3.064-1.079 4.494-.891v-1.596l1.85 1.408.375.248.494-.263 1.79-1.498v1.588c1.379-.247 4.495.704 4.495.704-2.817.06-3.386.577-3.386.577 2.839.809 4.21 3.97 4.21 3.97a4.801 4.801 0 0 0-3.326-1.977.337.337 0 0 0-.307.494c.981 1.798.45 5.31.45 5.31s-.09-5.243-4.383-5.7"/>
    </g>
</svg>
