<svg xmlns="http://www.w3.org/2000/svg" width="100" height="127" viewBox="0 0 100 127">
    <g fill="none" fill-rule="evenodd">
        <path stroke="#B2DADD" stroke-width="9" d="M35.013 111.627s12.876-6.621 5.243-11.505c-7.632-4.884 3.259-6.846 3.259-6.846s11.048 1.018 10.786-.63c-.262-1.647 8.202-1.497 5.737 1.993-2.464 3.49 7.708 5.76 7.708 5.76s1.363 4.494 3.37 4.726c2.008.233 2.81-2.711 3.67-5.086.862-2.374 6.442 3.281 8.652 1.154 2.21-2.127 4.756-6.861 3.977-8.809-.779-1.947 2.996-6.172-3.505-8.786-6.502-2.614-10.831-2.996-8.135-8.187 2.697-5.19 3.618-6.539 2.405-10.126-1.214-3.588 2.681-5.483 1.123-9.393-1.558-3.91 15.73-15.565 7.446-15.078-3.289.187-2.637-5.243-2.87-9.213-.351-6.03 2.9-13.76-7.587-4.494-2.599 2.3-13.482 8.756-15.655-.105-2.172-8.861-10.973.322-15.931.944-4.959.621.801 7.947-8.142 3.138-8.944-4.809-19.235 5.783-14.898 6.532 4.336.749-2.532 6.142-.495 8.022 2.038 1.88 11.633 6.644-2.404 11.46-14.037 4.816-.802 9.033-1.955 12.097-1.154 3.063-5.243 5.992-3.685 7.542 1.558 1.55 0 3.326-3.745 1.716-3.746-1.61-4.78 9.437 3.947 10.59 8.726 1.154-1.588 12.734 1.625 16.554 3.214 3.82 10.037-4.913 11.715.989 1.678 5.902 8.344 5.04 8.344 5.04z"/>
        <path fill="#F2E9CD" fill-rule="nonzero" d="M35.013 111.627s12.876-6.621 5.243-11.505c-7.632-4.884 3.259-6.846 3.259-6.846s11.048 1.018 10.786-.63c-.262-1.647 8.202-1.497 5.737 1.993-2.464 3.49 7.708 5.76 7.708 5.76s1.363 4.494 3.37 4.726c2.008.233 2.81-2.711 3.67-5.086.862-2.374 6.442 3.281 8.652 1.154 2.21-2.127 4.756-6.861 3.977-8.809-.779-1.947 2.996-6.172-3.505-8.786-6.502-2.614-10.831-2.996-8.135-8.187 2.697-5.19 3.618-6.539 2.405-10.126-1.214-3.588 2.681-5.483 1.123-9.393-1.558-3.91 15.73-15.565 7.446-15.078-3.289.187-2.637-5.243-2.87-9.213-.351-6.03 2.9-13.76-7.587-4.494-2.599 2.3-13.482 8.756-15.655-.105-2.172-8.861-10.973.322-15.931.944-4.959.621.801 7.947-8.142 3.138-8.944-4.809-19.235 5.783-14.898 6.532 4.336.749-2.532 6.142-.495 8.022 2.038 1.88 11.633 6.644-2.404 11.46-14.037 4.816-.802 9.033-1.955 12.097-1.154 3.063-5.243 5.992-3.685 7.542 1.558 1.55 0 3.326-3.745 1.716-3.746-1.61-4.78 9.437 3.947 10.59 8.726 1.154-1.588 12.734 1.625 16.554 3.214 3.82 10.037-4.913 11.715.989 1.678 5.902 8.344 5.04 8.344 5.04z"/>
        <path stroke="#B2DADD" stroke-width="8" d="M87.108 111.282c-.524-.254-6.591-1.176-6.3.128.293 1.303 2.15 2.846 3.289 6.741 1.139 3.895 1.168 5.49 4.801 3.049 3.633-2.442 8.382-1.289 6.741-4.9-1.64-3.61-.516-6.785-4.494-7.107-3.977-.322-4.037 2.09-4.037 2.09z"/>
        <path fill="#F2E9CD" fill-rule="nonzero" d="M86.95 110.766c-.524-.255-6.59-1.176-6.299.134.293 1.311 2.15 2.847 3.289 6.742 1.138 3.895 1.168 5.49 4.801 3.048s8.382-1.288 6.741-4.898c-1.64-3.61-.517-6.787-4.494-7.109-3.977-.322-4.037 2.083-4.037 2.083z"/>
        <path fill="#FFF" fill-rule="nonzero" stroke="#B2DADD" stroke-width="9" d="M8.138 21.564a1.85 1.85 0 0 0 2.397-.285c.749-.749.951-2.127-1.498-4.494-1.236-1.176-1.236.112-2.719.697-2.54.996.255 3.093 1.82 4.082z"/>
        <path fill="#F2E9CD" fill-rule="nonzero" d="M8.318 21.257c.759.517 1.783.4 2.404-.277.75-.75.944-2.128-1.543-4.494-1.236-1.176-1.236.112-2.719.696-2.494.981.3 3.086 1.858 4.075z"/>
        <path fill="#FFF" fill-rule="nonzero" stroke="#B2DADD" stroke-width="9" d="M29.029 5.422c-.09-.749-1.985 2.922-2.862 3.978-.876 1.056-1.738-6.944-4.217-3.476-2.48 3.468-3.7 4.39.195 7.079s5.558 8.643 7.49 4.77c1.933-3.872 5.079-4.388 3.191-8.987-1.887-4.6-3.797-3.364-3.797-3.364z"/>
        <path fill="#F2E9CD" fill-rule="nonzero" d="M29.283 4.913c-.09-.749-1.985 2.921-2.861 3.985-.876 1.063-1.738-6.951-4.217-3.483-2.48 3.468-3.7 4.39.195 7.078 3.895 2.69 5.557 8.644 7.49 4.771 1.932-3.872 5.078-4.389 3.19-8.988-1.887-4.599-3.797-3.363-3.797-3.363z"/>
        <path fill="#FCBB74" fill-rule="nonzero" d="M25.92 82.797l-.165 12.284a.45.45 0 0 0 .442.457h1.498a.457.457 0 0 0 .457-.495l-.966-12.231-1.266-.015z"/>
        <path fill="#80A882" fill-rule="nonzero" d="M26.557 83.179c-4.27.674-4.142 5.88-4.142 5.88s-.675-3.483.232-5.326a.33.33 0 0 0-.33-.48 4.779 4.779 0 0 0-3.236 2.113s1.236-3.213 4.038-4.142c0 0-.585-.494-3.408-.435 0 0 3.063-1.078 4.494-.89l-.038-1.589 1.858 1.408.374.248.495-.27 1.79-1.498v1.595c1.386-.247 4.494.697 4.494.697-2.824.06-3.393.584-3.393.584 2.839.81 4.21 3.962 4.21 3.962a4.816 4.816 0 0 0-3.319-1.977.33.33 0 0 0-.307.494c.981 1.806.45 5.318.45 5.318s-.09-5.243-4.382-5.7"/>
        <path fill="#FCBB74" fill-rule="nonzero" d="M33.41 91.62l-.164 12.284c0 .251.198.457.449.465h1.498a.464.464 0 0 0 .464-.494l-.98-12.24-1.267-.015z"/>
        <path fill="#80A882" fill-rule="nonzero" d="M34.054 92.01c-4.269.667-4.142 5.88-4.142 5.88s-.674-3.49.225-5.333a.33.33 0 0 0-.33-.48 4.816 4.816 0 0 0-3.228 2.113s1.236-3.206 4.037-4.135c0 0-.591-.494-3.408-.434 0 0 3.064-1.08 4.495-.892l-.038-1.595 1.85 1.408.382.247.487-.262 1.798-1.498v1.588c1.385-.247 4.494.704 4.494.704-2.824.06-3.393.577-3.393.577 2.839.809 4.21 3.97 4.21 3.97a4.786 4.786 0 0 0-3.319-1.978.33.33 0 0 0-.307.494c.981 1.798.45 5.311.45 5.311s-.09-5.206-4.382-5.7"/>
    </g>
</svg>
