<svg width="6" height="8" viewBox="0 0 6 8" fill="none" xmlns="http://www.w3.org/2000/svg">
<path d="M3.83592 2.26509C3.57925 2.07632 3.33711 1.89798 3.18697 1.74111C2.80771 1.34514 2.3601 1.02164 1.92725 0.708771L1.83786 0.644114C1.76235 0.589438 1.68381 0.520225 1.60049 0.446889C1.31409 0.195206 0.958266 -0.118314 0.530621 0.0452801C-0.131133 0.298482 -0.0191772 1.46013 0.0624029 2.30826C0.0834489 2.52436 0.101457 2.71096 0.101457 2.84135C0.102108 3.80535 0.175226 4.78062 0.245741 5.72357L0.291305 6.34279C0.297597 6.42915 0.290003 6.56302 0.281975 6.70448C0.2644 7.01475 0.244656 7.36645 0.340773 7.55825C0.466832 7.80907 0.639105 7.95465 0.852819 7.9911C0.887751 7.99696 0.923117 8 0.958917 8C1.45426 8 2.01794 7.45563 2.3998 7.087C2.4931 6.99695 2.57468 6.9182 2.63977 6.86222C3.40936 6.20524 4.15443 5.50161 4.85502 4.77107C5.18264 4.42913 5.2959 4.0707 5.19176 3.70576C5.03185 3.14489 4.39657 2.67733 3.83592 2.26509Z" fill="#8597A4"/>
</svg>
