<svg width="7" height="10" viewBox="0 0 7 10" fill="none" xmlns="http://www.w3.org/2000/svg">
<path d="M4.7949 2.83136C4.47406 2.5954 4.17139 2.37247 3.98371 2.17638C3.50963 1.68142 2.95013 1.27705 2.40906 0.885963L2.29732 0.805142C2.20294 0.736797 2.10476 0.650281 2.00062 0.558612C1.64262 0.244007 1.19783 -0.147893 0.663276 0.0566001C-0.163917 0.373103 -0.0239715 1.82517 0.0780037 2.88533C0.104311 3.15545 0.126822 3.3887 0.126822 3.55169C0.127635 4.75668 0.219033 5.97578 0.307177 7.15446L0.364131 7.92849C0.371996 8.03643 0.362503 8.20377 0.352469 8.3806C0.330501 8.76843 0.30582 9.20807 0.425967 9.44782C0.58354 9.76134 0.798882 9.94332 1.06602 9.98888C1.10969 9.9962 1.1539 10 1.19865 10C1.81782 10 2.52243 9.31953 2.99976 8.85874C3.11638 8.74619 3.21835 8.64774 3.29972 8.57777C4.2617 7.75655 5.19304 6.87701 6.06878 5.96384C6.47831 5.53641 6.61988 5.08837 6.4897 4.6322C6.28981 3.93112 5.49571 3.34666 4.7949 2.83136Z" fill="#8597A4"/>
</svg>
