<svg xmlns="http://www.w3.org/2000/svg" width="22" height="20" fill="none" viewBox="0 0 22 20">
    <path fill="#3C627B" d="M21.35 11.03c.504-1.696.537-4.26-.01-6.066-.006-.118-.01-.237-.018-.354-.087-1.401-.131-2.39-.369-3.69-.035-.199-.238-.41-.444-.582l.325.231A1.23 1.23 0 0 0 20.2.106C20.103.04 20.034 0 20.034 0l.14.1c-1.54-.423-3.94 2.43-4.75 3.24-.407.407-1.458.895-1.514.863-1.451-.863-3.997-3.12-5.699-3.158-1.288-.032-2.577 1.132-3.74 1.488-.694.207-1.389.413-2.077.632-.338.106-1 .382-1.063.4-.225.063-.563.42-.626.45-.294.15-.187.97-.194 1.033C.25 7.932.555 10.847.3 13.743c-.12 1.294-.626 3.996.03 5.316.629 1.264 3.908-1.438 4.692-1.438.182 0 .438-.313.495-.344.462-.282 1.945-1.652 2.82-1.595.262.016.538.093.82.21.064.054.123.106.169.153.25.25.826.638.888.7.232.207.75.563.8.6.245.175.666.45.924.617.27.27.513.528.71.747.456.513 1.376 1.339 2.133 1.289.706-.044 1.257-.888 1.72-1.332 1.426-1.358 3.102-2.74 4.41-4.173.681-.75.437-2.064.437-3.002l.003-.46zm-12.426.71l-.3-3.002c-.013-.125-.038-.375-.038-.444v-1.12l.113-4.19.005-.095c.067.056.15.108.183.132.375.281 1.138.838 1.188.882 1.12.982 2.24 1.97 3.36 2.959.15.134.36.324.594.497.019 3.23.037 6.467.062 9.699 0 .064.005.14.013.22-.768-.393-2.14-1.099-2.14-1.159l-.044-.044a41.348 41.348 0 0 1-1.37-1.382c-.38-.493-.74-.999-1.162-1.45l.043.03c-.112-.112-.258-.282-.422-.44.005-.376-.058-.802-.085-1.092zM7.86 14.533l-.024.024.024-.024z"/>
</svg>
