<svg width="129" height="103" viewBox="0 0 129 103" fill="none" xmlns="http://www.w3.org/2000/svg">
<g filter="url(#filter0_d)">
<path d="M4.03659 40.1969C3.3602 48.9518 12.2453 54.7551 15.4863 57C20.841 62.4718 32.2661 70.9233 35.9863 74.2906C40.6364 78.4997 57.5679 91.8955 63.4863 94C69.334 96.0794 74.0966 93.426 83.1806 88.3652L83.5119 88.1806C92.8122 83 89.2003 91 92.8122 91C96.027 91 99.0575 87.9199 102.486 86.5C104.924 85.4907 107.386 84.6947 109.486 83.5C110.534 82.9042 111.974 82 111.619 79C111.41 77.2311 111.199 75.3455 112.258 74.2906C114.372 72.186 117.336 72.2882 121.986 68.5C126.636 64.7118 123.25 55.7705 124.095 48.1942C124.941 40.6178 116.908 38.0923 112.258 34.7251C108.39 31.9242 98.3078 23.3605 92.8122 19.5723C87.3166 15.7841 74.6344 6.94501 69.9842 2.73591C65.3341 -1.47319 60.2612 0.210456 55.1883 1.05228C50.1154 1.89409 39.1241 7.36592 29.8238 11.9959C20.5235 16.6259 17.1416 17.8887 11.2232 21.6769C8.29088 23.5538 4.88207 29.2532 4.03659 40.1969Z" fill="#F4F7F9"/>
</g>
<path d="M12.7932 27.1277C15.1511 24.7666 16.3301 25.3568 16.9196 26.5374C19.2775 29.4887 28.1256 37.9549 29.8879 39.5235C35.1932 44.2457 44.0353 52.5097 51.109 59.0027C59.3616 65.8549 65.592 70.7026 66.4353 70.8082C67.0248 70.882 66.4353 73.1693 66.4353 73.1693C66.4353 73.1693 65.8458 73.7596 65.2564 76.1207C64.7848 78.0096 65.0599 80.4494 65.2564 81.4332L112.414 58.4124L119.201 63.8382C120.387 64.7015 119.343 65.5424 118.673 65.8549C101.998 73.7927 71.6471 88.1999 69.3827 89.1068C66.4353 90.2874 66.4353 89.6971 64.0774 89.1068C61.7195 88.5165 48.7511 77.8915 45.2142 75.5304C41.6774 73.1693 15.1511 50.1485 13.3827 48.9679C11.6143 47.7874 9.84588 46.0165 8.66693 43.6554C7.48799 41.2943 8.07746 38.9332 8.66693 34.211C9.13851 30.4332 11.4178 27.9148 12.7932 27.1277Z" fill="white"/>
<path d="M68.2037 69.0374C72.4479 65.2596 100.625 53.2967 114.183 47.7874C113.593 49.5582 112.061 54.0443 113.004 57.8221C113.947 61.5999 115.165 63.7249 115.951 64.3151C110.646 66.6762 105.93 69.0374 100.625 71.3985C95.3195 73.7596 81.1721 80.2526 73.509 83.7943C65.8458 87.336 65.8458 86.1554 64.6669 85.5651C63.4879 84.9749 62.309 83.204 62.8984 78.4818C63.37 74.704 66.6318 70.6114 68.2037 69.0374Z" fill="white"/>
<path d="M63.488 69.6276C61.6017 68.6832 60.7371 68.0536 60.5407 67.8568C54.8423 62.7411 43.2101 52.2735 42.267 51.329C41.088 50.1485 19.867 30.6693 18.688 29.4887L16.9196 27.7179C16.3301 25.9471 16.3301 26.5374 18.0985 24.1762C19.6802 22.0643 34.5133 14.5236 41.088 11.7804C48.1617 8.82903 52.8775 6.46793 59.3617 5.28736C63.5839 4.51863 66.4354 5.28742 69.3828 7.64847C70.412 8.473 76.4565 13.5513 78.2249 14.7318C79.9933 15.9124 110.646 39.5235 114.183 41.8846C117.72 44.2457 118.309 46.0165 117.72 47.1971C117.442 47.7536 116.541 48.3776 113.593 49.5582C110.646 50.7387 97.088 56.6415 94.1407 57.8221C91.1933 59.0026 76.4565 66.6762 71.7407 69.6276C67.0249 72.579 65.8459 70.8082 63.488 69.6276Z" fill="white"/>
<path d="M99.4458 61.3637L87.0668 67.2665C88.6388 69.0374 91.5026 73.1987 92.3721 74.9401C93.551 77.3012 94.1405 78.4818 94.1405 80.8429V85.5651C94.1405 85.5651 98.2668 83.204 99.4458 78.4818C99.7318 77.3365 100.035 75.9239 100.035 73.7596C102.865 74.704 106.127 78.0883 107.698 79.6624C107.698 78.8753 107.698 76.711 107.109 73.7596C106.743 71.9292 106.127 70.6114 105.93 70.2179C104.515 66.9124 100.625 62.5443 99.4458 61.3637Z" fill="white"/>
<path d="M21.6353 32.6522C19.2775 30.291 18.688 29.1105 17.509 27.3397C17.509 27.143 17.6269 26.6313 18.0985 26.1591C18.688 25.5688 19.1811 26.2273 20.4562 27.9297L20.4563 27.9299C22.2248 30.291 28.1195 35.6035 30.4774 37.9647C32.1392 39.6288 43.3963 50.2565 52.2879 58.0341C60.815 65.4927 67.0248 70.141 67.0248 70.4299C67.0248 71.0202 66.4353 71.6105 65.8458 71.6105C65.2563 71.6105 64.6669 72.2008 63.4879 71.6105C62.309 71.0202 36.3721 46.8188 34.6037 45.048C32.8353 43.2772 29.0247 40.0516 26.9406 37.9647L21.6353 32.6522Z" fill="#591747" fill-opacity="0.8"/>
<path d="M12.7932 27.1277C15.1511 24.7666 16.3301 25.3568 16.9196 26.5374C19.2775 29.4887 28.1256 37.9549 29.8879 39.5235C35.1932 44.2457 44.0353 52.5097 51.109 59.0027C59.3616 65.8549 65.592 70.7026 66.4353 70.8082C67.0248 70.882 66.4353 73.1693 66.4353 73.1693C66.4353 73.1693 65.8458 73.7596 65.2564 76.1207C64.7848 78.0096 65.0599 80.4494 65.2564 81.4332L112.414 58.4124L119.201 63.8382C120.387 64.7015 119.343 65.5424 118.673 65.8549C101.998 73.7927 71.6471 88.1999 69.3827 89.1068C66.4353 90.2874 66.4353 89.6971 64.0774 89.1068C61.7195 88.5165 48.7511 77.8915 45.2142 75.5304C41.6774 73.1693 15.1511 50.1485 13.3827 48.9679C11.6143 47.7874 9.84588 46.0165 8.66693 43.6554C7.48799 41.2943 8.07746 38.9332 8.66693 34.211C9.13851 30.4332 11.4178 27.9148 12.7932 27.1277Z" fill="#F45858"/>
<path d="M68.2037 69.0374C72.4479 65.2596 100.625 53.2967 114.183 47.7874C113.593 49.5582 112.061 54.0443 113.004 57.8221C113.947 61.5999 115.165 63.7249 115.951 64.3151C110.646 66.6762 105.93 69.0374 100.625 71.3985C95.3195 73.7596 81.1721 80.2526 73.509 83.7943C65.8458 87.336 65.8458 86.1554 64.6669 85.5651C63.4879 84.9749 62.309 83.204 62.8984 78.4818C63.37 74.704 66.6318 70.6114 68.2037 69.0374Z" fill="#F0E7D8"/>
<path d="M63.488 69.6276C61.6017 68.6832 60.7371 68.0536 60.5407 67.8568C54.8423 62.7411 43.2101 52.2735 42.267 51.329C41.088 50.1485 19.867 30.6693 18.688 29.4887L16.9196 27.7179C16.3301 25.9471 16.3301 26.5374 18.0985 24.1762C19.6802 22.0643 34.5133 14.5236 41.088 11.7804C48.1617 8.82903 52.8775 6.46793 59.3617 5.28736C63.5839 4.51863 66.4354 5.28742 69.3828 7.64847C70.412 8.473 76.4565 13.5513 78.2249 14.7318C79.9933 15.9124 110.646 39.5235 114.183 41.8846C117.72 44.2457 118.309 46.0165 117.72 47.1971C117.442 47.7536 116.541 48.3776 113.593 49.5582C110.646 50.7387 97.088 56.6415 94.1407 57.8221C91.1933 59.0026 76.4565 66.6762 71.7407 69.6276C67.0249 72.579 65.8459 70.8082 63.488 69.6276Z" fill="#F45858" fill-opacity="0.82"/>
<path d="M35.7827 31.2597C34.3679 29.843 35.9792 28.3083 36.9616 27.718C41.0879 25.3569 44.2399 23.558 51.109 20.6347C60.5406 17.093 60.5407 16.5029 63.4879 15.9124C65.2564 15.558 67.0248 15.9123 70.5616 19.4541C72.0645 20.959 75.8669 24.1764 77.0458 25.3569C78.2248 26.5375 75.8255 27.0153 74.0985 27.718C55.2353 35.3916 49.93 40.7041 47.5722 40.1138C46.5412 39.8558 46.3932 40.1138 45.2143 38.9333C44.2823 37.9999 37.5511 33.0305 35.7827 31.2597Z" fill="#FBD3D3"/>
<path d="M99.4458 61.3637L87.0668 67.2665C88.6388 69.0374 91.5026 73.1987 92.3721 74.9401C93.551 77.3012 94.1405 78.4818 94.1405 80.8429V85.5651C94.1405 85.5651 98.2668 83.204 99.4458 78.4818C99.7318 77.3365 100.035 75.9239 100.035 73.7596C102.865 74.704 106.127 78.0883 107.698 79.6624C107.698 78.8753 107.698 76.711 107.109 73.7596C106.743 71.9292 106.127 70.6114 105.93 70.2179C104.515 66.9124 100.625 62.5443 99.4458 61.3637Z" fill="#6D9DE6"/>
<defs>
<filter id="filter0_d" x="0" y="0" width="128.502" height="102.712" filterUnits="userSpaceOnUse" color-interpolation-filters="sRGB">
<feFlood flood-opacity="0" result="BackgroundImageFix"/>
<feColorMatrix in="SourceAlpha" type="matrix" values="0 0 0 0 0 0 0 0 0 0 0 0 0 0 0 0 0 0 127 0"/>
<feOffset dy="4"/>
<feGaussianBlur stdDeviation="2"/>
<feColorMatrix type="matrix" values="0 0 0 0 0.164767 0 0 0 0 0.217544 0 0 0 0 0.252729 0 0 0 0.14 0"/>
<feBlend mode="normal" in2="BackgroundImageFix" result="effect1_dropShadow"/>
<feBlend mode="normal" in="SourceGraphic" in2="effect1_dropShadow" result="shape"/>
</filter>
</defs>
</svg>
