<svg width="22" height="14" viewBox="0 0 22 14" fill="none" xmlns="http://www.w3.org/2000/svg">
<path d="M3.04045 11.6435C3.06647 10.6957 2.93765 9.78112 2.81268 8.89669C2.76738 8.57511 2.72208 8.25482 2.6845 7.93452L2.68257 7.92263C2.61446 7.61583 2.61446 7.31192 2.61446 6.9897L2.61575 6.9428C2.63085 6.36582 2.60483 5.99605 2.5364 5.81389C2.35906 5.31723 1.73871 5.35064 1.32814 5.37216C1.24911 5.37634 1.17523 5.38052 1.11162 5.38052H0.827623C0.791963 5.38052 0.736386 5.39465 0.686591 5.40975C0.615271 5.3924 0.534957 5.40204 0.467814 5.40975C0.442756 5.41264 0.419304 5.41585 0.401635 5.41585L0.373043 5.41939C0.0235133 5.50677 0.0309022 5.96906 0.0341148 6.19137L0.0350786 6.23763C0.0164456 6.56757 0.0533901 6.87983 0.0890498 7.18149C0.125031 7.48637 0.158763 7.77453 0.141415 8.0868C0.131135 8.45078 0.115393 8.81477 0.0996517 9.17876C0.0601369 10.0799 0.0193372 11.0115 0.0704173 11.9242C0.0704173 12 0.0797333 12.0759 0.0890498 12.152C0.0974025 12.2182 0.106077 12.2844 0.106719 12.3387C0.0996514 12.4064 0.0832676 12.4877 0.0659197 12.5761C-0.0102186 12.9561 -0.124908 13.5302 0.409023 13.7079C0.488374 13.7278 0.616878 13.7368 0.753092 13.7461C0.856858 13.7532 0.998854 13.7631 1.03933 13.7766L1.07692 13.7827L1.45119 13.7811C1.63045 13.7512 1.78369 13.6982 1.94657 13.642L2.62571 13.377C3.14197 13.0865 3.09603 12.4771 3.05941 11.9875C3.04945 11.8648 3.04045 11.7472 3.04045 11.6435Z" fill="#2A3740"/>
<path d="M21.5391 4.85815C21.4928 4.69013 21.3919 4.5446 21.2197 4.46075C21.0334 4.37016 20.8194 4.35923 20.6122 4.35024C19.1058 4.2847 17.611 4.26286 16.1021 4.26286C14.5604 4.26286 13.0186 4.26286 11.4769 4.26286C10.8929 4.26286 10.3085 4.26286 9.72446 4.26286C9.42215 4.26286 8.96532 4.34542 8.69386 4.20085C9.3534 3.61456 10.028 3.06681 10.5992 2.37643C10.8453 2.07926 11.0892 1.70853 10.9915 1.33523C10.8794 0.907311 10.3458 0.708773 9.91464 0.807721C9.48319 0.906669 9.13591 1.2154 8.80855 1.5132C7.81682 2.41594 6.82542 3.319 5.8337 4.22174C5.56287 4.46846 5.28659 4.7184 4.95537 4.87485C4.69323 4.99854 4.39928 5.06247 4.16636 5.23498C3.84735 5.47111 3.9508 5.67672 3.9296 5.99187C3.91128 6.26751 3.80591 6.50813 3.83482 6.79791C3.88044 7.04849 3.89618 7.35176 3.91161 7.64507C3.91964 7.80023 3.92767 7.95444 3.9402 8.10318C3.96236 8.30108 4.02212 8.47295 4.07994 8.63936C4.12042 8.75534 4.16219 8.87517 4.18885 8.99242C4.21198 9.17618 4.20331 9.37601 4.19528 9.56908C4.19142 9.66096 4.18789 9.74899 4.18821 9.83733C4.2213 10.3636 4.2878 11.0302 4.36651 11.6203C4.36651 11.6203 4.38643 11.7761 4.38643 11.7765C4.48023 12.5134 4.58753 13.5909 5.48641 13.6237C6.10419 13.6462 6.72711 13.6237 7.34522 13.6237C8.34048 13.6237 9.38039 13.5363 10.3712 13.6291C11.085 13.696 11.857 13.7278 12.4137 13.1688C12.6765 12.8308 12.824 12.4569 12.9605 12.08C13.0498 11.8834 13.1391 11.6692 13.2287 11.4549C13.3168 11.2432 13.4051 11.0315 13.4935 10.8368C13.6666 10.4471 13.8607 10.069 14.0483 9.70337C14.3185 9.17715 14.5976 8.63326 14.8129 8.05114C14.8479 7.92328 14.9054 7.79863 14.9613 7.67783C15.0313 7.52652 15.1107 7.36654 15.1341 7.19948C15.1646 6.97974 15.0047 6.77317 15.0259 6.58973C15.0625 6.27394 15.2418 6.34011 15.5302 6.34011C16.1088 6.34011 16.6877 6.34011 17.2663 6.34011C18.2882 6.34011 19.2652 6.3051 20.2765 6.19137C20.7292 6.14029 21.2435 6.01693 21.4494 5.61021C21.5593 5.39176 21.6062 5.10166 21.5391 4.85815Z" fill="#2A3740"/>
</svg>
