<svg width="31" height="20" viewBox="0 0 31 20" fill="none" xmlns="http://www.w3.org/2000/svg">
<path d="M4.36963 16.3914C4.40703 15.0293 4.22188 13.7149 4.04228 12.4438C3.97718 11.9817 3.91208 11.5213 3.85806 11.061L3.85529 11.0439C3.75741 10.603 3.75741 10.1662 3.75741 9.70316L3.75926 9.63576C3.78096 8.80654 3.74356 8.27512 3.64522 8.01334C3.39036 7.29955 2.49882 7.34756 1.90876 7.3785C1.79518 7.3845 1.68899 7.3905 1.59757 7.3905H1.18943C1.13818 7.3905 1.05831 7.41082 0.986744 7.43252C0.884246 7.40759 0.768821 7.42144 0.672325 7.43252C0.636313 7.43667 0.602609 7.44129 0.577215 7.44129L0.536123 7.44637C0.0337925 7.57195 0.0444115 8.23634 0.0490285 8.55584L0.0504137 8.62232C0.0236351 9.09649 0.0767304 9.54526 0.127979 9.9788C0.17969 10.417 0.228168 10.8311 0.203237 11.2799C0.188462 11.803 0.165839 12.3261 0.143216 12.8492C0.0864265 14.1443 0.0277907 15.4832 0.101201 16.7949C0.101201 16.9039 0.11459 17.0128 0.127979 17.1222C0.139983 17.2173 0.15245 17.3125 0.153373 17.3905C0.143215 17.4879 0.119669 17.6047 0.0947374 17.7317C-0.0146858 18.2779 -0.179514 19.1029 0.587834 19.3583C0.701874 19.3869 0.886555 19.3998 1.08232 19.4132C1.23145 19.4234 1.43552 19.4377 1.49369 19.4571L1.54771 19.4658L2.08559 19.4635C2.34322 19.4206 2.56345 19.3444 2.79754 19.2636L3.77357 18.8827C4.51553 18.4653 4.4495 17.5895 4.39687 16.8859C4.38256 16.7095 4.36963 16.5405 4.36963 16.3914Z" fill="#2A3740"/>
<path d="M30.9552 6.63978C30.8887 6.39831 30.7438 6.18916 30.4963 6.06866C30.2285 5.93846 29.921 5.92276 29.6232 5.90983C27.4583 5.81565 25.31 5.78425 23.1414 5.78425C20.9257 5.78425 18.71 5.78425 16.4943 5.78425C15.6549 5.78425 14.8151 5.78425 13.9757 5.78425C13.5412 5.78425 12.8847 5.90291 12.4946 5.69514C13.4424 4.85254 14.412 4.06534 15.2329 3.07314C15.5866 2.64607 15.937 2.11326 15.7966 1.57677C15.6355 0.96178 14.8686 0.676449 14.249 0.818653C13.629 0.960857 13.1299 1.40455 12.6594 1.83255C11.2341 3.12993 9.8093 4.42777 8.38403 5.72515C7.99481 6.07974 7.59775 6.43894 7.12174 6.66379C6.74499 6.84155 6.32253 6.93342 5.9878 7.18136C5.52933 7.52071 5.678 7.8162 5.64752 8.26913C5.62121 8.66527 5.46977 9.01108 5.51132 9.42753C5.57688 9.78766 5.59951 10.2235 5.62167 10.645C5.63321 10.868 5.64475 11.0897 5.66276 11.3034C5.69462 11.5878 5.78049 11.8348 5.8636 12.074C5.92177 12.2407 5.9818 12.4129 6.02012 12.5814C6.05336 12.8455 6.04089 13.1327 6.02935 13.4102C6.02381 13.5422 6.01873 13.6687 6.01919 13.7957C6.06675 14.552 6.16232 15.51 6.27544 16.3581C6.27544 16.3581 6.30406 16.5821 6.30406 16.5825C6.43888 17.6417 6.59309 19.1902 7.88493 19.2373C8.77278 19.2696 9.66802 19.2373 10.5563 19.2373C11.9867 19.2373 13.4812 19.1117 14.9051 19.2451C15.931 19.3412 17.0405 19.3869 17.8406 18.5835C18.2183 18.0978 18.4302 17.5604 18.6264 17.0188C18.7548 16.7363 18.8831 16.4283 19.0119 16.1204C19.1384 15.8161 19.2654 15.5118 19.3924 15.232C19.6412 14.672 19.9201 14.1286 20.1897 13.6032C20.578 12.8469 20.9792 12.0652 21.2886 11.2286C21.3389 11.0449 21.4215 10.8657 21.5019 10.6921C21.6025 10.4747 21.7166 10.2447 21.7503 10.0047C21.7941 9.68886 21.5642 9.39198 21.5947 9.12835C21.6473 8.6745 21.9049 8.76961 22.3196 8.76961C23.1511 8.76961 23.9831 8.76961 24.8146 8.76961C26.2833 8.76961 27.6873 8.71928 29.1407 8.55584C29.7913 8.48243 30.5304 8.30514 30.8264 7.72062C30.9843 7.40667 31.0517 6.98975 30.9552 6.63978Z" fill="#2A3740"/>
</svg>
