<svg xmlns="http://www.w3.org/2000/svg" width="57" height="56" fill="none" viewBox="0 0 57 56">
    <path fill="#E0EFF1" fill-rule="evenodd" d="M4.065 21.684C4.394 16.764 9.977 2 28.04 2c9.6 0 16.858 3.297 21.019 9.186C53 16.763 53 24.556 53 28.246c0 7.873-6.897 15.747-16.093 19.684-9.195 3.937-17.406 2.297-24.96-5.25-7.553-7.545-8.21-16.075-7.882-20.996z" clip-rule="evenodd" filter="url(#a)"/>
    <path fill="#3C627B" fill-rule="evenodd" d="M40.072 15.608c2.48 2.095 2.93 5.037 3.344 8.028.28 2.021.1 3.762-.661 5.665-.638 1.595-1.385 3.457-2.366 4.868-.754 1.084-1.505 1.538-2.509 2.144l-.275.166c-.392.239-.733.483-1.064.719-.691.495-1.334.954-2.288 1.252-.347.109-.679.22-1.004.329-1.259.421-2.41.807-3.854.852-1.427.045-2.864-.115-4.23-.537-2.609-.806-5.572-2.599-7.47-4.513-1.906-1.921-3.39-4.93-3.223-7.701.181-2.995 1.175-6.114 2.985-8.524 1.674-2.231 3.767-3.156 6.264-4.16.258-.104.514-.209.77-.314 2.31-.947 4.543-1.863 7.109-1.396.464.085.919.15 1.369.216 1.197.173 2.356.34 3.53.837 1.252.529 2.53 1.188 3.573 2.069zm-3.935 19.065c2.435-1.37 4.191-5.051 4.816-7.676.377-1.416.11-3.26-.11-4.784l-.075-.53c-.206-1.491-.978-2.845-2.035-3.907-.949-.953-2.168-1.611-3.343-2.245l-.017-.009c-.99-.534-1.96-.614-2.996-.7a25.054 25.054 0 0 1-.97-.093c-2.055-.25-3.3-.077-5.15.699-.537.225-1.083.424-1.625.623-1.666.609-3.306 1.208-4.598 2.52-2.896 2.941-3.697 7.399-2.568 11.364 1.456 5.113 7.494 6.668 12.181 6.94 1.417.082 2.344.007 3.628-.58.648-.297 1.267-.671 1.885-1.045.324-.196.649-.392.977-.577z" clip-rule="evenodd"/>
    <path fill="#3C627B" fill-rule="evenodd" d="M35.093 20.015l.05.041.024.061c.347.9-.474 2.121-1.134 3.102-.241.36-.469.699-.585.945-.117.249-.234.512-.355.783l-.003.006c-.571 1.277-1.218 2.722-2.236 3.625-.322.284-.691.492-1.049.694l-.003.002a17.81 17.81 0 0 0-.331.189c-1.741 1.03-3.478 2.017-5.585 2.783-.076.029-.272.091-.485.091a.781.781 0 0 1-.34-.07.536.536 0 0 1-.282-.318c-.07-.21.002-.408.05-.54.66-1.793 1.368-3.612 1.973-5.156 1.014-2.582 3.168-3.69 5.448-4.863l.084-.043.57-.295c.212-.111.442-.247.683-.39 1.117-.66 2.506-1.48 3.506-.647zm-6.958 5.133c-.308.198-.392.601-.414.823-.015.152-.023.326.028.466.07.185.262.345.529.437.387.134.92.09 1.19-.253.117-.151.192-.361.235-.663.051-.372-.076-.677-.36-.858-.157-.1-.346-.15-.541-.15-.226 0-.462.066-.667.198z" clip-rule="evenodd"/>
    <defs>
        <filter id="a" width="57" height="56" x="0" y="0" color-interpolation-filters="sRGB" filterUnits="userSpaceOnUse">
            <feFlood flood-opacity="0" result="BackgroundImageFix"/>
            <feColorMatrix in="SourceAlpha" values="0 0 0 0 0 0 0 0 0 0 0 0 0 0 0 0 0 0 127 0"/>
            <feOffset dy="2"/>
            <feGaussianBlur stdDeviation="2"/>
            <feColorMatrix values="0 0 0 0 0 0 0 0 0 0 0 0 0 0 0 0 0 0 0.206692 0"/>
            <feBlend in2="BackgroundImageFix" result="effect1_dropShadow"/>
            <feBlend in="SourceGraphic" in2="effect1_dropShadow" result="shape"/>
        </filter>
    </defs>
</svg>
