<svg xmlns="http://www.w3.org/2000/svg" width="11" height="10" fill="none" viewBox="0 0 11 10">
    <path fill="#3C627B" d="M2.576 8.763l.043-.028c.432-.267.766-.592 1.12-.936l.085-.082c.129-.125.258-.248.387-.369.586-.551 1.14-1.072 1.544-1.794a3.51 3.51 0 0 1 .09-.149c.117-.187.249-.399.271-.65.003-.034.005-.069.005-.103 0-.723-.664-1.29-1.148-1.705l-.058-.05c-.404-.347-.84-.662-1.26-.967a34.648 34.648 0 0 1-.694-.51c-.178-.136-.35-.288-.516-.436-.135-.12-.27-.239-.41-.352-.072-.06-.144-.127-.216-.195-.295-.28-.7-.665-1.198-.264C.475.291 0 .71 0 1.193c0 .165.055.317.164.451.277.342.743.636 1.154.896.105.067.206.13.296.19.448.3.827.642 1.275 1.06.122.114.255.213.385.309.095.07.19.14.28.217l.048.04c.126.106.196.167.196.216 0 .026-.014.078-.083.181s-.22.213-.367.319c-.118.086-.24.174-.33.267-.106.111-.204.23-.302.35a5.03 5.03 0 0 1-.325.371c-.161.161-.344.304-.537.455-.18.14-.365.285-.537.45a6.41 6.41 0 0 1-.547.481c-.314.239-.446.499-.39.76.077.362.632.87.85 1.02.423.293.829-.044 1.125-.289a3.23 3.23 0 0 1 .221-.174z"/>
    <path fill="#3C627B" d="M5.846.557a.816.816 0 0 0-.33.68c0 .294.13.605.338.812.216.214.468.39.712.56l.054.039c.216.15.413.35.604.542.253.255.514.518.827.68.072.089.157.169.24.246.224.212.391.381.257.647-.109.216-.27.398-.438.591-.112.127-.227.258-.327.4-.243.346-.547.657-.841.957-.326.332-.662.675-.927 1.074-.152.228-.214.383-.214.535 0 .207.123.38.256.536.03.035.063.076.098.122.21.265.528.667.91.594.504-.097.768-.522 1-.897.086-.139.167-.27.256-.381.367-.458.716-.939 1.053-1.404.335-.463.681-.94 1.043-1.392l.091-.11c.153-.186.327-.395.413-.625.053-.138.079-.281.079-.425 0-.729-.66-1.253-.943-1.444l-.28-.188c-.432-.288-.84-.56-1.23-.894-.097-.083-.188-.171-.28-.26a3.904 3.904 0 0 0-.557-.47c-.067-.044-.139-.095-.215-.149C7.04.613 6.42.173 5.876.536l-.03.02z"/>
</svg>
