<svg xmlns="http://www.w3.org/2000/svg" width="23" height="18" fill="none" viewBox="0 0 23 18">
    <path fill="#3C627B" stroke="#3C627B" d="M4.968 4.302c.05 1.566 1.06 3.131 2.677 3.434.707.101 1.414 0 2.07-.202.202-.1.455-.151.606-.252.152-.05.253-.101.354-.152.05-.05.151-.1.151-.1.454-.253.758-.556.909-1.061.05-.152.101-.556.101-.606 0-.05.05-.202.05-.202.152-.657.102-1.464-.1-2.121-.101-.252-.152-.505-.253-.757 0-.05-.101-.253-.101-.253-.152-.353-.303-.656-.556-.909a2.527 2.527 0 0 0-.353-.252c-.151-.101-.303-.202-.454-.202-.101 0-.253-.05-.253-.05a1.11 1.11 0 0 0-.114-.021C8.815.426 7.763.532 6.988.919a3.383 3.383 0 0 0-.909.556 6.25 6.25 0 0 0-.303.353c-.353.404-.858.859-.96 1.414-.05.202 0 .505.051.707.05.101.101.353.101.353zm2.424.808h.101l.019.022c-.033.01-.065.014-.098.022l-.022-.044zm.512.568c.026.024.044.038.044.038v.152a1.423 1.423 0 0 1-.134-.113c.032-.026.063-.053.09-.077zm2.35-3.726a2.451 2.451 0 0 0-.186-.073.965.965 0 0 0-.044-.113c.017.006.035.012.044.012a.879.879 0 0 1 .186.174zM6.18 3.747c.05-.101.152-.353.152-.505l-.152-.151c.05-.152.152-.303.202-.404.101-.101.202-.253.202-.303.222-.194.564-.34.904-.443a2.3 2.3 0 0 0-.027.058l-.12.031.116-.022c-.052.116-.115.275-.115.275-.152-.101-.404 0-.505.151l-.152.455c0 .05-.05.202-.05.202a1.8 1.8 0 0 0-.444 1.013.673.673 0 0 1-.01-.357zM15.22 13.645c-.203-.707-.152-1.515-.708-2.07-.353-.253-.707-.354-1.11-.506a3.95 3.95 0 0 1-.346-.185 3.081 3.081 0 0 0-1.068-.673 3.178 3.178 0 0 0-.546-.1l-.01-.001c-.05-.01-.097-.015-.147-.023l.198.023c-.478-.074-1.037-.2-1.578-.244a9.264 9.264 0 0 0-.796-.11l-.03-.005.081.005-.095-.007a4.305 4.305 0 0 0-.814-.094h-.656l.763.05c-.553-.014-1.09.017-1.672.051-.455.05-.808 0-1.212.101-.354.101-.707.253-1.06.354-1.01.353-1.87.757-2.526 1.565C1.08 12.786.727 14.15.575 15.361c-.05.253-.1.505 0 .758.06.147.17.258.302.306a.64.64 0 0 0 .405.401c.303.05.707-.101 1.01-.152.404-.05.859-.05 1.263 0 1.717.152 3.434.253 5.1.404.707.051 1.364.253 2.02.354.707.101 1.464.05 2.12-.151.262-.087.746-.176.972-.456.15-.002.342-.05.342-.05.202-.05.353-.05.555-.1.101-.051.253-.152.253-.152.303-.101.555.151.808-.101.252-.253.1-.657.05-.909-.354-.909-.354-.96-.556-1.868zM4.11 15.513c-.317.035-.464.021-.693.01.064-.187.169-.47.246-.674.09.067.205.109.346.109.088 0 .166-.002.243-.006-.04.166-.084.36-.105.552l-.037.009zm3.181-.505c.019-.062.041-.13.066-.203a.304.304 0 0 0 .093.059 4.47 4.47 0 0 0-.107.636 5.715 5.715 0 0 1-.258-.034c.08-.14.148-.298.206-.458zm3.434.505c.101.05.253 0 .404-.05.05 0 .101-.051.101-.051-.02.134-.052.328-.062.529a17.62 17.62 0 0 0-.565-.092 6.88 6.88 0 0 0 .122-.336zm1.886-3.612l-.017.027c-.101-.152-.101-.202-.253-.253-.05-.05-.202-.05-.202-.1a2.15 2.15 0 0 0 .011-.1c.054.03.107.06.16.092.11.1.21.213.3.334zm-1.785-.832c.103.026.219.025.334.025-.01.026-.026.05-.03.076-.051.101-.152.354-.152.354 0-.303-.505-.354-.657-.303-.1.05-.252.202-.252.151-.101-.1-.253-.202-.404-.151-.101 0-.303.05-.303.05.019-.112.05-.246.077-.384l.1-.016a2.929 2.929 0 0 0-.099.007l.002-.01h.122l-.025.004c.092-.005.185-.008.277-.007.327.072.659.146 1.01.204zM20.884 15.99c-.004.01-.01.02-.01.028l.051-.05s-.022.011-.04.023z"/>
    <path fill="#3C627B" stroke="#3C627B" d="M22.39 14.604c-.05-.656-.353-1.313-.555-1.919-.404-1.161-1.06-2.12-1.868-3.03-.404-.505-1.06-.808-1.666-.96-.152-.05-.303-.05-.505-.05-.051-.05-.253-.05-.253-.05-.101-.05-.252-.101-.353-.05-.05 0-.152.05-.152.05-.454-.05-1.212-.152-1.464.303a.86.86 0 0 0 0 .505c.1.1.303.252.303.252-.354.101-.404.303-.354.657 0 .151.303.353.303.353 0 .05.05.101.05.101.253.303.657.707.86 1.01.504.707.706 1.566.857 2.373.102.657-.05 1.97.556 2.424.151.101.404.152.606.152.808.1 1.06.1 1.919.151.353.05 1.161.05 1.464-.303.505-.454.253-1.514.253-1.969zm-5.958-4.747c.152 0 .455-.1.455-.1-.05.201-.101.403 0 .605l.009.013c-.23-.26-.464-.518-.464-.518zm.758.859l-.23-.268c.092.084.23.166.23.166v.102zm1.211 2.02c0 .1-.05.252-.1.252l-.303-.909a.942.942 0 0 0 .201-.151c0 .151-.1.404-.05.555.05.101.303.253.252.253zm.404 2.979c-.05-.454-.201-1.414-.151-1.414.151-.05.202-.05.303-.152a.726.726 0 0 0 .101-.151c.05.101.253.253.253.253-.102.303-.203.606-.102.909.051.1.303.303.303.303 0 .1.101.353.101.353-.252-.05-.808-.101-.808-.101zm2.323-1.97l.152.304v.151c-.05-.05-.202-.151-.202-.151.05-.101.05-.303.05-.303zm-.252-.706c.05.1.1.252.1.252-.05-.05-.15-.1-.15-.1.05-.051.05-.152.05-.152zm0 2.979c-.027 0-.011-.014.01-.027.022-.052.09-.117.09-.074.051 0-.05.152-.1.101zm.555-.202c-.151.05-.454.05-.454.05l.454-.555v.505zM16.987.717s.079.019.161.034l.014.001-.175-.035z"/>
    <path fill="#3C627B" stroke="#3C627B" d="M15.168 6.827c.102.05.253.101.354.05.1 0 .252-.15.252-.15.303.05.455.1.758.1h.202c.252.101.808-.05.96-.202.15-.1.353-.303.353-.303.1-.1.151-.202.252-.303.05-.05.101-.151.101-.151.657-.606.859-1.717.859-2.575 0-.303-.05-.505-.101-.808-.05-.101-.202-.354-.202-.354-.202-.555-.657-1.01-1.162-1.262a1.794 1.794 0 0 0-.505-.101c-.016 0-.038-.003-.058-.005-.023-.004-.047-.008-.07-.01L17.2.76l-.052-.01a3.85 3.85 0 0 0-.514-.033c-.202.05-.505.151-.505.151-.253.05-.505.152-.758.253-.1.1-.353.252-.403.252-1.364.808-1.718 3.131-1.061 4.495.252.505.707.808 1.262.96zm1.97-2.676c0-.05.05-.151.05-.151l.101-.051c.101 0 .253.101.253.101l-.152.454c-.05.101-.1.202-.151.202-.05-.05-.101-.202-.101-.202-.05-.151 0-.252 0-.353zm-1.414.05c0-.151.151-.454.151-.454.05-.101.202-.252.202-.252 0 .05 0 .1-.05.1-.101.253-.202.405-.202.657-.05.152-.05.404-.05.404-.051-.152-.102-.454-.051-.454z"/>
</svg>
