<svg width="90" height="76" viewBox="0 0 90 76" fill="none" xmlns="http://www.w3.org/2000/svg" preserveAspectRatio="none">
    <path class="baula-12" d="M1.39 68.8536C1.50335 68.1698 2.14906 67.7074 2.83223 67.8208C3.5154 67.9343 3.97733 68.5806 3.86398 69.2645C3.56005 71.0982 3.36476 72.862 3.27558 74.5312C3.23859 75.2235 2.64802 75.7546 1.9565 75.7176C1.26498 75.6805 0.73437 75.0894 0.771353 74.3972C0.865558 72.634 1.07107 70.7778 1.39 68.8536Z" fill="#3B627B"/>
    <path class="baula-11" d="M5.03066 58.2071C5.36859 57.602 6.13255 57.3858 6.73702 57.724C7.34149 58.0623 7.55757 58.827 7.21964 59.432C6.32212 61.0391 5.60991 62.6234 5.07319 64.1843C4.84781 64.8397 4.13427 65.1882 3.47945 64.9626C2.82464 64.737 2.47652 64.0227 2.70191 63.3673C3.28778 61.6635 4.06126 59.9429 5.03066 58.2071Z" fill="#3B627B"/>
    <path class="baula-10" d="M11.7156 49.2621C12.1954 48.7622 12.9891 48.7462 13.4885 49.2265C13.9879 49.7067 14.0039 50.5012 13.5241 51.0011C12.913 51.6379 12.316 52.3018 11.733 52.9936C11.1589 53.6748 10.6174 54.3536 10.1081 55.0298C9.69113 55.5833 8.9049 55.6937 8.35196 55.2764C7.79902 54.859 7.68877 54.072 8.10569 53.5185C8.64282 52.8055 9.2128 52.091 9.81612 51.375C10.4338 50.642 11.067 49.9379 11.7156 49.2621Z" fill="#3B627B"/>
    <path class="baula-9" d="M20.4958 42.3133C21.0932 41.9626 21.8614 42.1631 22.2117 42.7611C22.562 43.359 22.3617 44.1281 21.7644 44.4787C20.2542 45.3651 18.8081 46.3529 17.4228 47.4505C16.8798 47.8807 16.0912 47.7889 15.6614 47.2453C15.2316 46.7018 15.3234 45.9124 15.8664 45.4822C17.3437 44.3117 18.8861 43.2581 20.4958 42.3133Z" fill="#3B627B"/>
    <path class="baula-8" d="M30.7601 37.9441C31.4246 37.7491 32.1213 38.1302 32.3162 38.7954C32.511 39.4606 32.1303 40.1579 31.4657 40.353C29.7311 40.8621 28.0729 41.4474 26.4785 42.1202C25.8403 42.3894 25.105 42.0899 24.836 41.4511C24.567 40.8124 24.8662 40.0763 25.5044 39.807C27.1889 39.0963 28.9366 38.4793 30.7601 37.9441Z" fill="#3B627B"/>
    <path class="baula-7" d="M41.5904 35.7462C42.2768 35.6547 42.9075 36.1375 42.9989 36.8246C43.0904 37.5117 42.608 38.143 41.9216 38.2345C40.0415 38.4853 38.3037 38.7663 36.6369 39.0965C35.9575 39.231 35.2979 38.7889 35.1634 38.1089C35.029 37.4289 35.4708 36.7685 36.1501 36.634C37.8719 36.2929 39.6608 36.0036 41.5904 35.7462Z" fill="#3B627B"/>
    <path class="baula-6" d="M52.4368 34.6015C53.1258 34.5315 53.741 35.0339 53.8109 35.7235C53.8808 36.4132 53.3789 37.029 52.6899 37.099C52.0474 37.1642 51.3898 37.2285 50.4821 37.3156C50.3044 37.3326 49.2096 37.4372 48.8898 37.4679C48.2733 37.5271 47.7675 37.5764 47.2794 37.6251C46.5903 37.6937 45.976 37.1902 45.9074 36.5004C45.8389 35.8106 46.3419 35.1957 47.031 35.1271C47.5224 35.0781 48.031 35.0286 48.6502 34.9691C48.9708 34.9383 50.066 34.8337 50.243 34.8167C51.1464 34.7301 51.7998 34.6662 52.4368 34.6015Z" fill="#3B627B"/>
    <path class="baula-5" d="M62.9375 32.8586C63.6037 32.6692 64.2971 33.0562 64.4863 33.7231C64.6756 34.3899 64.2889 35.084 63.6228 35.2734C62.5662 35.5738 61.4755 35.8335 60.3494 36.0524C59.6474 36.1887 58.9191 36.314 58.149 36.4318C57.4644 36.5366 56.8247 36.066 56.72 35.3808C56.6154 34.6955 57.0855 34.0551 57.77 33.9504C58.5082 33.8374 59.2039 33.7178 59.8716 33.5881C60.9283 33.3827 61.9499 33.1394 62.9375 32.8586Z" fill="#3B627B"/>
    <path class="baula-4" d="M72.3205 28.3977C72.8831 27.9935 73.6665 28.1223 74.0703 28.6854C74.4742 29.2485 74.3455 30.0327 73.7829 30.437C72.2629 31.5293 70.6376 32.486 68.9002 33.3057C68.2737 33.6012 67.5266 33.3325 67.2313 32.7054C66.9361 32.0784 67.2046 31.3305 67.831 31.0349C69.4306 30.2803 70.9241 29.4011 72.3205 28.3977Z" fill="#3B627B"/>
    <path class="baula-3" d="M79.5747 20.932C79.9716 20.3639 80.7534 20.2254 81.3209 20.6226C81.8885 21.0199 82.0268 21.8024 81.63 22.3705C80.5255 23.9515 79.3389 25.4036 78.0596 26.7295C77.5785 27.2281 76.7847 27.2419 76.2865 26.7603C75.7884 26.2787 75.7746 25.4841 76.2557 24.9855C77.4412 23.7569 78.5443 22.407 79.5747 20.932Z" fill="#3B627B"/>
    <path class="baula-2" d="M84.5505 11.5873C84.8144 10.9464 85.5473 10.6409 86.1876 10.9051C86.8279 11.1692 87.133 11.9029 86.8691 12.5438C86.1327 14.3324 85.3564 16.0073 84.5283 17.5819C84.2057 18.1952 83.4474 18.4307 82.8346 18.1078C82.2218 17.7848 81.9866 17.0258 82.3092 16.4124C83.0995 14.9099 83.8429 13.3058 84.5505 11.5873Z" fill="#3B627B"/>
    <path class="baula-1" d="M87.1123 1.42598C87.1801 0.7361 87.7937 0.231787 88.4829 0.299562C89.172 0.367337 89.6759 0.981534 89.6082 1.67141C89.4265 3.52267 89.1064 5.37307 88.6412 7.21454C88.4714 7.88657 87.7895 8.29358 87.1181 8.12362C86.4467 7.95365 86.0401 7.27108 86.2099 6.59904C86.6442 4.8803 86.9428 3.15359 87.1123 1.42598Z" fill="#3B627B"/>
</svg>