<svg width="90" height="76" viewBox="0 0 90 76" fill="none" xmlns="http://www.w3.org/2000/svg" preserveAspectRatio="none">
    <path class="baula-12" d="M88.9938 68.8536C88.8804 68.1698 88.2347 67.7074 87.5516 67.8208C86.8684 67.9343 86.4065 68.5806 86.5198 69.2645C86.8237 71.0982 87.019 72.862 87.1082 74.5312C87.1452 75.2235 87.7358 75.7546 88.4273 75.7176C89.1188 75.6805 89.6494 75.0894 89.6124 74.3972C89.5182 72.634 89.3127 70.7778 88.9938 68.8536Z" fill="#3B627B"/>
    <path class="baula-11" d="M85.3531 58.2071C85.0152 57.602 84.2512 57.3858 83.6468 57.724C83.0423 58.0623 82.8262 58.827 83.1641 59.432C84.0617 61.0391 84.7739 62.6234 85.3106 64.1843C85.536 64.8397 86.2495 65.1882 86.9043 64.9626C87.5591 64.737 87.9073 64.0227 87.6819 63.3673C87.096 61.6635 86.3225 59.9429 85.3531 58.2071Z" fill="#3B627B"/>
    <path class="baula-10" d="M78.6682 49.2621C78.1884 48.7622 77.3947 48.7462 76.8953 49.2265C76.3958 49.7067 76.3799 50.5012 76.8597 51.0011C77.4708 51.6379 78.0678 52.3018 78.6508 52.9936C79.2249 53.6748 79.7663 54.3536 80.2757 55.0298C80.6927 55.5833 81.4789 55.6937 82.0318 55.2764C82.5848 54.859 82.695 54.072 82.2781 53.5185C81.741 52.8055 81.171 52.091 80.5677 51.375C79.95 50.642 79.3168 49.9379 78.6682 49.2621Z" fill="#3B627B"/>
    <path class="baula-9" d="M69.888 42.3133C69.2906 41.9626 68.5224 42.1631 68.1721 42.7611C67.8218 43.359 68.0221 44.1281 68.6194 44.4787C70.1295 45.3651 71.5757 46.3529 72.961 47.4505C73.504 47.8807 74.2926 47.7889 74.7224 47.2453C75.1522 46.7018 75.0604 45.9124 74.5174 45.4822C73.0401 44.3117 71.4977 43.2581 69.888 42.3133Z" fill="#3B627B"/>
    <path class="baula-8" d="M59.6237 37.9441C58.9592 37.7491 58.2625 38.1302 58.0676 38.7954C57.8728 39.4606 58.2535 40.1579 58.9181 40.353C60.6526 40.8621 62.3109 41.4474 63.9053 42.1202C64.5435 42.3894 65.2788 42.0899 65.5478 41.4511C65.8168 40.8124 65.5176 40.0763 64.8794 39.807C63.1949 39.0963 61.4472 38.4793 59.6237 37.9441Z" fill="#3B627B"/>
    <path class="baula-7" d="M48.7934 35.7462C48.107 35.6547 47.4763 36.1375 47.3849 36.8246C47.2934 37.5117 47.7758 38.143 48.4622 38.2345C50.3423 38.4853 52.08 38.7663 53.7469 39.0965C54.4263 39.231 55.0859 38.7889 55.2204 38.1089C55.3548 37.4289 54.913 36.7685 54.2337 36.634C52.5119 36.2929 50.723 36.0036 48.7934 35.7462Z" fill="#3B627B"/>
    <path class="baula-6" d="M37.947 34.6015C37.258 34.5315 36.6428 35.0339 36.5729 35.7235C36.503 36.4132 37.0049 37.029 37.6939 37.099C38.3364 37.1642 38.994 37.2285 39.9017 37.3156C40.0794 37.3326 41.1742 37.4372 41.494 37.4679C42.1105 37.5271 42.6163 37.5764 43.1044 37.6251C43.7935 37.6937 44.4078 37.1902 44.4763 36.5004C44.5449 35.8106 44.0419 35.1957 43.3528 35.1271C42.8613 35.0781 42.3528 35.0286 41.7335 34.9691C41.413 34.9383 40.3178 34.8337 40.1408 34.8167C39.2374 34.7301 38.584 34.6662 37.947 34.6015Z" fill="#3B627B"/>
    <path class="baula-5" d="M27.4462 32.8586C26.7801 32.6692 26.0867 33.0562 25.8974 33.7231C25.7082 34.3899 26.0949 35.084 26.761 35.2734C27.8176 35.5738 28.9083 35.8335 30.0344 36.0524C30.7364 36.1887 31.4647 36.314 32.2348 36.4318C32.9193 36.5366 33.5591 36.066 33.6638 35.3808C33.7684 34.6955 33.2983 34.0551 32.6137 33.9504C31.8756 33.8374 31.1799 33.7178 30.5122 33.5881C29.4555 33.3827 28.4339 33.1394 27.4462 32.8586Z" fill="#3B627B"/>
    <path class="baula-4" d="M18.0633 28.3977C17.5007 27.9935 16.7173 28.1223 16.3135 28.6854C15.9096 29.2485 16.0383 30.0327 16.6009 30.437C18.1209 31.5293 19.7462 32.486 21.4836 33.3057C22.1101 33.6012 22.8572 33.3325 23.1524 32.7054C23.4477 32.0784 23.1792 31.3305 22.5528 31.0349C20.9532 30.2803 19.4597 29.4011 18.0633 28.3977Z" fill="#3B627B"/>
    <path class="baula-3" d="M10.8091 20.932C10.4122 20.3639 9.6304 20.2254 9.06287 20.6226C8.49533 21.0199 8.35697 21.8024 8.75383 22.3705C9.85827 23.9515 11.0449 25.4036 12.3242 26.7295C12.8053 27.2281 13.5991 27.2419 14.0972 26.7603C14.5954 26.2787 14.6091 25.4841 14.128 24.9855C12.9426 23.7569 11.8395 22.407 10.8091 20.932Z" fill="#3B627B"/>
    <path class="baula-2" d="M5.83329 11.5873C5.56941 10.9464 4.83646 10.6409 4.1962 10.9051C3.55593 11.1692 3.25081 11.9029 3.51468 12.5438C4.25109 14.3324 5.02737 16.0073 5.8555 17.5819C6.17812 18.1952 6.9364 18.4307 7.54917 18.1078C8.16194 17.7848 8.39716 17.0258 8.07455 16.4124C7.28431 14.9099 6.54085 13.3058 5.83329 11.5873Z" fill="#3B627B"/>
    <path class="baula-1" d="M3.27144 1.42598C3.20373 0.7361 2.59014 0.231787 1.90094 0.299562C1.21174 0.367337 0.707922 0.981534 0.77563 1.67141C0.957323 3.52267 1.27735 5.37307 1.74261 7.21454C1.91241 7.88657 2.59432 8.29358 3.2657 8.12362C3.93708 7.95365 4.34369 7.27108 4.17389 6.59904C3.73963 4.8803 3.441 3.15359 3.27144 1.42598Z" fill="#3B627B"/>
</svg>