<svg xmlns="http://www.w3.org/2000/svg" width="30" height="27" viewBox="0 0 30 27">
    <g fill="none" fill-rule="evenodd">
        <path fill="#FF8C66" d="M4.07 15.53s7.841-7.087 9.198-7.991c.905-.603 3.568-2.915 7.991-6.936.1-.402.553-.502 1.357-.301.804.2 1.709.552 2.714 1.055.603.201 1.156.653 1.658 1.357.754 1.055 1.659 1.81 1.659 2.262 0 .452.603 4.07.301 4.221-.301.15-2.261 2.413-3.166 3.317-.603.603-5.076 4.473-13.419 11.61-.402.402-.753.653-1.055.754-.452.15-10.102 1.96-10.253 1.96-.15 0-1.055.452-.904-.603.1-.704 1.306-4.122 3.618-10.253l.302-.452z"/>
        <path fill="#FFF" d="M6.197 18.12l4.856-4.206 9.197-7.539c3.658-3.234 5.552-4.808 5.681-4.723.374.245.727.6 1.057 1.062.754 1.055 1.659 1.81 1.659 2.262 0 .06.01.176.028.333.018.156-5.044 4.813-5.305 4.944-.302.15-6.333 5.578-7.388 6.483-.704.603-2.865 2.211-6.483 4.825L6.197 18.12z" opacity=".415"/>
        <path fill="#FFF" stroke="#FFF" stroke-width=".5" d="M4.07 15.53l.906-.754c-.22.598-.128 1.047.274 1.349.182.137 2.163 1.125 3.947-.445.105-.092.165-.092.178 0-.052.843.073 1.616.375 2.32.099.23.75 1.273 2.623 1.273h.528c.063 0-.116.164-.151.227-.961 1.75-1.087 3.25-.377 4.5-.408.485-.763.777-1.065.878-.156.052-1.939.413-5.349 1.084-.098-1.355-.426-2.37-.983-3.044-.506-.613-1.529-1.257-3.068-1.933l1.861-5.003.302-.452z"/>
    </g>
</svg>
