<svg xmlns="http://www.w3.org/2000/svg" width="69" height="68" fill="none" viewBox="0 0 69 68">
    <path fill="#3C627B" fill-rule="evenodd" d="M62.52 37.223c-.63 5.667-7.845 22.437-28.781 21.522-11.127-.485-19.373-4.661-23.9-11.673-4.286-6.642-3.893-15.644-3.707-19.905.397-9.094 8.788-17.84 19.645-21.921C36.634 1.164 47.615 2.372 55.99 11.47c8.375 9.097 7.16 20.085 6.53 25.753z" clip-rule="evenodd" filter="url(#a)"/>
    <path fill="#fff" d="M43.888 19.13c-.115-.08-.236-.136-.35-.208-.146-.093-.289-.185-.446-.256-.208-.093-.522-.204-.738-.09-.122.065-.266.074-.39.144-.24.136-.423.355-.587.571-.291.384-.524.81-.743 1.238-.073.143-.183.236-.231.32l-2.39 4.138c-1.733 3.003-6.862 11.594-8.604 14.612l.08.047c-.194.335-.207.43-.34.64-.436.684-.913 1.477-.995 2.242-.05.182.024.389.203.6.176.206.476.43.792.612.447.258.938.444 1.186.408.39-.057.546-.36.672-.603l.081-.15c.497-.86.99-1.723 1.483-2.586.971-1.7 5.392-9.082 6.411-10.792.782.244 1.558.752 2.31 1.245.21.14.418.275.619.4.167.106.347.199.527.291.494.255.962.496 1.128.975.064.184.1.361.136.534.086.424.175.864.694 1.173l.218.134c.152.092.348.304.348.304l-.04.07.676.392c.556.32 1.52.969 2.016 1.069l.703.36c.593.343 1.193.667 1.79 1.009.446.255.804.271 1.215.156.867-.243 1.243-1.214 1.651-1.921l1.577-2.731 1.08-1.873c.412-.712 1.37-1.548.861-2.445-.193-.34-.6-.52-.995-.698-.116-.052-.204-.09-.295-.138l-.21-.02c-.448-.239-.927-.402-1.367-.656l-1.85-1.068-.134-.169c-.293-.162-.391-.263-.52-.561-.111-.26-.172-.584-.241-.88-.036-.153-.066-.314-.107-.46-.035-.125-.066-.257-.1-.383-.068-.259-.136-.52-.216-.775-.163-.511-.4-.643-.757-.843l-5.366-3.096a8.78 8.78 0 0 1-.445-.282z"/>
    <path fill="#3C627B" d="M40.068 28.21c.19-.451.379-.952.64-1.392.081-.136.08-.316.156-.447l.123-.212 1.368.79.041-.071s.245.127.424.268c.18.143.577.368.567.385l-.087.152c-.137.236-.271.597-.456.856-.214.3-.383.706-.572 1.045l-1.131-.654c-.068-.038-.1-.155-.178-.204-.277-.174-.566-.452-.895-.515zM47.076 26.167c.207.105.377.19.485.33-.16.12-.317.408-.548.895a3.55 3.55 0 0 1-.1.201c-.02.036-.06.12-.112.227-.075.157-.253.53-.362.698l-.014-.056-.072.126-.084-.06c-.583-.104-1.362-.472-2.357-1.118l1.322-2.29c.685.393 1.036.594 1.5.862.088.05.256.142.342.185zM49.122 25.197l.438 1.819c.072.27.21.517.167.592l-.894 1.548c.006-.01-.203-.2-.348-.528l.017-.03c-.144-.324-.23-.674-.303-1.096-.006-.035 0-.086-.004-.155-.024-.362-.053-.672-.217-.828.267-.463.55-.917.83-1.372l.212-.341.036.142.066.249zM48.969 29.71c.346.19.76.44 1.085.64l1.197.733c-.38.664-.74 1.34-1.12 2.006a187.7 187.7 0 0 1-.975-.585c-.422-.256-.656-.402-1.339-.8l1.152-1.994zM54.234 30.32l.108.064c.063.037.135.079.146.092.005.018.003.075-.038.243-.128.538-.41 1.07-.674 1.504a4.527 4.527 0 0 0-.548-.386l-1.559-.949c.295-.51.449-1.1.743-1.61l.007-.012c.34.2.608.358.832.487l.357.204c.182.104.446.255.626.363zM50.29 36.368c-.1-.069-.224-.05-.275-.08l-.917-.53c.386-.67.608-1.063.89-1.559l.233-.504.187.063c.559.323 1.277.73 1.624.919l-.35.606c-.115.199-.275.372-.37.578l-.2.425c-.048.098-.121.352-.226.358-.086.006-.227-.084-.303-.118a1.873 1.873 0 0 1-.294-.158zM44.176 21.552c.26.14.516.286.77.432.254.147.424.248.671.394l.557.327-1.089 1.885-2.332-1.337c.07-.131.18-.24.25-.373.19-.363.408-.727.617-1.086l.08-.118c.166-.293.175-.287.476-.124zM46.715 32.9c-.217.306-.399.644-.578.971-.125-.057-.223-.105-.29-.179-.137-.147-.162-.41-.195-.67-.02-.158-.037-.319-.082-.462-.042-.134-.07-.277-.103-.423-.057-.262-.115-.532-.236-.78.322-.559.64-1.12.959-1.682l.104-.182c.05.17.102.34.154.512.084.279.17.558.246.832.032.116-.026.168-.006.254.096.407.206.633.545.837l-.113.195c-.134.234-.225.522-.405.777z"/>
    <path fill="#fff" d="M25.262 19.13c.114-.08.236-.136.35-.208.146-.093.288-.185.446-.256.208-.093.522-.204.738-.09.121.065.266.074.39.144.24.136.422.355.586.571.292.384.524.81.744 1.238.073.143.183.236.231.32l2.389 4.138c1.734 3.003 6.862 11.594 8.605 14.612l-.08.047c.193.335.207.43.34.64.436.684.913 1.477.995 2.242.05.182-.024.389-.204.6-.175.206-.475.43-.791.612-.448.258-.938.444-1.186.408-.39-.057-.547-.36-.673-.603-.025-.05-.052-.1-.08-.15-.497-.86-.99-1.723-1.483-2.586-.972-1.7-5.393-9.082-6.412-10.792-.782.244-1.558.752-2.309 1.245-.211.14-.418.275-.62.4-.166.106-.347.199-.527.291-.494.255-.961.496-1.128.975-.064.184-.1.361-.135.534-.086.424-.175.864-.694 1.173l-.219.134c-.152.092-.347.304-.347.304l.04.07-.676.392c-.557.32-1.52.969-2.016 1.069l-.704.36c-.592.343-1.193.667-1.79 1.009-.445.255-.804.271-1.215.156-.866-.243-1.242-1.214-1.65-1.921L14.6 33.477l-1.081-1.873c-.412-.712-1.37-1.548-.86-2.445.192-.34.6-.52.994-.698.116-.052.205-.09.295-.138l.21-.02c.449-.239.928-.402 1.368-.656l1.85-1.068.133-.169c.293-.162.392-.263.52-.561.112-.26.173-.584.242-.88.035-.153.066-.314.106-.46.035-.125.066-.257.1-.383.069-.259.136-.52.217-.775.163-.511.399-.643.757-.843l5.366-3.096c.09-.052.328-.202.445-.282z"/>
    <path fill="#3C627B" d="M29.082 28.21c-.189-.451-.378-.952-.64-1.392-.08-.136-.08-.316-.156-.447l-.122-.212-1.369.79-.04-.071s-.245.127-.424.268c-.18.143-.578.368-.568.385l.088.152c.136.236.271.597.456.856.213.3.383.706.571 1.045l1.132-.654c.067-.038.1-.155.177-.204.278-.174.566-.452.895-.515zM22.073 26.167c-.207.105-.377.19-.484.33.16.12.316.408.548.895.042.09.076.162.099.201.02.036.06.12.112.227.075.157.254.53.363.698l.014-.056.072.126.084-.06c.582-.104 1.361-.472 2.357-1.118l-1.323-2.29-1.5.862c-.087.05-.256.142-.342.185zM20.028 25.197l-.438 1.819c-.072.27-.21.517-.167.592l.893 1.548c-.005-.01.203-.2.348-.528l-.016-.03c.143-.324.229-.674.303-1.096.006-.035-.001-.086.003-.155.025-.362.053-.672.218-.828-.268-.463-.55-.917-.83-1.372l-.212-.341-.037.142c-.02.082-.042.165-.065.249zM20.18 29.71c-.346.19-.759.44-1.085.64l-1.197.733c.381.664.74 1.34 1.12 2.006l.976-.585c.422-.256.655-.402 1.338-.8l-1.151-1.994zM14.916 30.32l-.107.064c-.064.037-.136.079-.147.092-.005.018-.003.075.038.243.128.538.41 1.07.674 1.504.151-.126.33-.252.548-.386l1.559-.949c-.295-.51-.449-1.1-.743-1.61l-.007-.012c-.34.2-.608.358-.832.487l-.357.204c-.182.104-.446.255-.626.363zM18.86 36.368c.099-.069.223-.05.274-.08l.917-.53c-.386-.67-.608-1.063-.89-1.559l-.233-.504-.186.063c-.56.323-1.277.73-1.624.919l.35.606c.114.199.274.372.37.578.065.142.132.284.2.425.047.098.12.352.226.358.085.006.226-.084.303-.118.1-.047.203-.094.293-.158zM24.974 21.552c-.26.14-.516.286-.77.432-.254.147-.424.248-.671.394-.211.124-.557.326-.556.327l1.088 1.885 2.332-1.337c-.07-.131-.18-.24-.25-.373-.19-.363-.408-.727-.617-1.086l-.08-.118c-.166-.293-.175-.287-.476-.124zM22.436 32.9c.216.306.398.644.577.971.125-.057.223-.105.29-.179.137-.147.162-.41.195-.67.02-.158.037-.319.082-.462.042-.134.07-.277.103-.423.057-.262.115-.532.236-.78a289.8 289.8 0 0 1-.959-1.682l-.104-.182-.153.512c-.085.279-.17.558-.247.832-.032.116.026.168.006.254-.096.407-.206.633-.545.837l.113.195c.134.234.225.522.405.777z"/>
    <defs>
        <filter id="a" width="69" height="67.826" x="0" y="0" color-interpolation-filters="sRGB" filterUnits="userSpaceOnUse">
            <feFlood flood-opacity="0" result="BackgroundImageFix"/>
            <feColorMatrix in="SourceAlpha" values="0 0 0 0 0 0 0 0 0 0 0 0 0 0 0 0 0 0 127 0"/>
            <feOffset dy="3"/>
            <feGaussianBlur stdDeviation="3"/>
            <feColorMatrix values="0 0 0 0 0 0 0 0 0 0 0 0 0 0 0 0 0 0 0.223364 0"/>
            <feBlend in2="BackgroundImageFix" result="effect1_dropShadow"/>
            <feBlend in="SourceGraphic" in2="effect1_dropShadow" result="shape"/>
        </filter>
    </defs>
</svg>
