<svg xmlns="http://www.w3.org/2000/svg" width="49" height="49" fill="none" viewBox="0 0 49 49">
    <path fill="#89CEDF" fill-rule="evenodd" d="M48.752 22.414c0 9.74.558 15.74 0 18.363-.558 2.622-2.513 4.13-6.197 6.751 0 1.297-7.314 1.297-8.208 1.297-1.34 0-17.58-1.297-19.671-1.297H8.72c-1.146 0-4.187.173-6.365-3.199C.18 40.958-.324 27.472.18 15.11.682 2.747 4.701 1.623 4.701 1.623L8.721.5c4.69-1.123 9.774 0 15.577 0h18.257c8.573 1.124 5.862 7.305 6.197 21.915z" clip-rule="evenodd"/>
    <path fill="#3C627B" fill-rule="evenodd" d="M48.752 22.414c0 9.74.558 15.74 0 18.363-.558 2.622-2.513 4.13-6.197 6.751 0 1.297-7.314 1.297-8.208 1.297-1.34 0-17.58-1.297-19.671-1.297H8.72c-1.146 0-4.187.173-6.365-3.199C.18 40.958-.324 27.472.18 15.11.682 2.747 4.701 1.623 4.701 1.623L8.721.5c4.69-1.123 9.774 0 15.577 0h18.257c8.573 1.124 5.862 7.305 6.197 21.915z" clip-rule="evenodd"/>
</svg>
