<svg xmlns="http://www.w3.org/2000/svg" width="35" height="35" fill="none" viewBox="0 0 35 35">
    <path fill="#6CD38A" fill-rule="evenodd" stroke="#fff" stroke-width="4.5" d="M3.181 11.358c.953-2.98 6.584-11.226 17.474-8.51 5.788 1.442 9.657 4.562 11.262 8.812 1.52 4.025.325 8.821-.241 11.092-1.208 4.845-6.575 8.654-12.723 9.695-6.148 1.04-10.846-1.203-14.242-6.982-3.396-5.78-2.483-11.128-1.53-14.107z" clip-rule="evenodd"/>
    <path fill="#fff" d="M21.764 13.073h.01c.09 0 .203.064.293.115l.184.118c.46.313 1.227.836 1.143 1.358v.008c-.036.296-.366.602-.63.847a5.773 5.773 0 0 0-.22.212c-.148.154-.28.322-.408.484a5.972 5.972 0 0 1-.377.45c-.631.605-1.206 1.303-1.762 1.977-.74.9-1.507 1.83-2.402 2.528-.106.086-.208.172-.307.256-.378.32-.703.595-1.173.773-.65.278-1.012-.058-1.516-.523a8.012 8.012 0 0 0-.433-.381c-.818-.745-1.413-1.453-2.102-2.273l-.298-.356c-.326-.386-.773-.914-.645-1.4.076-.318.454-.564.758-.762a3.34 3.34 0 0 0 .208-.144l.17-.177c.115-.12.57-.475.747-.531.034-.004.083-.012.138-.023.075-.014.165-.033.223-.033l.06-.01c.06-.02.147.017.248.06.033.015.065.029.097.041l.196.204c.046.049.093.108.145.174.072.091.152.193.227.265.033.051.077.132.13.23.334.602 1.03 1.855 1.816 1.413 1.264-.789 2.44-2.019 3.21-2.918.12-.155.242-.325.366-.5.538-.756 1.096-1.54 1.891-1.418l.013-.064z"/>
</svg>
