<svg xmlns="http://www.w3.org/2000/svg" width="44" height="50" fill="none" viewBox="0 0 44 50">
    <path fill="#909EC2" fill-rule="evenodd" d="M2.073 2.23h3.933c2.598 0 5.256-.156 7.85 0 4.746.286 12.828.126 24.25.126 1.41 0 2.63-.014 3.662-.041a2.007 2.007 0 0 1 2.06 1.96c.18 7.896.219 12.511.117 13.848-.067.877-.094 5.243 0 12.709.025 2.01-.252 6.52 0 11.54.014.285-.023 2.017-.113 5.196a2.007 2.007 0 0 1-1.897 1.948c-3.842.21-7.33.17-10.46-.118-2.454-.227-9.416.4-18.11 0-2.858-.132-6.59-.149-11.195-.05A2.007 2.007 0 0 1 .12 47.34V28.323c0-.502.501-10.2 0-15.555-.14-1.484-.157-4.344-.054-8.58A2.007 2.007 0 0 1 2.073 2.23z" clip-rule="evenodd"/>
    <path fill="#fff" fill-rule="evenodd" d="M6.14 7.248c4.684-.334 9.535-.334 14.553 0 7.526.502 8.028.502 11.54 0a49.615 49.615 0 0 1 7.026-.501v9.533c0 1.506-.786 6.544-.502 8.53.502 3.513.502 9.535.502 9.535s-6.276 7.43-8.029 9.533c-3.01.335-3.512.335-7.527 0-6.021-.501-11.039 0-12.042 0H6.14c-.335-6.69-.335-12.711 0-18.064.334-5.352.334-11.54 0-18.566z" clip-rule="evenodd"/>
    <path fill="#555F79" fill-rule="evenodd" d="M23.286 24.277c-.345.346-.658.728-.963 1.102l-.112.15-.104.138a23.903 23.903 0 0 0-.103-.11 6.93 6.93 0 0 1-.261-.294c-.1-.133-.202-.268-.344-.444l-.191-.189c-.07-.105-.143-.214-.253-.324-.099-.098-.3-.334-.301-.335-.175-.21-.52-.587-.54-.605l-.052-.078c-.142-.214-.355-.537-.562-.741a2.512 2.512 0 0 0-.155-.096l.006-.014a.907.907 0 0 0-.138-.053c-.017-.009-.034-.015-.033-.015a.564.564 0 0 0-.222-.046l-.005.03c-.398.003-.869.24-.959.663-.085.258.072.538.233.699l.432.431.026.052.013.02c.269.337.543.714.809 1.08l.02.025a.472.472 0 0 1 .055.085c.276.52.784.892 1.117 1.37.192.275.396.515.579.793.095.145.183.388.334.488.74.488 1.113-.499 1.416-.98l.005-.012c.241-.254.437-.48.733-.821l.036-.042c.237-.293.476-.584.713-.87l.374-.398c.482-.512.937-.995 1.478-1.537a14.489 14.489 0 0 1 1.983-1.99c.384-.312.873-.983.76-1.498-.047-.212-.216-.482-.755-.574-.63-.075-1.118.458-1.504.88-.084.092-.164.181-.242.259a3.87 3.87 0 0 0-.214.24c-.132.024-.213.181-.267.288l-.023.044a.986.986 0 0 0-.254.288l-2.15 2.457c-.06.062-.327.331-.415.484z" clip-rule="evenodd"/>
    <path fill="#555F79" fill-rule="evenodd" d="M29.534 23.816c-.224-.168-.79-.313-1.088-.214-.066 1.242-.302 2.382-.549 3.57-.058.279-.077.572-.096.855-.03.466-.062.949-.27 1.36-.399.788-1.003.811-1.84.843l-.076.003c-.312.012-.633.018-.956.018-1.407 0-2.901-.11-4.844-.355-.134-.017-.273-.03-.414-.045-.966-.096-1.966-.197-2.112-1.31-.131-.997-.24-1.998-.346-2.966l-.1-.899a2.937 2.937 0 0 1 .002-.765c.055-.944.133-1.682.345-2.443.062-.22.092-.446.122-.664.064-.462.124-.898.455-1.244.316-.329.768-.374 1.21-.374.114 0 .228.003.34.006l.27.006c.762.007 1.532.04 2.277.073.674.028 1.475.2 2.14.07.497-.096 1.03-.544.948-1.097-.116-.775-1.24-.452-1.809-.478a113.96 113.96 0 0 0-1.768-.06 81.295 81.295 0 0 1-2.442-.094 5.964 5.964 0 0 0-.356-.01c-.728 0-1.726.133-2.352.77-.697.71-.802 1.728-.855 2.795-.067 1.349-.017 2.712.031 4.031l.014.383c.014.375.013.755.012 1.122-.003 1.148-.006 2.336.442 3.492.17.438.38.632.835.766 1.462.434 3.014.47 4.354.47l.816-.003c.27-.002.54-.004.81-.004.51 0 1.18.006 1.839.053.209.015.41.02.609.025.313.007.61.014.925.06.317.045.655.09.992.09.287 0 .537-.033.766-.099 1.44-.415 1.503-2.531 1.548-4.076.01-.306.018-.595.037-.825.044-.51.108-1.031.17-1.535.044-.365.09-.736.128-1.11a.714.714 0 0 0-.164-.19zM12.664 1.32v3.452c0 1.917 0 2.3.502 3.068.502.766.502 1.15 4.014 1.533 3.513.384 3.01.384 5.018.384h6.021c1.004 0 3.513-.767 3.513-2.3V2.854c0-.767 0-2.301-1.506-2.685-1.505-.383-10.035 0-11.039 0-1.003 0-3.01-.383-4.516 0-1.003.256-1.672.64-2.007 1.15z" clip-rule="evenodd"/>
    <path fill="#ADB9C1" fill-rule="evenodd" d="M36.75 36.853c-.548.547-.411.32-2.6.32h-4.927c.547 1.641.821 2.28.821 3.922v2.971l1.186-.188 5.52-7.025z" clip-rule="evenodd"/>
    <path fill="#D3DEE5" fill-rule="evenodd" d="M39.258 34.344c-.547.547-1.915.821-4.105.821h-4.927c.548 1.642.822 3.285.822 4.927 0 1.642.182 2.691.182 3.786l.502-.502 7.526-9.032z" clip-rule="evenodd"/>
</svg>
