<svg xmlns="http://www.w3.org/2000/svg" width="41" height="41" fill="none" viewBox="0 0 41 41">
    <g clip-rule="evenodd" filter="url(#a)">
        <path fill="#fff" fill-rule="evenodd" d="M5.224 12.938C6.24 9.759 12.248.96 23.866 3.858c6.175 1.54 10.303 4.868 12.016 9.402 1.621 4.294.346 9.411-.258 11.833-1.29 5.17-7.014 9.234-13.573 10.344-6.56 1.11-11.572-1.283-15.195-7.449-3.623-6.166-2.65-11.872-1.632-15.05z"/>
        <path stroke="#fff" stroke-width="4.5" d="M5.224 12.938C6.24 9.759 12.248.96 23.866 3.858c6.175 1.54 10.303 4.868 12.016 9.402 1.621 4.294.346 9.411-.258 11.833-1.29 5.17-7.014 9.234-13.573 10.344-6.56 1.11-11.572-1.283-15.195-7.449-3.623-6.166-2.65-11.872-1.632-15.05z"/>
    </g>
    <path fill="#3C627B" fill-rule="evenodd" d="M13.102 13.586c.479-1.498 3.3-5.647 8.744-4.29 2.893.721 4.826 2.287 5.626 4.422.757 2.022.156 4.434-.129 5.576-.337 1.351-1.313 2.543-2.64 3.427.03 1.3-.007 2.367-.1 2.747v.09c0 .09-.007.184-.014.28-.006.09-.013.182-.013.267v.422c.027.559.055 1.14.027 1.716v.295c-.01.057-.015.097-.02.138.005.162.014.324.024.488v.002c.02.329.04.668.024.99 0 .02.026.206.052.298l.003.02c0 .156-.029.31-.056.46v.127c.032.125-.01.223-.06.312a.445.445 0 0 1-.092.168.654.654 0 0 1-.093.134.49.49 0 0 1-.395.174c-.267 0-.566-.221-.783-.382l-.015-.011c-.05-.037-.095-.07-.133-.095 0 0-.355-.197-.519-.296 0 0-.192-.1-.274-.15a.438.438 0 0 1-.081-.046 2.934 2.934 0 0 1-.41-.174c-.135-.09-.264-.17-.39-.25a7.075 7.075 0 0 1-.805-.555c-.082-.074-.178-.162-.234-.268a.484.484 0 0 0-.029.004 1.359 1.359 0 0 1-.138.105l-.056.038-.185.169c-.056.05-.118.1-.181.151l-.006.005a3.964 3.964 0 0 0-.17.141c-.011.016-.08.098-.11.125l-.026.024c-.043.04-.155.116-.447.313l-.006.004-.016.01-.167.114c-.23.172-.536.394-.868.58-.828.46-1.407.42-1.61-.087-.17-.423-.118-.872-.067-1.306l.017-.153c.027-.247.024-.485.02-.737v-.006c-.002-.09-.004-.18-.004-.27a.633.633 0 0 1-.006-.214v-.007c.003-.029.006-.058.006-.087a.435.435 0 0 0-.018-.137l-.009-.026a4.926 4.926 0 0 1-.027-.258v-.007a4.288 4.288 0 0 0-.028-.257c-.001-.019-.027-.357-.027-.532v-.223a6.46 6.46 0 0 1-.028-.447 7.444 7.444 0 0 1-.027-.38c-.007-.13-.013-.255-.027-.382a7.127 7.127 0 0 0-.022-.155 2.105 2.105 0 0 1-.033-.557l.006-1.968c-.828-.596-1.56-1.438-2.2-2.532-1.694-2.903-1.233-5.592-.755-7.09zm2.457 1.018c.133-.418.666-1.36 1.638-2.07.936-.683 2.283-1.154 4.12-.695 2.032.506 3.261 1.566 3.761 2.9.482 1.287.103 2.892-.123 3.8-.363 1.454-2.066 2.784-4.247 3.158-1.047.18-1.914.07-2.646-.287-.735-.36-1.405-1.004-1.995-2.015-1.143-1.958-.837-3.763-.508-4.791zm6.125-4.235c-2.31-.576-4.113.018-5.38.942-1.232.899-1.957 2.108-2.188 2.832-.4 1.255-.796 3.549.643 6.015.7 1.2 1.57 2.09 2.639 2.613 1.071.523 2.27.641 3.566.419 2.507-.43 4.897-2.024 5.46-4.284l.012-.046c.214-.86.721-2.888.06-4.652-.718-1.919-2.434-3.246-4.812-3.839z" clip-rule="evenodd" filter="url(#b)"/>
    <defs>
        <filter id="a" width="40.961" height="41" x="0" y="0" color-interpolation-filters="sRGB" filterUnits="userSpaceOnUse">
            <feFlood flood-opacity="0" result="BackgroundImageFix"/>
            <feColorMatrix in="SourceAlpha" values="0 0 0 0 0 0 0 0 0 0 0 0 0 0 0 0 0 0 127 0"/>
            <feOffset dy="1"/>
            <feGaussianBlur stdDeviation="1"/>
            <feColorMatrix values="0 0 0 0 0 0 0 0 0 0 0 0 0 0 0 0 0 0 0.11 0"/>
            <feBlend in2="BackgroundImageFix" result="effect1_dropShadow"/>
            <feBlend in="SourceGraphic" in2="effect1_dropShadow" result="shape"/>
        </filter>
        <filter id="b" width="19.217" height="26.86" x="10.642" y="8.018" color-interpolation-filters="sRGB" filterUnits="userSpaceOnUse">
            <feFlood flood-opacity="0" result="BackgroundImageFix"/>
            <feColorMatrix in="SourceAlpha" values="0 0 0 0 0 0 0 0 0 0 0 0 0 0 0 0 0 0 127 0"/>
            <feOffset dy="1"/>
            <feGaussianBlur stdDeviation="1"/>
            <feColorMatrix values="0 0 0 0 0 0 0 0 0 0 0 0 0 0 0 0 0 0 0.11 0"/>
            <feBlend in2="BackgroundImageFix" result="effect1_dropShadow"/>
            <feBlend in="SourceGraphic" in2="effect1_dropShadow" result="shape"/>
        </filter>
    </defs>
</svg>
