<svg xmlns="http://www.w3.org/2000/svg" width="49" height="49" fill="none" viewBox="0 0 49 49">
    <path fill="#fff" fill-rule="evenodd" d="M48.752 22.414c0 9.74.558 15.74 0 18.363-.558 2.622-3.407 4.13-7.092 6.751-3.908 0-6.42 1.297-7.313 1.297-1.34 0-17.58-1.297-19.671-1.297H8.72c-1.146 0-4.187.173-6.365-3.199C.18 40.958-.324 27.472.18 15.11.682 2.747 4.701 1.623 4.701 1.623L8.721.5c4.69-1.123 9.774 0 15.577 0h18.257c8.573 1.124 5.862 7.305 6.197 21.915z" clip-rule="evenodd"/>
    <path stroke="#3C627B" stroke-width="2" d="M41.254 22.646c0 6.728.386 10.873 0 12.685-.386 1.812-1.736 2.853-4.281 4.664 0 .896-5.053.896-5.67.896-.926 0-12.145-.896-13.59-.896H13.6c-.792 0-2.892.12-4.396-2.21C7.698 35.456 7.35 26.14 7.698 17.6c.347-8.54 3.124-9.316 3.124-9.316l2.778-.777c3.24-.776 6.752 0 10.76 0h12.613c5.923.777 4.05 5.047 4.281 15.14z" clip-rule="evenodd"/>
</svg>
