<svg xmlns="http://www.w3.org/2000/svg" width="35" height="35" fill="none" viewBox="0 0 35 35">
    <path fill="#ED9718" fill-rule="evenodd" stroke="#fff" stroke-width="4.5" d="M3.181 11.358C4.134 8.38 9.765.133 20.655 2.848c5.788 1.443 9.657 4.563 11.262 8.813 1.52 4.024.325 8.82-.241 11.091-1.208 4.846-6.575 8.655-12.723 9.696-6.148 1.04-10.846-1.204-14.242-6.983-3.396-5.78-2.483-11.127-1.53-14.107z" clip-rule="evenodd"/>
    <path fill="#fff" d="M22.23 20.869a.847.847 0 0 1-.224.367c-.206.206-.499.332-.734.432-.09.086-.284.25-.48.297l-.243.243-.22.002c-.233.007-.495.015-.714-.204l-.092-.092a66.229 66.229 0 0 1-1.61-1.519s-.114-.091-.26-.216c-.017.019-.035.065-.054.084l-.064.091h-.033c-.005 0-.01-.012-.014-.006-.02.032-.042.054-.073.086a9.04 9.04 0 0 0-.45.488 9.85 9.85 0 0 1-.471.514c-.074.109-.19.244-.314.367-.171.172-.42.38-.677.454-.104.159-.331.435-.548.48-.602.055-1.387-.055-1.853-.52-.717-.718-.04-1.58.297-1.92.038-.132.094-.286.094-.388v-.1l.212-.064c.02-.027.223-.136.223-.174v-.09l.033-.059c.06-.06.095-.132.146-.203.06-.083.113-.166.182-.24.21-.326.472-.671.787-1.026a7.185 7.185 0 0 0-.412-.35c-.156-.153-.298-.284-.44-.415-.273-.254-.555-.515-.801-.815a.653.653 0 0 1-.208-.122l-.363-.378c-.234-.468-.045-.973.125-1.32.018-.077.06-.226.138-.34.026-.167.125-.447.303-.492a.58.58 0 0 1 .143-.16 1.22 1.22 0 0 1 .097-.108.912.912 0 0 1 .284-.2c.094-.048.2-.063.363-.087l.012.037.002-.014c.342.039.625.35.714.654.085.055.211.14.285.213.25.251.524.503.799.753.278.256.557.511.812.767.044.038.092.083.141.13a6.01 6.01 0 0 0 .148-.21c.243-.313.868-1.034 1.297-1.328.027-.02.056-.04.084-.058l.305-.304c.24-.241.54-.33.83-.248l.589.01c.433.145.744.552.827 1.072l.184.184.01.072c.053.368-.089.57-.254.744a.278.278 0 0 1-.084.177l-.137.136c.01-.009-.175.267-.324.415-.11.11-.221.244-.332.377-.1.12-.199.238-.298.344l.093.093-.154.153-.028.059a.639.639 0 0 1-.11.171l-.092.092-.19.25.048.045c.119.034.245.148.375.277l.256.011c.096.032.183.09.259.141.056.038.114.076.155.09l.067.036c.486.39 1.032.847 1.37 1.37a.667.667 0 0 1 .178.3c.098.196.204.434.087.692z"/>
</svg>
