<svg xmlns="http://www.w3.org/2000/svg" width="16" height="18" fill="none" viewBox="0 0 16 18">
    <path fill="#72A4B7" fill-rule="evenodd" d="M8.529 17.98c-4.354.304-8.01-2.875-8.442-7.006-.041-.405-.495-1.155 1.165-1.155l1.792.527a.69.69 0 0 1 .698.628c.329 2.39 2.177 4.05 4.745 3.766 2.115-.242 4.067-1.321 4.067-4.009 0-2.775-1.869-5.082-4.6-5.082v1.722a.57.57 0 0 1-.946.425l-3.881-3.24a.573.573 0 0 1 0-.87S6.065 1.474 7.008.446c.943-1.028.945-.02.945.445V2.41c4.54 0 7.887 3.24 7.887 8.342 0 3.858-2.596 6.594-6.621 7.228h-.69z" clip-rule="evenodd"/>
</svg>
