<svg xmlns="http://www.w3.org/2000/svg" width="82" height="81" fill="none" viewBox="0 0 82 81">
    <path fill="#3C627B" fill-rule="evenodd" d="M6.094 31.023C6.563 24.017 14.539 3 40.343 3 54.057 3 64.425 7.694 70.37 16.077 76 24.017 76 35.112 76 40.364c0 11.209-9.853 22.418-22.99 28.022-13.136 5.605-24.865 3.27-35.656-7.472S5.624 38.028 6.094 31.023z" clip-rule="evenodd" filter="url(#a)"/>
    <path fill="#E8EEF2" d="M43.704 35.121c-.259-.355-.763-.414-1.207-.446a56.448 56.448 0 0 1-6.748-.902c-2.12-.417-4.387-.388-6.545-.67-.327-.043-.886-.033-1.17-.231-.085 0-.345 0-.431-.085-.346 0-.95-.17-1.037-.593-.086 0-.172-.17-.259-.255v-.085s-.086-.084-.086-.17c0 0-.26-.423-.26-.592-.085-.592-.085-.846-.085-1.436 0-1.196.138-2.386.294-3.571.093-.7-.005-1.674.765-1.999.775-.326 2.308.357 3 .648 1.382.509 2.678.848 3.973 1.441 0 0 .173.085.26.085.777.34 1.554.593 2.245.932 2.246.763 2.505.848 5.183 1.696 2.591.763 5.183 1.78 7.601 2.882.691.339 1.382.762 2.073 1.102 1.32.647 7.962 1.899 6.529 4.358-.685 1.173-2.908 1.855-4.098 2.353-1.63.68-3.307 1.25-4.936 1.935-3.627 1.526-7.514 2.543-11.401 3.814 0 0-.346.17-.605.254-.346.17-.777.34-1.21.424-1.64.594-2.504.933-3.886 1.272-.087.084-.864.424-1.21.508-.767.278-1.53.504-2.33.671-.59.124-1.43.657-2.003.515-.328-.08-.612-.277-.876-.483-1.65-1.287-1.183-2.826-1.183-4.687 0-1.707.168-3.421.171-5.133.003-1.506-.303-4.12 2.075-3.343h1.468l9.256.032c.676.002 1.362-.027 2.038.006 1.382.068 2.737-.105 4.127-.247.238-.024.486-.052.69-.176"/>
    <defs>
        <filter id="a" width="82" height="80.333" x="0" y="0" color-interpolation-filters="sRGB" filterUnits="userSpaceOnUse">
            <feFlood flood-opacity="0" result="BackgroundImageFix"/>
            <feColorMatrix in="SourceAlpha" values="0 0 0 0 0 0 0 0 0 0 0 0 0 0 0 0 0 0 127 0"/>
            <feOffset dy="3"/>
            <feGaussianBlur stdDeviation="3"/>
            <feColorMatrix values="0 0 0 0 0 0 0 0 0 0 0 0 0 0 0 0 0 0 0.223364 0"/>
            <feBlend in2="BackgroundImageFix" result="effect1_dropShadow"/>
            <feBlend in="SourceGraphic" in2="effect1_dropShadow" result="shape"/>
        </filter>
    </defs>
</svg>
