<svg xmlns="http://www.w3.org/2000/svg" width="45" height="51" fill="none" viewBox="0 0 45 51">
    <g fill-rule="evenodd" clip-path="url(#a)" clip-rule="evenodd">
        <path fill="#909EC2" d="M2.946 3h3.92c2.588 0 5.237-.155 7.821 0 4.73.285 12.783.125 24.164.125 1.405 0 2.622-.013 3.65-.04a2 2 0 0 1 2.052 1.953c.18 7.867.218 12.466.117 13.798-.067.874-.094 5.225 0 12.664.025 2.003-.252 6.498 0 11.5.014.283-.023 2.009-.113 5.177a2 2 0 0 1-1.89 1.94c-3.829.21-7.303.171-10.424-.117-2.444-.225-9.38.4-18.045 0-2.847-.131-6.566-.148-11.155-.05A2 2 0 0 1 1 47.951v-18.95c0-.5.5-10.165 0-15.5C.862 12.02.844 9.171.947 4.95a2 2 0 0 1 2-1.95z"/>
        <path fill="#fff" d="M7 8c4.667-.333 9.5-.333 14.5 0 7.5.5 8 .5 11.5 0 2.333-.333 4.667-.5 7-.5V17c0 1.5-.783 6.52-.5 8.5.5 3.5.5 9.5.5 9.5s-6.254 7.405-8 9.5c-3 .334-3.5.334-7.5 0-6-.5-11 0-12 0H7c-.333-6.666-.333-12.666 0-18C7.333 21.167 7.333 15 7 8z"/>
        <path fill="#555F79" d="M24.084 24.968c-.344.345-.655.726-.96 1.098l-.111.15-.104.137a42.732 42.732 0 0 0-.102-.11 6.82 6.82 0 0 1-.26-.292c-.1-.133-.201-.267-.343-.443l-.19-.188c-.07-.105-.143-.213-.253-.323-.098-.098-.299-.332-.3-.333-.174-.21-.517-.586-.538-.604l-.051-.078c-.141-.213-.354-.535-.56-.738a2.492 2.492 0 0 0-.155-.095l.006-.014a.915.915 0 0 0-.137-.053c-.017-.009-.034-.015-.033-.015a.562.562 0 0 0-.222-.046l-.004.03c-.397.003-.866.239-.956.661-.085.257.072.535.232.696l.43.43.026.052.013.02c.268.335.542.711.807 1.075l.02.025a.464.464 0 0 1 .054.085c.276.518.781.889 1.113 1.366.191.274.395.513.577.79.095.144.183.386.333.486.738.486 1.11-.497 1.411-.977l.005-.012c.24-.253.435-.478.73-.818l.036-.042c.237-.291.474-.582.711-.868l.373-.395c.48-.51.933-.992 1.472-1.531a14.425 14.425 0 0 1 1.977-1.984c.381-.31.869-.979.756-1.492-.046-.212-.215-.48-.751-.572-.628-.075-1.115.456-1.5.877-.083.092-.163.18-.24.258a3.872 3.872 0 0 0-.213.24c-.133.023-.213.18-.267.286l-.023.044a.983.983 0 0 0-.253.287l-2.142 2.448c-.06.061-.326.33-.414.482z"/>
        <path fill="#555F79" d="M30.31 24.51c-.223-.168-.787-.313-1.084-.214-.065 1.237-.3 2.373-.546 3.557-.058.278-.078.57-.096.851-.03.465-.062.946-.27 1.356-.397.786-.999.809-1.832.84l-.077.003c-.31.012-.63.018-.952.018-1.402 0-2.89-.11-4.827-.354a16.84 16.84 0 0 0-.412-.044c-.963-.097-1.96-.197-2.105-1.306-.13-.994-.24-1.99-.345-2.955l-.098-.896a2.925 2.925 0 0 1 0-.762c.056-.941.133-1.676.345-2.435.06-.219.091-.444.121-.662.063-.46.123-.895.453-1.239.315-.328.766-.373 1.206-.373.113 0 .227.003.34.006l.268.006c.759.007 1.526.04 2.269.073.671.028 1.47.199 2.133.07.494-.096 1.026-.542.944-1.093-.116-.773-1.236-.451-1.802-.477-.586-.025-1.174-.042-1.762-.06a80.71 80.71 0 0 1-2.433-.093 6.015 6.015 0 0 0-.356-.01c-.724 0-1.72.133-2.343.768-.695.707-.8 1.72-.852 2.785-.067 1.343-.017 2.702.03 4.016l.015.381c.013.375.012.753.011 1.118-.003 1.145-.005 2.328.44 3.48.17.437.38.63.833.764 1.457.432 3.004.468 4.338.468.271 0 .543-.002.813-.004l.807-.003c.509 0 1.177.005 1.833.053.208.014.409.02.607.024.312.008.608.015.922.06.316.045.653.09.988.09.286 0 .536-.033.764-.098 1.434-.415 1.497-2.523 1.542-4.062.01-.305.018-.593.037-.822.044-.51.108-1.028.169-1.53.045-.363.09-.734.128-1.106a.706.706 0 0 0-.164-.19zM13.5 2.094v3.439c0 1.91 0 2.292.5 3.057.5.764.5 1.146 4 1.528 3.5.382 3 .382 5 .382h6c1 0 3.5-.764 3.5-2.293V3.622c0-.764 0-2.292-1.5-2.674-1.5-.382-10 0-11 0s-3-.382-4.5 0c-1 .254-1.667.636-2 1.146z"/>
        <path fill="#ADB9C1" d="M37.5 37.5c-.545.545-.41.318-2.59.318H30c.546 1.637.818 2.273.818 3.91v2.96L32 44.5l5.5-7z"/>
        <path fill="#D3DEE5" d="M40 35c-.545.545-1.91.818-4.09.818H31c.546 1.637.818 3.273.818 4.91 0 1.636.182 2.681.182 3.772l.5-.5 7.5-9z"/>
    </g>
    <defs>
        <clipPath id="a">
            <path fill="#fff" d="M0 0h45v51H0z"/>
        </clipPath>
    </defs>
</svg>
