<svg xmlns="http://www.w3.org/2000/svg" width="64" height="50" fill="none" viewBox="0 0 64 50">
    <path fill="#3C627B" fill-rule="evenodd" d="M6.008 20.585c0 7.524.296 12.3.886 14.325.59 2.026 2.835 4.052 6.732 6.077h32.418c4.074 0 6.732-.868 9.035-3.472 2.303-2.605 2.834-13.023 2.303-22.573-.532-9.55-4.783-10.418-4.783-10.418l-4.252-.869c-4.96-.868-10.452-.868-16.475 0-9.035 1.303-13.286 0-19.31 0-4.014 0-6.2 5.644-6.554 16.93z" clip-rule="evenodd" filter="url(#a)"/>
    <path fill="#fff" fill-rule="evenodd" d="M31.576 17.682c-.28 0-.28-.717 0-2.15.061-.318.06-.8-.001-1.446 0-.53-.629-.853-1.06-.508L19.17 22.584a.652.652 0 0 0-.012 1.028c3.728 2.698 6.252 4.701 7.573 6.01.737.731 1.989 1.725 3.756 2.982a.653.653 0 0 0 1.09-.487v-3.595a12.989 12.989 0 0 1 3.1 0c3.008.34 4.44 0 5.114 0h2.956c.364 0 .654-1.407.654-1.766v-3.35-3.57c0-.902-.291-2.154-.654-2.154H31.576z" clip-rule="evenodd"/>
    <defs>
        <filter id="a" width="63.58" height="50" x="0" y="0" color-interpolation-filters="sRGB" filterUnits="userSpaceOnUse">
            <feFlood flood-opacity="0" result="BackgroundImageFix"/>
            <feColorMatrix in="SourceAlpha" values="0 0 0 0 0 0 0 0 0 0 0 0 0 0 0 0 0 0 127 0"/>
            <feOffset dy="3"/>
            <feGaussianBlur stdDeviation="3"/>
            <feColorMatrix values="0 0 0 0 0 0 0 0 0 0 0 0 0 0 0 0 0 0 0.124038 0"/>
            <feBlend in2="BackgroundImageFix" result="effect1_dropShadow"/>
            <feBlend in="SourceGraphic" in2="effect1_dropShadow" result="shape"/>
        </filter>
    </defs>
</svg>
