<svg xmlns="http://www.w3.org/2000/svg" width="41" height="41" fill="none" viewBox="0 0 41 41">
    <g clip-rule="evenodd" filter="url(#a)">
        <path fill="#fff" fill-rule="evenodd" d="M5.224 12.938C6.24 9.759 12.248.96 23.866 3.858c6.175 1.54 10.303 4.868 12.016 9.402 1.621 4.294.346 9.411-.258 11.833-1.29 5.17-7.014 9.234-13.573 10.344-6.56 1.11-11.572-1.283-15.195-7.449-3.623-6.166-2.65-11.872-1.632-15.05z"/>
        <path stroke="#fff" stroke-width="4.5" d="M5.224 12.938C6.24 9.759 12.248.96 23.866 3.858c6.175 1.54 10.303 4.868 12.016 9.402 1.621 4.294.346 9.411-.258 11.833-1.29 5.17-7.014 9.234-13.573 10.344-6.56 1.11-11.572-1.283-15.195-7.449-3.623-6.166-2.65-11.872-1.632-15.05z"/>
    </g>
    <path fill="#3C627B" d="M29.71 17.627c-.021-.164-.042-.327-.061-.496-.021-.136-.021-.263-.021-.397 0-.142 0-.288-.026-.451-.18-1.147-.564-2.108-1.29-3.214-.532-.774-1.158-1.185-1.923-1.645-.886-.498-1.55-.807-2.517-1.013-.22-.053-.448-.065-.668-.078-.214-.012-.416-.024-.602-.073-.27-.049-.497-.096-.721-.145l-.038-.007h-.082a1.263 1.263 0 0 0-.307 0c-1.02 0-2.065.29-3.29.912-.37.176-.827.375-1.236.54-.006 0-.437.135-.61.317-.088.034-.178.066-.269.098-.294.104-.598.211-.856.408-2.034 1.537-3.253 4.098-3.524 7.402-.098 1.04.243 1.921.57 2.773.097.256.193.462.278.64.037.117.12.279.167.368v.016c0 .137.11.284.143.319.143.177.285.341.427.506.138.16.277.32.423.5.874.934 1.934 1.558 2.958 2.162l.44.26c1.004.617 2.25.942 3.606.942a8.81 8.81 0 0 0 1.738-.175c.381-.08.727-.254 1.062-.422l.255-.128c.087-.023.175-.044.262-.065.286-.067.582-.137.866-.31.36-.275.93-.777 1.117-.944l.845-.452c.49-.367.83-.885 1.166-1.398.2-.355.33-.684.468-1.032.06-.154.123-.313.193-.476.462-.986.898-1.917 1.087-3.08.158-.715.062-1.45-.03-2.162zM14.713 24c-1.652-1.692-1.587-4.582-1.24-6.709.085-.458.358-1.248.594-1.604.042-.09.27-.48.392-.655l.28-.3.03-.043c.023-.051.106-.151.157-.206l.532-.568a.207.207 0 0 0 .096-.091l.143-.105c.2-.148.39-.288.655-.412.051-.036.154-.088.245-.134.137-.068.228-.114.28-.166.299-.123.598-.233.895-.343.514-.19 1.046-.388 1.545-.639l.12-.053c.27-.12.419-.186.6-.248l.002.01.585-.138c.497-.069 1.006.007 1.601.109l.2.033c.173.015.343.02.51.027.412.015.8.03 1.176.163.362.145 1.056.589 1.292.74 1.172.65 1.929 1.503 2.453 2.762.185.46.221 1.008.256 1.538.015.236.031.48.06.701.01.19.026.375.043.556.05.562.097 1.093-.04 1.64a9.274 9.274 0 0 1-1.197 2.896c-.405.72-.863 1.462-1.45 1.993-.204.146-.49.293-.742.423-.08.04-.155.08-.235.123a6.091 6.091 0 0 0-.383.284c-.2.157-.39.306-.604.395a4.01 4.01 0 0 0-.374.16c-.233.103-.716.321-.8.333-2.3 0-4.113-.338-5.546-1.032l-.264-.126c-.42-.196-.816-.381-1.152-.7-.077-.066-.173-.153-.27-.24-.268-.241-.377-.337-.444-.374z"/>
    <path fill="#3C627B" d="M20.939 21.703c.115.067.223.128.317.187.031.02.1.054.187.096.127.062.538.219.538.302v.05l.928.659.086.042c.04.02.11.055.155.08l.063.062c.088.07.179.16.274.253.293.287.624.611 1.033.611a.767.767 0 0 0 .102-.007c.601-.082.994-.948.956-1.469-.037-.497-.429-.843-.744-1.12l-.092-.082c-.277-.248-.585-.451-.883-.649-.168-.111-.335-.222-.497-.34-.139-.102-.31-.192-.491-.287-.3-.157-.638-.335-.782-.56-.064-.099-.09-.23-.117-.37a2.612 2.612 0 0 0-.06-.258c-.004-.371-.011-.742-.018-1.115-.018-.953-.037-1.938.016-2.893.007-.115.02-.223.033-.327.053-.433.108-.881-.479-1.164a1.787 1.787 0 0 0-.733-.146c-.226 0-.641.04-.883.306-.377.418-.354 1.299-.337 1.942.003.122.006.232.005.325-.001.232-.018.466-.033.693-.017.246-.035.501-.035.76 0 .347-.008.7-.016 1.053a26.833 26.833 0 0 0-.002 1.75c.032.77.886 1.26 1.509 1.616z"/>
    <defs>
        <filter id="a" width="40.961" height="41" x="0" y="0" color-interpolation-filters="sRGB" filterUnits="userSpaceOnUse">
            <feFlood flood-opacity="0" result="BackgroundImageFix"/>
            <feColorMatrix in="SourceAlpha" values="0 0 0 0 0 0 0 0 0 0 0 0 0 0 0 0 0 0 127 0"/>
            <feOffset dy="1"/>
            <feGaussianBlur stdDeviation="1"/>
            <feColorMatrix values="0 0 0 0 0 0 0 0 0 0 0 0 0 0 0 0 0 0 0.11 0"/>
            <feBlend in2="BackgroundImageFix" result="effect1_dropShadow"/>
            <feBlend in="SourceGraphic" in2="effect1_dropShadow" result="shape"/>
        </filter>
    </defs>
</svg>
