<svg xmlns="http://www.w3.org/2000/svg" width="23" height="24" fill="none" viewBox="0 0 23 24">
    <path fill="#fff" d="M21.124 22.968c2.813-1.688-2.046-5.37-2.046-5.37-1.207-1.08-1.89-1.55-2.044-2.957-.127-1.156 1.242-2.68 1.355-4.266C19.067.834 7.64-4.079 1.882 4.247c-5.112 7.387.977 14.512 8.834 13.914 4.077-.31 2.963-1.618 4.837.748 1.481 1.87.149.511 1.48 2.013.907 1.021 2.812 2.813 4.09 2.046zM3.812 9.272c0-1.07.657-2.425 1.023-3.324 1.534-1.701 4.008-2.78 6.245-2.036 4.69 1.564 5.717 9.112.403 10.73-3.956 1.203-7.67-1.278-7.67-5.37z"/>
    <path fill="#fff" d="M13.206 8.167a.466.466 0 0 1 .057.23c0 .16-.066.323-.118.454-.002.069.061.5-.04.83l-.087.287-.085.087c-.088.093-.187.198-.357.198h-.072c-.003 0-.79.036-1.22.036l-.185.017c.001.014.012.039.012.054l.01.06-.012.013c-.002.002-.009-.001-.008.003.005.02.005.037.005.062 0 .123.006.243.015.365.009.129.017.256.017.384.013.071.02.17.02.265 0 .134-.016.312-.087.441.021.103.041.299-.026.4-.213.256-.786.528-1.149.528s-1.141-.513-1.143-.776c-.037-.067-.075-.149-.114-.188l-.04-.04.058-.107c-.002-.018.034-.14.02-.154l-.036-.035-.01-.036c0-.048-.014-.089-.022-.136-.01-.056-.02-.109-.022-.164a4.601 4.601 0 0 1-.094-.707 3.935 3.935 0 0 0-.296.024c-.121.001-.228.006-.334.01-.205.007-.417.015-.63-.005a.358.358 0 0 1-.128.033l-.289-.006c-.273-.091-.396-.361-.465-.563-.023-.037-.062-.34-.075-.415-.055-.076-.074-.62-.022-.706a.321.321 0 0 1-.007-.118.679.679 0 0 1-.004-.08c0-.071.01-.134.033-.188.018-.056.053-.103.107-.175l.02.01-.005-.007c.148-.118.38-.107.533-.023.054-.012.137-.028.194-.028.195 0 .4-.009.604-.018.209-.01.416-.018.616-.018l.105-.005a3.29 3.29 0 0 0-.024-.139c-.027-.216-.065-.74-.012-1.022a.83.83 0 0 1 .01-.056v-.237a.46.46 0 0 1 .227-.42l.234-.225c.225-.113 1.24-.171 1.475 0h.143l.031.023a.445.445 0 0 1 .191.39c.023.025.037.06.037.1v.107c0-.007.035.173.035.288 0 .087.009.182.017.276.008.086.016.17.018.25h.072v.12l.012.034c.012.036.024.072.024.11v.071l.024.171H11a.587.587 0 0 1 .254-.039l.104-.095a.601.601 0 0 1 .156-.046c.036-.007.074-.015.095-.025l.04-.012c.341-.038.732-.072 1.068 0 .051 0 .129.01.186.047.115.038.248.09.303.236z"/>
</svg>
