<svg xmlns="http://www.w3.org/2000/svg" xmlns:xlink="http://www.w3.org/1999/xlink" width="143" height="124" viewBox="0 0 143 124">
    <defs>
        <path id="b" d="M0 51.84C.9 18.56 6.45 1.92 16.652 1.92c15.303 0 26.104 3.84 49.057 0 15.303-2.56 29.255-2.56 41.856 0l10.802 2.56s10.802 2.56 12.152 30.72c1.35 28.16 0 58.88-5.851 66.56-5.85 7.68-12.602 10.24-22.953 10.24H19.353C9.45 106.027 3.75 100.053 2.25 94.08.75 88.107 0 74.027 0 51.84z"/>
        <filter id="a" width="116%" height="118.8%" x="-8%" y="-6.7%" filterUnits="objectBoundingBox">
            <feOffset dy="3" in="SourceAlpha" result="shadowOffsetOuter1"/>
            <feGaussianBlur in="shadowOffsetOuter1" result="shadowBlurOuter1" stdDeviation="3"/>
            <feColorMatrix in="shadowBlurOuter1" values="0 0 0 0 0 0 0 0 0 0 0 0 0 0 0 0 0 0 0.124037591 0"/>
        </filter>
    </defs>
    <g fill="none" fill-rule="evenodd">
        <g transform="matrix(-1 0 0 1 137 3)">
            <use fill="#000" filter="url(#a)" xlink:href="#b"/>
            <use fill="#E8EEF2" xlink:href="#b"/>
        </g>
        <path fill="#3C627B" fill-rule="nonzero" d="M72.006 20.973c-.165-.115-.34-.196-.507-.302-.21-.133-.416-.267-.644-.37-.3-.135-.755-.295-1.068-.129-.176.094-.385.107-.564.208-.348.197-.612.513-.849.826-.422.555-.758 1.172-1.075 1.79-.106.208-.265.343-.335.465l-3.457 5.986L56 42.45l.117.067c-.28.486-.3.624-.493.926-.63.99-1.32 2.138-1.439 3.245-.073.262.034.562.294.867.254.298.688.622 1.146.887.647.373 1.357.642 1.715.59.564-.083.792-.52.973-.873.038-.073.076-.146.118-.217a904.068 904.068 0 0 0 2.145-3.74c1.406-2.46 2.858-5.003 4.332-7.477 1.132.353 2.255 1.089 3.342 1.802.306.201.605.397.896.58.242.151.503.286.764.42.714.369 1.39.717 1.632 1.41.092.266.144.523.195.772.125.615.254 1.25 1.005 1.698l.316.194c.22.133.503.44.503.44l-.06.102.98.566c.805.464 2.198 1.402 2.916 1.547l1.019.521c.857.496 1.726.965 2.59 1.46.644.37 1.163.392 1.757.225 1.254-.352 1.798-1.756 2.39-2.78l2.28-3.95 1.564-2.71c.596-1.031 1.982-2.24 1.245-3.538-.279-.492-.868-.752-1.439-1.01-.168-.075-.296-.13-.427-.2l-.304-.028c-.649-.346-1.341-.582-1.978-.95l-2.677-1.545-.194-.244c-.423-.235-.566-.381-.751-.813-.162-.376-.25-.844-.35-1.272-.051-.222-.095-.455-.154-.665-.05-.182-.096-.373-.144-.556-.1-.374-.198-.752-.315-1.12-.235-.74-.577-.93-1.094-1.22l-7.764-4.48a12.744 12.744 0 0 1-.645-.408zm-6.026 12.86c.274-.655.548-1.378.928-2.016.116-.196.115-.457.224-.647l.178-.307 1.98 1.143.059-.102s.354.184.613.388c.26.207.835.532.821.557l-.127.22c-.197.341-.392.864-.66 1.239-.308.433-.553 1.022-.826 1.511l-1.638-.945c-.097-.057-.144-.225-.256-.296-.402-.252-.819-.654-1.296-.746zm10.142-2.956c.3.152.545.276.7.477-.23.175-.457.59-.792 1.295-.062.13-.111.235-.143.291-.03.052-.089.174-.163.329-.109.227-.367.766-.525 1.01l-.02-.082-.105.183-.12-.087c-.843-.151-1.97-.682-3.411-1.617l1.913-3.314c.991.57 1.499.859 2.17 1.247.128.073.371.205.496.268zm2.96-1.404l.633 2.632c.105.392.305.748.242.857l-1.293 2.24c.008-.013-.294-.29-.504-.765l.024-.043c-.207-.468-.331-.975-.438-1.586-.009-.05.001-.124-.005-.224-.035-.523-.077-.971-.315-1.197.387-.67.796-1.327 1.202-1.985.101-.166.205-.33.306-.495l.053.206c.03.119.06.24.094.36zm-.22 6.53a39.32 39.32 0 0 1 1.57.926l1.732 1.06c-.552.961-1.071 1.94-1.62 2.903-.436-.26-.975-.582-1.412-.846-.611-.37-.949-.582-1.937-1.157l1.666-2.886zm7.615.884l.156.092c.092.053.196.114.212.133.008.025.004.108-.054.352-.185.778-.594 1.548-.976 2.176a6.55 6.55 0 0 0-.793-.558l-2.255-1.374c.427-.737.649-1.592 1.075-2.33l.01-.018c.492.29.88.519 1.203.705l.518.297c.263.15.644.367.904.525zm-5.707 8.751c-.142-.1-.322-.073-.396-.115l-1.327-.766c.558-.972.88-1.54 1.287-2.257l.338-.73.27.092c.808.467 1.847 1.056 2.35 1.33-.17.292-.338.584-.507.877-.166.286-.397.538-.535.835a45.29 45.29 0 0 1-.29.616c-.069.14-.175.509-.327.518-.123.007-.328-.122-.438-.172a2.724 2.724 0 0 1-.425-.228zm-8.845-21.44a48.6 48.6 0 0 1 1.113.625c.368.212.615.359.972.57.305.179.806.47.805.472l-1.574 2.727-3.375-1.933c.102-.19.26-.349.361-.54.276-.526.59-1.053.894-1.572l.116-.171c.239-.424.253-.415.688-.179zm3.673 16.422c-.313.443-.577.932-.836 1.405-.181-.082-.322-.153-.42-.259-.198-.213-.233-.593-.282-.97-.03-.229-.053-.46-.118-.668-.061-.194-.103-.4-.149-.612-.083-.38-.167-.77-.342-1.128.466-.81.927-1.622 1.388-2.435l.15-.263c.072.246.147.493.222.74.123.405.246.809.356 1.206.047.166-.036.242-.007.367.138.588.298.916.788 1.21l-.163.283c-.195.338-.326.754-.587 1.124z"/>
    </g>
</svg>
