<svg xmlns="http://www.w3.org/2000/svg" width="166" height="59" fill="none" viewBox="0 0 166 59" preserveAspectRatio="none">
    <path fill="#F1F5F7" fill-rule="evenodd" d="M0 27.248S2.174.901 26.813.901s42.03 2.026 78.989 0c36.958-2.027 22.465 0 22.465 0l17.392 1.35s17.392 1.352 19.566 16.215c2.174 14.862 0 31.076-9.421 35.13-9.42 4.053-20.29 5.404-36.958 5.404-11.82 0-28.437-1.073-37.484-1.073C54.674 57.927 57.849 59 31.16 59c0 0-20.29 0-27.538-9.458C0 44.813 0 27.248 0 27.248z" clip-rule="evenodd"/>
</svg>
