<svg xmlns="http://www.w3.org/2000/svg" width="57" height="52" viewBox="0 0 57 52">
    <g fill="none" fill-rule="evenodd">
        <path fill="#FF8C66" d="M8.065 23.684C8.394 18.764 13.977 4 32.04 4c9.6 0 16.858 3.297 21.019 9.186C57 18.763 57 26.556 57 30.246c0 7.873-6.897 15.747-16.093 19.684-9.195 3.937-17.406 2.296-24.96-5.25-7.553-7.545-8.21-16.075-7.882-20.996z"/>
        <path fill="#FFEFEA" d="M26.056 42.825c-3.034-.97-11.43-6.704-8.666-17.792 1.47-5.894 4.646-9.834 8.973-11.468 4.099-1.548 8.982-.33 11.294.246 4.934 1.23 8.813 6.694 9.872 12.954 1.06 6.26-1.225 11.044-7.11 14.502-5.884 3.458-11.33 2.529-14.363 1.558z"/>
        <path fill="#FF8C66" d="M38.983 29.669C38.895 31.002 37.414 35 32.622 35c-2.547 0-4.472-.893-5.576-2.488C26 31.002 26 28.891 26 27.892c0-2.133 1.83-4.265 4.27-5.331 2.44-1.067 4.617-.622 6.621 1.421 2.004 2.044 2.179 4.354 2.092 5.687z"/>
        <g fill="#3C627B" fill-rule="nonzero">
            <path d="M32.364 29.51l.304-.411c.505-.513.404-1.435-.102-1.948l-19.01-16.814c-.505-.513-1.415-.41-1.92.103l-.304.41c-.505.512-.404 1.435.102 1.948l19.01 16.916c.606.41 1.415.41 1.92-.205z"/>
            <path d="M6.669.077L14.46 5.79c.41.296.615.69.513 1.182l-.308 5.712-5.742 1.28c-.615.099-1.127 0-1.538-.295L.106 8.25c-.204-.197-.102-.492.206-.59L5.13 6.38c.102 0 .205-.197.307-.295L6.054.47c.102-.394.41-.59.615-.394z"/>
            <path d="M32.364 30.51l.304-.411c.505-.513.404-1.435-.102-1.948l-19.01-16.814c-.505-.513-1.415-.41-1.92.103l-.304.41c-.505.512-.404 1.435.102 1.948l19.01 16.916c.606.41 1.415.41 1.92-.205z"/>
            <path d="M6.669 1.077L14.46 6.79c.41.296.615.69.513 1.182l-.308 5.712-5.742 1.28c-.615.099-1.127 0-1.538-.295L.106 9.25c-.204-.197-.102-.492.206-.59L5.13 7.38c.102 0 .205-.197.307-.295l.616-5.614c.102-.394.41-.59.615-.394z"/>
        </g>
    </g>
</svg>
