<svg xmlns="http://www.w3.org/2000/svg" width="262" height="46" fill="none" viewBox="0 0 262 46" preserveAspectRatio="none">
    <path fill="#fff" fill-rule="evenodd" d="M.024 23.183S-1.328 8.388 16.34 2.763C29.358-1.382 134.666.366 209.199.366c9.433 0 13.617 0 28.438 1.06 0 0 22.338 1.062 23.736 12.736 1.397 11.674 0 24.41-6.056 27.593C249.261 44.939 242.273 46 231.559 46h-18.874c-66.839-1.061-172.588 0-176.314 0 6.43-.149-20.031 0-20.031 0S6.077 40.98 3.748 37.265C1.418 33.551.024 23.183.024 23.183z" clip-rule="evenodd"/>
</svg>
