<svg xmlns="http://www.w3.org/2000/svg" width="41" height="39" fill="none" viewBox="0 0 41 39">
    <path fill="#DE7857" d="M40.952 24.105c-.089-.386-.308-.783-.706-1.2-.273-.287-.594-.523-.906-.765-1.11-.856-2.124-1.808-3.098-2.813-.429-.443-.563-.597-.684-1.196-.045-.221-.406-1.888-.31-1.993.864-.956 1.723-1.918 2.572-2.887.767-.874 2.14-1.816 1.738-3.088-.282-.896-1.06-1.364-1.701-1.992-1.21-1.185-1.795-3.366-3.757-2.773-.908.274-1.534 1.004-2.218 1.613-.438.39-.933.78-1.437 1.085 0 .048-.014.086-.025.126a14.601 14.601 0 0 0-4.666-2.65c-.37-1.549-.479-3.432-.71-4.507-.41-1.922-6.703-.671-8.013-.595-.203.011-.426.033-.566.18-.094.1-.13.24-.164.374L15.39 4.7c-.093.378-.165.828-.242 1.292a14.652 14.652 0 0 0-4.599 3.171 6.604 6.604 0 0 1-.596-.244c-1.513-.71-4.722-2.157-6.268-.992-.264.199-.448.482-.627.76C2.07 10.219.56 11.889.098 13.678c-.362 1.397.32 1.76 1.4 2.554 1.108.813 2.234 1.748 3.465 2.367.47.237.932.514 1.405.766v.033c0 1.036.11 2.046.314 3.022-.94 1.006-1.888 2.005-2.78 3.048-.874 1.022-2 2.148-1.042 3.487.57.797 1.31 1.454 1.856 2.266.461.685 1.77 1.696 2.616 1.979 1.476.494 3.421-1.068 4.84-2.14a14.56 14.56 0 0 0 5.737 2.634l.398 3.784c.229 2.18 4.613 1.303 5.992.925.266-.073.536-.159.758-.323 1.203-.888.986-3.339.988-4.955a14.632 14.632 0 0 0 5.525-3.635l2.514 1.309c.511.266 1.774.699 2.38.597 1.397-.235 2.42-2.652 3.007-3.678.727-1.268 1.766-2.38 1.48-3.613zM26.38 23.15a7.545 7.545 0 0 1-4.515 3.24c-2.528.623-5.445-.178-7.037-2.238-1.664-2.153-1.618-5.348-.212-7.678 1.623-2.69 6.08-5.58 9.195-3.64 3.181 1.983 4.549 7.178 2.57 10.316z"/>
</svg>
