<svg xmlns="http://www.w3.org/2000/svg" width="40" height="37" fill="none" viewBox="0 0 40 37">
    <path fill="#DE7857" d="M12.672.045s1.362.371 2.05.481c.181.029.37.062.561.099.218.031.435.064.654.098L12.672.045z"/>
    <path fill="#DE7857" d="M38.047 30.244c-2.206-2.04-4.51-3.77-6.832-5.668-.423-.346-2.088-2.052-2.864-2.342-.807-.298-2.396.937-2.464.854l-.68-.828a51.72 51.72 0 0 0-1.279-1.595l.067.044a8.468 8.468 0 0 0-.13-.141c1.808-2.79 2.655-6.311 2.186-9.357C25.023 4.57 18.593.121 12.215.002 10.16-.036 8.315.401 6.437 1.22 4.092 2.243 2.488 4.269 1.622 6.64 1.177 7.86.537 9.03.267 10.311c-1.045 4.975 1.075 9.721 4.598 13.083 1.112 1.06 2.793 2.34 4.29 2.726 4.357 1.122 9.926-.323 13.095-3.545.503.624 1.037 1.227 1.533 1.839-.095.315.187.963.112 1.055-.17.585 1.5 1.045 1.575 1.107 2.93 2.594 5.629 5.58 8.278 8.461.626.684 1.264 2.084 2.357 1.955 1.417-.162 2.81-2.463 3.35-3.324 1.023-1.626-.233-2.336-1.408-3.424zm-20.094-7.226c-1.389.776-3.046.319-4.535.525-1.5.208-2.635.663-4.18.228-2.732-.769-4.754-3.219-5.924-5.696-1.818-3.85-1.128-8.226.719-11.925 4.494-9.001 18.84-2.937 20.066 5.457.727 4.983-1.966 9.059-6.146 11.411z"/>
    <path fill="#DE7857" d="M21.014 8.235c-.064-.292-.296-.662-1.034-.788-.864-.102-1.534.628-2.063 1.207-.115.126-.225.248-.332.355-.103.103-.226.25-.293.33-.182.032-.292.247-.367.394-.012.023-.022.045-.031.06-.161.112-.267.27-.348.395l-2.948 3.37c-.085.085-.45.454-.57.664-.474.474-.902.998-1.322 1.51l-.153.206-.142.19a38.127 38.127 0 0 0-.14-.152 9.452 9.452 0 0 1-.36-.402c-.137-.183-.276-.367-.47-.609l-.263-.259c-.097-.144-.196-.293-.347-.445-.135-.134-.412-.457-.413-.458a21.79 21.79 0 0 0-.74-.831l-.071-.107c-.194-.293-.487-.736-.77-1.016a3.486 3.486 0 0 0-.213-.13l.007-.02a1.26 1.26 0 0 0-.189-.073c-.022-.012-.046-.02-.045-.02a.775.775 0 0 0-.305-.064l-.006.041c-.546.004-1.191.329-1.315.91-.118.354.099.737.32.958l.591.592.036.071.018.028c.369.461.746.979 1.11 1.479l.027.035a.64.64 0 0 1 .075.117c.38.713 1.075 1.223 1.532 1.879.263.377.543.706.794 1.087.13.199.25.532.458.67 1.016.668 1.526-.685 1.942-1.345l.007-.016c.33-.35.599-.658 1.004-1.127l.05-.057c.326-.4.652-.801.978-1.194l.513-.544a93.503 93.503 0 0 1 2.027-2.108c.898-1.078 1.787-1.97 2.72-2.729.526-.428 1.196-1.348 1.041-2.054z"/>
</svg>
