<svg xmlns="http://www.w3.org/2000/svg" width="37" height="28" fill="none" viewBox="0 0 37 28">
    <path fill="#DE7857" d="M21.443 12.102c-.282-.386-.831-.45-1.314-.485a61.441 61.441 0 0 1-7.343-.981c-2.308-.455-4.774-.423-7.122-.73-.357-.046-.965-.036-1.273-.252-.094 0-.376 0-.47-.092-.376 0-1.034-.184-1.128-.646-.094 0-.188-.184-.282-.276v-.093s-.094-.092-.094-.184c0 0-.282-.461-.282-.646-.094-.644-.094-.92-.094-1.562 0-1.301.15-2.597.32-3.886.102-.76-.005-1.822.833-2.175.844-.355 2.511.388 3.265.705 1.504.554 2.914.923 4.324 1.568 0 0 .188.093.282.093.846.369 1.692.645 2.444 1.014 2.444.83 2.726.923 5.64 1.845 2.82.83 5.64 1.937 8.271 3.136.752.37 1.504.83 2.256 1.2 1.437.704 8.665 2.066 7.105 4.742-.745 1.277-3.164 2.02-4.46 2.56-1.773.741-3.598 1.36-5.37 2.107-3.948 1.66-8.178 2.767-12.408 4.15 0 0-.376.185-.658.277a5.5 5.5 0 0 1-1.316.461c-1.786.646-2.726 1.015-4.23 1.384-.094.092-.94.461-1.316.553-.835.302-1.666.549-2.536.73-.643.135-1.557.715-2.18.561-.357-.088-.666-.302-.953-.526-1.796-1.4-1.288-3.075-1.288-5.1 0-1.858.183-3.723.187-5.587.003-1.639-.33-4.484 2.257-3.637h1.598l10.072.034c.737.003 1.483-.029 2.219.007 1.503.074 2.978-.114 4.49-.269.26-.026.53-.056.751-.191"/>
</svg>
