<svg xmlns="http://www.w3.org/2000/svg" width="51" height="30" fill="none" viewBox="0 0 51 30">
    <path fill="#DE7857" d="M36.264.696c-.132-.091-.272-.156-.405-.24-.168-.107-.332-.214-.515-.296-.24-.108-.603-.236-.852-.103-.141.075-.308.085-.451.166-.278.157-.489.41-.678.66-.337.443-.606.936-.86 1.43-.084.166-.21.274-.267.371l-2.761 4.782c-2.004 3.472-7.932 13.4-9.946 16.89l.093.053c-.224.388-.24.498-.394.74-.504.791-1.055 1.707-1.15 2.592-.058.21.028.45.236.693.203.238.55.497.915.708.517.298 1.084.513 1.37.471.45-.066.632-.415.777-.697.03-.058.061-.116.094-.173.574-.995 1.144-1.991 1.714-2.989 1.123-1.965 6.232-10.498 7.41-12.475.904.283 1.801.87 2.67 1.44.244.16.483.318.715.463.193.121.402.229.61.336.571.295 1.111.573 1.304 1.126.074.213.115.418.156.618.1.49.203.998.803 1.355l.252.156c.176.106.402.351.402.351l-.047.082.782.451c.643.372 1.756 1.12 2.33 1.236l.813.417c.685.396 1.38.77 2.069 1.166.515.295.93.313 1.404.18 1.002-.281 1.437-1.403 1.909-2.22l1.822-3.157 1.25-2.164c.475-.824 1.582-1.79.994-2.826-.223-.394-.694-.601-1.15-.807-.134-.06-.236-.104-.341-.16l-.243-.022c-.518-.277-1.072-.465-1.58-.759l-2.139-1.235-.154-.195c-.339-.187-.452-.304-.6-.649-.13-.3-.2-.674-.28-1.016-.041-.178-.076-.363-.123-.532-.04-.145-.077-.297-.116-.443-.079-.3-.157-.601-.25-.895-.188-.592-.461-.743-.875-.975L36.78 1.022a10.21 10.21 0 0 1-.515-.326z"/>
    <path fill="#F4F7F9" d="M31.849 11.192c.219-.523.438-1.1.74-1.61.094-.157.093-.365.18-.517l.142-.245 1.582.913.047-.082s.283.147.49.31c.208.165.667.425.655.445l-.1.176c-.158.273-.314.69-.528.99-.247.345-.442.816-.66 1.207l-1.308-.755c-.078-.045-.116-.18-.205-.237-.32-.2-.654-.522-1.035-.595zM39.95 8.83c.24.121.436.22.56.381-.184.14-.366.471-.633 1.034-.05.104-.089.189-.115.233-.023.041-.07.139-.13.263-.087.181-.293.612-.419.807l-.016-.066-.084.146-.096-.069c-.674-.121-1.574-.545-2.725-1.292l1.529-2.647c.792.455 1.197.686 1.734.996.101.058.296.164.395.214zM42.313 7.708l.506 2.103c.084.313.244.598.194.684l-1.033 1.79c.006-.011-.235-.232-.402-.611l.019-.035c-.166-.374-.265-.779-.35-1.266-.008-.04 0-.1-.005-.18-.028-.418-.06-.776-.25-.956.308-.535.635-1.06.96-1.586.08-.132.163-.262.244-.395l.042.165c.024.094.048.19.075.287zM42.137 12.925c.401.219.878.508 1.255.74l1.383.846c-.44.768-.855 1.55-1.293 2.319-.35-.208-.78-.465-1.128-.676-.489-.296-.758-.465-1.547-.924l1.33-2.305zM48.222 13.63l.125.074c.073.043.156.09.17.106.005.02.002.086-.044.281-.148.622-.475 1.237-.78 1.739a5.24 5.24 0 0 0-.633-.446l-1.802-1.097c.341-.589.519-1.272.859-1.862l.008-.014c.394.232.703.414.961.563l.414.237c.21.12.514.293.722.42zM43.663 20.621c-.113-.08-.257-.058-.316-.092l-1.06-.612c.446-.776.703-1.23 1.028-1.803l.27-.583.215.073c.646.373 1.476.844 1.877 1.062l-.404.701c-.133.23-.317.43-.427.667-.076.165-.154.33-.233.493-.054.112-.139.406-.26.413-.099.006-.262-.097-.35-.137a2.179 2.179 0 0 1-.34-.182zM36.598 3.496c.3.162.595.33.888.5.295.17.492.286.777.455.244.143.644.376.643.377l-1.258 2.179-2.695-1.545c.081-.152.208-.278.288-.431.22-.42.472-.841.714-1.256l.093-.137c.19-.338.202-.331.55-.142zM39.531 16.613c-.25.353-.46.744-.668 1.122-.144-.066-.257-.122-.335-.207-.158-.17-.186-.474-.225-.775-.024-.183-.042-.368-.094-.534-.05-.155-.082-.32-.12-.488-.066-.303-.133-.616-.273-.901.372-.647.74-1.296 1.109-1.946l.12-.21.177.592c.099.323.197.645.285.963.037.133-.029.193-.006.293.11.47.238.732.63.967l-.13.226c-.157.27-.261.602-.47.898z"/>
    <path fill="#DE7857" d="M14.736.696c.132-.091.272-.156.405-.24.167-.107.332-.214.514-.296.24-.108.604-.236.853-.103.141.075.308.085.451.166.278.157.489.41.678.66.337.443.606.936.86 1.43.084.166.21.274.267.371l2.76 4.782c2.005 3.472 7.933 13.4 9.947 16.89l-.093.053c.224.388.24.498.393.74.504.791 1.055 1.707 1.15 2.592.059.21-.027.45-.235.693-.203.238-.55.497-.915.708-.517.298-1.084.513-1.37.471-.45-.066-.632-.415-.778-.697a4.031 4.031 0 0 0-.093-.173c-.574-.995-1.145-1.991-1.714-2.989-1.123-1.965-6.233-10.498-7.41-12.475-.904.283-1.801.87-2.67 1.44-.244.16-.483.318-.716.463-.193.121-.401.229-.61.336-.57.295-1.11.573-1.303 1.126-.074.213-.116.418-.156.618-.1.49-.203.998-.803 1.355l-.252.156c-.176.106-.402.351-.402.351l.047.082-.782.451c-.643.372-1.756 1.12-2.33 1.236l-.813.417c-.685.396-1.38.77-2.069 1.166-.515.295-.93.313-1.404.18-1.002-.281-1.437-1.403-1.909-2.22l-1.822-3.157-1.25-2.164c-.475-.824-1.582-1.79-.994-2.826.223-.394.694-.601 1.15-.807.134-.06.236-.104.341-.16l.243-.022c.518-.277 1.071-.465 1.58-.759l2.139-1.235.154-.195c.339-.187.452-.304.6-.649.13-.3.2-.674.28-1.016.041-.178.076-.363.123-.532.04-.145.077-.297.115-.443.08-.3.158-.601.251-.895.188-.592.461-.743.875-.975l6.202-3.579c.105-.06.38-.233.514-.326z"/>
    <path fill="#F4F7F9" d="M19.152 11.192c-.22-.523-.438-1.1-.741-1.61-.093-.157-.092-.365-.18-.517l-.141-.245-1.582.913-.047-.082s-.283.147-.49.31c-.208.165-.667.425-.656.445l.101.176c.158.273.314.69.527.99.247.345.443.816.66 1.207l1.309-.755c.078-.045.115-.18.205-.237.32-.2.654-.522 1.035-.595zM11.05 8.83c-.239.121-.436.22-.56.381.185.14.366.471.634 1.034.049.104.088.189.114.233.024.041.07.139.13.263.087.181.293.612.42.807l.016-.066.083.146.096-.069c.674-.121 1.574-.545 2.725-1.292L13.179 7.62c-.791.455-1.197.686-1.733.996-.102.058-.297.164-.396.214zM8.686 7.708L8.18 9.811c-.083.313-.243.598-.193.684l1.033 1.79c-.006-.011.235-.232.402-.611l-.019-.035c.166-.374.265-.779.35-1.266.007-.04 0-.1.005-.18.027-.418.06-.776.25-.956-.308-.535-.635-1.06-.96-1.586-.08-.132-.163-.262-.244-.395l-.042.165c-.024.094-.049.19-.076.287zM8.863 12.925c-.401.219-.878.508-1.255.74l-1.383.846c.44.768.855 1.55 1.293 2.319.35-.208.78-.465 1.128-.676.489-.296.759-.465 1.548-.924l-1.331-2.305zM2.778 13.63l-.125.074c-.073.043-.156.09-.17.106-.005.02-.002.086.044.281.148.622.475 1.237.78 1.739.175-.146.381-.292.633-.446l1.802-1.097c-.341-.589-.519-1.272-.859-1.862l-.008-.014c-.393.232-.703.414-.961.563l-.413.237c-.21.12-.515.293-.723.42zM7.337 20.621c.113-.08.257-.058.316-.092l1.06-.612c-.446-.776-.702-1.23-1.028-1.803l-.27-.583-.215.073c-.646.373-1.476.844-1.877 1.062l.404.701c.133.23.318.43.427.667.076.165.154.33.233.493.054.112.139.406.26.413.099.006.262-.097.35-.137.116-.053.235-.109.34-.182zM14.402 3.496c-.299.162-.595.33-.888.5-.294.17-.492.286-.777.455l-.643.377 1.258 2.179 2.695-1.545c-.08-.152-.208-.278-.288-.431-.22-.42-.472-.841-.714-1.256l-.093-.137c-.19-.338-.202-.331-.55-.142zM11.469 16.613c.25.353.46.744.668 1.122.144-.066.257-.122.335-.207.158-.17.186-.474.225-.775.024-.183.042-.368.095-.534.048-.155.081-.32.118-.488.067-.303.134-.616.274-.901-.372-.647-.74-1.296-1.109-1.946l-.12-.21a86.26 86.26 0 0 1-.177.592c-.099.323-.197.645-.285.963-.037.133.03.193.006.293-.11.47-.238.732-.63.967l.131.226c.156.27.26.602.469.898z"/>
</svg>
