<svg xmlns="http://www.w3.org/2000/svg" width="14" height="14" fill="none" viewBox="0 0 14 14">
    <path fill="#6CD38A" fill-rule="evenodd" d="M.403 4.17C.842 2.797 3.436-1.002 8.453.25c2.667.665 4.45 2.102 5.19 4.06.7 1.855.149 4.065-.112 5.11-.556 2.233-3.029 3.988-5.861 4.467-2.833.48-4.998-.554-6.562-3.216C-.457 8.007-.036 5.543.403 4.17z" clip-rule="evenodd"/>
    <path fill="#fff" d="M8.966 4.962h.005c.041 0 .093.03.135.053l.084.054c.212.144.566.385.527.626v.003c-.017.137-.168.278-.29.39a2.637 2.637 0 0 0-.102.098c-.068.071-.129.149-.188.223a2.744 2.744 0 0 1-.173.207c-.291.28-.556.601-.812.912-.342.414-.695.843-1.107 1.165-.05.04-.096.079-.142.118-.174.147-.324.274-.54.356-.3.128-.467-.027-.699-.241a3.67 3.67 0 0 0-.2-.176c-.376-.343-.65-.67-.968-1.047l-.138-.164c-.15-.178-.355-.421-.297-.645.036-.147.21-.26.35-.352.03-.019.057-.037.096-.066l.078-.081c.053-.055.263-.22.344-.245a.895.895 0 0 0 .063-.01c.035-.007.077-.016.103-.016l.028-.005c.028-.009.068.008.115.029l.044.018.09.094c.022.023.043.05.067.08.033.042.07.09.105.122.015.024.035.061.06.106.154.278.474.855.837.652.582-.364 1.124-.93 1.479-1.345.055-.072.111-.15.169-.23.247-.35.504-.71.87-.654l.007-.03z"/>
</svg>
