<svg xmlns="http://www.w3.org/2000/svg" width="14" height="14" fill="none" viewBox="0 0 14 14">
    <path fill="#ADB9C1" d="M12.144 11.42a1.06 1.06 0 0 1-.157.466 4.115 4.115 0 0 1-.841.832c-.636.535-1.474.78-2.055.95l-.037.01-.012.004-.012.003c-.082.02-.224.04-.379.038a1.035 1.035 0 0 1-.58-.17 1.922 1.922 0 0 1-.102-.068.996.996 0 0 1-.183-.162c-.012-.014-.098-.117-.164-.251a.872.872 0 0 1-.093-.52l.001-.01.032-.37.207-.128c.068-.08.166-.175.316-.257l.029-.016.093-.036.035-.009c.167-.04.352-.034.486-.024h.003c.053-.02.137-.048.224-.07.219-.013.708-.101.915-.346.108-.075.347-.253.442-.371.096-.118.22-.264.272-.322l.13-.102.069-.027a.99.99 0 0 1 .74-.011c.274.1.5.316.587.618v.001a.96.96 0 0 1 .034.349zM5.769 13.32a1.06 1.06 0 0 1-.478.11 4.118 4.118 0 0 1-1.15-.28c-.788-.262-1.436-.847-1.885-1.253l-.029-.026-.01-.009-.008-.009a1.603 1.603 0 0 1-.23-.302 1.035 1.035 0 0 1-.16-.584c0-.034.002-.077.005-.121a1 1 0 0 1 .17-.513.872.872 0 0 1 .394-.35l.01-.005.33-.167.218.109c.104.016.236.05.385.134l.028.017.08.06.026.026c.12.12.213.282.275.401l.002.002c.044.036.113.092.176.154.127.18.458.55.775.598.12.053.397.164.548.183.15.02.34.05.416.062l.155.058.06.044a.99.99 0 0 1 .397.625.936.936 0 0 1-.22.824v.001a.96.96 0 0 1-.28.21zM13.364 4.766c.135.099.243.228.318.374.08.192.248.69.279 1.15.13.82-.093 1.665-.247 2.25l-.01.038-.003.012-.004.012a1.6 1.6 0 0 1-.162.344c-.067.106-.21.307-.446.409-.03.015-.068.034-.11.052a1 1 0 0 1-.533.084c-.254-.006-.444-.151-.493-.188l-.008-.006-.3-.218-.004-.244a1.117 1.117 0 0 1-.057-.403l.001-.033.017-.098.011-.035c.052-.163.153-.319.23-.429l.001-.003c.012-.055.03-.142.056-.227.101-.194.278-.659.176-.962-.008-.131-.038-.429-.09-.571a12.188 12.188 0 0 1-.136-.398l-.02-.164.012-.074a.99.99 0 0 1 .372-.64.936.936 0 0 1 .833-.184h.002a.961.961 0 0 1 .315.152zM6.404.128A1.06 1.06 0 0 0 5.931 0c-.208.009-.73.069-1.16.236-.798.232-1.467.792-1.932 1.18l-.03.025-.009.008-.01.009a1.605 1.605 0 0 0-.24.293c-.069.106-.19.32-.182.577a1.935 1.935 0 0 0 0 .122 1 1 0 0 0 .15.519c.115.227.327.338.38.366l.01.004.325.18.221-.1c.104-.013.238-.042.39-.12l.029-.016.082-.057.027-.025c.125-.116.223-.273.29-.39l.002-.002c.045-.034.116-.088.182-.148.133-.174.478-.532.796-.568.122-.048.404-.148.555-.161.151-.014.342-.037.418-.047l.157-.051.061-.043a.99.99 0 0 0 .421-.609.936.936 0 0 0-.187-.831L6.676.349a.961.961 0 0 0-.272-.22zM.878 4.094a1.06 1.06 0 0 0-.356.337c-.1.182-.322.66-.403 1.113-.218.802-.088 1.665.002 2.264l.006.038.001.013.003.012c.016.082.057.22.125.359.054.113.174.328.398.455.028.019.065.042.104.064a1 1 0 0 0 .52.141c.254.021.46-.102.511-.134l.009-.005.322-.184.03-.241c.043-.096.089-.225.1-.395l.003-.033-.006-.1-.008-.036a1.665 1.665 0 0 0-.182-.45v-.004c-.006-.056-.015-.144-.032-.232-.08-.204-.205-.685-.07-.975.022-.13.084-.422.151-.558.067-.136.147-.31.179-.381l.037-.16-.004-.075a.99.99 0 0 0-.3-.677.936.936 0 0 0-.808-.273h-.002a.961.961 0 0 0-.33.117zM12.621 2.644a1.058 1.058 0 0 0-.125-.474 4.113 4.113 0 0 0-.784-.886C11.112.708 10.292.408 9.724.2L9.687.187 9.676.183 9.664.179a1.604 1.604 0 0 0-.375-.063 1.036 1.036 0 0 0-.59.132c-.03.016-.068.037-.106.06a1 1 0 0 0-.374.39c-.14.213-.13.452-.127.512v.01l.008.371.197.142c.063.084.155.186.299.277l.027.018.09.043.036.01c.163.051.349.057.483.057h.003c.052.023.134.057.219.084.217.028.7.149.89.406.102.082.33.276.417.4.087.124.202.278.25.34l.122.11.067.031a.99.99 0 0 0 .738.06.935.935 0 0 0 .627-.578V2.99a.959.959 0 0 0 .056-.345z"/>
</svg>
