<svg xmlns="http://www.w3.org/2000/svg" width="14" height="14" fill="none" viewBox="0 0 14 14">
    <path fill="#3C627B" fill-rule="evenodd" d="M7.24.007c1.418-.1 5.851.886 6.542 5.943.368 2.687-.21 4.695-1.734 6.09-1.443 1.321-3.757 1.779-4.811 1.923-2.25.307-4.765-1.316-6.242-3.737-1.477-2.42-1.322-4.783.545-7.192C3.408.624 5.82.107 7.24.007z" clip-rule="evenodd"/>
    <path fill="#fff" d="M6.471 2.406l-.18.028c-.756.11-.853.172-.853.978 0 .331 0 .948.466 1.17.382.182 1.145.06 1.4-.317.27-.398.31-1.061.09-1.478-.177-.335-.356-.42-.579-.42-.102 0-.214.018-.34.038h-.004zM5.203 5.397c.343-.392.66-.302.957-.302h.719c.146 0 .303.022.468.067.844.231.831.992.82 1.663-.002.083-.003.168-.003.25.008.09.028.24.052.422.052.39.1.78.128 1.147.004.043.324 0 .461.127.281.261.227.988.145 1.339-.061.259-.813.364-.98.468-.1.062-1.005.11-1.332.11h.01c-.125-.016-1.312-.067-1.395-.11l-.05-.04c-.294-.36-.36-1.084-.154-1.584.056-.135.986-.052.998-.183.02-.21.038-.408.037-.579-.002-.257-.06-.553-.12-.866a3.126 3.126 0 0 0-.138-.444c-.921 0-.921-1.395-.623-1.485z"/>
</svg>
